%TF.GenerationSoftware,KiCad,Pcbnew,9.0.6-9.0.6~ubuntu24.04.1*%
%TF.CreationDate,2025-11-03T07:43:40+01:00*%
%TF.ProjectId,BB3plus CM5 STM32H7 module,42423370-6c75-4732-9043-4d352053544d,rev?*%
%TF.SameCoordinates,Original*%
%TF.FileFunction,Copper,L6,Bot*%
%TF.FilePolarity,Positive*%
%FSLAX46Y46*%
G04 Gerber Fmt 4.6, Leading zero omitted, Abs format (unit mm)*
G04 Created by KiCad (PCBNEW 9.0.6-9.0.6~ubuntu24.04.1) date 2025-11-03 07:43:40*
%MOMM*%
%LPD*%
G01*
G04 APERTURE LIST*
G04 Aperture macros list*
%AMRoundRect*
0 Rectangle with rounded corners*
0 $1 Rounding radius*
0 $2 $3 $4 $5 $6 $7 $8 $9 X,Y pos of 4 corners*
0 Add a 4 corners polygon primitive as box body*
4,1,4,$2,$3,$4,$5,$6,$7,$8,$9,$2,$3,0*
0 Add four circle primitives for the rounded corners*
1,1,$1+$1,$2,$3*
1,1,$1+$1,$4,$5*
1,1,$1+$1,$6,$7*
1,1,$1+$1,$8,$9*
0 Add four rect primitives between the rounded corners*
20,1,$1+$1,$2,$3,$4,$5,0*
20,1,$1+$1,$4,$5,$6,$7,0*
20,1,$1+$1,$6,$7,$8,$9,0*
20,1,$1+$1,$8,$9,$2,$3,0*%
G04 Aperture macros list end*
%TA.AperFunction,SMDPad,CuDef*%
%ADD10R,0.200000X0.700000*%
%TD*%
%TA.AperFunction,SMDPad,CuDef*%
%ADD11RoundRect,0.140000X-0.170000X0.140000X-0.170000X-0.140000X0.170000X-0.140000X0.170000X0.140000X0*%
%TD*%
%TA.AperFunction,SMDPad,CuDef*%
%ADD12R,1.400000X1.200000*%
%TD*%
%TA.AperFunction,SMDPad,CuDef*%
%ADD13RoundRect,0.140000X0.170000X-0.140000X0.170000X0.140000X-0.170000X0.140000X-0.170000X-0.140000X0*%
%TD*%
%TA.AperFunction,SMDPad,CuDef*%
%ADD14RoundRect,0.140000X0.140000X0.170000X-0.140000X0.170000X-0.140000X-0.170000X0.140000X-0.170000X0*%
%TD*%
%TA.AperFunction,SMDPad,CuDef*%
%ADD15RoundRect,0.140000X-0.140000X-0.170000X0.140000X-0.170000X0.140000X0.170000X-0.140000X0.170000X0*%
%TD*%
%TA.AperFunction,SMDPad,CuDef*%
%ADD16RoundRect,0.225000X0.225000X0.250000X-0.225000X0.250000X-0.225000X-0.250000X0.225000X-0.250000X0*%
%TD*%
%TA.AperFunction,SMDPad,CuDef*%
%ADD17RoundRect,0.225000X0.250000X-0.225000X0.250000X0.225000X-0.250000X0.225000X-0.250000X-0.225000X0*%
%TD*%
%TA.AperFunction,SMDPad,CuDef*%
%ADD18RoundRect,0.225000X-0.250000X0.225000X-0.250000X-0.225000X0.250000X-0.225000X0.250000X0.225000X0*%
%TD*%
%TA.AperFunction,SMDPad,CuDef*%
%ADD19RoundRect,0.135000X0.135000X0.185000X-0.135000X0.185000X-0.135000X-0.185000X0.135000X-0.185000X0*%
%TD*%
%TA.AperFunction,SMDPad,CuDef*%
%ADD20RoundRect,0.225000X-0.225000X-0.250000X0.225000X-0.250000X0.225000X0.250000X-0.225000X0.250000X0*%
%TD*%
%TA.AperFunction,SMDPad,CuDef*%
%ADD21RoundRect,0.135000X0.185000X-0.135000X0.185000X0.135000X-0.185000X0.135000X-0.185000X-0.135000X0*%
%TD*%
%TA.AperFunction,SMDPad,CuDef*%
%ADD22RoundRect,0.135000X-0.185000X0.135000X-0.185000X-0.135000X0.185000X-0.135000X0.185000X0.135000X0*%
%TD*%
%TA.AperFunction,SMDPad,CuDef*%
%ADD23RoundRect,0.050800X0.449200X0.499200X-0.449200X0.499200X-0.449200X-0.499200X0.449200X-0.499200X0*%
%TD*%
%TA.AperFunction,SMDPad,CuDef*%
%ADD24RoundRect,0.042333X-0.402167X-0.833967X0.402167X-0.833967X0.402167X0.833967X-0.402167X0.833967X0*%
%TD*%
%TA.AperFunction,SMDPad,CuDef*%
%ADD25R,1.200000X1.400000*%
%TD*%
%TA.AperFunction,SMDPad,CuDef*%
%ADD26RoundRect,0.135000X-0.135000X-0.185000X0.135000X-0.185000X0.135000X0.185000X-0.135000X0.185000X0*%
%TD*%
%TA.AperFunction,SMDPad,CuDef*%
%ADD27RoundRect,0.050800X-0.499200X0.449200X-0.499200X-0.449200X0.499200X-0.449200X0.499200X0.449200X0*%
%TD*%
%TA.AperFunction,ViaPad*%
%ADD28C,0.420000*%
%TD*%
%TA.AperFunction,ViaPad*%
%ADD29C,0.450000*%
%TD*%
%TA.AperFunction,ViaPad*%
%ADD30C,0.500000*%
%TD*%
%TA.AperFunction,Conductor*%
%ADD31C,0.152400*%
%TD*%
%TA.AperFunction,Conductor*%
%ADD32C,0.127000*%
%TD*%
%TA.AperFunction,Conductor*%
%ADD33C,0.508000*%
%TD*%
%TA.AperFunction,Conductor*%
%ADD34C,0.254000*%
%TD*%
%TA.AperFunction,Conductor*%
%ADD35C,0.203200*%
%TD*%
G04 APERTURE END LIST*
D10*
%TO.P,SoM1,1,GND*%
%TO.N,GND*%
X114300000Y-110700000D03*
%TO.P,SoM1,2,GND*%
X114300000Y-107620000D03*
%TO.P,SoM1,3,Ethernet_Pair3_P*%
%TO.N,unconnected-(SoM1A-Ethernet_Pair3_P-Pad3)*%
X114700000Y-110700000D03*
%TO.P,SoM1,4,Ethernet_Pair1_P*%
%TO.N,ETH_TXRX_B+*%
X114700000Y-107620000D03*
%TO.P,SoM1,5,Ethernet_Pair3_N*%
%TO.N,unconnected-(SoM1A-Ethernet_Pair3_N-Pad5)*%
X115100000Y-110700000D03*
%TO.P,SoM1,6,Ethernet_Pair1_N*%
%TO.N,ETH_TXRX_B-*%
X115100000Y-107620000D03*
%TO.P,SoM1,7,GND*%
%TO.N,GND*%
X115500000Y-110700000D03*
%TO.P,SoM1,8,GND*%
X115500000Y-107620000D03*
%TO.P,SoM1,9,Ethernet_Pair2_N*%
%TO.N,unconnected-(SoM1A-Ethernet_Pair2_N-Pad9)*%
X115900000Y-110700000D03*
%TO.P,SoM1,10,Ethernet_Pair0_N*%
%TO.N,ETH_TXRX_A-*%
X115900000Y-107620000D03*
%TO.P,SoM1,11,Ethernet_Pair2_P*%
%TO.N,unconnected-(SoM1A-Ethernet_Pair2_P-Pad11)*%
X116300000Y-110700000D03*
%TO.P,SoM1,12,Ethernet_Pair0_P*%
%TO.N,ETH_TXRX_A+*%
X116300000Y-107620000D03*
%TO.P,SoM1,13,GND*%
%TO.N,GND*%
X116700000Y-110700000D03*
%TO.P,SoM1,14,GND*%
X116700000Y-107620000D03*
%TO.P,SoM1,15,Ethernet_nLED3(3.3v)*%
%TO.N,~{ETH_LINK_ACT}*%
X117100000Y-110700000D03*
%TO.P,SoM1,16,Fan_Tacho*%
%TO.N,unconnected-(SoM1A-Fan_Tacho-Pad16)*%
X117100000Y-107620000D03*
%TO.P,SoM1,17,Ethernet_nLED2(3.3v)*%
%TO.N,~{ETH_LINK100}*%
X117500000Y-110700000D03*
%TO.P,SoM1,18,Ethernet_SYNC_OUT(1.8v)*%
%TO.N,unconnected-(SoM1A-Ethernet_SYNC_OUT(1.8v)-Pad18)*%
X117500000Y-107620000D03*
%TO.P,SoM1,19,Fan_PWM*%
%TO.N,unconnected-(SoM1A-Fan_PWM-Pad19)*%
X117900000Y-110700000D03*
%TO.P,SoM1,20,EEPROM_nWP*%
%TO.N,unconnected-(SoM1A-EEPROM_nWP-Pad20)*%
X117900000Y-107620000D03*
%TO.P,SoM1,21,LED_nACT*%
%TO.N,~{LED_ACT}*%
X118300000Y-110700000D03*
%TO.P,SoM1,22,GND*%
%TO.N,GND*%
X118300000Y-107620000D03*
%TO.P,SoM1,23,GND*%
X118700000Y-110700000D03*
%TO.P,SoM1,24,GPIO26*%
%TO.N,~{SYSMCU_CS}*%
X118700000Y-107620000D03*
%TO.P,SoM1,25,GPIO21*%
%TO.N,~{DIB3_IRQ}*%
X119100000Y-110700000D03*
%TO.P,SoM1,26,GPIO19*%
%TO.N,~{DIB1_IRQ}*%
X119100000Y-107620000D03*
%TO.P,SoM1,27,GPIO20*%
%TO.N,~{DIB2_IRQ}*%
X119500000Y-110700000D03*
%TO.P,SoM1,28,GPIO13*%
%TO.N,DIB1{slash}DIB3_MISO*%
X119500000Y-107620000D03*
%TO.P,SoM1,29,GPIO16*%
%TO.N,RS485_TX_EN{slash}DOUT2*%
X119900000Y-110700000D03*
%TO.P,SoM1,30,GPIO6*%
%TO.N,DIB4_MOSI*%
X119900000Y-107620000D03*
%TO.P,SoM1,31,GPIO12*%
%TO.N,~{DIB1_CSA}*%
X120300000Y-110700000D03*
%TO.P,SoM1,32,GND*%
%TO.N,GND*%
X120300000Y-107620000D03*
%TO.P,SoM1,33,GND*%
X120700000Y-110700000D03*
%TO.P,SoM1,34,GPIO5*%
%TO.N,DIB4_MISO*%
X120700000Y-107620000D03*
%TO.P,SoM1,35,ID_SC/GPIO1*%
%TO.N,unconnected-(SoM1A-ID_SC{slash}GPIO1-Pad35)*%
X121100000Y-110700000D03*
%TO.P,SoM1,36,ID_SD/GPIO0*%
%TO.N,unconnected-(SoM1A-ID_SD{slash}GPIO0-Pad36)*%
X121100000Y-107620000D03*
%TO.P,SoM1,37,GPIO7*%
%TO.N,DIB4_SCLK*%
X121500000Y-110700000D03*
%TO.P,SoM1,38,GPIO11*%
%TO.N,DIB2{slash}DIB5_SCLK*%
X121500000Y-107620000D03*
%TO.P,SoM1,39,GPIO8*%
%TO.N,~{DIB2_CSA}*%
X121900000Y-110700000D03*
%TO.P,SoM1,40,GPIO9*%
%TO.N,DIB2{slash}DIB5_MISO*%
X121900000Y-107620000D03*
%TO.P,SoM1,41,GPIO25*%
%TO.N,~{TFT_IRQ}*%
X122300000Y-110700000D03*
%TO.P,SoM1,42,GND*%
%TO.N,GND*%
X122300000Y-107620000D03*
%TO.P,SoM1,43,GND*%
X122700000Y-110700000D03*
%TO.P,SoM1,44,GPIO10*%
%TO.N,DIB2{slash}DIB5_MOSI*%
X122700000Y-107620000D03*
%TO.P,SoM1,45,GPIO24*%
%TO.N,~{SYSMCU_IRQ}*%
X123100000Y-110700000D03*
%TO.P,SoM1,46,GPIO22*%
%TO.N,~{DIB4_IRQ}*%
X123100000Y-107620000D03*
%TO.P,SoM1,47,GPIO23*%
%TO.N,~{DIB5_IRQ}*%
X123500000Y-110700000D03*
%TO.P,SoM1,48,GPIO27*%
%TO.N,WDG_IN*%
X123500000Y-107620000D03*
%TO.P,SoM1,49,GPIO18*%
%TO.N,~{DIB5_CSA}*%
X123900000Y-110700000D03*
%TO.P,SoM1,50,GPIO17*%
%TO.N,~{DIB3_CSA}*%
X123900000Y-107620000D03*
%TO.P,SoM1,51,GPIO15*%
%TO.N,DIB1{slash}DIB3_SCLK*%
X124300000Y-110700000D03*
%TO.P,SoM1,52,GND*%
%TO.N,GND*%
X124300000Y-107620000D03*
%TO.P,SoM1,53,GND*%
X124700000Y-110700000D03*
%TO.P,SoM1,54,GPIO4*%
%TO.N,~{DIB4_CSA}*%
X124700000Y-107620000D03*
%TO.P,SoM1,55,GPIO14*%
%TO.N,DIB1{slash}DIB3_MOSI*%
X125100000Y-110700000D03*
%TO.P,SoM1,56,GPIO3*%
%TO.N,UART0_TX{slash}DOUT3*%
X125100000Y-107620000D03*
%TO.P,SoM1,57,SD_CLK*%
%TO.N,unconnected-(SoM1A-SD_CLK-Pad57)*%
X125500000Y-110700000D03*
%TO.P,SoM1,58,GPIO2*%
%TO.N,UART0_RX{slash}DIN2*%
X125500000Y-107620000D03*
%TO.P,SoM1,59,GND*%
%TO.N,GND*%
X125900000Y-110700000D03*
%TO.P,SoM1,60,GND*%
X125900000Y-107620000D03*
%TO.P,SoM1,61,SD_DAT3*%
%TO.N,unconnected-(SoM1A-SD_DAT3-Pad61)*%
X126300000Y-110700000D03*
%TO.P,SoM1,62,SD_CMD*%
%TO.N,unconnected-(SoM1A-SD_CMD-Pad62)*%
X126300000Y-107620000D03*
%TO.P,SoM1,63,SD_DAT0*%
%TO.N,unconnected-(SoM1A-SD_DAT0-Pad63)*%
X126700000Y-110700000D03*
%TO.P,SoM1,64,SD_DAT5*%
%TO.N,unconnected-(SoM1A-SD_DAT5-Pad64)*%
X126700000Y-107620000D03*
%TO.P,SoM1,65,GND*%
%TO.N,GND*%
X127100000Y-110700000D03*
%TO.P,SoM1,66,GND*%
X127100000Y-107620000D03*
%TO.P,SoM1,67,SD_DAT1*%
%TO.N,unconnected-(SoM1A-SD_DAT1-Pad67)*%
X127500000Y-110700000D03*
%TO.P,SoM1,68,SD_DAT4*%
%TO.N,unconnected-(SoM1A-SD_DAT4-Pad68)*%
X127500000Y-107620000D03*
%TO.P,SoM1,69,SD_DAT2*%
%TO.N,unconnected-(SoM1A-SD_DAT2-Pad69)*%
X127900000Y-110700000D03*
%TO.P,SoM1,70,SD_DAT7*%
%TO.N,unconnected-(SoM1A-SD_DAT7-Pad70)*%
X127900000Y-107620000D03*
%TO.P,SoM1,71,GND*%
%TO.N,GND*%
X128300000Y-110700000D03*
%TO.P,SoM1,72,SD_DAT6*%
%TO.N,unconnected-(SoM1A-SD_DAT6-Pad72)*%
X128300000Y-107620000D03*
%TO.P,SoM1,73,SD_VDD_Override*%
%TO.N,unconnected-(SoM1A-SD_VDD_Override-Pad73)*%
X128700000Y-110700000D03*
%TO.P,SoM1,74,GND*%
%TO.N,GND*%
X128700000Y-107620000D03*
%TO.P,SoM1,75,SD_PWR_ON*%
%TO.N,unconnected-(SoM1A-SD_PWR_ON-Pad75)*%
X129100000Y-110700000D03*
%TO.P,SoM1,76,VBAT*%
%TO.N,+VAUX*%
X129100000Y-107620000D03*
%TO.P,SoM1,77,+5v(Input)*%
%TO.N,/CM5 socket/+5V_IN*%
X129500000Y-110700000D03*
%TO.P,SoM1,78,GPIO_VREF(1.8v/3.3v_Input)*%
%TO.N,GPIO_VREF*%
X129500000Y-107620000D03*
%TO.P,SoM1,79,+5v(Input)*%
%TO.N,/CM5 socket/+5V_IN*%
X129900000Y-110700000D03*
%TO.P,SoM1,80,SCL0*%
%TO.N,SCL*%
X129900000Y-107620000D03*
%TO.P,SoM1,81,+5v(Input)*%
%TO.N,/CM5 socket/+5V_IN*%
X130300000Y-110700000D03*
%TO.P,SoM1,82,SDA0*%
%TO.N,SDA*%
X130300000Y-107620000D03*
%TO.P,SoM1,83,+5v(Input)*%
%TO.N,/CM5 socket/+5V_IN*%
X130700000Y-110700000D03*
%TO.P,SoM1,84,CM5_3.3v*%
%TO.N,+3V3*%
X130700000Y-107620000D03*
%TO.P,SoM1,85,+5v(Input)*%
%TO.N,/CM5 socket/+5V_IN*%
X131100000Y-110700000D03*
%TO.P,SoM1,86,CM5_3.3v*%
%TO.N,+3V3*%
X131100000Y-107620000D03*
%TO.P,SoM1,87,+5v(Input)*%
%TO.N,/CM5 socket/+5V_IN*%
X131500000Y-110700000D03*
%TO.P,SoM1,88,CM5_1.8v*%
%TO.N,+1V8*%
X131500000Y-107620000D03*
%TO.P,SoM1,89,WiFi_nDisable*%
%TO.N,GND*%
X131900000Y-110700000D03*
%TO.P,SoM1,90,CM5_1.8v*%
%TO.N,+1V8*%
X131900000Y-107620000D03*
%TO.P,SoM1,91,BT_nDisable*%
%TO.N,GND*%
X132300000Y-110700000D03*
%TO.P,SoM1,92,PWR_Button*%
%TO.N,~{RESET_OUT}*%
X132300000Y-107620000D03*
%TO.P,SoM1,93,nRPIBOOT*%
%TO.N,BOOT0*%
X132700000Y-110700000D03*
%TO.P,SoM1,94,CC1*%
%TO.N,unconnected-(SoM1A-CC1-Pad94)*%
X132700000Y-107620000D03*
%TO.P,SoM1,95,LED_nPWR*%
%TO.N,~{LED_PWR}*%
X133100000Y-110700000D03*
%TO.P,SoM1,96,CC2*%
%TO.N,unconnected-(SoM1A-CC2-Pad96)*%
X133100000Y-107620000D03*
%TO.P,SoM1,97,CAM_GPIO0*%
%TO.N,UART1_TX{slash}DOUT1*%
X133500000Y-110700000D03*
%TO.P,SoM1,98,GND*%
%TO.N,GND*%
X133500000Y-107620000D03*
%TO.P,SoM1,99,PMIC_EN*%
%TO.N,unconnected-(SoM1A-PMIC_EN-Pad99)*%
X133900000Y-110700000D03*
%TO.P,SoM1,100,CAM_GPIO1*%
%TO.N,UART1_RX{slash}DIN1*%
X133900000Y-107620000D03*
%TO.P,SoM1,101,USB_OTG_ID*%
%TO.N,unconnected-(SoM1B-USB_OTG_ID-Pad101)*%
X114300000Y-76780000D03*
%TO.P,SoM1,102,PCIe_CLK_nREQ*%
%TO.N,unconnected-(SoM1B-PCIe_CLK_nREQ-Pad102)*%
X114300000Y-73700000D03*
%TO.P,SoM1,103,USB_N*%
%TO.N,unconnected-(SoM1B-USB_N-Pad103)*%
X114700000Y-76780000D03*
%TO.P,SoM1,104,PCIE_nWAKE*%
%TO.N,unconnected-(SoM1B-PCIE_nWAKE-Pad104)*%
X114700000Y-73700000D03*
%TO.P,SoM1,105,USB_P*%
%TO.N,unconnected-(SoM1B-USB_P-Pad105)*%
X115100000Y-76780000D03*
%TO.P,SoM1,106,PCIE_PWR_EN*%
%TO.N,unconnected-(SoM1B-PCIE_PWR_EN-Pad106)*%
X115100000Y-73700000D03*
%TO.P,SoM1,107,GND*%
%TO.N,GND*%
X115500000Y-76780000D03*
%TO.P,SoM1,108,GND*%
X115500000Y-73700000D03*
%TO.P,SoM1,109,PCIe_nRST*%
%TO.N,unconnected-(SoM1B-PCIe_nRST-Pad109)*%
X115900000Y-76780000D03*
%TO.P,SoM1,110,PCIe_CLK_P*%
%TO.N,unconnected-(SoM1B-PCIe_CLK_P-Pad110)*%
X115900000Y-73700000D03*
%TO.P,SoM1,111,VBUS_EN_(3.3v)*%
%TO.N,unconnected-(SoM1B-VBUS_EN_(3.3v)-Pad111)*%
X116300000Y-76780000D03*
%TO.P,SoM1,112,PCIe_CLK_N*%
%TO.N,unconnected-(SoM1B-PCIe_CLK_N-Pad112)*%
X116300000Y-73700000D03*
%TO.P,SoM1,113,GND*%
%TO.N,GND*%
X116700000Y-76780000D03*
%TO.P,SoM1,114,GND*%
X116700000Y-73700000D03*
%TO.P,SoM1,115,MIPI0_D0_N*%
%TO.N,unconnected-(SoM1B-MIPI0_D0_N-Pad115)*%
X117100000Y-76780000D03*
%TO.P,SoM1,116,PCIe_RX_P*%
%TO.N,unconnected-(SoM1B-PCIe_RX_P-Pad116)*%
X117100000Y-73700000D03*
%TO.P,SoM1,117,MIPI0_D0_P*%
%TO.N,unconnected-(SoM1B-MIPI0_D0_P-Pad117)*%
X117500000Y-76780000D03*
%TO.P,SoM1,118,PCIe_RX_N*%
%TO.N,unconnected-(SoM1B-PCIe_RX_N-Pad118)*%
X117500000Y-73700000D03*
%TO.P,SoM1,119,GND*%
%TO.N,GND*%
X117900000Y-76780000D03*
%TO.P,SoM1,120,GND*%
X117900000Y-73700000D03*
%TO.P,SoM1,121,MIPI0_D1_N*%
%TO.N,unconnected-(SoM1B-MIPI0_D1_N-Pad121)*%
X118300000Y-76780000D03*
%TO.P,SoM1,122,PCIe_TX_P*%
%TO.N,unconnected-(SoM1B-PCIe_TX_P-Pad122)*%
X118300000Y-73700000D03*
%TO.P,SoM1,123,MIPI0_D1_P*%
%TO.N,unconnected-(SoM1B-MIPI0_D1_P-Pad123)*%
X118700000Y-76780000D03*
%TO.P,SoM1,124,PCIe_TX_N*%
%TO.N,unconnected-(SoM1B-PCIe_TX_N-Pad124)*%
X118700000Y-73700000D03*
%TO.P,SoM1,125,GND*%
%TO.N,GND*%
X119100000Y-76780000D03*
%TO.P,SoM1,126,GND*%
X119100000Y-73700000D03*
%TO.P,SoM1,127,MIPI0_C_N*%
%TO.N,unconnected-(SoM1B-MIPI0_C_N-Pad127)*%
X119500000Y-76780000D03*
%TO.P,SoM1,128,USB3-0-RX_N*%
%TO.N,unconnected-(SoM1B-USB3-0-RX_N-Pad128)*%
X119500000Y-73700000D03*
%TO.P,SoM1,129,MIPI0_C_P*%
%TO.N,unconnected-(SoM1B-MIPI0_C_P-Pad129)*%
X119900000Y-76780000D03*
%TO.P,SoM1,130,USB3-0-RX_P*%
%TO.N,unconnected-(SoM1B-USB3-0-RX_P-Pad130)*%
X119900000Y-73700000D03*
%TO.P,SoM1,131,GND*%
%TO.N,GND*%
X120300000Y-76780000D03*
%TO.P,SoM1,132,GND*%
X120300000Y-73700000D03*
%TO.P,SoM1,133,MIPI0_D2_N*%
%TO.N,unconnected-(SoM1B-MIPI0_D2_N-Pad133)*%
X120700000Y-76780000D03*
%TO.P,SoM1,134,USB3-0-DP*%
%TO.N,DIB1_USB_D+*%
X120700000Y-73700000D03*
%TO.P,SoM1,135,MIPI0_D2_P*%
%TO.N,unconnected-(SoM1B-MIPI0_D2_P-Pad135)*%
X121100000Y-76780000D03*
%TO.P,SoM1,136,USB3-0-DM*%
%TO.N,DIB1_USB_D-*%
X121100000Y-73700000D03*
%TO.P,SoM1,137,GND*%
%TO.N,GND*%
X121500000Y-76780000D03*
%TO.P,SoM1,138,GND*%
X121500000Y-73700000D03*
%TO.P,SoM1,139,MIPI0_D3_N*%
%TO.N,unconnected-(SoM1B-MIPI0_D3_N-Pad139)*%
X121900000Y-76780000D03*
%TO.P,SoM1,140,USB3-0-TX_N*%
%TO.N,unconnected-(SoM1B-USB3-0-TX_N-Pad140)*%
X121900000Y-73700000D03*
%TO.P,SoM1,141,MIPI0_D3_P*%
%TO.N,unconnected-(SoM1B-MIPI0_D3_P-Pad141)*%
X122300000Y-76780000D03*
%TO.P,SoM1,142,USB3-0-TX_P*%
%TO.N,unconnected-(SoM1B-USB3-0-TX_P-Pad142)*%
X122300000Y-73700000D03*
%TO.P,SoM1,143,HDMI1_HOTPLUG*%
%TO.N,TFT_DVID_HPD*%
X122700000Y-76780000D03*
%TO.P,SoM1,144,GND*%
%TO.N,GND*%
X122700000Y-73700000D03*
%TO.P,SoM1,145,HDMI1_SDA*%
%TO.N,TFT_DVID_SDA*%
X123100000Y-76780000D03*
%TO.P,SoM1,146,HDMI1_TX2_P*%
%TO.N,TFT_DVID_TX2_P*%
X123100000Y-73700000D03*
%TO.P,SoM1,147,HDMI1_SCL*%
%TO.N,TFT_DVID_SCL*%
X123500000Y-76780000D03*
%TO.P,SoM1,148,HDMI1_TX2_N*%
%TO.N,TFT_DVID_TX2_N*%
X123500000Y-73700000D03*
%TO.P,SoM1,149,HDMI1_CEC*%
%TO.N,TFT_DVID_CEC*%
X123900000Y-76780000D03*
%TO.P,SoM1,150,GND*%
%TO.N,GND*%
X123900000Y-73700000D03*
%TO.P,SoM1,151,HDMI0_CEC*%
%TO.N,REAR_DVID_CEC*%
X124300000Y-76780000D03*
%TO.P,SoM1,152,HDMI1_TX1_P*%
%TO.N,TFT_DVID_TX1_P*%
X124300000Y-73700000D03*
%TO.P,SoM1,153,HDMI0_HOTPLUG*%
%TO.N,REAR_DVID_HPD*%
X124700000Y-76780000D03*
%TO.P,SoM1,154,HDMI1_TX1_N*%
%TO.N,TFT_DVID_TX1_N*%
X124700000Y-73700000D03*
%TO.P,SoM1,155,GND*%
%TO.N,GND*%
X125100000Y-76780000D03*
%TO.P,SoM1,156,GND*%
X125100000Y-73700000D03*
%TO.P,SoM1,157,USB3-1-RX_N*%
%TO.N,unconnected-(SoM1B-USB3-1-RX_N-Pad157)*%
X125500000Y-76780000D03*
%TO.P,SoM1,158,HDMI1_TX0_P*%
%TO.N,TFT_DVID_TX0_P*%
X125500000Y-73700000D03*
%TO.P,SoM1,159,USB3-1-RX_P*%
%TO.N,unconnected-(SoM1B-USB3-1-RX_P-Pad159)*%
X125900000Y-76780000D03*
%TO.P,SoM1,160,HDMI1_TX0_N*%
%TO.N,TFT_DVID_TX0_N*%
X125900000Y-73700000D03*
%TO.P,SoM1,161,GND*%
%TO.N,GND*%
X126300000Y-76780000D03*
%TO.P,SoM1,162,GND*%
X126300000Y-73700000D03*
%TO.P,SoM1,163,USB3-1-DP*%
%TO.N,unconnected-(SoM1B-USB3-1-DP-Pad163)*%
X126700000Y-76780000D03*
%TO.P,SoM1,164,HDMI1_CLK_P*%
%TO.N,TFT_DVID_CLK_P*%
X126700000Y-73700000D03*
%TO.P,SoM1,165,USB3-1-DM*%
%TO.N,unconnected-(SoM1B-USB3-1-DM-Pad165)*%
X127100000Y-76780000D03*
%TO.P,SoM1,166,HDMI1_CLK_N*%
%TO.N,TFT_DVID_CLK_N*%
X127100000Y-73700000D03*
%TO.P,SoM1,167,GND*%
%TO.N,GND*%
X127500000Y-76780000D03*
%TO.P,SoM1,168,GND*%
X127500000Y-73700000D03*
%TO.P,SoM1,169,USB3-1-TX_N*%
%TO.N,MCU_USB_UP_TX-*%
X127900000Y-76780000D03*
%TO.P,SoM1,170,HDMI0_TX2_P*%
%TO.N,REAR_DVID_TX2_P*%
X127900000Y-73700000D03*
%TO.P,SoM1,171,USB3-1-TX_P*%
%TO.N,MCU_USB_UP_TX+*%
X128300000Y-76780000D03*
%TO.P,SoM1,172,HDMI0_TX2_N*%
%TO.N,REAR_DVID_TX2_N*%
X128300000Y-73700000D03*
%TO.P,SoM1,173,GND*%
%TO.N,GND*%
X128700000Y-76780000D03*
%TO.P,SoM1,174,GND*%
X128700000Y-73700000D03*
%TO.P,SoM1,175,MIPI1_D0_N*%
%TO.N,unconnected-(SoM1B-MIPI1_D0_N-Pad175)*%
X129100000Y-76780000D03*
%TO.P,SoM1,176,HDMI0_TX1_P*%
%TO.N,REAR_DVID_TX1_P*%
X129100000Y-73700000D03*
%TO.P,SoM1,177,MIPI1_D0_P*%
%TO.N,unconnected-(SoM1B-MIPI1_D0_P-Pad177)*%
X129500000Y-76780000D03*
%TO.P,SoM1,178,HDMI0_TX1_N*%
%TO.N,REAR_DVID_TX1_N*%
X129500000Y-73700000D03*
%TO.P,SoM1,179,GND*%
%TO.N,GND*%
X129900000Y-76780000D03*
%TO.P,SoM1,180,GND*%
X129900000Y-73700000D03*
%TO.P,SoM1,181,MIPI1_D1_N*%
%TO.N,unconnected-(SoM1B-MIPI1_D1_N-Pad181)*%
X130300000Y-76780000D03*
%TO.P,SoM1,182,HDMI0_TX0_P*%
%TO.N,REAR_DVID_TX0_P*%
X130300000Y-73700000D03*
%TO.P,SoM1,183,MIPI1_D1_P*%
%TO.N,unconnected-(SoM1B-MIPI1_D1_P-Pad183)*%
X130700000Y-76780000D03*
%TO.P,SoM1,184,HDMI0_TX0_N*%
%TO.N,REAR_DVID_TX0_N*%
X130700000Y-73700000D03*
%TO.P,SoM1,185,GND*%
%TO.N,GND*%
X131100000Y-76780000D03*
%TO.P,SoM1,186,GND*%
X131100000Y-73700000D03*
%TO.P,SoM1,187,MIPI1_C_N*%
%TO.N,unconnected-(SoM1B-MIPI1_C_N-Pad187)*%
X131500000Y-76780000D03*
%TO.P,SoM1,188,HDMI0_CLK_P*%
%TO.N,REAR_DVID_CLK_P*%
X131500000Y-73700000D03*
%TO.P,SoM1,189,MIPI1_C_P*%
%TO.N,unconnected-(SoM1B-MIPI1_C_P-Pad189)*%
X131900000Y-76780000D03*
%TO.P,SoM1,190,HDMI0_CLK_N*%
%TO.N,REAR_DVID_CLK_N*%
X131900000Y-73700000D03*
%TO.P,SoM1,191,GND*%
%TO.N,GND*%
X132300000Y-76780000D03*
%TO.P,SoM1,192,GND*%
X132300000Y-73700000D03*
%TO.P,SoM1,193,MIPI1_D2_N*%
%TO.N,unconnected-(SoM1B-MIPI1_D2_N-Pad193)*%
X132700000Y-76780000D03*
%TO.P,SoM1,194,MIPI1_D3_N*%
%TO.N,unconnected-(SoM1B-MIPI1_D3_N-Pad194)*%
X132700000Y-73700000D03*
%TO.P,SoM1,195,MIPI1_D2_P*%
%TO.N,unconnected-(SoM1B-MIPI1_D2_P-Pad195)*%
X133100000Y-76780000D03*
%TO.P,SoM1,196,MIPI1_D3_P*%
%TO.N,unconnected-(SoM1B-MIPI1_D3_P-Pad196)*%
X133100000Y-73700000D03*
%TO.P,SoM1,197,GND*%
%TO.N,GND*%
X133500000Y-76780000D03*
%TO.P,SoM1,198,GND*%
X133500000Y-73700000D03*
%TO.P,SoM1,199,HDMI0_SDA*%
%TO.N,REAR_DVID_SDA*%
X133900000Y-76780000D03*
%TO.P,SoM1,200,HDMI0_SCL*%
%TO.N,REAR_DVID_SCL*%
X133900000Y-73700000D03*
%TD*%
D11*
%TO.P,C26,1,1*%
%TO.N,+3V3*%
X120620002Y-92783012D03*
%TO.P,C26,2,2*%
%TO.N,GND*%
X120620002Y-93743012D03*
%TD*%
D12*
%TO.P,Y2,1,1*%
%TO.N,Net-(IC6-XTAL2)*%
X104675700Y-108900000D03*
%TO.P,Y2,2,NC*%
%TO.N,unconnected-(Y2-NC-Pad2)*%
X106875700Y-108900000D03*
%TO.P,Y2,3,3*%
%TO.N,Net-(IC6-XTAL1{slash}CLKIN)*%
X106875700Y-110500000D03*
%TO.P,Y2,4,NC*%
%TO.N,unconnected-(Y2-NC-Pad4)*%
X104675700Y-110500000D03*
%TD*%
D13*
%TO.P,C48,1,1*%
%TO.N,Net-(IC5-VDDI)*%
X105108614Y-87630000D03*
%TO.P,C48,2,2*%
%TO.N,GND*%
X105108614Y-86670000D03*
%TD*%
D14*
%TO.P,C43,1,1*%
%TO.N,+3V3*%
X100909433Y-91580819D03*
%TO.P,C43,2,2*%
%TO.N,GND*%
X99949433Y-91580819D03*
%TD*%
%TO.P,C22,1,1*%
%TO.N,/STM32H7 MCU/VLXSMPS*%
X118300000Y-100513012D03*
%TO.P,C22,2,2*%
%TO.N,GND*%
X117340000Y-100513012D03*
%TD*%
D15*
%TO.P,C71,1,1*%
%TO.N,+1V8*%
X117030000Y-79830000D03*
%TO.P,C71,2,2*%
%TO.N,GND*%
X117990000Y-79830000D03*
%TD*%
D14*
%TO.P,C46,1,1*%
%TO.N,+3V3*%
X100909433Y-92500819D03*
%TO.P,C46,2,2*%
%TO.N,GND*%
X99949433Y-92500819D03*
%TD*%
D15*
%TO.P,C12,1,1*%
%TO.N,+3V3*%
X121510002Y-93343012D03*
%TO.P,C12,2,2*%
%TO.N,GND*%
X122470002Y-93343012D03*
%TD*%
D16*
%TO.P,C42,1,1*%
%TO.N,GND*%
X108030700Y-107310000D03*
%TO.P,C42,2,2*%
%TO.N,Net-(IC6-XTAL1{slash}CLKIN)*%
X106480700Y-107310000D03*
%TD*%
D17*
%TO.P,C10,1,1*%
%TO.N,GND*%
X119830002Y-102863012D03*
%TO.P,C10,2,2*%
%TO.N,/STM32H7 MCU/VDDSMPS*%
X119830002Y-101313012D03*
%TD*%
D16*
%TO.P,C13,1,1*%
%TO.N,GND*%
X119915002Y-99323012D03*
%TO.P,C13,2,2*%
%TO.N,/STM32H7 MCU/VDD_SDC*%
X118365002Y-99323012D03*
%TD*%
D15*
%TO.P,C35,1,1*%
%TO.N,+1V8*%
X123600000Y-94260000D03*
%TO.P,C35,2,2*%
%TO.N,GND*%
X124560000Y-94260000D03*
%TD*%
D18*
%TO.P,C59,1,1*%
%TO.N,+1V8*%
X129780000Y-100365000D03*
%TO.P,C59,2,2*%
%TO.N,GND*%
X129780000Y-101915000D03*
%TD*%
D19*
%TO.P,R14,1,1*%
%TO.N,~{XSPI_M_P1_CS}*%
X135440000Y-99070000D03*
%TO.P,R14,2,2*%
%TO.N,+1V8*%
X134420000Y-99070000D03*
%TD*%
D11*
%TO.P,C58,1,1*%
%TO.N,+1V8*%
X130970000Y-100090000D03*
%TO.P,C58,2,2*%
%TO.N,GND*%
X130970000Y-101050000D03*
%TD*%
D20*
%TO.P,C41,1,1*%
%TO.N,GND*%
X103520700Y-107310000D03*
%TO.P,C41,2,2*%
%TO.N,Net-(IC6-XTAL2)*%
X105070700Y-107310000D03*
%TD*%
D17*
%TO.P,C7,1,1*%
%TO.N,+3V3*%
X112180000Y-93575000D03*
%TO.P,C7,2,2*%
%TO.N,GND*%
X112180000Y-92025000D03*
%TD*%
D13*
%TO.P,C34,1,1*%
%TO.N,+1V8*%
X121540002Y-92453012D03*
%TO.P,C34,2,2*%
%TO.N,GND*%
X121540002Y-91493012D03*
%TD*%
%TO.P,C33,1,1*%
%TO.N,+1V8*%
X119120002Y-90833012D03*
%TO.P,C33,2,2*%
%TO.N,GND*%
X119120002Y-89873012D03*
%TD*%
D11*
%TO.P,C14,1,1*%
%TO.N,/STM32H7 MCU/VDD_SDC*%
X121390000Y-95340000D03*
%TO.P,C14,2,2*%
%TO.N,GND*%
X121390000Y-96300000D03*
%TD*%
D13*
%TO.P,C16,1,1*%
%TO.N,+3V3*%
X120470000Y-96300000D03*
%TO.P,C16,2,2*%
%TO.N,GND*%
X120470000Y-95340000D03*
%TD*%
D11*
%TO.P,C24,1,1*%
%TO.N,/STM32H7 MCU/MCU_VREF+*%
X120710000Y-97160000D03*
%TO.P,C24,2,2*%
%TO.N,GND*%
X120710000Y-98120000D03*
%TD*%
D21*
%TO.P,R4,1,1*%
%TO.N,/STM32H7 MCU/MCU_VDDA*%
X117830002Y-98173012D03*
%TO.P,R4,2,2*%
%TO.N,+3V3*%
X117830002Y-97153012D03*
%TD*%
D13*
%TO.P,C25,1,1*%
%TO.N,+3V3*%
X119550000Y-96300000D03*
%TO.P,C25,2,2*%
%TO.N,GND*%
X119550000Y-95340000D03*
%TD*%
%TO.P,C45,1,1*%
%TO.N,Net-(IC5-VDDI)*%
X106030000Y-87630000D03*
%TO.P,C45,2,2*%
%TO.N,GND*%
X106030000Y-86670000D03*
%TD*%
%TO.P,C56,1,1*%
%TO.N,+1V8*%
X132850000Y-96315000D03*
%TO.P,C56,2,2*%
%TO.N,GND*%
X132850000Y-95355000D03*
%TD*%
D17*
%TO.P,C57,1,1*%
%TO.N,+1V8*%
X131660000Y-96050000D03*
%TO.P,C57,2,2*%
%TO.N,GND*%
X131660000Y-94500000D03*
%TD*%
D13*
%TO.P,C36,1,1*%
%TO.N,+1V8*%
X120620002Y-90843012D03*
%TO.P,C36,2,2*%
%TO.N,GND*%
X120620002Y-89883012D03*
%TD*%
D19*
%TO.P,R18,1,1*%
%TO.N,ETH_TXRX_B-*%
X101890000Y-105490000D03*
%TO.P,R18,2,2*%
%TO.N,/Ethernet PHY\u002C PSRAM\u002C eMMC/+3V3_LAN*%
X100870000Y-105490000D03*
%TD*%
D14*
%TO.P,C8,1,1*%
%TO.N,+3V3*%
X117740000Y-95550000D03*
%TO.P,C8,2,2*%
%TO.N,GND*%
X116780000Y-95550000D03*
%TD*%
D22*
%TO.P,R5,1,1*%
%TO.N,/STM32H7 MCU/MCU_VREF+*%
X122550000Y-97140000D03*
%TO.P,R5,2,2*%
%TO.N,+3V3*%
X122550000Y-98160000D03*
%TD*%
D20*
%TO.P,C72,1,1*%
%TO.N,+1V8*%
X117300000Y-81030000D03*
%TO.P,C72,2,2*%
%TO.N,GND*%
X118850000Y-81030000D03*
%TD*%
D11*
%TO.P,C23,1,1*%
%TO.N,/STM32H7 MCU/MCU_VDDA*%
X118760002Y-97163012D03*
%TO.P,C23,2,2*%
%TO.N,GND*%
X118760002Y-98123012D03*
%TD*%
D16*
%TO.P,C70,1,1*%
%TO.N,+1V8*%
X112125000Y-83030000D03*
%TO.P,C70,2,2*%
%TO.N,GND*%
X110575000Y-83030000D03*
%TD*%
D23*
%TO.P,FB5,1*%
%TO.N,/DVID converter\u002C NOR Flash/TVDD*%
X134020000Y-91800000D03*
%TO.P,FB5,2*%
%TO.N,+3V3*%
X132320000Y-91800000D03*
%TD*%
D11*
%TO.P,C38,1,1*%
%TO.N,+1V8*%
X119700002Y-92783012D03*
%TO.P,C38,2,2*%
%TO.N,GND*%
X119700002Y-93743012D03*
%TD*%
D24*
%TO.P,L1,1,1*%
%TO.N,/STM32H7 MCU/VDD_SDC*%
X116347202Y-101983012D03*
%TO.P,L1,2,2*%
%TO.N,/STM32H7 MCU/VLXSMPS*%
X118430002Y-101983012D03*
%TD*%
D14*
%TO.P,C17,1,1*%
%TO.N,/STM32H7 MCU/VDD_SDC*%
X120650002Y-91893012D03*
%TO.P,C17,2,2*%
%TO.N,GND*%
X119690002Y-91893012D03*
%TD*%
D13*
%TO.P,C21,1,1*%
%TO.N,+3V3*%
X115440002Y-93743012D03*
%TO.P,C21,2,2*%
%TO.N,GND*%
X115440002Y-92783012D03*
%TD*%
D11*
%TO.P,C15,1,1*%
%TO.N,+3V3*%
X116830000Y-92780000D03*
%TO.P,C15,2,2*%
%TO.N,GND*%
X116830000Y-93740000D03*
%TD*%
D13*
%TO.P,C28,1,1*%
%TO.N,GND*%
X115440002Y-96303012D03*
%TO.P,C28,2,2*%
%TO.N,/STM32H7 MCU/VDD_SDC*%
X115440002Y-95343012D03*
%TD*%
D25*
%TO.P,Y1,1,1*%
%TO.N,/STM32H7 MCU/RCC_OSC_IN*%
X125250002Y-101143012D03*
%TO.P,Y1,2,NC*%
%TO.N,unconnected-(Y1-NC-Pad2)*%
X125250002Y-98943012D03*
%TO.P,Y1,3,3*%
%TO.N,/STM32H7 MCU/RCC_OSC_OUT*%
X126850002Y-98943012D03*
%TO.P,Y1,4,NC*%
%TO.N,unconnected-(Y1-NC-Pad4)*%
X126850002Y-101143012D03*
%TD*%
D17*
%TO.P,C3,1,1*%
%TO.N,GND*%
X123660002Y-102308012D03*
%TO.P,C3,2,2*%
%TO.N,/STM32H7 MCU/RCC_OSC_IN*%
X123660002Y-100758012D03*
%TD*%
D14*
%TO.P,C69,1,1*%
%TO.N,+1V8*%
X111720000Y-81700000D03*
%TO.P,C69,2,2*%
%TO.N,GND*%
X110760000Y-81700000D03*
%TD*%
D15*
%TO.P,C19,1,1*%
%TO.N,+3V3*%
X121510002Y-94263012D03*
%TO.P,C19,2,2*%
%TO.N,GND*%
X122470002Y-94263012D03*
%TD*%
%TO.P,C32,1,1*%
%TO.N,+1V8*%
X123600000Y-95180000D03*
%TO.P,C32,2,2*%
%TO.N,GND*%
X124560000Y-95180000D03*
%TD*%
D11*
%TO.P,C20,1,1*%
%TO.N,/STM32H7 MCU/VDD_SDC*%
X117750000Y-92780000D03*
%TO.P,C20,2,2*%
%TO.N,GND*%
X117750000Y-93740000D03*
%TD*%
D14*
%TO.P,C44,1,1*%
%TO.N,+1V8*%
X98909433Y-87660819D03*
%TO.P,C44,2,2*%
%TO.N,GND*%
X97949433Y-87660819D03*
%TD*%
D11*
%TO.P,C73,1,1*%
%TO.N,+1V8*%
X116300000Y-83610000D03*
%TO.P,C73,2,2*%
%TO.N,GND*%
X116300000Y-84570000D03*
%TD*%
D26*
%TO.P,R17,1,1*%
%TO.N,/Ethernet PHY\u002C PSRAM\u002C eMMC/+3V3_LAN*%
X100870000Y-106430000D03*
%TO.P,R17,2,2*%
%TO.N,ETH_TXRX_B+*%
X101890000Y-106430000D03*
%TD*%
%TO.P,R16,1,1*%
%TO.N,/Ethernet PHY\u002C PSRAM\u002C eMMC/+3V3_LAN*%
X100870000Y-103610000D03*
%TO.P,R16,2,2*%
%TO.N,ETH_TXRX_A-*%
X101890000Y-103610000D03*
%TD*%
%TO.P,R15,1,1*%
%TO.N,/Ethernet PHY\u002C PSRAM\u002C eMMC/+3V3_LAN*%
X100870000Y-104550000D03*
%TO.P,R15,2,2*%
%TO.N,ETH_TXRX_A+*%
X101890000Y-104550000D03*
%TD*%
D14*
%TO.P,C47,1,1*%
%TO.N,+1V8*%
X98909433Y-88580819D03*
%TO.P,C47,2,2*%
%TO.N,GND*%
X97949433Y-88580819D03*
%TD*%
D11*
%TO.P,C27,1,1*%
%TO.N,/STM32H7 MCU/VDD_SDC*%
X116900002Y-97163012D03*
%TO.P,C27,2,2*%
%TO.N,GND*%
X116900002Y-98123012D03*
%TD*%
D27*
%TO.P,FB1,1*%
%TO.N,/STM32H7 MCU/VDDSMPS*%
X121470002Y-101158012D03*
%TO.P,FB1,2*%
%TO.N,+3V3*%
X121470002Y-102858012D03*
%TD*%
D14*
%TO.P,C11,1,1*%
%TO.N,+3V3*%
X117740000Y-94630000D03*
%TO.P,C11,2,2*%
%TO.N,GND*%
X116780000Y-94630000D03*
%TD*%
D17*
%TO.P,C40,1,1*%
%TO.N,+1V8*%
X120800000Y-88175000D03*
%TO.P,C40,2,2*%
%TO.N,GND*%
X120800000Y-86625000D03*
%TD*%
%TO.P,C39,1,1*%
%TO.N,+1V8*%
X122700000Y-88175000D03*
%TO.P,C39,2,2*%
%TO.N,GND*%
X122700000Y-86625000D03*
%TD*%
D11*
%TO.P,C30,1,1*%
%TO.N,/STM32H7 MCU/MCU_VREF+*%
X121620000Y-97160000D03*
%TO.P,C30,2,2*%
%TO.N,GND*%
X121620000Y-98120000D03*
%TD*%
D14*
%TO.P,C65,1,1*%
%TO.N,/DVID converter\u002C NOR Flash/DVDD*%
X136600000Y-93830000D03*
%TO.P,C65,2,2*%
%TO.N,GND*%
X135640000Y-93830000D03*
%TD*%
%TO.P,C55,1,1*%
%TO.N,GND*%
X101830000Y-102670000D03*
%TO.P,C55,2,2*%
%TO.N,/Ethernet PHY\u002C PSRAM\u002C eMMC/+3V3_LAN*%
X100870000Y-102670000D03*
%TD*%
D18*
%TO.P,C4,1,1*%
%TO.N,GND*%
X123660002Y-97788012D03*
%TO.P,C4,2,2*%
%TO.N,/STM32H7 MCU/RCC_OSC_OUT*%
X123660002Y-99338012D03*
%TD*%
D13*
%TO.P,C18,1,1*%
%TO.N,+3V3*%
X118630000Y-96300000D03*
%TO.P,C18,2,2*%
%TO.N,GND*%
X118630000Y-95340000D03*
%TD*%
D11*
%TO.P,C31,1,1*%
%TO.N,+VAUX*%
X114050000Y-101730000D03*
%TO.P,C31,2,2*%
%TO.N,GND*%
X114050000Y-102690000D03*
%TD*%
D19*
%TO.P,R23,1,1*%
%TO.N,~{XSPIM_P2_CS1}*%
X111740000Y-80740000D03*
%TO.P,R23,2,2*%
%TO.N,+1V8*%
X110720000Y-80740000D03*
%TD*%
D13*
%TO.P,C37,1,1*%
%TO.N,+1V8*%
X122460002Y-92453012D03*
%TO.P,C37,2,2*%
%TO.N,GND*%
X122460002Y-91493012D03*
%TD*%
D11*
%TO.P,C9,1,1*%
%TO.N,+3V3*%
X118780002Y-92783012D03*
%TO.P,C9,2,2*%
%TO.N,GND*%
X118780002Y-93743012D03*
%TD*%
%TO.P,C29,1,1*%
%TO.N,/STM32H7 MCU/MCU_VDDA*%
X119680002Y-97163012D03*
%TO.P,C29,2,2*%
%TO.N,GND*%
X119680002Y-98123012D03*
%TD*%
D18*
%TO.P,C74,1,1*%
%TO.N,+1V8*%
X117490000Y-83885000D03*
%TO.P,C74,2,2*%
%TO.N,GND*%
X117490000Y-85435000D03*
%TD*%
D28*
%TO.N,/STM32H7 MCU/RCC_OSC_IN*%
X121000000Y-100190000D03*
%TO.N,/STM32H7 MCU/RCC_OSC_OUT*%
X120870000Y-99630000D03*
D29*
%TO.N,GND*%
X131990000Y-84000000D03*
X133490000Y-75110000D03*
D30*
X145177076Y-102370000D03*
X144467076Y-102370000D03*
D29*
X135840000Y-96840000D03*
D28*
X134173817Y-97029568D03*
D29*
X129090000Y-104880000D03*
X113400000Y-75110000D03*
D30*
X144467076Y-99020000D03*
X144467076Y-101030000D03*
X140046186Y-101394279D03*
X141207076Y-101800000D03*
X144467076Y-101700000D03*
D29*
X106130000Y-94710000D03*
X135100000Y-104060000D03*
X110460000Y-85620000D03*
D30*
X145177076Y-101700000D03*
D29*
X106000000Y-85800000D03*
D30*
X144467076Y-100360000D03*
D29*
X119920000Y-83120000D03*
X99610000Y-94730000D03*
X103150000Y-75110000D03*
D28*
X132120000Y-101150000D03*
D29*
X119920000Y-78300000D03*
D30*
X141207076Y-100260000D03*
X145177076Y-99020000D03*
X145177076Y-103040000D03*
D29*
X145530000Y-83460000D03*
D28*
X115699500Y-96273200D03*
D29*
X113910000Y-79310000D03*
D30*
X145177076Y-100360000D03*
X145177076Y-101030000D03*
D28*
X122960000Y-94700000D03*
D29*
X99610000Y-86720000D03*
X145480000Y-93790000D03*
D30*
X99840000Y-101610000D03*
X145177076Y-99690000D03*
D29*
X113040000Y-107610000D03*
X111900000Y-75110000D03*
X101178810Y-107149539D03*
D30*
X144467076Y-103040000D03*
X144467076Y-99690000D03*
D28*
X122014158Y-108402825D03*
D29*
X110760000Y-82180000D03*
D30*
X124697284Y-111387822D03*
X99510000Y-91560000D03*
D29*
X116450000Y-98130000D03*
D28*
X127500000Y-74250000D03*
D29*
X110570000Y-83680000D03*
X118150000Y-85430000D03*
D30*
X97950000Y-89070000D03*
X127110000Y-108340000D03*
X132300000Y-76180000D03*
D29*
X120620000Y-89440000D03*
D28*
X123900000Y-74250000D03*
D30*
X115510000Y-109970000D03*
D29*
X130440000Y-101910000D03*
D28*
X125100000Y-74250000D03*
D29*
X117990000Y-79330000D03*
D30*
X115500000Y-74300000D03*
X119100000Y-74300000D03*
X120912400Y-109950191D03*
D29*
X120096724Y-99894946D03*
X119120000Y-89420000D03*
X118880000Y-95350000D03*
D28*
X129899999Y-74250000D03*
D29*
X120140000Y-93730000D03*
D30*
X97950000Y-87190000D03*
D28*
X128790000Y-76090000D03*
D30*
X125900000Y-108340000D03*
X120300000Y-74300000D03*
X135210000Y-93820000D03*
X133386776Y-108409620D03*
X116700000Y-74300000D03*
D29*
X113610000Y-102690000D03*
D28*
X116723873Y-95098690D03*
D29*
X117310000Y-93750000D03*
D30*
X99510000Y-92500000D03*
X114300000Y-108340000D03*
D29*
X119645366Y-91579412D03*
D30*
X125100000Y-76180000D03*
X133500000Y-76180000D03*
X127100000Y-109970000D03*
D28*
X122725283Y-109789521D03*
X112170000Y-92590000D03*
D30*
X121500000Y-76180000D03*
D29*
X119810000Y-95340000D03*
D28*
X122700000Y-74230000D03*
D30*
X116700000Y-76180000D03*
D29*
X119560000Y-103490000D03*
X124160000Y-102047212D03*
X132850000Y-94900000D03*
D30*
X117900000Y-74300000D03*
D29*
X115810000Y-84570000D03*
X124170000Y-98038812D03*
X122000000Y-91500000D03*
X119240000Y-93750000D03*
D30*
X131100000Y-76180000D03*
D29*
X122700000Y-86100000D03*
D30*
X102280000Y-102670000D03*
D29*
X118850000Y-80350000D03*
D30*
X104620567Y-86669181D03*
D29*
X121390000Y-96300000D03*
D30*
X103770000Y-107860000D03*
D28*
X120538179Y-108533998D03*
D30*
X121500000Y-73110000D03*
D28*
X132290000Y-74250000D03*
D30*
X126300000Y-76180000D03*
D29*
X120850000Y-86100000D03*
X122480000Y-93790000D03*
D30*
X114310000Y-109970000D03*
X118167011Y-108344841D03*
X129900000Y-76180000D03*
X119100000Y-76180000D03*
D29*
X119200000Y-98120000D03*
D30*
X107810700Y-107910000D03*
D28*
X120720000Y-95290000D03*
X127200000Y-76050000D03*
D30*
X115500000Y-108340000D03*
D29*
X120135003Y-103490000D03*
D30*
X128300000Y-109970000D03*
D28*
X131090000Y-74250000D03*
D30*
X125910000Y-109970000D03*
X132092098Y-109991248D03*
X124397111Y-108342957D03*
D28*
X126300000Y-74250000D03*
D29*
X117360000Y-100060000D03*
D30*
X117900000Y-76180000D03*
D28*
X128700000Y-74250000D03*
D29*
X131660000Y-93880000D03*
X115430000Y-92380000D03*
D30*
X128700000Y-108340000D03*
X118384626Y-109968754D03*
X106460567Y-86669181D03*
D29*
X121620000Y-98120000D03*
D30*
X120300000Y-76180000D03*
D29*
X130970000Y-101500000D03*
D30*
X116700000Y-108340000D03*
D28*
X124560000Y-94730000D03*
D30*
X133500000Y-73110000D03*
X115500000Y-76180000D03*
D28*
X116506022Y-110022352D03*
%TO.N,/STM32H7 MCU/MCU_VDDA*%
X119559506Y-97460523D03*
%TO.N,/STM32H7 MCU/MCU_VREF+*%
X120710000Y-97160000D03*
%TO.N,ETH_TX_EN*%
X105150775Y-101780775D03*
%TO.N,ETH_MDC*%
X106587522Y-99925724D03*
%TO.N,+3V3*%
X115527782Y-93449791D03*
X119428595Y-95970476D03*
X116395934Y-92693014D03*
X121002312Y-93167319D03*
D29*
X101300000Y-92500000D03*
D28*
X118961414Y-93121003D03*
X117490000Y-94377086D03*
X121186988Y-94263012D03*
X120470000Y-96176977D03*
D29*
X101306334Y-91670417D03*
D28*
X117520002Y-95180000D03*
X118432041Y-96070039D03*
X121680000Y-93730000D03*
X121710000Y-103510000D03*
D30*
X130970000Y-106870000D03*
D28*
X117830000Y-96770000D03*
X121220000Y-103510000D03*
D30*
X132980000Y-91810000D03*
D28*
X122550000Y-98160000D03*
X112160000Y-94150000D03*
D30*
X130700000Y-108300000D03*
D28*
%TO.N,/STM32H7 MCU/VDD_SDC*%
X119519849Y-94369131D03*
X121282981Y-95662029D03*
X120358941Y-91982218D03*
X115906872Y-94978378D03*
X118365002Y-99457000D03*
X116710399Y-96270000D03*
X118280000Y-94200000D03*
X117781331Y-92646223D03*
X116850000Y-101620000D03*
X116850000Y-102050000D03*
X116850000Y-102480000D03*
%TO.N,TFT_DVID_CEC*%
X123974939Y-79115100D03*
D29*
%TO.N,/STM32H7 MCU/VDDSMPS*%
X118989494Y-100293396D03*
D28*
X119320000Y-101310000D03*
X120897002Y-101290000D03*
D29*
%TO.N,~{RESET_OUT}*%
X105588800Y-102152467D03*
D28*
X101540000Y-89380000D03*
X138839999Y-83240000D03*
X116280000Y-79140000D03*
X106120000Y-78900000D03*
X116100000Y-106180000D03*
X120200000Y-97640000D03*
X123922545Y-83753100D03*
X132400000Y-106590000D03*
X119260000Y-102040000D03*
%TO.N,UART1_RX{slash}DIN1*%
X134540000Y-110640000D03*
X107940000Y-94840000D03*
X110570000Y-102820000D03*
%TO.N,ETH_RX_ERR*%
X106880000Y-87820000D03*
X107290000Y-86690000D03*
%TO.N,DVID_SEL2*%
X131500000Y-85270000D03*
X130785950Y-95846507D03*
%TO.N,~{DIB1_CSA}*%
X115624951Y-97262217D03*
X119813800Y-108339679D03*
X115905600Y-103209703D03*
%TO.N,+VAUX*%
X128893990Y-106941846D03*
X114390000Y-101650000D03*
%TO.N,~{DIB3_CSA}*%
X116843616Y-104372988D03*
X112700000Y-95140000D03*
X123458833Y-105144902D03*
%TO.N,TFT_DVID_TX1_P*%
X124211500Y-74720000D03*
%TO.N,~{SYSMCU_CS}*%
X118580000Y-103210000D03*
%TO.N,~{TFT_IRQ}*%
X122300001Y-110196477D03*
%TO.N,MCU_USB_UP_TX-*%
X114250000Y-93640000D03*
%TO.N,SDA*%
X111280000Y-93282400D03*
X136734612Y-83746200D03*
X125125037Y-84317152D03*
X124445832Y-85090000D03*
X111420000Y-85440000D03*
%TO.N,SCL*%
X136205000Y-83416800D03*
X110728795Y-93213929D03*
X124458781Y-84086212D03*
X111020000Y-84860000D03*
X123918764Y-84883500D03*
%TO.N,UART0_TX{slash}DOUT3*%
X125196101Y-106899833D03*
%TO.N,TFT_DVID_TX2_P*%
X123003000Y-74720000D03*
%TO.N,~{DIB4_IRQ}*%
X122850000Y-105150000D03*
%TO.N,WDG_IN*%
X123597875Y-108326717D03*
%TO.N,RS485_TX_EN{slash}DOUT2*%
X127531420Y-91167500D03*
X119899999Y-111203523D03*
X127750000Y-103630000D03*
%TO.N,TFT_DVID_TX2_N*%
X123580000Y-74720000D03*
%TO.N,UART0_RX{slash}DIN2*%
X127180000Y-105040000D03*
%TO.N,TFT_DVID_CLK_P*%
X126611500Y-74720000D03*
%TO.N,~{DIB3_IRQ}*%
X118814091Y-108321135D03*
%TO.N,~{DIB5_CSA}*%
X123457414Y-108879563D03*
%TO.N,TFT_DVID_CLK_N*%
X127188500Y-74720000D03*
%TO.N,DIB1_USB_D+*%
X114180000Y-95310000D03*
%TO.N,TFT_DVID_TX0_P*%
X125411500Y-74720000D03*
D29*
%TO.N,/STM32H7 MCU/VLXSMPS*%
X118522872Y-100725352D03*
D28*
%TO.N,~{DIB2_CSA}*%
X121758811Y-109972005D03*
X117550000Y-102610000D03*
X116601990Y-106670360D03*
%TO.N,~{DIB4_CSA}*%
X126575300Y-105277109D03*
%TO.N,MCU_USB_UP_TX+*%
X113633790Y-93640000D03*
%TO.N,TFT_DVID_TX0_N*%
X125988500Y-74720000D03*
%TO.N,UART1_TX{slash}DOUT1*%
X108360000Y-96560000D03*
X129970000Y-109020000D03*
X109642366Y-101859957D03*
%TO.N,DIB1_USB_D-*%
X113630000Y-95310000D03*
%TO.N,~{DIB5_IRQ}*%
X111617154Y-102324455D03*
X111290000Y-107983600D03*
X110090000Y-95200600D03*
%TO.N,~{DIB1_IRQ}*%
X119229950Y-106426099D03*
%TO.N,~{SYSMCU_IRQ}*%
X123023837Y-108331758D03*
%TO.N,~{DIB2_IRQ}*%
X119269810Y-108687402D03*
%TO.N,TFT_DVID_TX1_N*%
X124788500Y-74720000D03*
%TO.N,BOOT0*%
X113500000Y-100986200D03*
X111330000Y-96100000D03*
X132619898Y-109713500D03*
%TO.N,~{ETH_LINK_ACT}*%
X116200000Y-109460000D03*
%TO.N,ETH_TXRX_B-*%
X102720000Y-105006500D03*
%TO.N,ETH_TXRX_A-*%
X102720000Y-104150000D03*
X102180000Y-103470000D03*
%TO.N,~{ETH_LINK100}*%
X117513200Y-110160501D03*
%TO.N,ETH_TXRX_B+*%
X102720000Y-105553500D03*
%TO.N,ETH_TXRX_A+*%
X102330000Y-104590000D03*
%TO.N,XSPIM_P1_IO0*%
X132350000Y-98370000D03*
X130241382Y-95794988D03*
%TO.N,DVID_SEL1*%
X128953800Y-101310000D03*
X130910000Y-85230000D03*
%TO.N,~{XSPIM_P2_CS1}*%
X112110000Y-80750000D03*
%TO.N,XSPIM_P2_DQS0*%
X115240000Y-80580000D03*
X118289802Y-89630000D03*
%TO.N,TFT_DVID_SDA*%
X122438467Y-82050867D03*
%TO.N,TFT_DVID_SCL*%
X122760000Y-82720000D03*
%TO.N,SDMMC_D5*%
X113950000Y-99070000D03*
X105603807Y-89090991D03*
%TO.N,SDMMC_D4*%
X114185421Y-100222900D03*
X105610694Y-88569434D03*
%TO.N,~{LED_ACT}*%
X112740000Y-110816200D03*
%TO.N,~{XSPI_M_P1_CS}*%
X135780000Y-98800000D03*
%TO.N,REAR_DVID_TX1_N*%
X129588500Y-74720000D03*
%TO.N,REAR_DVID_CLK_P*%
X131411500Y-74720000D03*
%TO.N,REAR_DVID_TX0_N*%
X130788500Y-74720000D03*
%TO.N,REAR_DVID_TX1_P*%
X129011500Y-74720000D03*
%TO.N,REAR_DVID_CLK_N*%
X131988500Y-74720000D03*
%TO.N,REAR_DVID_TX2_N*%
X128388500Y-74720000D03*
%TO.N,REAR_DVID_TX0_P*%
X130211500Y-74720000D03*
%TO.N,REAR_DVID_TX2_P*%
X127811500Y-74720000D03*
%TO.N,REAR_DVID_SDA*%
X126380000Y-81070000D03*
%TO.N,REAR_DVID_CEC*%
X124350000Y-77490000D03*
%TO.N,REAR_DVID_SCL*%
X134120000Y-73720000D03*
%TO.N,+1V8*%
X112142500Y-81830000D03*
X119724329Y-92613012D03*
X116760000Y-79830000D03*
X121807333Y-92720166D03*
X123507006Y-94274747D03*
X122471949Y-94983012D03*
X120801815Y-91201273D03*
D29*
X99326423Y-88538095D03*
D28*
X131450000Y-100090000D03*
X116397000Y-83210000D03*
X119027047Y-91234901D03*
X133051735Y-96685872D03*
X122696657Y-92700800D03*
X121400000Y-88170000D03*
X117300000Y-80450000D03*
X116920000Y-83890000D03*
D29*
X99320000Y-87670000D03*
X131690000Y-108310000D03*
X131710000Y-107010000D03*
D28*
X123320000Y-88170000D03*
X111950000Y-82410000D03*
%TO.N,GPIO_VREF*%
X125767031Y-102845428D03*
%TO.N,DIB4_SCLK*%
X121500001Y-111203522D03*
%TO.N,DIB4_MISO*%
X114810795Y-94381613D03*
X121154421Y-108595182D03*
X116270000Y-104163800D03*
%TO.N,DIB4_MOSI*%
X116598626Y-103726517D03*
X115520004Y-94368945D03*
X119861031Y-104081000D03*
%TO.N,LTDC_G2*%
X144505500Y-91249312D03*
%TO.N,LTDC_B7*%
X146030000Y-89390000D03*
X136790000Y-102660000D03*
%TO.N,LTDC_VSYNC*%
X142858262Y-84324462D03*
X118609098Y-89185858D03*
%TO.N,LTDC_CLK*%
X145540000Y-88120000D03*
X136874715Y-102045813D03*
%TO.N,LTDC_R3*%
X140780489Y-94600489D03*
X136777463Y-101466942D03*
%TO.N,LTDC_B0*%
X138040000Y-85936200D03*
X137253993Y-95010400D03*
%TO.N,LTDC_DE*%
X144370000Y-83850000D03*
X136393329Y-103047829D03*
%TO.N,LTDC_HSYNC*%
X143330000Y-83810000D03*
X116327454Y-96660595D03*
X114660000Y-85870000D03*
X126620000Y-84496500D03*
%TO.N,~{LED_PWR}*%
X128891204Y-109541204D03*
X109593788Y-94328379D03*
X109573411Y-100339740D03*
%TO.N,DIB1{slash}DIB3_MISO*%
X119388571Y-104356668D03*
%TO.N,DIB2{slash}DIB5_SCLK*%
X121748577Y-105037600D03*
%TO.N,DIB1{slash}DIB3_MOSI*%
X125070000Y-109110000D03*
%TO.N,DIB2{slash}DIB5_MISO*%
X121920000Y-106010000D03*
X108786869Y-98273752D03*
X115710000Y-105340000D03*
X112870000Y-102420000D03*
X109028922Y-101246513D03*
%TO.N,DIB2{slash}DIB5_MOSI*%
X107823843Y-98570159D03*
X122466301Y-109304158D03*
X111814799Y-102911677D03*
%TO.N,DIB1{slash}DIB3_SCLK*%
X111073071Y-109634328D03*
X124458085Y-110044336D03*
X115100000Y-89923213D03*
X114110000Y-94230000D03*
X109166800Y-95200600D03*
X110954142Y-101883253D03*
X111166200Y-106417663D03*
%TO.N,/STM32H7 MCU/~{ACTIVE}*%
X107045952Y-101706800D03*
D29*
%TO.N,/Ethernet PHY\u002C PSRAM\u002C eMMC/+3V3_LAN*%
X101450000Y-101610000D03*
%TO.N,/CM5 socket/+5V_IN*%
X130300000Y-110100000D03*
X131409338Y-110081109D03*
X130900000Y-110100000D03*
X129700000Y-110100000D03*
%TO.N,Net-(IC6-XTAL2)*%
X105531049Y-107390418D03*
%TO.N,Net-(IC6-XTAL1{slash}CLKIN)*%
X106130480Y-107394193D03*
D28*
%TO.N,Net-(IC5-VDDI)*%
X105110568Y-88069305D03*
D30*
%TO.N,/DVID converter\u002C NOR Flash/DVDD*%
X137080000Y-93833800D03*
D28*
%TO.N,DVID_CEC*%
X114610000Y-87530000D03*
X114512602Y-93160156D03*
D30*
%TO.N,/DVID converter\u002C NOR Flash/TVDD*%
X134670000Y-91800000D03*
D28*
%TO.N,DVID_HPD*%
X116360000Y-91940000D03*
X116400000Y-88220000D03*
%TO.N,REAR_DVID_HPD*%
X124930000Y-77460000D03*
%TO.N,TFT_DVID_HPD*%
X122700000Y-78740000D03*
%TD*%
D31*
%TO.N,/STM32H7 MCU/RCC_OSC_IN*%
X125250002Y-100350002D02*
X125055512Y-100155512D01*
X123660002Y-100758012D02*
X123660002Y-100155514D01*
X123050000Y-99960000D02*
X121129631Y-99960000D01*
X125250002Y-101143012D02*
X125250002Y-100350002D01*
X123245512Y-100155512D02*
X123050000Y-99960000D01*
X123660000Y-100155512D02*
X123245512Y-100155512D01*
X121129631Y-99960000D02*
X121000000Y-100089631D01*
X121000000Y-100089631D02*
X121000000Y-100190000D01*
X125055512Y-100155512D02*
X123660000Y-100155512D01*
X123660002Y-100155514D02*
X123660000Y-100155512D01*
%TO.N,/STM32H7 MCU/RCC_OSC_OUT*%
X123155132Y-99670000D02*
X123332344Y-99847212D01*
X120910000Y-99670000D02*
X123155132Y-99670000D01*
X123332344Y-99847212D02*
X125945802Y-99847212D01*
X125945802Y-99847212D02*
X126850002Y-98943012D01*
X120870000Y-99630000D02*
X120910000Y-99670000D01*
%TO.N,GND*%
X103770000Y-111302700D02*
X105970000Y-111302700D01*
X120300000Y-73700000D02*
X120300000Y-74300000D01*
D32*
X112180000Y-92025000D02*
X112180000Y-92580000D01*
D31*
X126300000Y-76780000D02*
X126300000Y-76180000D01*
X103770000Y-107860000D02*
X103770000Y-111302700D01*
X133490000Y-76460000D02*
X133500000Y-76450000D01*
X128300000Y-110700000D02*
X128300000Y-109970000D01*
X115500000Y-109980000D02*
X115510000Y-109970000D01*
X133500000Y-76470000D02*
X133490000Y-76460000D01*
X120300000Y-108295819D02*
X120538179Y-108533998D01*
X117900000Y-76780000D02*
X117900000Y-76180000D01*
X122300000Y-107620000D02*
X122300000Y-107972872D01*
X114310000Y-110690000D02*
X114300000Y-110700000D01*
D32*
X120670000Y-95340000D02*
X120720000Y-95290000D01*
D31*
X118700000Y-110134610D02*
X118534144Y-109968754D01*
X125100000Y-76780000D02*
X125100000Y-76180000D01*
X115500000Y-107620000D02*
X115500000Y-108340000D01*
X132300000Y-76780000D02*
X132300000Y-76180000D01*
D33*
X121620000Y-98120000D02*
X120701988Y-98120000D01*
D31*
X116610737Y-110022352D02*
X116506022Y-110022352D01*
X128700000Y-107620000D02*
X128700000Y-108340000D01*
X133500000Y-108296396D02*
X133386776Y-108409620D01*
X105970000Y-111302700D02*
X105971500Y-111304200D01*
X133500000Y-76780000D02*
X133500000Y-76470000D01*
X122700000Y-110700000D02*
X122786201Y-110613799D01*
X131100000Y-76780000D02*
X131100000Y-76180000D01*
X124560000Y-95180000D02*
X124560000Y-94730000D01*
D33*
X119560000Y-103490000D02*
X120135003Y-103490000D01*
D31*
X129900000Y-73700000D02*
X129899999Y-74203522D01*
X125900000Y-109980000D02*
X125910000Y-109970000D01*
X123920802Y-102047212D02*
X127654202Y-102047212D01*
X133500000Y-76450000D02*
X133500000Y-76180000D01*
X133500000Y-107620000D02*
X133500000Y-108296396D01*
X121500000Y-73700000D02*
X121500000Y-73110000D01*
X124700000Y-111385106D02*
X124697284Y-111387822D01*
X133500000Y-73700000D02*
X133500000Y-73110000D01*
X128700000Y-76180000D02*
X128790000Y-76090000D01*
X116700000Y-73700000D02*
X116700000Y-74300000D01*
X116700000Y-107620000D02*
X116700000Y-108340000D01*
X116700000Y-110111615D02*
X116610737Y-110022352D01*
X107779900Y-111304200D02*
X107779900Y-107940800D01*
X128700000Y-76780000D02*
X128700000Y-76180000D01*
X114310000Y-109970000D02*
X114310000Y-110690000D01*
X124700000Y-110700000D02*
X124700000Y-111385106D01*
X131900000Y-110700000D02*
X131900000Y-110183346D01*
X127100000Y-107620000D02*
X127100000Y-108330000D01*
X118300000Y-108211852D02*
X118167011Y-108344841D01*
D32*
X120470000Y-95340000D02*
X120670000Y-95340000D01*
X120701988Y-98120000D02*
X120700000Y-98118012D01*
D31*
X132300000Y-110700000D02*
X132300000Y-110199150D01*
X125900000Y-110700000D02*
X125900000Y-109980000D01*
X115500000Y-110700000D02*
X115500000Y-109980000D01*
X122906990Y-94700000D02*
X122470002Y-94263012D01*
X131900000Y-110183346D02*
X132092098Y-109991248D01*
X127500000Y-76350000D02*
X127200000Y-76050000D01*
X127654202Y-102047212D02*
X127654202Y-98038812D01*
X127654202Y-98038812D02*
X124170000Y-98038812D01*
X127100000Y-108330000D02*
X127110000Y-108340000D01*
D32*
X112180000Y-92580000D02*
X112170000Y-92590000D01*
D31*
X118534144Y-109968754D02*
X118384626Y-109968754D01*
X115500000Y-76780000D02*
X115500000Y-76180000D01*
X119100000Y-76780000D02*
X119100000Y-76180000D01*
X120300000Y-76780000D02*
X120300000Y-76180000D01*
X120700000Y-110700000D02*
X120700000Y-110162591D01*
X115500000Y-73700000D02*
X115500000Y-74300000D01*
X127100000Y-110700000D02*
X127100000Y-109970000D01*
X122300000Y-107972872D02*
X122014158Y-108258714D01*
X114300000Y-107620000D02*
X114300000Y-108340000D01*
X119100000Y-73700000D02*
X119100000Y-74300000D01*
X107779900Y-107940800D02*
X107810700Y-107910000D01*
X116700000Y-76780000D02*
X116700000Y-76180000D01*
X118300000Y-107620000D02*
X118300000Y-108211852D01*
X123660002Y-102308012D02*
X123920802Y-102047212D01*
X120850000Y-86700000D02*
X120850000Y-86100000D01*
X122786201Y-110613799D02*
X122786201Y-109850439D01*
X122960000Y-94700000D02*
X122906990Y-94700000D01*
X125900000Y-107620000D02*
X125900000Y-108340000D01*
X118700000Y-110700000D02*
X118700000Y-110134610D01*
X120300000Y-107620000D02*
X120300000Y-108295819D01*
X116700000Y-110700000D02*
X116700000Y-110111615D01*
X132300000Y-110199150D02*
X132092098Y-109991248D01*
X122014158Y-108258714D02*
X122014158Y-108402825D01*
X129900000Y-76780000D02*
X129900000Y-76180000D01*
X117900000Y-73700000D02*
X117900000Y-74300000D01*
X122786201Y-109850439D02*
X122725283Y-109789521D01*
X124300000Y-107620000D02*
X124300000Y-108245846D01*
X120700000Y-110162591D02*
X120912400Y-109950191D01*
X127500000Y-76780000D02*
X127500000Y-76350000D01*
X121500000Y-76780000D02*
X121500000Y-76180000D01*
X105971500Y-111304200D02*
X107779900Y-111304200D01*
X124300000Y-108245846D02*
X124397111Y-108342957D01*
%TO.N,/STM32H7 MCU/MCU_VDDA*%
X119260066Y-97163012D02*
X118760002Y-97163012D01*
X117830002Y-98093012D02*
X118760002Y-97163012D01*
X119557577Y-97460523D02*
X119260066Y-97163012D01*
X117830002Y-98173012D02*
X117830002Y-98093012D01*
X119559506Y-97460523D02*
X119557577Y-97460523D01*
%TO.N,/STM32H7 MCU/MCU_VREF+*%
X122450002Y-97145000D02*
X122435002Y-97160000D01*
X122435002Y-97160000D02*
X120710000Y-97160000D01*
%TO.N,ETH_MDC*%
X106671868Y-99925724D02*
X106587522Y-99925724D01*
D32*
%TO.N,+3V3*%
X112180000Y-94130000D02*
X112160000Y-94150000D01*
D31*
X122550000Y-98160000D02*
X122455002Y-98160000D01*
D32*
X112180000Y-93575000D02*
X112180000Y-94130000D01*
D33*
X121220000Y-103510000D02*
X121710000Y-103510000D01*
D31*
X132970000Y-91800000D02*
X132980000Y-91810000D01*
X131100000Y-107000000D02*
X130970000Y-106870000D01*
X132320000Y-91800000D02*
X132970000Y-91800000D01*
X101299181Y-92500819D02*
X101300000Y-92500000D01*
X100909433Y-91580819D02*
X101216736Y-91580819D01*
X101216736Y-91580819D02*
X101306334Y-91670417D01*
X121510002Y-93343012D02*
X121510002Y-93560002D01*
X131100000Y-107620000D02*
X131100000Y-107000000D01*
X117830002Y-96770002D02*
X117830000Y-96770000D01*
X121510002Y-93560002D02*
X121680000Y-93730000D01*
X100909433Y-92500819D02*
X101299181Y-92500819D01*
X117830002Y-97153012D02*
X117830002Y-96770002D01*
X122455002Y-98160000D02*
X122450002Y-98165000D01*
X130700000Y-107620000D02*
X130700000Y-108300000D01*
X121510002Y-94263012D02*
X121186988Y-94263012D01*
D33*
%TO.N,/STM32H7 MCU/VDD_SDC*%
X116850000Y-102480000D02*
X116850000Y-101620000D01*
D31*
X117656791Y-92646223D02*
X117781331Y-92646223D01*
X116900002Y-97163012D02*
X116750000Y-97013010D01*
D32*
X116347202Y-101983012D02*
X116486988Y-101983012D01*
X116486988Y-101983012D02*
X116850000Y-101620000D01*
D31*
X116750000Y-97013010D02*
X116750000Y-96309601D01*
X121200002Y-95489915D02*
X121233883Y-95523796D01*
X116750000Y-96309601D02*
X116710399Y-96270000D01*
X115804635Y-94978379D02*
X115440002Y-95343012D01*
X121200002Y-95343012D02*
X121200002Y-95489915D01*
X115906872Y-94978378D02*
X115906871Y-94978379D01*
X115906871Y-94978379D02*
X115804635Y-94978379D01*
X117520002Y-92783012D02*
X117656791Y-92646223D01*
%TO.N,TFT_DVID_CEC*%
X123900000Y-79040161D02*
X123974939Y-79115100D01*
X123900000Y-76780000D02*
X123900000Y-79040161D01*
D32*
%TO.N,/STM32H7 MCU/VDDSMPS*%
X121470002Y-101158012D02*
X121028990Y-101158012D01*
X119323012Y-101313012D02*
X119320000Y-101310000D01*
X121028990Y-101158012D02*
X120897002Y-101290000D01*
X119830002Y-101313012D02*
X119323012Y-101313012D01*
D31*
%TO.N,~{RESET_OUT}*%
X125011039Y-82930600D02*
X124066539Y-83875100D01*
D32*
X120496502Y-100883744D02*
X120496502Y-101853153D01*
D31*
X101890000Y-89280000D02*
X101890000Y-99440000D01*
D32*
X119511246Y-98656512D02*
X119273502Y-98894256D01*
X120195685Y-97648121D02*
X120195685Y-98533439D01*
D31*
X136380600Y-82930600D02*
X125011039Y-82930600D01*
D32*
X119680224Y-100067466D02*
X120496502Y-100883744D01*
X120283000Y-102066655D02*
X119286655Y-102066655D01*
X120200000Y-97643806D02*
X120195685Y-97648121D01*
D31*
X101640000Y-89280000D02*
X101540000Y-89380000D01*
D32*
X120072612Y-98656512D02*
X119511246Y-98656512D01*
X120195685Y-98533439D02*
X120072612Y-98656512D01*
D31*
X138839999Y-83240000D02*
X136690000Y-83240000D01*
X116290000Y-81260000D02*
X118830000Y-83800000D01*
D32*
X119286655Y-102066655D02*
X119260000Y-102040000D01*
X120496502Y-101853153D02*
X120283000Y-102066655D01*
D31*
X101890000Y-89280000D02*
X101640000Y-89280000D01*
D32*
X119273502Y-99751768D02*
X119589200Y-100067466D01*
D31*
X106716333Y-103280000D02*
X111495531Y-103280000D01*
X123875645Y-83800000D02*
X123922545Y-83753100D01*
X105580000Y-102130000D02*
X105588800Y-102138800D01*
D32*
X120200000Y-97640000D02*
X120200000Y-97643806D01*
D31*
X113097877Y-103397877D02*
X115824648Y-106124648D01*
X101890000Y-99440000D02*
X104644975Y-102194975D01*
X136690000Y-83240000D02*
X136380600Y-82930600D01*
X116290000Y-79150000D02*
X116290000Y-81260000D01*
X104931000Y-80089000D02*
X104931000Y-82049000D01*
X105546292Y-102194975D02*
X105588800Y-102152467D01*
X124066539Y-83875100D02*
X124044545Y-83875100D01*
X101890000Y-85090000D02*
X101890000Y-89280000D01*
X118830000Y-83800000D02*
X123875645Y-83800000D01*
X116044648Y-106124648D02*
X116100000Y-106180000D01*
X116280000Y-79140000D02*
X116290000Y-79150000D01*
X115824648Y-106124648D02*
X116044648Y-106124648D01*
D32*
X119589200Y-100067466D02*
X119680224Y-100067466D01*
D31*
X104644975Y-102194975D02*
X105546292Y-102194975D01*
X111613408Y-103397877D02*
X113097877Y-103397877D01*
X124044545Y-83875100D02*
X123922545Y-83753100D01*
X105588800Y-102138800D02*
X105588800Y-102152467D01*
X132300000Y-106690000D02*
X132400000Y-106590000D01*
X132300000Y-107620000D02*
X132300000Y-106690000D01*
X106120000Y-78900000D02*
X104931000Y-80089000D01*
X111495531Y-103280000D02*
X111613408Y-103397877D01*
X105588800Y-102152467D02*
X106716333Y-103280000D01*
D32*
X119273502Y-98894256D02*
X119273502Y-99751768D01*
D31*
X104931000Y-82049000D02*
X101890000Y-85090000D01*
%TO.N,UART1_RX{slash}DIN1*%
X134204200Y-110304200D02*
X134540000Y-110640000D01*
X108924555Y-102620000D02*
X107337643Y-101033088D01*
X110370000Y-102620000D02*
X108924555Y-102620000D01*
X133900000Y-107620000D02*
X133900000Y-107870000D01*
X134204200Y-108174200D02*
X134204200Y-110304200D01*
X107337643Y-101033088D02*
X107337643Y-95442357D01*
X107337643Y-95442357D02*
X107940000Y-94840000D01*
X133900000Y-107870000D02*
X134204200Y-108174200D01*
X110570000Y-102820000D02*
X110370000Y-102620000D01*
%TO.N,ETH_RX_ERR*%
X106880000Y-87110000D02*
X107290000Y-86700000D01*
X106880000Y-87820000D02*
X106880000Y-87110000D01*
X107290000Y-86700000D02*
X107290000Y-86690000D01*
D32*
%TO.N,DVID_SEL2*%
X130710000Y-86060000D02*
X130710000Y-95770557D01*
X131500000Y-85270000D02*
X130710000Y-86060000D01*
X130710000Y-95770557D02*
X130785950Y-95846507D01*
D31*
%TO.N,~{DIB1_CSA}*%
X119813800Y-108396302D02*
X119813800Y-108339679D01*
X120300000Y-108882502D02*
X119813800Y-108396302D01*
X115698502Y-97622569D02*
X115624951Y-97549018D01*
X120395800Y-110604200D02*
X120395800Y-109885702D01*
X120395800Y-109885702D02*
X120300000Y-109789902D01*
X115905600Y-103209703D02*
X115698502Y-103002605D01*
X115624951Y-97549018D02*
X115624951Y-97262217D01*
X115698502Y-103002605D02*
X115698502Y-97622569D01*
X120300000Y-110700000D02*
X120395800Y-110604200D01*
X120300000Y-109789902D02*
X120300000Y-108882502D01*
%TO.N,+VAUX*%
X129100000Y-107620000D02*
X129100000Y-107039558D01*
X129100000Y-107039558D02*
X129002288Y-106941846D01*
X129002288Y-106941846D02*
X128893990Y-106941846D01*
%TO.N,~{DIB3_CSA}*%
X115768000Y-104578000D02*
X116638604Y-104578000D01*
X116638604Y-104578000D02*
X116843616Y-104372988D01*
X114858302Y-103668302D02*
X115768000Y-104578000D01*
X114380000Y-96930000D02*
X114380000Y-98180000D01*
X112700000Y-95140000D02*
X112700000Y-95250000D01*
X123900000Y-107620000D02*
X123900000Y-105586069D01*
X114380000Y-98180000D02*
X114858302Y-98658302D01*
X114858302Y-98658302D02*
X114858302Y-103668302D01*
X123900000Y-105586069D02*
X123458833Y-105144902D01*
X112700000Y-95250000D02*
X114380000Y-96930000D01*
D32*
%TO.N,TFT_DVID_TX1_P*%
X124300000Y-74593286D02*
X124211500Y-74681786D01*
X124300000Y-73700000D02*
X124300000Y-74593286D01*
D31*
%TO.N,~{SYSMCU_CS}*%
X118580000Y-106369991D02*
X118580000Y-103210000D01*
X118700000Y-106489991D02*
X118580000Y-106369991D01*
X118700000Y-107620000D02*
X118700000Y-106489991D01*
%TO.N,~{TFT_IRQ}*%
X122300000Y-110700000D02*
X122300001Y-110196477D01*
D32*
%TO.N,MCU_USB_UP_TX-*%
X114087000Y-81967394D02*
X114087000Y-93460000D01*
X127134394Y-75384000D02*
X114325606Y-75384000D01*
X127973000Y-76222606D02*
X127973000Y-76457000D01*
X113467000Y-81347394D02*
X113467000Y-76242606D01*
X113467000Y-76242606D02*
X114325606Y-75384000D01*
X114087000Y-93477000D02*
X114250000Y-93640000D01*
X127134394Y-75384000D02*
X127973000Y-76222606D01*
X127973000Y-76457000D02*
X127900000Y-76530000D01*
X127900000Y-76530000D02*
X127900000Y-76780000D01*
X114087000Y-93460000D02*
X114087000Y-93477000D01*
X114087000Y-81967394D02*
X113467000Y-81347394D01*
D31*
%TO.N,SDA*%
X111290000Y-85570000D02*
X111290000Y-93272400D01*
X125882189Y-83560000D02*
X125125037Y-84317152D01*
X111420000Y-85440000D02*
X111290000Y-85570000D01*
X111290000Y-93272400D02*
X111280000Y-93282400D01*
X135860000Y-83850000D02*
X135570000Y-83560000D01*
X130300000Y-107620000D02*
X130300000Y-106910000D01*
X128540600Y-89640600D02*
X124445832Y-85545832D01*
X135570000Y-83560000D02*
X125882189Y-83560000D01*
X136630812Y-83850000D02*
X135860000Y-83850000D01*
X128540600Y-105150600D02*
X128540600Y-89640600D01*
X130300000Y-106910000D02*
X128540600Y-105150600D01*
X136734612Y-83746200D02*
X136630812Y-83850000D01*
X124445832Y-85545832D02*
X124445832Y-85090000D01*
%TO.N,SCL*%
X129900000Y-106905132D02*
X128261200Y-105266332D01*
X123918764Y-85428764D02*
X123918764Y-84883500D01*
X136068200Y-83280000D02*
X125056771Y-83280000D01*
X111000000Y-92837292D02*
X110728795Y-93108497D01*
X111020000Y-84860000D02*
X111000000Y-84880000D01*
X136205000Y-83416800D02*
X136068200Y-83280000D01*
X128261200Y-105266332D02*
X128261200Y-89771200D01*
X125056771Y-83280000D02*
X124458781Y-83877990D01*
X124458781Y-83877990D02*
X124458781Y-84086212D01*
X128261200Y-89771200D02*
X123918764Y-85428764D01*
X110728795Y-93108497D02*
X110728795Y-93213929D01*
X111000000Y-84880000D02*
X111000000Y-92837292D01*
X129900000Y-107620000D02*
X129900000Y-106905132D01*
%TO.N,UART0_TX{slash}DOUT3*%
X125100000Y-106995934D02*
X125196101Y-106899833D01*
X125100000Y-107620000D02*
X125100000Y-106995934D01*
D32*
%TO.N,TFT_DVID_TX2_P*%
X123100000Y-74569109D02*
X123011500Y-74657609D01*
X123100000Y-73700000D02*
X123100000Y-74569109D01*
D31*
%TO.N,~{DIB4_IRQ}*%
X123100000Y-107620000D02*
X123100000Y-105400000D01*
X123100000Y-105400000D02*
X122850000Y-105150000D01*
%TO.N,WDG_IN*%
X123499174Y-107620826D02*
X123500000Y-107620000D01*
X123500000Y-107620000D02*
X123500000Y-108228842D01*
X123500000Y-108228842D02*
X123597875Y-108326717D01*
%TO.N,RS485_TX_EN{slash}DOUT2*%
X127750000Y-103630000D02*
X127940000Y-103440000D01*
X127940000Y-103440000D02*
X127940000Y-91576080D01*
X127940000Y-91576080D02*
X127531420Y-91167500D01*
X119899999Y-111203523D02*
X119900000Y-110700000D01*
D32*
%TO.N,TFT_DVID_TX2_N*%
X123500000Y-74569109D02*
X123588500Y-74657609D01*
X123500000Y-73700000D02*
X123500000Y-74569109D01*
D31*
%TO.N,UART0_RX{slash}DIN2*%
X125682301Y-106797699D02*
X125682301Y-107065800D01*
X125682301Y-107065800D02*
X125500000Y-107248101D01*
X127180000Y-105040000D02*
X127180000Y-105300000D01*
X125500000Y-107248101D02*
X125500000Y-107620000D01*
X127180000Y-105300000D02*
X125682301Y-106797699D01*
D32*
%TO.N,TFT_DVID_CLK_P*%
X126700000Y-74601228D02*
X126611500Y-74689728D01*
X126700000Y-73700000D02*
X126700000Y-74601228D01*
D31*
%TO.N,~{DIB3_IRQ}*%
X119100000Y-110139480D02*
X118849404Y-109888884D01*
X118849404Y-109888884D02*
X118849404Y-108356448D01*
X118849404Y-108356448D02*
X118814091Y-108321135D01*
X119100000Y-110700000D02*
X119100000Y-110139480D01*
%TO.N,~{DIB5_CSA}*%
X123900000Y-110700000D02*
X123900000Y-109322149D01*
X123900000Y-109322149D02*
X123457414Y-108879563D01*
D32*
%TO.N,TFT_DVID_CLK_N*%
X127100000Y-74601228D02*
X127188500Y-74689728D01*
X127100000Y-73700000D02*
X127100000Y-74601228D01*
%TO.N,DIB1_USB_D+*%
X114027000Y-95180000D02*
X114027000Y-94847394D01*
X113209502Y-82319896D02*
X112797000Y-81907394D01*
X120700000Y-73450000D02*
X120700000Y-73700000D01*
X120773000Y-73377000D02*
X120700000Y-73450000D01*
X114050000Y-95180000D02*
X114180000Y-95310000D01*
X113742606Y-72977000D02*
X120467394Y-72977000D01*
X114027000Y-95180000D02*
X114050000Y-95180000D01*
X113209502Y-94029896D02*
X113209502Y-82319896D01*
X112797000Y-81907394D02*
X112797000Y-73922606D01*
X120467394Y-72977000D02*
X120773000Y-73282606D01*
X120773000Y-73282606D02*
X120773000Y-73377000D01*
X112797000Y-73922606D02*
X113742606Y-72977000D01*
X114027000Y-94847394D02*
X113209502Y-94029896D01*
%TO.N,TFT_DVID_TX0_P*%
X125500000Y-74602002D02*
X125411500Y-74690502D01*
X125500000Y-73700000D02*
X125500000Y-74602002D01*
D31*
%TO.N,~{DIB2_CSA}*%
X121900000Y-110700000D02*
X121813801Y-110613801D01*
X121813801Y-110026995D02*
X121758811Y-109972005D01*
X121813801Y-110613801D02*
X121813801Y-110026995D01*
X117329816Y-102830184D02*
X117550000Y-102610000D01*
X116601990Y-106670360D02*
X117329816Y-105942534D01*
X117329816Y-105942534D02*
X117329816Y-102830184D01*
%TO.N,~{DIB4_CSA}*%
X126095300Y-105277109D02*
X126575300Y-105277109D01*
X124710000Y-106662409D02*
X126095300Y-105277109D01*
X124700000Y-107620000D02*
X124710000Y-107610000D01*
X124710000Y-107610000D02*
X124710000Y-106662409D01*
D32*
%TO.N,MCU_USB_UP_TX+*%
X124759210Y-75130000D02*
X124755210Y-75126000D01*
X113213000Y-76137394D02*
X113213000Y-81452606D01*
X128300000Y-76190394D02*
X127239604Y-75130000D01*
X113833000Y-82072606D02*
X113833000Y-93460000D01*
X128300000Y-76780000D02*
X128300000Y-76190394D01*
X113833000Y-93460000D02*
X113833000Y-93509258D01*
X114220394Y-75130000D02*
X113213000Y-76137394D01*
X124544790Y-75126000D02*
X124540790Y-75130000D01*
X113833000Y-93509258D02*
X113633790Y-93708468D01*
X124540790Y-75130000D02*
X114220394Y-75130000D01*
X127239604Y-75130000D02*
X124759210Y-75130000D01*
X124755210Y-75126000D02*
X124544790Y-75126000D01*
X113213000Y-81452606D02*
X113833000Y-82072606D01*
%TO.N,TFT_DVID_TX0_N*%
X125900000Y-74602002D02*
X125988500Y-74690502D01*
X125900000Y-73700000D02*
X125900000Y-74602002D01*
D31*
%TO.N,UART1_TX{slash}DOUT1*%
X108954775Y-101859957D02*
X108360000Y-101265182D01*
X133040000Y-109020000D02*
X129970000Y-109020000D01*
X108360000Y-101265182D02*
X108360000Y-96560000D01*
X109642366Y-101859957D02*
X108954775Y-101859957D01*
X133500000Y-109480000D02*
X133040000Y-109020000D01*
X133500000Y-110700000D02*
X133500000Y-109480000D01*
D32*
%TO.N,DIB1_USB_D-*%
X121100000Y-73450000D02*
X121027000Y-73377000D01*
X112543000Y-82012606D02*
X112955502Y-82425108D01*
X121027000Y-73177394D02*
X120572606Y-72723000D01*
X113630000Y-95310000D02*
X113773000Y-95167000D01*
X112955502Y-82425108D02*
X112955502Y-94135108D01*
X113773000Y-94952606D02*
X113773000Y-95167000D01*
X121027000Y-73377000D02*
X121027000Y-73177394D01*
X113637394Y-72723000D02*
X112543000Y-73817394D01*
X112543000Y-73817394D02*
X112543000Y-82012606D01*
X112955502Y-94135108D02*
X113773000Y-94952606D01*
X120572606Y-72723000D02*
X113637394Y-72723000D01*
X113773000Y-95167000D02*
X113773000Y-95180000D01*
X121100000Y-73700000D02*
X121100000Y-73450000D01*
D31*
%TO.N,~{DIB5_IRQ}*%
X111617154Y-101858674D02*
X111617154Y-102324455D01*
X110982055Y-101223575D02*
X111617154Y-101858674D01*
X112467722Y-111617722D02*
X123084678Y-111617722D01*
X111290000Y-107983600D02*
X111559271Y-108252871D01*
X110090000Y-97410262D02*
X110982055Y-98302317D01*
X123084678Y-111617722D02*
X123500000Y-111202400D01*
X111559271Y-110709271D02*
X112467722Y-111617722D01*
X111559271Y-108252871D02*
X111559271Y-110709271D01*
X110090000Y-95200600D02*
X110090000Y-97410262D01*
X110982055Y-98302317D02*
X110982055Y-101223575D01*
X123500000Y-111202400D02*
X123500000Y-110700000D01*
%TO.N,~{DIB1_IRQ}*%
X119100000Y-107620000D02*
X119100000Y-106556049D01*
X119100000Y-106556049D02*
X119229950Y-106426099D01*
%TO.N,~{SYSMCU_IRQ}*%
X123100000Y-110102395D02*
X123211483Y-109990912D01*
X123100000Y-110700000D02*
X123100000Y-110102395D01*
X123211483Y-109990912D02*
X123211483Y-109321223D01*
X123211483Y-109321223D02*
X123023837Y-109133577D01*
X123023837Y-109133577D02*
X123023837Y-108331758D01*
%TO.N,~{DIB2_IRQ}*%
X119404200Y-108821792D02*
X119269810Y-108687402D01*
X119500000Y-110700000D02*
X119404200Y-110604200D01*
X119404200Y-110604200D02*
X119404200Y-108821792D01*
D32*
%TO.N,TFT_DVID_TX1_N*%
X124700000Y-74593286D02*
X124788500Y-74681786D01*
X124700000Y-73700000D02*
X124700000Y-74593286D01*
D31*
%TO.N,BOOT0*%
X111330000Y-98660000D02*
X113500000Y-100830000D01*
X132700000Y-109793602D02*
X132619898Y-109713500D01*
X111330000Y-96100000D02*
X111330000Y-98660000D01*
X113500000Y-100830000D02*
X113500000Y-100986200D01*
X132700000Y-110700000D02*
X132700000Y-109793602D01*
%TO.N,~{ETH_LINK_ACT}*%
X117100000Y-110147591D02*
X117100000Y-109930000D01*
X116630000Y-109460000D02*
X116200000Y-109460000D01*
X116870000Y-109700000D02*
X116630000Y-109460000D01*
X117100000Y-110700000D02*
X117100000Y-110147591D01*
X117100000Y-109930000D02*
X116870000Y-109700000D01*
D32*
%TO.N,ETH_TXRX_B-*%
X102866499Y-105152999D02*
X107990000Y-105152999D01*
X102720000Y-105006500D02*
X102866499Y-105152999D01*
X108114999Y-105028000D02*
X108114999Y-104769999D01*
X115100000Y-107370000D02*
X115027000Y-107297000D01*
X108999001Y-104769999D02*
X108999001Y-105028000D01*
X113102605Y-105152999D02*
X109596619Y-105152999D01*
X115100000Y-107620000D02*
X115100000Y-107370000D01*
X102720000Y-105006500D02*
X102373500Y-105006500D01*
X115027000Y-107297000D02*
X115027000Y-107077394D01*
X110218351Y-105152999D02*
X111250000Y-105152999D01*
X108494000Y-104390998D02*
X108620000Y-104390998D01*
X109596619Y-105152999D02*
X111250000Y-105152999D01*
X102373500Y-105006500D02*
X101890000Y-105490000D01*
X115027000Y-107077394D02*
X113102605Y-105152999D01*
X109250000Y-105152999D02*
X110218351Y-105152999D01*
X109124000Y-105152999D02*
X109250000Y-105152999D01*
X108114999Y-104769999D02*
G75*
G02*
X108494000Y-104390999I379001J-1D01*
G01*
X107990000Y-105152999D02*
G75*
G03*
X108114999Y-105028000I0J124999D01*
G01*
X108620000Y-104390998D02*
G75*
G02*
X108999002Y-104769999I0J-379002D01*
G01*
X108999001Y-105028000D02*
G75*
G03*
X109124000Y-105152999I124999J0D01*
G01*
%TO.N,ETH_TXRX_A-*%
X112443220Y-103927000D02*
X115522479Y-107006259D01*
X101890000Y-103610000D02*
X102159999Y-103610000D01*
X102720000Y-103957000D02*
X102750000Y-103927000D01*
X102761020Y-104108980D02*
X102720000Y-104150000D01*
X102820000Y-104108980D02*
X102761020Y-104108980D01*
X102820000Y-104108980D02*
X102820000Y-104107990D01*
X102750000Y-103927000D02*
X112443220Y-103927000D01*
X102159999Y-103610000D02*
X102180000Y-103589999D01*
X102180000Y-103589999D02*
X102180000Y-103470000D01*
X115522479Y-107006259D02*
X115769845Y-107006259D01*
X115900000Y-107136414D02*
X115900000Y-107620000D01*
X102720000Y-104150000D02*
X102720000Y-103957000D01*
X115769845Y-107006259D02*
X115900000Y-107136414D01*
D31*
%TO.N,~{ETH_LINK100}*%
X117513200Y-110686800D02*
X117500000Y-110700000D01*
X117513200Y-110160501D02*
X117513200Y-110686800D01*
D32*
%TO.N,ETH_TXRX_B+*%
X112123400Y-105608547D02*
X112123400Y-105559401D01*
X112997395Y-105407001D02*
X114773000Y-107182606D01*
X109124000Y-105407001D02*
X109250000Y-105407001D01*
X112352000Y-105407001D02*
X112371507Y-105407001D01*
X109596619Y-105407001D02*
X111420000Y-105407001D01*
X109596619Y-105407001D02*
X111590000Y-105407001D01*
X114773000Y-107182606D02*
X114773000Y-107297000D01*
X114700000Y-107370000D02*
X114700000Y-107620000D01*
X102720000Y-105600000D02*
X101890000Y-106430000D01*
X102720000Y-105553500D02*
X102866499Y-105407001D01*
X108744999Y-104769999D02*
X108744999Y-105028000D01*
X102720000Y-105553500D02*
X102720000Y-105600000D01*
X109250000Y-105407001D02*
X110218351Y-105407001D01*
X102866499Y-105407001D02*
X107990000Y-105407001D01*
X112275800Y-105407001D02*
X112352000Y-105407001D01*
X111894800Y-105760947D02*
X111971000Y-105760947D01*
X110218351Y-105407001D02*
X111420000Y-105407001D01*
X111742400Y-105559401D02*
X111742400Y-105608547D01*
X108369001Y-105028000D02*
X108369001Y-104769999D01*
X114773000Y-107297000D02*
X114700000Y-107370000D01*
X112371507Y-105407001D02*
X112997395Y-105407001D01*
X108494000Y-104645000D02*
X108620000Y-104645000D01*
X112123400Y-105559401D02*
G75*
G02*
X112275800Y-105407000I152400J1D01*
G01*
X108369001Y-104769999D02*
G75*
G02*
X108494000Y-104645001I124999J-1D01*
G01*
X111742400Y-105608547D02*
G75*
G03*
X111894800Y-105760900I152400J47D01*
G01*
X108620000Y-104645000D02*
G75*
G02*
X108745000Y-104769999I0J-125000D01*
G01*
X108744999Y-105028000D02*
G75*
G03*
X109124000Y-105407001I379001J0D01*
G01*
X111590000Y-105407001D02*
G75*
G02*
X111742399Y-105559401I0J-152399D01*
G01*
X111971000Y-105760947D02*
G75*
G03*
X112123447Y-105608547I0J152447D01*
G01*
X107990000Y-105407001D02*
G75*
G03*
X108369001Y-105028000I0J379001D01*
G01*
%TO.N,ETH_TXRX_A+*%
X101930000Y-104590000D02*
X101890000Y-104550000D01*
X102750000Y-103673000D02*
X102612482Y-103673000D01*
X112551258Y-103673000D02*
X102750000Y-103673000D01*
X115907259Y-106750259D02*
X115628517Y-106750259D01*
X116300000Y-107620000D02*
X116300000Y-107143000D01*
X102330000Y-104590000D02*
X101930000Y-104590000D01*
X102318500Y-104578500D02*
X102330000Y-104590000D01*
X102318500Y-103966982D02*
X102318500Y-104578500D01*
X115628517Y-106750259D02*
X112551258Y-103673000D01*
X102612482Y-103673000D02*
X102318500Y-103966982D01*
X116300000Y-107143000D02*
X115907259Y-106750259D01*
%TO.N,XSPIM_P1_IO0*%
X130393782Y-96550347D02*
X130342982Y-96550347D01*
X130342982Y-96550347D02*
X130241382Y-96550347D01*
X130241382Y-95794988D02*
X130241382Y-96194747D01*
X130495382Y-96905947D02*
X130495382Y-96956747D01*
X129987382Y-96651947D02*
X129987382Y-96702747D01*
X130342982Y-96296347D02*
X130393782Y-96296347D01*
X130495382Y-97413947D02*
X130495382Y-97464747D01*
X132170000Y-98550000D02*
X132350000Y-98370000D01*
X130342982Y-97312347D02*
X130393782Y-97312347D01*
X130088982Y-96804347D02*
X130241382Y-96804347D01*
X129987382Y-97159947D02*
X129987382Y-97210747D01*
X130241382Y-96804347D02*
X130393782Y-96804347D01*
X130241382Y-97058347D02*
X130088982Y-97058347D01*
X130393782Y-97566347D02*
X130342982Y-97566347D01*
X130241382Y-97312347D02*
X130342982Y-97312347D01*
X130088982Y-97312347D02*
X130241382Y-97312347D01*
X130770000Y-98550000D02*
X132170000Y-98550000D01*
X130495382Y-96397947D02*
X130495382Y-96448747D01*
X130241382Y-97667947D02*
X130241382Y-97718747D01*
X130241382Y-96550347D02*
X130088982Y-96550347D01*
X130241382Y-98021382D02*
X130465422Y-98245422D01*
X130393782Y-97058347D02*
X130241382Y-97058347D01*
X130465422Y-98245422D02*
X130770000Y-98550000D01*
X130241382Y-97718747D02*
X130241382Y-98021382D01*
X130241382Y-96194747D02*
G75*
G03*
X130342982Y-96296318I101618J47D01*
G01*
X130342982Y-97566347D02*
G75*
G03*
X130241447Y-97667947I18J-101553D01*
G01*
X130393782Y-96296347D02*
G75*
G02*
X130495353Y-96397947I18J-101553D01*
G01*
X130495382Y-97464747D02*
G75*
G02*
X130393782Y-97566282I-101582J47D01*
G01*
X129987382Y-96702747D02*
G75*
G03*
X130088982Y-96804318I101618J47D01*
G01*
X130088982Y-97058347D02*
G75*
G03*
X129987447Y-97159947I18J-101553D01*
G01*
X130495382Y-96448747D02*
G75*
G02*
X130393782Y-96550282I-101582J47D01*
G01*
X129987382Y-97210747D02*
G75*
G03*
X130088982Y-97312318I101618J47D01*
G01*
X130393782Y-96804347D02*
G75*
G02*
X130495353Y-96905947I18J-101553D01*
G01*
X130088982Y-96550347D02*
G75*
G03*
X129987447Y-96651947I18J-101553D01*
G01*
X130393782Y-97312347D02*
G75*
G02*
X130495353Y-97413947I18J-101553D01*
G01*
X130495382Y-96956747D02*
G75*
G02*
X130393782Y-97058282I-101582J47D01*
G01*
D31*
%TO.N,DVID_SEL1*%
X128820000Y-87320000D02*
X130910000Y-85230000D01*
X128953800Y-100880738D02*
X128820000Y-100746938D01*
X128820000Y-100746938D02*
X128820000Y-87320000D01*
X128953800Y-101310000D02*
X128953800Y-100880738D01*
D32*
%TO.N,~{XSPIM_P2_CS1}*%
X111750000Y-80750000D02*
X111740000Y-80740000D01*
X112110000Y-80750000D02*
X111750000Y-80750000D01*
%TO.N,XSPIM_P2_DQS0*%
X116535372Y-87694900D02*
X116354702Y-87694900D01*
X116805100Y-88145298D02*
X116805100Y-87964628D01*
X116354702Y-87694900D02*
X115240000Y-86580198D01*
X115240000Y-86580198D02*
X115240000Y-80580000D01*
X118289802Y-89630000D02*
X116805100Y-88145298D01*
X116805100Y-87964628D02*
X116535372Y-87694900D01*
D31*
%TO.N,TFT_DVID_SDA*%
X123100000Y-81389334D02*
X122438467Y-82050867D01*
X123100000Y-76780000D02*
X123100000Y-81389334D01*
%TO.N,TFT_DVID_SCL*%
X122760000Y-82720000D02*
X123500000Y-81980000D01*
X123500000Y-81980000D02*
X123500000Y-76780000D01*
D32*
%TO.N,SDMMC_D5*%
X109872052Y-93397684D02*
X109836129Y-93433604D01*
X109117711Y-92499659D02*
X109153632Y-92535580D01*
X109117709Y-92858868D02*
X109153631Y-92894790D01*
X109836131Y-93218079D02*
X109872052Y-93254000D01*
X109836129Y-93577288D02*
X109872051Y-93613210D01*
X108794421Y-92535580D02*
X105510000Y-89251159D01*
X110015735Y-93613210D02*
X110051657Y-93577289D01*
X109476919Y-93218078D02*
X109512841Y-93254000D01*
X110231261Y-93972420D02*
X110499421Y-94240580D01*
X109656525Y-93254000D02*
X109692447Y-93218079D01*
X110231262Y-93756894D02*
X110195339Y-93792814D01*
X109476921Y-92858869D02*
X109512842Y-92894790D01*
X105510000Y-89184798D02*
X105603807Y-89090991D01*
X110499421Y-94240580D02*
X113950000Y-97691159D01*
X109153632Y-92679264D02*
X109117709Y-92715184D01*
X113950000Y-97691159D02*
X113950000Y-99070000D01*
X108938105Y-92535580D02*
X108974027Y-92499659D01*
X110195341Y-93577289D02*
X110231262Y-93613210D01*
X109297315Y-92894790D02*
X109333237Y-92858869D01*
X109512842Y-93038474D02*
X109476919Y-93074394D01*
X105510000Y-89251159D02*
X105510000Y-89184798D01*
X110195339Y-93936498D02*
X110231261Y-93972420D01*
X110231262Y-93613210D02*
G75*
G02*
X110231310Y-93756942I-71862J-71890D01*
G01*
X109692447Y-93218079D02*
G75*
G02*
X109836131Y-93218079I71842J-71842D01*
G01*
X109512841Y-93254000D02*
G75*
G03*
X109656525Y-93254000I71842J71842D01*
G01*
X109872052Y-93254000D02*
G75*
G02*
X109872010Y-93397642I-71852J-71800D01*
G01*
X109512842Y-92894790D02*
G75*
G02*
X109512810Y-93038442I-71842J-71810D01*
G01*
X109476919Y-93074394D02*
G75*
G03*
X109476955Y-93218042I71881J-71806D01*
G01*
X109153632Y-92535580D02*
G75*
G02*
X109153610Y-92679242I-71832J-71820D01*
G01*
X108794421Y-92535580D02*
G75*
G03*
X108938105Y-92535580I71842J71842D01*
G01*
X109153631Y-92894790D02*
G75*
G03*
X109297315Y-92894790I71842J71842D01*
G01*
X109836129Y-93433604D02*
G75*
G03*
X109836175Y-93577242I71871J-71796D01*
G01*
X110051657Y-93577289D02*
G75*
G02*
X110195341Y-93577289I71842J-71842D01*
G01*
X109333237Y-92858869D02*
G75*
G02*
X109476921Y-92858869I71842J-71842D01*
G01*
X108974027Y-92499659D02*
G75*
G02*
X109117711Y-92499659I71842J-71842D01*
G01*
X110195339Y-93792814D02*
G75*
G03*
X110195295Y-93936542I71861J-71886D01*
G01*
X109872051Y-93613210D02*
G75*
G03*
X110015735Y-93613210I71842J71842D01*
G01*
X109117709Y-92715184D02*
G75*
G03*
X109117735Y-92858842I71891J-71816D01*
G01*
%TO.N,SDMMC_D4*%
X105137193Y-89237562D02*
X105137193Y-88939319D01*
X113368609Y-99240000D02*
X113368609Y-97468978D01*
X105137193Y-88939319D02*
X105507078Y-88569434D01*
X105507078Y-88569434D02*
X105610694Y-88569434D01*
X114185421Y-100056812D02*
X113368609Y-99240000D01*
X114185421Y-100222900D02*
X114185421Y-100056812D01*
X113368609Y-97468978D02*
X105137193Y-89237562D01*
D31*
%TO.N,~{LED_ACT}*%
X118248200Y-111254200D02*
X113178000Y-111254200D01*
X118300000Y-110700000D02*
X118300000Y-111202400D01*
X113178000Y-111254200D02*
X112740000Y-110816200D01*
X118300000Y-111202400D02*
X118248200Y-111254200D01*
D32*
%TO.N,REAR_DVID_TX1_N*%
X129500000Y-74601277D02*
X129588500Y-74689777D01*
X129500000Y-73700000D02*
X129500000Y-74601277D01*
%TO.N,REAR_DVID_CLK_P*%
X131490000Y-73710000D02*
X131490000Y-74611500D01*
X131490000Y-74611500D02*
X131411500Y-74690000D01*
X131500000Y-73700000D02*
X131490000Y-73710000D01*
%TO.N,REAR_DVID_TX0_N*%
X130690000Y-73710000D02*
X130690000Y-74601500D01*
X130690000Y-74601500D02*
X130788500Y-74700000D01*
X130700000Y-73700000D02*
X130690000Y-73710000D01*
%TO.N,REAR_DVID_TX1_P*%
X129100000Y-74601277D02*
X129011500Y-74689777D01*
X129100000Y-73700000D02*
X129100000Y-74601277D01*
%TO.N,REAR_DVID_CLK_N*%
X131900000Y-73700000D02*
X131890000Y-73710000D01*
X131890000Y-73710000D02*
X131890000Y-74591500D01*
X131890000Y-74591500D02*
X131988500Y-74690000D01*
%TO.N,REAR_DVID_TX2_N*%
X128300000Y-73700000D02*
X128300000Y-74598084D01*
X128300000Y-74598084D02*
X128388500Y-74686584D01*
%TO.N,REAR_DVID_TX0_P*%
X130300000Y-74611500D02*
X130211500Y-74700000D01*
X130300000Y-73700000D02*
X130300000Y-74611500D01*
%TO.N,REAR_DVID_TX2_P*%
X127900000Y-73700000D02*
X127900000Y-74598084D01*
X127900000Y-74598084D02*
X127811500Y-74686584D01*
D31*
%TO.N,REAR_DVID_SDA*%
X130630000Y-81070000D02*
X126380000Y-81070000D01*
X133900000Y-76780000D02*
X133900000Y-77800000D01*
X133900000Y-77800000D02*
X130630000Y-81070000D01*
%TO.N,REAR_DVID_CEC*%
X124350000Y-77490000D02*
X124300000Y-77440000D01*
X124300000Y-77440000D02*
X124300000Y-76780000D01*
%TO.N,REAR_DVID_SCL*%
X134120000Y-73720000D02*
X133920000Y-73720000D01*
X133920000Y-73720000D02*
X133900000Y-73700000D01*
D34*
%TO.N,+1V8*%
X123600000Y-95180000D02*
X123600000Y-94260000D01*
D31*
X121540002Y-92453012D02*
X121540179Y-92453012D01*
X131450000Y-100090000D02*
X130970000Y-100090000D01*
X121540179Y-92453012D02*
X121807333Y-92720166D01*
X117030000Y-79830000D02*
X116760000Y-79830000D01*
X131900000Y-107620000D02*
X131900000Y-108100000D01*
X116300000Y-83610000D02*
X116300000Y-83307000D01*
X119120002Y-91141946D02*
X119027047Y-91234901D01*
X120801815Y-91201273D02*
X120801815Y-91024825D01*
X119748412Y-92637095D02*
X119724329Y-92613012D01*
X116925000Y-83885000D02*
X116920000Y-83890000D01*
X117490000Y-83885000D02*
X116925000Y-83885000D01*
X131900000Y-108100000D02*
X131690000Y-108310000D01*
X123334747Y-94274747D02*
X123507006Y-94274747D01*
X122460002Y-92453012D02*
X122700559Y-92693569D01*
X131500000Y-107620000D02*
X131500000Y-107220000D01*
X120801815Y-91024825D02*
X120620002Y-90843012D01*
D35*
X99326423Y-88538095D02*
X99178242Y-88538095D01*
D31*
X122700559Y-92696898D02*
X122696657Y-92700800D01*
X122700000Y-88175000D02*
X123315000Y-88175000D01*
X116300000Y-83307000D02*
X116397000Y-83210000D01*
D35*
X99178242Y-88538095D02*
X99135518Y-88580819D01*
D31*
X119700002Y-92783012D02*
X119748412Y-92734602D01*
X119120002Y-90833012D02*
X119120002Y-91141946D01*
X112125000Y-83030000D02*
X112125000Y-82585000D01*
D32*
X134420000Y-98054137D02*
X133051735Y-96685872D01*
D31*
X121395000Y-88175000D02*
X121400000Y-88170000D01*
X117300000Y-81030000D02*
X117300000Y-80450000D01*
D33*
X130970000Y-100090000D02*
X130055000Y-100090000D01*
D31*
X112132500Y-81840000D02*
X111860000Y-81840000D01*
X132850000Y-96594999D02*
X132940873Y-96685872D01*
X112142500Y-81830000D02*
X112132500Y-81840000D01*
D33*
X130055000Y-100090000D02*
X129780000Y-100365000D01*
X131925000Y-96315000D02*
X131660000Y-96050000D01*
D31*
X120800000Y-88175000D02*
X121395000Y-88175000D01*
X123315000Y-88175000D02*
X123320000Y-88170000D01*
D34*
X98909433Y-87660819D02*
X98909433Y-88580819D01*
D32*
X110760000Y-80740000D02*
X111720000Y-81700000D01*
X110720000Y-80740000D02*
X110760000Y-80740000D01*
D31*
X132850000Y-96315000D02*
X132850000Y-96594999D01*
X122700559Y-92693569D02*
X122700559Y-92696898D01*
X111860000Y-81840000D02*
X111720000Y-81700000D01*
X119748412Y-92734602D02*
X119748412Y-92637095D01*
D35*
X99135518Y-88580819D02*
X98909433Y-88580819D01*
D31*
X132940873Y-96685872D02*
X133051735Y-96685872D01*
D32*
X134420000Y-99070000D02*
X134420000Y-98054137D01*
D31*
X131500000Y-107220000D02*
X131710000Y-107010000D01*
X123330000Y-94270000D02*
X123334747Y-94274747D01*
X112125000Y-82585000D02*
X111950000Y-82410000D01*
D33*
X132850000Y-96315000D02*
X131925000Y-96315000D01*
D31*
%TO.N,GPIO_VREF*%
X129500000Y-107620000D02*
X129500000Y-106905131D01*
X127770600Y-104490600D02*
X126125428Y-102845428D01*
X129500000Y-106905131D02*
X127770600Y-105175731D01*
X127770600Y-105175731D02*
X127770600Y-104490600D01*
X126125428Y-102845428D02*
X125767031Y-102845428D01*
%TO.N,DIB4_MISO*%
X115748932Y-104163800D02*
X116270000Y-104163800D01*
X120700000Y-108047798D02*
X121154421Y-108502219D01*
X114810795Y-94381613D02*
X114640000Y-94552408D01*
X114659400Y-98009400D02*
X115137702Y-98487702D01*
X114640000Y-96794868D02*
X114659400Y-96814268D01*
X114659400Y-96814268D02*
X114659400Y-98009400D01*
X114640000Y-94552408D02*
X114640000Y-96794868D01*
X121154421Y-108502219D02*
X121154421Y-108595182D01*
X115137702Y-98487702D02*
X115137702Y-103552570D01*
X115137702Y-103552570D02*
X115748932Y-104163800D01*
X120700000Y-107620000D02*
X120700000Y-108047798D01*
%TO.N,DIB4_MOSI*%
X115520000Y-94368949D02*
X115520000Y-94462360D01*
X115419400Y-103429400D02*
X115714447Y-103724447D01*
X119900000Y-106838771D02*
X119995550Y-106743221D01*
X114925802Y-96685538D02*
X114938800Y-96698537D01*
X119900000Y-107620000D02*
X119900000Y-106838771D01*
X115419400Y-98374268D02*
X115419400Y-103429400D01*
X114925802Y-95056558D02*
X114925802Y-96685538D01*
X115520004Y-94368945D02*
X115520000Y-94368949D01*
X119995550Y-104215519D02*
X119861031Y-104081000D01*
X114938800Y-97893668D02*
X115419400Y-98374268D01*
X115520000Y-94462360D02*
X114925802Y-95056558D01*
X114938800Y-96698537D02*
X114938800Y-97893668D01*
X116262390Y-103724447D02*
X116264460Y-103726517D01*
X116264460Y-103726517D02*
X116598626Y-103726517D01*
X115714447Y-103724447D02*
X116262390Y-103724447D01*
X119995550Y-106743221D02*
X119995550Y-104215519D01*
D32*
%TO.N,LTDC_B7*%
X140835000Y-95405000D02*
X137517500Y-98722500D01*
X137517500Y-102072659D02*
X136930159Y-102660000D01*
X145850000Y-91640000D02*
X142085000Y-95405000D01*
X145850000Y-89570000D02*
X145850000Y-91640000D01*
X136930159Y-102660000D02*
X136790000Y-102660000D01*
X142085000Y-95405000D02*
X140835000Y-95405000D01*
X146030000Y-89390000D02*
X145850000Y-89570000D01*
X137517500Y-98722500D02*
X137517500Y-102072659D01*
%TO.N,LTDC_VSYNC*%
X125180000Y-84970000D02*
X126839955Y-84970000D01*
X118609098Y-86320902D02*
X120520000Y-84410000D01*
X126839955Y-84970000D02*
X127072755Y-84737200D01*
X120520000Y-84410000D02*
X124157985Y-84410000D01*
X118609098Y-89185858D02*
X118609098Y-86320902D01*
X124251954Y-84503969D02*
X124713969Y-84503969D01*
X142655538Y-84324462D02*
X142858262Y-84324462D01*
X124157985Y-84410000D02*
X124251954Y-84503969D01*
X142242800Y-84737200D02*
X142655538Y-84324462D01*
X124713969Y-84503969D02*
X125180000Y-84970000D01*
X127072755Y-84737200D02*
X142242800Y-84737200D01*
%TO.N,LTDC_CLK*%
X137263500Y-101657028D02*
X136874715Y-102045813D01*
X145540000Y-91590790D02*
X141990790Y-95140000D01*
X137263500Y-98617290D02*
X137263500Y-101657028D01*
X145540000Y-88120000D02*
X145540000Y-91590790D01*
X140740790Y-95140000D02*
X137263500Y-98617290D01*
X141990790Y-95140000D02*
X140740790Y-95140000D01*
%TO.N,LTDC_R3*%
X140780489Y-94600489D02*
X140750301Y-94600489D01*
X140750301Y-94600489D02*
X136790000Y-98560790D01*
X136790000Y-101454405D02*
X136777463Y-101466942D01*
X136790000Y-98560790D02*
X136790000Y-101454405D01*
%TO.N,LTDC_B0*%
X137409600Y-95010400D02*
X137580000Y-94840000D01*
X137253993Y-95010400D02*
X137409600Y-95010400D01*
X137580000Y-94840000D02*
X137580000Y-86396200D01*
X137580000Y-86396200D02*
X138040000Y-85936200D01*
%TO.N,LTDC_DE*%
X136350000Y-98440000D02*
X136350000Y-103004500D01*
X136350000Y-103004500D02*
X136393329Y-103047829D01*
X144370000Y-90420000D02*
X136350000Y-98440000D01*
X144370000Y-83850000D02*
X144370000Y-90420000D01*
%TO.N,LTDC_HSYNC*%
X114660000Y-86880000D02*
X114660000Y-85870000D01*
X116327454Y-96660595D02*
X116231591Y-96660595D01*
X116100000Y-96529004D02*
X116100000Y-95353060D01*
X116231591Y-96660595D02*
X116100000Y-96529004D01*
X143330000Y-83810000D02*
X142755132Y-83810000D01*
X116308373Y-95144687D02*
X116308373Y-93173260D01*
X142755132Y-83810000D02*
X142107331Y-84457800D01*
X116308373Y-93173260D02*
X115984900Y-92849787D01*
X115984900Y-92849787D02*
X115984900Y-88204900D01*
D31*
X126658700Y-84457800D02*
X126620000Y-84496500D01*
D32*
X116100000Y-95353060D02*
X116308373Y-95144687D01*
X142107331Y-84457800D02*
X126658700Y-84457800D01*
X115984900Y-88204900D02*
X114660000Y-86880000D01*
%TO.N,~{LED_PWR}*%
X133100000Y-110700000D02*
X133100000Y-109457170D01*
D31*
X109580000Y-94342167D02*
X109580000Y-95218668D01*
X109589400Y-95228068D02*
X109589400Y-100323751D01*
X109580000Y-95218668D02*
X109589400Y-95228068D01*
D32*
X132929530Y-109286700D02*
X132293300Y-109286700D01*
X132038796Y-109541204D02*
X128891204Y-109541204D01*
X132293300Y-109286700D02*
X132038796Y-109541204D01*
D31*
X109589400Y-100323751D02*
X109573411Y-100339740D01*
D32*
X133100000Y-109457170D02*
X132929530Y-109286700D01*
D31*
X109593788Y-94328379D02*
X109580000Y-94342167D01*
%TO.N,DIB1{slash}DIB3_MISO*%
X119500000Y-106843640D02*
X119500000Y-107620000D01*
X119388571Y-104356668D02*
X119716150Y-104684247D01*
X119716150Y-106627490D02*
X119500000Y-106843640D01*
X119716150Y-104684247D02*
X119716150Y-106627490D01*
%TO.N,DIB2{slash}DIB5_SCLK*%
X121500000Y-107620000D02*
X121500000Y-105286177D01*
X121500000Y-105286177D02*
X121748577Y-105037600D01*
%TO.N,DIB1{slash}DIB3_MOSI*%
X125100000Y-109140000D02*
X125100000Y-110700000D01*
X125070000Y-109110000D02*
X125100000Y-109140000D01*
%TO.N,DIB2{slash}DIB5_MISO*%
X112870000Y-102750000D02*
X115460000Y-105340000D01*
X112870000Y-102420000D02*
X112870000Y-102750000D01*
X108807811Y-98294694D02*
X108807811Y-100656863D01*
X115460000Y-105340000D02*
X115710000Y-105340000D01*
X121900000Y-106030000D02*
X121900000Y-107620000D01*
X109028922Y-100877974D02*
X109028922Y-101246513D01*
X121920000Y-106010000D02*
X121900000Y-106030000D01*
X108786869Y-98273752D02*
X108807811Y-98294694D01*
X108807811Y-100656863D02*
X109028922Y-100877974D01*
%TO.N,DIB2{slash}DIB5_MOSI*%
X109033487Y-102333800D02*
X110771391Y-102333800D01*
X107823843Y-98570159D02*
X107823843Y-101124156D01*
X122700000Y-107968004D02*
X122466301Y-108201703D01*
X107823843Y-101124156D02*
X109033487Y-102333800D01*
X111349268Y-102911677D02*
X111814799Y-102911677D01*
X110771391Y-102333800D02*
X111349268Y-102911677D01*
X122466301Y-108201703D02*
X122466301Y-109304158D01*
X122700000Y-107620000D02*
X122700000Y-107968004D01*
%TO.N,DIB1{slash}DIB3_SCLK*%
X124300000Y-110202421D02*
X124458085Y-110044336D01*
X115089801Y-89923213D02*
X114925802Y-90087212D01*
X109605940Y-100825940D02*
X110663253Y-101883253D01*
X124300000Y-110700000D02*
X124300000Y-110202421D01*
X115100000Y-89923213D02*
X115089801Y-89923213D01*
X114925802Y-93549966D02*
X114245768Y-94230000D01*
X109310000Y-95343800D02*
X109310000Y-99915560D01*
X110663253Y-101883253D02*
X110954142Y-101883253D01*
X110680000Y-106903863D02*
X111166200Y-106417663D01*
X114925802Y-90087212D02*
X114925802Y-93549966D01*
X109087211Y-100138349D02*
X109087211Y-100541131D01*
X111073071Y-109634328D02*
X110680000Y-109241257D01*
X109372020Y-100825940D02*
X109605940Y-100825940D01*
X109310000Y-99915560D02*
X109087211Y-100138349D01*
X110680000Y-109241257D02*
X110680000Y-106903863D01*
X114245768Y-94230000D02*
X114110000Y-94230000D01*
X109166800Y-95200600D02*
X109310000Y-95343800D01*
X109087211Y-100541131D02*
X109372020Y-100825940D01*
%TO.N,/STM32H7 MCU/~{ACTIVE}*%
X106910000Y-101570848D02*
X107045952Y-101706800D01*
%TO.N,/Ethernet PHY\u002C PSRAM\u002C eMMC/+3V3_LAN*%
X100870000Y-103610000D02*
X100870000Y-102670000D01*
X100870000Y-106430000D02*
X100870000Y-105490000D01*
X100870000Y-102670000D02*
X100870000Y-102190000D01*
X100870000Y-102190000D02*
X101450000Y-101610000D01*
X100870000Y-104550000D02*
X100870000Y-103610000D01*
X100870000Y-105490000D02*
X100870000Y-104550000D01*
%TO.N,Net-(IC6-XTAL2)*%
X105070700Y-108505000D02*
X105070700Y-107310000D01*
X105151118Y-107390418D02*
X105070700Y-107310000D01*
X104675700Y-108900000D02*
X105070700Y-108505000D01*
X105531049Y-107390418D02*
X105151118Y-107390418D01*
%TO.N,Net-(IC6-XTAL1{slash}CLKIN)*%
X105971500Y-109595800D02*
X105971500Y-107819200D01*
X106875700Y-110500000D02*
X105971500Y-109595800D01*
X105971500Y-107819200D02*
X106480700Y-107310000D01*
D34*
%TO.N,Net-(IC5-VDDI)*%
X105108614Y-88067351D02*
X105110568Y-88069305D01*
X105108614Y-87630000D02*
X105108614Y-88067351D01*
X106030000Y-87630000D02*
X105108614Y-87630000D01*
D31*
%TO.N,/DVID converter\u002C NOR Flash/DVDD*%
X136600000Y-93830000D02*
X137076200Y-93830000D01*
X137076200Y-93830000D02*
X137080000Y-93833800D01*
D32*
%TO.N,DVID_CEC*%
X114610000Y-93062758D02*
X114610000Y-87530000D01*
X114512602Y-93160156D02*
X114610000Y-93062758D01*
D31*
%TO.N,/DVID converter\u002C NOR Flash/TVDD*%
X134020000Y-91800000D02*
X134670000Y-91800000D01*
D32*
%TO.N,DVID_HPD*%
X116360000Y-91940000D02*
X116250000Y-91830000D01*
X116250000Y-91830000D02*
X116250000Y-88320000D01*
X116350000Y-88220000D02*
X116400000Y-88220000D01*
X116250000Y-88320000D02*
X116350000Y-88220000D01*
D31*
%TO.N,REAR_DVID_HPD*%
X124700000Y-77230000D02*
X124700000Y-76780000D01*
X124930000Y-77460000D02*
X124700000Y-77230000D01*
%TO.N,TFT_DVID_HPD*%
X122700000Y-76780000D02*
X122700000Y-78740000D01*
%TD*%
%TA.AperFunction,Conductor*%
%TO.N,/STM32H7 MCU/VLXSMPS*%
G36*
X118570125Y-100219213D02*
G01*
X118606670Y-100269513D01*
X118611594Y-100300600D01*
X118611594Y-100343152D01*
X118637345Y-100439256D01*
X118637347Y-100439261D01*
X118687097Y-100525430D01*
X118757459Y-100595792D01*
X118843628Y-100645542D01*
X118843634Y-100645545D01*
X118925436Y-100667463D01*
X118977580Y-100701325D01*
X118999862Y-100759369D01*
X119000000Y-100764635D01*
X119000000Y-101111501D01*
X118986523Y-101161800D01*
X118981830Y-101169927D01*
X118981828Y-101169932D01*
X118957100Y-101262218D01*
X118957100Y-101357779D01*
X118981832Y-101450076D01*
X118986521Y-101458197D01*
X119000000Y-101508499D01*
X119000000Y-101745112D01*
X118980787Y-101804243D01*
X118970535Y-101816247D01*
X118969610Y-101817171D01*
X118921829Y-101899928D01*
X118921829Y-101899929D01*
X118897100Y-101992218D01*
X118897100Y-102087781D01*
X118921829Y-102180070D01*
X118921829Y-102180071D01*
X118927121Y-102189236D01*
X118969608Y-102262826D01*
X118969610Y-102262828D01*
X118970535Y-102263753D01*
X118970961Y-102264589D01*
X118973624Y-102268060D01*
X118972980Y-102268553D01*
X118998761Y-102319151D01*
X119000000Y-102334888D01*
X119000000Y-102636091D01*
X118998067Y-102655719D01*
X118984568Y-102723577D01*
X118969547Y-102759839D01*
X118936722Y-102808966D01*
X118908966Y-102836722D01*
X118859840Y-102869547D01*
X118823577Y-102884568D01*
X118800141Y-102889230D01*
X118738398Y-102881923D01*
X118730224Y-102877691D01*
X118720074Y-102871831D01*
X118720069Y-102871829D01*
X118720067Y-102871828D01*
X118627781Y-102847100D01*
X118627777Y-102847100D01*
X118532223Y-102847100D01*
X118532218Y-102847100D01*
X118439929Y-102871829D01*
X118439924Y-102871831D01*
X118414480Y-102886522D01*
X118364180Y-102900000D01*
X118163908Y-102900000D01*
X118144284Y-102898067D01*
X118112450Y-102891735D01*
X118076422Y-102884568D01*
X118040160Y-102869547D01*
X117991033Y-102836722D01*
X117963277Y-102808966D01*
X117930452Y-102759839D01*
X117915432Y-102723580D01*
X117914974Y-102721282D01*
X117911417Y-102703396D01*
X117912695Y-102664399D01*
X117912039Y-102664313D01*
X117912900Y-102657775D01*
X117912900Y-102562224D01*
X117912899Y-102562217D01*
X117903428Y-102526873D01*
X117900000Y-102500835D01*
X117900000Y-100463908D01*
X117901933Y-100444282D01*
X117915431Y-100376424D01*
X117930452Y-100340160D01*
X117956885Y-100300600D01*
X117963279Y-100291030D01*
X117991030Y-100263279D01*
X118040160Y-100230451D01*
X118076424Y-100215431D01*
X118144282Y-100201933D01*
X118163908Y-100200000D01*
X118510994Y-100200000D01*
X118570125Y-100219213D01*
G37*
%TD.AperFunction*%
%TD*%
%TA.AperFunction,Conductor*%
%TO.N,/CM5 socket/+5V_IN*%
G36*
X131426810Y-109801236D02*
G01*
X131521001Y-109816155D01*
X131550930Y-109825880D01*
X131628749Y-109865531D01*
X131654212Y-109884031D01*
X131659733Y-109889552D01*
X131687959Y-109944950D01*
X131689198Y-109960687D01*
X131689198Y-110044288D01*
X131690059Y-110050829D01*
X131687864Y-110051117D01*
X131685129Y-110103333D01*
X131684152Y-110105781D01*
X131670900Y-110137773D01*
X131670900Y-110237484D01*
X131657879Y-110280408D01*
X131659763Y-110281189D01*
X131655972Y-110290340D01*
X131647100Y-110334943D01*
X131647100Y-110963471D01*
X131639821Y-110985873D01*
X131636135Y-111009144D01*
X131630394Y-111014883D01*
X131627887Y-111022602D01*
X131592170Y-111053107D01*
X131550928Y-111074120D01*
X131520996Y-111083845D01*
X131444346Y-111095985D01*
X131426821Y-111098761D01*
X131411086Y-111100000D01*
X129788914Y-111100000D01*
X129773178Y-111098761D01*
X129752075Y-111095418D01*
X129679003Y-111083845D01*
X129649069Y-111074119D01*
X129571250Y-111034468D01*
X129545787Y-111015968D01*
X129484031Y-110954212D01*
X129465531Y-110928749D01*
X129425880Y-110850930D01*
X129416155Y-110821001D01*
X129401237Y-110726811D01*
X129400000Y-110711085D01*
X129400000Y-110188914D01*
X129401236Y-110173189D01*
X129416155Y-110078996D01*
X129425880Y-110049069D01*
X129428316Y-110044288D01*
X129465533Y-109971246D01*
X129484028Y-109945790D01*
X129545790Y-109884028D01*
X129571246Y-109865533D01*
X129649070Y-109825879D01*
X129678996Y-109816155D01*
X129773189Y-109801236D01*
X129788914Y-109800000D01*
X131411086Y-109800000D01*
X131426810Y-109801236D01*
G37*
%TD.AperFunction*%
%TD*%
M02*
