%TF.GenerationSoftware,KiCad,Pcbnew,9.0.6-9.0.6~ubuntu24.04.1*%
%TF.CreationDate,2025-11-03T09:04:57+01:00*%
%TF.ProjectId,BB3plus CM5 STM32H7 module,42423370-6c75-4732-9043-4d352053544d,rev?*%
%TF.SameCoordinates,Original*%
%TF.FileFunction,Soldermask,Bot*%
%TF.FilePolarity,Negative*%
%FSLAX46Y46*%
G04 Gerber Fmt 4.6, Leading zero omitted, Abs format (unit mm)*
G04 Created by KiCad (PCBNEW 9.0.6-9.0.6~ubuntu24.04.1) date 2025-11-03 09:04:57*
%MOMM*%
%LPD*%
G01*
G04 APERTURE LIST*
G04 Aperture macros list*
%AMRoundRect*
0 Rectangle with rounded corners*
0 $1 Rounding radius*
0 $2 $3 $4 $5 $6 $7 $8 $9 X,Y pos of 4 corners*
0 Add a 4 corners polygon primitive as box body*
4,1,4,$2,$3,$4,$5,$6,$7,$8,$9,$2,$3,0*
0 Add four circle primitives for the rounded corners*
1,1,$1+$1,$2,$3*
1,1,$1+$1,$4,$5*
1,1,$1+$1,$6,$7*
1,1,$1+$1,$8,$9*
0 Add four rect primitives between the rounded corners*
20,1,$1+$1,$2,$3,$4,$5,0*
20,1,$1+$1,$4,$5,$6,$7,0*
20,1,$1+$1,$6,$7,$8,$9,0*
20,1,$1+$1,$8,$9,$2,$3,0*%
G04 Aperture macros list end*
%ADD10C,2.387600*%
%ADD11C,0.990600*%
%ADD12C,6.100000*%
%ADD13R,0.200000X0.700000*%
%ADD14RoundRect,0.140000X-0.170000X0.140000X-0.170000X-0.140000X0.170000X-0.140000X0.170000X0.140000X0*%
%ADD15RoundRect,0.102000X-0.700000X0.600000X-0.700000X-0.600000X0.700000X-0.600000X0.700000X0.600000X0*%
%ADD16RoundRect,0.140000X0.170000X-0.140000X0.170000X0.140000X-0.170000X0.140000X-0.170000X-0.140000X0*%
%ADD17RoundRect,0.140000X0.140000X0.170000X-0.140000X0.170000X-0.140000X-0.170000X0.140000X-0.170000X0*%
%ADD18RoundRect,0.140000X-0.140000X-0.170000X0.140000X-0.170000X0.140000X0.170000X-0.140000X0.170000X0*%
%ADD19RoundRect,0.225000X0.225000X0.250000X-0.225000X0.250000X-0.225000X-0.250000X0.225000X-0.250000X0*%
%ADD20RoundRect,0.225000X0.250000X-0.225000X0.250000X0.225000X-0.250000X0.225000X-0.250000X-0.225000X0*%
%ADD21RoundRect,0.225000X-0.250000X0.225000X-0.250000X-0.225000X0.250000X-0.225000X0.250000X0.225000X0*%
%ADD22RoundRect,0.135000X0.135000X0.185000X-0.135000X0.185000X-0.135000X-0.185000X0.135000X-0.185000X0*%
%ADD23RoundRect,0.225000X-0.225000X-0.250000X0.225000X-0.250000X0.225000X0.250000X-0.225000X0.250000X0*%
%ADD24RoundRect,0.135000X0.185000X-0.135000X0.185000X0.135000X-0.185000X0.135000X-0.185000X-0.135000X0*%
%ADD25RoundRect,0.135000X-0.185000X0.135000X-0.185000X-0.135000X0.185000X-0.135000X0.185000X0.135000X0*%
%ADD26RoundRect,0.057252X0.506248X0.556248X-0.506248X0.556248X-0.506248X-0.556248X0.506248X-0.556248X0*%
%ADD27RoundRect,0.048381X-0.459619X-0.891419X0.459619X-0.891419X0.459619X0.891419X-0.459619X0.891419X0*%
%ADD28RoundRect,0.102000X-0.600000X-0.700000X0.600000X-0.700000X0.600000X0.700000X-0.600000X0.700000X0*%
%ADD29RoundRect,0.135000X-0.135000X-0.185000X0.135000X-0.185000X0.135000X0.185000X-0.135000X0.185000X0*%
%ADD30RoundRect,0.057252X-0.556248X0.506248X-0.556248X-0.506248X0.556248X-0.506248X0.556248X0.506248X0*%
G04 APERTURE END LIST*
D10*
%TO.C,X1*%
X103460000Y-80955000D03*
D11*
X106000000Y-80955000D03*
D10*
X108540000Y-80955000D03*
X103460000Y-77780000D03*
X108540000Y-77780000D03*
D11*
X104984000Y-75875000D03*
X107016000Y-75875000D03*
%TD*%
D12*
%TO.C,SoM1*%
X97600000Y-108700000D03*
X145600000Y-108700000D03*
X97600000Y-75700000D03*
X145600000Y-75700000D03*
D13*
X114300000Y-110700000D03*
X114300000Y-107620000D03*
X114700000Y-110700000D03*
X114700000Y-107620000D03*
X115100000Y-110700000D03*
X115100000Y-107620000D03*
X115500000Y-110700000D03*
X115500000Y-107620000D03*
X115900000Y-110700000D03*
X115900000Y-107620000D03*
X116300000Y-110700000D03*
X116300000Y-107620000D03*
X116700000Y-110700000D03*
X116700000Y-107620000D03*
X117100000Y-110700000D03*
X117100000Y-107620000D03*
X117500000Y-110700000D03*
X117500000Y-107620000D03*
X117900000Y-110700000D03*
X117900000Y-107620000D03*
X118300000Y-110700000D03*
X118300000Y-107620000D03*
X118700000Y-110700000D03*
X118700000Y-107620000D03*
X119100000Y-110700000D03*
X119100000Y-107620000D03*
X119500000Y-110700000D03*
X119500000Y-107620000D03*
X119900000Y-110700000D03*
X119900000Y-107620000D03*
X120300000Y-110700000D03*
X120300000Y-107620000D03*
X120700000Y-110700000D03*
X120700000Y-107620000D03*
X121100000Y-110700000D03*
X121100000Y-107620000D03*
X121500000Y-110700000D03*
X121500000Y-107620000D03*
X121900000Y-110700000D03*
X121900000Y-107620000D03*
X122300000Y-110700000D03*
X122300000Y-107620000D03*
X122700000Y-110700000D03*
X122700000Y-107620000D03*
X123100000Y-110700000D03*
X123100000Y-107620000D03*
X123500000Y-110700000D03*
X123500000Y-107620000D03*
X123900000Y-110700000D03*
X123900000Y-107620000D03*
X124300000Y-110700000D03*
X124300000Y-107620000D03*
X124700000Y-110700000D03*
X124700000Y-107620000D03*
X125100000Y-110700000D03*
X125100000Y-107620000D03*
X125500000Y-110700000D03*
X125500000Y-107620000D03*
X125900000Y-110700000D03*
X125900000Y-107620000D03*
X126300000Y-110700000D03*
X126300000Y-107620000D03*
X126700000Y-110700000D03*
X126700000Y-107620000D03*
X127100000Y-110700000D03*
X127100000Y-107620000D03*
X127500000Y-110700000D03*
X127500000Y-107620000D03*
X127900000Y-110700000D03*
X127900000Y-107620000D03*
X128300000Y-110700000D03*
X128300000Y-107620000D03*
X128700000Y-110700000D03*
X128700000Y-107620000D03*
X129100000Y-110700000D03*
X129100000Y-107620000D03*
X129500000Y-110700000D03*
X129500000Y-107620000D03*
X129900000Y-110700000D03*
X129900000Y-107620000D03*
X130300000Y-110700000D03*
X130300000Y-107620000D03*
X130700000Y-110700000D03*
X130700000Y-107620000D03*
X131100000Y-110700000D03*
X131100000Y-107620000D03*
X131500000Y-110700000D03*
X131500000Y-107620000D03*
X131900000Y-110700000D03*
X131900000Y-107620000D03*
X132300000Y-110700000D03*
X132300000Y-107620000D03*
X132700000Y-110700000D03*
X132700000Y-107620000D03*
X133100000Y-110700000D03*
X133100000Y-107620000D03*
X133500000Y-110700000D03*
X133500000Y-107620000D03*
X133900000Y-110700000D03*
X133900000Y-107620000D03*
X114300000Y-76780000D03*
X114300000Y-73700000D03*
X114700000Y-76780000D03*
X114700000Y-73700000D03*
X115100000Y-76780000D03*
X115100000Y-73700000D03*
X115500000Y-76780000D03*
X115500000Y-73700000D03*
X115900000Y-76780000D03*
X115900000Y-73700000D03*
X116300000Y-76780000D03*
X116300000Y-73700000D03*
X116700000Y-76780000D03*
X116700000Y-73700000D03*
X117100000Y-76780000D03*
X117100000Y-73700000D03*
X117500000Y-76780000D03*
X117500000Y-73700000D03*
X117900000Y-76780000D03*
X117900000Y-73700000D03*
X118300000Y-76780000D03*
X118300000Y-73700000D03*
X118700000Y-76780000D03*
X118700000Y-73700000D03*
X119100000Y-76780000D03*
X119100000Y-73700000D03*
X119500000Y-76780000D03*
X119500000Y-73700000D03*
X119900000Y-76780000D03*
X119900000Y-73700000D03*
X120300000Y-76780000D03*
X120300000Y-73700000D03*
X120700000Y-76780000D03*
X120700000Y-73700000D03*
X121100000Y-76780000D03*
X121100000Y-73700000D03*
X121500000Y-76780000D03*
X121500000Y-73700000D03*
X121900000Y-76780000D03*
X121900000Y-73700000D03*
X122300000Y-76780000D03*
X122300000Y-73700000D03*
X122700000Y-76780000D03*
X122700000Y-73700000D03*
X123100000Y-76780000D03*
X123100000Y-73700000D03*
X123500000Y-76780000D03*
X123500000Y-73700000D03*
X123900000Y-76780000D03*
X123900000Y-73700000D03*
X124300000Y-76780000D03*
X124300000Y-73700000D03*
X124700000Y-76780000D03*
X124700000Y-73700000D03*
X125100000Y-76780000D03*
X125100000Y-73700000D03*
X125500000Y-76780000D03*
X125500000Y-73700000D03*
X125900000Y-76780000D03*
X125900000Y-73700000D03*
X126300000Y-76780000D03*
X126300000Y-73700000D03*
X126700000Y-76780000D03*
X126700000Y-73700000D03*
X127100000Y-76780000D03*
X127100000Y-73700000D03*
X127500000Y-76780000D03*
X127500000Y-73700000D03*
X127900000Y-76780000D03*
X127900000Y-73700000D03*
X128300000Y-76780000D03*
X128300000Y-73700000D03*
X128700000Y-76780000D03*
X128700000Y-73700000D03*
X129100000Y-76780000D03*
X129100000Y-73700000D03*
X129500000Y-76780000D03*
X129500000Y-73700000D03*
X129900000Y-76780000D03*
X129900000Y-73700000D03*
X130300000Y-76780000D03*
X130300000Y-73700000D03*
X130700000Y-76780000D03*
X130700000Y-73700000D03*
X131100000Y-76780000D03*
X131100000Y-73700000D03*
X131500000Y-76780000D03*
X131500000Y-73700000D03*
X131900000Y-76780000D03*
X131900000Y-73700000D03*
X132300000Y-76780000D03*
X132300000Y-73700000D03*
X132700000Y-76780000D03*
X132700000Y-73700000D03*
X133100000Y-76780000D03*
X133100000Y-73700000D03*
X133500000Y-76780000D03*
X133500000Y-73700000D03*
X133900000Y-76780000D03*
X133900000Y-73700000D03*
%TD*%
D14*
%TO.C,C26*%
X120620002Y-92783012D03*
X120620002Y-93743012D03*
%TD*%
D15*
%TO.C,Y2*%
X104675700Y-108900000D03*
X106875700Y-108900000D03*
X106875700Y-110500000D03*
X104675700Y-110500000D03*
%TD*%
D16*
%TO.C,C48*%
X105108614Y-87630000D03*
X105108614Y-86670000D03*
%TD*%
D17*
%TO.C,C43*%
X100909433Y-91580819D03*
X99949433Y-91580819D03*
%TD*%
%TO.C,C22*%
X118300000Y-100513012D03*
X117340000Y-100513012D03*
%TD*%
D18*
%TO.C,C71*%
X117030000Y-79830000D03*
X117990000Y-79830000D03*
%TD*%
D17*
%TO.C,C46*%
X100909433Y-92500819D03*
X99949433Y-92500819D03*
%TD*%
D18*
%TO.C,C12*%
X121510002Y-93343012D03*
X122470002Y-93343012D03*
%TD*%
D19*
%TO.C,C42*%
X108030700Y-107310000D03*
X106480700Y-107310000D03*
%TD*%
D20*
%TO.C,C10*%
X119830002Y-102863012D03*
X119830002Y-101313012D03*
%TD*%
D19*
%TO.C,C13*%
X119915002Y-99323012D03*
X118365002Y-99323012D03*
%TD*%
D18*
%TO.C,C35*%
X123600000Y-94260000D03*
X124560000Y-94260000D03*
%TD*%
D21*
%TO.C,C59*%
X129780000Y-100365000D03*
X129780000Y-101915000D03*
%TD*%
D22*
%TO.C,R14*%
X135440000Y-99070000D03*
X134420000Y-99070000D03*
%TD*%
D14*
%TO.C,C58*%
X130970000Y-100090000D03*
X130970000Y-101050000D03*
%TD*%
D23*
%TO.C,C41*%
X103520700Y-107310000D03*
X105070700Y-107310000D03*
%TD*%
D20*
%TO.C,C7*%
X112180000Y-93575000D03*
X112180000Y-92025000D03*
%TD*%
D16*
%TO.C,C34*%
X121540002Y-92453012D03*
X121540002Y-91493012D03*
%TD*%
%TO.C,C33*%
X119120002Y-90833012D03*
X119120002Y-89873012D03*
%TD*%
D14*
%TO.C,C14*%
X121390000Y-95340000D03*
X121390000Y-96300000D03*
%TD*%
D16*
%TO.C,C16*%
X120470000Y-96300000D03*
X120470000Y-95340000D03*
%TD*%
D14*
%TO.C,C24*%
X120710000Y-97160000D03*
X120710000Y-98120000D03*
%TD*%
D24*
%TO.C,R4*%
X117830002Y-98173012D03*
X117830002Y-97153012D03*
%TD*%
D16*
%TO.C,C25*%
X119550000Y-96300000D03*
X119550000Y-95340000D03*
%TD*%
%TO.C,C45*%
X106030000Y-87630000D03*
X106030000Y-86670000D03*
%TD*%
%TO.C,C56*%
X132850000Y-96315000D03*
X132850000Y-95355000D03*
%TD*%
D20*
%TO.C,C57*%
X131660000Y-96050000D03*
X131660000Y-94500000D03*
%TD*%
D16*
%TO.C,C36*%
X120620002Y-90843012D03*
X120620002Y-89883012D03*
%TD*%
D22*
%TO.C,R18*%
X101890000Y-105490000D03*
X100870000Y-105490000D03*
%TD*%
D17*
%TO.C,C8*%
X117740000Y-95550000D03*
X116780000Y-95550000D03*
%TD*%
D25*
%TO.C,R5*%
X122550000Y-97140000D03*
X122550000Y-98160000D03*
%TD*%
D23*
%TO.C,C72*%
X117300000Y-81030000D03*
X118850000Y-81030000D03*
%TD*%
D14*
%TO.C,C23*%
X118760002Y-97163012D03*
X118760002Y-98123012D03*
%TD*%
D19*
%TO.C,C70*%
X112125000Y-83030000D03*
X110575000Y-83030000D03*
%TD*%
D26*
%TO.C,FB5*%
X134020000Y-91800000D03*
X132320000Y-91800000D03*
%TD*%
D14*
%TO.C,C38*%
X119700002Y-92783012D03*
X119700002Y-93743012D03*
%TD*%
D27*
%TO.C,L1*%
X116347202Y-101983012D03*
X118430002Y-101983012D03*
%TD*%
D17*
%TO.C,C17*%
X120650002Y-91893012D03*
X119690002Y-91893012D03*
%TD*%
D16*
%TO.C,C21*%
X115440002Y-93743012D03*
X115440002Y-92783012D03*
%TD*%
D14*
%TO.C,C15*%
X116830000Y-92780000D03*
X116830000Y-93740000D03*
%TD*%
D16*
%TO.C,C28*%
X115440002Y-96303012D03*
X115440002Y-95343012D03*
%TD*%
D28*
%TO.C,Y1*%
X125250002Y-101143012D03*
X125250002Y-98943012D03*
X126850002Y-98943012D03*
X126850002Y-101143012D03*
%TD*%
D20*
%TO.C,C3*%
X123660002Y-102308012D03*
X123660002Y-100758012D03*
%TD*%
D17*
%TO.C,C69*%
X111720000Y-81700000D03*
X110760000Y-81700000D03*
%TD*%
D18*
%TO.C,C19*%
X121510002Y-94263012D03*
X122470002Y-94263012D03*
%TD*%
%TO.C,C32*%
X123600000Y-95180000D03*
X124560000Y-95180000D03*
%TD*%
D14*
%TO.C,C20*%
X117750000Y-92780000D03*
X117750000Y-93740000D03*
%TD*%
D17*
%TO.C,C44*%
X98909433Y-87660819D03*
X97949433Y-87660819D03*
%TD*%
D14*
%TO.C,C73*%
X116300000Y-83610000D03*
X116300000Y-84570000D03*
%TD*%
D29*
%TO.C,R17*%
X100870000Y-106430000D03*
X101890000Y-106430000D03*
%TD*%
%TO.C,R16*%
X100870000Y-103610000D03*
X101890000Y-103610000D03*
%TD*%
%TO.C,R15*%
X100870000Y-104550000D03*
X101890000Y-104550000D03*
%TD*%
D17*
%TO.C,C47*%
X98909433Y-88580819D03*
X97949433Y-88580819D03*
%TD*%
D14*
%TO.C,C27*%
X116900002Y-97163012D03*
X116900002Y-98123012D03*
%TD*%
D30*
%TO.C,FB1*%
X121470002Y-101158012D03*
X121470002Y-102858012D03*
%TD*%
D17*
%TO.C,C11*%
X117740000Y-94630000D03*
X116780000Y-94630000D03*
%TD*%
D20*
%TO.C,C40*%
X120800000Y-88175000D03*
X120800000Y-86625000D03*
%TD*%
%TO.C,C39*%
X122700000Y-88175000D03*
X122700000Y-86625000D03*
%TD*%
D14*
%TO.C,C30*%
X121620000Y-97160000D03*
X121620000Y-98120000D03*
%TD*%
D17*
%TO.C,C65*%
X136600000Y-93830000D03*
X135640000Y-93830000D03*
%TD*%
%TO.C,C55*%
X101830000Y-102670000D03*
X100870000Y-102670000D03*
%TD*%
D21*
%TO.C,C4*%
X123660002Y-97788012D03*
X123660002Y-99338012D03*
%TD*%
D16*
%TO.C,C18*%
X118630000Y-96300000D03*
X118630000Y-95340000D03*
%TD*%
D14*
%TO.C,C31*%
X114050000Y-101730000D03*
X114050000Y-102690000D03*
%TD*%
D22*
%TO.C,R23*%
X111740000Y-80740000D03*
X110720000Y-80740000D03*
%TD*%
D16*
%TO.C,C37*%
X122460002Y-92453012D03*
X122460002Y-91493012D03*
%TD*%
D14*
%TO.C,C9*%
X118780002Y-92783012D03*
X118780002Y-93743012D03*
%TD*%
%TO.C,C29*%
X119680002Y-97163012D03*
X119680002Y-98123012D03*
%TD*%
D21*
%TO.C,C74*%
X117490000Y-83885000D03*
X117490000Y-85435000D03*
%TD*%
M02*
