M48
; DRILL file {KiCad 9.0.6-9.0.6~ubuntu24.04.1} date 2025-11-03T09:05:00+0100
; FORMAT={-:-/ absolute / inch / decimal}
; #@! TF.CreationDate,2025-11-03T09:05:00+01:00
; #@! TF.GenerationSoftware,Kicad,Pcbnew,9.0.6-9.0.6~ubuntu24.04.1
; #@! TF.FileFunction,Plated,1,3,Blind
FMAT,2
INCH
; #@! TA.AperFunction,Plated,Buried,ViaDrill
T1C0.0079
; #@! TA.AperFunction,Plated,Buried,ViaDrill
T2C0.0118
%
G90
G05
T1
X3.9701Y-3.5461
X3.9744Y-3.5244
X3.989Y-3.4315
X4.113Y-3.9012
X4.1354Y-3.8433
X4.137Y-4.3217
X4.1561Y-3.5485
X4.1579Y-3.5281
X4.1594Y-3.465
X4.1701Y-3.8244
X4.1952Y-3.4781
X4.2038Y-3.5396
X4.2061Y-3.518
X4.2314Y-3.9553
X4.2559Y-4.1122
X4.2685Y-4.2955
X4.2824Y-3.8907
X4.3139Y-3.8737
X4.3307Y-3.8562
X4.3486Y-4.3173
X4.3835Y-3.8071
X4.4043Y-3.9
X4.4331Y-3.4366
X4.4476Y-4.3177
X4.4685Y-3.5913
X4.472Y-4.3247
X4.485Y-3.8413
X4.4983Y-3.6309
X4.5079Y-3.5399
X4.508Y-3.4842
X4.5166Y-3.8088
X4.5166Y-3.619
X4.5192Y-3.775
X4.5295Y-3.8593
X4.5464Y-3.6183
X4.548Y-3.5833
X4.5603Y-3.5035
X4.5704Y-3.5376
X4.5809Y-3.9326
X4.5886Y-3.7673
X4.5897Y-3.5044
X4.5925Y-3.6717
X4.5932Y-3.5417
X4.598Y-4.0583
X4.6013Y-3.5812
X4.6088Y-3.8066
X4.6131Y-3.5558
X4.615Y-4.2001
X4.6236Y-4.3142
X4.6381Y-3.9192
X4.6404Y-3.6126
X4.6429Y-3.9651
X4.6467Y-3.8273
X4.6667Y-3.6352
X4.6728Y-3.9878
X4.688Y-3.9704
X4.6898Y-3.8126
X4.7169Y-4.2031
X4.7213Y-3.917
X4.7442Y-3.9701
X4.7677Y-3.9009
X4.7759Y-3.8212
X4.784Y-3.8585
X4.804Y-3.8903
X4.8047Y-3.8437
X4.8072Y-3.9141
X4.8157Y-3.606
X4.8162Y-3.9373
X4.8221Y-3.6268
X4.8244Y-3.5368
X4.8295Y-3.8079
X4.8296Y-3.5856
X4.8315Y-3.9767
X4.8417Y-3.1787
X4.8489Y-3.8521
X4.849Y-3.8756
X4.8496Y-3.4948
X4.8504Y-3.5984
X4.8504Y-4.0657
X4.8508Y-3.9274
X4.8509Y-3.6901
X4.8539Y-3.7598
X4.8551Y-3.9539
X4.8553Y-3.5321
X4.8563Y-3.6424
X4.8563Y-3.7923
X4.8717Y-3.8838
X4.8728Y-3.597
X4.8732Y-3.8492
X4.8785Y-4.1041
X4.88Y-3.3817
X4.8807Y-3.6419
X4.8819Y-3.7307
X4.887Y-3.7923
X4.8874Y-3.9625
X4.8887Y-3.9278
X4.8942Y-3.5875
X4.9046Y-3.7371
X4.9134Y-4.2738
X4.9199Y-4.0718
X4.9274Y-3.6496
X4.9328Y-3.5129
X4.9365Y-4.1854
X4.9395Y-3.5823
X4.9449Y-3.8394
X4.9474Y-4.145
X4.9483Y-3.659
X4.9531Y-3.5232
X4.9616Y-4.0803
X4.9681Y-3.5421
X4.9818Y-3.7066
X4.984Y-3.8358
X4.9846Y-3.7433
X4.9848Y-3.4942
X4.9953Y-3.7625
X4.9983Y-3.5893
X5.002Y-3.9161
X5.0138Y-3.474
X5.0192Y-3.852
X5.0193Y-3.5311
X5.0334Y-3.8948
X5.035Y-3.8705
X5.1079Y-3.9051
X5.1146Y-4.1138
X5.1174Y-3.3115
X5.1346Y-3.2733
X5.1456Y-4.0946
X5.154Y-3.3065
X5.1583Y-3.8626
X5.1681Y-3.8906
X5.1689Y-4.0961
X5.1863Y-3.7698
X5.1921Y-3.1807
X5.2114Y-3.209
X5.2118Y-3.2295
X5.2118Y-3.2501
X5.214Y-3.8096
X5.2181Y-3.9362
X5.2336Y-3.7736
X5.2616Y-3.7701
X5.2685Y-3.8858
X5.2815Y-3.9681
X5.2957Y-3.8571
X5.2972Y-3.9469
X5.302Y-3.911
X5.3047Y-3.9805
X5.3091Y-3.7961
X5.3193Y-3.8409
X5.3425Y-3.9858
X5.3453Y-3.9535
X5.3811Y-3.7917
X5.3854Y-3.7524
X5.4012Y-3.7721
X5.6402Y-3.5858
X5.6664Y-3.5063
X5.6744Y-3.466
X5.676Y-3.613
X5.6906Y-3.4055
X5.6969Y-3.4453
X5.6988Y-3.4843
X5.7128Y-3.5327
X5.7307Y-3.4386
X5.7365Y-3.6012
X5.7492Y-3.3839
T2
X4.2546Y-4.3422
X4.2553Y-4.3167
X4.2685Y-4.1764
X4.2804Y-4.0823
X4.3914Y-4.0015
X5.4645Y-3.8768
X5.4645Y-3.9004
X5.4881Y-3.8768
X5.4881Y-3.9004
X5.5117Y-3.8768
X5.5117Y-3.9004
M30
