M48
; DRILL file {KiCad 9.0.6-9.0.6~ubuntu24.04.1} date 2025-11-03T09:05:00+0100
; FORMAT={-:-/ absolute / inch / decimal}
; #@! TF.CreationDate,2025-11-03T09:05:00+01:00
; #@! TF.GenerationSoftware,Kicad,Pcbnew,9.0.6-9.0.6~ubuntu24.04.1
; #@! TF.FileFunction,Plated,4,6,Blind
FMAT,2
INCH
; #@! TA.AperFunction,Plated,Buried,ViaDrill
T1C0.0079
; #@! TA.AperFunction,Plated,Buried,ViaDrill
T2C0.0118
%
G90
G05
T1
X4.4075Y-3.2445
X4.4157Y-3.7067
X4.6004Y-4.0008
X4.6004Y-4.0177
X4.6004Y-4.0346
X4.6031Y-3.3028
X4.6181Y-3.1673
X4.639Y-3.8098
X4.6976Y-3.9886
X4.7597Y-3.9878
X4.7724Y-4.0752
X4.7795Y-3.4713
X4.7917Y-4.0752
X4.8248Y-3.8646
X4.8551Y-3.4713
T2
X3.9102Y-3.4516
X5.1457Y-4.2638
X5.1563Y-4.2075
X5.1846Y-4.2642
X5.1854Y-4.213
X5.2354Y-3.6146
X5.302Y-3.6142
M30
