M48
; DRILL file {KiCad 9.0.6-9.0.6~ubuntu24.04.1} date 2025-11-03T09:05:00+0100
; FORMAT={-:-/ absolute / inch / decimal}
; #@! TF.CreationDate,2025-11-03T09:05:00+01:00
; #@! TF.GenerationSoftware,Kicad,Pcbnew,9.0.6-9.0.6~ubuntu24.04.1
; #@! TF.FileFunction,Plated,1,4,Blind
FMAT,2
INCH
; #@! TA.AperFunction,Plated,Buried,ViaDrill
T1C0.0079
; #@! TA.AperFunction,Plated,Buried,ViaDrill
T2C0.0118
%
G90
G05
T1
X4.3415Y-3.8069
X4.6127Y-3.6848
X4.7961Y-3.2346
T2
X3.8197Y-3.2815
X3.8413Y-3.2815
X3.8555Y-3.187
X3.9539Y-3.8437
X3.9646Y-3.2677
X3.9882Y-3.2248
X3.9882Y-3.2465
X3.9882Y-3.2673
X4.0677Y-3.9925
X4.2185Y-3.148
X4.2528Y-4.1382
X4.2559Y-3.9929
X4.3285Y-4.173
X4.3312Y-4.0585
X4.4075Y-4.2602
X5.2669Y-3.211
X5.2732Y-3.5638
X5.2929Y-3.4432
X5.3372Y-3.1245
X5.3931Y-3.1245
X5.4281Y-3.1663
X5.4821Y-3.203
X5.5089Y-4.1008
X5.5089Y-4.1268
X5.5189Y-3.1358
X5.5336Y-4.1008
X5.5336Y-4.1268
X5.5551Y-3.1366
X5.5583Y-4.1008
X5.5583Y-4.1268
X5.583Y-4.1008
X5.583Y-4.1268
X5.6059Y-3.1748
X5.6606Y-3.1472
X5.7193Y-3.2031
M30
