%TF.GenerationSoftware,KiCad,Pcbnew,9.0.6-9.0.6~ubuntu24.04.1*%
%TF.CreationDate,2025-12-22T17:11:44+01:00*%
%TF.ProjectId,BB3plus CM5 STM32H7 module,42423370-6c75-4732-9043-4d352053544d,r1B2*%
%TF.SameCoordinates,Original*%
%TF.FileFunction,Soldermask,Top*%
%TF.FilePolarity,Negative*%
%FSLAX46Y46*%
G04 Gerber Fmt 4.6, Leading zero omitted, Abs format (unit mm)*
G04 Created by KiCad (PCBNEW 9.0.6-9.0.6~ubuntu24.04.1) date 2025-12-22 17:11:44*
%MOMM*%
%LPD*%
G01*
G04 APERTURE LIST*
G04 Aperture macros list*
%AMRoundRect*
0 Rectangle with rounded corners*
0 $1 Rounding radius*
0 $2 $3 $4 $5 $6 $7 $8 $9 X,Y pos of 4 corners*
0 Add a 4 corners polygon primitive as box body*
4,1,4,$2,$3,$4,$5,$6,$7,$8,$9,$2,$3,0*
0 Add four circle primitives for the rounded corners*
1,1,$1+$1,$2,$3*
1,1,$1+$1,$4,$5*
1,1,$1+$1,$6,$7*
1,1,$1+$1,$8,$9*
0 Add four rect primitives between the rounded corners*
20,1,$1+$1,$2,$3,$4,$5,0*
20,1,$1+$1,$4,$5,$6,$7,0*
20,1,$1+$1,$6,$7,$8,$9,0*
20,1,$1+$1,$8,$9,$2,$3,0*%
G04 Aperture macros list end*
%ADD10C,0.000000*%
%ADD11RoundRect,0.135000X0.135000X0.185000X-0.135000X0.185000X-0.135000X-0.185000X0.135000X-0.185000X0*%
%ADD12RoundRect,0.225000X-0.225000X-0.250000X0.225000X-0.250000X0.225000X0.250000X-0.225000X0.250000X0*%
%ADD13RoundRect,0.057252X0.556248X-0.506248X0.556248X0.506248X-0.556248X0.506248X-0.556248X-0.506248X0*%
%ADD14RoundRect,0.135000X-0.135000X-0.185000X0.135000X-0.185000X0.135000X0.185000X-0.135000X0.185000X0*%
%ADD15RoundRect,0.140000X-0.140000X-0.170000X0.140000X-0.170000X0.140000X0.170000X-0.140000X0.170000X0*%
%ADD16RoundRect,0.135000X-0.185000X0.135000X-0.185000X-0.135000X0.185000X-0.135000X0.185000X0.135000X0*%
%ADD17RoundRect,0.140000X0.170000X-0.140000X0.170000X0.140000X-0.170000X0.140000X-0.170000X-0.140000X0*%
%ADD18RoundRect,0.140000X0.140000X0.170000X-0.140000X0.170000X-0.140000X-0.170000X0.140000X-0.170000X0*%
%ADD19C,1.500000*%
%ADD20C,0.355600*%
%ADD21RoundRect,0.225000X0.250000X-0.225000X0.250000X0.225000X-0.250000X0.225000X-0.250000X-0.225000X0*%
%ADD22R,0.228600X1.143000*%
%ADD23R,1.143000X0.228600*%
%ADD24R,5.000000X5.000000*%
%ADD25RoundRect,0.225000X-0.250000X0.225000X-0.250000X-0.225000X0.250000X-0.225000X0.250000X0.225000X0*%
%ADD26R,0.300000X0.850000*%
%ADD27R,0.850000X0.300000*%
%ADD28RoundRect,0.135000X0.185000X-0.135000X0.185000X0.135000X-0.185000X0.135000X-0.185000X-0.135000X0*%
%ADD29C,0.228600*%
%ADD30RoundRect,0.225000X0.225000X0.250000X-0.225000X0.250000X-0.225000X-0.250000X0.225000X-0.250000X0*%
%ADD31RoundRect,0.057573X-0.971127X-0.590127X0.971127X-0.590127X0.971127X0.590127X-0.971127X0.590127X0*%
%ADD32RoundRect,0.053238X-1.610462X-2.562962X1.610462X-2.562962X1.610462X2.562962X-1.610462X2.562962X0*%
%ADD33RoundRect,0.140000X-0.170000X0.140000X-0.170000X-0.140000X0.170000X-0.140000X0.170000X0.140000X0*%
%ADD34R,0.449999X0.299999*%
%ADD35R,1.000000X1.599999*%
%ADD36RoundRect,0.063703X0.249797X0.499797X-0.249797X0.499797X-0.249797X-0.499797X0.249797X-0.499797X0*%
%ADD37C,2.387600*%
%ADD38C,0.990600*%
%ADD39RoundRect,0.457200X0.000010X-0.000010X0.000010X0.000010X-0.000010X0.000010X-0.000010X-0.000010X0*%
%ADD40RoundRect,0.062345X-0.737755X-0.280555X0.737755X-0.280555X0.737755X0.280555X-0.737755X0.280555X0*%
%ADD41RoundRect,0.057252X-0.506248X-0.556248X0.506248X-0.556248X0.506248X0.556248X-0.506248X0.556248X0*%
%ADD42RoundRect,0.076200X-0.114300X-0.419100X0.114300X-0.419100X0.114300X0.419100X-0.114300X0.419100X0*%
%ADD43RoundRect,0.076200X-0.419100X0.114300X-0.419100X-0.114300X0.419100X-0.114300X0.419100X0.114300X0*%
%ADD44RoundRect,0.053290X1.305610X-1.305610X1.305610X1.305610X-1.305610X1.305610X-1.305610X-1.305610X0*%
%ADD45C,6.100000*%
G04 APERTURE END LIST*
D10*
%TO.C,IC9*%
G36*
X131248500Y-81186300D02*
G01*
X123571500Y-81186300D01*
X123571500Y-80691500D01*
X131248500Y-80691500D01*
X131248500Y-81186300D01*
G37*
G36*
X131248500Y-81973700D02*
G01*
X123571500Y-81973700D01*
X123571500Y-81586300D01*
X131248500Y-81586300D01*
X131248500Y-81973700D01*
G37*
G36*
X124060400Y-82868500D02*
G01*
X123571500Y-82868500D01*
X123571500Y-80691500D01*
X124060400Y-80691500D01*
X124060400Y-82868500D01*
G37*
G36*
X131248500Y-82868500D02*
G01*
X123571500Y-82868500D01*
X123571500Y-82373700D01*
X131248500Y-82373700D01*
X131248500Y-82868500D01*
G37*
G36*
X124847800Y-82868500D02*
G01*
X124460400Y-82868500D01*
X124460400Y-80691500D01*
X124847800Y-80691500D01*
X124847800Y-82868500D01*
G37*
G36*
X125635200Y-82868500D02*
G01*
X125247800Y-82868500D01*
X125247800Y-80691500D01*
X125635200Y-80691500D01*
X125635200Y-82868500D01*
G37*
G36*
X126422600Y-82868500D02*
G01*
X126035200Y-82868500D01*
X126035200Y-80691500D01*
X126422600Y-80691500D01*
X126422600Y-82868500D01*
G37*
G36*
X127210000Y-82868500D02*
G01*
X126822600Y-82868500D01*
X126822600Y-80691500D01*
X127210000Y-80691500D01*
X127210000Y-82868500D01*
G37*
G36*
X127997400Y-82868500D02*
G01*
X127610000Y-82868500D01*
X127610000Y-80691500D01*
X127997400Y-80691500D01*
X127997400Y-82868500D01*
G37*
G36*
X128784800Y-82868500D02*
G01*
X128397400Y-82868500D01*
X128397400Y-80691500D01*
X128784800Y-80691500D01*
X128784800Y-82868500D01*
G37*
G36*
X129572200Y-82868500D02*
G01*
X129184800Y-82868500D01*
X129184800Y-80691500D01*
X129572200Y-80691500D01*
X129572200Y-82868500D01*
G37*
G36*
X130359600Y-82868500D02*
G01*
X129972200Y-82868500D01*
X129972200Y-80691500D01*
X130359600Y-80691500D01*
X130359600Y-82868500D01*
G37*
G36*
X131248500Y-82868500D02*
G01*
X130759600Y-82868500D01*
X130759600Y-80691500D01*
X131248500Y-80691500D01*
X131248500Y-82868500D01*
G37*
%TD*%
D11*
%TO.C,R2*%
X111700000Y-96890000D03*
X110680000Y-96890000D03*
%TD*%
D12*
%TO.C,C55*%
X100445000Y-98320000D03*
X101995000Y-98320000D03*
%TD*%
D13*
%TO.C,FB4*%
X133840000Y-80930000D03*
X133840000Y-79230000D03*
%TD*%
D14*
%TO.C,R23*%
X121750000Y-102010000D03*
X122770000Y-102010000D03*
%TD*%
D11*
%TO.C,R19*%
X134000000Y-85850000D03*
X132980000Y-85850000D03*
%TD*%
D15*
%TO.C,C7*%
X119940000Y-102020000D03*
X120900000Y-102020000D03*
%TD*%
D16*
%TO.C,R4*%
X108010000Y-100000000D03*
X108010000Y-101020000D03*
%TD*%
D17*
%TO.C,C6*%
X100600000Y-82000000D03*
X100600000Y-81040000D03*
%TD*%
D18*
%TO.C,C63*%
X134265300Y-87416801D03*
X133305300Y-87416801D03*
%TD*%
D19*
%TO.C,FM1*%
X101500000Y-73500000D03*
%TD*%
D20*
%TO.C,IC7*%
X135849994Y-98095000D03*
X135849994Y-99095000D03*
X135849994Y-100095000D03*
X135849994Y-101095000D03*
X134849996Y-97095000D03*
X134849996Y-98095000D03*
X134849996Y-99095000D03*
X134849996Y-100095000D03*
X134849996Y-101095000D03*
X133849998Y-97095000D03*
X133849998Y-98095000D03*
X133849998Y-99095000D03*
X133849998Y-100095000D03*
X133849998Y-101095000D03*
X132850000Y-97095000D03*
X132850000Y-98095000D03*
X132850000Y-99095000D03*
X132850000Y-100095000D03*
X132850000Y-101095000D03*
X131850002Y-97095000D03*
X131850002Y-98095000D03*
X131850002Y-99095000D03*
X131850002Y-100095000D03*
X131850002Y-101095000D03*
%TD*%
D21*
%TO.C,C1*%
X139340000Y-100110000D03*
X139340000Y-98560000D03*
%TD*%
D22*
%TO.C,IC8*%
X144840000Y-82493100D03*
X144340001Y-82493100D03*
X143840000Y-82493100D03*
X143340001Y-82493100D03*
X142839999Y-82493100D03*
X142340000Y-82493100D03*
X141840001Y-82493100D03*
X141340000Y-82493100D03*
X140840000Y-82493100D03*
X140339999Y-82493100D03*
X139840000Y-82493100D03*
X139340001Y-82493100D03*
X138839999Y-82493100D03*
X138340000Y-82493100D03*
X137839999Y-82493100D03*
X137340000Y-82493100D03*
D23*
X135413100Y-84420000D03*
X135413100Y-84919999D03*
X135413100Y-85420000D03*
X135413100Y-85919999D03*
X135413100Y-86420001D03*
X135413100Y-86920000D03*
X135413100Y-87419999D03*
X135413100Y-87920000D03*
X135413100Y-88420000D03*
X135413100Y-88920001D03*
X135413100Y-89420000D03*
X135413100Y-89919999D03*
X135413100Y-90420001D03*
X135413100Y-90920000D03*
X135413100Y-91420001D03*
X135413100Y-91920000D03*
D22*
X137340000Y-93846900D03*
X137839999Y-93846900D03*
X138340000Y-93846900D03*
X138839999Y-93846900D03*
X139340001Y-93846900D03*
X139840000Y-93846900D03*
X140339999Y-93846900D03*
X140840000Y-93846900D03*
X141340000Y-93846900D03*
X141840001Y-93846900D03*
X142340000Y-93846900D03*
X142839999Y-93846900D03*
X143340001Y-93846900D03*
X143840000Y-93846900D03*
X144340001Y-93846900D03*
X144840000Y-93846900D03*
D23*
X146766900Y-91920000D03*
X146766900Y-91420001D03*
X146766900Y-90920000D03*
X146766900Y-90420001D03*
X146766900Y-89919999D03*
X146766900Y-89420000D03*
X146766900Y-88920001D03*
X146766900Y-88420000D03*
X146766900Y-87920000D03*
X146766900Y-87419999D03*
X146766900Y-86920000D03*
X146766900Y-86420001D03*
X146766900Y-85919999D03*
X146766900Y-85420000D03*
X146766900Y-84919999D03*
X146766900Y-84420000D03*
D24*
X141090000Y-88170000D03*
%TD*%
D17*
%TO.C,C61*%
X144845300Y-81346801D03*
X144845300Y-80386801D03*
%TD*%
D25*
%TO.C,C2*%
X139347076Y-101520000D03*
X139347076Y-103070000D03*
%TD*%
D13*
%TO.C,FB3*%
X136420000Y-80920000D03*
X136420000Y-79220000D03*
%TD*%
D20*
%TO.C,IC10*%
X113350000Y-81897881D03*
X113350000Y-80897881D03*
X113350000Y-79897881D03*
X113350000Y-78897881D03*
X114349998Y-82897881D03*
X114349998Y-81897881D03*
X114349998Y-80897881D03*
X114349998Y-79897881D03*
X114349998Y-78897881D03*
X115349996Y-82897881D03*
X115349996Y-81897881D03*
X115349996Y-80897881D03*
X115349996Y-79897881D03*
X115349996Y-78897881D03*
X116349994Y-82897881D03*
X116349994Y-81897881D03*
X116349994Y-80897881D03*
X116349994Y-79897881D03*
X116349994Y-78897881D03*
X117349992Y-82897881D03*
X117349992Y-81897881D03*
X117349992Y-80897881D03*
X117349992Y-79897881D03*
X117349992Y-78897881D03*
%TD*%
D26*
%TO.C,IC9*%
X123410000Y-83505000D03*
X123909999Y-83505000D03*
X124410001Y-83505000D03*
X124910000Y-83505000D03*
X125409999Y-83505000D03*
X125910000Y-83505000D03*
X126409999Y-83505000D03*
X126910001Y-83505000D03*
X127410000Y-83505000D03*
X127909999Y-83505000D03*
X128410001Y-83505000D03*
X128910000Y-83505000D03*
X129410001Y-83505000D03*
X129910000Y-83505000D03*
X130409999Y-83505000D03*
X130910001Y-83505000D03*
X131410000Y-83505000D03*
D27*
X131885000Y-82530189D03*
X131885000Y-82030063D03*
X131885000Y-81529937D03*
X131885000Y-81029811D03*
D26*
X131410000Y-80055000D03*
X130910001Y-80055000D03*
X130409999Y-80055000D03*
X129910000Y-80055000D03*
X129410001Y-80055000D03*
X128910000Y-80055000D03*
X128410001Y-80055000D03*
X127909999Y-80055000D03*
X127410000Y-80055000D03*
X126910001Y-80055000D03*
X126409999Y-80055000D03*
X125910000Y-80055000D03*
X125409999Y-80055000D03*
X124910000Y-80055000D03*
X124410001Y-80055000D03*
X123909999Y-80055000D03*
X123410000Y-80055000D03*
D27*
X122935000Y-81029811D03*
X122935000Y-81529937D03*
X122935000Y-82030063D03*
X122935000Y-82530189D03*
%TD*%
D16*
%TO.C,R8*%
X103320700Y-100000000D03*
X103320700Y-101020000D03*
%TD*%
D18*
%TO.C,C71*%
X121820000Y-82580000D03*
X120860000Y-82580000D03*
%TD*%
%TO.C,C51*%
X107810700Y-108830000D03*
X106850700Y-108830000D03*
%TD*%
D28*
%TO.C,R20*%
X141120000Y-81090000D03*
X141120000Y-80070000D03*
%TD*%
D19*
%TO.C,FM3*%
X101500000Y-111000000D03*
%TD*%
D29*
%TO.C,IC5*%
X106110819Y-87569181D03*
X105610693Y-87569181D03*
X105110567Y-87569181D03*
X104610441Y-87569181D03*
X104110315Y-87569181D03*
X103610189Y-87569181D03*
X103110063Y-87569181D03*
X102609937Y-87569181D03*
X102109811Y-87569181D03*
X101609685Y-87569181D03*
X101109559Y-87569181D03*
X100609433Y-87569181D03*
X100109307Y-87569181D03*
X99609181Y-87569181D03*
X106110819Y-88069307D03*
X104610441Y-88069307D03*
X104110315Y-88069307D03*
X103610189Y-88069307D03*
X103110063Y-88069307D03*
X102609937Y-88069307D03*
X102109811Y-88069307D03*
X101609685Y-88069307D03*
X101109559Y-88069307D03*
X100609433Y-88069307D03*
X99609181Y-88069307D03*
X105110567Y-88569433D03*
X104610441Y-88569433D03*
X104110315Y-88569433D03*
X103610189Y-88569433D03*
X102609937Y-88569433D03*
X102109811Y-88569433D03*
X101609685Y-88569433D03*
X101109559Y-88569433D03*
X100609433Y-88569433D03*
X100109307Y-88569433D03*
X104610441Y-89069559D03*
X105110567Y-89569685D03*
X100109307Y-90069811D03*
X105610693Y-90569937D03*
X105110567Y-90569937D03*
X100609433Y-90569937D03*
X100109307Y-90569937D03*
X106110819Y-91070063D03*
X105610693Y-91070063D03*
X105110567Y-91070063D03*
X100609433Y-91070063D03*
X100109307Y-91070063D03*
X99609181Y-91070063D03*
X106110819Y-91570189D03*
X105610693Y-91570189D03*
X105110567Y-91570189D03*
X100609433Y-91570189D03*
X100109307Y-91570189D03*
X99609181Y-91570189D03*
X106110819Y-92070315D03*
X105610693Y-92070315D03*
X105110567Y-92070315D03*
X100609433Y-92070315D03*
X100109307Y-92070315D03*
X106110819Y-92570441D03*
X105610693Y-92570441D03*
X105110567Y-92570441D03*
X100609433Y-92570441D03*
X100109307Y-92570441D03*
X99609181Y-92570441D03*
X106110819Y-93070567D03*
X105610693Y-93070567D03*
X105110567Y-93070567D03*
X104610441Y-93070567D03*
X104110315Y-93070567D03*
X103610189Y-93070567D03*
X103110063Y-93070567D03*
X102609937Y-93070567D03*
X102109811Y-93070567D03*
X101609685Y-93070567D03*
X101109559Y-93070567D03*
X100609433Y-93070567D03*
X100109307Y-93070567D03*
X99609181Y-93070567D03*
X106110819Y-93570693D03*
X105610693Y-93570693D03*
X105110567Y-93570693D03*
X104610441Y-93570693D03*
X104110315Y-93570693D03*
X103610189Y-93570693D03*
X103110063Y-93570693D03*
X102609937Y-93570693D03*
X102109811Y-93570693D03*
X101609685Y-93570693D03*
X101109559Y-93570693D03*
X100609433Y-93570693D03*
X100109307Y-93570693D03*
X99609181Y-93570693D03*
X106110819Y-94070819D03*
X105610693Y-94070819D03*
X105110567Y-94070819D03*
X104610441Y-94070819D03*
X104110315Y-94070819D03*
X103610189Y-94070819D03*
X103110063Y-94070819D03*
X102609937Y-94070819D03*
X102109811Y-94070819D03*
X101609685Y-94070819D03*
X101109559Y-94070819D03*
X100609433Y-94070819D03*
X100109307Y-94070819D03*
X99609181Y-94070819D03*
X106110819Y-88569433D03*
X106110819Y-89069559D03*
X106110819Y-89569685D03*
X106110819Y-90069811D03*
X106110819Y-90569937D03*
X105610693Y-88069307D03*
X105610693Y-88569433D03*
X105610693Y-89069559D03*
X105610693Y-89569685D03*
X105610693Y-90069811D03*
X105110567Y-88069307D03*
X105110567Y-89069559D03*
X105110567Y-90069811D03*
X104110315Y-89569685D03*
X104110315Y-90069811D03*
X104110315Y-90569937D03*
X104110315Y-91070063D03*
X104110315Y-91570189D03*
X104110315Y-92070315D03*
X103610189Y-89569685D03*
X103610189Y-92070315D03*
X103110063Y-88569433D03*
X103110063Y-89569685D03*
X103110063Y-92070315D03*
X102609937Y-89569685D03*
X102609937Y-92070315D03*
X102109811Y-89569685D03*
X102109811Y-92070315D03*
X101609685Y-89569685D03*
X101609685Y-90069811D03*
X101609685Y-90569937D03*
X101609685Y-91070063D03*
X101609685Y-91570189D03*
X101609685Y-92070315D03*
X100609433Y-89069559D03*
X100609433Y-89569685D03*
X100609433Y-90069811D03*
X100109307Y-88069307D03*
X100109307Y-89069559D03*
X100109307Y-89569685D03*
X99609181Y-88569433D03*
X99609181Y-89069559D03*
X99609181Y-89569685D03*
X99609181Y-90069811D03*
X99609181Y-90569937D03*
X99609181Y-92070315D03*
%TD*%
D30*
%TO.C,C54*%
X102002000Y-101610000D03*
X100452000Y-101610000D03*
%TD*%
D15*
%TO.C,C50*%
X106850700Y-107910000D03*
X107810700Y-107910000D03*
%TD*%
D31*
%TO.C,IC1*%
X141207076Y-98718600D03*
X141207076Y-101030000D03*
X141207076Y-103341400D03*
D32*
X146972876Y-101030000D03*
%TD*%
D19*
%TO.C,FM2*%
X142000000Y-73500000D03*
%TD*%
D33*
%TO.C,C52*%
X103840000Y-107870000D03*
X103840000Y-108830000D03*
%TD*%
D25*
%TO.C,C68*%
X133690000Y-82215000D03*
X133690000Y-83765000D03*
%TD*%
D19*
%TO.C,FM4*%
X142000000Y-111000000D03*
%TD*%
D14*
%TO.C,R7*%
X109120000Y-105580000D03*
X110140000Y-105580000D03*
%TD*%
D11*
%TO.C,R10*%
X106940000Y-110240000D03*
X105920000Y-110240000D03*
%TD*%
D18*
%TO.C,C62*%
X134000000Y-84926801D03*
X133040000Y-84926801D03*
%TD*%
%TO.C,C53*%
X102290000Y-102810000D03*
X101330000Y-102810000D03*
%TD*%
D34*
%TO.C,IC4*%
X99869998Y-82570000D03*
X99869998Y-81919999D03*
X99869998Y-81270000D03*
X97920000Y-81270000D03*
X97920000Y-81919999D03*
X97920000Y-82570000D03*
D35*
X98894999Y-81919999D03*
%TD*%
D36*
%TO.C,RN2*%
X111550000Y-99130000D03*
X110650000Y-99130000D03*
X109750000Y-99130000D03*
X108850000Y-99130000D03*
X108850000Y-100830000D03*
X109750000Y-100830000D03*
X110650000Y-100830000D03*
X111550000Y-100830000D03*
%TD*%
D18*
%TO.C,C70*%
X121820000Y-83500000D03*
X120860000Y-83500000D03*
%TD*%
D28*
%TO.C,R18*%
X143770000Y-81390000D03*
X143770000Y-80370000D03*
%TD*%
D11*
%TO.C,R1*%
X111700000Y-97840000D03*
X110680000Y-97840000D03*
%TD*%
D17*
%TO.C,C3*%
X97190000Y-82810000D03*
X97190000Y-81850000D03*
%TD*%
D37*
%TO.C,X1*%
X103460000Y-80955000D03*
D38*
X106000000Y-80955000D03*
D37*
X108540000Y-80955000D03*
X103460000Y-77780000D03*
X108540000Y-77780000D03*
D38*
X104984000Y-75875000D03*
X107016000Y-75875000D03*
D39*
X106635000Y-79685000D03*
X105365000Y-79685000D03*
X106635000Y-78415000D03*
X105365000Y-78415000D03*
X106635000Y-77145000D03*
X105365000Y-77145000D03*
%TD*%
D40*
%TO.C,IC2*%
X109380000Y-108600000D03*
X109380000Y-109550000D03*
X109380000Y-110500000D03*
X111767600Y-110500000D03*
X111767600Y-108600000D03*
%TD*%
D28*
%TO.C,R22*%
X110455968Y-78890000D03*
X110455968Y-77870000D03*
%TD*%
D18*
%TO.C,C65*%
X134265300Y-90406801D03*
X133305300Y-90406801D03*
%TD*%
D11*
%TO.C,R9*%
X102160000Y-106440000D03*
X101140000Y-106440000D03*
%TD*%
D14*
%TO.C,R6*%
X109120000Y-104640000D03*
X110140000Y-104640000D03*
%TD*%
D41*
%TO.C,FB2*%
X100453000Y-99960000D03*
X102153000Y-99960000D03*
%TD*%
D21*
%TO.C,JP1*%
X142410000Y-79670000D03*
X142410000Y-78120000D03*
X142410000Y-81220000D03*
%TD*%
D42*
%TO.C,IC6*%
X104080000Y-106859300D03*
X104580000Y-106859300D03*
X105080000Y-106859300D03*
X105580000Y-106859300D03*
X106080000Y-106859300D03*
X106580000Y-106859300D03*
D43*
X107349300Y-106090000D03*
X107349300Y-105590000D03*
X107349300Y-105090000D03*
X107349300Y-104590000D03*
X107349300Y-104090000D03*
X107349300Y-103590000D03*
D42*
X106580000Y-102820700D03*
X106080000Y-102820700D03*
X105580000Y-102820700D03*
X105080000Y-102820700D03*
X104580000Y-102820700D03*
X104080000Y-102820700D03*
D43*
X103310700Y-103590000D03*
X103310700Y-104090000D03*
X103310700Y-104590000D03*
X103310700Y-105090000D03*
X103310700Y-105590000D03*
X103310700Y-106090000D03*
D44*
X105330000Y-104840000D03*
%TD*%
D16*
%TO.C,R17*%
X140184700Y-80070000D03*
X140184700Y-81090000D03*
%TD*%
D11*
%TO.C,R21*%
X115225227Y-84660000D03*
X114205227Y-84660000D03*
%TD*%
D21*
%TO.C,C67*%
X138070000Y-80765000D03*
X138070000Y-79215000D03*
%TD*%
D11*
%TO.C,R11*%
X105080000Y-110240000D03*
X104060000Y-110240000D03*
%TD*%
%TO.C,R3*%
X111710000Y-95760000D03*
X110690000Y-95760000D03*
%TD*%
%TO.C,R5*%
X110140000Y-103700000D03*
X109120000Y-103700000D03*
%TD*%
D36*
%TO.C,RN1*%
X106860000Y-99130000D03*
X105960000Y-99130000D03*
X105060000Y-99130000D03*
X104160000Y-99130000D03*
X104160000Y-100830000D03*
X105060000Y-100830000D03*
X105960000Y-100830000D03*
X106860000Y-100830000D03*
%TD*%
D45*
%TO.C,SoM1*%
X97600000Y-108700000D03*
X145600000Y-108700000D03*
X97600000Y-75700000D03*
X145600000Y-75700000D03*
%TD*%
D17*
%TO.C,C64*%
X139260000Y-81040000D03*
X139260000Y-80080000D03*
%TD*%
D20*
%TO.C,IC3*%
X113520003Y-100293012D03*
X113520003Y-99493012D03*
X113520003Y-98693013D03*
X113520003Y-97893013D03*
X113520003Y-97093013D03*
X113520003Y-96293013D03*
X113520003Y-95493013D03*
X113520003Y-94693013D03*
X113520003Y-93893013D03*
X113520003Y-93093013D03*
X113520003Y-92293013D03*
X113520003Y-91493013D03*
X113520003Y-90693013D03*
X113520003Y-89893014D03*
X113520003Y-89093014D03*
X114320003Y-100293012D03*
X114320003Y-99493012D03*
X114320003Y-98693013D03*
X114320003Y-97893013D03*
X114320003Y-97093013D03*
X114320003Y-96293013D03*
X114320003Y-95493013D03*
X114320003Y-94693013D03*
X114320003Y-93893013D03*
X114320003Y-93093013D03*
X114320003Y-92293013D03*
X114320003Y-91493013D03*
X114320003Y-90693013D03*
X114320003Y-89893014D03*
X114320003Y-89093014D03*
X115120002Y-100293012D03*
X115120002Y-99493012D03*
X115120002Y-98693013D03*
X115120002Y-97893013D03*
X115120002Y-97093013D03*
X115120002Y-96293013D03*
X115120002Y-95493013D03*
X115120002Y-94693013D03*
X115120002Y-93893013D03*
X115120002Y-93093013D03*
X115120002Y-92293013D03*
X115120002Y-91493013D03*
X115120002Y-90693013D03*
X115120002Y-89893014D03*
X115120002Y-89093014D03*
X115920002Y-100293012D03*
X115920002Y-99493012D03*
X115920002Y-98693013D03*
X115920002Y-97893013D03*
X115920002Y-97093013D03*
X115920002Y-96293013D03*
X115920002Y-95493013D03*
X115920002Y-94693013D03*
X115920002Y-93893013D03*
X115920002Y-93093013D03*
X115920002Y-92293013D03*
X115920002Y-91493013D03*
X115920002Y-90693013D03*
X115920002Y-89893014D03*
X115920002Y-89093014D03*
X116720002Y-100293012D03*
X116720002Y-99493012D03*
X116720002Y-98693013D03*
X116720002Y-97893013D03*
X116720002Y-97093013D03*
X116720002Y-96293013D03*
X116720002Y-95493013D03*
X116720002Y-94693013D03*
X116720002Y-93893013D03*
X116720002Y-93093013D03*
X116720002Y-92293013D03*
X116720002Y-91493013D03*
X116720002Y-90693013D03*
X116720002Y-89893014D03*
X116720002Y-89093014D03*
X117520002Y-100293012D03*
X117520002Y-99493012D03*
X117520002Y-98693013D03*
X117520002Y-97893013D03*
X117520002Y-97093013D03*
X117520002Y-96293013D03*
X117520002Y-95493013D03*
X117520002Y-94693013D03*
X117520002Y-93893013D03*
X117520002Y-93093013D03*
X117520002Y-92293013D03*
X117520002Y-91493013D03*
X117520002Y-90693013D03*
X117520002Y-89893014D03*
X117520002Y-89093014D03*
X118320002Y-100293012D03*
X118320002Y-99493012D03*
X118320002Y-98693013D03*
X118320002Y-97893013D03*
X118320002Y-97093013D03*
X118320002Y-96293013D03*
X118320002Y-95493013D03*
X118320002Y-94693013D03*
X118320002Y-93893013D03*
X118320002Y-93093013D03*
X118320002Y-92293013D03*
X118320002Y-91493013D03*
X118320002Y-90693013D03*
X118320002Y-89893014D03*
X118320002Y-89093014D03*
X119120002Y-100293012D03*
X119120002Y-99493012D03*
X119120002Y-98693013D03*
X119120002Y-97893013D03*
X119120002Y-97093013D03*
X119120002Y-96293013D03*
X119120002Y-95493013D03*
X119120002Y-94693013D03*
X119120002Y-93893013D03*
X119120002Y-93093013D03*
X119120002Y-92293013D03*
X119120002Y-91493013D03*
X119120002Y-90693013D03*
X119120002Y-89893014D03*
X119120002Y-89093014D03*
X119920002Y-100293012D03*
X119920002Y-99493012D03*
X119920002Y-98693013D03*
X119920002Y-97893013D03*
X119920002Y-97093013D03*
X119920002Y-96293013D03*
X119920002Y-95493013D03*
X119920002Y-94693013D03*
X119920002Y-93893013D03*
X119920002Y-93093013D03*
X119920002Y-92293013D03*
X119920002Y-91493013D03*
X119920002Y-90693013D03*
X119920002Y-89893014D03*
X119920002Y-89093014D03*
X120720002Y-100293012D03*
X120720002Y-99493012D03*
X120720002Y-98693013D03*
X120720002Y-97893013D03*
X120720002Y-97093013D03*
X120720002Y-96293013D03*
X120720002Y-95493013D03*
X120720002Y-94693013D03*
X120720002Y-93893013D03*
X120720002Y-93093013D03*
X120720002Y-92293013D03*
X120720002Y-91493013D03*
X120720002Y-90693013D03*
X120720002Y-89893014D03*
X120720002Y-89093014D03*
X121520002Y-100293012D03*
X121520002Y-99493012D03*
X121520002Y-98693013D03*
X121520002Y-97893013D03*
X121520002Y-97093013D03*
X121520002Y-96293013D03*
X121520002Y-95493013D03*
X121520002Y-94693013D03*
X121520002Y-93893013D03*
X121520002Y-93093013D03*
X121520002Y-92293013D03*
X121520002Y-91493013D03*
X121520002Y-90693013D03*
X121520002Y-89893014D03*
X121520002Y-89093014D03*
X122320002Y-100293012D03*
X122320002Y-99493012D03*
X122320002Y-98693013D03*
X122320002Y-97893013D03*
X122320002Y-97093013D03*
X122320002Y-96293013D03*
X122320002Y-95493013D03*
X122320002Y-94693013D03*
X122320002Y-93893013D03*
X122320002Y-93093013D03*
X122320002Y-92293013D03*
X122320002Y-91493013D03*
X122320002Y-90693013D03*
X122320002Y-89893014D03*
X122320002Y-89093014D03*
X123120002Y-100293012D03*
X123120002Y-99493012D03*
X123120002Y-98693013D03*
X123120002Y-97893013D03*
X123120002Y-97093013D03*
X123120002Y-96293013D03*
X123120002Y-95493013D03*
X123120002Y-94693013D03*
X123120002Y-93893013D03*
X123120002Y-93093013D03*
X123120002Y-92293013D03*
X123120002Y-91493013D03*
X123120002Y-90693013D03*
X123120002Y-89893014D03*
X123120002Y-89093014D03*
X123920001Y-100293012D03*
X123920001Y-99493012D03*
X123920001Y-98693013D03*
X123920001Y-97893013D03*
X123920001Y-97093013D03*
X123920001Y-96293013D03*
X123920001Y-95493013D03*
X123920001Y-94693013D03*
X123920001Y-93893013D03*
X123920001Y-93093013D03*
X123920001Y-92293013D03*
X123920001Y-91493013D03*
X123920001Y-90693013D03*
X123920001Y-89893014D03*
X123920001Y-89093014D03*
X124720001Y-100293012D03*
X124720001Y-99493012D03*
X124720001Y-98693013D03*
X124720001Y-97893013D03*
X124720001Y-97093013D03*
X124720001Y-96293013D03*
X124720001Y-95493013D03*
X124720001Y-94693013D03*
X124720001Y-93893013D03*
X124720001Y-93093013D03*
X124720001Y-92293013D03*
X124720001Y-91493013D03*
X124720001Y-90693013D03*
X124720001Y-89893014D03*
X124720001Y-89093014D03*
%TD*%
M02*
