M48
; DRILL file {KiCad 9.0.6-9.0.6~ubuntu24.04.1} date 2025-11-03T18:30:38+0100
; FORMAT={-:-/ absolute / inch / decimal}
; #@! TF.CreationDate,2025-11-03T18:30:38+01:00
; #@! TF.GenerationSoftware,Kicad,Pcbnew,9.0.6-9.0.6~ubuntu24.04.1
; #@! TF.FileFunction,Plated,1,2,Blind
FMAT,2
INCH
; #@! TA.AperFunction,Plated,Buried,ViaDrill
T1C0.0079
; #@! TA.AperFunction,Plated,Buried,ViaDrill
T2C0.0118
%
G90
G05
T1
X4.0197Y-3.5177
X4.0591Y-3.5177
X4.1095Y-3.5712
X4.1362Y-3.5046
X4.1845Y-3.549
X4.2193Y-3.024
X4.3479Y-3.7718
X4.4563Y-3.728
X4.4587Y-3.6334
X4.461Y-3.1949
X4.4636Y-3.5022
X4.47Y-3.9416
X4.5394Y-3.1303
X4.5795Y-3.8799
X4.5953Y-3.7122
X4.6207Y-3.2588
X4.6255Y-3.5156
X4.6299Y-3.8024
X4.6565Y-3.6574
X4.6583Y-3.5909
X4.674Y-3.728
X4.6818Y-3.9241
X4.6898Y-3.6217
X4.6898Y-3.748
X4.6909Y-3.6894
X4.706Y-3.7394
X4.7209Y-3.9422
X4.7213Y-3.4965
X4.7213Y-3.5925
X4.7319Y-3.6654
X4.7522Y-3.6892
X4.7528Y-3.7516
X4.7583Y-3.2339
X4.7583Y-3.2697
X4.7757Y-4.0154
X4.7843Y-3.6217
X4.7891Y-3.7859
X4.8055Y-3.7594
X4.8154Y-3.6854
X4.8161Y-3.4961
X4.9102Y-3.4957
X4.9102Y-3.7911
X4.9102Y-3.9485
X4.9159Y-3.5927
X4.9228Y-3.6965
T2
X3.8268Y-3.2047
X3.8935Y-3.2043
X3.8935Y-3.2252
X3.8935Y-3.2461
X3.8949Y-3.3
X3.8949Y-3.3305
X3.8949Y-3.361
X3.911Y-3.5453
X3.9413Y-3.5264
X3.9413Y-3.4673
X3.9898Y-4.0319
X3.9902Y-3.5854
X4.0157Y-3.8461
X4.0783Y-4.285
X4.0807Y-4.3402
X4.1213Y-4.1004
X4.1213Y-4.152
X4.1472Y-4.128
X4.1701Y-4.3591
X4.1776Y-4.1004
X4.1776Y-4.152
X4.2508Y-4.2669
X4.3083Y-4.3669
X4.8925Y-3.2043
X4.8925Y-3.2354
X4.9235Y-3.2043
X4.9235Y-3.2354
X4.9544Y-3.2043
X4.9544Y-3.2354
X4.9854Y-3.2043
X4.9854Y-3.2354
X5.0163Y-3.2043
X5.0163Y-3.2354
X5.0473Y-3.2043
X5.0473Y-3.2354
X5.0782Y-3.2039
X5.0782Y-3.235
X5.1092Y-3.2039
X5.1092Y-3.235
X5.1402Y-3.2039
X5.1402Y-3.235
X5.2217Y-3.3433
X5.222Y-3.3799
X5.2299Y-3.4413
X5.2303Y-3.5594
X5.2398Y-3.237
X5.2992Y-3.5008
X5.3311Y-3.3122
X5.3315Y-3.6295
X5.3606Y-3.3827
X5.3961Y-3.2476
X5.4354Y-3.0945
X5.4465Y-3.7256
X5.4819Y-3.137
X5.4928Y-3.4124
X5.4928Y-3.4418
X5.4928Y-3.4713
X5.4928Y-3.5007
X5.4928Y-3.5301
X5.5236Y-3.4124
X5.5236Y-3.4418
X5.5238Y-3.4713
X5.5238Y-3.5007
X5.5238Y-3.5301
X5.5256Y-3.2772
X5.5543Y-3.4124
X5.5543Y-3.4418
X5.5547Y-3.4713
X5.5547Y-3.5007
X5.5547Y-3.5301
X5.5851Y-3.4124
X5.5851Y-3.4418
X5.5857Y-3.4713
X5.5857Y-3.5007
X5.5857Y-3.5301
X5.5941Y-3.2764
X5.6158Y-3.4124
X5.6158Y-3.4418
X5.6166Y-3.4713
X5.6166Y-3.5007
X5.6166Y-3.5301
X5.6295Y-3.078
X5.7024Y-3.6646
X5.7028Y-3.1469
X5.7484Y-3.3236
X5.8071Y-3.4807
M30
