M48
; DRILL file {KiCad 9.0.6-9.0.6~ubuntu24.04.1} date 2025-11-11T14:54:18+0100
; FORMAT={-:-/ absolute / inch / decimal}
; #@! TF.CreationDate,2025-11-11T14:54:18+01:00
; #@! TF.GenerationSoftware,Kicad,Pcbnew,9.0.6-9.0.6~ubuntu24.04.1
; #@! TF.FileFunction,Plated,1,6,PTH
FMAT,2
INCH
; #@! TA.AperFunction,Plated,PTH,ViaDrill
T1C0.0079
; #@! TA.AperFunction,Plated,PTH,ViaDrill
T2C0.0118
%
G90
G05
T1
X3.9701Y-3.5461
X3.9744Y-3.5244
X3.989Y-3.4315
X3.9941Y-4.0004
X3.9976Y-3.5189
X4.0197Y-3.5177
X4.0228Y-4.0736
X4.0287Y-4.1177
X4.0441Y-4.1004
X4.0441Y-4.1341
X4.0441Y-4.1556
X4.0591Y-3.5177
X4.0677Y-3.9925
X4.0693Y-4.3406
X4.1095Y-3.5712
X4.113Y-3.9012
X4.1227Y-4.1099
X4.1227Y-4.1677
X4.1354Y-3.8433
X4.1376Y-3.5043
X4.1382Y-3.4673
X4.1398Y-4.0071
X4.1548Y-4.228
X4.1561Y-3.5485
X4.157Y-4.0218
X4.1579Y-3.5076
X4.1579Y-3.487
X4.1579Y-3.5281
X4.1598Y-3.4654
X4.1657Y-4.3587
X4.1705Y-4.1674
X4.1709Y-4.1103
X4.1717Y-3.826
X4.178Y-3.1063
X4.1784Y-4.2281
X4.1845Y-3.549
X4.1952Y-3.4781
X4.1964Y-3.9341
X4.2038Y-3.5396
X4.2061Y-3.518
X4.2079Y-3.4575
X4.2193Y-3.024
X4.224Y-3.413
X4.2317Y-3.9583
X4.2417Y-3.8807
X4.242Y-3.7339
X4.2437Y-4.0028
X4.2511Y-3.8016
X4.2513Y-4.1113
X4.2614Y-4.3492
X4.2616Y-4.323
X4.2618Y-4.2657
X4.2681Y-4.1248
X4.2685Y-4.1764
X4.2822Y-3.8571
X4.2822Y-3.8787
X4.2922Y-3.7418
X4.2933Y-4.0019
X4.2957Y-4.0547
X4.3083Y-4.3743
X4.3135Y-3.7137
X4.3228Y-3.8676
X4.3252Y-4.0133
X4.3285Y-4.173
X4.3299Y-4.0538
X4.3335Y-3.8098
X4.3346Y-3.8481
X4.3386Y-3.9413
X4.3454Y-3.7728
X4.3457Y-3.7418
X4.3486Y-4.3173
X4.3504Y-3.5815
X4.3518Y-4.0494
X4.3547Y-3.6744
X4.3646Y-4.2017
X4.3667Y-3.6985
X4.3677Y-4.022
X4.3709Y-3.3409
X4.373Y-4.3163
X4.3815Y-3.8071
X4.3815Y-4.2513
X4.3831Y-3.7835
X4.3866Y-3.3638
X4.3944Y-4.0285
X4.3963Y-4.003
X4.4022Y-4.0516
X4.4043Y-3.9
X4.4071Y-3.7067
X4.4138Y-3.1791
X4.4151Y-3.2217
X4.4268Y-3.6417
X4.4272Y-3.4362
X4.4382Y-3.7446
X4.4386Y-4.3727
X4.4437Y-3.7244
X4.4472Y-3.8236
X4.4476Y-4.3271
X4.4677Y-3.5008
X4.4677Y-3.5996
X4.4685Y-3.9752
X4.4708Y-4.0719
X4.472Y-4.3271
X4.4728Y-3.9413
X4.4736Y-3.7524
X4.4738Y-3.6866
X4.4821Y-3.8397
X4.4839Y-3.1965
X4.4862Y-3.9004
X4.4953Y-3.7524
X4.4955Y-3.9458
X4.496Y-4.0539
X4.498Y-3.6866
X4.5004Y-4.263
X4.5044Y-4.0021
X4.5083Y-3.5399
X4.5094Y-4.3177
X4.5098Y-3.6343
X4.51Y-3.4816
X4.5122Y-3.8069
X4.518Y-3.6153
X4.5193Y-3.6803
X4.5201Y-3.7158
X4.5211Y-3.8542
X4.5272Y-3.3744
X4.5309Y-3.5413
X4.537Y-3.1724
X4.5394Y-3.1303
X4.5449Y-3.5852
X4.546Y-3.4941
X4.5463Y-3.7143
X4.5464Y-3.6183
X4.5472Y-4.2634
X4.548Y-3.678
X4.5496Y-4.3323
X4.5517Y-3.8244
X4.5551Y-3.7903
X4.5618Y-4.0684
X4.5632Y-3.7402
X4.5709Y-4.1803
X4.5748Y-4.3145
X4.5764Y-4.102
X4.5776Y-3.8085
X4.578Y-3.1157
X4.5795Y-3.906
X4.58Y-3.7083
X4.5819Y-4.0622
X4.5821Y-3.6492
X4.5821Y-3.6195
X4.5823Y-3.6713
X4.5826Y-3.276
X4.5842Y-3.5234
X4.5851Y-3.7893
X4.5856Y-4.0824
X4.5869Y-4.3316
X4.5893Y-3.5456
X4.5906Y-4.1996
X4.5925Y-3.4394
X4.5937Y-3.3163
X4.5945Y-4.263
X4.5948Y-3.5017
X4.5969Y-3.1429
X4.5987Y-3.8981
X4.6001Y-4.1092
X4.6004Y-4.0008
X4.6004Y-4.0177
X4.6004Y-4.0346
X4.6013Y-3.5812
X4.605Y-3.7349
X4.6071Y-3.9334
X4.6092Y-3.9661
X4.6113Y-3.8025
X4.6123Y-4.0672
X4.6131Y-3.5558
X4.615Y-4.2001
X4.6157Y-3.6744
X4.6207Y-3.2588
X4.6221Y-3.2803
X4.6225Y-4.3156
X4.6256Y-3.7156
X4.6264Y-3.515
X4.6265Y-4.3358
X4.6283Y-3.908
X4.6311Y-4.0197
X4.6328Y-4.0459
X4.6346Y-3.7921
X4.6362Y-3.6378
X4.637Y-3.6077
X4.639Y-3.3858
X4.6409Y-3.2043
X4.6457Y-4.2638
X4.6488Y-4.0772
X4.6567Y-3.7087
X4.6571Y-3.5287
X4.6589Y-3.9245
X4.6624Y-3.631
X4.6646Y-3.7823
X4.6668Y-4.0624
X4.6701Y-3.6091
X4.6728Y-3.4752
X4.6732Y-4.3796
X4.674Y-3.8652
X4.6766Y-3.6906
X4.6805Y-4.2628
X4.6822Y-3.5919
X4.6835Y-3.6662
X4.6854Y-4.0713
X4.687Y-3.9705
X4.6894Y-3.926
X4.6898Y-3.7551
X4.6898Y-3.7362
X4.6941Y-4.19
X4.6957Y-4.279
X4.6961Y-3.9909
X4.6997Y-3.8161
X4.702Y-4.1134
X4.7057Y-3.7151
X4.7069Y-3.7797
X4.7086Y-3.7976
X4.7136Y-3.6462
X4.7171Y-4.2653
X4.7205Y-4.3796
X4.7208Y-4.1034
X4.7212Y-3.9525
X4.7224Y-3.5169
X4.7232Y-3.5899
X4.7258Y-3.675
X4.7324Y-3.8383
X4.737Y-3.9374
X4.7385Y-3.6213
X4.7402Y-4.039
X4.7429Y-4.2039
X4.7435Y-3.8556
X4.7437Y-4.0949
X4.7456Y-4.273
X4.75Y-3.7673
X4.7519Y-3.8235
X4.752Y-4.3796
X4.7528Y-3.7911
X4.7557Y-3.6966
X4.7572Y-3.9706
X4.7583Y-3.2339
X4.7583Y-3.2697
X4.7585Y-3.5931
X4.7639Y-3.668
X4.7648Y-3.3869
X4.7649Y-3.9515
X4.768Y-4.2699
X4.7689Y-3.9022
X4.7711Y-3.7111
X4.7729Y-3.9326
X4.7735Y-3.983
X4.7749Y-3.767
X4.7835Y-4.3796
X4.7843Y-4.0752
X4.7846Y-3.4882
X4.7886Y-3.7909
X4.7889Y-3.8975
X4.7906Y-3.6902
X4.7933Y-4.1353
X4.7937Y-4.3296
X4.7953Y-3.6508
X4.7961Y-3.2346
X4.7989Y-3.6146
X4.8Y-4.1736
X4.8035Y-4.0752
X4.8047Y-3.9106
X4.8091Y-4.265
X4.8095Y-3.6333
X4.8161Y-3.7606
X4.8161Y-4.3343
X4.8162Y-3.9396
X4.8189Y-3.8957
X4.8204Y-3.2303
X4.8208Y-3.6137
X4.8215Y-4.3024
X4.8217Y-3.7395
X4.822Y-3.6925
X4.8228Y-3.0957
X4.8244Y-3.5368
X4.8253Y-4.0411
X4.826Y-3.0689
X4.826Y-3.5051
X4.8296Y-3.5856
X4.8299Y-3.8362
X4.8303Y-3.3858
X4.8306Y-3.6496
X4.8307Y-2.9224
X4.8307Y-4.3796
X4.8308Y-3.9774
X4.8315Y-3.8652
X4.8315Y-3.8022
X4.8331Y-3.2567
X4.8348Y-4.1394
X4.8394Y-3.7559
X4.8409Y-3.7283
X4.8426Y-2.9417
X4.8435Y-4.265
X4.8437Y-3.692
X4.8476Y-3.878
X4.8524Y-3.4862
X4.8531Y-3.6091
X4.855Y-4.1436
X4.8553Y-3.5348
X4.8563Y-3.6424
X4.8563Y-3.7923
X4.8622Y-4.037
X4.8625Y-3.7116
X4.863Y-3.9375
X4.865Y-4.2913
X4.8654Y-2.9417
X4.8661Y-4.2648
X4.8661Y-3.8395
X4.8728Y-3.597
X4.8733Y-3.3771
X4.876Y-3.4843
X4.878Y-2.9232
X4.878Y-3.3075
X4.8785Y-4.1041
X4.8792Y-3.3373
X4.8807Y-3.6419
X4.8858Y-3.7315
X4.8876Y-2.9971
X4.8878Y-3.0992
X4.8885Y-3.7884
X4.8902Y-2.9417
X4.8905Y-3.9333
X4.8907Y-3.8496
X4.8912Y-3.8888
X4.8942Y-3.5875
X4.8948Y-3.999
X4.8977Y-3.8693
X4.8988Y-4.1741
X4.8995Y-3.9787
X4.8996Y-4.265
X4.8999Y-4.3325
X4.9Y-3.3105
X4.9016Y-3.3421
X4.9043Y-3.949
X4.9079Y-4.0787
X4.9094Y-4.3796
X4.9102Y-3.4984
X4.9102Y-3.7925
X4.9129Y-2.9417
X4.9193Y-3.6988
X4.9234Y-4.1939
X4.9236Y-3.5854
X4.9248Y-3.3204
X4.9252Y-2.9232
X4.9254Y-4.297
X4.9263Y-4.0893
X4.9274Y-3.6496
X4.9283Y-3.0559
X4.9286Y-4.1382
X4.9287Y-2.998
X4.9323Y-4.2669
X4.9328Y-3.5129
X4.9375Y-2.9417
X4.9392Y-3.7461
X4.9469Y-3.5787
X4.9483Y-3.6551
X4.9512Y-4.0724
X4.9531Y-3.5232
X4.9533Y-3.8343
X4.9567Y-4.2654
X4.9567Y-4.3319
X4.9602Y-2.9417
X4.9664Y-4.089
X4.9681Y-3.5421
X4.9698Y-4.1185
X4.9724Y-2.9232
X4.9724Y-2.9984
X4.9818Y-3.7066
X4.9833Y-4.1422
X4.9846Y-3.7433
X4.9847Y-2.9417
X4.9848Y-3.4942
X4.9933Y-3.8358
X4.9976Y-3.7602
X4.9983Y-3.5893
X5.0039Y-4.3311
X5.0055Y-4.137
X5.0074Y-2.9417
X5.0106Y-4.0752
X5.0138Y-3.474
X5.0142Y-3.8429
X5.0154Y-3.3333
X5.0193Y-3.5311
X5.0197Y-2.9232
X5.0197Y-3.0492
X5.0209Y-3.5893
X5.0283Y-4.3122
X5.0306Y-4.0802
X5.0319Y-2.9417
X5.041Y-3.8685
X5.0441Y-3.9331
X5.0496Y-3.9028
X5.0512Y-4.3303
X5.0547Y-2.9417
X5.0646Y-2.9984
X5.0669Y-2.9232
X5.0746Y-4.2103
X5.0792Y-2.9417
X5.0806Y-3.9917
X5.0913Y-4.1134
X5.1019Y-2.9417
X5.1079Y-3.9051
X5.1117Y-3.9927
X5.113Y-2.9988
X5.1142Y-2.9232
X5.1169Y-4.2921
X5.1174Y-3.3241
X5.1181Y-4.0931
X5.1264Y-2.9417
X5.1276Y-3.7715
X5.1337Y-3.3095
X5.1421Y-4.0984
X5.1445Y-3.7835
X5.1492Y-2.9417
X5.1496Y-3.3697
X5.1556Y-3.3062
X5.161Y-2.9232
X5.1614Y-2.9988
X5.1618Y-3.8657
X5.1659Y-3.7513
X5.1681Y-3.8906
X5.1737Y-2.9417
X5.1752Y-3.9406
X5.1937Y-3.3592
X5.1964Y-2.9417
X5.1984Y-3.1744
X5.2016Y-3.9823
X5.2039Y-4.1945
X5.2083Y-2.9232
X5.2083Y-2.9984
X5.2106Y-3.8728
X5.2117Y-3.208
X5.2118Y-3.2501
X5.2134Y-3.8134
X5.2168Y-3.2279
X5.2181Y-3.9362
X5.2213Y-4.3194
X5.2361Y-3.4627
X5.2383Y-3.8065
X5.2484Y-3.7634
X5.2516Y-2.9693
X5.2555Y-2.998
X5.2555Y-3.7913
X5.2559Y-2.9232
X5.2685Y-3.8858
X5.2695Y-3.7675
X5.2803Y-2.9024
X5.2815Y-3.9681
X5.2824Y-3.8201
X5.2957Y-3.8571
X5.2969Y-4.3559
X5.2972Y-3.9469
X5.2979Y-3.9873
X5.3091Y-3.7961
X5.3106Y-3.9189
X5.3193Y-3.8409
X5.3232Y-3.6933
X5.3311Y-3.3122
X5.3425Y-3.9858
X5.3453Y-3.9535
X5.3457Y-3.8898
X5.3575Y-3.6201
X5.3673Y-3.2827
X5.3679Y-4.0585
X5.3831Y-3.965
X5.384Y-4.0457
X5.3854Y-3.7866
X5.3906Y-3.3008
X5.3931Y-4.0273
X5.4028Y-3.7709
X5.4028Y-3.8008
X5.4036Y-3.7404
X5.4161Y-3.3795
X5.4191Y-3.7539
X5.4217Y-3.3575
X5.4661Y-3.2772
X5.4928Y-3.4108
X5.4928Y-3.4403
X5.4928Y-3.4699
X5.4928Y-3.5007
X5.4928Y-3.5301
X5.5236Y-3.4108
X5.5236Y-3.4403
X5.5238Y-3.4699
X5.5238Y-3.5007
X5.5238Y-3.5301
X5.5455Y-3.7274
X5.5543Y-3.4108
X5.5543Y-3.4403
X5.5547Y-3.4699
X5.5547Y-3.5007
X5.5547Y-3.5301
X5.5851Y-3.4108
X5.5851Y-3.4403
X5.5857Y-3.4699
X5.5857Y-3.5007
X5.5857Y-3.5301
X5.6158Y-3.4108
X5.6158Y-3.4403
X5.6166Y-3.4699
X5.6166Y-3.5007
X5.6166Y-3.5301
X5.6243Y-3.3199
X5.6402Y-3.5858
X5.6429Y-3.2996
X5.6661Y-3.5587
X5.6673Y-3.4567
X5.6791Y-3.6087
X5.6839Y-3.3012
X5.7004Y-3.4461
X5.7004Y-3.4866
X5.7008Y-3.4024
X5.7134Y-3.5409
X5.7299Y-3.4421
X5.7299Y-3.4693
X5.7335Y-3.5839
X5.7429Y-3.6437
X5.7492Y-3.3839
X5.7492Y-3.5193
T2
X3.8197Y-3.2815
X3.8268Y-3.2047
X3.8413Y-3.2815
X3.8555Y-3.187
X3.8563Y-3.4327
X3.8563Y-3.5067
X3.8935Y-3.2043
X3.8935Y-3.2252
X3.8935Y-3.2461
X3.8941Y-3.4339
X3.8949Y-3.3
X3.8949Y-3.3305
X3.8949Y-3.361
X3.9033Y-3.6051
X3.9033Y-3.6433
X3.9105Y-3.4858
X3.911Y-3.5453
X3.9291Y-3.3
X3.9291Y-3.3305
X3.9291Y-3.361
X3.9307Y-4.0004
X3.9413Y-3.5264
X3.9413Y-3.4673
X3.9539Y-3.8437
X3.9646Y-3.2677
X3.9834Y-4.2185
X3.9835Y-4.0291
X3.9882Y-3.2248
X3.9882Y-3.2465
X3.9882Y-3.2673
X3.9882Y-3.6417
X3.9884Y-3.6091
X3.9898Y-3.5815
X4.0157Y-3.8461
X4.0443Y-3.6351
X4.0681Y-4.2244
X4.0681Y-4.2846
X4.1197Y-3.4012
X4.1921Y-3.4012
X4.2185Y-3.148
X4.2606Y-4.224
X4.3531Y-3.2945
X4.3606Y-3.2354
X4.4055Y-2.9571
X4.4075Y-4.2602
X4.4504Y-4.2366
X4.4646Y-2.9571
X4.4846Y-3.1224
X4.5472Y-2.9252
X4.5472Y-2.9992
X4.5945Y-2.9252
X4.5945Y-2.9992
X4.6417Y-2.9252
X4.6417Y-2.9992
X4.661Y-3.9673
X4.6626Y-3.1437
X4.6791Y-3.1634
X4.689Y-2.9252
X4.689Y-2.9992
X4.6898Y-3.9485
X4.7077Y-4.0716
X4.7297Y-4.0716
X4.7362Y-2.9252
X4.7362Y-2.9992
X4.7835Y-2.8783
X4.7835Y-2.9992
X4.8925Y-3.2043
X4.8925Y-3.2354
X4.9235Y-3.2043
X4.9235Y-3.2354
X4.9544Y-3.2043
X4.9544Y-3.2354
X4.9854Y-3.2043
X4.9854Y-3.2354
X5.0051Y-4.2665
X5.0163Y-3.2043
X5.0163Y-3.2354
X5.0473Y-3.2043
X5.0473Y-3.2354
X5.0669Y-4.2654
X5.0782Y-3.2039
X5.0782Y-3.235
X5.1055Y-4.3343
X5.1092Y-3.2039
X5.1092Y-3.235
X5.128Y-4.3339
X5.1402Y-3.2039
X5.1402Y-3.235
X5.1457Y-4.2638
X5.1496Y-4.3339
X5.1563Y-4.2075
X5.1713Y-4.3339
X5.1846Y-4.2642
X5.1854Y-4.213
X5.1966Y-3.3051
X5.2008Y-4.3906
X5.2303Y-3.5594
X5.2354Y-3.6146
X5.2358Y-3.3614
X5.2398Y-3.237
X5.2514Y-4.2681
X5.2693Y-3.0929
X5.2727Y-3.4435
X5.2732Y-3.5638
X5.298Y-3.5024
X5.3378Y-3.1173
X5.3606Y-3.3827
X5.3961Y-3.2476
X5.3969Y-3.6942
X5.4343Y-3.2028
X5.4354Y-3.0945
X5.4421Y-3.8768
X5.4421Y-3.9004
X5.4475Y-3.7245
X5.4645Y-3.8768
X5.4645Y-3.9004
X5.4819Y-3.137
X5.4821Y-3.203
X5.5089Y-4.1008
X5.5089Y-4.1268
X5.5117Y-3.8768
X5.5117Y-3.9004
X5.5136Y-3.9919
X5.5189Y-3.1358
X5.5256Y-3.2772
X5.5336Y-4.1008
X5.5336Y-4.1268
X5.5551Y-3.1366
X5.5583Y-4.1008
X5.5583Y-4.1268
X5.5593Y-3.9472
X5.5593Y-4.0079
X5.583Y-4.1008
X5.583Y-4.1268
X5.5941Y-3.2764
X5.6059Y-3.1748
X5.6295Y-3.078
X5.6606Y-3.1472
X5.6877Y-3.8984
X5.6877Y-3.9248
X5.6877Y-3.9512
X5.6877Y-3.9776
X5.6877Y-4.0039
X5.6877Y-4.0303
X5.6877Y-4.0567
X5.7028Y-3.1469
X5.7142Y-3.6941
X5.7169Y-3.8984
X5.7169Y-3.9248
X5.7169Y-3.9512
X5.7169Y-3.9776
X5.7169Y-4.0039
X5.7169Y-4.0303
X5.7169Y-4.0567
X5.7193Y-3.2031
X5.7484Y-3.3236
X5.8071Y-3.4807
M30
