M48
; DRILL file {KiCad 9.0.6-9.0.6~ubuntu24.04.1} date 2025-11-03T18:30:38+0100
; FORMAT={-:-/ absolute / inch / decimal}
; #@! TF.CreationDate,2025-11-03T18:30:38+01:00
; #@! TF.GenerationSoftware,Kicad,Pcbnew,9.0.6-9.0.6~ubuntu24.04.1
; #@! TF.FileFunction,Plated,1,6,PTH
FMAT,2
INCH
; #@! TA.AperFunction,Plated,PTH,ViaDrill
T1C0.0079
; #@! TA.AperFunction,Plated,PTH,ViaDrill
T2C0.0118
%
G90
G05
T1
X3.9976Y-3.5189
X4.0228Y-4.0736
X4.0287Y-4.1177
X4.0441Y-4.1004
X4.0441Y-4.1341
X4.0441Y-4.1556
X4.1382Y-3.4673
X4.1398Y-4.0071
X4.1576Y-3.5075
X4.1579Y-3.487
X4.178Y-3.1063
X4.1964Y-3.9341
X4.2079Y-3.4575
X4.245Y-3.8807
X4.2661Y-3.8016
X4.2829Y-3.869
X4.3147Y-3.7137
X4.3594Y-3.6698
X4.373Y-4.3163
X4.3811Y-3.6725
X4.3815Y-4.2513
X4.3831Y-3.7835
X4.3944Y-4.0285
X4.4022Y-4.0516
X4.4138Y-3.1791
X4.4151Y-3.2217
X4.437Y-3.7457
X4.4386Y-4.3628
X4.4685Y-3.9758
X4.4736Y-3.7524
X4.4738Y-3.6866
X4.4862Y-3.9004
X4.4953Y-3.7524
X4.4955Y-3.9458
X4.498Y-3.6866
X4.5035Y-4.002
X4.5201Y-3.7158
X4.5315Y-3.5403
X4.537Y-3.1724
X4.548Y-3.7153
X4.5483Y-3.6791
X4.5522Y-3.8292
X4.5551Y-3.7903
X4.5555Y-4.1472
X4.5633Y-3.7393
X4.5709Y-4.1803
X4.578Y-3.1157
X4.5798Y-3.8055
X4.5811Y-3.6197
X4.5825Y-3.6493
X4.5826Y-3.276
X4.5905Y-4.0837
X4.5949Y-3.7902
X4.5969Y-3.1429
X4.6001Y-4.1092
X4.6256Y-3.7156
X4.6268Y-3.7472
X4.628Y-4.0398
X4.6371Y-3.6475
X4.6567Y-3.7087
X4.6571Y-3.5287
X4.6614Y-3.9217
X4.6627Y-3.7823
X4.6685Y-4.0634
X4.674Y-3.8652
X4.6777Y-4.2646
X4.6835Y-3.6662
X4.6861Y-3.5919
X4.6941Y-4.19
X4.6953Y-4.0173
X4.6957Y-4.279
X4.7Y-3.7831
X4.7003Y-4.1085
X4.7055Y-3.7153
X4.7136Y-3.6462
X4.7189Y-4.0977
X4.7294Y-3.778
X4.7323Y-3.8441
X4.7385Y-3.6213
X4.7524Y-3.8252
X4.7524Y-3.863
X4.7528Y-3.7911
X4.756Y-3.5906
X4.7587Y-3.9224
X4.7638Y-3.9445
X4.7639Y-3.668
X4.7711Y-3.7111
X4.7749Y-3.767
X4.7906Y-3.6902
X4.7933Y-4.1353
X4.7937Y-4.3296
X4.7956Y-3.6504
X4.8Y-4.1736
X4.8204Y-3.2303
X4.8215Y-4.3033
X4.8217Y-3.7395
X4.8306Y-3.6496
X4.8331Y-3.2567
X4.8366Y-4.1398
X4.8409Y-3.7283
X4.8426Y-2.9417
X4.8435Y-4.265
X4.8606Y-4.1396
X4.8625Y-3.7116
X4.8654Y-2.9417
X4.8661Y-4.2648
X4.8788Y-3.2974
X4.8902Y-2.9417
X4.8999Y-4.3325
X4.9Y-3.3105
X4.9129Y-2.9417
X4.9248Y-3.3204
X4.9375Y-2.9417
X4.9515Y-4.049
X4.9602Y-2.9417
X4.9833Y-4.1448
X4.9847Y-2.9417
X5.0071Y-4.1354
X5.0074Y-2.9417
X5.0209Y-3.5893
X5.0319Y-2.9417
X5.0547Y-2.9417
X5.0745Y-4.3126
X5.0746Y-4.2103
X5.0769Y-3.9886
X5.0792Y-2.9417
X5.1019Y-2.9417
X5.1169Y-4.2921
X5.1264Y-2.9417
X5.1491Y-3.7735
X5.1492Y-2.9417
X5.1737Y-2.9417
X5.1752Y-3.9406
X5.1937Y-3.3583
X5.1964Y-2.9417
X5.2016Y-3.9823
X5.2039Y-4.1945
X5.2106Y-3.8728
X5.2213Y-4.3194
X5.2383Y-3.8065
X5.2803Y-2.9024
X5.2824Y-3.8201
X5.2969Y-4.3559
X5.3457Y-3.8898
X5.3624Y-3.2841
X5.3833Y-3.2971
X5.4037Y-3.7406
X5.4346Y-3.3833
X5.4661Y-3.2772
X5.5425Y-3.7244
X5.6243Y-3.3199
X5.6429Y-3.2996
X5.6839Y-3.3012
X5.6892Y-3.5925
X5.7299Y-3.4693
X5.7492Y-3.5193
T2
X3.9105Y-3.4858
X3.9217Y-3.4142
X3.9217Y-3.7295
X3.9307Y-4.0004
X3.9834Y-4.2185
X3.9882Y-3.6417
X3.9884Y-3.6091
X3.9941Y-4.0004
X4.061Y-2.9571
X4.1548Y-4.228
X4.157Y-4.0218
X4.1732Y-3.3504
X4.1783Y-3.7287
X4.1784Y-4.2281
X4.3488Y-3.3504
X4.4055Y-2.9571
X4.4504Y-4.2366
X4.4646Y-2.9571
X4.4846Y-3.1224
X4.6663Y-3.9656
X4.6846Y-3.9486
X4.7213Y-3.0827
X4.7213Y-3.2724
X5.0823Y-4.1291
X5.1966Y-3.3051
X5.2555Y-2.9571
X5.3189Y-4.0969
X5.348Y-3.8126
X5.3969Y-3.6942
X5.5136Y-3.9919
X5.5593Y-3.9472
X5.5593Y-4.0079
X5.6877Y-3.8984
X5.6877Y-3.9248
X5.6877Y-3.9512
X5.6877Y-3.9776
X5.6877Y-4.0039
X5.6877Y-4.0303
X5.6877Y-4.0567
X5.7156Y-3.8984
X5.7156Y-3.9248
X5.7156Y-3.9512
X5.7156Y-3.9776
X5.7156Y-4.0039
X5.7156Y-4.0303
X5.7156Y-4.0567
X5.7276Y-3.6925
X5.7295Y-3.2858
M30
