M48
; DRILL file {KiCad 9.0.7-9.0.7~ubuntu24.04.1} date 2026-01-17T16:42:43+0100
; FORMAT={-:-/ absolute / inch / decimal}
; #@! TF.CreationDate,2026-01-17T16:42:43+01:00
; #@! TF.GenerationSoftware,Kicad,Pcbnew,9.0.7-9.0.7~ubuntu24.04.1
; #@! TF.FileFunction,Plated,1,6,PTH
FMAT,2
INCH
; #@! TA.AperFunction,Plated,PTH,ViaDrill
T1C0.0079
; #@! TA.AperFunction,Plated,PTH,ViaDrill
T2C0.0118
%
G90
G05
T1
X3.789Y-3.4461
X3.7896Y-3.4067
X3.8244Y-3.4067
X3.8248Y-3.4461
X3.8587Y-3.722
X3.8591Y-3.4854
X3.861Y-3.9354
X3.8728Y-3.5902
X3.8839Y-4.0181
X3.8909Y-3.4461
X3.8988Y-3.4858
X3.9016Y-3.6811
X3.9065Y-3.5442
X3.9122Y-3.6169
X3.9122Y-3.7063
X3.9224Y-3.6626
X3.9516Y-3.6557
X3.952Y-3.5902
X3.9622Y-3.3579
X3.9671Y-3.5463
X3.9693Y-3.4461
X3.9697Y-3.3094
X3.9847Y-4.0317
X3.9909Y-3.5098
X3.9929Y-4.0024
X4.0024Y-3.6303
X4.0039Y-3.7114
X4.0146Y-3.9161
X4.0228Y-4.0736
X4.0287Y-4.1177
X4.0441Y-4.1004
X4.0441Y-4.1341
X4.0441Y-4.1556
X4.0677Y-3.9925
X4.0697Y-3.6173
X4.0697Y-3.6559
X4.0768Y-3.4594
X4.0791Y-4.0461
X4.0949Y-3.6839
X4.0953Y-3.6039
X4.0957Y-3.722
X4.098Y-2.9949
X4.1094Y-3.4996
X4.113Y-3.9012
X4.1157Y-3.5785
X4.1227Y-4.1099
X4.1227Y-4.1677
X4.1349Y-4.0141
X4.1362Y-3.8638
X4.1484Y-3.4994
X4.1484Y-3.5807
X4.1484Y-3.6169
X4.1484Y-3.7346
X4.1548Y-4.228
X4.157Y-4.0218
X4.1614Y-3.4461
X4.1657Y-4.3587
X4.1705Y-4.1674
X4.1709Y-4.1103
X4.1713Y-3.8205
X4.1784Y-4.2281
X4.1791Y-3.5087
X4.1929Y-2.9587
X4.1964Y-3.9341
X4.1983Y-3.6149
X4.2102Y-3.7453
X4.2317Y-3.9583
X4.2417Y-3.8807
X4.2421Y-4.2075
X4.2429Y-4.0559
X4.2469Y-3.9996
X4.2511Y-3.8016
X4.2513Y-4.1113
X4.252Y-3.4547
X4.2531Y-3.5654
X4.2616Y-4.323
X4.2618Y-4.2657
X4.2622Y-4.372
X4.2674Y-4.3477
X4.2697Y-4.1654
X4.2822Y-3.8571
X4.2822Y-3.8787
X4.2846Y-3.9469
X4.2874Y-4.2465
X4.2917Y-3.7768
X4.2922Y-4.0547
X4.3008Y-4.2197
X4.3181Y-3.7213
X4.3193Y-3.7425
X4.3227Y-4.0564
X4.3228Y-3.8676
X4.3244Y-3.5646
X4.3244Y-3.6606
X4.3278Y-4.0159
X4.3295Y-4.2102
X4.3315Y-4.3819
X4.3333Y-3.8481
X4.3344Y-3.8166
X4.337Y-3.9504
X4.3376Y-4.168
X4.3432Y-4.0573
X4.3439Y-4.3317
X4.3451Y-3.65
X4.3454Y-3.7728
X4.3498Y-3.7431
X4.3541Y-3.6684
X4.3545Y-4.3142
X4.3611Y-4.032
X4.366Y-3.7037
X4.3749Y-4.3164
X4.3795Y-3.3614
X4.3804Y-3.8136
X4.3807Y-4.026
X4.383Y-4.2513
X4.3831Y-3.7835
X4.3878Y-3.9943
X4.3984Y-3.3984
X4.4024Y-4.0209
X4.4029Y-4.0525
X4.4039Y-3.3622
X4.4043Y-3.9
X4.4071Y-3.7067
X4.415Y-3.4693
X4.4173Y-3.6429
X4.4189Y-3.2673
X4.4205Y-3.4012
X4.4283Y-4.3805
X4.436Y-3.7451
X4.4421Y-3.7225
X4.4441Y-4.3657
X4.4472Y-3.8236
X4.4476Y-4.3271
X4.4514Y-4.2949
X4.4565Y-3.7398
X4.4634Y-3.5999
X4.464Y-2.968
X4.4642Y-3.5008
X4.4685Y-3.9752
X4.472Y-4.0453
X4.4724Y-4.0681
X4.4728Y-3.9413
X4.4728Y-4.3252
X4.4736Y-3.7524
X4.474Y-3.6947
X4.4793Y-2.9832
X4.4813Y-3.0354
X4.4821Y-3.8397
X4.4862Y-3.9004
X4.4883Y-3.7882
X4.4904Y-3.1858
X4.4953Y-3.7524
X4.4955Y-3.9458
X4.4992Y-3.0807
X4.5008Y-3.6939
X4.5014Y-3.1327
X4.504Y-4.0021
X4.5047Y-4.2677
X4.506Y-3.7245
X4.5094Y-4.3177
X4.5106Y-3.2319
X4.511Y-3.5403
X4.512Y-3.8067
X4.513Y-3.6349
X4.5138Y-2.8803
X4.515Y-3.3839
X4.5154Y-2.9886
X4.5157Y-2.9362
X4.5165Y-3.6762
X4.5179Y-3.615
X4.5211Y-3.8542
X4.5221Y-3.6971
X4.5224Y-3.4799
X4.5239Y-3.2112
X4.5257Y-3.7189
X4.5269Y-3.1234
X4.5294Y-3.0669
X4.5338Y-3.541
X4.5417Y-3.4047
X4.5425Y-3.4913
X4.5449Y-3.5852
X4.5463Y-3.7143
X4.5464Y-3.6183
X4.5472Y-4.2677
X4.5472Y-4.3299
X4.5474Y-2.8886
X4.5481Y-3.6779
X4.5498Y-3.2551
X4.5509Y-3.0669
X4.5517Y-3.8244
X4.5518Y-4.082
X4.5589Y-3.1642
X4.5623Y-3.438
X4.5632Y-3.7402
X4.5652Y-4.319
X4.5654Y-3.7803
X4.5667Y-3.3374
X4.5695Y-3.2713
X4.5709Y-3.0469
X4.5722Y-4.079
X4.574Y-4.1854
X4.5741Y-4.0994
X4.5759Y-3.9279
X4.5774Y-3.3189
X4.5776Y-3.8085
X4.5795Y-3.906
X4.5821Y-3.6492
X4.5821Y-3.6195
X4.5835Y-4.0618
X4.5842Y-3.5234
X4.5846Y-4.3258
X4.5851Y-3.7893
X4.5856Y-4.1165
X4.5893Y-3.5456
X4.5906Y-4.1996
X4.5933Y-3.4961
X4.5941Y-3.0354
X4.5945Y-4.2654
X4.5949Y-2.929
X4.5966Y-2.9505
X4.5975Y-2.9732
X4.5987Y-3.8981
X4.6004Y-4.0008
X4.6004Y-4.0177
X4.6004Y-4.0346
X4.6013Y-3.5812
X4.6044Y-4.1084
X4.605Y-3.7349
X4.6092Y-3.9661
X4.61Y-3.9332
X4.6106Y-4.3086
X4.611Y-3.6225
X4.6113Y-3.8025
X4.6123Y-4.0672
X4.6131Y-3.5558
X4.615Y-4.2001
X4.6158Y-3.6746
X4.6161Y-3.3846
X4.6256Y-3.7156
X4.6265Y-3.5198
X4.6283Y-3.908
X4.6311Y-4.0197
X4.6317Y-3.107
X4.6328Y-4.0459
X4.6346Y-3.7921
X4.6354Y-3.1432
X4.6368Y-3.6356
X4.637Y-3.6077
X4.6462Y-4.2698
X4.6488Y-4.0772
X4.653Y-3.623
X4.6567Y-3.7087
X4.6577Y-3.5287
X4.6589Y-3.9245
X4.6646Y-3.7823
X4.6668Y-4.0624
X4.6669Y-3.2211
X4.6701Y-3.6091
X4.6728Y-3.4752
X4.6732Y-4.3796
X4.674Y-3.8652
X4.6766Y-3.6906
X4.6775Y-4.2696
X4.6822Y-3.5919
X4.6835Y-3.6662
X4.6854Y-4.0713
X4.687Y-3.9705
X4.6894Y-3.926
X4.6898Y-3.7551
X4.6898Y-3.7362
X4.6961Y-3.9909
X4.6972Y-4.2781
X4.6975Y-4.1866
X4.6997Y-3.8161
X4.702Y-4.1134
X4.704Y-3.1509
X4.7057Y-3.7151
X4.7069Y-3.7797
X4.7086Y-3.7976
X4.7136Y-3.6462
X4.7167Y-3.5447
X4.7169Y-4.2696
X4.7205Y-4.3796
X4.7208Y-4.1034
X4.7212Y-3.9525
X4.7224Y-3.5169
X4.7258Y-3.675
X4.7297Y-3.596
X4.7324Y-3.8383
X4.7362Y-4.3085
X4.737Y-3.9374
X4.7398Y-3.6255
X4.7409Y-4.2685
X4.7429Y-4.2039
X4.7433Y-3.1929
X4.7435Y-3.8556
X4.7437Y-4.0949
X4.75Y-3.7673
X4.7519Y-3.8235
X4.752Y-4.3796
X4.7528Y-3.7911
X4.7555Y-4.0305
X4.7557Y-3.6966
X4.7573Y-3.9706
X4.7583Y-3.2339
X4.7583Y-3.2697
X4.7589Y-3.5931
X4.7622Y-4.2717
X4.7639Y-3.668
X4.7648Y-3.3892
X4.7649Y-3.9515
X4.7682Y-4.3315
X4.7689Y-3.9022
X4.7711Y-3.7111
X4.7729Y-3.9326
X4.7736Y-3.9831
X4.7749Y-3.767
X4.7779Y-3.3067
X4.7839Y-3.4807
X4.7843Y-4.0752
X4.7878Y-4.2697
X4.7886Y-3.7909
X4.7889Y-3.8975
X4.7906Y-3.6902
X4.7926Y-4.3257
X4.7933Y-4.1353
X4.7953Y-3.6508
X4.7961Y-3.2346
X4.7989Y-3.6146
X4.8Y-4.1751
X4.8035Y-3.5531
X4.8035Y-4.0752
X4.8047Y-3.9106
X4.8051Y-4.3783
X4.8083Y-3.3811
X4.8087Y-4.2693
X4.8095Y-3.6333
X4.815Y-4.3329
X4.8161Y-3.7606
X4.8162Y-3.9396
X4.8183Y-3.5014
X4.8189Y-3.8957
X4.8208Y-3.6137
X4.8217Y-3.7395
X4.822Y-3.6925
X4.8277Y-4.0449
X4.8296Y-3.5856
X4.8299Y-3.8362
X4.8303Y-3.3858
X4.8306Y-3.6496
X4.8307Y-4.3796
X4.8308Y-3.9774
X4.8314Y-2.9282
X4.8315Y-3.8652
X4.8315Y-3.8022
X4.8348Y-4.1394
X4.839Y-3.3067
X4.8394Y-3.7559
X4.8409Y-3.7283
X4.8431Y-2.9451
X4.8434Y-4.2695
X4.8437Y-3.692
X4.8476Y-3.878
X4.8524Y-3.4862
X4.8531Y-3.6091
X4.855Y-4.1436
X4.8563Y-3.6424
X4.8563Y-3.7923
X4.8625Y-3.7116
X4.863Y-3.9375
X4.865Y-4.2693
X4.865Y-4.2913
X4.8654Y-2.9449
X4.8659Y-4.0406
X4.8661Y-3.8395
X4.8728Y-3.597
X4.878Y-2.9283
X4.8798Y-3.3417
X4.8807Y-3.6419
X4.8815Y-4.1
X4.8858Y-3.7315
X4.8885Y-3.7884
X4.8902Y-2.9449
X4.8905Y-3.9333
X4.8907Y-3.8496
X4.8912Y-3.8888
X4.8942Y-3.5875
X4.8948Y-3.999
X4.8977Y-3.8693
X4.8984Y-4.2685
X4.8984Y-4.3252
X4.8988Y-4.1751
X4.8993Y-3.3067
X4.8995Y-3.9787
X4.9016Y-3.3421
X4.9043Y-3.949
X4.9079Y-4.0787
X4.9094Y-4.3796
X4.9102Y-3.7925
X4.9129Y-2.9449
X4.9193Y-3.6988
X4.9213Y-3.5055
X4.9234Y-4.1939
X4.9236Y-3.5854
X4.9248Y-3.3204
X4.9252Y-2.9283
X4.9254Y-4.297
X4.9263Y-4.0893
X4.9274Y-3.6496
X4.9286Y-4.1382
X4.9288Y-3.0383
X4.9339Y-4.271
X4.9375Y-2.9449
X4.9392Y-3.7461
X4.9469Y-3.5787
X4.9483Y-3.6551
X4.9512Y-4.0724
X4.9533Y-3.8343
X4.9537Y-3.5243
X4.9567Y-4.2661
X4.9567Y-4.3319
X4.9602Y-2.9449
X4.9664Y-4.089
X4.9681Y-3.5421
X4.9698Y-4.1185
X4.9724Y-2.9283
X4.973Y-3.0347
X4.9818Y-3.7066
X4.9833Y-4.1422
X4.9846Y-3.7433
X4.9847Y-2.9449
X4.9933Y-3.8358
X4.9976Y-3.7602
X4.9983Y-3.5893
X5.0039Y-4.3311
X5.0043Y-4.2661
X5.0055Y-4.137
X5.0074Y-2.9449
X5.0106Y-4.0752
X5.0142Y-3.8429
X5.0154Y-3.3333
X5.0197Y-2.9283
X5.0197Y-3.0366
X5.0209Y-3.5893
X5.0306Y-4.0802
X5.0319Y-2.9449
X5.041Y-3.8685
X5.0436Y-3.5274
X5.0441Y-3.9331
X5.0496Y-3.9028
X5.0512Y-4.3303
X5.0547Y-2.9449
X5.0665Y-3.0366
X5.0669Y-2.9283
X5.0669Y-4.2661
X5.0746Y-4.2103
X5.0792Y-2.9449
X5.0806Y-3.9917
X5.0913Y-4.1134
X5.1019Y-2.9449
X5.1079Y-3.9051
X5.1117Y-3.9927
X5.1142Y-2.9283
X5.1142Y-2.9945
X5.1174Y-3.3241
X5.1181Y-4.0931
X5.1264Y-2.9461
X5.1276Y-3.7715
X5.1337Y-3.3095
X5.1421Y-4.0984
X5.1445Y-3.7835
X5.1492Y-2.9461
X5.1496Y-3.3697
X5.1556Y-3.3062
X5.161Y-2.9283
X5.1614Y-2.9945
X5.1618Y-3.8657
X5.1659Y-3.7513
X5.1681Y-3.8906
X5.1737Y-2.9457
X5.1752Y-3.9406
X5.1772Y-4.3831
X5.1937Y-3.3592
X5.1964Y-2.9457
X5.2016Y-3.9823
X5.2083Y-2.9283
X5.2083Y-2.9945
X5.2106Y-3.8728
X5.2134Y-3.8134
X5.2165Y-4.2165
X5.2181Y-3.9362
X5.2181Y-4.2984
X5.2331Y-2.9898
X5.2361Y-3.4627
X5.2383Y-3.8065
X5.2406Y-4.3024
X5.2484Y-3.7634
X5.2553Y-2.9942
X5.2555Y-3.7913
X5.2558Y-2.8886
X5.2685Y-3.8858
X5.2695Y-3.7675
X5.2726Y-4.2767
X5.2815Y-3.9681
X5.2824Y-3.8201
X5.2902Y-2.9941
X5.2957Y-3.8571
X5.2972Y-3.9469
X5.2979Y-3.9873
X5.3038Y-2.9088
X5.3091Y-3.7961
X5.3106Y-3.9189
X5.3193Y-3.8409
X5.3232Y-3.6951
X5.3273Y-2.9154
X5.3311Y-3.3122
X5.3425Y-3.9858
X5.3453Y-3.9535
X5.3457Y-3.8898
X5.3575Y-3.6163
X5.3582Y-2.8815
X5.3673Y-3.2827
X5.3679Y-4.0585
X5.3831Y-3.965
X5.384Y-4.0457
X5.3854Y-3.7866
X5.3906Y-3.3008
X5.3931Y-4.0273
X5.4028Y-3.7709
X5.4028Y-3.8008
X5.4036Y-3.7404
X5.4037Y-3.0654
X5.4139Y-3.0138
X5.4161Y-3.3795
X5.4191Y-3.7539
X5.4217Y-3.3575
X5.4494Y-3.0413
X5.4651Y-2.9449
X5.4651Y-3.6646
X5.4661Y-3.2772
X5.4704Y-2.8815
X5.4844Y-3.012
X5.4857Y-3.665
X5.4928Y-3.4108
X5.4928Y-3.4403
X5.4928Y-3.4699
X5.4928Y-3.5007
X5.4928Y-3.5301
X5.5062Y-3.6644
X5.5091Y-2.9197
X5.5236Y-3.4108
X5.5236Y-3.4403
X5.5238Y-3.4699
X5.5238Y-3.5007
X5.5238Y-3.5301
X5.5252Y-3.2764
X5.5272Y-3.6642
X5.5455Y-3.7274
X5.5543Y-3.4108
X5.5543Y-3.4403
X5.5547Y-3.4699
X5.5547Y-3.5007
X5.5547Y-3.5301
X5.5851Y-3.4108
X5.5851Y-3.4403
X5.5857Y-3.4699
X5.5857Y-3.5007
X5.5857Y-3.5301
X5.6158Y-3.4108
X5.6158Y-3.4403
X5.6166Y-3.4699
X5.6166Y-3.5007
X5.6166Y-3.5301
X5.6243Y-3.3199
X5.6429Y-3.2996
X5.6673Y-3.4567
X5.6839Y-3.3012
X5.7004Y-3.4461
X5.7004Y-3.4866
X5.7008Y-3.4024
X5.7134Y-3.5409
X5.7299Y-3.4421
X5.7299Y-3.4693
X5.7335Y-3.5839
X5.7429Y-3.6437
X5.7492Y-3.3839
X5.7492Y-3.5193
T2
X3.9834Y-4.2185
X4.0681Y-4.2244
X4.0681Y-4.2846
X4.4075Y-4.2602
X4.4673Y-4.2441
X4.4677Y-2.9122
X4.6417Y-2.9311
X4.6417Y-2.9937
X4.661Y-3.9673
X4.689Y-2.9311
X4.689Y-2.9937
X4.6898Y-3.9485
X4.7077Y-4.0716
X4.7297Y-4.0716
X4.7362Y-2.9311
X4.7362Y-2.9937
X4.7835Y-2.8839
X4.7835Y-2.9937
X4.8925Y-3.2043
X4.8925Y-3.2354
X4.9235Y-3.2043
X4.9235Y-3.2354
X4.9544Y-3.2043
X4.9544Y-3.2354
X4.9854Y-3.2043
X4.9854Y-3.2354
X5.0163Y-3.2043
X5.0163Y-3.2354
X5.0473Y-3.2043
X5.0473Y-3.2354
X5.0782Y-3.2039
X5.0782Y-3.235
X5.1055Y-4.3343
X5.1092Y-3.2039
X5.1092Y-3.235
X5.128Y-4.3339
X5.1402Y-3.2039
X5.1402Y-3.235
X5.1461Y-4.2661
X5.1496Y-4.2157
X5.1496Y-4.3339
X5.1713Y-4.3339
X5.1846Y-4.2642
X5.1854Y-4.213
X5.1966Y-3.3051
X5.2008Y-4.3748
X5.2303Y-3.5594
X5.2354Y-3.6146
X5.2358Y-3.3614
X5.2398Y-3.237
X5.2519Y-4.2691
X5.2693Y-3.0929
X5.2727Y-3.4435
X5.2737Y-3.5618
X5.2898Y-4.3728
X5.2913Y-4.2205
X5.298Y-3.5024
X5.3378Y-3.1173
X5.3582Y-4.1154
X5.3582Y-4.1374
X5.3606Y-3.3827
X5.3807Y-4.1154
X5.3807Y-4.1374
X5.3961Y-3.2476
X5.3969Y-3.6967
X5.4015Y-4.1154
X5.4016Y-4.1374
X5.4343Y-3.2028
X5.4354Y-3.0945
X5.4421Y-3.8768
X5.4421Y-3.9004
X5.4451Y-4.2566
X5.4451Y-4.2871
X5.4451Y-4.3177
X5.4475Y-3.7245
X5.464Y-4.1854
X5.464Y-4.2063
X5.464Y-4.2272
X5.4645Y-3.8768
X5.4645Y-3.9004
X5.4793Y-4.2566
X5.4793Y-4.2871
X5.4793Y-4.3177
X5.4819Y-3.137
X5.4821Y-3.203
X5.502Y-4.2445
X5.5089Y-4.1008
X5.5089Y-4.1268
X5.5117Y-3.8768
X5.5117Y-3.9004
X5.5136Y-3.9919
X5.5189Y-3.1358
X5.5307Y-4.2268
X5.5336Y-4.1008
X5.5336Y-4.1268
X5.5551Y-3.1366
X5.5583Y-4.1008
X5.5583Y-4.1268
X5.5593Y-3.9472
X5.5593Y-4.0079
X5.583Y-4.1008
X5.583Y-4.1268
X5.5941Y-3.2764
X5.6059Y-3.1748
X5.6295Y-3.078
X5.6606Y-3.1472
X5.6877Y-3.8984
X5.6877Y-3.9248
X5.6877Y-3.9512
X5.6877Y-3.9776
X5.6877Y-4.0039
X5.6877Y-4.0303
X5.6877Y-4.0567
X5.7028Y-3.1469
X5.7142Y-3.6941
X5.7169Y-3.8984
X5.7169Y-3.9248
X5.7169Y-3.9512
X5.7169Y-3.9776
X5.7169Y-4.0039
X5.7169Y-4.0303
X5.7169Y-4.0567
X5.7193Y-3.2031
X5.7484Y-3.3236
X5.8071Y-3.4807
M30
