%TF.GenerationSoftware,KiCad,Pcbnew,9.0.6-9.0.6~ubuntu24.04.1*%
%TF.CreationDate,2025-11-11T14:54:16+01:00*%
%TF.ProjectId,BB3plus CM5 STM32H7 module,42423370-6c75-4732-9043-4d352053544d,r1B1*%
%TF.SameCoordinates,Original*%
%TF.FileFunction,Copper,L3,Inr*%
%TF.FilePolarity,Positive*%
%FSLAX46Y46*%
G04 Gerber Fmt 4.6, Leading zero omitted, Abs format (unit mm)*
G04 Created by KiCad (PCBNEW 9.0.6-9.0.6~ubuntu24.04.1) date 2025-11-11 14:54:16*
%MOMM*%
%LPD*%
G01*
G04 APERTURE LIST*
%TA.AperFunction,ViaPad*%
%ADD10C,0.420000*%
%TD*%
%TA.AperFunction,ViaPad*%
%ADD11C,0.450000*%
%TD*%
%TA.AperFunction,ViaPad*%
%ADD12C,0.500000*%
%TD*%
%TA.AperFunction,Conductor*%
%ADD13C,0.127000*%
%TD*%
%TA.AperFunction,Conductor*%
%ADD14C,0.152400*%
%TD*%
G04 APERTURE END LIST*
D10*
%TO.N,/STM32H7 MCU/RCC_OSC_IN*%
X121028482Y-100368893D03*
%TO.N,/STM32H7 MCU/RCC_OSC_OUT*%
X121231773Y-99888536D03*
%TO.N,GND*%
X139517500Y-89665000D03*
D11*
X131994414Y-83948668D03*
D10*
X122150000Y-108330000D03*
X127100000Y-110010000D03*
D12*
X130560000Y-81380000D03*
D10*
X112870000Y-94600000D03*
D12*
X125056250Y-82180000D03*
D10*
X115500000Y-108290000D03*
X124450000Y-108330000D03*
D12*
X129773750Y-81380000D03*
D11*
X110760000Y-82180000D03*
D10*
X118700000Y-111242200D03*
X105095100Y-89008617D03*
X124700000Y-111242200D03*
D12*
X125056250Y-81390000D03*
X144467076Y-102370000D03*
X99143279Y-91569450D03*
D10*
X134173817Y-97029568D03*
X120035143Y-93346233D03*
X124720001Y-96330000D03*
X110372200Y-95830000D03*
X121630000Y-96290000D03*
X140303750Y-89665000D03*
D12*
X138367346Y-94602418D03*
D10*
X127500000Y-74250000D03*
D11*
X110570000Y-83680000D03*
D12*
X126628750Y-81390000D03*
X125842500Y-82180000D03*
D10*
X125900000Y-108340000D03*
X132997223Y-87952670D03*
D12*
X145140000Y-93830000D03*
X97950000Y-89070000D03*
D10*
X125900000Y-110030000D03*
D12*
X127130000Y-108370000D03*
D10*
X128300000Y-109990000D03*
X117720000Y-96320000D03*
D11*
X99800000Y-83820000D03*
D12*
X145210000Y-101700000D03*
D10*
X122580000Y-89030000D03*
X123900000Y-74250000D03*
X129836000Y-101414043D03*
X142642500Y-87384700D03*
D11*
X113400000Y-75110000D03*
D10*
X139517500Y-87384700D03*
X142642500Y-86634500D03*
X125100000Y-74250000D03*
X139517500Y-88134900D03*
D12*
X144467076Y-99020000D03*
D10*
X113610000Y-100110000D03*
D11*
X118430000Y-79850000D03*
D12*
X144467076Y-101030000D03*
X115500000Y-74300000D03*
X119100000Y-74300000D03*
X140046186Y-101394279D03*
X141207076Y-101800000D03*
D10*
X139517500Y-86634500D03*
D12*
X102000000Y-97690000D03*
X145210000Y-99020000D03*
D10*
X141090000Y-88134900D03*
D12*
X142990000Y-78180000D03*
D10*
X117830000Y-86000000D03*
X120795100Y-93893015D03*
D12*
X119100000Y-76180000D03*
X103330000Y-107300000D03*
X144467076Y-101700000D03*
X98930000Y-83820000D03*
X98930000Y-85370000D03*
D10*
X129899999Y-74250000D03*
D11*
X99800000Y-84595000D03*
D10*
X104715642Y-104392368D03*
X131100000Y-76170000D03*
X114310000Y-108280000D03*
D12*
X132850000Y-90410000D03*
X117900000Y-76180000D03*
X97950000Y-87190000D03*
X127415000Y-81390000D03*
X127415000Y-82180000D03*
X138060000Y-78600000D03*
X140350000Y-83240000D03*
D10*
X129870000Y-76170000D03*
X116385100Y-92690200D03*
D12*
X120300000Y-74300000D03*
D10*
X119110000Y-99720000D03*
X104380864Y-90708847D03*
X141861250Y-86634500D03*
X122700000Y-111242200D03*
D12*
X144467076Y-100360000D03*
D10*
X133500000Y-74250000D03*
D12*
X115500000Y-76180000D03*
D10*
X125060000Y-91070000D03*
D12*
X108220000Y-107290000D03*
D10*
X103100000Y-89348733D03*
D12*
X133386776Y-108409620D03*
X116700000Y-74300000D03*
D10*
X119919000Y-100392629D03*
D12*
X98930000Y-84595000D03*
X101180000Y-102340000D03*
D10*
X140298750Y-87384700D03*
X117510000Y-89280000D03*
X113480000Y-88920000D03*
X141876250Y-88917500D03*
X121891935Y-91811103D03*
X105931091Y-105850906D03*
X141090000Y-88917500D03*
X119120003Y-94900000D03*
D12*
X101340000Y-90970000D03*
D11*
X99800000Y-85370000D03*
D12*
X139240000Y-79680000D03*
D10*
X112440000Y-92500000D03*
X124568405Y-100304900D03*
X114197849Y-102970206D03*
X120700000Y-111242200D03*
D12*
X121500000Y-76180000D03*
D10*
X115560000Y-110040000D03*
X122700000Y-74230000D03*
D12*
X126628750Y-82180000D03*
D10*
X132120000Y-101150000D03*
D12*
X145210000Y-99690000D03*
X128987500Y-81380000D03*
D11*
X119575543Y-103418217D03*
D10*
X118620000Y-91670000D03*
D12*
X141207076Y-100260000D03*
D10*
X107170000Y-76810000D03*
X124720000Y-88860000D03*
D12*
X124270000Y-81390000D03*
X99340000Y-90050000D03*
D10*
X133310236Y-95589764D03*
D12*
X129773750Y-82170000D03*
D10*
X120860000Y-83050000D03*
X139517500Y-88917500D03*
X123500000Y-102540000D03*
D12*
X128201250Y-82180000D03*
X134570000Y-88960000D03*
D10*
X135210000Y-93810000D03*
X115300000Y-79510000D03*
X119120002Y-95380000D03*
D12*
X133090000Y-82220000D03*
X147500000Y-88410000D03*
D10*
X114540000Y-109670000D03*
D11*
X103330000Y-108830000D03*
D12*
X120300000Y-76180000D03*
D10*
X104715642Y-105859588D03*
D12*
X117900000Y-74300000D03*
D10*
X116807876Y-99011481D03*
X142662500Y-88917500D03*
X116680479Y-84234900D03*
X141861250Y-87384700D03*
X141080000Y-86634500D03*
X127500000Y-77450000D03*
X141876250Y-89665000D03*
D12*
X145210000Y-103040000D03*
D10*
X124950000Y-93950000D03*
X136080000Y-91950000D03*
X128640000Y-76160000D03*
D12*
X145210000Y-100360000D03*
X128987500Y-82170000D03*
D10*
X105810000Y-110710000D03*
D12*
X142090000Y-83220000D03*
D11*
X118850000Y-80350000D03*
D10*
X121025683Y-86027215D03*
X115699500Y-96273200D03*
D12*
X104640000Y-86390000D03*
D10*
X119950000Y-89330000D03*
D12*
X97200000Y-81400000D03*
D11*
X113910000Y-79310000D03*
D12*
X125842500Y-81390000D03*
X98894999Y-81390000D03*
D10*
X120538179Y-108533998D03*
X105939773Y-104401049D03*
D12*
X98894999Y-81919999D03*
X121500000Y-73110000D03*
X145210000Y-102370000D03*
D10*
X132290000Y-74250000D03*
X122960000Y-94700000D03*
X116966087Y-94866087D03*
X122480000Y-93790000D03*
X140298750Y-86634500D03*
D12*
X99840000Y-101610000D03*
D10*
X132290000Y-76160000D03*
D12*
X132990000Y-85380000D03*
D10*
X122330000Y-95520000D03*
X141090000Y-89665000D03*
X120399830Y-102590170D03*
D11*
X113040000Y-107610000D03*
D10*
X120860000Y-82140000D03*
X126300000Y-76160000D03*
D11*
X102723980Y-92331807D03*
D12*
X137060000Y-82490000D03*
D10*
X118000000Y-108300000D03*
X108250000Y-108350000D03*
D12*
X130560000Y-82170000D03*
D10*
X120650000Y-95690000D03*
X102100000Y-89348733D03*
X142662500Y-88134900D03*
X125190000Y-76150000D03*
D11*
X120135003Y-103418200D03*
D10*
X141080000Y-87384700D03*
D11*
X111900000Y-75110000D03*
D12*
X100109309Y-89569684D03*
D10*
X119970000Y-91182415D03*
X131090000Y-74250000D03*
D12*
X124270000Y-82180000D03*
X132100000Y-111520000D03*
D10*
X140303750Y-88917500D03*
X116700000Y-108280000D03*
D12*
X146010000Y-84420000D03*
D11*
X101178810Y-107149539D03*
D12*
X144850000Y-79930000D03*
D10*
X106285184Y-90144816D03*
X140303750Y-88134900D03*
X126300000Y-74250000D03*
X118785291Y-93741287D03*
X128700000Y-74250000D03*
D12*
X144467076Y-103040000D03*
D10*
X141876250Y-88134900D03*
X133490000Y-76150000D03*
X135410000Y-84130000D03*
X113890000Y-81190000D03*
D12*
X145210000Y-101030000D03*
D11*
X114790000Y-93480000D03*
D12*
X116700000Y-76180000D03*
X128700000Y-108340000D03*
X128201250Y-81390000D03*
D10*
X117364782Y-82774413D03*
X142662500Y-89665000D03*
D12*
X106480000Y-86390000D03*
D10*
X109430000Y-111107800D03*
D12*
X98894999Y-82450000D03*
D10*
X123598598Y-97523941D03*
D12*
X144467076Y-99690000D03*
X100110000Y-88070000D03*
D10*
X117074923Y-100739216D03*
X116506022Y-110022352D03*
D12*
X136160000Y-85920000D03*
D10*
X122690000Y-86000000D03*
D12*
X99144345Y-92538939D03*
D10*
%TO.N,ETH_MDIO*%
X122719891Y-98174839D03*
X108768200Y-98520000D03*
%TO.N,ETH_CRS_DV*%
X109798654Y-98237630D03*
X122680000Y-97440000D03*
%TO.N,ETH_TX_EN*%
X105150775Y-101780775D03*
X117021179Y-99907256D03*
%TO.N,ETH_TXD1*%
X116319802Y-99211311D03*
X104470000Y-99090000D03*
%TO.N,ETH_MDC*%
X106587522Y-99925724D03*
X117673902Y-102765865D03*
%TO.N,ETH_RXD0*%
X110098400Y-97742917D03*
X120201816Y-97492893D03*
%TO.N,ETH_RXD1*%
X123127828Y-98500138D03*
X111870000Y-99060000D03*
%TO.N,ETH_TXD0*%
X117126896Y-96583784D03*
X105040000Y-97620000D03*
D12*
%TO.N,+3V3*%
X143780000Y-79940000D03*
D10*
X115520000Y-93420000D03*
X122010000Y-103510000D03*
D12*
X133840000Y-78560000D03*
D10*
X108410000Y-104770000D03*
X109943800Y-105993134D03*
X107790000Y-101670000D03*
D12*
X130970000Y-106870000D03*
X141180409Y-104820000D03*
X140553743Y-104160000D03*
D11*
X97570000Y-83350000D03*
D12*
X141807076Y-104160000D03*
X135580000Y-79180000D03*
X100430000Y-97630000D03*
X141180409Y-104160000D03*
D10*
X121002312Y-93167319D03*
D11*
X101300000Y-92500000D03*
D10*
X118961414Y-93121003D03*
X117490000Y-94377086D03*
X119599402Y-96459698D03*
X121186988Y-94263012D03*
D11*
X97020000Y-83350000D03*
D10*
X117240000Y-93330000D03*
D12*
X141100000Y-79670000D03*
D10*
X121520000Y-103510000D03*
X110070000Y-96770000D03*
X120698974Y-97117793D03*
D12*
X139927076Y-104820000D03*
X141807076Y-104820000D03*
X111950000Y-108210000D03*
X132980000Y-91810000D03*
D10*
X120720004Y-96293014D03*
D12*
X140553743Y-104820000D03*
D10*
X109980000Y-102967194D03*
X121820000Y-82160000D03*
D11*
X97930000Y-80950000D03*
X101306334Y-91670417D03*
D10*
X119555473Y-96005473D03*
D11*
X107150000Y-79960000D03*
D10*
X111940000Y-94150000D03*
X118480200Y-96070039D03*
D12*
X130700000Y-108300000D03*
X142390000Y-80640000D03*
D10*
X121680000Y-93730000D03*
X103320000Y-101410000D03*
D12*
X139927076Y-104160000D03*
X140180000Y-79650000D03*
D10*
%TO.N,SDMMC_D1*%
X116567292Y-90057292D03*
X106835894Y-89356263D03*
%TO.N,/STM32H7 MCU/VDD_SDC*%
X119525319Y-94364700D03*
X121281302Y-95681167D03*
X116850000Y-101620000D03*
X120358941Y-91982218D03*
X115904900Y-95000459D03*
X116850000Y-102050000D03*
X118334900Y-99682478D03*
X116460280Y-96249282D03*
X118280000Y-94200000D03*
X116850000Y-102480000D03*
X117760000Y-92400000D03*
%TO.N,TFT_DVID_CEC*%
X124150000Y-78720000D03*
X132380000Y-82551603D03*
D11*
%TO.N,/STM32H7 MCU/VDDSMPS*%
X119120004Y-100293011D03*
D10*
X119281498Y-101368227D03*
X121247484Y-101168800D03*
%TO.N,~{RESET_OUT}*%
X105588800Y-102152467D03*
X101540000Y-89380000D03*
X120470000Y-106780000D03*
X121130056Y-99114635D03*
X138839999Y-83240000D03*
X116280000Y-79140000D03*
X106120000Y-78900000D03*
X116100000Y-106180000D03*
X123900000Y-84010000D03*
X132180000Y-106540000D03*
X119010000Y-103410000D03*
%TO.N,UART1_RX{slash}DIN1*%
X107747600Y-94840000D03*
X110535783Y-102854217D03*
X134540000Y-110640000D03*
X110453600Y-109660000D03*
X114758433Y-91828723D03*
%TO.N,ETH_RX_ERR*%
X107290000Y-86690000D03*
X123780577Y-85778890D03*
X106880000Y-87820000D03*
X107484600Y-100540000D03*
X107982274Y-104428035D03*
%TO.N,DVID_SEL2*%
X131920000Y-85323700D03*
X124237690Y-98776026D03*
X130670000Y-96100000D03*
X128260000Y-99130000D03*
%TO.N,~{DIB1_CSA}*%
X119813800Y-108339679D03*
X115869817Y-103338549D03*
X115614445Y-97139016D03*
%TO.N,+VAUX*%
X128893990Y-106941846D03*
X117221877Y-106682348D03*
X114412800Y-101654283D03*
%TO.N,~{DIB3_CSA}*%
X116843616Y-104372988D03*
X112729512Y-95112174D03*
X123315844Y-105246317D03*
%TO.N,TFT_DVID_TX1_P*%
X124211500Y-74720000D03*
%TO.N,~{SYSMCU_CS}*%
X118537378Y-103184900D03*
%TO.N,~{TFT_IRQ}*%
X123914400Y-104244232D03*
X122330000Y-110090000D03*
%TO.N,MCU_USB_UP_TX-*%
X114250000Y-93640000D03*
%TO.N,SDA*%
X124500000Y-84890000D03*
X136920000Y-83840000D03*
X112960000Y-97120000D03*
X125090186Y-84338512D03*
X111420000Y-85440000D03*
%TO.N,SCL*%
X111020000Y-84860000D03*
X136330474Y-83379966D03*
X111290000Y-96700000D03*
X110914900Y-93941349D03*
X124458781Y-84086212D03*
X114610000Y-96694422D03*
X123932026Y-84767200D03*
%TO.N,UART0_TX{slash}DOUT3*%
X125185385Y-105110916D03*
X119050000Y-100850000D03*
X125054900Y-106524499D03*
X122561600Y-102644900D03*
%TO.N,TFT_DVID_TX2_P*%
X123003000Y-74720000D03*
%TO.N,~{DIB4_IRQ}*%
X122805023Y-105140816D03*
%TO.N,WDG_IN*%
X123597875Y-108326717D03*
%TO.N,RS485_TX_EN{slash}DOUT2*%
X127531420Y-91167500D03*
X119900000Y-111242200D03*
X127776029Y-103636507D03*
%TO.N,TFT_DVID_TX2_N*%
X123580000Y-74720000D03*
%TO.N,UART0_RX{slash}DIN2*%
X127139764Y-105080236D03*
%TO.N,TFT_DVID_CLK_P*%
X126611500Y-74720000D03*
%TO.N,~{DIB3_IRQ}*%
X118885600Y-108275398D03*
%TO.N,~{DIB5_CSA}*%
X117152839Y-103307160D03*
X123570000Y-109000000D03*
%TO.N,TFT_DVID_CLK_N*%
X127188500Y-74720000D03*
%TO.N,DIB1_USB_D+*%
X114180000Y-95310000D03*
%TO.N,TFT_DVID_TX0_P*%
X125411500Y-74720000D03*
%TO.N,XSPIM_P1_IO10*%
X122448859Y-91787577D03*
X135109086Y-97558717D03*
D11*
%TO.N,/STM32H7 MCU/VLXSMPS*%
X118390000Y-100770000D03*
D10*
%TO.N,~{DIB2_CSA}*%
X117410944Y-109616231D03*
X116380000Y-103180000D03*
X116601990Y-106670360D03*
X121758811Y-109972005D03*
%TO.N,SDMMC_D0*%
X115468671Y-88750113D03*
X106557366Y-88344060D03*
%TO.N,~{DIB4_CSA}*%
X119371139Y-96928389D03*
X125812569Y-97392097D03*
X126575300Y-105212960D03*
%TO.N,MCU_USB_UP_TX+*%
X113633790Y-93640000D03*
%TO.N,TFT_DVID_TX0_N*%
X125988500Y-74720000D03*
%TO.N,UART1_TX{slash}DOUT1*%
X112970000Y-109907800D03*
X109860840Y-101937594D03*
X107978200Y-96560000D03*
X129970000Y-109020000D03*
%TO.N,DIB1_USB_D-*%
X113630000Y-95310000D03*
%TO.N,XSPIM_P1_IO5*%
X126537965Y-94146500D03*
X131110000Y-98190000D03*
%TO.N,~{DIB5_IRQ}*%
X110380000Y-95042200D03*
X111617154Y-102324455D03*
X111290000Y-107983600D03*
%TO.N,~{DIB1_IRQ}*%
X124660000Y-103600000D03*
X119229950Y-106426099D03*
X124430000Y-106021917D03*
%TO.N,~{SYSMCU_IRQ}*%
X123023837Y-108331758D03*
%TO.N,~{DIB2_IRQ}*%
X119269810Y-108687402D03*
%TO.N,SDMMC_CLK*%
X100840000Y-90070000D03*
X115478477Y-91904983D03*
%TO.N,TFT_DVID_TX1_N*%
X124788500Y-74720000D03*
%TO.N,BOOT0*%
X113500000Y-100970000D03*
X111330000Y-96100000D03*
X132619898Y-109713500D03*
%TO.N,~{ETH_LINK_ACT}*%
X103360000Y-110250000D03*
X116200000Y-109588400D03*
X108245210Y-109804790D03*
%TO.N,ETH_TXRX_B-*%
X102720000Y-105006500D03*
%TO.N,ETH_TXRX_A-*%
X102720000Y-104150000D03*
X102180000Y-103470000D03*
%TO.N,~{ETH_LINK100}*%
X117513200Y-110128200D03*
X108240000Y-110470000D03*
%TO.N,ETH_TXRX_B+*%
X102720000Y-105553500D03*
%TO.N,ETH_TXRX_A+*%
X102330000Y-104590000D03*
%TO.N,XSPIM_P1_IO2*%
X123030549Y-93776171D03*
X131270000Y-98820000D03*
%TO.N,XSPIM_P1_IO0*%
X123968729Y-92504340D03*
X130241382Y-95794988D03*
X132350000Y-98370000D03*
%TO.N,XSPIM_P1_IO12*%
X135700000Y-101240000D03*
X123350000Y-96324213D03*
%TO.N,XSPI_M_P1_CLK*%
X134510000Y-97970000D03*
X125687715Y-92840700D03*
%TO.N,XSPIM_P1_IO9*%
X134850000Y-96420000D03*
X126956390Y-91167500D03*
%TO.N,XSPIM_P1_IO13*%
X126940236Y-95509764D03*
X134550000Y-100250000D03*
%TO.N,XSPIM_P1_IO14*%
X134566750Y-101276750D03*
X122920000Y-95400000D03*
%TO.N,XSPIM_P1_IO15*%
X134150000Y-100790000D03*
X124100000Y-94780000D03*
%TO.N,DVID_SEL1*%
X130800000Y-85590000D03*
X124218391Y-99905100D03*
X130952182Y-83978412D03*
X129048136Y-101390000D03*
%TO.N,XSPIM_P1_IO4*%
X129740000Y-99190000D03*
X125456841Y-95150906D03*
%TO.N,~{XSPIM_P2_CS1}*%
X112110000Y-80750000D03*
%TO.N,XSPIM_P2_DQS0*%
X115240000Y-80580000D03*
X118289802Y-89630000D03*
%TO.N,TFT_DVID_SDA*%
X122438467Y-82050867D03*
%TO.N,TFT_DVID_SCL*%
X122760000Y-82720000D03*
%TO.N,XSPIM_P1_IO8*%
X133844787Y-95694047D03*
X124313434Y-91123500D03*
%TO.N,XSPIM_P1_IO11*%
X135769816Y-100419816D03*
X124168298Y-96225191D03*
%TO.N,XSPI_M_P1_DQS0*%
X133820000Y-98700000D03*
X123348876Y-92517921D03*
%TO.N,SDMMC_D6*%
X105611314Y-89613219D03*
X116707704Y-88942769D03*
%TO.N,SDMMC_D2*%
X106777613Y-89906645D03*
X114510000Y-89913700D03*
%TO.N,SDMMC_D3*%
X105660000Y-88020000D03*
X112450900Y-87280000D03*
%TO.N,SDMMC_CMD*%
X100950000Y-89520000D03*
X101320000Y-87160000D03*
%TO.N,SDMMC_D7*%
X105565211Y-90132780D03*
X117172017Y-90316948D03*
%TO.N,SDMMC_D5*%
X113950000Y-99070000D03*
X105609996Y-89091990D03*
%TO.N,SDMMC_D4*%
X114185421Y-100222900D03*
X105610694Y-88569434D03*
%TO.N,XSPIM_P1_IO7*%
X133490000Y-96300000D03*
X123770260Y-91364335D03*
%TO.N,XSPIM_P1_IO1*%
X123270000Y-91670000D03*
X132420167Y-96860995D03*
%TO.N,XSPI_M_P1_DQS1*%
X134890000Y-99540000D03*
X122161340Y-92286453D03*
%TO.N,XSPIM_P1_IO6*%
X125156447Y-92699280D03*
X131214239Y-95283592D03*
%TO.N,XSPIM_P1_IO3*%
X126610000Y-95080000D03*
X132539959Y-99979181D03*
%TO.N,~{LED_ACT}*%
X112740000Y-111067800D03*
%TO.N,~{XSPI_M_P1_CS}*%
X125650000Y-90900000D03*
X135780000Y-98800000D03*
%TO.N,REAR_DVID_TX1_N*%
X129588500Y-74720000D03*
%TO.N,REAR_DVID_CLK_P*%
X131411500Y-74720000D03*
%TO.N,REAR_DVID_TX0_N*%
X130788500Y-74720000D03*
%TO.N,REAR_DVID_TX1_P*%
X129011500Y-74720000D03*
%TO.N,REAR_DVID_CLK_N*%
X131988500Y-74720000D03*
%TO.N,REAR_DVID_TX2_N*%
X128388500Y-74720000D03*
%TO.N,REAR_DVID_TX0_P*%
X130211500Y-74720000D03*
%TO.N,REAR_DVID_TX2_P*%
X127811500Y-74720000D03*
%TO.N,REAR_DVID_SDA*%
X122500000Y-78630000D03*
X133390000Y-75420000D03*
%TO.N,REAR_DVID_CEC*%
X132376900Y-81484147D03*
X124144975Y-76125072D03*
%TO.N,REAR_DVID_SCL*%
X134120000Y-73720000D03*
D11*
%TO.N,+1V8*%
X101300000Y-81910000D03*
D10*
X112142500Y-81830000D03*
X121530000Y-88600000D03*
X119724329Y-92613012D03*
X117880000Y-81390000D03*
X116760000Y-79830000D03*
X121801056Y-92729679D03*
X117400236Y-83319764D03*
X123507006Y-94274747D03*
X122471949Y-94983012D03*
X120865507Y-91264965D03*
D11*
X98910000Y-87220000D03*
X131690000Y-108310000D03*
X100700000Y-83000000D03*
X131710000Y-107010000D03*
X99326423Y-88538095D03*
D10*
X131450000Y-100090000D03*
X116397000Y-83210000D03*
D11*
X101300000Y-82990000D03*
D10*
X118928842Y-91234901D03*
D11*
X101300000Y-82460000D03*
D10*
X133051735Y-96685872D03*
X123250000Y-88550000D03*
X122696657Y-92700800D03*
%TO.N,GPIO_VREF*%
X125127678Y-103868622D03*
%TO.N,DIB4_SCLK*%
X125760000Y-103440000D03*
X121500000Y-111242200D03*
%TO.N,DIB4_MISO*%
X121108311Y-108456110D03*
X114810795Y-94381613D03*
X116240000Y-104190000D03*
%TO.N,DIB4_MOSI*%
X116473377Y-103693176D03*
X115474900Y-94344326D03*
X119909047Y-104225100D03*
%TO.N,LTDC_G2*%
X136790000Y-96180000D03*
X122038918Y-99330367D03*
X145630000Y-91030000D03*
X128120000Y-99900000D03*
%TO.N,LTDC_B7*%
X146030000Y-89390000D03*
X124446600Y-101060149D03*
X136753190Y-102761516D03*
%TO.N,LTDC_G5*%
X127490799Y-89690430D03*
X122670993Y-91074469D03*
%TO.N,LTDC_VSYNC*%
X118690000Y-88270000D03*
X142858262Y-84324462D03*
X115441005Y-91063407D03*
%TO.N,LTDC_CLK*%
X145540000Y-88120000D03*
X123519767Y-100011360D03*
X136983526Y-102293526D03*
%TO.N,LTDC_R3*%
X140855236Y-94675236D03*
X136730000Y-100710000D03*
X122401002Y-98951772D03*
%TO.N,LTDC_B1*%
X143950000Y-87800000D03*
X113480000Y-91430000D03*
%TO.N,LTDC_B6*%
X117780000Y-91634900D03*
X144790000Y-88560000D03*
%TO.N,LTDC_R1*%
X120833082Y-100852512D03*
X130000000Y-103964900D03*
%TO.N,LTDC_B5*%
X116438241Y-89493171D03*
X145540000Y-87430000D03*
%TO.N,LTDC_R6*%
X116390632Y-93250492D03*
X143260554Y-91080002D03*
%TO.N,LTDC_G3*%
X122332042Y-100064831D03*
X145870000Y-92550000D03*
%TO.N,LTDC_B0*%
X122720249Y-96574645D03*
X137570000Y-85840000D03*
X126830000Y-97430000D03*
X137250207Y-95007129D03*
%TO.N,LTDC_DE*%
X124328038Y-101573990D03*
X144370000Y-83850000D03*
X136345618Y-103087022D03*
%TO.N,LTDC_R5*%
X118425798Y-92226388D03*
X143920000Y-90390000D03*
%TO.N,LTDC_R7*%
X127350000Y-88240000D03*
X114550000Y-92310000D03*
%TO.N,LTDC_B4*%
X144790000Y-87530000D03*
X116873098Y-90963500D03*
%TO.N,LTDC_G6*%
X125292346Y-89226927D03*
X123323777Y-89785100D03*
%TO.N,LTDC_G0*%
X127360000Y-97610000D03*
X124224022Y-97780160D03*
X137644900Y-95348136D03*
X145120000Y-89940000D03*
%TO.N,LTDC_B2*%
X137230000Y-95780000D03*
X146030000Y-85950000D03*
X124402155Y-98281030D03*
X128042002Y-98258773D03*
%TO.N,LTDC_G7*%
X125810000Y-89490000D03*
X122540749Y-89833835D03*
%TO.N,LTDC_G4*%
X123850000Y-88500000D03*
X126614491Y-88751778D03*
%TO.N,LTDC_G1*%
X117559113Y-99262285D03*
X129320000Y-104480000D03*
%TO.N,LTDC_B3*%
X144800000Y-86420001D03*
X114554036Y-88433564D03*
%TO.N,LTDC_R0*%
X130610000Y-104100000D03*
X120319840Y-100011139D03*
%TO.N,LTDC_HSYNC*%
X114990000Y-85710000D03*
X127390246Y-84664900D03*
X143330000Y-83810000D03*
X116270520Y-96735142D03*
%TO.N,LTDC_R4*%
X144250000Y-91660000D03*
X114836360Y-97896300D03*
%TO.N,LTDC_R2*%
X113846300Y-97528896D03*
X126190000Y-89970000D03*
%TO.N,~{LED_PWR}*%
X113590003Y-109907800D03*
X127720000Y-109530000D03*
X110200000Y-100110000D03*
X109562200Y-94328379D03*
%TO.N,DIB1{slash}DIB3_MISO*%
X119431696Y-104479100D03*
%TO.N,DIB2{slash}DIB5_SCLK*%
X121748577Y-105037600D03*
%TO.N,DIB1{slash}DIB3_MOSI*%
X126233397Y-104610200D03*
X121638118Y-98996558D03*
X122703431Y-101025726D03*
X125104217Y-109144217D03*
%TO.N,DIB2{slash}DIB5_MISO*%
X121920000Y-106010000D03*
X113557527Y-103426751D03*
X108768200Y-97970000D03*
X109049285Y-101649258D03*
%TO.N,DIB2{slash}DIB5_MOSI*%
X107738600Y-98570159D03*
X122466301Y-109282200D03*
X111814799Y-102911677D03*
%TO.N,DIB1{slash}DIB3_SCLK*%
X110500000Y-90970000D03*
X109022200Y-95042200D03*
X110940000Y-102160000D03*
X110610000Y-93330000D03*
X110861932Y-106721932D03*
X111073071Y-109634328D03*
X124458085Y-110044336D03*
X115084283Y-89948613D03*
%TO.N,/STM32H7 MCU/~{ACTIVE}*%
X126146270Y-103860000D03*
X125280000Y-108380000D03*
%TO.N,/Ethernet PHY\u002C PSRAM\u002C eMMC/+3V3_LAN*%
X101450000Y-101610000D03*
D11*
%TO.N,/CM5 socket/+5V_IN*%
X138797076Y-99070000D03*
X138230000Y-99070000D03*
X139997076Y-99070000D03*
X130250000Y-110080000D03*
X138230000Y-98470000D03*
X131350000Y-110080000D03*
X138797076Y-98470000D03*
X130800000Y-110080000D03*
X129680000Y-110090000D03*
X139997076Y-98470000D03*
D10*
%TO.N,Net-(IC6-XTAL2)*%
X105531049Y-107390418D03*
%TO.N,Net-(IC6-XTAL1{slash}CLKIN)*%
X106130480Y-107394193D03*
%TO.N,Net-(IC5-VDDI)*%
X105110568Y-88069305D03*
D11*
%TO.N,/DVID converter\u002C NOR Flash/DVDD*%
X139244703Y-81355299D03*
D12*
X137080000Y-93833800D03*
D11*
X138030000Y-81350000D03*
X145270000Y-81360000D03*
D10*
%TO.N,ETH_REF_CLK*%
X116332534Y-94191500D03*
X105960001Y-97180001D03*
%TO.N,Net-(IC3C-VREFM)*%
X120484842Y-97931032D03*
%TO.N,Net-(IC3C-VSSA)*%
X118720003Y-98174996D03*
%TO.N,Net-(IC6-RXD1{slash}MODE1)*%
X108420000Y-106080000D03*
X109110000Y-102990000D03*
X111665000Y-101675000D03*
%TO.N,DVID_CEC*%
X118080000Y-103560000D03*
X130394890Y-84061675D03*
X120490000Y-104010000D03*
X137230000Y-96540000D03*
X137710000Y-85280000D03*
X127270000Y-103510000D03*
X117630000Y-102100000D03*
D11*
%TO.N,/DVID converter\u002C NOR Flash/TVDD*%
X133925843Y-87464157D03*
X133940000Y-90520000D03*
D10*
%TO.N,DVID_HPD*%
X116385607Y-91936088D03*
X116650000Y-87360000D03*
X129981339Y-84432072D03*
%TO.N,REAR_DVID_HPD*%
X125180000Y-77620000D03*
X132039750Y-80630248D03*
%TO.N,TFT_DVID_HPD*%
X122580000Y-77950000D03*
X132507005Y-81989263D03*
%TD*%
D13*
%TO.N,ETH_MDIO*%
X117058975Y-98408053D02*
X117258533Y-98607611D01*
X114243800Y-98653800D02*
X114361400Y-98771400D01*
X120328959Y-99047751D02*
X121087237Y-98289474D01*
X117975567Y-98607611D02*
X118418421Y-99050465D01*
X117258533Y-98607611D02*
X117975567Y-98607611D01*
X108902000Y-98653800D02*
X114243800Y-98653800D01*
X121087237Y-98289474D02*
X122605256Y-98289474D01*
X122605256Y-98289474D02*
X122719891Y-98174839D01*
X119675467Y-99050465D02*
X119678182Y-99047751D01*
X116269299Y-98408053D02*
X117058975Y-98408053D01*
X118418421Y-99050465D02*
X119675467Y-99050465D01*
X108768200Y-98520000D02*
X108902000Y-98653800D01*
X119678182Y-99047751D02*
X120328959Y-99047751D01*
X114361400Y-98771400D02*
X115905951Y-98771400D01*
X115905951Y-98771400D02*
X116269299Y-98408053D01*
%TO.N,ETH_CRS_DV*%
X117153665Y-98179453D02*
X117353223Y-98379011D01*
X117353223Y-98379011D02*
X118070257Y-98379011D01*
X116174610Y-98179453D02*
X117153665Y-98179453D01*
X109935424Y-98374400D02*
X114353610Y-98374400D01*
X121013421Y-98040000D02*
X122080000Y-98040000D01*
X120234270Y-98819151D02*
X121013421Y-98040000D01*
X114353610Y-98374400D02*
X114479210Y-98500000D01*
X109798654Y-98237630D02*
X109935424Y-98374400D01*
X122080000Y-98040000D02*
X122680000Y-97440000D01*
X118070257Y-98379011D02*
X118510397Y-98819151D01*
X114479210Y-98500000D02*
X115854062Y-98500000D01*
X115854062Y-98500000D02*
X116174610Y-98179453D01*
X118510397Y-98819151D02*
X120234270Y-98819151D01*
D14*
%TO.N,ETH_TX_EN*%
X110496522Y-99415732D02*
X110846460Y-99765670D01*
X113660633Y-100582200D02*
X113787533Y-100709100D01*
X112772689Y-100582200D02*
X113660633Y-100582200D01*
X105150775Y-101780775D02*
X105150775Y-100509225D01*
X106244268Y-99415732D02*
X110496522Y-99415732D01*
X116750944Y-99907256D02*
X117021179Y-99907256D01*
X105150775Y-100509225D02*
X106244268Y-99415732D01*
X110846460Y-99765670D02*
X111956159Y-99765670D01*
X113787533Y-100709100D02*
X115949100Y-100709100D01*
X111956159Y-99765670D02*
X112772689Y-100582200D01*
X115949100Y-100709100D02*
X116750944Y-99907256D01*
%TO.N,ETH_TXD1*%
X110926270Y-99486270D02*
X112136270Y-99486270D01*
X110530000Y-99090000D02*
X110926270Y-99486270D01*
X115808913Y-99722200D02*
X116319802Y-99211311D01*
X112136270Y-99486270D02*
X112372200Y-99722200D01*
X112372200Y-99722200D02*
X115808913Y-99722200D01*
X104470000Y-99090000D02*
X110530000Y-99090000D01*
D13*
%TO.N,ETH_MDC*%
X113945333Y-101200000D02*
X115000000Y-101200000D01*
X116656100Y-102856100D02*
X117583667Y-102856100D01*
X106793246Y-99720000D02*
X110441580Y-99720000D01*
X110766650Y-100045070D02*
X111840426Y-100045070D01*
X115000000Y-101200000D02*
X116656100Y-102856100D01*
X113165356Y-101370000D02*
X113775333Y-101370000D01*
X117583667Y-102856100D02*
X117673902Y-102765865D01*
X113775333Y-101370000D02*
X113945333Y-101200000D01*
X110441580Y-99720000D02*
X110766650Y-100045070D01*
X111840426Y-100045070D02*
X113165356Y-101370000D01*
X106587522Y-99925724D02*
X106793246Y-99720000D01*
%TO.N,ETH_RXD0*%
X114609820Y-98271400D02*
X114433420Y-98095000D01*
X116079919Y-97950853D02*
X115759372Y-98271400D01*
X118960000Y-98590000D02*
X118604534Y-98590000D01*
X118164945Y-98150411D02*
X117447913Y-98150411D01*
X118604534Y-98590000D02*
X118164945Y-98150411D01*
X114433420Y-98095000D02*
X110450483Y-98095000D01*
X120057107Y-97492893D02*
X118960000Y-98590000D01*
X117248354Y-97950853D02*
X116079919Y-97950853D01*
X120201816Y-97492893D02*
X120057107Y-97492893D01*
X117447913Y-98150411D02*
X117248354Y-97950853D01*
X115759372Y-98271400D02*
X114609820Y-98271400D01*
X110450483Y-98095000D02*
X110098400Y-97742917D01*
%TO.N,ETH_RXD1*%
X120418506Y-99281494D02*
X121123328Y-98576672D01*
X114208500Y-99471500D02*
X114680000Y-99000000D01*
X119772871Y-99276351D02*
X120083615Y-99276351D01*
X117880877Y-98836211D02*
X118326160Y-99281494D01*
X123051294Y-98576672D02*
X123127828Y-98500138D01*
X119767728Y-99281494D02*
X119772871Y-99276351D01*
X116000640Y-99000000D02*
X116363988Y-98636653D01*
X116964285Y-98636653D02*
X117163844Y-98836211D01*
X112591500Y-99471500D02*
X114208500Y-99471500D01*
X111870000Y-99060000D02*
X112180000Y-99060000D01*
X114680000Y-99000000D02*
X116000640Y-99000000D01*
X116363988Y-98636653D02*
X116964285Y-98636653D01*
X118326160Y-99281494D02*
X119767728Y-99281494D01*
X120088758Y-99281494D02*
X120418506Y-99281494D01*
X120083615Y-99276351D02*
X120088758Y-99281494D01*
X121123328Y-98576672D02*
X123051294Y-98576672D01*
X117163844Y-98836211D02*
X117880877Y-98836211D01*
X112180000Y-99060000D02*
X112591500Y-99471500D01*
%TO.N,ETH_TXD0*%
X116649758Y-97110242D02*
X117126896Y-96633104D01*
X116115148Y-97110242D02*
X116649758Y-97110242D01*
X105040000Y-97620000D02*
X106554868Y-97620000D01*
X106554868Y-97620000D02*
X106945833Y-97229035D01*
X110780965Y-97560000D02*
X113284724Y-97560000D01*
X117126896Y-96633104D02*
X117126896Y-96583784D01*
X113690928Y-97153796D02*
X114001672Y-97153796D01*
X113284724Y-97560000D02*
X113690928Y-97153796D01*
X115895420Y-96859871D02*
X115895420Y-96890514D01*
X115895420Y-96890514D02*
X116115148Y-97110242D01*
X115469579Y-96743453D02*
X115779002Y-96743453D01*
X110450000Y-97229035D02*
X110780965Y-97560000D01*
X115779002Y-96743453D02*
X115895420Y-96859871D01*
X115036818Y-97176214D02*
X115469579Y-96743453D01*
X106945833Y-97229035D02*
X110450000Y-97229035D01*
X114024090Y-97176214D02*
X115036818Y-97176214D01*
X114001672Y-97153796D02*
X114024090Y-97176214D01*
%TO.N,SDMMC_D1*%
X108534575Y-89710500D02*
X108585375Y-89710500D01*
X108432975Y-89354100D02*
X108432975Y-89506500D01*
X109194975Y-89608900D02*
X109194975Y-89506500D01*
X108432975Y-89506500D02*
X108432975Y-89608900D01*
X108940975Y-89506500D02*
X108940975Y-89608900D01*
X107416975Y-89608100D02*
X107416975Y-89658900D01*
X110972975Y-89506500D02*
X110972975Y-89608900D01*
X109956975Y-89354100D02*
X109956975Y-89506500D01*
X109448975Y-89354100D02*
X109448975Y-89506500D01*
X111226975Y-89608900D02*
X111226975Y-89506500D01*
X111480975Y-89608100D02*
X111480975Y-89608900D01*
X108178975Y-89608900D02*
X108178975Y-89506500D01*
X106986131Y-89506500D02*
X107315375Y-89506500D01*
X111582575Y-89710500D02*
X111633375Y-89710500D01*
X111328575Y-89252500D02*
X111379375Y-89252500D01*
X110210975Y-89506500D02*
X110210975Y-89354100D01*
X115859478Y-90057292D02*
X116567292Y-90057292D01*
X110718975Y-89608900D02*
X110718975Y-89506500D01*
X109042575Y-89710500D02*
X109093375Y-89710500D01*
X110464975Y-89354100D02*
X110464975Y-89506500D01*
X107670975Y-89608100D02*
X107670975Y-89506500D01*
X111836575Y-89506500D02*
X111887375Y-89506500D01*
X108026575Y-89710500D02*
X108077375Y-89710500D01*
X112048815Y-89538600D02*
X115340786Y-89538600D01*
X110566575Y-89710500D02*
X110617375Y-89710500D01*
X109702975Y-89608900D02*
X109702975Y-89506500D01*
X109448975Y-89506500D02*
X109448975Y-89608900D01*
X110718975Y-89506500D02*
X110718975Y-89354100D01*
X111734975Y-89608900D02*
X111734975Y-89608100D01*
X109804575Y-89252500D02*
X109855375Y-89252500D01*
X108280575Y-89252500D02*
X108331375Y-89252500D01*
X107670975Y-89658900D02*
X107670975Y-89608100D01*
X111480975Y-89506500D02*
X111480975Y-89608100D01*
X110820575Y-89252500D02*
X110871375Y-89252500D01*
X107924975Y-89506500D02*
X107924975Y-89608900D01*
X110210975Y-89608900D02*
X110210975Y-89506500D01*
X107670975Y-89506500D02*
X107670975Y-89354100D01*
X109550575Y-89710500D02*
X109601375Y-89710500D01*
X107518575Y-89760500D02*
X107569375Y-89760500D01*
X110972975Y-89354100D02*
X110972975Y-89506500D01*
X115340786Y-89538600D02*
X115859478Y-90057292D01*
X111226975Y-89506500D02*
X111226975Y-89354100D01*
X108940975Y-89354100D02*
X108940975Y-89506500D01*
X112016715Y-89506500D02*
X112048815Y-89538600D01*
X110464975Y-89506500D02*
X110464975Y-89608900D01*
X107924975Y-89354100D02*
X107924975Y-89506500D01*
X110058575Y-89710500D02*
X110109375Y-89710500D01*
X111887375Y-89506500D02*
X112016715Y-89506500D01*
X108686975Y-89506500D02*
X108686975Y-89354100D01*
X108788575Y-89252500D02*
X108839375Y-89252500D01*
X106835894Y-89356263D02*
X106986131Y-89506500D01*
X109296575Y-89252500D02*
X109347375Y-89252500D01*
X109702975Y-89506500D02*
X109702975Y-89354100D01*
X109956975Y-89506500D02*
X109956975Y-89608900D01*
X111074575Y-89710500D02*
X111125375Y-89710500D01*
X111480975Y-89354100D02*
X111480975Y-89506500D01*
X107772575Y-89252500D02*
X107823375Y-89252500D01*
X108686975Y-89608900D02*
X108686975Y-89506500D01*
X108178975Y-89506500D02*
X108178975Y-89354100D01*
X109194975Y-89506500D02*
X109194975Y-89354100D01*
X110312575Y-89252500D02*
X110363375Y-89252500D01*
X111734975Y-89608100D02*
G75*
G02*
X111836575Y-89506475I101625J0D01*
G01*
X108839375Y-89252500D02*
G75*
G02*
X108941000Y-89354100I25J-101600D01*
G01*
X111226975Y-89354100D02*
G75*
G02*
X111328575Y-89252475I101625J0D01*
G01*
X109956975Y-89608900D02*
G75*
G03*
X110058575Y-89710525I101625J0D01*
G01*
X108432975Y-89608900D02*
G75*
G03*
X108534575Y-89710525I101625J0D01*
G01*
X107569375Y-89760500D02*
G75*
G03*
X107671000Y-89658900I25J101600D01*
G01*
X110109375Y-89710500D02*
G75*
G03*
X110211000Y-89608900I25J101600D01*
G01*
X110210975Y-89354100D02*
G75*
G02*
X110312575Y-89252475I101625J0D01*
G01*
X109347375Y-89252500D02*
G75*
G02*
X109449000Y-89354100I25J-101600D01*
G01*
X110464975Y-89608900D02*
G75*
G03*
X110566575Y-89710525I101625J0D01*
G01*
X108077375Y-89710500D02*
G75*
G03*
X108179000Y-89608900I25J101600D01*
G01*
X110871375Y-89252500D02*
G75*
G02*
X110973000Y-89354100I25J-101600D01*
G01*
X111379375Y-89252500D02*
G75*
G02*
X111481000Y-89354100I25J-101600D01*
G01*
X108585375Y-89710500D02*
G75*
G03*
X108687000Y-89608900I25J101600D01*
G01*
X110363375Y-89252500D02*
G75*
G02*
X110465000Y-89354100I25J-101600D01*
G01*
X109448975Y-89608900D02*
G75*
G03*
X109550575Y-89710525I101625J0D01*
G01*
X107315375Y-89506500D02*
G75*
G02*
X107417000Y-89608100I25J-101600D01*
G01*
X107416975Y-89658900D02*
G75*
G03*
X107518575Y-89760525I101625J0D01*
G01*
X109194975Y-89354100D02*
G75*
G02*
X109296575Y-89252475I101625J0D01*
G01*
X107670975Y-89354100D02*
G75*
G02*
X107772575Y-89252475I101625J0D01*
G01*
X109601375Y-89710500D02*
G75*
G03*
X109703000Y-89608900I25J101600D01*
G01*
X111480975Y-89608900D02*
G75*
G03*
X111582575Y-89710525I101625J0D01*
G01*
X108940975Y-89608900D02*
G75*
G03*
X109042575Y-89710525I101625J0D01*
G01*
X111125375Y-89710500D02*
G75*
G03*
X111227000Y-89608900I25J101600D01*
G01*
X111633375Y-89710500D02*
G75*
G03*
X111735000Y-89608900I25J101600D01*
G01*
X108178975Y-89354100D02*
G75*
G02*
X108280575Y-89252475I101625J0D01*
G01*
X109855375Y-89252500D02*
G75*
G02*
X109957000Y-89354100I25J-101600D01*
G01*
X110972975Y-89608900D02*
G75*
G03*
X111074575Y-89710525I101625J0D01*
G01*
X108686975Y-89354100D02*
G75*
G02*
X108788575Y-89252475I101625J0D01*
G01*
X110617375Y-89710500D02*
G75*
G03*
X110719000Y-89608900I25J101600D01*
G01*
X110718975Y-89354100D02*
G75*
G02*
X110820575Y-89252475I101625J0D01*
G01*
X107924975Y-89608900D02*
G75*
G03*
X108026575Y-89710525I101625J0D01*
G01*
X107823375Y-89252500D02*
G75*
G02*
X107925000Y-89354100I25J-101600D01*
G01*
X109093375Y-89710500D02*
G75*
G03*
X109195000Y-89608900I25J101600D01*
G01*
X109702975Y-89354100D02*
G75*
G02*
X109804575Y-89252475I101625J0D01*
G01*
X108331375Y-89252500D02*
G75*
G02*
X108433000Y-89354100I25J-101600D01*
G01*
D14*
%TO.N,TFT_DVID_CEC*%
X129570000Y-79680000D02*
X132380000Y-82490000D01*
X124150000Y-78720000D02*
X124250000Y-78620000D01*
X125857500Y-79680000D02*
X129570000Y-79680000D01*
X132380000Y-82490000D02*
X132380000Y-82551603D01*
X124250000Y-78620000D02*
X124797500Y-78620000D01*
X124797500Y-78620000D02*
X125857500Y-79680000D01*
D13*
%TO.N,~{RESET_OUT}*%
X119010000Y-105320000D02*
X119010000Y-103410000D01*
X120470000Y-106780000D02*
X119010000Y-105320000D01*
D14*
%TO.N,UART1_RX{slash}DIN1*%
X110474132Y-106561299D02*
X110710000Y-106325431D01*
X107747600Y-94840000D02*
X107940000Y-94840000D01*
X114100471Y-91756700D02*
X114686410Y-91756700D01*
X110710000Y-106325431D02*
X110710000Y-103028434D01*
X110453600Y-109660000D02*
X110474132Y-109639468D01*
X110474132Y-109639468D02*
X110474132Y-106561299D01*
X110670000Y-92110000D02*
X113747171Y-92110000D01*
X113747171Y-92110000D02*
X114100471Y-91756700D01*
X110710000Y-103028434D02*
X110535783Y-102854217D01*
X114686410Y-91756700D02*
X114758433Y-91828723D01*
X107940000Y-94840000D02*
X110670000Y-92110000D01*
D13*
%TO.N,ETH_RX_ERR*%
X107590000Y-86390000D02*
X119780000Y-86390000D01*
D14*
X107982274Y-104428035D02*
X107390000Y-103835761D01*
D13*
X123613887Y-85612200D02*
X123780577Y-85778890D01*
D14*
X107390000Y-103835761D02*
X107390000Y-100634600D01*
D13*
X107290000Y-86690000D02*
X107590000Y-86390000D01*
X119780000Y-86390000D02*
X120557800Y-85612200D01*
X120557800Y-85612200D02*
X123613887Y-85612200D01*
D14*
X107390000Y-100634600D02*
X107484600Y-100540000D01*
D13*
%TO.N,DVID_SEL2*%
X124565118Y-98648539D02*
X124437631Y-98776026D01*
X128260000Y-99130000D02*
X127778539Y-98648539D01*
X124437631Y-98776026D02*
X124237690Y-98776026D01*
X127778539Y-98648539D02*
X124565118Y-98648539D01*
D14*
%TO.N,~{DIB1_CSA}*%
X119813800Y-108339679D02*
X119609679Y-108339679D01*
X116875600Y-105482877D02*
X115804944Y-104412221D01*
X115804944Y-103403422D02*
X115869817Y-103338549D01*
X116875600Y-105605600D02*
X116875600Y-105482877D01*
X119609679Y-108339679D02*
X116875600Y-105605600D01*
X115804944Y-104412221D02*
X115804944Y-103403422D01*
%TO.N,+VAUX*%
X115230000Y-102471483D02*
X114412800Y-101654283D01*
X116596200Y-105598609D02*
X115230000Y-104232409D01*
X117221877Y-106682348D02*
X116596200Y-106056671D01*
X115230000Y-104232409D02*
X115230000Y-102471483D01*
X116596200Y-106056671D02*
X116596200Y-105598609D01*
%TO.N,~{TFT_IRQ}*%
X123914400Y-104244232D02*
X124033853Y-104363685D01*
X123048433Y-110090000D02*
X122330000Y-110090000D01*
X124033853Y-104363685D02*
X124033853Y-109104580D01*
X124033853Y-109104580D02*
X123048433Y-110090000D01*
D13*
%TO.N,SDA*%
X111717700Y-85142300D02*
X124247700Y-85142300D01*
X124538698Y-84890000D02*
X125090186Y-84338512D01*
X111420000Y-85440000D02*
X111717700Y-85142300D01*
D14*
X125125037Y-84384963D02*
X125125037Y-84373363D01*
X125125037Y-84373363D02*
X125090186Y-84338512D01*
D13*
X124500000Y-84890000D02*
X124538698Y-84890000D01*
X124247700Y-85142300D02*
X124500000Y-84890000D01*
%TO.N,SCL*%
X123918766Y-84787950D02*
X123918766Y-84883500D01*
D14*
X123895266Y-84860000D02*
X123918766Y-84883500D01*
D13*
X124458781Y-84247935D02*
X123918766Y-84787950D01*
X124458781Y-84086210D02*
X124458781Y-84247935D01*
X111020000Y-84860000D02*
X123895266Y-84860000D01*
D14*
X124458781Y-84086212D02*
X124458781Y-84086210D01*
D13*
X111290000Y-96700000D02*
X114598396Y-96700000D01*
%TO.N,UART0_TX{slash}DOUT3*%
X121160000Y-102700000D02*
X122506500Y-102700000D01*
X125230893Y-106348506D02*
X125054900Y-106524499D01*
X119088273Y-100888273D02*
X119348273Y-100888273D01*
X125230893Y-105156424D02*
X125230893Y-106348506D01*
X122506500Y-102700000D02*
X122561600Y-102644900D01*
X125185385Y-105110916D02*
X125230893Y-105156424D01*
X119348273Y-100888273D02*
X121160000Y-102700000D01*
X119050000Y-100850000D02*
X119088273Y-100888273D01*
D14*
%TO.N,RS485_TX_EN{slash}DOUT2*%
X127750000Y-108660000D02*
X126851864Y-109558136D01*
X127750000Y-103662536D02*
X127750000Y-108660000D01*
X126851864Y-109558136D02*
X125511864Y-109558136D01*
X125511864Y-109558136D02*
X123380278Y-111689722D01*
X120347522Y-111689722D02*
X119900000Y-111242200D01*
X123380278Y-111689722D02*
X120347522Y-111689722D01*
X127776029Y-103636507D02*
X127750000Y-103662536D01*
%TO.N,~{DIB5_CSA}*%
X117470000Y-103624321D02*
X117152839Y-103307160D01*
X117470000Y-105390000D02*
X117470000Y-103624321D01*
X123570000Y-109000000D02*
X123449563Y-108879563D01*
X122119563Y-108879563D02*
X120880000Y-107640000D01*
X119720000Y-107640000D02*
X117470000Y-105390000D01*
X123449563Y-108879563D02*
X122119563Y-108879563D01*
X120880000Y-107640000D02*
X119720000Y-107640000D01*
D13*
%TO.N,XSPIM_P1_IO10*%
X122601282Y-91940000D02*
X122448859Y-91787577D01*
X135050369Y-97500000D02*
X132502821Y-97500000D01*
X127560827Y-92403000D02*
X126297340Y-92403000D01*
X131885372Y-95184900D02*
X131674900Y-95184900D01*
X126105908Y-92211568D02*
X124221568Y-92211568D01*
X132502821Y-97500000D02*
X131960000Y-96957179D01*
X126297340Y-92403000D02*
X126105908Y-92211568D01*
X129040289Y-92550289D02*
X127708116Y-92550289D01*
X132206450Y-95948223D02*
X132206450Y-95505978D01*
X132206450Y-95505978D02*
X131885372Y-95184900D01*
X124101835Y-92091835D02*
X123036958Y-92091835D01*
X127708116Y-92550289D02*
X127560827Y-92403000D01*
X123036958Y-92091835D02*
X122885123Y-91940000D01*
X124221568Y-92211568D02*
X124101835Y-92091835D01*
X135109086Y-97558717D02*
X135050369Y-97500000D01*
X131674900Y-95184900D02*
X129040289Y-92550289D01*
X122885123Y-91940000D02*
X122601282Y-91940000D01*
X131960000Y-96194673D02*
X132206450Y-95948223D01*
X131960000Y-96957179D02*
X131960000Y-96194673D01*
D14*
%TO.N,~{DIB2_CSA}*%
X117130000Y-107198370D02*
X117130000Y-109335287D01*
X116601990Y-106670360D02*
X117130000Y-107198370D01*
X117130000Y-109335287D02*
X117410944Y-109616231D01*
D13*
%TO.N,SDMMC_D0*%
X107935600Y-88081600D02*
X107935600Y-87980000D01*
X109967600Y-87980000D02*
X109967600Y-87877600D01*
X112253600Y-87827600D02*
X112253600Y-87878400D01*
X107681600Y-88081600D02*
X107681600Y-88132400D01*
X112406000Y-87980000D02*
X112522339Y-87980000D01*
X109053200Y-87776000D02*
X109104000Y-87776000D01*
X109561200Y-87776000D02*
X109612000Y-87776000D01*
X111999600Y-87980000D02*
X111999600Y-87878400D01*
X110577200Y-87776000D02*
X110628000Y-87776000D01*
X108697600Y-87980000D02*
X108697600Y-88132400D01*
X111237600Y-87877600D02*
X111237600Y-87980000D01*
X109205600Y-87980000D02*
X109205600Y-88132400D01*
X111999600Y-88132400D02*
X111999600Y-87980000D01*
X108545200Y-87776000D02*
X108596000Y-87776000D01*
X115318784Y-88900000D02*
X115468671Y-88750113D01*
X108037200Y-87776000D02*
X108088000Y-87776000D01*
X108951600Y-88132400D02*
X108951600Y-87980000D01*
X111085200Y-87776000D02*
X111136000Y-87776000D01*
X111847200Y-88234000D02*
X111898000Y-88234000D01*
X108189600Y-87877600D02*
X108189600Y-87980000D01*
X112101200Y-87726000D02*
X112152000Y-87726000D01*
X111745600Y-87980000D02*
X111745600Y-88132400D01*
X112522339Y-87980000D02*
X113120000Y-87980000D01*
X110221600Y-87980000D02*
X110221600Y-88132400D01*
X109713600Y-87877600D02*
X109713600Y-87980000D01*
X110983600Y-87980000D02*
X110983600Y-87877600D01*
X111491600Y-88132400D02*
X111491600Y-87980000D01*
X109713600Y-87980000D02*
X109713600Y-88132400D01*
X112355200Y-87980000D02*
X112406000Y-87980000D01*
X110069200Y-87776000D02*
X110120000Y-87776000D01*
X111491600Y-87980000D02*
X111491600Y-87877600D01*
X110983600Y-88132400D02*
X110983600Y-87980000D01*
X114040000Y-88900000D02*
X115318784Y-88900000D01*
X110475600Y-87980000D02*
X110475600Y-87877600D01*
X109307200Y-88234000D02*
X109358000Y-88234000D01*
X108443600Y-88132400D02*
X108443600Y-87980000D01*
X106557366Y-88253142D02*
X106557366Y-88344060D01*
X108799200Y-88234000D02*
X108850000Y-88234000D01*
X109205600Y-87877600D02*
X109205600Y-87980000D01*
X107162981Y-88240000D02*
X107178220Y-88240000D01*
X107935600Y-87980000D02*
X107935600Y-87877600D01*
X110729600Y-87877600D02*
X110729600Y-87980000D01*
X108443600Y-87980000D02*
X108443600Y-87877600D01*
X110729600Y-87980000D02*
X110729600Y-88132400D01*
X107935600Y-88132400D02*
X107935600Y-88081600D01*
X111745600Y-87877600D02*
X111745600Y-87980000D01*
X110831200Y-88234000D02*
X110882000Y-88234000D01*
X107783200Y-88234000D02*
X107834000Y-88234000D01*
X108291200Y-88234000D02*
X108342000Y-88234000D01*
X111999600Y-87878400D02*
X111999600Y-87827600D01*
X107178220Y-88240000D02*
X107438220Y-87980000D01*
X111593200Y-87776000D02*
X111644000Y-87776000D01*
X107438220Y-87980000D02*
X107580000Y-87980000D01*
X110475600Y-88132400D02*
X110475600Y-87980000D01*
X107162981Y-88240000D02*
X106570508Y-88240000D01*
X110221600Y-87877600D02*
X110221600Y-87980000D01*
X108189600Y-87980000D02*
X108189600Y-88132400D01*
X109967600Y-88132400D02*
X109967600Y-87980000D01*
X109815200Y-88234000D02*
X109866000Y-88234000D01*
X106570508Y-88240000D02*
X106557366Y-88253142D01*
X111237600Y-87980000D02*
X111237600Y-88132400D01*
X109459600Y-87980000D02*
X109459600Y-87877600D01*
X113120000Y-87980000D02*
X114040000Y-88900000D01*
X108697600Y-87877600D02*
X108697600Y-87980000D01*
X111339200Y-88234000D02*
X111390000Y-88234000D01*
X110323200Y-88234000D02*
X110374000Y-88234000D01*
X109459600Y-88132400D02*
X109459600Y-87980000D01*
X108951600Y-87980000D02*
X108951600Y-87877600D01*
X108951600Y-87877600D02*
G75*
G02*
X109053200Y-87776000I101600J0D01*
G01*
X111390000Y-88234000D02*
G75*
G03*
X111491600Y-88132400I0J101600D01*
G01*
X108596000Y-87776000D02*
G75*
G02*
X108697600Y-87877600I0J-101600D01*
G01*
X111999600Y-87827600D02*
G75*
G02*
X112101200Y-87726000I101600J0D01*
G01*
X109459600Y-87877600D02*
G75*
G02*
X109561200Y-87776000I101600J0D01*
G01*
X109713600Y-88132400D02*
G75*
G03*
X109815200Y-88234000I101600J0D01*
G01*
X110983600Y-87877600D02*
G75*
G02*
X111085200Y-87776000I101600J0D01*
G01*
X108850000Y-88234000D02*
G75*
G03*
X108951600Y-88132400I0J101600D01*
G01*
X108189600Y-88132400D02*
G75*
G03*
X108291200Y-88234000I101600J0D01*
G01*
X110628000Y-87776000D02*
G75*
G02*
X110729600Y-87877600I0J-101600D01*
G01*
X107580000Y-87980000D02*
G75*
G02*
X107681600Y-88081600I0J-101600D01*
G01*
X108088000Y-87776000D02*
G75*
G02*
X108189600Y-87877600I0J-101600D01*
G01*
X112253600Y-87878400D02*
G75*
G03*
X112355200Y-87980000I101600J0D01*
G01*
X109967600Y-87877600D02*
G75*
G02*
X110069200Y-87776000I101600J0D01*
G01*
X109104000Y-87776000D02*
G75*
G02*
X109205600Y-87877600I0J-101600D01*
G01*
X107935600Y-87877600D02*
G75*
G02*
X108037200Y-87776000I101600J0D01*
G01*
X108443600Y-87877600D02*
G75*
G02*
X108545200Y-87776000I101600J0D01*
G01*
X110882000Y-88234000D02*
G75*
G03*
X110983600Y-88132400I0J101600D01*
G01*
X109612000Y-87776000D02*
G75*
G02*
X109713600Y-87877600I0J-101600D01*
G01*
X109205600Y-88132400D02*
G75*
G03*
X109307200Y-88234000I101600J0D01*
G01*
X111644000Y-87776000D02*
G75*
G02*
X111745600Y-87877600I0J-101600D01*
G01*
X111898000Y-88234000D02*
G75*
G03*
X111999600Y-88132400I0J101600D01*
G01*
X110221600Y-88132400D02*
G75*
G03*
X110323200Y-88234000I101600J0D01*
G01*
X110729600Y-88132400D02*
G75*
G03*
X110831200Y-88234000I101600J0D01*
G01*
X110120000Y-87776000D02*
G75*
G02*
X110221600Y-87877600I0J-101600D01*
G01*
X109866000Y-88234000D02*
G75*
G03*
X109967600Y-88132400I0J101600D01*
G01*
X110374000Y-88234000D02*
G75*
G03*
X110475600Y-88132400I0J101600D01*
G01*
X111237600Y-88132400D02*
G75*
G03*
X111339200Y-88234000I101600J0D01*
G01*
X107834000Y-88234000D02*
G75*
G03*
X107935600Y-88132400I0J101600D01*
G01*
X112152000Y-87726000D02*
G75*
G02*
X112253600Y-87827600I0J-101600D01*
G01*
X108697600Y-88132400D02*
G75*
G03*
X108799200Y-88234000I101600J0D01*
G01*
X107681600Y-88132400D02*
G75*
G03*
X107783200Y-88234000I101600J0D01*
G01*
X109358000Y-88234000D02*
G75*
G03*
X109459600Y-88132400I0J101600D01*
G01*
X111136000Y-87776000D02*
G75*
G02*
X111237600Y-87877600I0J-101600D01*
G01*
X111491600Y-87877600D02*
G75*
G02*
X111593200Y-87776000I101600J0D01*
G01*
X111745600Y-88132400D02*
G75*
G03*
X111847200Y-88234000I101600J0D01*
G01*
X108342000Y-88234000D02*
G75*
G03*
X108443600Y-88132400I0J101600D01*
G01*
X110475600Y-87877600D02*
G75*
G02*
X110577200Y-87776000I101600J0D01*
G01*
%TO.N,~{DIB4_CSA}*%
X125799606Y-97405060D02*
X125812569Y-97392097D01*
X122218114Y-96668114D02*
X122604900Y-97054900D01*
X120241886Y-96668114D02*
X122218114Y-96668114D01*
X119371139Y-96928389D02*
X119981611Y-96928389D01*
X122604900Y-97054900D02*
X123934900Y-97054900D01*
X123934900Y-97054900D02*
X124285060Y-97405060D01*
X119981611Y-96928389D02*
X120241886Y-96668114D01*
X124285060Y-97405060D02*
X125799606Y-97405060D01*
D14*
%TO.N,UART1_TX{slash}DOUT1*%
X112970000Y-109907800D02*
X112970000Y-109490000D01*
X109922406Y-101937594D02*
X109860840Y-101937594D01*
X112430000Y-101820037D02*
X111679363Y-101069400D01*
X112970000Y-109490000D02*
X112430000Y-108950000D01*
X110790600Y-101069400D02*
X109922406Y-101937594D01*
X112430000Y-108950000D02*
X112430000Y-101820037D01*
X111679363Y-101069400D02*
X110790600Y-101069400D01*
D13*
%TO.N,XSPIM_P1_IO5*%
X126906500Y-94146500D02*
X127744000Y-94984000D01*
X131110000Y-97952038D02*
X131110000Y-98190000D01*
X128141962Y-94984000D02*
X131110000Y-97952038D01*
X126537965Y-94146500D02*
X126906500Y-94146500D01*
X127744000Y-94984000D02*
X128141962Y-94984000D01*
%TO.N,~{DIB1_IRQ}*%
X124660000Y-103600000D02*
X124410000Y-103850000D01*
X124410000Y-103850000D02*
X124410000Y-106001917D01*
X124410000Y-106001917D02*
X124430000Y-106021917D01*
%TO.N,SDMMC_CLK*%
X105889153Y-91874000D02*
X105939953Y-91874000D01*
X105381153Y-91874000D02*
X105431953Y-91874000D01*
X114913805Y-91453623D02*
X115365165Y-91904983D01*
X105635153Y-91366000D02*
X105685953Y-91366000D01*
X115365165Y-91904983D02*
X115478477Y-91904983D01*
X106193953Y-91620000D02*
X106323465Y-91620000D01*
X105787553Y-91620000D02*
X105787553Y-91721600D01*
X106323465Y-91620000D02*
X113028313Y-91620000D01*
X113248313Y-91840000D02*
X113640000Y-91840000D01*
X106041553Y-91772400D02*
X106041553Y-91721600D01*
X105533553Y-91620000D02*
X105533553Y-91467600D01*
X113028313Y-91620000D02*
X113248313Y-91840000D01*
X114026377Y-91453623D02*
X114913805Y-91453623D01*
X105787553Y-91467600D02*
X105787553Y-91620000D01*
X105533553Y-91721600D02*
X105533553Y-91620000D01*
X102650000Y-91620000D02*
X105177953Y-91620000D01*
X105533553Y-91772400D02*
X105533553Y-91721600D01*
X105279553Y-91721600D02*
X105279553Y-91772400D01*
X106143153Y-91620000D02*
X106193953Y-91620000D01*
X100840000Y-90070000D02*
X101100000Y-90070000D01*
X113640000Y-91840000D02*
X114026377Y-91453623D01*
X101100000Y-90070000D02*
X102650000Y-91620000D01*
X105787553Y-91721600D02*
X105787553Y-91772400D01*
X106041553Y-91721600D02*
G75*
G02*
X106143153Y-91619953I101647J0D01*
G01*
X105787553Y-91772400D02*
G75*
G03*
X105889153Y-91874047I101647J0D01*
G01*
X105279553Y-91772400D02*
G75*
G03*
X105381153Y-91874047I101647J0D01*
G01*
X105431953Y-91874000D02*
G75*
G03*
X105533600Y-91772400I47J101600D01*
G01*
X105177953Y-91620000D02*
G75*
G02*
X105279600Y-91721600I47J-101600D01*
G01*
X105533553Y-91467600D02*
G75*
G02*
X105635153Y-91365953I101647J0D01*
G01*
X105685953Y-91366000D02*
G75*
G02*
X105787600Y-91467600I47J-101600D01*
G01*
X105939953Y-91874000D02*
G75*
G03*
X106041600Y-91772400I47J101600D01*
G01*
D14*
%TO.N,~{ETH_LINK_ACT}*%
X108083629Y-109643209D02*
X103966791Y-109643209D01*
X108245210Y-109804790D02*
X108850420Y-110410000D01*
X114510000Y-110410000D02*
X115350000Y-109570000D01*
X108850420Y-110410000D02*
X114510000Y-110410000D01*
X108245210Y-109804790D02*
X108083629Y-109643209D01*
X115350000Y-109570000D02*
X116181600Y-109570000D01*
X103966791Y-109643209D02*
X103360000Y-110250000D01*
X116181600Y-109570000D02*
X116200000Y-109588400D01*
%TO.N,~{ETH_LINK100}*%
X108240000Y-110470000D02*
X108450000Y-110680000D01*
X116961400Y-110680000D02*
X117513200Y-110128200D01*
X108450000Y-110680000D02*
X116961400Y-110680000D01*
D13*
%TO.N,XSPIM_P1_IO2*%
X126020369Y-94540000D02*
X124635026Y-94540000D01*
X128036752Y-95238000D02*
X127580319Y-95238000D01*
X131180000Y-98900000D02*
X130556306Y-98276306D01*
X130556306Y-98276306D02*
X130556306Y-97757554D01*
X131190000Y-98900000D02*
X131180000Y-98900000D01*
X127580319Y-95238000D02*
X127012319Y-94670000D01*
D14*
X123258856Y-93776171D02*
X123030549Y-93776171D01*
X123278885Y-93796200D02*
X123258856Y-93776171D01*
D13*
X130556306Y-97757554D02*
X128036752Y-95238000D01*
X126150369Y-94670000D02*
X126020369Y-94540000D01*
X131270000Y-98820000D02*
X131190000Y-98900000D01*
X127012319Y-94670000D02*
X126150369Y-94670000D01*
X124635026Y-94540000D02*
X123891226Y-93796200D01*
X123891226Y-93796200D02*
X123278885Y-93796200D01*
%TO.N,XSPIM_P1_IO0*%
X123968729Y-92507236D02*
X124579193Y-93117700D01*
X125452851Y-93215800D02*
X127155800Y-93215800D01*
X125354752Y-93117700D02*
X125452851Y-93215800D01*
X128538781Y-93860000D02*
X130241382Y-95562601D01*
X127800000Y-93860000D02*
X128538781Y-93860000D01*
X123968729Y-92504340D02*
X123968729Y-92507236D01*
X124579193Y-93117700D02*
X125354752Y-93117700D01*
X127155800Y-93215800D02*
X127800000Y-93860000D01*
X130241382Y-95562601D02*
X130241382Y-95794988D01*
%TO.N,XSPIM_P1_IO12*%
X123350000Y-96394213D02*
X123350000Y-96324213D01*
X135218170Y-101937354D02*
X135182248Y-101901432D01*
X130478835Y-101512553D02*
X130442917Y-101476634D01*
X123645921Y-96394213D02*
X123350000Y-96394213D01*
X130658442Y-101835844D02*
X130622521Y-101871766D01*
X135541460Y-101757750D02*
X135577381Y-101721828D01*
X123849409Y-96597701D02*
X123645921Y-96394213D01*
X135182248Y-101757748D02*
X135218170Y-101721828D01*
X135577381Y-101362618D02*
X135700000Y-101240000D01*
X126062630Y-96788397D02*
X125562507Y-96788397D01*
X134480000Y-102296000D02*
X134644000Y-102296000D01*
X135182249Y-102116960D02*
X135218170Y-102081038D01*
X135361855Y-101721829D02*
X135397776Y-101757750D01*
X130442917Y-101476634D02*
X130243141Y-101276858D01*
X130106253Y-101141384D02*
X128723700Y-99758831D01*
X131017653Y-102195055D02*
X130981732Y-102230977D01*
X130838048Y-102230977D02*
X130802126Y-102195055D01*
X134644000Y-102296000D02*
X134858960Y-102081039D01*
X130442915Y-101692160D02*
X130478835Y-101656237D01*
X128723700Y-99758831D02*
X128723700Y-98410000D01*
X135577381Y-101578144D02*
X135541459Y-101542222D01*
X125562507Y-96788397D02*
X125403044Y-96947860D01*
X134480000Y-102296000D02*
X131262283Y-102296000D01*
X130107667Y-101141384D02*
X130106253Y-101141384D01*
X130243141Y-101276858D02*
X130107667Y-101141384D01*
X135002644Y-102081039D02*
X135038565Y-102116960D01*
X135218170Y-101721828D02*
X135218171Y-101721829D01*
X125403044Y-96947860D02*
X124474439Y-96947860D01*
X124124278Y-96597700D02*
X123849409Y-96597701D01*
X126292233Y-97018000D02*
X126062630Y-96788397D01*
X130802126Y-102051371D02*
X130838046Y-102015448D01*
X131262283Y-102296000D02*
X131161339Y-102195056D01*
X127331701Y-97018000D02*
X126292233Y-97018000D01*
X130478837Y-101871766D02*
X130442915Y-101835844D01*
X124474439Y-96947860D02*
X124124278Y-96597700D01*
X135541459Y-101398538D02*
X135577381Y-101362618D01*
X130838046Y-101871764D02*
X130802128Y-101835845D01*
X128723700Y-98410000D02*
X127331701Y-97018000D01*
X130981732Y-102230977D02*
G75*
G02*
X130838048Y-102230977I-71842J71842D01*
G01*
X135541459Y-101542222D02*
G75*
G02*
X135541479Y-101398558I71841J71822D01*
G01*
X130478835Y-101656237D02*
G75*
G03*
X130478830Y-101512558I-71835J71837D01*
G01*
X130442915Y-101835844D02*
G75*
G02*
X130442913Y-101692158I71885J71844D01*
G01*
X135218171Y-101721829D02*
G75*
G02*
X135361855Y-101721829I71842J-71842D01*
G01*
X130838046Y-102015448D02*
G75*
G03*
X130838052Y-101871758I-71846J71848D01*
G01*
X130802128Y-101835845D02*
G75*
G03*
X130658457Y-101835859I-71828J-71855D01*
G01*
X135038565Y-102116960D02*
G75*
G03*
X135182249Y-102116960I71842J71842D01*
G01*
X135218170Y-102081038D02*
G75*
G03*
X135218166Y-101937358I-71870J71838D01*
G01*
X135577381Y-101721828D02*
G75*
G03*
X135577367Y-101578158I-71881J71828D01*
G01*
X130622521Y-101871766D02*
G75*
G02*
X130478837Y-101871766I-71842J71842D01*
G01*
X134858960Y-102081039D02*
G75*
G02*
X135002644Y-102081039I71842J-71842D01*
G01*
X135397776Y-101757750D02*
G75*
G03*
X135541460Y-101757750I71842J71842D01*
G01*
X131161339Y-102195056D02*
G75*
G03*
X131017658Y-102195059I-71839J-71844D01*
G01*
X130802126Y-102195055D02*
G75*
G02*
X130802113Y-102051358I71874J71855D01*
G01*
X135182248Y-101901432D02*
G75*
G02*
X135182258Y-101757758I71852J71832D01*
G01*
%TO.N,XSPI_M_P1_CLK*%
X133953200Y-98224000D02*
X134004000Y-98224000D01*
X132192830Y-97732830D02*
X132430000Y-97970000D01*
X131361050Y-96021600D02*
X131361850Y-96021600D01*
X134258000Y-97970000D02*
X134510000Y-97970000D01*
X131005450Y-96377200D02*
X131005450Y-96428000D01*
X133089600Y-98071600D02*
X133089600Y-97970000D01*
X129020233Y-93951023D02*
X129020234Y-93969798D01*
X129020234Y-93969798D02*
X130463980Y-95413544D01*
X133597600Y-98122400D02*
X133597600Y-97970000D01*
X133089600Y-98072400D02*
X133089600Y-98071600D01*
X128336467Y-93580000D02*
X128649210Y-93580000D01*
X133445200Y-98224000D02*
X133496000Y-98224000D01*
X131361850Y-96275600D02*
X131361050Y-96275600D01*
X133851600Y-98071600D02*
X133851600Y-98122400D01*
X131259450Y-96631200D02*
X131259450Y-96682000D01*
X131361050Y-96275600D02*
X131157850Y-96275600D01*
X133597600Y-97970000D02*
X133597600Y-97867600D01*
X127984243Y-93580000D02*
X128336467Y-93580000D01*
X133089600Y-97970000D02*
X133089600Y-97867600D01*
X133343600Y-97970000D02*
X133343600Y-98122400D01*
X133699200Y-97766000D02*
X133750000Y-97766000D01*
X134207200Y-97970000D02*
X134258000Y-97970000D01*
X133343600Y-97867600D02*
X133343600Y-97970000D01*
X134510000Y-97970000D02*
X134535000Y-97945000D01*
X131157850Y-96275600D02*
X131107050Y-96275600D01*
X132122119Y-97662118D02*
X132192830Y-97732830D01*
X131107050Y-96529600D02*
X131157850Y-96529600D01*
X132835600Y-98071600D02*
X132835600Y-98072400D01*
X127984243Y-93580000D02*
X127315243Y-92911000D01*
X133851600Y-97867600D02*
X133851600Y-97970000D01*
X133191200Y-97766000D02*
X133242000Y-97766000D01*
X131259450Y-96682000D02*
X131259450Y-96799450D01*
X133851600Y-97970000D02*
X133851600Y-98071600D01*
X131259450Y-96799450D02*
X131474410Y-97014410D01*
X131474410Y-97232198D02*
X131545120Y-97302908D01*
X134510000Y-97970000D02*
X134535000Y-97945000D01*
X128649210Y-93580000D02*
X129020233Y-93951023D01*
X132937200Y-98174000D02*
X132988000Y-98174000D01*
X131833620Y-97591408D02*
X131904330Y-97662118D01*
X127315243Y-92911000D02*
X125758015Y-92911000D01*
X130752994Y-95413544D02*
X131259450Y-95920000D01*
X130463980Y-95413544D02*
X130752994Y-95413544D01*
X132430000Y-97970000D02*
X132734000Y-97970000D01*
X131762909Y-97302908D02*
X131833620Y-97373620D01*
X125758015Y-92911000D02*
X125687715Y-92840700D01*
X134105600Y-98122400D02*
X134105600Y-98071600D01*
X131463450Y-96123200D02*
X131463450Y-96174000D01*
X132835600Y-98072400D02*
G75*
G03*
X132937200Y-98174000I101600J0D01*
G01*
X134004000Y-98224000D02*
G75*
G03*
X134105600Y-98122400I0J101600D01*
G01*
X133496000Y-98224000D02*
G75*
G03*
X133597600Y-98122400I0J101600D01*
G01*
X131545120Y-97302908D02*
G75*
G03*
X131654015Y-97302909I54448J54451D01*
G01*
X131654015Y-97302908D02*
G75*
G02*
X131762909Y-97302908I54447J-54446D01*
G01*
X131157850Y-96529600D02*
G75*
G02*
X131259400Y-96631200I-50J-101600D01*
G01*
X132988000Y-98174000D02*
G75*
G03*
X133089600Y-98072400I0J101600D01*
G01*
X132734000Y-97970000D02*
G75*
G02*
X132835600Y-98071600I0J-101600D01*
G01*
X133597600Y-97867600D02*
G75*
G02*
X133699200Y-97766000I101600J0D01*
G01*
X131474410Y-97014410D02*
G75*
G02*
X131474453Y-97123347I-54410J-54490D01*
G01*
X134105600Y-98071600D02*
G75*
G02*
X134207200Y-97970000I101600J0D01*
G01*
X132013225Y-97662118D02*
G75*
G02*
X132122119Y-97662118I54447J-54446D01*
G01*
X131474410Y-97123304D02*
G75*
G03*
X131474361Y-97232247I54490J-54496D01*
G01*
X131107050Y-96275600D02*
G75*
G03*
X131005500Y-96377200I50J-101600D01*
G01*
X131833620Y-97482514D02*
G75*
G03*
X131833581Y-97591447I54480J-54486D01*
G01*
X133343600Y-98122400D02*
G75*
G03*
X133445200Y-98224000I101600J0D01*
G01*
X131259450Y-95920000D02*
G75*
G03*
X131361050Y-96021650I101650J0D01*
G01*
X133750000Y-97766000D02*
G75*
G02*
X133851600Y-97867600I0J-101600D01*
G01*
X133851600Y-98122400D02*
G75*
G03*
X133953200Y-98224000I101600J0D01*
G01*
X133242000Y-97766000D02*
G75*
G02*
X133343600Y-97867600I0J-101600D01*
G01*
X131904330Y-97662118D02*
G75*
G03*
X132013225Y-97662119I54448J54451D01*
G01*
X131005450Y-96428000D02*
G75*
G03*
X131107050Y-96529650I101650J0D01*
G01*
X131463450Y-96174000D02*
G75*
G02*
X131361850Y-96275650I-101650J0D01*
G01*
X133089600Y-97867600D02*
G75*
G02*
X133191200Y-97766000I101600J0D01*
G01*
X131361850Y-96021600D02*
G75*
G02*
X131463400Y-96123200I-50J-101600D01*
G01*
X131833620Y-97373620D02*
G75*
G02*
X131833653Y-97482547I-54420J-54480D01*
G01*
%TO.N,XSPIM_P1_IO9*%
X130163684Y-90980000D02*
X130199606Y-90944079D01*
X131169466Y-92129466D02*
X131277228Y-92021701D01*
X131277227Y-92380912D02*
X131276662Y-92381477D01*
X130630654Y-91590654D02*
X130558246Y-91663061D01*
X130917454Y-92165953D02*
X130953375Y-92201874D01*
X130343290Y-90944079D02*
X130379211Y-90980000D01*
X130738419Y-91482892D02*
X130630654Y-91590654D01*
X130020000Y-90980000D02*
X129884000Y-90844000D01*
X130702498Y-91303287D02*
X130738419Y-91339208D01*
X130989862Y-91949862D02*
X130917454Y-92022269D01*
X134850000Y-95810000D02*
X134850000Y-96420000D01*
X131061706Y-91662495D02*
X131097627Y-91698416D01*
X131456835Y-92201308D02*
X131349070Y-92309070D01*
X130199038Y-91447537D02*
X130234959Y-91483458D01*
X131349070Y-92309070D02*
X131277227Y-92380912D01*
X131420914Y-92021703D02*
X131456835Y-92057624D01*
X130379211Y-91123684D02*
X130343288Y-91159604D01*
X130378643Y-91483458D02*
X130451050Y-91411050D01*
X131600516Y-92560516D02*
X131636438Y-92596438D01*
X131097059Y-92201874D02*
X131169466Y-92129466D01*
X130271446Y-91231446D02*
X130199038Y-91303853D01*
X130810258Y-91770258D02*
X130918020Y-91662493D01*
X127429890Y-90694000D02*
X126956390Y-91167500D01*
X131636438Y-92596438D02*
X131729403Y-92689403D01*
X130343288Y-91159604D02*
X130271446Y-91231446D01*
X131097627Y-91842100D02*
X130989862Y-91949862D01*
X129884000Y-90844000D02*
X127877551Y-90844000D01*
X131456267Y-92561082D02*
X131456832Y-92560516D01*
X130451050Y-91411050D02*
X130558812Y-91303285D01*
X131276662Y-92525161D02*
X131312583Y-92561082D01*
X127727551Y-90694000D02*
X127429890Y-90694000D01*
X130737851Y-91842666D02*
X130810258Y-91770258D01*
X127877551Y-90844000D02*
X127727551Y-90694000D01*
X131729403Y-92689403D02*
X134850000Y-95810000D01*
X130558246Y-91806745D02*
X130594167Y-91842666D01*
X130594167Y-91842666D02*
G75*
G03*
X130737851Y-91842666I71842J71842D01*
G01*
X130379211Y-90980000D02*
G75*
G02*
X130379169Y-91123642I-71811J-71800D01*
G01*
X130558812Y-91303285D02*
G75*
G02*
X130702544Y-91303241I71888J-71815D01*
G01*
X130738419Y-91339208D02*
G75*
G02*
X130738469Y-91482942I-71819J-71892D01*
G01*
X130953375Y-92201874D02*
G75*
G03*
X131097059Y-92201874I71842J71842D01*
G01*
X130918020Y-91662493D02*
G75*
G02*
X131061744Y-91662457I71880J-71807D01*
G01*
X131277228Y-92021701D02*
G75*
G02*
X131420944Y-92021673I71872J-71799D01*
G01*
X130234959Y-91483458D02*
G75*
G03*
X130378643Y-91483458I71842J71842D01*
G01*
X130917454Y-92022269D02*
G75*
G03*
X130917465Y-92165942I71846J-71831D01*
G01*
X131276662Y-92381477D02*
G75*
G03*
X131276681Y-92525142I71838J-71823D01*
G01*
X130020000Y-90980000D02*
G75*
G03*
X130163684Y-90980000I71842J71842D01*
G01*
X130199606Y-90944079D02*
G75*
G02*
X130343290Y-90944079I71842J-71842D01*
G01*
X130199038Y-91303853D02*
G75*
G03*
X130199033Y-91447542I71862J-71847D01*
G01*
X130558246Y-91663061D02*
G75*
G03*
X130558249Y-91806742I71854J-71839D01*
G01*
X131312583Y-92561082D02*
G75*
G03*
X131456267Y-92561082I71842J71842D01*
G01*
X131456835Y-92057624D02*
G75*
G02*
X131456869Y-92201342I-71835J-71876D01*
G01*
X131456832Y-92560516D02*
G75*
G02*
X131600516Y-92560516I71842J-71842D01*
G01*
X131097627Y-91698416D02*
G75*
G02*
X131097669Y-91842142I-71827J-71884D01*
G01*
%TO.N,XSPIM_P1_IO13*%
X130048306Y-97997853D02*
X127796453Y-95746000D01*
X130048306Y-98565211D02*
X130048306Y-97997853D01*
X127176472Y-95746000D02*
X126940236Y-95509764D01*
X134410000Y-100390000D02*
X132333426Y-100390000D01*
X127796453Y-95746000D02*
X127176472Y-95746000D01*
X132333426Y-100390000D02*
X131547226Y-99603800D01*
X134550000Y-100250000D02*
X134410000Y-100390000D01*
X131547226Y-99603800D02*
X131086895Y-99603800D01*
X131086895Y-99603800D02*
X130048306Y-98565211D01*
%TO.N,XSPIM_P1_IO14*%
X129597330Y-99688778D02*
X129633252Y-99652857D01*
X127493789Y-96535400D02*
X127495680Y-96535400D01*
X129286306Y-99521438D02*
X129453646Y-99688778D01*
X131629600Y-101656400D02*
X131629600Y-101605600D01*
X130674960Y-100766408D02*
X130710882Y-100730487D01*
X131249696Y-101484828D02*
X131444868Y-101680000D01*
D14*
X123030000Y-95510000D02*
X122920000Y-95400000D01*
D13*
X130136144Y-100371276D02*
X130172066Y-100407198D01*
X127495680Y-96535400D02*
X129284306Y-98324027D01*
X134473500Y-101370000D02*
X134566750Y-101276750D01*
X133170000Y-101370000D02*
X134473500Y-101370000D01*
X132239200Y-101554000D02*
X132290000Y-101554000D01*
X131213776Y-101089697D02*
X131249697Y-101125618D01*
X130315750Y-100407198D02*
X130351672Y-100371277D01*
X130495356Y-100371277D02*
X130531277Y-100407198D01*
X125877979Y-95950000D02*
X126437979Y-96510000D01*
X129956540Y-100047988D02*
X129992462Y-100012067D01*
X123290000Y-95510000D02*
X123630091Y-95850091D01*
X129776936Y-99652857D02*
X129812857Y-99688778D01*
X129812857Y-99832462D02*
X129776934Y-99868382D01*
X126437979Y-96510000D02*
X127468389Y-96510000D01*
X129284306Y-98324027D02*
X129284306Y-98916344D01*
X132137600Y-101656400D02*
X132137600Y-101655600D01*
X131444868Y-101680000D02*
X131450000Y-101680000D01*
X133115158Y-101370000D02*
X133170000Y-101370000D01*
X131249697Y-101269302D02*
X131213774Y-101305222D01*
X131985200Y-101758000D02*
X132036000Y-101758000D01*
X131034170Y-101125618D02*
X131070092Y-101089697D01*
X130495354Y-100730486D02*
X130531276Y-100766408D01*
X132727158Y-101758000D02*
X132942118Y-101543039D01*
X130172067Y-100191672D02*
X130136144Y-100227592D01*
X132942118Y-101543039D02*
X133115158Y-101370000D01*
X131450000Y-101680000D02*
X131528000Y-101758000D01*
X130854564Y-101089696D02*
X130890486Y-101125618D01*
X130890487Y-100910092D02*
X130854564Y-100946012D01*
X127468389Y-96510000D02*
X127493789Y-96535400D01*
X131213774Y-101448906D02*
X131249696Y-101484828D01*
X130136146Y-100012067D02*
X130172067Y-100047988D01*
X130531277Y-100550882D02*
X130495354Y-100586802D01*
X132493200Y-101758000D02*
X132544000Y-101758000D01*
X129776934Y-100012066D02*
X129812856Y-100047988D01*
X124423579Y-95950000D02*
X125877979Y-95950000D01*
X123630091Y-95850091D02*
X124323670Y-95850091D01*
X131731200Y-101504000D02*
X131782000Y-101504000D01*
X124323670Y-95850091D02*
X124423579Y-95950000D01*
X131883600Y-101605600D02*
X131883600Y-101656400D01*
X130854566Y-100730487D02*
X130890487Y-100766408D01*
X132391600Y-101655600D02*
X132391600Y-101656400D01*
X129284306Y-98916344D02*
X129286306Y-98918344D01*
X132544000Y-101758000D02*
X132727158Y-101758000D01*
X129286306Y-98918344D02*
X129286306Y-99521438D01*
D14*
X123290000Y-95510000D02*
X123030000Y-95510000D01*
D13*
X132036000Y-101758000D02*
G75*
G03*
X132137600Y-101656400I0J101600D01*
G01*
X130495354Y-100586802D02*
G75*
G03*
X130495398Y-100730442I71846J-71798D01*
G01*
X131070092Y-101089697D02*
G75*
G02*
X131213776Y-101089697I71842J-71842D01*
G01*
X129453646Y-99688778D02*
G75*
G03*
X129597330Y-99688778I71842J71842D01*
G01*
X131528000Y-101758000D02*
G75*
G03*
X131629600Y-101656400I0J101600D01*
G01*
X131213774Y-101305222D02*
G75*
G03*
X131213738Y-101448942I71826J-71878D01*
G01*
X130172066Y-100407198D02*
G75*
G03*
X130315750Y-100407198I71842J71842D01*
G01*
X130136144Y-100227592D02*
G75*
G03*
X130136178Y-100371242I71856J-71808D01*
G01*
X132290000Y-101554000D02*
G75*
G02*
X132391600Y-101655600I0J-101600D01*
G01*
X131249697Y-101125618D02*
G75*
G02*
X131249737Y-101269342I-71797J-71882D01*
G01*
X131782000Y-101504000D02*
G75*
G02*
X131883600Y-101605600I0J-101600D01*
G01*
X130854564Y-100946012D02*
G75*
G03*
X130854518Y-101089742I71836J-71888D01*
G01*
X132137600Y-101655600D02*
G75*
G02*
X132239200Y-101554000I101600J0D01*
G01*
X130710882Y-100730487D02*
G75*
G02*
X130854566Y-100730487I71842J-71842D01*
G01*
X132391600Y-101656400D02*
G75*
G03*
X132493200Y-101758000I101600J0D01*
G01*
X129776934Y-99868382D02*
G75*
G03*
X129776958Y-100012042I71866J-71818D01*
G01*
X130890487Y-100766408D02*
G75*
G02*
X130890537Y-100910142I-71887J-71892D01*
G01*
X130890486Y-101125618D02*
G75*
G03*
X131034170Y-101125618I71842J71842D01*
G01*
X131629600Y-101605600D02*
G75*
G02*
X131731200Y-101504000I101600J0D01*
G01*
X129812857Y-99688778D02*
G75*
G02*
X129812837Y-99832442I-71857J-71822D01*
G01*
X130531277Y-100407198D02*
G75*
G02*
X130531237Y-100550842I-71877J-71802D01*
G01*
X130351672Y-100371277D02*
G75*
G02*
X130495356Y-100371277I71842J-71842D01*
G01*
X130531276Y-100766408D02*
G75*
G03*
X130674960Y-100766408I71842J71842D01*
G01*
X130172067Y-100047988D02*
G75*
G02*
X130172037Y-100191642I-71867J-71812D01*
G01*
X129992462Y-100012067D02*
G75*
G02*
X130136146Y-100012067I71842J-71842D01*
G01*
X129633252Y-99652857D02*
G75*
G02*
X129776936Y-99652857I71842J-71842D01*
G01*
X129812856Y-100047988D02*
G75*
G03*
X129956540Y-100047988I71842J71842D01*
G01*
X131883600Y-101656400D02*
G75*
G03*
X131985200Y-101758000I101600J0D01*
G01*
%TO.N,XSPIM_P1_IO15*%
X130643768Y-99554558D02*
X130679690Y-99590480D01*
X133254241Y-100851800D02*
X133254241Y-100750200D01*
X126900000Y-96000000D02*
X127691243Y-96000000D01*
X132847841Y-100647800D02*
X132898641Y-100647800D01*
X133101841Y-101105800D02*
X133152641Y-101105800D01*
X132593841Y-101055800D02*
X132644641Y-101055800D01*
X131382500Y-100612500D02*
X132151341Y-100612500D01*
X133778880Y-100851800D02*
X134088200Y-100851800D01*
X130935110Y-100453609D02*
X130971031Y-100489530D01*
X130935676Y-100309360D02*
X130935110Y-100309925D01*
X134088200Y-100851800D02*
X134150000Y-100790000D01*
X133000241Y-100851800D02*
X133000241Y-101004200D01*
X130464163Y-99590480D02*
X130500084Y-99554558D01*
X130320480Y-99374954D02*
X130284558Y-99410875D01*
X132746241Y-100851800D02*
X132746241Y-100749400D01*
X125670000Y-94770000D02*
X126900000Y-96000000D01*
X124146329Y-94770000D02*
X125670000Y-94770000D01*
X133355841Y-100647800D02*
X133406641Y-100647800D01*
X124100000Y-94780000D02*
X124136329Y-94780000D01*
X130679690Y-99590480D02*
X130935676Y-99846466D01*
X133609841Y-100851800D02*
X133660641Y-100851800D01*
X133000241Y-100749400D02*
X133000241Y-100851800D01*
X132492241Y-100953400D02*
X132492241Y-100954200D01*
X133254241Y-100750200D02*
X133254241Y-100749400D01*
X129794306Y-98103063D02*
X129794306Y-98705096D01*
X132304421Y-100765580D02*
X132379266Y-100840425D01*
X130935676Y-100150466D02*
X130935676Y-100165676D01*
X132746241Y-100953400D02*
X132746241Y-100851800D01*
X131294886Y-100524886D02*
X131382500Y-100612500D01*
X131258964Y-100488964D02*
X131294886Y-100524886D01*
X127691243Y-96000000D02*
X129794306Y-98103063D01*
X130284558Y-99554559D02*
X130320479Y-99590480D01*
X133508241Y-100749400D02*
X133508241Y-100750200D01*
X132151341Y-100612500D02*
X132304421Y-100765580D01*
X132746241Y-100954200D02*
X132746241Y-100953400D01*
X129794306Y-98705096D02*
X130320480Y-99231270D01*
X130935676Y-99846466D02*
X130935676Y-100150466D01*
X133254241Y-101004200D02*
X133254241Y-100851800D01*
X132379266Y-100840425D02*
X132390641Y-100851800D01*
X133660641Y-100851800D02*
X133778880Y-100851800D01*
X124136329Y-94780000D02*
X124146329Y-94770000D01*
X131114715Y-100489530D02*
X131115280Y-100488964D01*
X131115280Y-100488964D02*
G75*
G02*
X131258964Y-100488964I71842J-71842D01*
G01*
X133152641Y-101105800D02*
G75*
G03*
X133254200Y-101004200I-41J101600D01*
G01*
X130971031Y-100489530D02*
G75*
G03*
X131114715Y-100489530I71842J71842D01*
G01*
X132492241Y-100954200D02*
G75*
G03*
X132593841Y-101055759I101559J0D01*
G01*
X130935676Y-100165676D02*
G75*
G02*
X130935658Y-100309342I-71876J-71824D01*
G01*
X132898641Y-100647800D02*
G75*
G02*
X133000200Y-100749400I-41J-101600D01*
G01*
X130500084Y-99554558D02*
G75*
G02*
X130643768Y-99554558I71842J-71842D01*
G01*
X130320480Y-99231270D02*
G75*
G02*
X130320468Y-99374942I-71880J-71830D01*
G01*
X130320479Y-99590480D02*
G75*
G03*
X130464163Y-99590480I71842J71842D01*
G01*
X130935110Y-100309925D02*
G75*
G03*
X130935077Y-100453642I71890J-71875D01*
G01*
X133254241Y-100749400D02*
G75*
G02*
X133355841Y-100647841I101559J0D01*
G01*
X132390641Y-100851800D02*
G75*
G02*
X132492200Y-100953400I-41J-101600D01*
G01*
X130284558Y-99410875D02*
G75*
G03*
X130284575Y-99554542I71842J-71825D01*
G01*
X132644641Y-101055800D02*
G75*
G03*
X132746200Y-100954200I-41J101600D01*
G01*
X132746241Y-100749400D02*
G75*
G02*
X132847841Y-100647841I101559J0D01*
G01*
X133508241Y-100750200D02*
G75*
G03*
X133609841Y-100851759I101559J0D01*
G01*
X133406641Y-100647800D02*
G75*
G02*
X133508200Y-100749400I-41J-101600D01*
G01*
X133000241Y-101004200D02*
G75*
G03*
X133101841Y-101105759I101559J0D01*
G01*
%TO.N,DVID_SEL1*%
X130800000Y-85590000D02*
X130970000Y-85420000D01*
X124810000Y-99880000D02*
X124254443Y-99880000D01*
X129048136Y-101390000D02*
X128970472Y-101312336D01*
X125260000Y-100330000D02*
X124810000Y-99880000D01*
X127970000Y-100330000D02*
X125260000Y-100330000D01*
D14*
X130970000Y-83996230D02*
X130952182Y-83978412D01*
D13*
X130970000Y-85420000D02*
X130970000Y-83996230D01*
X128952336Y-101312336D02*
X127970000Y-100330000D01*
X124254443Y-99880000D02*
X124229343Y-99905100D01*
X128970472Y-101312336D02*
X128952336Y-101312336D01*
X124229343Y-99905100D02*
X124218391Y-99905100D01*
%TO.N,XSPIM_P1_IO4*%
X127583433Y-96256000D02*
X129538306Y-98210873D01*
X125456841Y-95150906D02*
X125456841Y-95156841D01*
X129538306Y-98988306D02*
X129740000Y-99190000D01*
X126556000Y-96256000D02*
X127583433Y-96256000D01*
X129538306Y-98210873D02*
X129538306Y-98988306D01*
X125456841Y-95156841D02*
X126556000Y-96256000D01*
%TO.N,XSPIM_P1_IO8*%
X133844787Y-95564315D02*
X133844787Y-95694047D01*
D14*
X124313434Y-91004861D02*
X124313434Y-91123500D01*
D13*
X133465372Y-95184900D02*
X133844787Y-95564315D01*
X131962310Y-93622310D02*
X131998232Y-93658232D01*
X132645376Y-94016877D02*
X132681297Y-94052798D01*
X126421538Y-91449568D02*
X124639502Y-91449568D01*
X128248289Y-91210000D02*
X127817289Y-91641000D01*
X126612970Y-91641000D02*
X126421538Y-91449568D01*
X132321520Y-93981520D02*
X132357442Y-94017442D01*
X127817289Y-91641000D02*
X126612970Y-91641000D01*
X132501126Y-94017442D02*
X132501692Y-94016877D01*
X133075862Y-94735862D02*
X133147611Y-94807611D01*
X131423496Y-92939812D02*
X131424062Y-92939247D01*
X133147611Y-94807611D02*
X133147611Y-94897139D01*
X131962877Y-93478062D02*
X131962310Y-93478626D01*
X132322087Y-93837272D02*
X132321520Y-93837836D01*
X133004586Y-94376087D02*
X133040507Y-94412008D01*
X132681297Y-94196482D02*
X132680730Y-94197046D01*
X131926956Y-93298457D02*
X131962877Y-93334378D01*
X132860336Y-94376652D02*
X132860902Y-94376087D01*
X129550000Y-91210000D02*
X128248289Y-91210000D01*
X132680730Y-94340730D02*
X132716652Y-94376652D01*
X131782706Y-93299022D02*
X131783272Y-93298457D01*
X132141916Y-93658232D02*
X132142482Y-93657667D01*
X133039940Y-94699940D02*
X133075862Y-94735862D01*
X132286166Y-93657667D02*
X132322087Y-93693588D01*
X133040507Y-94555692D02*
X133039940Y-94556256D01*
X131603100Y-93263100D02*
X131639022Y-93299022D01*
X124639502Y-91449568D02*
X124313434Y-91123500D01*
X133147611Y-94897139D02*
X133435372Y-95184900D01*
D14*
X124329227Y-90989068D02*
X124313434Y-91004861D01*
D13*
X131603667Y-93118852D02*
X131603100Y-93119416D01*
X131567746Y-92939247D02*
X131603667Y-92975168D01*
X131279812Y-92939812D02*
X129550000Y-91210000D01*
X133435372Y-95184900D02*
X133465372Y-95184900D01*
X133039940Y-94556256D02*
G75*
G03*
X133039938Y-94699942I71860J-71844D01*
G01*
X131639022Y-93299022D02*
G75*
G03*
X131782706Y-93299022I71842J71842D01*
G01*
X131783272Y-93298457D02*
G75*
G02*
X131926956Y-93298457I71842J-71842D01*
G01*
X131998232Y-93658232D02*
G75*
G03*
X132141916Y-93658232I71842J71842D01*
G01*
X132501692Y-94016877D02*
G75*
G02*
X132645376Y-94016877I71842J-71842D01*
G01*
X131279812Y-92939812D02*
G75*
G03*
X131423496Y-92939812I71842J71842D01*
G01*
X132681297Y-94052798D02*
G75*
G02*
X132681257Y-94196442I-71797J-71802D01*
G01*
X131962877Y-93334378D02*
G75*
G02*
X131962857Y-93478042I-71877J-71822D01*
G01*
X131603667Y-92975168D02*
G75*
G02*
X131603657Y-93118842I-71867J-71832D01*
G01*
X132716652Y-94376652D02*
G75*
G03*
X132860336Y-94376652I71842J71842D01*
G01*
X132321520Y-93837836D02*
G75*
G03*
X132321498Y-93981542I71880J-71864D01*
G01*
X131603100Y-93119416D02*
G75*
G03*
X131603058Y-93263142I71800J-71884D01*
G01*
X132357442Y-94017442D02*
G75*
G03*
X132501126Y-94017442I71842J71842D01*
G01*
X131424062Y-92939247D02*
G75*
G02*
X131567746Y-92939247I71842J-71842D01*
G01*
X132322087Y-93693588D02*
G75*
G02*
X132322057Y-93837242I-71887J-71812D01*
G01*
X133040507Y-94412008D02*
G75*
G02*
X133040557Y-94555742I-71807J-71892D01*
G01*
X132142482Y-93657667D02*
G75*
G02*
X132286166Y-93657667I71842J-71842D01*
G01*
X131962310Y-93478626D02*
G75*
G03*
X131962278Y-93622342I71890J-71874D01*
G01*
X132680730Y-94197046D02*
G75*
G03*
X132680718Y-94340742I71870J-71854D01*
G01*
X132860902Y-94376087D02*
G75*
G02*
X133004586Y-94376087I71842J-71842D01*
G01*
%TO.N,XSPIM_P1_IO11*%
X134075489Y-101770000D02*
X134126289Y-101770000D01*
X129811800Y-100448971D02*
X128952300Y-99589471D01*
X135213500Y-101299631D02*
X135213500Y-101124091D01*
X134481889Y-101922400D02*
X134481889Y-101871600D01*
X134583489Y-101770000D02*
X134634289Y-101770000D01*
X132868289Y-102012000D02*
X133110289Y-101770000D01*
X133211889Y-101871600D02*
X133211889Y-101922400D01*
X128952300Y-98315310D02*
X127400990Y-96764000D01*
X124559868Y-96710000D02*
X124168298Y-96318430D01*
X133973889Y-101922400D02*
X133973889Y-101871600D01*
X125467817Y-96559797D02*
X125317615Y-96710000D01*
X134821566Y-101691565D02*
X135213500Y-101299631D01*
X125317615Y-96710000D02*
X124559868Y-96710000D01*
X133465889Y-101922400D02*
X133465889Y-101871600D01*
X124168298Y-96318430D02*
X124168298Y-96225191D01*
X126361523Y-96764000D02*
X126157319Y-96559797D01*
X134743131Y-101770000D02*
X134821566Y-101691565D01*
X134634289Y-101770000D02*
X134743131Y-101770000D01*
X129811800Y-100457194D02*
X131366606Y-102012000D01*
X133821489Y-102024000D02*
X133872289Y-102024000D01*
X133567489Y-101770000D02*
X133618289Y-101770000D01*
X135213500Y-101124091D02*
X135769816Y-100567775D01*
X133719889Y-101871600D02*
X133719889Y-101922400D01*
X131366606Y-102012000D02*
X132868289Y-102012000D01*
X127400990Y-96764000D02*
X126361523Y-96764000D01*
X135769816Y-100567775D02*
X135769816Y-100419816D01*
X128952300Y-99589471D02*
X128952300Y-98315310D01*
X134329489Y-102024000D02*
X134380289Y-102024000D01*
X134227889Y-101871600D02*
X134227889Y-101922400D01*
X133313489Y-102024000D02*
X133364289Y-102024000D01*
X126157319Y-96559797D02*
X125467817Y-96559797D01*
X134227889Y-101922400D02*
G75*
G03*
X134329489Y-102024011I101611J0D01*
G01*
X133211889Y-101922400D02*
G75*
G03*
X133313489Y-102024011I101611J0D01*
G01*
X133618289Y-101770000D02*
G75*
G02*
X133719900Y-101871600I11J-101600D01*
G01*
X134126289Y-101770000D02*
G75*
G02*
X134227900Y-101871600I11J-101600D01*
G01*
X133110289Y-101770000D02*
G75*
G02*
X133211900Y-101871600I11J-101600D01*
G01*
X133973889Y-101871600D02*
G75*
G02*
X134075489Y-101769989I101611J0D01*
G01*
X134380289Y-102024000D02*
G75*
G03*
X134481900Y-101922400I11J101600D01*
G01*
X134481889Y-101871600D02*
G75*
G02*
X134583489Y-101769989I101611J0D01*
G01*
X133465889Y-101871600D02*
G75*
G02*
X133567489Y-101769989I101611J0D01*
G01*
X133364289Y-102024000D02*
G75*
G03*
X133465900Y-101922400I11J101600D01*
G01*
X133719889Y-101922400D02*
G75*
G03*
X133821489Y-102024011I101611J0D01*
G01*
X133872289Y-102024000D02*
G75*
G03*
X133973900Y-101922400I11J101600D01*
G01*
%TO.N,XSPI_M_P1_DQS0*%
X128050000Y-94470000D02*
X128350000Y-94470000D01*
X124058331Y-93083462D02*
X124321169Y-93346300D01*
D14*
X123334932Y-92561030D02*
X123348876Y-92547086D01*
D13*
X133342918Y-98852400D02*
X133342918Y-98801600D01*
X128493684Y-94470000D02*
X128529606Y-94434079D01*
X125260062Y-93346300D02*
X125358162Y-93444400D01*
X129786840Y-95906840D02*
X130280000Y-96400000D01*
X133088918Y-98547600D02*
X133088918Y-98598400D01*
X133444518Y-98700000D02*
X133495318Y-98700000D01*
X129391710Y-95152499D02*
X129427631Y-95188420D01*
X128852894Y-94829210D02*
X128888816Y-94793289D01*
X133495318Y-98700000D02*
X133820000Y-98700000D01*
X127024400Y-93444400D02*
X127555000Y-93975000D01*
X133088918Y-98598400D02*
X133088918Y-98801600D01*
X123857364Y-93083462D02*
X124058331Y-93083462D01*
X125358162Y-93444400D02*
X127024400Y-93444400D01*
X127555000Y-93975000D02*
X128050000Y-94470000D01*
X129750920Y-95511709D02*
X129786841Y-95547630D01*
X129032498Y-95152498D02*
X129068420Y-95188420D01*
X130280000Y-96400000D02*
X131749500Y-97869500D01*
X133088918Y-98801600D02*
X133088918Y-98852400D01*
X128673290Y-94434079D02*
X128709211Y-94470000D01*
X128673288Y-94793288D02*
X128709210Y-94829210D01*
X132936518Y-98446000D02*
X132987318Y-98446000D01*
X132602923Y-98830395D02*
X132733318Y-98700000D01*
X132213489Y-98830395D02*
X132602923Y-98830395D01*
X124321169Y-93346300D02*
X125260062Y-93346300D01*
X131749500Y-97869500D02*
X131749500Y-98366406D01*
X129068421Y-94972894D02*
X129032498Y-95008814D01*
X129750918Y-95870918D02*
X129786840Y-95906840D01*
X129032500Y-94793289D02*
X129068421Y-94829210D01*
X129427631Y-95332104D02*
X129391708Y-95368024D01*
X128709211Y-94613684D02*
X128673288Y-94649604D01*
X132834918Y-98598400D02*
X132834918Y-98547600D01*
D14*
X123348876Y-92547086D02*
X123348876Y-92517921D01*
D13*
X129786841Y-95691314D02*
X129750918Y-95727234D01*
X129391708Y-95511708D02*
X129427630Y-95547630D01*
X129571314Y-95547630D02*
X129607236Y-95511709D01*
X123334932Y-92561030D02*
X123857364Y-93083462D01*
X133190518Y-98954000D02*
X133241318Y-98954000D01*
X131749500Y-98366406D02*
X132213489Y-98830395D01*
X129212104Y-95188420D02*
X129248026Y-95152499D01*
X133342918Y-98801600D02*
G75*
G02*
X133444518Y-98700018I101582J0D01*
G01*
X132733318Y-98700000D02*
G75*
G03*
X132834900Y-98598400I-18J101600D01*
G01*
X133088918Y-98852400D02*
G75*
G03*
X133190518Y-98953982I101582J0D01*
G01*
X129248026Y-95152499D02*
G75*
G02*
X129391710Y-95152499I71842J-71842D01*
G01*
X129068421Y-94829210D02*
G75*
G02*
X129068469Y-94972942I-71821J-71890D01*
G01*
X128888816Y-94793289D02*
G75*
G02*
X129032500Y-94793289I71842J-71842D01*
G01*
X129427631Y-95188420D02*
G75*
G02*
X129427669Y-95332142I-71831J-71880D01*
G01*
X129427630Y-95547630D02*
G75*
G03*
X129571314Y-95547630I71842J71842D01*
G01*
X132987318Y-98446000D02*
G75*
G02*
X133088900Y-98547600I-18J-101600D01*
G01*
X129607236Y-95511709D02*
G75*
G02*
X129750920Y-95511709I71842J-71842D01*
G01*
X128709211Y-94470000D02*
G75*
G02*
X128709169Y-94613642I-71811J-71800D01*
G01*
X129032498Y-95008814D02*
G75*
G03*
X129032454Y-95152542I71802J-71886D01*
G01*
X128673288Y-94649604D02*
G75*
G03*
X128673334Y-94793242I71812J-71796D01*
G01*
X133241318Y-98954000D02*
G75*
G03*
X133342900Y-98852400I-18J101600D01*
G01*
X132834918Y-98547600D02*
G75*
G02*
X132936518Y-98446018I101582J0D01*
G01*
X129750918Y-95727234D02*
G75*
G03*
X129750894Y-95870942I71882J-71866D01*
G01*
X128529606Y-94434079D02*
G75*
G02*
X128673290Y-94434079I71842J-71842D01*
G01*
X128350000Y-94470000D02*
G75*
G03*
X128493684Y-94470000I71842J71842D01*
G01*
X129068420Y-95188420D02*
G75*
G03*
X129212104Y-95188420I71842J71842D01*
G01*
X129391708Y-95368024D02*
G75*
G03*
X129391674Y-95511742I71792J-71876D01*
G01*
X128709210Y-94829210D02*
G75*
G03*
X128852894Y-94829210I71842J71842D01*
G01*
X129786841Y-95547630D02*
G75*
G02*
X129786869Y-95691342I-71841J-71870D01*
G01*
%TO.N,SDMMC_D6*%
X107408785Y-88817560D02*
X107536345Y-88690000D01*
X111447945Y-88842400D02*
X111447945Y-88690000D01*
X105614236Y-89570016D02*
X105644220Y-89600000D01*
X108399945Y-88690000D02*
X108399945Y-88613000D01*
X109415945Y-88690000D02*
X109415945Y-88613000D01*
X116458147Y-88942769D02*
X116707704Y-88942769D01*
X110177945Y-88613000D02*
X110177945Y-88690000D01*
X107891945Y-88791600D02*
X107891945Y-88690000D01*
X107891945Y-88690000D02*
X107891945Y-88613000D01*
X109415945Y-88842400D02*
X109415945Y-88690000D01*
X108247545Y-88944000D02*
X108298345Y-88944000D01*
X116090916Y-89310000D02*
X116458147Y-88942769D01*
X109771545Y-88944000D02*
X109822345Y-88944000D01*
X109161945Y-88690000D02*
X109161945Y-88842400D01*
X108145945Y-88690000D02*
X108145945Y-88842400D01*
X108399945Y-88842400D02*
X108399945Y-88690000D01*
X109161945Y-88613000D02*
X109161945Y-88690000D01*
X110000945Y-88536000D02*
X110100945Y-88536000D01*
X108145945Y-88613000D02*
X108145945Y-88690000D01*
X109492945Y-88536000D02*
X109592945Y-88536000D01*
X111524945Y-88536000D02*
X111624945Y-88536000D01*
X111295545Y-88944000D02*
X111346345Y-88944000D01*
X110685945Y-88613000D02*
X110685945Y-88690000D01*
X112865305Y-89310000D02*
X116090916Y-89310000D01*
X108653945Y-88690000D02*
X108653945Y-88842400D01*
X111193945Y-88690000D02*
X111193945Y-88842400D01*
X111016945Y-88536000D02*
X111116945Y-88536000D01*
X111193945Y-88613000D02*
X111193945Y-88690000D01*
X108907945Y-88690000D02*
X108907945Y-88613000D01*
X111447945Y-88690000D02*
X111447945Y-88613000D01*
X105644220Y-89600000D02*
X105739599Y-89600000D01*
X111955945Y-88842400D02*
X111955945Y-88791600D01*
X110787545Y-88944000D02*
X110838345Y-88944000D01*
X111701945Y-88791600D02*
X111701945Y-88842400D01*
X107739545Y-88944000D02*
X107790345Y-88944000D01*
X112108345Y-88690000D02*
X112245305Y-88690000D01*
X111701945Y-88613000D02*
X111701945Y-88690000D01*
X110177945Y-88690000D02*
X110177945Y-88842400D01*
X109669945Y-88613000D02*
X109669945Y-88690000D01*
X111701945Y-88690000D02*
X111701945Y-88791600D01*
X105739599Y-89600000D02*
X106522039Y-88817560D01*
X112245305Y-88690000D02*
X112865305Y-89310000D01*
X110431945Y-88690000D02*
X110431945Y-88613000D01*
X108755545Y-88944000D02*
X108806345Y-88944000D01*
X110939945Y-88690000D02*
X110939945Y-88613000D01*
X108907945Y-88842400D02*
X108907945Y-88690000D01*
X112057545Y-88690000D02*
X112108345Y-88690000D01*
X110685945Y-88690000D02*
X110685945Y-88842400D01*
X108653945Y-88613000D02*
X108653945Y-88690000D01*
X110939945Y-88842400D02*
X110939945Y-88690000D01*
X108984945Y-88536000D02*
X109084945Y-88536000D01*
X107891945Y-88842400D02*
X107891945Y-88791600D01*
X110508945Y-88536000D02*
X110608945Y-88536000D01*
X109669945Y-88690000D02*
X109669945Y-88842400D01*
X108476945Y-88536000D02*
X108576945Y-88536000D01*
X109923945Y-88690000D02*
X109923945Y-88613000D01*
X111803545Y-88944000D02*
X111854345Y-88944000D01*
X106522039Y-88817560D02*
X107408785Y-88817560D01*
X110279545Y-88944000D02*
X110330345Y-88944000D01*
X110431945Y-88842400D02*
X110431945Y-88690000D01*
X107968945Y-88536000D02*
X108068945Y-88536000D01*
X109263545Y-88944000D02*
X109314345Y-88944000D01*
X109923945Y-88842400D02*
X109923945Y-88690000D01*
X107637945Y-88791600D02*
X107637945Y-88842400D01*
X110608945Y-88536000D02*
G75*
G02*
X110685900Y-88613000I-45J-77000D01*
G01*
X110939945Y-88613000D02*
G75*
G02*
X111016945Y-88536045I76955J0D01*
G01*
X110838345Y-88944000D02*
G75*
G03*
X110939900Y-88842400I-45J101600D01*
G01*
X108145945Y-88842400D02*
G75*
G03*
X108247545Y-88943955I101555J0D01*
G01*
X108907945Y-88613000D02*
G75*
G02*
X108984945Y-88536045I76955J0D01*
G01*
X109161945Y-88842400D02*
G75*
G03*
X109263545Y-88943955I101555J0D01*
G01*
X109084945Y-88536000D02*
G75*
G02*
X109161900Y-88613000I-45J-77000D01*
G01*
X110330345Y-88944000D02*
G75*
G03*
X110431900Y-88842400I-45J101600D01*
G01*
X109822345Y-88944000D02*
G75*
G03*
X109923900Y-88842400I-45J101600D01*
G01*
X107637945Y-88842400D02*
G75*
G03*
X107739545Y-88943955I101555J0D01*
G01*
X107790345Y-88944000D02*
G75*
G03*
X107891900Y-88842400I-45J101600D01*
G01*
X108576945Y-88536000D02*
G75*
G02*
X108653900Y-88613000I-45J-77000D01*
G01*
X111955945Y-88791600D02*
G75*
G02*
X112057545Y-88690045I101555J0D01*
G01*
X110100945Y-88536000D02*
G75*
G02*
X110177900Y-88613000I-45J-77000D01*
G01*
X110431945Y-88613000D02*
G75*
G02*
X110508945Y-88536045I76955J0D01*
G01*
X107891945Y-88613000D02*
G75*
G02*
X107968945Y-88536045I76955J0D01*
G01*
X108806345Y-88944000D02*
G75*
G03*
X108907900Y-88842400I-45J101600D01*
G01*
X107536345Y-88690000D02*
G75*
G02*
X107637900Y-88791600I-45J-101600D01*
G01*
X110685945Y-88842400D02*
G75*
G03*
X110787545Y-88943955I101555J0D01*
G01*
X109314345Y-88944000D02*
G75*
G03*
X109415900Y-88842400I-45J101600D01*
G01*
X108298345Y-88944000D02*
G75*
G03*
X108399900Y-88842400I-45J101600D01*
G01*
X109669945Y-88842400D02*
G75*
G03*
X109771545Y-88943955I101555J0D01*
G01*
X109415945Y-88613000D02*
G75*
G02*
X109492945Y-88536045I76955J0D01*
G01*
X111193945Y-88842400D02*
G75*
G03*
X111295545Y-88943955I101555J0D01*
G01*
X108399945Y-88613000D02*
G75*
G02*
X108476945Y-88536045I76955J0D01*
G01*
X108653945Y-88842400D02*
G75*
G03*
X108755545Y-88943955I101555J0D01*
G01*
X109923945Y-88613000D02*
G75*
G02*
X110000945Y-88536045I76955J0D01*
G01*
X111624945Y-88536000D02*
G75*
G02*
X111701900Y-88613000I-45J-77000D01*
G01*
X110177945Y-88842400D02*
G75*
G03*
X110279545Y-88943955I101555J0D01*
G01*
X111447945Y-88613000D02*
G75*
G02*
X111524945Y-88536045I76955J0D01*
G01*
X109592945Y-88536000D02*
G75*
G02*
X109669900Y-88613000I-45J-77000D01*
G01*
X108068945Y-88536000D02*
G75*
G02*
X108145900Y-88613000I-45J-77000D01*
G01*
X111701945Y-88842400D02*
G75*
G03*
X111803545Y-88943955I101555J0D01*
G01*
X111854345Y-88944000D02*
G75*
G03*
X111955900Y-88842400I-45J101600D01*
G01*
X111346345Y-88944000D02*
G75*
G03*
X111447900Y-88842400I-45J101600D01*
G01*
X111116945Y-88536000D02*
G75*
G02*
X111193900Y-88613000I-45J-77000D01*
G01*
%TO.N,SDMMC_D2*%
X109735316Y-90107600D02*
X109735316Y-90260000D01*
X110243316Y-90260000D02*
X110243316Y-90412400D01*
X110751316Y-90260000D02*
X110751316Y-90412400D01*
X110751316Y-90107600D02*
X110751316Y-90260000D01*
X108973316Y-90260000D02*
X108973316Y-90107600D01*
X108719316Y-90107600D02*
X108719316Y-90260000D01*
X110598916Y-90006000D02*
X110649716Y-90006000D01*
X108465316Y-90260000D02*
X108465316Y-90107600D01*
X109989316Y-90412400D02*
X109989316Y-90260000D01*
X112529316Y-90158400D02*
X112529316Y-90107600D01*
X111513316Y-90412400D02*
X111513316Y-90260000D01*
X109481316Y-90260000D02*
X109481316Y-90107600D01*
X111106916Y-90006000D02*
X111157716Y-90006000D01*
X111513316Y-90260000D02*
X111513316Y-90107600D01*
X113250000Y-90260000D02*
X113596300Y-89913700D01*
X111005316Y-90412400D02*
X111005316Y-90260000D01*
X112021316Y-90412400D02*
X112021316Y-90260000D01*
X112783316Y-90107600D02*
X112783316Y-90158400D01*
X112884916Y-90260000D02*
X112935716Y-90260000D01*
X111259316Y-90260000D02*
X111259316Y-90412400D01*
X107957316Y-90361600D02*
X107957316Y-90260000D01*
X110852916Y-90514000D02*
X110903716Y-90514000D01*
X109582916Y-90006000D02*
X109633716Y-90006000D01*
X106777613Y-89906645D02*
X107130968Y-90260000D01*
X109227316Y-90260000D02*
X109227316Y-90412400D01*
X109735316Y-90260000D02*
X109735316Y-90412400D01*
X112376916Y-90514000D02*
X112427716Y-90514000D01*
X108566916Y-90006000D02*
X108617716Y-90006000D01*
X108058916Y-90006000D02*
X108109716Y-90006000D01*
X112122916Y-90006000D02*
X112173716Y-90006000D01*
X109836916Y-90514000D02*
X109887716Y-90514000D01*
X109328916Y-90514000D02*
X109379716Y-90514000D01*
X108465316Y-90412400D02*
X108465316Y-90260000D01*
X108312916Y-90514000D02*
X108363716Y-90514000D01*
X109989316Y-90260000D02*
X109989316Y-90107600D01*
X112275316Y-90107600D02*
X112275316Y-90260000D01*
X107957316Y-90260000D02*
X107957316Y-90107600D01*
X109481316Y-90412400D02*
X109481316Y-90260000D01*
X109074916Y-90006000D02*
X109125716Y-90006000D01*
X111868916Y-90514000D02*
X111919716Y-90514000D01*
X107957316Y-90412400D02*
X107957316Y-90361600D01*
X112275316Y-90260000D02*
X112275316Y-90412400D01*
X110243316Y-90107600D02*
X110243316Y-90260000D01*
X108973316Y-90412400D02*
X108973316Y-90260000D01*
X112630916Y-90006000D02*
X112681716Y-90006000D01*
X112529316Y-90260000D02*
X112529316Y-90158400D01*
X112021316Y-90260000D02*
X112021316Y-90107600D01*
X112935716Y-90260000D02*
X113250000Y-90260000D01*
X110497316Y-90412400D02*
X110497316Y-90260000D01*
X110497316Y-90260000D02*
X110497316Y-90107600D01*
X111767316Y-90107600D02*
X111767316Y-90260000D01*
X113596300Y-89913700D02*
X114510000Y-89913700D01*
X111005316Y-90260000D02*
X111005316Y-90107600D01*
X110344916Y-90514000D02*
X110395716Y-90514000D01*
X107804916Y-90514000D02*
X107855716Y-90514000D01*
X111259316Y-90107600D02*
X111259316Y-90260000D01*
X107703316Y-90361600D02*
X107703316Y-90412400D01*
X108211316Y-90107600D02*
X108211316Y-90260000D01*
X109227316Y-90107600D02*
X109227316Y-90260000D01*
X112529316Y-90412400D02*
X112529316Y-90260000D01*
X111614916Y-90006000D02*
X111665716Y-90006000D01*
X111767316Y-90260000D02*
X111767316Y-90412400D01*
X108719316Y-90260000D02*
X108719316Y-90412400D01*
X110090916Y-90006000D02*
X110141716Y-90006000D01*
X111360916Y-90514000D02*
X111411716Y-90514000D01*
X107130968Y-90260000D02*
X107601716Y-90260000D01*
X108211316Y-90260000D02*
X108211316Y-90412400D01*
X108820916Y-90514000D02*
X108871716Y-90514000D01*
X109887716Y-90514000D02*
G75*
G03*
X109989300Y-90412400I-16J101600D01*
G01*
X112681716Y-90006000D02*
G75*
G02*
X112783300Y-90107600I-16J-101600D01*
G01*
X111513316Y-90107600D02*
G75*
G02*
X111614916Y-90006016I101584J0D01*
G01*
X110141716Y-90006000D02*
G75*
G02*
X110243300Y-90107600I-16J-101600D01*
G01*
X109227316Y-90412400D02*
G75*
G03*
X109328916Y-90513984I101584J0D01*
G01*
X111767316Y-90412400D02*
G75*
G03*
X111868916Y-90513984I101584J0D01*
G01*
X108465316Y-90107600D02*
G75*
G02*
X108566916Y-90006016I101584J0D01*
G01*
X112529316Y-90107600D02*
G75*
G02*
X112630916Y-90006016I101584J0D01*
G01*
X108363716Y-90514000D02*
G75*
G03*
X108465300Y-90412400I-16J101600D01*
G01*
X108719316Y-90412400D02*
G75*
G03*
X108820916Y-90513984I101584J0D01*
G01*
X111665716Y-90006000D02*
G75*
G02*
X111767300Y-90107600I-16J-101600D01*
G01*
X109633716Y-90006000D02*
G75*
G02*
X109735300Y-90107600I-16J-101600D01*
G01*
X108617716Y-90006000D02*
G75*
G02*
X108719300Y-90107600I-16J-101600D01*
G01*
X110497316Y-90107600D02*
G75*
G02*
X110598916Y-90006016I101584J0D01*
G01*
X112427716Y-90514000D02*
G75*
G03*
X112529300Y-90412400I-16J101600D01*
G01*
X107703316Y-90412400D02*
G75*
G03*
X107804916Y-90513984I101584J0D01*
G01*
X111005316Y-90107600D02*
G75*
G02*
X111106916Y-90006016I101584J0D01*
G01*
X109125716Y-90006000D02*
G75*
G02*
X109227300Y-90107600I-16J-101600D01*
G01*
X112173716Y-90006000D02*
G75*
G02*
X112275300Y-90107600I-16J-101600D01*
G01*
X107601716Y-90260000D02*
G75*
G02*
X107703300Y-90361600I-16J-101600D01*
G01*
X109379716Y-90514000D02*
G75*
G03*
X109481300Y-90412400I-16J101600D01*
G01*
X112275316Y-90412400D02*
G75*
G03*
X112376916Y-90513984I101584J0D01*
G01*
X109481316Y-90107600D02*
G75*
G02*
X109582916Y-90006016I101584J0D01*
G01*
X111411716Y-90514000D02*
G75*
G03*
X111513300Y-90412400I-16J101600D01*
G01*
X107855716Y-90514000D02*
G75*
G03*
X107957300Y-90412400I-16J101600D01*
G01*
X108973316Y-90107600D02*
G75*
G02*
X109074916Y-90006016I101584J0D01*
G01*
X110243316Y-90412400D02*
G75*
G03*
X110344916Y-90513984I101584J0D01*
G01*
X107957316Y-90107600D02*
G75*
G02*
X108058916Y-90006016I101584J0D01*
G01*
X112021316Y-90107600D02*
G75*
G02*
X112122916Y-90006016I101584J0D01*
G01*
X108109716Y-90006000D02*
G75*
G02*
X108211300Y-90107600I-16J-101600D01*
G01*
X109989316Y-90107600D02*
G75*
G02*
X110090916Y-90006016I101584J0D01*
G01*
X111259316Y-90412400D02*
G75*
G03*
X111360916Y-90513984I101584J0D01*
G01*
X109735316Y-90412400D02*
G75*
G03*
X109836916Y-90513984I101584J0D01*
G01*
X110649716Y-90006000D02*
G75*
G02*
X110751300Y-90107600I-16J-101600D01*
G01*
X108871716Y-90514000D02*
G75*
G03*
X108973300Y-90412400I-16J101600D01*
G01*
X112783316Y-90158400D02*
G75*
G03*
X112884916Y-90259984I101584J0D01*
G01*
X110395716Y-90514000D02*
G75*
G03*
X110497300Y-90412400I-16J101600D01*
G01*
X111157716Y-90006000D02*
G75*
G02*
X111259300Y-90107600I-16J-101600D01*
G01*
X110751316Y-90412400D02*
G75*
G03*
X110852916Y-90513984I101584J0D01*
G01*
X110903716Y-90514000D02*
G75*
G03*
X111005300Y-90412400I-16J101600D01*
G01*
X111919716Y-90514000D02*
G75*
G03*
X112021300Y-90412400I-16J101600D01*
G01*
X108211316Y-90412400D02*
G75*
G03*
X108312916Y-90513984I101584J0D01*
G01*
%TO.N,SDMMC_D3*%
X109223688Y-87484000D02*
X109172888Y-87484000D01*
X110341288Y-87280000D02*
X110341288Y-87382400D01*
X107801288Y-87381600D02*
X107801288Y-87432400D01*
X108207688Y-87484000D02*
X108156888Y-87484000D01*
X107801288Y-87280000D02*
X107801288Y-87381600D01*
X108055288Y-87382400D02*
X108055288Y-87280000D01*
X110595288Y-87280000D02*
X110595288Y-87127600D01*
X106806836Y-87280000D02*
X106380000Y-87280000D01*
X108969688Y-87026000D02*
X108918888Y-87026000D01*
X108309288Y-87127600D02*
X108309288Y-87280000D01*
X109579288Y-87382400D02*
X109579288Y-87280000D01*
X106380000Y-87280000D02*
X105660000Y-88000000D01*
X110849288Y-87127600D02*
X110849288Y-87280000D01*
X106806836Y-87280000D02*
X107259012Y-87280000D01*
X109833288Y-87127600D02*
X109833288Y-87280000D01*
X105660000Y-88000000D02*
X105660000Y-88020000D01*
X108055288Y-87280000D02*
X108055288Y-87127600D01*
X111357288Y-87127600D02*
X111357288Y-87280000D01*
X110493688Y-87026000D02*
X110442888Y-87026000D01*
X112450900Y-87280000D02*
X112220888Y-87280000D01*
X109071288Y-87382400D02*
X109071288Y-87280000D01*
X107547288Y-87432400D02*
X107547288Y-87381600D01*
X111865288Y-87127600D02*
X111865288Y-87178400D01*
X108563288Y-87280000D02*
X108563288Y-87127600D01*
X110239688Y-87484000D02*
X110188888Y-87484000D01*
X108563288Y-87382400D02*
X108563288Y-87280000D01*
X109731688Y-87484000D02*
X109680888Y-87484000D01*
X110087288Y-87280000D02*
X110087288Y-87127600D01*
X108461688Y-87026000D02*
X108410888Y-87026000D01*
X108817288Y-87280000D02*
X108817288Y-87382400D01*
X110747688Y-87484000D02*
X110696888Y-87484000D01*
X110595288Y-87382400D02*
X110595288Y-87280000D01*
X109985688Y-87026000D02*
X109934888Y-87026000D01*
X107953688Y-87026000D02*
X107902888Y-87026000D01*
X108715688Y-87484000D02*
X108664888Y-87484000D01*
X111103288Y-87280000D02*
X111103288Y-87127600D01*
X109579288Y-87280000D02*
X109579288Y-87127600D01*
X111763688Y-87484000D02*
X111712888Y-87484000D01*
X109325288Y-87127600D02*
X109325288Y-87280000D01*
X108817288Y-87127600D02*
X108817288Y-87280000D01*
X107699688Y-87534000D02*
X107648888Y-87534000D01*
X109477688Y-87026000D02*
X109426888Y-87026000D01*
X111611288Y-87382400D02*
X111611288Y-87280000D01*
X111001688Y-87026000D02*
X110950888Y-87026000D01*
X110087288Y-87382400D02*
X110087288Y-87280000D01*
X109071288Y-87280000D02*
X109071288Y-87127600D01*
X110849288Y-87280000D02*
X110849288Y-87382400D01*
X112119288Y-87178400D02*
X112119288Y-87127600D01*
X111509688Y-87026000D02*
X111458888Y-87026000D01*
X107445688Y-87280000D02*
X107394888Y-87280000D01*
X107394888Y-87280000D02*
X107259012Y-87280000D01*
X108309288Y-87280000D02*
X108309288Y-87382400D01*
X111865288Y-87280000D02*
X111865288Y-87382400D01*
X109833288Y-87280000D02*
X109833288Y-87382400D01*
X110341288Y-87127600D02*
X110341288Y-87280000D01*
X107801288Y-87127600D02*
X107801288Y-87280000D01*
X112017688Y-87026000D02*
X111966888Y-87026000D01*
X111865288Y-87178400D02*
X111865288Y-87280000D01*
X111255688Y-87484000D02*
X111204888Y-87484000D01*
X109325288Y-87280000D02*
X109325288Y-87382400D01*
X111357288Y-87280000D02*
X111357288Y-87382400D01*
X111611288Y-87280000D02*
X111611288Y-87127600D01*
X111103288Y-87382400D02*
X111103288Y-87280000D01*
X111712888Y-87484000D02*
G75*
G02*
X111611300Y-87382400I12J101600D01*
G01*
X111103288Y-87127600D02*
G75*
G03*
X111001688Y-87026012I-101588J0D01*
G01*
X109426888Y-87026000D02*
G75*
G03*
X109325300Y-87127600I12J-101600D01*
G01*
X110696888Y-87484000D02*
G75*
G02*
X110595300Y-87382400I12J101600D01*
G01*
X109934888Y-87026000D02*
G75*
G03*
X109833300Y-87127600I12J-101600D01*
G01*
X112119288Y-87127600D02*
G75*
G03*
X112017688Y-87026012I-101588J0D01*
G01*
X108309288Y-87382400D02*
G75*
G02*
X108207688Y-87483988I-101588J0D01*
G01*
X110442888Y-87026000D02*
G75*
G03*
X110341300Y-87127600I12J-101600D01*
G01*
X108156888Y-87484000D02*
G75*
G02*
X108055300Y-87382400I12J101600D01*
G01*
X110950888Y-87026000D02*
G75*
G03*
X110849300Y-87127600I12J-101600D01*
G01*
X108563288Y-87127600D02*
G75*
G03*
X108461688Y-87026012I-101588J0D01*
G01*
X111357288Y-87382400D02*
G75*
G02*
X111255688Y-87483988I-101588J0D01*
G01*
X108410888Y-87026000D02*
G75*
G03*
X108309300Y-87127600I12J-101600D01*
G01*
X109325288Y-87382400D02*
G75*
G02*
X109223688Y-87483988I-101588J0D01*
G01*
X110188888Y-87484000D02*
G75*
G02*
X110087300Y-87382400I12J101600D01*
G01*
X109833288Y-87382400D02*
G75*
G02*
X109731688Y-87483988I-101588J0D01*
G01*
X109579288Y-87127600D02*
G75*
G03*
X109477688Y-87026012I-101588J0D01*
G01*
X108918888Y-87026000D02*
G75*
G03*
X108817300Y-87127600I12J-101600D01*
G01*
X110595288Y-87127600D02*
G75*
G03*
X110493688Y-87026012I-101588J0D01*
G01*
X109071288Y-87127600D02*
G75*
G03*
X108969688Y-87026012I-101588J0D01*
G01*
X109680888Y-87484000D02*
G75*
G02*
X109579300Y-87382400I12J101600D01*
G01*
X110849288Y-87382400D02*
G75*
G02*
X110747688Y-87483988I-101588J0D01*
G01*
X108055288Y-87127600D02*
G75*
G03*
X107953688Y-87026012I-101588J0D01*
G01*
X107547288Y-87381600D02*
G75*
G03*
X107445688Y-87280012I-101588J0D01*
G01*
X111865288Y-87382400D02*
G75*
G02*
X111763688Y-87483988I-101588J0D01*
G01*
X108817288Y-87382400D02*
G75*
G02*
X108715688Y-87483988I-101588J0D01*
G01*
X109172888Y-87484000D02*
G75*
G02*
X109071300Y-87382400I12J101600D01*
G01*
X110341288Y-87382400D02*
G75*
G02*
X110239688Y-87483988I-101588J0D01*
G01*
X111458888Y-87026000D02*
G75*
G03*
X111357300Y-87127600I12J-101600D01*
G01*
X112220888Y-87280000D02*
G75*
G02*
X112119300Y-87178400I12J101600D01*
G01*
X111611288Y-87127600D02*
G75*
G03*
X111509688Y-87026012I-101588J0D01*
G01*
X107902888Y-87026000D02*
G75*
G03*
X107801300Y-87127600I12J-101600D01*
G01*
X107801288Y-87432400D02*
G75*
G02*
X107699688Y-87533988I-101588J0D01*
G01*
X110087288Y-87127600D02*
G75*
G03*
X109985688Y-87026012I-101588J0D01*
G01*
X111966888Y-87026000D02*
G75*
G03*
X111865300Y-87127600I12J-101600D01*
G01*
X107648888Y-87534000D02*
G75*
G02*
X107547300Y-87432400I12J101600D01*
G01*
X111204888Y-87484000D02*
G75*
G02*
X111103300Y-87382400I12J101600D01*
G01*
X108664888Y-87484000D02*
G75*
G02*
X108563300Y-87382400I12J101600D01*
G01*
%TO.N,SDMMC_CMD*%
X101320000Y-87160000D02*
X100950000Y-87530000D01*
X100950000Y-87530000D02*
X100950000Y-89520000D01*
%TO.N,SDMMC_D7*%
X108806080Y-91284000D02*
X108856880Y-91284000D01*
X107688480Y-90877600D02*
X107688480Y-91030000D01*
X107688480Y-91030000D02*
X107688480Y-91182400D01*
X109794690Y-91030000D02*
X109814690Y-91050000D01*
X106926480Y-91030000D02*
X106926480Y-90877600D01*
X108298080Y-91284000D02*
X108348880Y-91284000D01*
X107434480Y-91030000D02*
X107434480Y-90877600D01*
X106431601Y-90890721D02*
X105652000Y-90111120D01*
X116566773Y-90493538D02*
X116995427Y-90493538D01*
X109212480Y-91131600D02*
X109212480Y-91182400D01*
X106926480Y-91131600D02*
X106926480Y-91030000D01*
X116995427Y-90493538D02*
X117172017Y-90316948D01*
X107942480Y-91030000D02*
X107942480Y-90877600D01*
X109212480Y-90877600D02*
X109212480Y-91030000D01*
X108958480Y-91030000D02*
X108958480Y-90877600D01*
X109466480Y-91182400D02*
X109466480Y-91131600D01*
X109212480Y-91030000D02*
X109212480Y-91131600D01*
X109314080Y-91284000D02*
X109364880Y-91284000D01*
X114127016Y-90626737D02*
X116433574Y-90626737D01*
X108704480Y-91030000D02*
X108704480Y-91182400D01*
X105586871Y-90111120D02*
X105565211Y-90132780D01*
X109618880Y-91030000D02*
X109794690Y-91030000D01*
X108704480Y-90877600D02*
X108704480Y-91030000D01*
X107942480Y-91182400D02*
X107942480Y-91030000D01*
X111028190Y-91345100D02*
X111323290Y-91050000D01*
X109060080Y-90776000D02*
X109110880Y-90776000D01*
X107790080Y-91284000D02*
X107840880Y-91284000D01*
X108450480Y-91030000D02*
X108450480Y-90877600D01*
X108552080Y-90776000D02*
X108602880Y-90776000D01*
X108958480Y-91182400D02*
X108958480Y-91030000D01*
X109814690Y-91050000D02*
X110049528Y-91050000D01*
X116433574Y-90626737D02*
X116566773Y-90493538D01*
X113703753Y-91050000D02*
X114127016Y-90626737D01*
X109568080Y-91030000D02*
X109618880Y-91030000D01*
X107180480Y-90877600D02*
X107180480Y-91030000D01*
X106672480Y-91131600D02*
X106672480Y-91182400D01*
X107180480Y-91030000D02*
X107180480Y-91182400D01*
X108044080Y-90776000D02*
X108094880Y-90776000D01*
X107536080Y-90776000D02*
X107586880Y-90776000D01*
X110344628Y-91345100D02*
X111028190Y-91345100D01*
X108196480Y-91030000D02*
X108196480Y-91182400D01*
X107028080Y-90776000D02*
X107078880Y-90776000D01*
X107282080Y-91284000D02*
X107332880Y-91284000D01*
X111323290Y-91050000D02*
X113703753Y-91050000D01*
X107434480Y-91182400D02*
X107434480Y-91030000D01*
X110049528Y-91050000D02*
X110344628Y-91345100D01*
X106431601Y-90890721D02*
X106570880Y-91030000D01*
X105652000Y-90111120D02*
X105586871Y-90111120D01*
X108196480Y-90877600D02*
X108196480Y-91030000D01*
X106926480Y-91182400D02*
X106926480Y-91131600D01*
X108450480Y-91182400D02*
X108450480Y-91030000D01*
X106774080Y-91284000D02*
X106824880Y-91284000D01*
X106570880Y-91030000D02*
G75*
G02*
X106672500Y-91131600I20J-101600D01*
G01*
X107434480Y-90877600D02*
G75*
G02*
X107536080Y-90775980I101620J0D01*
G01*
X107688480Y-91182400D02*
G75*
G03*
X107790080Y-91284020I101620J0D01*
G01*
X107840880Y-91284000D02*
G75*
G03*
X107942500Y-91182400I20J101600D01*
G01*
X108094880Y-90776000D02*
G75*
G02*
X108196500Y-90877600I20J-101600D01*
G01*
X107942480Y-90877600D02*
G75*
G02*
X108044080Y-90775980I101620J0D01*
G01*
X108958480Y-90877600D02*
G75*
G02*
X109060080Y-90775980I101620J0D01*
G01*
X109110880Y-90776000D02*
G75*
G02*
X109212500Y-90877600I20J-101600D01*
G01*
X108856880Y-91284000D02*
G75*
G03*
X108958500Y-91182400I20J101600D01*
G01*
X106824880Y-91284000D02*
G75*
G03*
X106926500Y-91182400I20J101600D01*
G01*
X106926480Y-90877600D02*
G75*
G02*
X107028080Y-90775980I101620J0D01*
G01*
X107586880Y-90776000D02*
G75*
G02*
X107688500Y-90877600I20J-101600D01*
G01*
X108196480Y-91182400D02*
G75*
G03*
X108298080Y-91284020I101620J0D01*
G01*
X108348880Y-91284000D02*
G75*
G03*
X108450500Y-91182400I20J101600D01*
G01*
X108704480Y-91182400D02*
G75*
G03*
X108806080Y-91284020I101620J0D01*
G01*
X109466480Y-91131600D02*
G75*
G02*
X109568080Y-91029980I101620J0D01*
G01*
X109212480Y-91182400D02*
G75*
G03*
X109314080Y-91284020I101620J0D01*
G01*
X107180480Y-91182400D02*
G75*
G03*
X107282080Y-91284020I101620J0D01*
G01*
X108450480Y-90877600D02*
G75*
G02*
X108552080Y-90775980I101620J0D01*
G01*
X108602880Y-90776000D02*
G75*
G02*
X108704500Y-90877600I20J-101600D01*
G01*
X107332880Y-91284000D02*
G75*
G03*
X107434500Y-91182400I20J101600D01*
G01*
X109364880Y-91284000D02*
G75*
G03*
X109466500Y-91182400I20J101600D01*
G01*
X106672480Y-91182400D02*
G75*
G03*
X106774080Y-91284020I101620J0D01*
G01*
X107078880Y-90776000D02*
G75*
G02*
X107180500Y-90877600I20J-101600D01*
G01*
%TO.N,XSPIM_P1_IO7*%
X131738942Y-94118942D02*
X131774864Y-94154864D01*
X131559338Y-93795654D02*
X131595260Y-93759733D01*
X132098154Y-94118943D02*
X132134075Y-94154864D01*
X130481708Y-92718024D02*
X130517630Y-92682103D01*
X128190000Y-91680000D02*
X128557959Y-91680000D01*
X131918546Y-94657757D02*
X131954467Y-94693678D01*
X130122498Y-92358814D02*
X130158420Y-92322893D01*
X131738944Y-93759733D02*
X131774865Y-93795654D01*
X123953725Y-91547800D02*
X123770260Y-91364335D01*
X131200128Y-93436444D02*
X131236050Y-93400523D01*
X131918548Y-94154864D02*
X131954470Y-94118943D01*
X130840918Y-93077234D02*
X130876840Y-93041313D01*
X129440000Y-91963684D02*
X129439434Y-91964249D01*
X132565122Y-94945122D02*
X132636963Y-94873278D01*
X132852490Y-95232490D02*
X132933950Y-95313950D01*
X132565122Y-94945121D02*
X132565122Y-94945122D01*
X131056445Y-93220918D02*
X131020522Y-93256838D01*
X132098152Y-94334468D02*
X132026310Y-94406310D01*
X132385518Y-94765518D02*
X132331070Y-94819965D01*
X128110000Y-91760000D02*
X128190000Y-91680000D01*
X132493283Y-94657756D02*
X132385518Y-94765518D01*
X132933950Y-95665670D02*
X132933950Y-95743950D01*
X132933950Y-95313950D02*
X132933950Y-95665670D01*
X128110000Y-91760000D02*
X127975000Y-91895000D01*
X130661312Y-93041312D02*
X130697234Y-93077234D01*
X131379732Y-93759732D02*
X131415654Y-93795654D01*
X132852491Y-95016964D02*
X132816568Y-95052884D01*
X127975000Y-91895000D02*
X126507760Y-91895000D01*
X129942892Y-92322892D02*
X129978814Y-92358814D01*
X131774865Y-93939338D02*
X131738942Y-93975258D01*
X132816570Y-94837359D02*
X132852491Y-94873280D01*
X132205914Y-94585914D02*
X132313676Y-94478149D01*
X129439434Y-92107933D02*
X129475355Y-92143854D01*
X132026310Y-94406310D02*
X131918546Y-94514073D01*
X129619039Y-92143854D02*
X129619604Y-92143288D01*
X129942894Y-91963683D02*
X129978815Y-91999604D01*
X129619604Y-92143288D02*
X129691446Y-92071446D01*
X130697235Y-92861708D02*
X130661312Y-92897628D01*
X132331070Y-94928859D02*
X132401780Y-94999569D01*
X124373568Y-91703568D02*
X124217800Y-91547800D01*
X131020522Y-93400522D02*
X131056444Y-93436444D01*
X129691446Y-92071446D02*
X129763287Y-91999602D01*
X131379734Y-93400523D02*
X131415655Y-93436444D01*
X131020524Y-93041313D02*
X131056445Y-93077234D01*
X124217800Y-91547800D02*
X123953725Y-91547800D01*
X130338025Y-92502498D02*
X130302102Y-92538418D01*
X130661314Y-92682103D02*
X130697235Y-92718024D01*
X128557959Y-91680000D02*
X129300000Y-91680000D01*
X130302104Y-92322893D02*
X130338025Y-92358814D01*
X132636963Y-94873278D02*
X132672884Y-94837357D01*
X132457362Y-94478151D02*
X132493283Y-94514072D01*
X129300000Y-91680000D02*
X129440000Y-91820000D01*
X132134075Y-94298548D02*
X132098152Y-94334468D01*
X126507760Y-91895000D02*
X126316328Y-91703568D01*
X126316328Y-91703568D02*
X124373568Y-91703568D01*
X129978815Y-92143288D02*
X129942892Y-92179208D01*
X132816568Y-95196568D02*
X132852490Y-95232490D01*
X130302102Y-92682102D02*
X130338024Y-92718024D01*
X132510675Y-94999569D02*
X132565122Y-94945121D01*
X132098151Y-94693678D02*
X132205914Y-94585914D01*
X131415655Y-93580128D02*
X131379732Y-93616048D01*
X129763287Y-91999602D02*
X129799208Y-91963681D01*
X132933950Y-95743950D02*
X133490000Y-96300000D01*
X131379732Y-93616048D02*
G75*
G03*
X131379722Y-93759742I71868J-71852D01*
G01*
X131415655Y-93436444D02*
G75*
G02*
X131415669Y-93580142I-71855J-71856D01*
G01*
X131954470Y-94118943D02*
G75*
G02*
X132098154Y-94118943I71842J-71842D01*
G01*
X129475355Y-92143854D02*
G75*
G03*
X129619039Y-92143854I71842J71842D01*
G01*
X129978815Y-91999604D02*
G75*
G02*
X129978769Y-92143242I-71815J-71796D01*
G01*
X131236050Y-93400523D02*
G75*
G02*
X131379734Y-93400523I71842J-71842D01*
G01*
X132852491Y-94873280D02*
G75*
G02*
X132852469Y-95016942I-71891J-71820D01*
G01*
X130517630Y-92682103D02*
G75*
G02*
X130661314Y-92682103I71842J-71842D01*
G01*
X130661312Y-92897628D02*
G75*
G03*
X130661282Y-93041342I71888J-71872D01*
G01*
X131738942Y-93975258D02*
G75*
G03*
X131738942Y-94118942I71858J-71842D01*
G01*
X131020522Y-93256838D02*
G75*
G03*
X131020502Y-93400542I71878J-71862D01*
G01*
X132331070Y-94819965D02*
G75*
G03*
X132331082Y-94928847I54430J-54435D01*
G01*
X131918546Y-94514073D02*
G75*
G03*
X131918561Y-94657742I71854J-71827D01*
G01*
X131595260Y-93759733D02*
G75*
G02*
X131738944Y-93759733I71842J-71842D01*
G01*
X129942892Y-92179208D02*
G75*
G03*
X129942842Y-92322942I71808J-71892D01*
G01*
X129440000Y-91820000D02*
G75*
G02*
X129439958Y-91963642I-71800J-71800D01*
G01*
X131954467Y-94693678D02*
G75*
G03*
X132098151Y-94693678I71842J71842D01*
G01*
X132672884Y-94837357D02*
G75*
G02*
X132816544Y-94837385I71816J-71843D01*
G01*
X131056445Y-93077234D02*
G75*
G02*
X131056469Y-93220942I-71845J-71866D01*
G01*
X129799208Y-91963681D02*
G75*
G02*
X129942844Y-91963733I71792J-71819D01*
G01*
X130338025Y-92358814D02*
G75*
G02*
X130338069Y-92502542I-71825J-71886D01*
G01*
X130158420Y-92322893D02*
G75*
G02*
X130302104Y-92322893I71842J-71842D01*
G01*
X130876840Y-93041313D02*
G75*
G02*
X131020524Y-93041313I71842J-71842D01*
G01*
X132401780Y-94999569D02*
G75*
G03*
X132510675Y-94999569I54447J54451D01*
G01*
X130697235Y-92718024D02*
G75*
G02*
X130697269Y-92861742I-71835J-71876D01*
G01*
X132493283Y-94514072D02*
G75*
G02*
X132493269Y-94657742I-71883J-71828D01*
G01*
X130697234Y-93077234D02*
G75*
G03*
X130840918Y-93077234I71842J71842D01*
G01*
X130338024Y-92718024D02*
G75*
G03*
X130481708Y-92718024I71842J71842D01*
G01*
X132313676Y-94478149D02*
G75*
G02*
X132457344Y-94478169I71824J-71851D01*
G01*
X131415654Y-93795654D02*
G75*
G03*
X131559338Y-93795654I71842J71842D01*
G01*
X132816568Y-95052884D02*
G75*
G03*
X132816594Y-95196542I71832J-71816D01*
G01*
X130302102Y-92538418D02*
G75*
G03*
X130302062Y-92682142I71798J-71882D01*
G01*
X131774865Y-93795654D02*
G75*
G02*
X131774869Y-93939342I-71865J-71846D01*
G01*
X131774864Y-94154864D02*
G75*
G03*
X131918548Y-94154864I71842J71842D01*
G01*
X129439434Y-91964249D02*
G75*
G03*
X129439425Y-92107942I71866J-71851D01*
G01*
X129978814Y-92358814D02*
G75*
G03*
X130122498Y-92358814I71842J71842D01*
G01*
X132134075Y-94154864D02*
G75*
G02*
X132134069Y-94298542I-71875J-71836D01*
G01*
X131056444Y-93436444D02*
G75*
G03*
X131200128Y-93436444I71842J71842D01*
G01*
%TO.N,XSPIM_P1_IO1*%
X132460450Y-96820712D02*
X132420167Y-96860995D01*
X128620792Y-92194689D02*
X128620792Y-92143889D01*
X130797300Y-93732563D02*
X130761377Y-93768483D01*
X130761377Y-93912167D02*
X130797299Y-93948089D01*
X131980062Y-94956300D02*
X132460450Y-95436688D01*
X128722392Y-92042289D02*
X128773192Y-92042289D01*
X129027192Y-92296289D02*
X129145499Y-92296289D01*
X130078880Y-93014143D02*
X130042957Y-93050063D01*
X129145499Y-92296289D02*
X129360459Y-92511249D01*
X127830000Y-92149000D02*
X128371903Y-92149000D01*
X128371903Y-92149000D02*
X128519192Y-92296289D01*
X130402169Y-93193748D02*
X130438090Y-93229669D01*
X131479797Y-94630587D02*
X131515719Y-94666509D01*
X131805510Y-94956300D02*
X131980062Y-94956300D01*
X128976392Y-92296289D02*
X129027192Y-92296289D01*
X130940983Y-93948089D02*
X130976905Y-93912168D01*
X131300193Y-94307299D02*
X131336115Y-94271378D01*
X123429200Y-91829200D02*
X123270000Y-91670000D01*
X131515719Y-94666509D02*
X131713193Y-94863983D01*
X124297568Y-91957568D02*
X124169200Y-91829200D01*
X130402167Y-93552957D02*
X130438089Y-93588879D01*
X129683747Y-92834537D02*
X129719669Y-92870459D01*
X131120589Y-93912168D02*
X131156510Y-93948089D01*
X131479799Y-94271378D02*
X131515720Y-94307299D01*
X127830000Y-92149000D02*
X126402550Y-92149000D01*
X126211118Y-91957568D02*
X124297568Y-91957568D01*
X124169200Y-91829200D02*
X123429200Y-91829200D01*
X129683749Y-92475328D02*
X129719670Y-92511249D01*
X130042957Y-93193747D02*
X130078879Y-93229669D01*
X129719670Y-92654933D02*
X129683747Y-92690853D01*
X130581773Y-93588879D02*
X130617695Y-93552958D01*
X131713193Y-94863983D02*
X131805510Y-94956300D01*
X131120587Y-94271377D02*
X131156509Y-94307299D01*
X131515720Y-94450983D02*
X131479797Y-94486903D01*
X129504143Y-92511249D02*
X129540065Y-92475328D01*
X128874792Y-92143889D02*
X128874792Y-92194689D01*
X130438090Y-93373353D02*
X130402167Y-93409273D01*
X126402550Y-92149000D02*
X126211118Y-91957568D01*
X129863353Y-92870459D02*
X129899275Y-92834538D01*
X132460450Y-95436688D02*
X132460450Y-96820712D01*
X130761379Y-93552958D02*
X130797300Y-93588879D01*
X130222563Y-93229669D02*
X130258485Y-93193748D01*
X131156510Y-94091773D02*
X131120587Y-94127693D01*
X130042959Y-92834538D02*
X130078880Y-92870459D01*
X129899275Y-92834538D02*
G75*
G02*
X130042959Y-92834538I71842J-71842D01*
G01*
X131120587Y-94127693D02*
G75*
G03*
X131120622Y-94271342I71813J-71807D01*
G01*
X130976905Y-93912168D02*
G75*
G02*
X131120589Y-93912168I71842J-71842D01*
G01*
X131479797Y-94486903D02*
G75*
G03*
X131479842Y-94630542I71803J-71797D01*
G01*
X129540065Y-92475328D02*
G75*
G02*
X129683749Y-92475328I71842J-71842D01*
G01*
X129719669Y-92870459D02*
G75*
G03*
X129863353Y-92870459I71842J71842D01*
G01*
X130258485Y-93193748D02*
G75*
G02*
X130402169Y-93193748I71842J-71842D01*
G01*
X130797300Y-93588879D02*
G75*
G02*
X130797279Y-93732542I-71800J-71821D01*
G01*
X128874792Y-92194689D02*
G75*
G03*
X128976392Y-92296308I101608J-11D01*
G01*
X130797299Y-93948089D02*
G75*
G03*
X130940983Y-93948089I71842J71842D01*
G01*
X130438090Y-93229669D02*
G75*
G02*
X130438079Y-93373342I-71890J-71831D01*
G01*
X129360459Y-92511249D02*
G75*
G03*
X129504143Y-92511249I71842J71842D01*
G01*
X130078879Y-93229669D02*
G75*
G03*
X130222563Y-93229669I71842J71842D01*
G01*
X129683747Y-92690853D02*
G75*
G03*
X129683742Y-92834542I71853J-71847D01*
G01*
X130042957Y-93050063D02*
G75*
G03*
X130042962Y-93193742I71843J-71837D01*
G01*
X131156509Y-94307299D02*
G75*
G03*
X131300193Y-94307299I71842J71842D01*
G01*
X131515720Y-94307299D02*
G75*
G02*
X131515679Y-94450942I-71820J-71801D01*
G01*
X128519192Y-92296289D02*
G75*
G03*
X128620789Y-92194689I8J101589D01*
G01*
X130438089Y-93588879D02*
G75*
G03*
X130581773Y-93588879I71842J71842D01*
G01*
X130761377Y-93768483D02*
G75*
G03*
X130761402Y-93912142I71823J-71817D01*
G01*
X131336115Y-94271378D02*
G75*
G02*
X131479799Y-94271378I71842J-71842D01*
G01*
X129719670Y-92511249D02*
G75*
G02*
X129719679Y-92654942I-71870J-71851D01*
G01*
X131156510Y-93948089D02*
G75*
G02*
X131156479Y-94091742I-71810J-71811D01*
G01*
X128620792Y-92143889D02*
G75*
G02*
X128722392Y-92042292I101608J-11D01*
G01*
X130078880Y-92870459D02*
G75*
G02*
X130078879Y-93014142I-71880J-71841D01*
G01*
X130402167Y-93409273D02*
G75*
G03*
X130402182Y-93552942I71833J-71827D01*
G01*
X128773192Y-92042289D02*
G75*
G02*
X128874811Y-92143889I8J-101611D01*
G01*
X130617695Y-93552958D02*
G75*
G02*
X130761379Y-93552958I71842J-71842D01*
G01*
%TO.N,XSPI_M_P1_DQS1*%
X126892376Y-93673000D02*
X125263472Y-93673000D01*
X133453550Y-99321600D02*
X133453550Y-99372400D01*
X122266418Y-92900462D02*
X122266418Y-92391531D01*
X128247376Y-94728000D02*
X127947376Y-94728000D01*
X127947376Y-94728000D02*
X126892376Y-93673000D01*
X129934955Y-96415579D02*
X128247376Y-94728000D01*
X134317150Y-99220000D02*
X134367950Y-99220000D01*
X133809150Y-99220000D02*
X133859950Y-99220000D01*
X133555150Y-99474000D02*
X133605950Y-99474000D01*
X125263472Y-93673000D02*
X125165372Y-93574900D01*
X122609143Y-93243187D02*
X122266418Y-92900462D01*
X134063150Y-99474000D02*
X134113950Y-99474000D01*
X132241056Y-99220000D02*
X131493500Y-98472445D01*
X133961550Y-99321600D02*
X133961550Y-99372400D01*
X122266418Y-92391531D02*
X122161340Y-92286453D01*
X125165372Y-93574900D02*
X124065057Y-93574900D01*
X124065057Y-93574900D02*
X123853019Y-93362862D01*
X131493500Y-98472445D02*
X131493500Y-97976328D01*
X134550000Y-99220000D02*
X134870000Y-99540000D01*
X133351950Y-99220000D02*
X132241056Y-99220000D01*
X131493500Y-97976328D02*
X129934955Y-96417783D01*
X123712862Y-93362862D02*
X123593187Y-93243187D01*
X129934955Y-96417783D02*
X129934955Y-96415579D01*
X133707550Y-99372400D02*
X133707550Y-99321600D01*
X123853019Y-93362862D02*
X123712862Y-93362862D01*
X134870000Y-99540000D02*
X134890000Y-99540000D01*
X134215550Y-99372400D02*
X134215550Y-99321600D01*
X123593187Y-93243187D02*
X122609143Y-93243187D01*
X134367950Y-99220000D02*
X134550000Y-99220000D01*
X134215550Y-99321600D02*
G75*
G02*
X134317150Y-99219950I101650J0D01*
G01*
X133453550Y-99372400D02*
G75*
G03*
X133555150Y-99474050I101650J0D01*
G01*
X133961550Y-99372400D02*
G75*
G03*
X134063150Y-99474050I101650J0D01*
G01*
X133859950Y-99220000D02*
G75*
G02*
X133961500Y-99321600I-50J-101600D01*
G01*
X133605950Y-99474000D02*
G75*
G03*
X133707500Y-99372400I-50J101600D01*
G01*
X134113950Y-99474000D02*
G75*
G03*
X134215500Y-99372400I-50J101600D01*
G01*
X133707550Y-99321600D02*
G75*
G02*
X133809150Y-99219950I101650J0D01*
G01*
X133351950Y-99220000D02*
G75*
G02*
X133453500Y-99321600I-50J-101600D01*
G01*
%TO.N,XSPIM_P1_IO6*%
X127491537Y-92657000D02*
X126075278Y-92657000D01*
X129164852Y-93394852D02*
X129128932Y-93358932D01*
X125883846Y-92465568D02*
X125390159Y-92465568D01*
X129883278Y-93754067D02*
X129847356Y-93718145D01*
X128985000Y-93215000D02*
X128960000Y-93190000D01*
X130745393Y-94831708D02*
X130673550Y-94903550D01*
X127984537Y-93150000D02*
X127491537Y-92657000D01*
X128920000Y-93150000D02*
X128960000Y-93190000D01*
X131200000Y-95219142D02*
X131135858Y-95155000D01*
X126075278Y-92657000D02*
X125883846Y-92465568D01*
X130781315Y-94795787D02*
X130745393Y-94831708D01*
X130493943Y-94723943D02*
X130601706Y-94616179D01*
X130314336Y-94544336D02*
X130206571Y-94652098D01*
X130422100Y-94436573D02*
X130314336Y-94544336D01*
X129416301Y-93646301D02*
X129488143Y-93574458D01*
X128771137Y-93150000D02*
X128920000Y-93150000D01*
X128671137Y-93150000D02*
X128771137Y-93150000D01*
X131214239Y-95283592D02*
X131200000Y-95269353D01*
X128340137Y-93150000D02*
X128340137Y-93227000D01*
X130960921Y-94831709D02*
X130924999Y-94795787D01*
X129344458Y-93358931D02*
X129308536Y-93394852D01*
X128340137Y-92997600D02*
X128340137Y-93048400D01*
X128187737Y-92896000D02*
X128238537Y-92896000D01*
X128086137Y-93048400D02*
X128086137Y-92997600D01*
X125390159Y-92465568D02*
X125156447Y-92699280D01*
X130386179Y-94831706D02*
X130493943Y-94723943D01*
X131200000Y-95269353D02*
X131200000Y-95219142D01*
X128340137Y-93048400D02*
X128340137Y-93150000D01*
X130134729Y-94364729D02*
X130242492Y-94256965D01*
X129308537Y-93754064D02*
X129416301Y-93646301D01*
X129344459Y-93933670D02*
X129308537Y-93897748D01*
X130422101Y-95011312D02*
X130386179Y-94975390D01*
X129955122Y-94185122D02*
X129847357Y-94292884D01*
X129488143Y-93574458D02*
X129524064Y-93538537D01*
X130062886Y-94077359D02*
X129955122Y-94185122D01*
X129667751Y-94113278D02*
X129775515Y-94005515D01*
X130673550Y-94903550D02*
X130565785Y-95011312D01*
X129775515Y-94005515D02*
X129883278Y-93897751D01*
X129524064Y-93394853D02*
X129488142Y-93358931D01*
X130062887Y-94652098D02*
X130026965Y-94616176D01*
X129703673Y-94292884D02*
X129667751Y-94256962D01*
X129595908Y-93825908D02*
X129488143Y-93933670D01*
X130925000Y-95011315D02*
X130960921Y-94975393D01*
X128417137Y-93304000D02*
X128517137Y-93304000D01*
X130601706Y-94472495D02*
X130565784Y-94436573D01*
X130242492Y-94113281D02*
X130206570Y-94077359D01*
X129128932Y-93358932D02*
X128985000Y-93215000D01*
X129703672Y-93718145D02*
X129595908Y-93825908D01*
X131135858Y-95155000D02*
X130925000Y-95155000D01*
X130026965Y-94472492D02*
X130134729Y-94364729D01*
X128517137Y-93304000D02*
G75*
G03*
X128594100Y-93227000I-37J77000D01*
G01*
X128340137Y-93227000D02*
G75*
G03*
X128417137Y-93303963I76963J0D01*
G01*
X130242492Y-94256965D02*
G75*
G03*
X130242515Y-94113258I-71792J71865D01*
G01*
X129847356Y-93718145D02*
G75*
G03*
X129703672Y-93718145I-71842J-71842D01*
G01*
X130206570Y-94077359D02*
G75*
G03*
X130062886Y-94077359I-71842J-71842D01*
G01*
X129308537Y-93897748D02*
G75*
G02*
X129308531Y-93754058I71863J71848D01*
G01*
X129667751Y-94256962D02*
G75*
G02*
X129667731Y-94113258I71849J71862D01*
G01*
X128594137Y-93227000D02*
G75*
G02*
X128671137Y-93150037I76963J0D01*
G01*
X130924999Y-94795787D02*
G75*
G03*
X130781315Y-94795787I-71842J-71842D01*
G01*
X130960921Y-94975393D02*
G75*
G03*
X130960872Y-94831758I-71821J71793D01*
G01*
X127984537Y-93150000D02*
G75*
G03*
X128086100Y-93048400I-37J101600D01*
G01*
X130601706Y-94616179D02*
G75*
G03*
X130601743Y-94472458I-71806J71879D01*
G01*
X129524064Y-93538537D02*
G75*
G03*
X129524059Y-93394858I-71864J71837D01*
G01*
X129488143Y-93933670D02*
G75*
G02*
X129344459Y-93933670I-71842J71842D01*
G01*
X130026965Y-94616176D02*
G75*
G02*
X130026931Y-94472458I71835J71876D01*
G01*
X130206571Y-94652098D02*
G75*
G02*
X130062887Y-94652098I-71842J71842D01*
G01*
X129488142Y-93358931D02*
G75*
G03*
X129344458Y-93358931I-71842J-71842D01*
G01*
X129847357Y-94292884D02*
G75*
G02*
X129703673Y-94292884I-71842J71842D01*
G01*
X130925000Y-95155000D02*
G75*
G02*
X130925042Y-95011358I71800J71800D01*
G01*
X129883278Y-93897751D02*
G75*
G03*
X129883287Y-93754058I-71878J71851D01*
G01*
X128238537Y-92896000D02*
G75*
G02*
X128340100Y-92997600I-37J-101600D01*
G01*
X129308536Y-93394852D02*
G75*
G02*
X129164852Y-93394852I-71842J71842D01*
G01*
X130386179Y-94975390D02*
G75*
G02*
X130386131Y-94831658I71821J71890D01*
G01*
X130565785Y-95011312D02*
G75*
G02*
X130422101Y-95011312I-71842J71842D01*
G01*
X128086137Y-92997600D02*
G75*
G02*
X128187737Y-92896037I101563J0D01*
G01*
X130565784Y-94436573D02*
G75*
G03*
X130422100Y-94436573I-71842J-71842D01*
G01*
%TO.N,XSPIM_P1_IO3*%
X127063109Y-95080000D02*
X126610000Y-95080000D01*
X131627036Y-99324400D02*
X131174400Y-99324400D01*
X127925950Y-95492000D02*
X127475109Y-95492000D01*
D14*
X132460000Y-100017278D02*
X132501862Y-100017278D01*
D13*
X130302306Y-98452306D02*
X130302306Y-97868356D01*
X132319914Y-100017278D02*
X131627036Y-99324400D01*
D14*
X132501862Y-100017278D02*
X132539959Y-99979181D01*
D13*
X131174400Y-99324400D02*
X130302306Y-98452306D01*
X130302306Y-97868356D02*
X127925950Y-95492000D01*
X127475109Y-95492000D02*
X127063109Y-95080000D01*
X132460000Y-100017278D02*
X132319914Y-100017278D01*
%TO.N,~{XSPI_M_P1_CS}*%
X127114679Y-90440000D02*
X126564399Y-90990280D01*
X135250000Y-95780000D02*
X131850000Y-92380000D01*
X135250000Y-97030000D02*
X135250000Y-95780000D01*
X130440000Y-90590000D02*
X127982761Y-90590000D01*
X126564399Y-90990280D02*
X125740280Y-90990280D01*
X127982761Y-90590000D02*
X127832761Y-90440000D01*
X125740280Y-90990280D02*
X125650000Y-90900000D01*
X135780000Y-97560000D02*
X135250000Y-97030000D01*
X131850000Y-92380000D02*
X131850000Y-92000000D01*
X127832761Y-90440000D02*
X127114679Y-90440000D01*
X131850000Y-92000000D02*
X130440000Y-90590000D01*
X135780000Y-98800000D02*
X135780000Y-97560000D01*
D14*
%TO.N,REAR_DVID_SDA*%
X122130000Y-77380000D02*
X122130000Y-78260000D01*
X133370000Y-75440000D02*
X124070000Y-75440000D01*
X122130000Y-78260000D02*
X122500000Y-78630000D01*
X124070000Y-75440000D02*
X122130000Y-77380000D01*
X133390000Y-75420000D02*
X133370000Y-75440000D01*
%TO.N,REAR_DVID_CEC*%
X124144975Y-76125072D02*
X124160000Y-76140097D01*
X124160000Y-76140097D02*
X124160000Y-77300000D01*
X130031069Y-79170000D02*
X132345216Y-81484147D01*
X132345216Y-81484147D02*
X132376900Y-81484147D01*
X126030000Y-79170000D02*
X130031069Y-79170000D01*
X124160000Y-77300000D02*
X126030000Y-79170000D01*
D13*
%TO.N,DIB4_SCLK*%
X124860000Y-108637643D02*
X124860000Y-107849400D01*
X122877643Y-110620000D02*
X124860000Y-108637643D01*
X125560000Y-107020000D02*
X125560000Y-103820000D01*
X121500000Y-111242200D02*
X122122200Y-110620000D01*
X125770170Y-103450170D02*
X125760000Y-103440000D01*
X125560000Y-103820000D02*
X125770170Y-103609830D01*
X124860000Y-107849400D02*
X124860000Y-107720000D01*
X122122200Y-110620000D02*
X122877643Y-110620000D01*
X124860000Y-107720000D02*
X125560000Y-107020000D01*
X125770170Y-103609830D02*
X125770170Y-103450170D01*
D14*
%TO.N,DIB4_MISO*%
X117154999Y-105367145D02*
X116240000Y-104452146D01*
X116240000Y-104452146D02*
X116240000Y-104190000D01*
X119600000Y-107920000D02*
X117155000Y-105475000D01*
X120572201Y-107920000D02*
X119600000Y-107920000D01*
X117155000Y-105475000D02*
X117154999Y-105367145D01*
X121108311Y-108456110D02*
X120572201Y-107920000D01*
D13*
%TO.N,LTDC_G2*%
X137755100Y-96164900D02*
X136805100Y-96164900D01*
X122456308Y-99330367D02*
X122038918Y-99330367D01*
X127617455Y-99397455D02*
X122523395Y-99397455D01*
X141790000Y-95720000D02*
X138200000Y-95720000D01*
X128120000Y-99900000D02*
X127617455Y-99397455D01*
X122523395Y-99397455D02*
X122456308Y-99330367D01*
X138200000Y-95720000D02*
X137755100Y-96164900D01*
X136805100Y-96164900D02*
X136790000Y-96180000D01*
X145630000Y-91030000D02*
X145630000Y-91880000D01*
X145630000Y-91880000D02*
X141790000Y-95720000D01*
%TO.N,LTDC_B7*%
X124484388Y-101022361D02*
X124446600Y-101060149D01*
X136111527Y-102660000D02*
X135711527Y-103060000D01*
X135711527Y-103060000D02*
X129727962Y-103060000D01*
X127690323Y-101022361D02*
X124484388Y-101022361D01*
X136651674Y-102660000D02*
X136111527Y-102660000D01*
X129727962Y-103060000D02*
X127690323Y-101022361D01*
X136753190Y-102761516D02*
X136651674Y-102660000D01*
%TO.N,LTDC_G5*%
X126531229Y-90650000D02*
X127490799Y-89690430D01*
X122670993Y-91074469D02*
X122795731Y-90949731D01*
X124270466Y-90516780D02*
X125797252Y-90516780D01*
X125930472Y-90650000D02*
X126531229Y-90650000D01*
X122795731Y-90949731D02*
X123837515Y-90949731D01*
X123837515Y-90949731D02*
X124270466Y-90516780D01*
X125797252Y-90516780D02*
X125930472Y-90650000D01*
%TO.N,LTDC_VSYNC*%
X115482049Y-91022311D02*
X115487278Y-91017082D01*
X115477190Y-91027575D02*
X115477968Y-91026797D01*
X115441385Y-91063407D02*
X115477190Y-91027602D01*
X118690000Y-89210956D02*
X118690000Y-88270000D01*
X115477190Y-91027602D02*
X115477190Y-91027575D01*
X117083363Y-91431324D02*
X118691302Y-89823385D01*
X115702918Y-91200000D02*
X116570000Y-91200000D01*
X115477968Y-91026742D02*
X115479412Y-91025298D01*
X118691302Y-89212258D02*
X118690000Y-89210956D01*
X115487278Y-91017082D02*
X115520000Y-91017082D01*
X116801324Y-91431324D02*
X117083363Y-91431324D01*
X115477968Y-91026797D02*
X115477968Y-91026742D01*
X118691302Y-89823385D02*
X118691302Y-89212258D01*
X115441005Y-91063407D02*
X115441385Y-91063407D01*
X116570000Y-91200000D02*
X116801324Y-91431324D01*
X115479412Y-91025298D02*
X115479412Y-91025187D01*
X115479412Y-91025187D02*
X115482049Y-91022550D01*
X115520000Y-91017082D02*
X115702918Y-91200000D01*
X115482049Y-91022550D02*
X115482049Y-91022311D01*
%TO.N,LTDC_CLK*%
X123637732Y-100011360D02*
X124311421Y-100685049D01*
X135606317Y-102806000D02*
X136118791Y-102293526D01*
X123519767Y-100011360D02*
X123637732Y-100011360D01*
X124311421Y-100685049D02*
X127715049Y-100685049D01*
X127715049Y-100685049D02*
X129836000Y-102806000D01*
X136118791Y-102293526D02*
X136983526Y-102293526D01*
X129836000Y-102806000D02*
X135606317Y-102806000D01*
%TO.N,LTDC_R3*%
X135503107Y-102550000D02*
X130020000Y-102550000D01*
X136730000Y-101323107D02*
X135503107Y-102550000D01*
X128495100Y-99744628D02*
X128255572Y-99505100D01*
X128255572Y-99505100D02*
X128104628Y-99505100D01*
X128495100Y-100228828D02*
X128495100Y-99744628D01*
X129423236Y-101953236D02*
X129423236Y-101156964D01*
X136730000Y-100710000D02*
X136730000Y-101323107D01*
X122618085Y-99168855D02*
X122401002Y-98951772D01*
X129423236Y-101156964D02*
X128495100Y-100228828D01*
X127768383Y-99168855D02*
X122618085Y-99168855D01*
X128104628Y-99505100D02*
X127768383Y-99168855D01*
X130020000Y-102550000D02*
X129423236Y-101953236D01*
%TO.N,LTDC_B1*%
X119086948Y-88983052D02*
X119733052Y-88336948D01*
X113480000Y-91430000D02*
X113484900Y-91425100D01*
X120536948Y-88336948D02*
X121576896Y-87297001D01*
X133128000Y-87538000D02*
X133250000Y-87660000D01*
X116475818Y-91490582D02*
X116670560Y-91685324D01*
X125973448Y-87297001D02*
X126214447Y-87538000D01*
X113857043Y-91220000D02*
X115053287Y-91220000D01*
X133815025Y-88240000D02*
X137090000Y-88240000D01*
X116670560Y-91685324D02*
X117188573Y-91685324D01*
X113651943Y-91425100D02*
X113857043Y-91220000D01*
X143909800Y-87759800D02*
X143950000Y-87800000D01*
X137570200Y-87759800D02*
X143909800Y-87759800D01*
X115323869Y-91490582D02*
X116475818Y-91490582D01*
X115053287Y-91220000D02*
X115323869Y-91490582D01*
X119733052Y-88336948D02*
X120536948Y-88336948D01*
X119086948Y-89786948D02*
X119086948Y-88983052D01*
X117188573Y-91685324D02*
X119086948Y-89786948D01*
X121576896Y-87297001D02*
X125973448Y-87297001D01*
X113484900Y-91425100D02*
X113651943Y-91425100D01*
X133250000Y-87660000D02*
X133250000Y-87674975D01*
X126214447Y-87538000D02*
X133128000Y-87538000D01*
X133250000Y-87674975D02*
X133815025Y-88240000D01*
X137090000Y-88240000D02*
X137570200Y-87759800D01*
%TO.N,LTDC_B6*%
X126153157Y-87800000D02*
X125878758Y-87525600D01*
X119807441Y-88592559D02*
X119320000Y-89080000D01*
X144750000Y-88520000D02*
X132730000Y-88520000D01*
X120640549Y-88592559D02*
X119807441Y-88592559D01*
X125878758Y-87525600D02*
X121707507Y-87525600D01*
X121707507Y-87525600D02*
X120640549Y-88592559D01*
X132730000Y-88520000D02*
X132010000Y-87800000D01*
X119320000Y-89080000D02*
X119320000Y-89913108D01*
X132010000Y-87800000D02*
X126153157Y-87800000D01*
X144790000Y-88560000D02*
X144750000Y-88520000D01*
X117780000Y-91453108D02*
X117780000Y-91634900D01*
X119320000Y-89913108D02*
X117780000Y-91453108D01*
%TO.N,LTDC_R1*%
X127759538Y-102177690D02*
X123991451Y-102177690D01*
X123991451Y-102177690D02*
X123573761Y-101760000D01*
X121070000Y-101760000D02*
X120833082Y-101523082D01*
X129857100Y-103822000D02*
X129403848Y-103822000D01*
X129403848Y-103822000D02*
X127759538Y-102177690D01*
X120833082Y-101523082D02*
X120833082Y-100852512D01*
X130000000Y-103964900D02*
X129857100Y-103822000D01*
X123573761Y-101760000D02*
X121070000Y-101760000D01*
%TO.N,LTDC_B5*%
X117082804Y-89098141D02*
X116687774Y-89493171D01*
X118654839Y-87451400D02*
X117082804Y-89023435D01*
X143729400Y-86259400D02*
X138290600Y-86259400D01*
X121340199Y-86839801D02*
X120728600Y-87451400D01*
X145540000Y-87430000D02*
X145140000Y-87030000D01*
X145140000Y-87030000D02*
X144500000Y-87030000D01*
X137520000Y-87030000D02*
X126353028Y-87030000D01*
X126162826Y-86839801D02*
X121340199Y-86839801D01*
X126353028Y-87030000D02*
X126162826Y-86839801D01*
X138290600Y-86259400D02*
X137520000Y-87030000D01*
X120728600Y-87451400D02*
X118654839Y-87451400D01*
X116687774Y-89493171D02*
X116438241Y-89493171D01*
X144500000Y-87030000D02*
X143729400Y-86259400D01*
X117082804Y-89023435D02*
X117082804Y-89098141D01*
%TO.N,LTDC_R6*%
X119720000Y-90590000D02*
X120650790Y-90590000D01*
X119550000Y-90760000D02*
X119720000Y-90590000D01*
X126250000Y-89190000D02*
X126940790Y-89190000D01*
X120650790Y-90590000D02*
X121830790Y-89410000D01*
X124440472Y-88440000D02*
X125500000Y-88440000D01*
X123470472Y-89410000D02*
X124440472Y-88440000D01*
X119550000Y-91690790D02*
X119550000Y-90760000D01*
X116775100Y-92874900D02*
X118365890Y-92874900D01*
X126940790Y-89190000D02*
X127114790Y-89016000D01*
X118365890Y-92874900D02*
X119550000Y-91690790D01*
X116399508Y-93250492D02*
X116775100Y-92874900D01*
X127114790Y-89016000D02*
X130606000Y-89016000D01*
X130606000Y-89016000D02*
X132670002Y-91080002D01*
X116390632Y-93250492D02*
X116399508Y-93250492D01*
X132670002Y-91080002D02*
X143260554Y-91080002D01*
X125500000Y-88440000D02*
X126250000Y-89190000D01*
X121830790Y-89410000D02*
X123470472Y-89410000D01*
%TO.N,LTDC_G3*%
X138130000Y-96210000D02*
X137358626Y-96981374D01*
X124157267Y-101949090D02*
X122332042Y-100123865D01*
X141680000Y-96210000D02*
X138130000Y-96210000D01*
X127892976Y-101949090D02*
X124157267Y-101949090D01*
X137358626Y-96981374D02*
X137358626Y-102742164D01*
X145870000Y-92550000D02*
X145860000Y-92560000D01*
X145330000Y-92560000D02*
X141680000Y-96210000D01*
X137358626Y-102742164D02*
X136532790Y-103568000D01*
X136532790Y-103568000D02*
X129511886Y-103568000D01*
X122332042Y-100123865D02*
X122332042Y-100064831D01*
X145860000Y-92560000D02*
X145330000Y-92560000D01*
X129511886Y-103568000D02*
X127892976Y-101949090D01*
%TO.N,LTDC_B0*%
X124379750Y-97176460D02*
X124029589Y-96826300D01*
X125657197Y-97016997D02*
X125497734Y-97176460D01*
X126830000Y-97430000D02*
X126380944Y-97430000D01*
X126380944Y-97430000D02*
X125967941Y-97016997D01*
X122971904Y-96826300D02*
X122720249Y-96574645D01*
X124029589Y-96826300D02*
X122971904Y-96826300D01*
X125497734Y-97176460D02*
X124379750Y-97176460D01*
X125967941Y-97016997D02*
X125657197Y-97016997D01*
%TO.N,LTDC_DE*%
X127805924Y-101500000D02*
X124402028Y-101500000D01*
X124402028Y-101500000D02*
X124328038Y-101573990D01*
X136118640Y-103314000D02*
X129619924Y-103314000D01*
X136345618Y-103087022D02*
X136118640Y-103314000D01*
X129619924Y-103314000D02*
X127805924Y-101500000D01*
%TO.N,LTDC_R5*%
X134145000Y-89935000D02*
X131925000Y-89935000D01*
X143920000Y-90390000D02*
X134600000Y-90390000D01*
X118641496Y-92226388D02*
X118425798Y-92226388D01*
X126020578Y-88314000D02*
X125689378Y-87982800D01*
X125689378Y-87982800D02*
X122885084Y-87982800D01*
X120507884Y-90360000D02*
X119590000Y-90360000D01*
X134600000Y-90390000D02*
X134145000Y-89935000D01*
X119303942Y-90646058D02*
X119303942Y-91563942D01*
X131925000Y-89935000D02*
X130640000Y-88650000D01*
X126824000Y-88314000D02*
X126020578Y-88314000D01*
X130640000Y-88650000D02*
X127160000Y-88650000D01*
X127160000Y-88650000D02*
X126824000Y-88314000D01*
X122885084Y-87982800D02*
X120507884Y-90360000D01*
X119303942Y-91563942D02*
X118641496Y-92226388D01*
X119590000Y-90360000D02*
X119303942Y-90646058D01*
%TO.N,LTDC_R7*%
X118220000Y-91840000D02*
X118050000Y-92010000D01*
X116580000Y-92315100D02*
X114555100Y-92315100D01*
X114555100Y-92315100D02*
X114550000Y-92310000D01*
X116885100Y-92010000D02*
X116580000Y-92315100D01*
X125784068Y-87754200D02*
X121838117Y-87754200D01*
X119560000Y-90032318D02*
X118220000Y-91372318D01*
X118220000Y-91372318D02*
X118220000Y-91840000D01*
X121838117Y-87754200D02*
X120771159Y-88821159D01*
X119560000Y-89163290D02*
X119560000Y-90032318D01*
X118050000Y-92010000D02*
X116885100Y-92010000D01*
X127350000Y-88240000D02*
X127168000Y-88058000D01*
X126087868Y-88058000D02*
X125784068Y-87754200D01*
X119902131Y-88821159D02*
X119560000Y-89163290D01*
X127168000Y-88058000D02*
X126087868Y-88058000D01*
X120771159Y-88821159D02*
X119902131Y-88821159D01*
%TO.N,LTDC_B4*%
X117191977Y-90963500D02*
X116873098Y-90963500D01*
X143939600Y-87009600D02*
X137870400Y-87009600D01*
X133478600Y-87568600D02*
X133478600Y-87565311D01*
X137870400Y-87009600D02*
X136910000Y-87970000D01*
X121479561Y-87068401D02*
X120867962Y-87680000D01*
X136910000Y-87970000D02*
X133880000Y-87970000D01*
X126068138Y-87068401D02*
X121479561Y-87068401D01*
X144790000Y-87530000D02*
X144460000Y-87530000D01*
X133478600Y-87565311D02*
X133197289Y-87284000D01*
X118314900Y-88914970D02*
X117910000Y-89319870D01*
X120867962Y-87680000D02*
X118749528Y-87680000D01*
X118314900Y-88114628D02*
X118314900Y-88914970D01*
X117910000Y-90245477D02*
X117191977Y-90963500D01*
X133880000Y-87970000D02*
X133478600Y-87568600D01*
X118749528Y-87680000D02*
X118314900Y-88114628D01*
X117910000Y-89319870D02*
X117910000Y-90245477D01*
X126283739Y-87284000D02*
X126068138Y-87068401D01*
X144460000Y-87530000D02*
X143939600Y-87009600D01*
X133197289Y-87284000D02*
X126283739Y-87284000D01*
%TO.N,LTDC_G6*%
X123864000Y-89346000D02*
X123424900Y-89785100D01*
X125292346Y-89226927D02*
X125173273Y-89346000D01*
X123424900Y-89785100D02*
X123323777Y-89785100D01*
X125173273Y-89346000D02*
X123864000Y-89346000D01*
%TO.N,LTDC_G0*%
X145120000Y-89940000D02*
X145120000Y-90686238D01*
X141622021Y-95241400D02*
X137751636Y-95241400D01*
X124431757Y-97780160D02*
X124224022Y-97780160D01*
X145120000Y-90686238D02*
X145026300Y-90779939D01*
X124617898Y-97966301D02*
X124431757Y-97780160D01*
X127360000Y-97610000D02*
X127003699Y-97966301D01*
X137751636Y-95241400D02*
X137644900Y-95348136D01*
X145026300Y-91837121D02*
X141622021Y-95241400D01*
X145026300Y-90779939D02*
X145026300Y-91837121D01*
X127003699Y-97966301D02*
X124617898Y-97966301D01*
%TO.N,LTDC_B2*%
X145254900Y-90874628D02*
X145556500Y-90573028D01*
X137816710Y-95780000D02*
X138106710Y-95490000D01*
X138106710Y-95490000D02*
X141696712Y-95490000D01*
X128013229Y-98230000D02*
X124453185Y-98230000D01*
X124453185Y-98230000D02*
X124402155Y-98281030D01*
X145254900Y-91931811D02*
X145254900Y-90874628D01*
X146030000Y-88550000D02*
X146030000Y-85950000D01*
X141696712Y-95490000D02*
X145254900Y-91931811D01*
X145556500Y-90573028D02*
X145556500Y-89023500D01*
X137230000Y-95780000D02*
X137816710Y-95780000D01*
X128042002Y-98258773D02*
X128013229Y-98230000D01*
X145556500Y-89023500D02*
X146030000Y-88550000D01*
%TO.N,LTDC_G7*%
X122894645Y-90187731D02*
X123521885Y-90187731D01*
X124023022Y-89686594D02*
X125613406Y-89686594D01*
X122540749Y-89833835D02*
X122894645Y-90187731D01*
X123521885Y-90187731D02*
X124023022Y-89686594D01*
X125613406Y-89686594D02*
X125810000Y-89490000D01*
%TO.N,LTDC_G4*%
X124138600Y-88211400D02*
X123850000Y-88500000D01*
X125594689Y-88211400D02*
X124138600Y-88211400D01*
X126614491Y-88751778D02*
X126135067Y-88751778D01*
X126135067Y-88751778D02*
X125594689Y-88211400D01*
%TO.N,LTDC_G1*%
X117890000Y-101400000D02*
X117890000Y-99750000D01*
X129320000Y-104480000D02*
X127860000Y-103020000D01*
X117559113Y-99419113D02*
X117559113Y-99262285D01*
X119510000Y-103020000D02*
X117890000Y-101400000D01*
X117890000Y-99750000D02*
X117559113Y-99419113D01*
X127860000Y-103020000D02*
X119510000Y-103020000D01*
%TO.N,LTDC_B3*%
X114604682Y-88382918D02*
X114554036Y-88433564D01*
X138175200Y-86030800D02*
X137430000Y-86776000D01*
X117400031Y-88382918D02*
X115631948Y-88382918D01*
X120628780Y-87222800D02*
X118560149Y-87222800D01*
X115624043Y-88375013D02*
X115313299Y-88375013D01*
X121240379Y-86611201D02*
X120628780Y-87222800D01*
X126422317Y-86776000D02*
X126257513Y-86611200D01*
X118560149Y-87222800D02*
X117400031Y-88382918D01*
X137430000Y-86776000D02*
X126422317Y-86776000D01*
X126257513Y-86611200D02*
X121240379Y-86611201D01*
X144410799Y-86030800D02*
X138175200Y-86030800D01*
X144800000Y-86420001D02*
X144410799Y-86030800D01*
X115631948Y-88382918D02*
X115624043Y-88375013D01*
X115313299Y-88375013D02*
X115305394Y-88382918D01*
X115305394Y-88382918D02*
X114604682Y-88382918D01*
%TO.N,LTDC_R0*%
X130610000Y-104100000D02*
X130370000Y-104340000D01*
X129577528Y-104078000D02*
X129297810Y-104078000D01*
X123479072Y-101988600D02*
X120898600Y-101988600D01*
X120898600Y-101988600D02*
X120320668Y-101410668D01*
X129839528Y-104340000D02*
X129577528Y-104078000D01*
X129297810Y-104078000D02*
X128011210Y-102791400D01*
X120320668Y-100011967D02*
X120319840Y-100011139D01*
X120320668Y-101410668D02*
X120320668Y-100011967D01*
X130370000Y-104340000D02*
X129839528Y-104340000D01*
X128011210Y-102791400D02*
X124281872Y-102791400D01*
X124281872Y-102791400D02*
X123479072Y-101988600D01*
%TO.N,LTDC_HSYNC*%
X124869100Y-85370900D02*
X115329100Y-85370900D01*
X115329100Y-85370900D02*
X114990000Y-85710000D01*
X125575100Y-84664900D02*
X124869100Y-85370900D01*
X127390246Y-84664900D02*
X125575100Y-84664900D01*
%TO.N,LTDC_R4*%
X143180000Y-91660000D02*
X142870000Y-91350000D01*
X122224269Y-90695731D02*
X120580000Y-92340000D01*
X127040000Y-89770000D02*
X126438500Y-90371500D01*
X120580000Y-92340000D02*
X120580000Y-93450000D01*
X115707547Y-97896300D02*
X114836360Y-97896300D01*
X126438500Y-90371500D02*
X125975261Y-90371500D01*
X118271349Y-97921811D02*
X117542602Y-97921811D01*
X130520000Y-89270000D02*
X127220000Y-89270000D01*
X118890000Y-96140474D02*
X118890000Y-97303160D01*
X127220000Y-89270000D02*
X127040000Y-89450000D01*
X117343043Y-97722253D02*
X115881594Y-97722253D01*
X117542602Y-97921811D02*
X117343043Y-97722253D01*
X142870000Y-91350000D02*
X132600000Y-91350000D01*
X127040000Y-89450000D02*
X127040000Y-89770000D01*
X125975261Y-90371500D02*
X125866541Y-90262780D01*
X144250000Y-91660000D02*
X143180000Y-91660000D01*
X118890000Y-97303160D02*
X118271349Y-97921811D01*
X132600000Y-91350000D02*
X130520000Y-89270000D01*
X120420000Y-93610000D02*
X120420000Y-94610474D01*
X115881594Y-97722253D02*
X115707547Y-97896300D01*
X125866541Y-90262780D02*
X124165256Y-90262780D01*
X124165256Y-90262780D02*
X123732305Y-90695731D01*
X123732305Y-90695731D02*
X122224269Y-90695731D01*
X120420000Y-94610474D02*
X118890000Y-96140474D01*
X120580000Y-93450000D02*
X120420000Y-93610000D01*
%TO.N,LTDC_R2*%
X119420000Y-92876490D02*
X119420000Y-93650000D01*
X115445157Y-97500200D02*
X113874996Y-97500200D01*
X115790280Y-97493653D02*
X115769817Y-97514116D01*
X124098826Y-89970000D02*
X123627095Y-90441731D01*
X119300000Y-92756490D02*
X119420000Y-92876490D01*
X123627095Y-90441731D02*
X121158269Y-90441731D01*
X115769817Y-97514116D02*
X115459073Y-97514116D01*
X120280000Y-91590000D02*
X120010000Y-91590000D01*
X115459073Y-97514116D02*
X115445157Y-97500200D01*
X126190000Y-89970000D02*
X124098826Y-89970000D01*
X113874996Y-97500200D02*
X113846300Y-97528896D01*
X116173099Y-97493653D02*
X115790280Y-97493653D01*
X120440000Y-91430000D02*
X120280000Y-91590000D01*
X121158269Y-90441731D02*
X120440000Y-91160000D01*
X118105100Y-94964900D02*
X118105100Y-96764900D01*
X120440000Y-91160000D02*
X120440000Y-91430000D01*
X119300000Y-92300000D02*
X119300000Y-92756490D01*
X117380000Y-97490000D02*
X116176752Y-97490000D01*
X116176752Y-97490000D02*
X116173099Y-97493653D01*
X119420000Y-93650000D02*
X118105100Y-94964900D01*
X118105100Y-96764900D02*
X117380000Y-97490000D01*
X120010000Y-91590000D02*
X119300000Y-92300000D01*
D14*
%TO.N,~{LED_PWR}*%
X113590003Y-102910793D02*
X114880000Y-104200790D01*
X111739964Y-100339740D02*
X113590003Y-102189779D01*
X114880000Y-104200790D02*
X114880000Y-108617803D01*
X114880000Y-108617803D02*
X113590003Y-109907800D01*
X113590003Y-102189779D02*
X113590003Y-102910793D01*
X110429740Y-100339740D02*
X111739964Y-100339740D01*
X110200000Y-100110000D02*
X110429740Y-100339740D01*
D13*
%TO.N,DIB1{slash}DIB3_MOSI*%
X122703431Y-100990624D02*
X122703431Y-101025726D01*
D14*
X126161801Y-104681796D02*
X126233397Y-104610200D01*
X126470000Y-108680000D02*
X126470000Y-105689540D01*
X126470000Y-105689540D02*
X126161801Y-105381341D01*
D13*
X121654602Y-99013042D02*
X121654602Y-99941795D01*
X121638118Y-98996558D02*
X121654602Y-99013042D01*
D14*
X126161801Y-105381341D02*
X126161801Y-104681796D01*
D13*
X121654602Y-99941795D02*
X122703431Y-100990624D01*
D14*
X125104217Y-109144217D02*
X126005783Y-109144217D01*
X126005783Y-109144217D02*
X126470000Y-108680000D01*
%TO.N,DIB2{slash}DIB5_MISO*%
X112870000Y-102739224D02*
X113557527Y-103426751D01*
X109354229Y-101305771D02*
X110094229Y-101305771D01*
X111753046Y-100747954D02*
X112870000Y-101864908D01*
X109049285Y-101610715D02*
X109354229Y-101305771D01*
X110094229Y-101305771D02*
X110652046Y-100747954D01*
X112870000Y-101864908D02*
X112870000Y-102739224D01*
X110652046Y-100747954D02*
X111753046Y-100747954D01*
X109049285Y-101649258D02*
X109049285Y-101610715D01*
%TO.N,DIB1{slash}DIB3_SCLK*%
X111166200Y-102386200D02*
X110940000Y-102160000D01*
X115084283Y-89948613D02*
X115084283Y-89985717D01*
D13*
X114800000Y-90390000D02*
X113970000Y-90390000D01*
X113600000Y-90760000D02*
X113590000Y-90760000D01*
X115084283Y-90105717D02*
X114810000Y-90380000D01*
X110710000Y-90760000D02*
X110500000Y-90970000D01*
D14*
X110861932Y-106721932D02*
X111166200Y-106417664D01*
D13*
X113590000Y-90760000D02*
X110710000Y-90760000D01*
X115084283Y-89948613D02*
X115084283Y-90105717D01*
D14*
X111166200Y-106417664D02*
X111166200Y-102386200D01*
D13*
X114810000Y-90380000D02*
X114800000Y-90390000D01*
X113970000Y-90390000D02*
X113600000Y-90760000D01*
D14*
%TO.N,/STM32H7 MCU/~{ACTIVE}*%
X125840527Y-107819473D02*
X125840527Y-104039221D01*
X125840527Y-104039221D02*
X126019748Y-103860000D01*
X125280000Y-108380000D02*
X125840527Y-107819473D01*
X126019748Y-103860000D02*
X126146270Y-103860000D01*
D13*
%TO.N,ETH_REF_CLK*%
X111347591Y-95430000D02*
X107710002Y-95430000D01*
X111797591Y-95880000D02*
X111347591Y-95430000D01*
X116159612Y-94191500D02*
X114471112Y-95880000D01*
X114471112Y-95880000D02*
X111797591Y-95880000D01*
X107710002Y-95430000D02*
X105960001Y-97180001D01*
X116332534Y-94191500D02*
X116159612Y-94191500D01*
D14*
%TO.N,Net-(IC6-RXD1{slash}MODE1)*%
X108845846Y-105654154D02*
X108420000Y-106080000D01*
X108845846Y-103182754D02*
X108845846Y-105654154D01*
X109110000Y-102990000D02*
X109181400Y-102918600D01*
X110671867Y-101675000D02*
X111665000Y-101675000D01*
X109038600Y-102990000D02*
X108845846Y-103182754D01*
X109428267Y-102918600D02*
X110671867Y-101675000D01*
X109110000Y-102990000D02*
X109038600Y-102990000D01*
X109181400Y-102918600D02*
X109428267Y-102918600D01*
D13*
%TO.N,DVID_CEC*%
X130394890Y-83915110D02*
X130394890Y-84061675D01*
X137710000Y-85280000D02*
X136150000Y-83720000D01*
X130840000Y-83470000D02*
X130394890Y-83915110D01*
X132540000Y-83720000D02*
X132290000Y-83470000D01*
X136150000Y-83720000D02*
X132540000Y-83720000D01*
X132290000Y-83470000D02*
X130840000Y-83470000D01*
%TO.N,DVID_HPD*%
X121145689Y-86382601D02*
X120534090Y-86994200D01*
X128030811Y-86382600D02*
X121145689Y-86382601D01*
X120534090Y-86994200D02*
X118465458Y-86994200D01*
X118465458Y-86994200D02*
X118209658Y-87250000D01*
X116760000Y-87250000D02*
X116650000Y-87360000D01*
X118209658Y-87250000D02*
X116760000Y-87250000D01*
X129981339Y-84432072D02*
X128030811Y-86382600D01*
D14*
%TO.N,REAR_DVID_HPD*%
X125210000Y-77620000D02*
X126500000Y-78910000D01*
X126500000Y-78910000D02*
X130319502Y-78910000D01*
X125180000Y-77620000D02*
X125210000Y-77620000D01*
X130319502Y-78910000D02*
X132039750Y-80630248D01*
D13*
%TO.N,TFT_DVID_HPD*%
X124468750Y-77950000D02*
X125957450Y-79438700D01*
X125957450Y-79438700D02*
X129788700Y-79438700D01*
X132339263Y-81989263D02*
X132507005Y-81989263D01*
X129788700Y-79438700D02*
X132339263Y-81989263D01*
X122580000Y-77950000D02*
X124468750Y-77950000D01*
%TD*%
%TA.AperFunction,Conductor*%
%TO.N,/CM5 socket/+5V_IN*%
G36*
X139926810Y-98101236D02*
G01*
X140021001Y-98116155D01*
X140050930Y-98125880D01*
X140128749Y-98165531D01*
X140154212Y-98184031D01*
X140215968Y-98245787D01*
X140234468Y-98271250D01*
X140274119Y-98349069D01*
X140283845Y-98379003D01*
X140298761Y-98473176D01*
X140300000Y-98488914D01*
X140300000Y-99011085D01*
X140298761Y-99026823D01*
X140283845Y-99120996D01*
X140274119Y-99150930D01*
X140234468Y-99228749D01*
X140215968Y-99254212D01*
X140154212Y-99315968D01*
X140128749Y-99334468D01*
X140050930Y-99374119D01*
X140020996Y-99383845D01*
X139944346Y-99395985D01*
X139926821Y-99398761D01*
X139911086Y-99400000D01*
X139100000Y-99400000D01*
X139100000Y-105432276D01*
X139098067Y-105451903D01*
X139074901Y-105568361D01*
X139059880Y-105604624D01*
X138993913Y-105703352D01*
X138981402Y-105718597D01*
X134405133Y-110294865D01*
X134384300Y-110310851D01*
X134317175Y-110349607D01*
X134249607Y-110417175D01*
X134210851Y-110484300D01*
X134194865Y-110505133D01*
X133618597Y-111081402D01*
X133603352Y-111093913D01*
X133504624Y-111159880D01*
X133468361Y-111174901D01*
X133376999Y-111193074D01*
X133351901Y-111198067D01*
X133332277Y-111200000D01*
X132378501Y-111200000D01*
X132328202Y-111186523D01*
X132306717Y-111174119D01*
X132255514Y-111144557D01*
X132255513Y-111144556D01*
X132255512Y-111144556D01*
X132255507Y-111144554D01*
X132153047Y-111117100D01*
X132153043Y-111117100D01*
X132046957Y-111117100D01*
X132046952Y-111117100D01*
X131944492Y-111144554D01*
X131944487Y-111144556D01*
X131871798Y-111186523D01*
X131821499Y-111200000D01*
X129688914Y-111200000D01*
X129673178Y-111198761D01*
X129652075Y-111195418D01*
X129579003Y-111183845D01*
X129549069Y-111174119D01*
X129471250Y-111134468D01*
X129445787Y-111115968D01*
X129384031Y-111054212D01*
X129365531Y-111028749D01*
X129325880Y-110950930D01*
X129316155Y-110921001D01*
X129301237Y-110826811D01*
X129300000Y-110811085D01*
X129300000Y-110288914D01*
X129301236Y-110273189D01*
X129316155Y-110178996D01*
X129325880Y-110149069D01*
X129365533Y-110071246D01*
X129384028Y-110045790D01*
X129445790Y-109984028D01*
X129471246Y-109965533D01*
X129549070Y-109925879D01*
X129578996Y-109916155D01*
X129673189Y-109901236D01*
X129688914Y-109900000D01*
X132252022Y-109900000D01*
X132311153Y-109919213D01*
X132324394Y-109932113D01*
X132324844Y-109931664D01*
X132329506Y-109936326D01*
X132397072Y-110003892D01*
X132479824Y-110051669D01*
X132479826Y-110051670D01*
X132572116Y-110076399D01*
X132572118Y-110076399D01*
X132572121Y-110076400D01*
X132572123Y-110076400D01*
X132667673Y-110076400D01*
X132667675Y-110076400D01*
X132759968Y-110051670D01*
X132759969Y-110051670D01*
X132759969Y-110051669D01*
X132759972Y-110051669D01*
X132842724Y-110003892D01*
X132910290Y-109936326D01*
X132910290Y-109936325D01*
X132914952Y-109931664D01*
X132916666Y-109933378D01*
X132959192Y-109904146D01*
X132987774Y-109900000D01*
X133000000Y-109900000D01*
X137800000Y-105100000D01*
X137800000Y-98488914D01*
X137801236Y-98473189D01*
X137816155Y-98378996D01*
X137825880Y-98349069D01*
X137865533Y-98271246D01*
X137884028Y-98245790D01*
X137945790Y-98184028D01*
X137971246Y-98165533D01*
X138049070Y-98125879D01*
X138078996Y-98116155D01*
X138173189Y-98101236D01*
X138188914Y-98100000D01*
X139911086Y-98100000D01*
X139926810Y-98101236D01*
G37*
%TD.AperFunction*%
%TD*%
M02*
