%TF.GenerationSoftware,KiCad,Pcbnew,9.0.6-9.0.6~ubuntu24.04.1*%
%TF.CreationDate,2025-12-27T10:39:19+01:00*%
%TF.ProjectId,BB3plus CM5 STM32H7 module,42423370-6c75-4732-9043-4d352053544d,r1B3*%
%TF.SameCoordinates,Original*%
%TF.FileFunction,Copper,L6,Bot*%
%TF.FilePolarity,Positive*%
%FSLAX46Y46*%
G04 Gerber Fmt 4.6, Leading zero omitted, Abs format (unit mm)*
G04 Created by KiCad (PCBNEW 9.0.6-9.0.6~ubuntu24.04.1) date 2025-12-27 10:39:19*
%MOMM*%
%LPD*%
G01*
G04 APERTURE LIST*
G04 Aperture macros list*
%AMRoundRect*
0 Rectangle with rounded corners*
0 $1 Rounding radius*
0 $2 $3 $4 $5 $6 $7 $8 $9 X,Y pos of 4 corners*
0 Add a 4 corners polygon primitive as box body*
4,1,4,$2,$3,$4,$5,$6,$7,$8,$9,$2,$3,0*
0 Add four circle primitives for the rounded corners*
1,1,$1+$1,$2,$3*
1,1,$1+$1,$4,$5*
1,1,$1+$1,$6,$7*
1,1,$1+$1,$8,$9*
0 Add four rect primitives between the rounded corners*
20,1,$1+$1,$2,$3,$4,$5,0*
20,1,$1+$1,$4,$5,$6,$7,0*
20,1,$1+$1,$6,$7,$8,$9,0*
20,1,$1+$1,$8,$9,$2,$3,0*%
G04 Aperture macros list end*
%TA.AperFunction,EtchedComponent*%
%ADD10C,0.000000*%
%TD*%
%TA.AperFunction,SMDPad,CuDef*%
%ADD11R,0.230000X0.660000*%
%TD*%
%TA.AperFunction,SMDPad,CuDef*%
%ADD12R,0.350000X0.660000*%
%TD*%
%TA.AperFunction,SMDPad,CuDef*%
%ADD13RoundRect,0.140000X-0.170000X0.140000X-0.170000X-0.140000X0.170000X-0.140000X0.170000X0.140000X0*%
%TD*%
%TA.AperFunction,SMDPad,CuDef*%
%ADD14R,1.400000X1.200000*%
%TD*%
%TA.AperFunction,SMDPad,CuDef*%
%ADD15RoundRect,0.225000X-0.225000X-0.250000X0.225000X-0.250000X0.225000X0.250000X-0.225000X0.250000X0*%
%TD*%
%TA.AperFunction,SMDPad,CuDef*%
%ADD16RoundRect,0.140000X0.170000X-0.140000X0.170000X0.140000X-0.170000X0.140000X-0.170000X-0.140000X0*%
%TD*%
%TA.AperFunction,SMDPad,CuDef*%
%ADD17RoundRect,0.140000X0.140000X0.170000X-0.140000X0.170000X-0.140000X-0.170000X0.140000X-0.170000X0*%
%TD*%
%TA.AperFunction,SMDPad,CuDef*%
%ADD18RoundRect,0.140000X-0.140000X-0.170000X0.140000X-0.170000X0.140000X0.170000X-0.140000X0.170000X0*%
%TD*%
%TA.AperFunction,SMDPad,CuDef*%
%ADD19RoundRect,0.225000X0.250000X-0.225000X0.250000X0.225000X-0.250000X0.225000X-0.250000X-0.225000X0*%
%TD*%
%TA.AperFunction,SMDPad,CuDef*%
%ADD20RoundRect,0.225000X0.225000X0.250000X-0.225000X0.250000X-0.225000X-0.250000X0.225000X-0.250000X0*%
%TD*%
%TA.AperFunction,SMDPad,CuDef*%
%ADD21C,0.200000*%
%TD*%
%TA.AperFunction,SMDPad,CuDef*%
%ADD22RoundRect,0.225000X-0.250000X0.225000X-0.250000X-0.225000X0.250000X-0.225000X0.250000X0.225000X0*%
%TD*%
%TA.AperFunction,SMDPad,CuDef*%
%ADD23RoundRect,0.135000X0.135000X0.185000X-0.135000X0.185000X-0.135000X-0.185000X0.135000X-0.185000X0*%
%TD*%
%TA.AperFunction,SMDPad,CuDef*%
%ADD24RoundRect,0.050800X0.449200X0.499200X-0.449200X0.499200X-0.449200X-0.499200X0.449200X-0.499200X0*%
%TD*%
%TA.AperFunction,SMDPad,CuDef*%
%ADD25RoundRect,0.042333X-0.402167X-0.833967X0.402167X-0.833967X0.402167X0.833967X-0.402167X0.833967X0*%
%TD*%
%TA.AperFunction,SMDPad,CuDef*%
%ADD26R,1.200000X1.400000*%
%TD*%
%TA.AperFunction,SMDPad,CuDef*%
%ADD27RoundRect,0.135000X-0.135000X-0.185000X0.135000X-0.185000X0.135000X0.185000X-0.135000X0.185000X0*%
%TD*%
%TA.AperFunction,SMDPad,CuDef*%
%ADD28RoundRect,0.050800X-0.499200X0.449200X-0.499200X-0.449200X0.499200X-0.449200X0.499200X0.449200X0*%
%TD*%
%TA.AperFunction,ViaPad*%
%ADD29C,0.420000*%
%TD*%
%TA.AperFunction,ViaPad*%
%ADD30C,0.450000*%
%TD*%
%TA.AperFunction,ViaPad*%
%ADD31C,0.500000*%
%TD*%
%TA.AperFunction,Conductor*%
%ADD32C,0.127000*%
%TD*%
%TA.AperFunction,Conductor*%
%ADD33C,0.152400*%
%TD*%
%TA.AperFunction,Conductor*%
%ADD34C,0.254000*%
%TD*%
%TA.AperFunction,Conductor*%
%ADD35C,0.508000*%
%TD*%
%TA.AperFunction,Conductor*%
%ADD36C,0.203200*%
%TD*%
%TA.AperFunction,Conductor*%
%ADD37C,0.304800*%
%TD*%
%TA.AperFunction,Conductor*%
%ADD38C,0.406400*%
%TD*%
G04 APERTURE END LIST*
D10*
%TA.AperFunction,EtchedComponent*%
%TO.C,JP1*%
G36*
X118100400Y-78130000D02*
G01*
X117440000Y-78130000D01*
X117440000Y-77596600D01*
X118100400Y-77596600D01*
X118100400Y-78130000D01*
G37*
%TD.AperFunction*%
%TA.AperFunction,EtchedComponent*%
%TO.C,NT1*%
G36*
X117480000Y-98220000D02*
G01*
X117080000Y-98220000D01*
X117080000Y-98020000D01*
X117480000Y-98020000D01*
X117480000Y-98220000D01*
G37*
%TD.AperFunction*%
%TA.AperFunction,EtchedComponent*%
%TO.C,NT2*%
G36*
X121260000Y-98099999D02*
G01*
X121060000Y-98099999D01*
X121060000Y-97699999D01*
X121260000Y-97699999D01*
X121260000Y-98099999D01*
G37*
%TD.AperFunction*%
%TD*%
D11*
%TO.P,SoM1,1,GND*%
%TO.N,GND*%
X114300000Y-110515000D03*
%TO.P,SoM1,2,GND*%
X114300000Y-107805000D03*
%TO.P,SoM1,3,Ethernet_Pair3_P*%
%TO.N,unconnected-(SoM1A-Ethernet_Pair3_P-Pad3)*%
X114700000Y-110515000D03*
%TO.P,SoM1,4,Ethernet_Pair1_P*%
%TO.N,ETH_TXRX_B+*%
X114700000Y-107805000D03*
%TO.P,SoM1,5,Ethernet_Pair3_N*%
%TO.N,unconnected-(SoM1A-Ethernet_Pair3_N-Pad5)*%
X115100000Y-110515000D03*
%TO.P,SoM1,6,Ethernet_Pair1_N*%
%TO.N,ETH_TXRX_B-*%
X115100000Y-107805000D03*
%TO.P,SoM1,7,GND*%
%TO.N,GND*%
X115500000Y-110515000D03*
%TO.P,SoM1,8,GND*%
X115500000Y-107805000D03*
%TO.P,SoM1,9,Ethernet_Pair2_N*%
%TO.N,unconnected-(SoM1A-Ethernet_Pair2_N-Pad9)*%
X115900000Y-110515000D03*
%TO.P,SoM1,10,Ethernet_Pair0_N*%
%TO.N,ETH_TXRX_A-*%
X115900000Y-107805000D03*
%TO.P,SoM1,11,Ethernet_Pair2_P*%
%TO.N,unconnected-(SoM1A-Ethernet_Pair2_P-Pad11)*%
X116300000Y-110515000D03*
%TO.P,SoM1,12,Ethernet_Pair0_P*%
%TO.N,ETH_TXRX_A+*%
X116300000Y-107805000D03*
%TO.P,SoM1,13,GND*%
%TO.N,GND*%
X116700000Y-110515000D03*
%TO.P,SoM1,14,GND*%
X116700000Y-107805000D03*
%TO.P,SoM1,15,Ethernet_nLED3(3.3v)*%
%TO.N,~{ETH_LINK_ACT}*%
X117100000Y-110515000D03*
%TO.P,SoM1,16,Fan_Tacho*%
%TO.N,unconnected-(SoM1A-Fan_Tacho-Pad16)*%
X117100000Y-107805000D03*
%TO.P,SoM1,17,Ethernet_nLED2(3.3v)*%
%TO.N,~{ETH_LINK100}*%
X117500000Y-110515000D03*
%TO.P,SoM1,18,Ethernet_SYNC_OUT(1.8v)*%
%TO.N,unconnected-(SoM1A-Ethernet_SYNC_OUT(1.8v)-Pad18)*%
X117500000Y-107805000D03*
%TO.P,SoM1,19,Fan_PWM*%
%TO.N,unconnected-(SoM1A-Fan_PWM-Pad19)*%
X117900000Y-110515000D03*
%TO.P,SoM1,20,EEPROM_nWP*%
%TO.N,unconnected-(SoM1A-EEPROM_nWP-Pad20)*%
X117900000Y-107805000D03*
%TO.P,SoM1,21,LED_nACT*%
%TO.N,~{LED_ACT}*%
X118300000Y-110515000D03*
%TO.P,SoM1,22,GND*%
%TO.N,GND*%
X118300000Y-107805000D03*
%TO.P,SoM1,23,GND*%
X118700000Y-110515000D03*
%TO.P,SoM1,24,GPIO26*%
%TO.N,~{SYSMCU_CS}*%
X118700000Y-107805000D03*
%TO.P,SoM1,25,GPIO21*%
%TO.N,~{DIB3_IRQ}*%
X119100000Y-110515000D03*
%TO.P,SoM1,26,GPIO19*%
%TO.N,~{DIB1_IRQ}*%
X119100000Y-107805000D03*
%TO.P,SoM1,27,GPIO20*%
%TO.N,~{DIB2_IRQ}*%
X119500000Y-110515000D03*
%TO.P,SoM1,28,GPIO13*%
%TO.N,DIB1{slash}DIB3_MISO*%
X119500000Y-107805000D03*
%TO.P,SoM1,29,GPIO16*%
%TO.N,RS485_TX_EN{slash}DOUT2*%
X119900000Y-110515000D03*
%TO.P,SoM1,30,GPIO6*%
%TO.N,DIB4_MOSI*%
X119900000Y-107805000D03*
%TO.P,SoM1,31,GPIO12*%
%TO.N,~{DIB1_CSA}*%
X120300000Y-110515000D03*
%TO.P,SoM1,32,GND*%
%TO.N,GND*%
X120300000Y-107805000D03*
%TO.P,SoM1,33,GND*%
X120700000Y-110515000D03*
%TO.P,SoM1,34,GPIO5*%
%TO.N,DIB4_MISO*%
X120700000Y-107805000D03*
%TO.P,SoM1,35,ID_SC/GPIO1*%
%TO.N,DIN2*%
X121100000Y-110515000D03*
%TO.P,SoM1,36,ID_SD/GPIO0*%
%TO.N,RTC_CM5*%
X121100000Y-107805000D03*
%TO.P,SoM1,37,GPIO7*%
%TO.N,DIB4_SCLK*%
X121500000Y-110515000D03*
%TO.P,SoM1,38,GPIO11*%
%TO.N,DIB2{slash}DIB5_SCLK*%
X121500000Y-107805000D03*
%TO.P,SoM1,39,GPIO8*%
%TO.N,~{DIB2_CSA}*%
X121900000Y-110515000D03*
%TO.P,SoM1,40,GPIO9*%
%TO.N,DIB2{slash}DIB5_MISO*%
X121900000Y-107805000D03*
%TO.P,SoM1,41,GPIO25*%
%TO.N,~{TFT_IRQ}*%
X122300000Y-110515000D03*
%TO.P,SoM1,42,GND*%
%TO.N,GND*%
X122300000Y-107805000D03*
%TO.P,SoM1,43,GND*%
X122700000Y-110515000D03*
%TO.P,SoM1,44,GPIO10*%
%TO.N,DIB2{slash}DIB5_MOSI*%
X122700000Y-107805000D03*
%TO.P,SoM1,45,GPIO24*%
%TO.N,~{SYSMCU_IRQ}*%
X123100000Y-110515000D03*
%TO.P,SoM1,46,GPIO22*%
%TO.N,~{DIB4_IRQ}*%
X123100000Y-107805000D03*
%TO.P,SoM1,47,GPIO23*%
%TO.N,~{DIB5_IRQ}*%
X123500000Y-110515000D03*
%TO.P,SoM1,48,GPIO27*%
%TO.N,DIB_OE_SYNC*%
X123500000Y-107805000D03*
%TO.P,SoM1,49,GPIO18*%
%TO.N,~{DIB5_CSA}*%
X123900000Y-110515000D03*
%TO.P,SoM1,50,GPIO17*%
%TO.N,~{DIB3_CSA}*%
X123900000Y-107805000D03*
%TO.P,SoM1,51,GPIO15*%
%TO.N,DIB1{slash}DIB3_SCLK*%
X124300000Y-110515000D03*
%TO.P,SoM1,52,GND*%
%TO.N,GND*%
X124300000Y-107805000D03*
%TO.P,SoM1,53,GND*%
X124700000Y-110515000D03*
%TO.P,SoM1,54,GPIO4*%
%TO.N,~{DIB4_CSA}*%
X124700000Y-107805000D03*
%TO.P,SoM1,55,GPIO14*%
%TO.N,DIB1{slash}DIB3_MOSI*%
X125100000Y-110515000D03*
%TO.P,SoM1,56,GPIO3*%
%TO.N,UART_TX{slash}DOUT1*%
X125100000Y-107805000D03*
%TO.P,SoM1,57,SD_CLK*%
%TO.N,unconnected-(SoM1A-SD_CLK-Pad57)*%
X125500000Y-110515000D03*
%TO.P,SoM1,58,GPIO2*%
%TO.N,UART_RX{slash}DIN1*%
X125500000Y-107805000D03*
%TO.P,SoM1,59,GND*%
%TO.N,GND*%
X125900000Y-110515000D03*
%TO.P,SoM1,60,GND*%
X125900000Y-107805000D03*
%TO.P,SoM1,61,SD_DAT3*%
%TO.N,unconnected-(SoM1A-SD_DAT3-Pad61)*%
X126300000Y-110515000D03*
%TO.P,SoM1,62,SD_CMD*%
%TO.N,unconnected-(SoM1A-SD_CMD-Pad62)*%
X126300000Y-107805000D03*
%TO.P,SoM1,63,SD_DAT0*%
%TO.N,unconnected-(SoM1A-SD_DAT0-Pad63)*%
X126700000Y-110515000D03*
%TO.P,SoM1,64,SD_DAT5*%
%TO.N,unconnected-(SoM1A-SD_DAT5-Pad64)*%
X126700000Y-107805000D03*
%TO.P,SoM1,65,GND*%
%TO.N,GND*%
X127100000Y-110515000D03*
%TO.P,SoM1,66,GND*%
X127100000Y-107805000D03*
%TO.P,SoM1,67,SD_DAT1*%
%TO.N,unconnected-(SoM1A-SD_DAT1-Pad67)*%
X127500000Y-110515000D03*
%TO.P,SoM1,68,SD_DAT4*%
%TO.N,unconnected-(SoM1A-SD_DAT4-Pad68)*%
X127500000Y-107805000D03*
%TO.P,SoM1,69,SD_DAT2*%
%TO.N,unconnected-(SoM1A-SD_DAT2-Pad69)*%
X127900000Y-110515000D03*
%TO.P,SoM1,70,SD_DAT7*%
%TO.N,unconnected-(SoM1A-SD_DAT7-Pad70)*%
X127900000Y-107805000D03*
%TO.P,SoM1,71,GND*%
%TO.N,GND*%
X128300000Y-110515000D03*
%TO.P,SoM1,72,SD_DAT6*%
%TO.N,unconnected-(SoM1A-SD_DAT6-Pad72)*%
X128300000Y-107805000D03*
%TO.P,SoM1,73,SD_VDD_Override*%
%TO.N,unconnected-(SoM1A-SD_VDD_Override-Pad73)*%
X128700000Y-110515000D03*
%TO.P,SoM1,74,GND*%
%TO.N,GND*%
X128700000Y-107805000D03*
%TO.P,SoM1,75,SD_PWR_ON*%
%TO.N,unconnected-(SoM1A-SD_PWR_ON-Pad75)*%
X129100000Y-110515000D03*
%TO.P,SoM1,76,VBAT*%
%TO.N,+VAUX*%
X129100000Y-107805000D03*
%TO.P,SoM1,77,+5v(Input)*%
%TO.N,/CM5 socket/+5V_IN*%
X129500000Y-110515000D03*
%TO.P,SoM1,78,GPIO_VREF(1.8v/3.3v_Input)*%
%TO.N,GPIO_VREF*%
X129500000Y-107805000D03*
%TO.P,SoM1,79,+5v(Input)*%
%TO.N,/CM5 socket/+5V_IN*%
X129900000Y-110515000D03*
%TO.P,SoM1,80,SCL0*%
%TO.N,SCL*%
X129900000Y-107805000D03*
%TO.P,SoM1,81,+5v(Input)*%
%TO.N,/CM5 socket/+5V_IN*%
X130300000Y-110515000D03*
%TO.P,SoM1,82,SDA0*%
%TO.N,SDA*%
X130300000Y-107805000D03*
%TO.P,SoM1,83,+5v(Input)*%
%TO.N,/CM5 socket/+5V_IN*%
X130700000Y-110515000D03*
%TO.P,SoM1,84,CM5_3.3v*%
%TO.N,+3V3*%
X130700000Y-107805000D03*
%TO.P,SoM1,85,+5v(Input)*%
%TO.N,/CM5 socket/+5V_IN*%
X131100000Y-110515000D03*
%TO.P,SoM1,86,CM5_3.3v*%
%TO.N,+3V3*%
X131100000Y-107805000D03*
%TO.P,SoM1,87,+5v(Input)*%
%TO.N,/CM5 socket/+5V_IN*%
X131500000Y-110515000D03*
%TO.P,SoM1,88,CM5_1.8v*%
%TO.N,+1V8*%
X131500000Y-107805000D03*
%TO.P,SoM1,89,WiFi_nDisable*%
%TO.N,GND*%
X131900000Y-110515000D03*
%TO.P,SoM1,90,CM5_1.8v*%
%TO.N,+1V8*%
X131900000Y-107805000D03*
%TO.P,SoM1,91,BT_nDisable*%
%TO.N,GND*%
X132300000Y-110515000D03*
%TO.P,SoM1,92,PWR_Button*%
%TO.N,~{RESET_OUT}*%
X132300000Y-107805000D03*
%TO.P,SoM1,93,nRPIBOOT*%
%TO.N,BOOT0*%
X132700000Y-110515000D03*
%TO.P,SoM1,94,CC1*%
%TO.N,unconnected-(SoM1A-CC1-Pad94)*%
X132700000Y-107805000D03*
%TO.P,SoM1,95,LED_nPWR*%
%TO.N,~{LED_PWR}*%
X133100000Y-110515000D03*
%TO.P,SoM1,96,CC2*%
%TO.N,unconnected-(SoM1A-CC2-Pad96)*%
X133100000Y-107805000D03*
%TO.P,SoM1,97,CAM_GPIO0*%
%TO.N,RS485_TX{slash}DOUT3*%
X133500000Y-110515000D03*
%TO.P,SoM1,98,GND*%
%TO.N,GND*%
X133500000Y-107805000D03*
%TO.P,SoM1,99,PMIC_EN*%
%TO.N,unconnected-(SoM1A-PMIC_EN-Pad99)*%
X133900000Y-110515000D03*
%TO.P,SoM1,100,CAM_GPIO1*%
%TO.N,RS485_RX{slash}DIN3*%
X133900000Y-107805000D03*
%TO.P,SoM1,101,USB_OTG_ID*%
%TO.N,unconnected-(SoM1B-USB_OTG_ID-Pad101)*%
X114300000Y-76595000D03*
%TO.P,SoM1,102,PCIe_CLK_nREQ*%
%TO.N,unconnected-(SoM1B-PCIe_CLK_nREQ-Pad102)*%
X114300000Y-73885000D03*
%TO.P,SoM1,103,USB_N*%
%TO.N,unconnected-(SoM1B-USB_N-Pad103)*%
X114700000Y-76595000D03*
%TO.P,SoM1,104,PCIE_nWAKE*%
%TO.N,unconnected-(SoM1B-PCIE_nWAKE-Pad104)*%
X114700000Y-73885000D03*
%TO.P,SoM1,105,USB_P*%
%TO.N,unconnected-(SoM1B-USB_P-Pad105)*%
X115100000Y-76595000D03*
%TO.P,SoM1,106,PCIE_PWR_EN*%
%TO.N,unconnected-(SoM1B-PCIE_PWR_EN-Pad106)*%
X115100000Y-73885000D03*
%TO.P,SoM1,107,GND*%
%TO.N,GND*%
X115500000Y-76595000D03*
%TO.P,SoM1,108,GND*%
X115500000Y-73885000D03*
%TO.P,SoM1,109,PCIe_nRST*%
%TO.N,unconnected-(SoM1B-PCIe_nRST-Pad109)*%
X115900000Y-76595000D03*
%TO.P,SoM1,110,PCIe_CLK_P*%
%TO.N,unconnected-(SoM1B-PCIe_CLK_P-Pad110)*%
X115900000Y-73885000D03*
%TO.P,SoM1,111,VBUS_EN_(3.3v)*%
%TO.N,Net-(SoM1B-VBUS_EN_(3.3v))*%
X116300000Y-76595000D03*
%TO.P,SoM1,112,PCIe_CLK_N*%
%TO.N,unconnected-(SoM1B-PCIe_CLK_N-Pad112)*%
X116300000Y-73885000D03*
%TO.P,SoM1,113,GND*%
%TO.N,GND*%
X116700000Y-76595000D03*
%TO.P,SoM1,114,GND*%
X116700000Y-73885000D03*
%TO.P,SoM1,115,MIPI0_D0_N*%
%TO.N,unconnected-(SoM1B-MIPI0_D0_N-Pad115)*%
X117100000Y-76595000D03*
%TO.P,SoM1,116,PCIe_RX_P*%
%TO.N,unconnected-(SoM1B-PCIe_RX_P-Pad116)*%
X117100000Y-73885000D03*
%TO.P,SoM1,117,MIPI0_D0_P*%
%TO.N,unconnected-(SoM1B-MIPI0_D0_P-Pad117)*%
X117500000Y-76595000D03*
%TO.P,SoM1,118,PCIe_RX_N*%
%TO.N,unconnected-(SoM1B-PCIe_RX_N-Pad118)*%
X117500000Y-73885000D03*
%TO.P,SoM1,119,GND*%
%TO.N,GND*%
X117900000Y-76595000D03*
%TO.P,SoM1,120,GND*%
X117900000Y-73885000D03*
%TO.P,SoM1,121,MIPI0_D1_N*%
%TO.N,unconnected-(SoM1B-MIPI0_D1_N-Pad121)*%
X118300000Y-76595000D03*
%TO.P,SoM1,122,PCIe_TX_P*%
%TO.N,unconnected-(SoM1B-PCIe_TX_P-Pad122)*%
X118300000Y-73885000D03*
%TO.P,SoM1,123,MIPI0_D1_P*%
%TO.N,unconnected-(SoM1B-MIPI0_D1_P-Pad123)*%
X118700000Y-76595000D03*
%TO.P,SoM1,124,PCIe_TX_N*%
%TO.N,unconnected-(SoM1B-PCIe_TX_N-Pad124)*%
X118700000Y-73885000D03*
%TO.P,SoM1,125,GND*%
%TO.N,GND*%
X119100000Y-76595000D03*
%TO.P,SoM1,126,GND*%
X119100000Y-73885000D03*
%TO.P,SoM1,127,MIPI0_C_N*%
%TO.N,unconnected-(SoM1B-MIPI0_C_N-Pad127)*%
X119500000Y-76595000D03*
%TO.P,SoM1,128,USB3-0-RX_N*%
%TO.N,unconnected-(SoM1B-USB3-0-RX_N-Pad128)*%
X119500000Y-73885000D03*
%TO.P,SoM1,129,MIPI0_C_P*%
%TO.N,unconnected-(SoM1B-MIPI0_C_P-Pad129)*%
X119900000Y-76595000D03*
%TO.P,SoM1,130,USB3-0-RX_P*%
%TO.N,unconnected-(SoM1B-USB3-0-RX_P-Pad130)*%
X119900000Y-73885000D03*
%TO.P,SoM1,131,GND*%
%TO.N,GND*%
X120300000Y-76595000D03*
%TO.P,SoM1,132,GND*%
X120300000Y-73885000D03*
%TO.P,SoM1,133,MIPI0_D2_N*%
%TO.N,unconnected-(SoM1B-MIPI0_D2_N-Pad133)*%
X120700000Y-76595000D03*
%TO.P,SoM1,134,USB3-0-DP*%
%TO.N,DIB1_USB_D+*%
X120700000Y-73885000D03*
%TO.P,SoM1,135,MIPI0_D2_P*%
%TO.N,unconnected-(SoM1B-MIPI0_D2_P-Pad135)*%
X121100000Y-76595000D03*
%TO.P,SoM1,136,USB3-0-DM*%
%TO.N,DIB1_USB_D-*%
X121100000Y-73885000D03*
%TO.P,SoM1,137,GND*%
%TO.N,GND*%
X121500000Y-76595000D03*
%TO.P,SoM1,138,GND*%
X121500000Y-73885000D03*
%TO.P,SoM1,139,MIPI0_D3_N*%
%TO.N,unconnected-(SoM1B-MIPI0_D3_N-Pad139)*%
X121900000Y-76595000D03*
%TO.P,SoM1,140,USB3-0-TX_N*%
%TO.N,unconnected-(SoM1B-USB3-0-TX_N-Pad140)*%
X121900000Y-73885000D03*
%TO.P,SoM1,141,MIPI0_D3_P*%
%TO.N,unconnected-(SoM1B-MIPI0_D3_P-Pad141)*%
X122300000Y-76595000D03*
%TO.P,SoM1,142,USB3-0-TX_P*%
%TO.N,unconnected-(SoM1B-USB3-0-TX_P-Pad142)*%
X122300000Y-73885000D03*
%TO.P,SoM1,143,HDMI1_HOTPLUG*%
%TO.N,unconnected-(SoM1B-HDMI1_HOTPLUG-Pad143)*%
X122700000Y-76595000D03*
%TO.P,SoM1,144,GND*%
%TO.N,GND*%
X122700000Y-73885000D03*
%TO.P,SoM1,145,HDMI1_SDA*%
%TO.N,unconnected-(SoM1B-HDMI1_SDA-Pad145)*%
X123100000Y-76595000D03*
%TO.P,SoM1,146,HDMI1_TX2_P*%
%TO.N,TFT_DVID_TX2_P*%
X123100000Y-73885000D03*
%TO.P,SoM1,147,HDMI1_SCL*%
%TO.N,unconnected-(SoM1B-HDMI1_SCL-Pad147)*%
X123500000Y-76595000D03*
%TO.P,SoM1,148,HDMI1_TX2_N*%
%TO.N,TFT_DVID_TX2_N*%
X123500000Y-73885000D03*
%TO.P,SoM1,149,HDMI1_CEC*%
%TO.N,unconnected-(SoM1B-HDMI1_CEC-Pad149)*%
X123900000Y-76595000D03*
%TO.P,SoM1,150,GND*%
%TO.N,GND*%
X123900000Y-73885000D03*
%TO.P,SoM1,151,HDMI0_CEC*%
%TO.N,REAR_DVID_CEC*%
X124300000Y-76595000D03*
%TO.P,SoM1,152,HDMI1_TX1_P*%
%TO.N,TFT_DVID_TX1_P*%
X124300000Y-73885000D03*
%TO.P,SoM1,153,HDMI0_HOTPLUG*%
%TO.N,REAR_DVID_HPD*%
X124700000Y-76595000D03*
%TO.P,SoM1,154,HDMI1_TX1_N*%
%TO.N,TFT_DVID_TX1_N*%
X124700000Y-73885000D03*
%TO.P,SoM1,155,GND*%
%TO.N,GND*%
X125100000Y-76595000D03*
%TO.P,SoM1,156,GND*%
X125100000Y-73885000D03*
%TO.P,SoM1,157,USB3-1-RX_N*%
%TO.N,unconnected-(SoM1B-USB3-1-RX_N-Pad157)*%
X125500000Y-76595000D03*
%TO.P,SoM1,158,HDMI1_TX0_P*%
%TO.N,TFT_DVID_TX0_P*%
X125500000Y-73885000D03*
%TO.P,SoM1,159,USB3-1-RX_P*%
%TO.N,unconnected-(SoM1B-USB3-1-RX_P-Pad159)*%
X125900000Y-76595000D03*
%TO.P,SoM1,160,HDMI1_TX0_N*%
%TO.N,TFT_DVID_TX0_N*%
X125900000Y-73885000D03*
%TO.P,SoM1,161,GND*%
%TO.N,GND*%
X126300000Y-76595000D03*
%TO.P,SoM1,162,GND*%
X126300000Y-73885000D03*
%TO.P,SoM1,163,USB3-1-DP*%
%TO.N,unconnected-(SoM1B-USB3-1-DP-Pad163)*%
X126700000Y-76595000D03*
%TO.P,SoM1,164,HDMI1_CLK_P*%
%TO.N,TFT_DVID_CLK_P*%
X126700000Y-73885000D03*
%TO.P,SoM1,165,USB3-1-DM*%
%TO.N,unconnected-(SoM1B-USB3-1-DM-Pad165)*%
X127100000Y-76595000D03*
%TO.P,SoM1,166,HDMI1_CLK_N*%
%TO.N,TFT_DVID_CLK_N*%
X127100000Y-73885000D03*
%TO.P,SoM1,167,GND*%
%TO.N,GND*%
X127500000Y-76595000D03*
%TO.P,SoM1,168,GND*%
X127500000Y-73885000D03*
%TO.P,SoM1,169,USB3-1-TX_N*%
%TO.N,MCU_USB_UP_TX-*%
X127900000Y-76595000D03*
%TO.P,SoM1,170,HDMI0_TX2_P*%
%TO.N,REAR_DVID_TX2_P*%
X127900000Y-73885000D03*
%TO.P,SoM1,171,USB3-1-TX_P*%
%TO.N,MCU_USB_UP_TX+*%
X128300000Y-76595000D03*
%TO.P,SoM1,172,HDMI0_TX2_N*%
%TO.N,REAR_DVID_TX2_N*%
X128300000Y-73885000D03*
%TO.P,SoM1,173,GND*%
%TO.N,GND*%
X128700000Y-76595000D03*
%TO.P,SoM1,174,GND*%
X128700000Y-73885000D03*
%TO.P,SoM1,175,MIPI1_D0_N*%
%TO.N,unconnected-(SoM1B-MIPI1_D0_N-Pad175)*%
X129100000Y-76595000D03*
%TO.P,SoM1,176,HDMI0_TX1_P*%
%TO.N,REAR_DVID_TX1_P*%
X129100000Y-73885000D03*
%TO.P,SoM1,177,MIPI1_D0_P*%
%TO.N,unconnected-(SoM1B-MIPI1_D0_P-Pad177)*%
X129500000Y-76595000D03*
%TO.P,SoM1,178,HDMI0_TX1_N*%
%TO.N,REAR_DVID_TX1_N*%
X129500000Y-73885000D03*
%TO.P,SoM1,179,GND*%
%TO.N,GND*%
X129900000Y-76595000D03*
%TO.P,SoM1,180,GND*%
X129900000Y-73885000D03*
%TO.P,SoM1,181,MIPI1_D1_N*%
%TO.N,unconnected-(SoM1B-MIPI1_D1_N-Pad181)*%
X130300000Y-76595000D03*
%TO.P,SoM1,182,HDMI0_TX0_P*%
%TO.N,REAR_DVID_TX0_P*%
X130300000Y-73885000D03*
%TO.P,SoM1,183,MIPI1_D1_P*%
%TO.N,unconnected-(SoM1B-MIPI1_D1_P-Pad183)*%
X130700000Y-76595000D03*
%TO.P,SoM1,184,HDMI0_TX0_N*%
%TO.N,REAR_DVID_TX0_N*%
X130700000Y-73885000D03*
%TO.P,SoM1,185,GND*%
%TO.N,GND*%
X131100000Y-76595000D03*
%TO.P,SoM1,186,GND*%
X131100000Y-73885000D03*
%TO.P,SoM1,187,MIPI1_C_N*%
%TO.N,unconnected-(SoM1B-MIPI1_C_N-Pad187)*%
X131500000Y-76595000D03*
%TO.P,SoM1,188,HDMI0_CLK_P*%
%TO.N,REAR_DVID_CLK_P*%
X131500000Y-73885000D03*
%TO.P,SoM1,189,MIPI1_C_P*%
%TO.N,unconnected-(SoM1B-MIPI1_C_P-Pad189)*%
X131900000Y-76595000D03*
%TO.P,SoM1,190,HDMI0_CLK_N*%
%TO.N,REAR_DVID_CLK_N*%
X131900000Y-73885000D03*
%TO.P,SoM1,191,GND*%
%TO.N,GND*%
X132300000Y-76595000D03*
%TO.P,SoM1,192,GND*%
X132300000Y-73885000D03*
%TO.P,SoM1,193,MIPI1_D2_N*%
%TO.N,unconnected-(SoM1B-MIPI1_D2_N-Pad193)*%
X132700000Y-76595000D03*
%TO.P,SoM1,194,MIPI1_D3_N*%
%TO.N,unconnected-(SoM1B-MIPI1_D3_N-Pad194)*%
X132700000Y-73885000D03*
%TO.P,SoM1,195,MIPI1_D2_P*%
%TO.N,unconnected-(SoM1B-MIPI1_D2_P-Pad195)*%
X133100000Y-76595000D03*
%TO.P,SoM1,196,MIPI1_D3_P*%
%TO.N,unconnected-(SoM1B-MIPI1_D3_P-Pad196)*%
X133100000Y-73885000D03*
%TO.P,SoM1,197,GND*%
%TO.N,GND*%
X133500000Y-76595000D03*
%TO.P,SoM1,198,GND*%
X133500000Y-73885000D03*
%TO.P,SoM1,199,HDMI0_SDA*%
%TO.N,REAR_DVID_SDA*%
X133900000Y-76595000D03*
%TO.P,SoM1,200,HDMI0_SCL*%
%TO.N,REAR_DVID_SCL*%
X133900000Y-73885000D03*
D12*
%TO.P,SoM1,SH,SH*%
%TO.N,GND*%
X113825000Y-110515000D03*
X134375000Y-110515000D03*
X113825000Y-107805000D03*
X134375000Y-107805000D03*
X113825000Y-76595000D03*
X134375000Y-76595000D03*
X113825000Y-73885000D03*
X134375000Y-73885000D03*
%TD*%
D13*
%TO.P,C25,1,1*%
%TO.N,+3V3*%
X120620002Y-92783012D03*
%TO.P,C25,2,2*%
%TO.N,GND*%
X120620002Y-93743012D03*
%TD*%
D14*
%TO.P,Y2,1,1*%
%TO.N,Net-(IC6-XTAL2)*%
X104675700Y-108900000D03*
%TO.P,Y2,2,NC*%
%TO.N,unconnected-(Y2-NC-Pad2)*%
X106875700Y-108900000D03*
%TO.P,Y2,3,3*%
%TO.N,Net-(IC6-XTAL1{slash}CLKIN)*%
X106875700Y-110500000D03*
%TO.P,Y2,4,NC*%
%TO.N,unconnected-(Y2-NC-Pad4)*%
X104675700Y-110500000D03*
%TD*%
D15*
%TO.P,JP1,1,1*%
%TO.N,Net-(SoM1B-VBUS_EN_(3.3v))*%
X116991000Y-77860000D03*
%TO.P,JP1,2,2*%
%TO.N,GND*%
X118541000Y-77860000D03*
%TD*%
D16*
%TO.P,C49,1,1*%
%TO.N,Net-(IC5-VDDI)*%
X100358614Y-85020000D03*
%TO.P,C49,2,2*%
%TO.N,GND*%
X100358614Y-84060000D03*
%TD*%
D13*
%TO.P,C44,1,1*%
%TO.N,+3V3*%
X96700000Y-86600000D03*
%TO.P,C44,2,2*%
%TO.N,GND*%
X96700000Y-87560000D03*
%TD*%
D17*
%TO.P,C23,1,1*%
%TO.N,/STM32H7 MCU/VLXSMPS*%
X118300000Y-100513012D03*
%TO.P,C23,2,2*%
%TO.N,GND*%
X117340000Y-100513012D03*
%TD*%
D15*
%TO.P,C69,1,1*%
%TO.N,GND*%
X132315000Y-90160000D03*
%TO.P,C69,2,2*%
%TO.N,/DVID converter\u002C NOR Flash/TVDD*%
X133865000Y-90160000D03*
%TD*%
D18*
%TO.P,C74,1,1*%
%TO.N,+1V8*%
X118085227Y-80030000D03*
%TO.P,C74,2,2*%
%TO.N,GND*%
X119045227Y-80030000D03*
%TD*%
D13*
%TO.P,C47,1,1*%
%TO.N,+3V3*%
X97620000Y-86600000D03*
%TO.P,C47,2,2*%
%TO.N,GND*%
X97620000Y-87560000D03*
%TD*%
D18*
%TO.P,C13,1,1*%
%TO.N,+3V3*%
X121510002Y-93343012D03*
%TO.P,C13,2,2*%
%TO.N,GND*%
X122470002Y-93343012D03*
%TD*%
D17*
%TO.P,C43,1,1*%
%TO.N,GND*%
X107735700Y-107310000D03*
%TO.P,C43,2,2*%
%TO.N,Net-(IC6-XTAL1{slash}CLKIN)*%
X106775700Y-107310000D03*
%TD*%
D19*
%TO.P,C11,1,1*%
%TO.N,GND*%
X119810000Y-102860000D03*
%TO.P,C11,2,2*%
%TO.N,/STM32H7 MCU/VDDSMPS*%
X119810000Y-101310000D03*
%TD*%
D20*
%TO.P,C14,1,1*%
%TO.N,GND*%
X119920000Y-99250000D03*
%TO.P,C14,2,2*%
%TO.N,/STM32H7 MCU/VDD_SDC*%
X118370000Y-99250000D03*
%TD*%
D18*
%TO.P,C36,1,1*%
%TO.N,+1V8*%
X123600000Y-94260000D03*
%TO.P,C36,2,2*%
%TO.N,GND*%
X124560000Y-94260000D03*
%TD*%
D21*
%TO.P,NT1,1,1*%
%TO.N,GND*%
X117080000Y-98120000D03*
%TO.P,NT1,2,2*%
%TO.N,Net-(IC3C-VSSA)*%
X117480000Y-98120000D03*
%TD*%
D22*
%TO.P,C60,1,1*%
%TO.N,+1V8*%
X129980000Y-100365000D03*
%TO.P,C60,2,2*%
%TO.N,GND*%
X129980000Y-101915000D03*
%TD*%
D23*
%TO.P,R13,1,1*%
%TO.N,~{XSPI_M_P1_CS}*%
X135460000Y-99020000D03*
%TO.P,R13,2,2*%
%TO.N,+1V8*%
X134440000Y-99020000D03*
%TD*%
D13*
%TO.P,C59,1,1*%
%TO.N,+1V8*%
X131170000Y-100090000D03*
%TO.P,C59,2,2*%
%TO.N,GND*%
X131170000Y-101050000D03*
%TD*%
D18*
%TO.P,C42,1,1*%
%TO.N,GND*%
X103815700Y-107310000D03*
%TO.P,C42,2,2*%
%TO.N,Net-(IC6-XTAL2)*%
X104775700Y-107310000D03*
%TD*%
D19*
%TO.P,C8,1,1*%
%TO.N,+3V3*%
X111950000Y-93575000D03*
%TO.P,C8,2,2*%
%TO.N,GND*%
X111950000Y-92025000D03*
%TD*%
D16*
%TO.P,C35,1,1*%
%TO.N,+1V8*%
X121540002Y-92453012D03*
%TO.P,C35,2,2*%
%TO.N,GND*%
X121540002Y-91493012D03*
%TD*%
%TO.P,C34,1,1*%
%TO.N,+1V8*%
X119120002Y-90833012D03*
%TO.P,C34,2,2*%
%TO.N,GND*%
X119120002Y-89873012D03*
%TD*%
D13*
%TO.P,C15,1,1*%
%TO.N,/STM32H7 MCU/VDD_SDC*%
X121630000Y-95330000D03*
%TO.P,C15,2,2*%
%TO.N,GND*%
X121630000Y-96290000D03*
%TD*%
D16*
%TO.P,C17,1,1*%
%TO.N,+3V3*%
X120710000Y-96290000D03*
%TO.P,C17,2,2*%
%TO.N,GND*%
X120710000Y-95330000D03*
%TD*%
D13*
%TO.P,C29,1,1*%
%TO.N,+3V3*%
X120780000Y-97160000D03*
%TO.P,C29,2,2*%
%TO.N,Net-(IC3C-VREFM)*%
X120780000Y-98120000D03*
%TD*%
D16*
%TO.P,C24,1,1*%
%TO.N,+3V3*%
X119550000Y-96300000D03*
%TO.P,C24,2,2*%
%TO.N,GND*%
X119550000Y-95340000D03*
%TD*%
%TO.P,C46,1,1*%
%TO.N,Net-(IC5-VDDI)*%
X101280000Y-85020000D03*
%TO.P,C46,2,2*%
%TO.N,GND*%
X101280000Y-84060000D03*
%TD*%
%TO.P,C57,1,1*%
%TO.N,+1V8*%
X132850000Y-96315000D03*
%TO.P,C57,2,2*%
%TO.N,GND*%
X132850000Y-95355000D03*
%TD*%
D19*
%TO.P,C58,1,1*%
%TO.N,+1V8*%
X131660000Y-96050000D03*
%TO.P,C58,2,2*%
%TO.N,GND*%
X131660000Y-94500000D03*
%TD*%
D16*
%TO.P,C37,1,1*%
%TO.N,+1V8*%
X120620002Y-90843012D03*
%TO.P,C37,2,2*%
%TO.N,GND*%
X120620002Y-89883012D03*
%TD*%
D23*
%TO.P,R17,1,1*%
%TO.N,ETH_TXRX_B-*%
X101890000Y-105490000D03*
%TO.P,R17,2,2*%
%TO.N,/Ethernet PHY\u002C PSRAM\u002C eMMC/+3V3_LAN*%
X100870000Y-105490000D03*
%TD*%
D17*
%TO.P,C9,1,1*%
%TO.N,+3V3*%
X117740000Y-95630000D03*
%TO.P,C9,2,2*%
%TO.N,GND*%
X116780000Y-95630000D03*
%TD*%
D15*
%TO.P,C75,1,1*%
%TO.N,+1V8*%
X118355227Y-81230000D03*
%TO.P,C75,2,2*%
%TO.N,GND*%
X119905227Y-81230000D03*
%TD*%
D13*
%TO.P,C28,1,1*%
%TO.N,+3V3*%
X118760002Y-97163012D03*
%TO.P,C28,2,2*%
%TO.N,Net-(IC3C-VSSA)*%
X118760002Y-98123012D03*
%TD*%
D22*
%TO.P,C73,1,1*%
%TO.N,+1V8*%
X115525227Y-79395000D03*
%TO.P,C73,2,2*%
%TO.N,GND*%
X115525227Y-80945000D03*
%TD*%
D24*
%TO.P,FB5,1*%
%TO.N,/DVID converter\u002C NOR Flash/TVDD*%
X134020000Y-91800000D03*
%TO.P,FB5,2*%
%TO.N,+3V3*%
X132320000Y-91800000D03*
%TD*%
D13*
%TO.P,C39,1,1*%
%TO.N,+1V8*%
X119700002Y-92783012D03*
%TO.P,C39,2,2*%
%TO.N,GND*%
X119700002Y-93743012D03*
%TD*%
D25*
%TO.P,L1,1,1*%
%TO.N,/STM32H7 MCU/VDD_SDC*%
X116347202Y-101983012D03*
%TO.P,L1,2,2*%
%TO.N,/STM32H7 MCU/VLXSMPS*%
X118430002Y-101983012D03*
%TD*%
D17*
%TO.P,C18,1,1*%
%TO.N,/STM32H7 MCU/VDD_SDC*%
X120650002Y-91893012D03*
%TO.P,C18,2,2*%
%TO.N,GND*%
X119690002Y-91893012D03*
%TD*%
D16*
%TO.P,C22,1,1*%
%TO.N,+3V3*%
X115500000Y-93750000D03*
%TO.P,C22,2,2*%
%TO.N,GND*%
X115500000Y-92790000D03*
%TD*%
%TO.P,C16,1,1*%
%TO.N,+3V3*%
X116870000Y-93740000D03*
%TO.P,C16,2,2*%
%TO.N,GND*%
X116870000Y-92780000D03*
%TD*%
%TO.P,C27,1,1*%
%TO.N,GND*%
X115730000Y-96303012D03*
%TO.P,C27,2,2*%
%TO.N,/STM32H7 MCU/VDD_SDC*%
X115730000Y-95343012D03*
%TD*%
D26*
%TO.P,Y1,1,1*%
%TO.N,/STM32H7 MCU/RCC_OSC_IN*%
X125450000Y-101270000D03*
%TO.P,Y1,2,NC*%
%TO.N,unconnected-(Y1-NC-Pad2)*%
X125450000Y-99070000D03*
%TO.P,Y1,3,3*%
%TO.N,/STM32H7 MCU/RCC_OSC_OUT*%
X127050000Y-99070000D03*
%TO.P,Y1,4,NC*%
%TO.N,unconnected-(Y1-NC-Pad4)*%
X127050000Y-101270000D03*
%TD*%
D16*
%TO.P,C4,1,1*%
%TO.N,GND*%
X123660000Y-102180000D03*
%TO.P,C4,2,2*%
%TO.N,/STM32H7 MCU/RCC_OSC_IN*%
X123660000Y-101220000D03*
%TD*%
D13*
%TO.P,C72,1,1*%
%TO.N,+1V8*%
X114331660Y-80260000D03*
%TO.P,C72,2,2*%
%TO.N,GND*%
X114331660Y-81220000D03*
%TD*%
D18*
%TO.P,C20,1,1*%
%TO.N,+3V3*%
X121510002Y-94263012D03*
%TO.P,C20,2,2*%
%TO.N,GND*%
X122470002Y-94263012D03*
%TD*%
%TO.P,C33,1,1*%
%TO.N,+1V8*%
X123600000Y-95290000D03*
%TO.P,C33,2,2*%
%TO.N,GND*%
X124560000Y-95290000D03*
%TD*%
D13*
%TO.P,C21,1,1*%
%TO.N,/STM32H7 MCU/VDD_SDC*%
X117790000Y-92780000D03*
%TO.P,C21,2,2*%
%TO.N,GND*%
X117790000Y-93740000D03*
%TD*%
D16*
%TO.P,C45,1,1*%
%TO.N,+1V8*%
X104010000Y-88951302D03*
%TO.P,C45,2,2*%
%TO.N,GND*%
X104010000Y-87991302D03*
%TD*%
D13*
%TO.P,C76,1,1*%
%TO.N,+1V8*%
X115565227Y-83610000D03*
%TO.P,C76,2,2*%
%TO.N,GND*%
X115565227Y-84570000D03*
%TD*%
D27*
%TO.P,R16,1,1*%
%TO.N,/Ethernet PHY\u002C PSRAM\u002C eMMC/+3V3_LAN*%
X100870000Y-106430000D03*
%TO.P,R16,2,2*%
%TO.N,ETH_TXRX_B+*%
X101890000Y-106430000D03*
%TD*%
%TO.P,R15,1,1*%
%TO.N,/Ethernet PHY\u002C PSRAM\u002C eMMC/+3V3_LAN*%
X100870000Y-103610000D03*
%TO.P,R15,2,2*%
%TO.N,ETH_TXRX_A-*%
X101890000Y-103610000D03*
%TD*%
%TO.P,R14,1,1*%
%TO.N,/Ethernet PHY\u002C PSRAM\u002C eMMC/+3V3_LAN*%
X100870000Y-104550000D03*
%TO.P,R14,2,2*%
%TO.N,ETH_TXRX_A+*%
X101890000Y-104550000D03*
%TD*%
D16*
%TO.P,C48,1,1*%
%TO.N,+1V8*%
X103090000Y-88951302D03*
%TO.P,C48,2,2*%
%TO.N,GND*%
X103090000Y-87991302D03*
%TD*%
D13*
%TO.P,C26,1,1*%
%TO.N,/STM32H7 MCU/VDD_SDC*%
X116800000Y-97150000D03*
%TO.P,C26,2,2*%
%TO.N,GND*%
X116800000Y-98110000D03*
%TD*%
D28*
%TO.P,FB1,1*%
%TO.N,/STM32H7 MCU/VDDSMPS*%
X121700000Y-101160000D03*
%TO.P,FB1,2*%
%TO.N,+3V3*%
X121700000Y-102860000D03*
%TD*%
D17*
%TO.P,C12,1,1*%
%TO.N,+3V3*%
X117730000Y-94710000D03*
%TO.P,C12,2,2*%
%TO.N,GND*%
X116770000Y-94710000D03*
%TD*%
D19*
%TO.P,C41,1,1*%
%TO.N,+1V8*%
X120800000Y-88175000D03*
%TO.P,C41,2,2*%
%TO.N,GND*%
X120800000Y-86625000D03*
%TD*%
%TO.P,C40,1,1*%
%TO.N,+1V8*%
X122700000Y-88175000D03*
%TO.P,C40,2,2*%
%TO.N,GND*%
X122700000Y-86625000D03*
%TD*%
D13*
%TO.P,C32,1,1*%
%TO.N,+3V3*%
X121650000Y-97160000D03*
%TO.P,C32,2,2*%
%TO.N,Net-(IC3C-VREFM)*%
X121650000Y-98120000D03*
%TD*%
D17*
%TO.P,C66,1,1*%
%TO.N,/DVID converter\u002C NOR Flash/DVDD*%
X136600000Y-93830000D03*
%TO.P,C66,2,2*%
%TO.N,GND*%
X135640000Y-93830000D03*
%TD*%
D18*
%TO.P,C56,1,1*%
%TO.N,GND*%
X100880000Y-102670000D03*
%TO.P,C56,2,2*%
%TO.N,/Ethernet PHY\u002C PSRAM\u002C eMMC/+3V3_LAN*%
X101840000Y-102670000D03*
%TD*%
D13*
%TO.P,C5,1,1*%
%TO.N,GND*%
X123740000Y-98270000D03*
%TO.P,C5,2,2*%
%TO.N,/STM32H7 MCU/RCC_OSC_OUT*%
X123740000Y-99230000D03*
%TD*%
D16*
%TO.P,C19,1,1*%
%TO.N,+3V3*%
X118630000Y-96300000D03*
%TO.P,C19,2,2*%
%TO.N,GND*%
X118630000Y-95340000D03*
%TD*%
D13*
%TO.P,C30,1,1*%
%TO.N,+VAUX*%
X114050000Y-101730000D03*
%TO.P,C30,2,2*%
%TO.N,GND*%
X114050000Y-102690000D03*
%TD*%
D18*
%TO.P,C38,1,1*%
%TO.N,+1V8*%
X123330000Y-93150000D03*
%TO.P,C38,2,2*%
%TO.N,GND*%
X124290000Y-93150000D03*
%TD*%
D13*
%TO.P,C10,1,1*%
%TO.N,+3V3*%
X118780002Y-92783012D03*
%TO.P,C10,2,2*%
%TO.N,GND*%
X118780002Y-93743012D03*
%TD*%
D21*
%TO.P,NT2,1,1*%
%TO.N,GND*%
X121160000Y-97700000D03*
%TO.P,NT2,2,2*%
%TO.N,Net-(IC3C-VREFM)*%
X121160000Y-98099998D03*
%TD*%
D13*
%TO.P,C31,1,1*%
%TO.N,+3V3*%
X117830000Y-97170000D03*
%TO.P,C31,2,2*%
%TO.N,Net-(IC3C-VSSA)*%
X117830000Y-98130000D03*
%TD*%
D22*
%TO.P,C77,1,1*%
%TO.N,+1V8*%
X116755227Y-83885000D03*
%TO.P,C77,2,2*%
%TO.N,GND*%
X116755227Y-85435000D03*
%TD*%
D29*
%TO.N,/STM32H7 MCU/RCC_OSC_IN*%
X121028482Y-100368812D03*
%TO.N,/STM32H7 MCU/RCC_OSC_OUT*%
X121231515Y-99888347D03*
%TO.N,GND*%
X139517500Y-89665000D03*
D30*
X131994414Y-83948668D03*
D29*
X122140000Y-108440000D03*
X100820000Y-87530000D03*
X127100000Y-110010000D03*
D31*
X130560000Y-81380000D03*
X125056250Y-82180000D03*
D29*
X115500000Y-108400000D03*
D31*
X129773750Y-81380000D03*
D29*
X118700000Y-111242200D03*
X124700000Y-111242200D03*
D31*
X125056250Y-81390000D03*
X144467076Y-102370000D03*
D29*
X119481203Y-80032132D03*
X134173817Y-97029568D03*
X120035143Y-93346233D03*
X124720001Y-96330000D03*
X110372200Y-95830000D03*
X121630000Y-96290000D03*
X140303750Y-89665000D03*
D31*
X138367346Y-94602418D03*
D29*
X127500000Y-74380000D03*
D31*
X126628750Y-81390000D03*
X125842500Y-82180000D03*
D29*
X125900000Y-108360000D03*
X132997223Y-87952670D03*
D31*
X145140000Y-93830000D03*
D29*
X125900000Y-110030000D03*
X124420000Y-108420000D03*
X128300000Y-109990000D03*
X99370000Y-91870000D03*
X117720000Y-96320000D03*
X104090000Y-76070000D03*
D30*
X139175267Y-108118400D03*
D31*
X145210000Y-101700000D03*
X134360000Y-111070000D03*
D29*
X122554237Y-88936600D03*
X123900000Y-74380000D03*
X103550000Y-87870000D03*
X129836000Y-101414043D03*
X142642500Y-87384700D03*
X134727940Y-76595847D03*
D30*
X113810000Y-74400000D03*
D29*
X139517500Y-87384700D03*
X142642500Y-86634500D03*
X125100000Y-74380000D03*
X96240000Y-87530000D03*
X139517500Y-88134900D03*
D31*
X144467076Y-99020000D03*
D29*
X113610000Y-100110000D03*
D31*
X144467076Y-101030000D03*
D29*
X117644745Y-78917800D03*
D31*
X115500000Y-74450000D03*
X119100000Y-74450000D03*
X140046186Y-101394279D03*
X141207076Y-101800000D03*
D29*
X139517500Y-86634500D03*
D31*
X145210000Y-99020000D03*
D29*
X101970000Y-99470000D03*
X141090000Y-88134900D03*
D31*
X142990000Y-78180000D03*
D29*
X117250000Y-85970000D03*
X120795100Y-93893015D03*
X115795227Y-80370000D03*
D31*
X119100000Y-76040000D03*
X103330000Y-107300000D03*
X134400000Y-107200000D03*
X144467076Y-101700000D03*
X138305267Y-108118400D03*
D29*
X98650000Y-102060000D03*
D31*
X138305267Y-109668400D03*
D29*
X129899999Y-74380000D03*
D30*
X139175267Y-108893400D03*
D29*
X104715642Y-104392368D03*
X105700000Y-87530000D03*
X131100000Y-76060000D03*
X114420000Y-108400000D03*
D31*
X132850000Y-90410000D03*
D29*
X115565227Y-82680000D03*
D31*
X117900000Y-76040000D03*
X127415000Y-81390000D03*
X127415000Y-82180000D03*
X138060000Y-78600000D03*
D29*
X129900000Y-76060000D03*
X116385100Y-92690200D03*
D31*
X120300000Y-74450000D03*
D29*
X119110000Y-99720000D03*
X141861250Y-86634500D03*
X122700000Y-111242200D03*
X98010000Y-94540000D03*
D31*
X144467076Y-100360000D03*
D29*
X133490000Y-74380000D03*
D31*
X115500000Y-76040000D03*
D29*
X120480000Y-81100000D03*
X125060000Y-91070000D03*
D31*
X108220000Y-107290000D03*
X133397654Y-108435435D03*
X116700000Y-74450000D03*
D29*
X119919000Y-100392629D03*
D31*
X138305267Y-108893400D03*
D29*
X140298750Y-87384700D03*
X117514195Y-89403646D03*
X113480000Y-88920000D03*
X141876250Y-88917500D03*
X114027173Y-94286560D03*
X101211632Y-102405245D03*
X121891935Y-91811103D03*
X105931091Y-105850906D03*
X141090000Y-88917500D03*
X119120003Y-94900000D03*
D30*
X139175267Y-109668400D03*
D31*
X139240000Y-79680000D03*
D29*
X112440000Y-92500000D03*
X124568405Y-100304900D03*
X113630000Y-102840000D03*
X120700000Y-111242200D03*
D31*
X121500000Y-76040000D03*
D29*
X115500000Y-109980000D03*
X122700000Y-74380000D03*
D31*
X126628750Y-82180000D03*
D29*
X132120000Y-101150000D03*
D31*
X145210000Y-99690000D03*
X128987500Y-81380000D03*
D30*
X119575543Y-103418217D03*
D29*
X118620000Y-91670000D03*
D31*
X141207076Y-100260000D03*
D29*
X125000000Y-89040000D03*
D31*
X124270000Y-81390000D03*
D29*
X128700000Y-108360000D03*
X133310236Y-95589764D03*
D31*
X129773750Y-82170000D03*
D29*
X120860000Y-83050000D03*
X127110000Y-108360000D03*
X104020000Y-91540000D03*
X101370000Y-89150000D03*
X139517500Y-88917500D03*
X123593900Y-102630000D03*
D31*
X128201250Y-82180000D03*
X134570000Y-88960000D03*
D29*
X135210000Y-93855100D03*
X119120002Y-95380000D03*
D31*
X133090000Y-82220000D03*
X147500000Y-88410000D03*
D29*
X114540000Y-109670000D03*
D30*
X103330000Y-108830000D03*
D31*
X120300000Y-76040000D03*
D29*
X104715642Y-105859588D03*
X98830000Y-87530000D03*
D31*
X117900000Y-74450000D03*
D29*
X116807876Y-99011481D03*
X142662500Y-88917500D03*
X115995227Y-84770000D03*
X141861250Y-87384700D03*
X141080000Y-86634500D03*
X127500000Y-77080000D03*
X100830000Y-84060000D03*
X141876250Y-89665000D03*
D31*
X145210000Y-103040000D03*
D29*
X124950000Y-93950000D03*
X136080000Y-91854900D03*
X128700000Y-76080000D03*
D31*
X145210000Y-100360000D03*
X128987500Y-82170000D03*
D29*
X105810000Y-110710000D03*
D31*
X142090000Y-83220000D03*
D29*
X121025683Y-86086469D03*
X115960000Y-96020000D03*
X105370000Y-88885100D03*
X119950000Y-89330000D03*
D31*
X140480000Y-107359999D03*
X125842500Y-81390000D03*
X138785001Y-107369999D03*
D29*
X114055227Y-80920000D03*
X120420000Y-108420000D03*
X105939773Y-104401049D03*
D31*
X138785001Y-106840000D03*
X121500000Y-73250000D03*
X145210000Y-102370000D03*
D29*
X132290000Y-74380000D03*
X97150000Y-87530000D03*
X120790000Y-102374900D03*
X122960000Y-94700000D03*
X116966087Y-94866087D03*
X122480000Y-93790000D03*
X140298750Y-86634500D03*
X132290000Y-76060000D03*
D31*
X132990000Y-85380000D03*
D29*
X122330000Y-95520000D03*
X98020000Y-88530000D03*
X141090000Y-89665000D03*
D30*
X113470000Y-107800000D03*
D29*
X120860000Y-82140000D03*
X126314809Y-77080216D03*
D31*
X137060000Y-82490000D03*
D29*
X118013978Y-108452137D03*
X108250000Y-108350000D03*
D31*
X130560000Y-82170000D03*
D29*
X120650000Y-95690000D03*
X142662500Y-88134900D03*
X125190000Y-76000000D03*
D30*
X120135003Y-103418200D03*
D29*
X141080000Y-87384700D03*
X113890000Y-77170000D03*
X120135032Y-91337179D03*
X131090000Y-74380000D03*
D31*
X124270000Y-82180000D03*
X132100000Y-111120000D03*
D29*
X140303750Y-88917500D03*
X116700000Y-108340000D03*
D31*
X146010000Y-84420000D03*
D30*
X101178810Y-107149539D03*
D29*
X134716373Y-73883654D03*
D31*
X144850000Y-79930000D03*
D29*
X140303750Y-88134900D03*
X126300000Y-74380000D03*
X118785291Y-93741287D03*
X128700000Y-74380000D03*
D31*
X144467076Y-103040000D03*
D29*
X141876250Y-88134900D03*
X105370000Y-94860000D03*
X133500000Y-76060000D03*
X135410000Y-84130000D03*
D31*
X145210000Y-101030000D03*
D30*
X114790000Y-93480000D03*
D31*
X116700000Y-76040000D03*
X128201250Y-81390000D03*
D29*
X142662500Y-89665000D03*
X109359006Y-111265100D03*
D31*
X138785001Y-106309999D03*
D29*
X123598598Y-97523941D03*
X100370000Y-92853783D03*
D31*
X144467076Y-99690000D03*
D29*
X117074923Y-100739216D03*
X116448516Y-109875206D03*
D31*
X136160000Y-85920000D03*
D29*
X122690000Y-86000000D03*
%TO.N,ETH_MDIO*%
X122719891Y-98174839D03*
X108768200Y-98520000D03*
%TO.N,ETH_CRS_DV*%
X109798654Y-98237630D03*
X122680000Y-97440000D03*
%TO.N,ETH_TX_EN*%
X105027023Y-101957167D03*
X117094344Y-99903835D03*
%TO.N,ETH_TXD1*%
X116319802Y-99211311D03*
X104470000Y-99090000D03*
%TO.N,ETH_MDC*%
X106587522Y-99925724D03*
X117673902Y-102765865D03*
%TO.N,ETH_RXD0*%
X110064900Y-97742917D03*
X120201816Y-97492893D03*
%TO.N,ETH_RXD1*%
X123127828Y-98500138D03*
X111870000Y-99060000D03*
%TO.N,ETH_TXD0*%
X117126896Y-96583784D03*
X105060000Y-98140000D03*
D31*
%TO.N,+3V3*%
X143780000Y-79940000D03*
D29*
X115520000Y-93420000D03*
X122010000Y-103510000D03*
D31*
X133840000Y-78560000D03*
D29*
X108405166Y-104775639D03*
X107870000Y-101590000D03*
D31*
X130800000Y-107080000D03*
X141180409Y-104820000D03*
X140553743Y-104160000D03*
D29*
X97140000Y-86530000D03*
D31*
X141807076Y-104160000D03*
X135580000Y-79180000D03*
D29*
X98070000Y-99960000D03*
D31*
X141180409Y-104160000D03*
D29*
X121002312Y-93167319D03*
X118961414Y-93121003D03*
X117490000Y-94377086D03*
X119599402Y-96459698D03*
X121186988Y-94263012D03*
X96255049Y-86530000D03*
X107660000Y-75640000D03*
X117240191Y-93333700D03*
D31*
X141100000Y-79670000D03*
D29*
X121520000Y-103510000D03*
X110093082Y-96940396D03*
X120698974Y-97117793D03*
D31*
X139927076Y-104820000D03*
X141807076Y-104820000D03*
X111950000Y-108210000D03*
X132980000Y-91810000D03*
D29*
X120720004Y-96293014D03*
D31*
X140553743Y-104820000D03*
D29*
X109797082Y-103032369D03*
X121820000Y-82160000D03*
D30*
X139750000Y-107809999D03*
D29*
X119555473Y-96005473D03*
X111940000Y-94150000D03*
X118480200Y-96070039D03*
D31*
X130710000Y-108360000D03*
X142390000Y-80640000D03*
D29*
X121680000Y-93730000D03*
X103320000Y-101410000D03*
D31*
X139927076Y-104160000D03*
X140180000Y-79650000D03*
D29*
%TO.N,SDMMC_D1*%
X116567292Y-90057292D03*
X99630000Y-93030000D03*
%TO.N,/STM32H7 MCU/VDD_SDC*%
X119525319Y-94364700D03*
X121281302Y-95681167D03*
X116850000Y-101620000D03*
X120392029Y-92088289D03*
X115904900Y-95000459D03*
X116850000Y-102050000D03*
X118334900Y-99682478D03*
X116460280Y-96249282D03*
X118280000Y-94200000D03*
X116850000Y-102480000D03*
X117775316Y-92344900D03*
D30*
%TO.N,/STM32H7 MCU/VDDSMPS*%
X119120004Y-100293011D03*
D29*
X119281498Y-101368227D03*
X121250092Y-101170809D03*
%TO.N,~{RESET_OUT}*%
X105588800Y-102152467D03*
X101660000Y-92210000D03*
X112240000Y-83580000D03*
X120470000Y-106780000D03*
X106500000Y-75150000D03*
X121130056Y-99114635D03*
X138839999Y-83240000D03*
X116180000Y-106310000D03*
X122910000Y-83990000D03*
X132500000Y-107100000D03*
X119010000Y-103410000D03*
%TO.N,ETH_RX_ERR*%
X107484600Y-100540000D03*
X108000000Y-87750000D03*
X121740000Y-85920000D03*
X107982274Y-104428035D03*
%TO.N,DVID_SEL2*%
X131920000Y-85323700D03*
X124237690Y-98776026D03*
X130670000Y-96100000D03*
X128260000Y-99130000D03*
%TO.N,~{DIB1_CSA}*%
X119810000Y-108446602D03*
X115616783Y-103683473D03*
X115614445Y-97139016D03*
%TO.N,+VAUX*%
X128893990Y-106941846D03*
X117221877Y-106682348D03*
X114400500Y-101654283D03*
%TO.N,~{DIB3_CSA}*%
X116952075Y-104352243D03*
X112673853Y-95126033D03*
X123315844Y-105246317D03*
%TO.N,TFT_DVID_TX1_P*%
X124211500Y-74800000D03*
%TO.N,~{SYSMCU_CS}*%
X118537378Y-103184900D03*
%TO.N,~{TFT_IRQ}*%
X123990000Y-104140000D03*
X122301872Y-110054869D03*
%TO.N,MCU_USB_UP_TX-*%
X114232340Y-93753126D03*
%TO.N,SDA*%
X124500000Y-84890000D03*
X136920000Y-83840000D03*
X112960000Y-97120000D03*
X125090186Y-84338512D03*
X111460000Y-85890000D03*
%TO.N,SCL*%
X110997800Y-85470000D03*
X136330474Y-83379966D03*
X111261600Y-96865100D03*
X110914900Y-93941349D03*
X124443324Y-83989800D03*
X114604885Y-96690955D03*
X123947964Y-84879069D03*
%TO.N,TFT_DVID_TX2_P*%
X123010000Y-74800000D03*
%TO.N,~{DIB4_IRQ}*%
X122805023Y-105140816D03*
%TO.N,DIB_OE_SYNC*%
X123570000Y-108440000D03*
%TO.N,RS485_TX_EN{slash}DOUT2*%
X127531420Y-91167500D03*
X119900000Y-111242200D03*
X127776029Y-103636507D03*
%TO.N,TFT_DVID_TX2_N*%
X123580000Y-74800000D03*
%TO.N,TFT_DVID_CLK_P*%
X126611500Y-74800000D03*
%TO.N,~{DIB3_IRQ}*%
X118808385Y-108446602D03*
%TO.N,~{DIB5_CSA}*%
X117152839Y-103307160D03*
X123570000Y-109000000D03*
%TO.N,TFT_DVID_CLK_N*%
X127188500Y-74800000D03*
%TO.N,DIB1_USB_D+*%
X114180000Y-95310000D03*
%TO.N,TFT_DVID_TX0_P*%
X125411500Y-74800000D03*
%TO.N,XSPIM_P1_IO10*%
X122448859Y-91787577D03*
X135109086Y-97558717D03*
D30*
%TO.N,/STM32H7 MCU/VLXSMPS*%
X118390000Y-100770000D03*
D29*
%TO.N,~{DIB2_CSA}*%
X117109021Y-109439493D03*
X116419877Y-103170912D03*
X116601990Y-106670360D03*
X121731317Y-109871790D03*
%TO.N,SDMMC_D0*%
X115379863Y-88678301D03*
X99224100Y-90023467D03*
%TO.N,~{DIB4_CSA}*%
X119371139Y-96928389D03*
X125812569Y-97392097D03*
X126575300Y-105212960D03*
%TO.N,MCU_USB_UP_TX+*%
X113639407Y-93845587D03*
%TO.N,TFT_DVID_TX0_N*%
X125988500Y-74800000D03*
%TO.N,DIB1_USB_D-*%
X113630000Y-95310000D03*
%TO.N,XSPIM_P1_IO5*%
X126537965Y-94146500D03*
X131110000Y-98190000D03*
%TO.N,~{DIB5_IRQ}*%
X110485600Y-95074494D03*
X111820000Y-102130000D03*
X111290000Y-107983600D03*
%TO.N,~{DIB1_IRQ}*%
X124660000Y-103600000D03*
X119317241Y-106338808D03*
X124430000Y-106046600D03*
%TO.N,~{SYSMCU_IRQ}*%
X123022830Y-108446100D03*
%TO.N,~{DIB2_IRQ}*%
X119308352Y-108663634D03*
%TO.N,SDMMC_CLK*%
X106637550Y-91817550D03*
X115478477Y-91904983D03*
%TO.N,TFT_DVID_TX1_N*%
X124788500Y-74800000D03*
%TO.N,BOOT0*%
X113500000Y-100970000D03*
X111330000Y-96100000D03*
X132540000Y-109180000D03*
%TO.N,~{ETH_LINK_ACT}*%
X103360000Y-110250000D03*
X115957225Y-109701400D03*
X108245210Y-109804790D03*
%TO.N,ETH_TXRX_B-*%
X102720000Y-105006500D03*
%TO.N,ETH_TXRX_A-*%
X102720000Y-104150000D03*
X102180000Y-103470000D03*
%TO.N,~{ETH_LINK100}*%
X112880000Y-110890000D03*
X108190000Y-110860000D03*
%TO.N,ETH_TXRX_B+*%
X102720000Y-105553500D03*
%TO.N,ETH_TXRX_A+*%
X102330000Y-104590000D03*
%TO.N,XSPIM_P1_IO2*%
X123030549Y-93776171D03*
X131270000Y-98820000D03*
%TO.N,XSPIM_P1_IO0*%
X123968729Y-92504340D03*
X130241382Y-95794988D03*
X132350000Y-98370000D03*
%TO.N,XSPIM_P1_IO12*%
X135700000Y-101240000D03*
X123350000Y-96324213D03*
%TO.N,XSPI_M_P1_CLK*%
X134510000Y-97970000D03*
X125687715Y-92840700D03*
%TO.N,XSPIM_P1_IO9*%
X134850000Y-96420000D03*
X126956390Y-91167500D03*
%TO.N,XSPIM_P1_IO13*%
X126940236Y-95509764D03*
X134550000Y-100250000D03*
%TO.N,XSPIM_P1_IO14*%
X134566750Y-101276750D03*
X122920000Y-95400000D03*
%TO.N,XSPIM_P1_IO15*%
X134150000Y-100790000D03*
X124100000Y-94780000D03*
%TO.N,DVID_SEL1*%
X130800000Y-85590000D03*
X124218391Y-99905100D03*
X130952182Y-83978412D03*
X129048136Y-101390000D03*
%TO.N,XSPIM_P2_CLK*%
X114570000Y-82090000D03*
X119805147Y-90034900D03*
%TO.N,XSPIM_P1_IO4*%
X129740000Y-99190000D03*
X125456841Y-95150906D03*
%TO.N,XSPIM_P2_DQS0*%
X114906355Y-81565175D03*
X118305100Y-89628367D03*
%TO.N,XSPIM_P1_IO8*%
X133844787Y-95694047D03*
X124313434Y-91123500D03*
%TO.N,XSPIM_P1_IO11*%
X135769816Y-100419816D03*
X124168298Y-96225191D03*
%TO.N,XSPI_M_P1_DQS0*%
X133820000Y-98700000D03*
X123348876Y-92517921D03*
%TO.N,SDMMC_D6*%
X106150000Y-89120000D03*
X116670000Y-88800000D03*
%TO.N,SDMMC_D2*%
X100765236Y-90075236D03*
X114510000Y-89913700D03*
%TO.N,SDMMC_D3*%
X112140000Y-88120000D03*
X99100000Y-93500000D03*
%TO.N,SDMMC_CMD*%
X108030000Y-90560000D03*
X101700000Y-94270000D03*
%TO.N,SDMMC_D7*%
X105370000Y-90950000D03*
X117172017Y-90316948D03*
%TO.N,SDMMC_D5*%
X113950000Y-99070000D03*
X104540000Y-90895100D03*
%TO.N,SDMMC_D4*%
X114185421Y-100222900D03*
X104010000Y-93570000D03*
%TO.N,XSPIM_P1_IO7*%
X133490000Y-96300000D03*
X123770260Y-91364335D03*
%TO.N,XSPIM_P1_IO1*%
X123270000Y-91670000D03*
X132420167Y-96860995D03*
%TO.N,XSPI_M_P1_DQS1*%
X134890000Y-99540000D03*
X122161340Y-92286453D03*
%TO.N,XSPIM_P1_IO6*%
X125156447Y-92699280D03*
X131214239Y-95283592D03*
%TO.N,XSPIM_P1_IO3*%
X126610000Y-95080000D03*
X132539959Y-99979181D03*
%TO.N,~{LED_ACT}*%
X112480000Y-111265100D03*
%TO.N,~{XSPI_M_P1_CS}*%
X125650000Y-90900000D03*
X135780000Y-98800000D03*
%TO.N,REAR_DVID_TX1_N*%
X129588500Y-74800000D03*
%TO.N,REAR_DVID_CLK_P*%
X131411500Y-74820000D03*
%TO.N,REAR_DVID_TX0_N*%
X130788500Y-74830000D03*
%TO.N,REAR_DVID_TX1_P*%
X129011500Y-74800000D03*
%TO.N,REAR_DVID_CLK_N*%
X131988500Y-74820000D03*
%TO.N,REAR_DVID_TX2_N*%
X128388500Y-74800000D03*
%TO.N,REAR_DVID_TX0_P*%
X130211500Y-74830000D03*
%TO.N,REAR_DVID_TX2_P*%
X127811500Y-74800000D03*
%TO.N,REAR_DVID_SDA*%
X122920000Y-78750000D03*
X133390000Y-75420000D03*
%TO.N,REAR_DVID_CEC*%
X132376900Y-81484147D03*
X124140000Y-75970000D03*
%TO.N,REAR_DVID_SCL*%
X133910000Y-74740000D03*
%TO.N,+1V8*%
X114335227Y-79570000D03*
D30*
X136098658Y-104530000D03*
D29*
X121510000Y-88410000D03*
X99370000Y-94140000D03*
X119724329Y-92613012D03*
X117738276Y-79836171D03*
X103370000Y-91880000D03*
X104030000Y-94540000D03*
X98370000Y-91190000D03*
X121801056Y-92729679D03*
X116065227Y-83090000D03*
X123507006Y-94274747D03*
X122471949Y-94983012D03*
X120875873Y-91264965D03*
D30*
X136670000Y-105089835D03*
D29*
X114680000Y-85950000D03*
X103370000Y-92860000D03*
D30*
X131690000Y-108310000D03*
D29*
X104380000Y-88890000D03*
X114983160Y-79333480D03*
D30*
X131710000Y-107010000D03*
X137200000Y-105089835D03*
D29*
X131450000Y-100090000D03*
D30*
X136669329Y-104530000D03*
D29*
X118928842Y-91234901D03*
D30*
X137199329Y-104530000D03*
D29*
X133051735Y-96685872D03*
X105370000Y-91870000D03*
X99030000Y-88540000D03*
D30*
X136099329Y-105089835D03*
D29*
X123250000Y-88550000D03*
X116265227Y-84300000D03*
X122696657Y-92700800D03*
X100380000Y-91190000D03*
X118539682Y-81814927D03*
%TO.N,GPIO_VREF*%
X125127678Y-103868622D03*
%TO.N,DIB4_SCLK*%
X125760000Y-103440000D03*
X122050000Y-111210000D03*
%TO.N,DIB4_MISO*%
X120960000Y-108500000D03*
X114810795Y-94381613D03*
X116473096Y-104558759D03*
%TO.N,DIB4_MOSI*%
X116182648Y-104125506D03*
X115474900Y-94344326D03*
X119909047Y-104225100D03*
%TO.N,LTDC_G2*%
X136790000Y-96180000D03*
X122038918Y-99330367D03*
X145630000Y-91030000D03*
X128120000Y-99900000D03*
%TO.N,LTDC_B7*%
X146030000Y-89390000D03*
X124446600Y-101060149D03*
X136753190Y-102761516D03*
%TO.N,LTDC_G5*%
X128106817Y-89596344D03*
X122670993Y-91074469D03*
%TO.N,LTDC_VSYNC*%
X118690000Y-88270000D03*
X142858262Y-84324462D03*
X115441005Y-91063407D03*
%TO.N,LTDC_CLK*%
X145540000Y-88120000D03*
X123519767Y-100011360D03*
X136983526Y-102293526D03*
%TO.N,LTDC_R3*%
X140855236Y-94675236D03*
X136730000Y-100710000D03*
X122401002Y-98951772D03*
%TO.N,LTDC_B1*%
X143950000Y-87800000D03*
X113480000Y-91430000D03*
%TO.N,LTDC_B6*%
X117780000Y-91634900D03*
X144790000Y-88560000D03*
%TO.N,LTDC_R1*%
X120836375Y-100853749D03*
X130000000Y-103964900D03*
%TO.N,LTDC_B5*%
X116438241Y-89493171D03*
X145540000Y-87430000D03*
%TO.N,LTDC_R6*%
X139335872Y-93090593D03*
X117120003Y-92011031D03*
%TO.N,LTDC_G3*%
X122332042Y-100064831D03*
X145870000Y-92550000D03*
%TO.N,LTDC_B0*%
X122720249Y-96574645D03*
X137570000Y-85840000D03*
X126830000Y-97430000D03*
X137250207Y-95007129D03*
%TO.N,LTDC_DE*%
X124328038Y-101573990D03*
X144370000Y-83850000D03*
X136345618Y-103087022D03*
%TO.N,LTDC_R5*%
X139857256Y-93075481D03*
X118186953Y-92024550D03*
%TO.N,LTDC_R7*%
X138814379Y-93079885D03*
X114550000Y-92310000D03*
%TO.N,LTDC_B4*%
X144790000Y-87530000D03*
X116873098Y-90963500D03*
%TO.N,LTDC_G0*%
X127360000Y-97610000D03*
X124224022Y-97780160D03*
X137644900Y-95348136D03*
X145120000Y-89940000D03*
%TO.N,LTDC_B2*%
X137230000Y-95780000D03*
X146030000Y-85950000D03*
X124402155Y-98281030D03*
X128042002Y-98258773D03*
%TO.N,LTDC_G7*%
X125822871Y-89518239D03*
X122010000Y-90250000D03*
%TO.N,LTDC_G1*%
X117559113Y-99262285D03*
X129320000Y-104480000D03*
%TO.N,LTDC_B3*%
X144800000Y-86420001D03*
X114554036Y-88433564D03*
%TO.N,LTDC_R0*%
X130610000Y-104100000D03*
X120319840Y-100011139D03*
%TO.N,LTDC_HSYNC*%
X115360000Y-86480000D03*
X127390246Y-84664900D03*
X143330000Y-83810000D03*
X116270520Y-96735142D03*
%TO.N,LTDC_R4*%
X140392136Y-93071074D03*
X114836360Y-97896300D03*
%TO.N,LTDC_R2*%
X113846300Y-97528896D03*
X126190000Y-89970000D03*
%TO.N,~{LED_PWR}*%
X133110000Y-109280000D03*
X113610000Y-109860000D03*
X110160000Y-100340000D03*
X109420000Y-94150000D03*
%TO.N,DIB1{slash}DIB3_MISO*%
X119431696Y-104479100D03*
%TO.N,DIB2{slash}DIB5_SCLK*%
X121748577Y-105037600D03*
%TO.N,DIB1{slash}DIB3_MOSI*%
X126233397Y-104610200D03*
X121638118Y-98996558D03*
X122703431Y-101025726D03*
X125104217Y-109144217D03*
%TO.N,DIB2{slash}DIB5_MISO*%
X121920000Y-106046600D03*
X113557527Y-103426751D03*
X108768200Y-97970000D03*
X108830000Y-100251600D03*
%TO.N,DIB2{slash}DIB5_MOSI*%
X107738600Y-98570159D03*
X120299427Y-109435100D03*
X111834900Y-102932656D03*
%TO.N,DIB1{slash}DIB3_SCLK*%
X110500000Y-90674900D03*
X109010000Y-95930000D03*
X110771690Y-102412004D03*
X110610000Y-93330000D03*
X110860000Y-107550000D03*
X111073071Y-109634328D03*
X124420000Y-109860000D03*
X115084283Y-89948613D03*
%TO.N,/STM32H7 MCU/~{ACTIVE}*%
X126146270Y-103860000D03*
X125322081Y-108483889D03*
%TO.N,/Ethernet PHY\u002C PSRAM\u002C eMMC/+3V3_LAN*%
X101420000Y-101660000D03*
D30*
%TO.N,/CM5 socket/+5V_IN*%
X138797076Y-99070000D03*
X138230000Y-99070000D03*
X139997076Y-99070000D03*
X130250000Y-110080000D03*
X138230000Y-98470000D03*
X131350000Y-110080000D03*
X138797076Y-98470000D03*
X130800000Y-110080000D03*
X129680000Y-110090000D03*
X139997076Y-98470000D03*
D29*
%TO.N,Net-(IC6-XTAL2)*%
X105531049Y-107390418D03*
%TO.N,Net-(IC6-XTAL1{slash}CLKIN)*%
X106130480Y-107394193D03*
D30*
%TO.N,/DVID converter\u002C NOR Flash/DVDD*%
X139244703Y-81355299D03*
D31*
X137080000Y-93895100D03*
D30*
X138030000Y-81350000D03*
X145270000Y-81360000D03*
D29*
%TO.N,ETH_REF_CLK*%
X105950000Y-97040000D03*
X114003928Y-96220000D03*
%TO.N,UART_RX{slash}DIN1*%
X127139764Y-105080236D03*
%TO.N,RS485_RX{slash}DIN3*%
X107738600Y-94850504D03*
X110317801Y-103054981D03*
X133924803Y-108629113D03*
X110453600Y-109660000D03*
X114758433Y-91828723D03*
%TO.N,Net-(IC3C-VREFM)*%
X120484842Y-97931032D03*
%TO.N,Net-(IC3C-VSSA)*%
X118720003Y-98174996D03*
%TO.N,Net-(IC6-RXD1{slash}MODE1)*%
X109225100Y-106337103D03*
X109021482Y-102990000D03*
X111451339Y-101454953D03*
%TO.N,DVID_CEC*%
X118080000Y-103560000D03*
X130394890Y-84061675D03*
X120490000Y-104010000D03*
X137230000Y-96540000D03*
X137710000Y-85280000D03*
X127270000Y-103510000D03*
X117630000Y-102100000D03*
D30*
%TO.N,/DVID converter\u002C NOR Flash/TVDD*%
X133925843Y-87464157D03*
X133952858Y-90469900D03*
D29*
%TO.N,DVID_HPD*%
X116385607Y-91936088D03*
X115883144Y-87325038D03*
X129981339Y-84432072D03*
%TO.N,REAR_DVID_HPD*%
X125180000Y-77620000D03*
X132039750Y-80630248D03*
%TO.N,RTC_CM5*%
X116228096Y-99768096D03*
X121610000Y-108450000D03*
X116132646Y-103606305D03*
%TO.N,DIN2*%
X121112774Y-110020988D03*
X113066055Y-109089696D03*
X109710000Y-95060000D03*
X112880000Y-94640000D03*
X111270598Y-102259818D03*
%TO.N,UART_TX{slash}DOUT1*%
X125185385Y-105110916D03*
X119050000Y-100850000D03*
X125054900Y-106524499D03*
X122623263Y-102740061D03*
%TO.N,RS485_TX{slash}DOUT3*%
X131500000Y-111330000D03*
X112970000Y-109907800D03*
X109925665Y-102002769D03*
X108970000Y-106820000D03*
X107978200Y-96560000D03*
%TO.N,Net-(IC5-VDDI)*%
X100640000Y-85290000D03*
%TO.N,GND*%
X140339999Y-83220000D03*
%TD*%
D32*
%TO.N,/STM32H7 MCU/RCC_OSC_IN*%
X121028908Y-100368243D02*
X121029048Y-100368383D01*
X123660000Y-101220000D02*
X123660000Y-100690000D01*
X121028908Y-100368243D02*
X121028908Y-100368467D01*
X121035925Y-100356024D02*
X121035530Y-100355629D01*
X123670000Y-100680000D02*
X123415000Y-100680000D01*
D33*
X121028908Y-100368243D02*
X121029048Y-100368383D01*
X121028919Y-100368375D02*
X121028482Y-100368812D01*
D32*
X123185000Y-100450000D02*
X121297459Y-100450000D01*
X121204271Y-100356812D02*
X121050612Y-100356812D01*
D33*
X121029207Y-100368511D02*
X121029248Y-100368511D01*
X121033106Y-100364653D02*
X121029248Y-100368511D01*
X121029465Y-100368062D02*
X121029048Y-100367645D01*
X121033106Y-100341260D02*
X121033106Y-100364653D01*
D32*
X121029000Y-100368375D02*
X121028919Y-100368375D01*
X121031924Y-100358366D02*
X121031924Y-100365835D01*
X125450000Y-101170000D02*
X124960000Y-100680000D01*
D33*
X121029000Y-100368375D02*
X121028908Y-100368467D01*
X121028908Y-100368243D02*
X121028908Y-100368467D01*
D32*
X121297459Y-100450000D02*
X121204271Y-100356812D01*
X121029207Y-100368511D02*
X121029656Y-100368062D01*
D33*
X121029048Y-100367645D02*
X121029048Y-100368383D01*
D32*
X121029465Y-100368062D02*
X121029656Y-100368062D01*
D33*
X121029207Y-100368511D02*
X121029656Y-100368062D01*
D32*
X121031924Y-100365835D02*
X121029248Y-100368511D01*
X121029207Y-100368511D02*
X121029248Y-100368511D01*
X121035530Y-100355629D02*
X121034661Y-100355629D01*
X124960000Y-100680000D02*
X123670000Y-100680000D01*
X121029465Y-100368062D02*
X121029048Y-100367645D01*
D33*
X121029465Y-100368062D02*
X121029656Y-100368062D01*
D32*
X123660000Y-100690000D02*
X123670000Y-100680000D01*
X123415000Y-100680000D02*
X123185000Y-100450000D01*
X121029000Y-100368375D02*
X121028908Y-100368467D01*
X125450000Y-101270000D02*
X125450000Y-101170000D01*
X121029048Y-100367645D02*
X121029048Y-100368383D01*
D33*
X121029000Y-100368375D02*
X121028919Y-100368375D01*
D32*
X121028919Y-100368375D02*
X121028482Y-100368812D01*
X121050612Y-100356812D02*
X121049824Y-100356024D01*
X121049824Y-100356024D02*
X121035925Y-100356024D01*
X121034661Y-100355629D02*
X121031924Y-100358366D01*
%TO.N,/STM32H7 MCU/RCC_OSC_OUT*%
X121233043Y-99887630D02*
X121232679Y-99887630D01*
X121231962Y-99888347D02*
X121231515Y-99888347D01*
X121232679Y-99887630D02*
X121231962Y-99888347D01*
X126183900Y-99936100D02*
X124686100Y-99936100D01*
X123740000Y-99230000D02*
X123740000Y-99530000D01*
X124390000Y-99530000D02*
X123740000Y-99530000D01*
X124610000Y-99750000D02*
X124390000Y-99530000D01*
X123740000Y-99530000D02*
X122400000Y-99530000D01*
X127050000Y-99070000D02*
X126183900Y-99936100D01*
X122224533Y-99705467D02*
X121415206Y-99705467D01*
X124610000Y-99860000D02*
X124610000Y-99750000D01*
X124686100Y-99936100D02*
X124610000Y-99860000D01*
X122400000Y-99530000D02*
X122224533Y-99705467D01*
X121415206Y-99705467D02*
X121233043Y-99887630D01*
%TO.N,GND*%
X134375000Y-111055000D02*
X134360000Y-111070000D01*
D33*
X113825000Y-77105000D02*
X113890000Y-77170000D01*
X120300000Y-73700000D02*
X120300000Y-74300000D01*
X105970000Y-111302700D02*
X105971500Y-111304200D01*
D32*
X113825000Y-110225000D02*
X114130000Y-109920000D01*
D33*
X133500000Y-108333089D02*
X133397654Y-108435435D01*
X120419222Y-108420000D02*
X120420000Y-108420000D01*
X120300000Y-108300778D02*
X120419222Y-108420000D01*
X133490000Y-76460000D02*
X133500000Y-76450000D01*
D32*
X121500000Y-76595000D02*
X121500000Y-76120000D01*
X119550000Y-95340000D02*
X119120003Y-95340000D01*
D33*
X128300000Y-110700000D02*
X128300000Y-109970000D01*
X115500000Y-109980000D02*
X115510000Y-109970000D01*
D34*
X116780000Y-95550000D02*
X116800000Y-95530000D01*
D33*
X122700000Y-86010000D02*
X122690000Y-86000000D01*
X103815700Y-107310000D02*
X103770000Y-107355700D01*
D32*
X119919000Y-100392629D02*
X119919000Y-100177548D01*
D33*
X133500000Y-76470000D02*
X133490000Y-76460000D01*
D32*
X134375000Y-107805000D02*
X134375000Y-107225000D01*
D35*
X130970000Y-101050000D02*
X130660001Y-101050000D01*
D33*
X118017863Y-108452137D02*
X118122400Y-108347600D01*
D36*
X115565227Y-84570000D02*
X115795227Y-84570000D01*
D32*
X126314809Y-77080216D02*
X126314809Y-76609809D01*
D33*
X121500000Y-73250000D02*
X121500000Y-73700000D01*
X124700000Y-111242200D02*
X124700000Y-110700000D01*
X133075472Y-95355000D02*
X133310236Y-95589764D01*
X118300000Y-108122400D02*
X118300000Y-107620000D01*
X114300000Y-110700000D02*
X114300000Y-109920000D01*
D32*
X126314809Y-76609809D02*
X126300000Y-76595000D01*
X116810000Y-98120000D02*
X116800000Y-98110000D01*
D33*
X115500000Y-108290000D02*
X115500000Y-107620000D01*
X118013978Y-108452137D02*
X118017863Y-108452137D01*
D32*
X114130000Y-109920000D02*
X114300000Y-109920000D01*
X112180000Y-92240000D02*
X112440000Y-92500000D01*
X116900002Y-98123012D02*
X116900002Y-98919355D01*
D33*
X132300000Y-76780000D02*
X132300000Y-76180000D01*
D32*
X119100000Y-76595000D02*
X119100000Y-76120000D01*
X123660000Y-102475000D02*
X123593900Y-102541100D01*
D35*
X119575560Y-103418200D02*
X119575543Y-103418217D01*
D32*
X121186719Y-97673281D02*
X121160000Y-97700000D01*
D33*
X105971500Y-111304200D02*
X107779900Y-111304200D01*
D32*
X123593900Y-102541100D02*
X123593900Y-102630000D01*
X124290000Y-93150000D02*
X124560000Y-93420000D01*
X134375000Y-107225000D02*
X134400000Y-107200000D01*
X129900000Y-76595000D02*
X129900000Y-76060000D01*
D33*
X114300000Y-109920000D02*
X114590000Y-109630000D01*
D32*
X125100000Y-76090000D02*
X125190000Y-76000000D01*
X123740000Y-97665343D02*
X123598598Y-97523941D01*
D33*
X133500000Y-76780000D02*
X133500000Y-76470000D01*
D36*
X117080000Y-98120000D02*
X116810000Y-98120000D01*
D32*
X121883491Y-97673281D02*
X121186719Y-97673281D01*
D33*
X122700000Y-111242200D02*
X122700000Y-110700000D01*
X118122400Y-108300000D02*
X118300000Y-108122400D01*
X131100000Y-76780000D02*
X131100000Y-76180000D01*
X120850000Y-86700000D02*
X120850000Y-86220000D01*
X129900000Y-73700000D02*
X129899999Y-74203522D01*
D32*
X112180000Y-92025000D02*
X112180000Y-92240000D01*
D33*
X135235100Y-93830000D02*
X135210000Y-93855100D01*
X107779900Y-111304200D02*
X107779900Y-107354200D01*
X125900000Y-109980000D02*
X125910000Y-109970000D01*
D32*
X119120003Y-95340000D02*
X119120003Y-94900000D01*
D35*
X130295958Y-101414043D02*
X129836000Y-101414043D01*
D32*
X120300000Y-76595000D02*
X120300000Y-76040000D01*
D33*
X133500000Y-76450000D02*
X133500000Y-76180000D01*
D35*
X131660000Y-94500000D02*
X131995000Y-94500000D01*
X119700002Y-93743012D02*
X120620002Y-93743012D01*
D32*
X119915002Y-100173550D02*
X119915002Y-99323012D01*
X116900002Y-98919355D02*
X116807876Y-99011481D01*
X117113796Y-100739216D02*
X117074923Y-100739216D01*
D34*
X115795227Y-80370000D02*
X115795227Y-80675000D01*
D33*
X122140000Y-108440000D02*
X122140000Y-108340000D01*
X116700000Y-73700000D02*
X116700000Y-74300000D01*
X116700000Y-107620000D02*
X116700000Y-108340000D01*
X122140000Y-108340000D02*
X122300000Y-108180000D01*
D35*
X130660001Y-101050000D02*
X130295958Y-101414043D01*
D32*
X116700000Y-76595000D02*
X116700000Y-76120000D01*
X120672679Y-95542679D02*
X120672679Y-95667321D01*
D33*
X120850000Y-86220000D02*
X120983531Y-86086469D01*
D34*
X116800000Y-95530000D02*
X116800000Y-94650000D01*
X118780002Y-93743012D02*
X117793012Y-93743012D01*
D33*
X127130000Y-108360000D02*
X127100000Y-108330000D01*
X132300000Y-110920000D02*
X132100000Y-111120000D01*
D34*
X120620002Y-89883012D02*
X120503012Y-89883012D01*
D33*
X124560000Y-95180000D02*
X124560000Y-94260000D01*
X120700000Y-111242200D02*
X120700000Y-110700000D01*
X122300000Y-108180000D02*
X122300000Y-107620000D01*
X132850000Y-95355000D02*
X133075472Y-95355000D01*
X135640000Y-93830000D02*
X135235100Y-93830000D01*
X118122400Y-108347600D02*
X118122400Y-108300000D01*
X125900000Y-110700000D02*
X125900000Y-109980000D01*
D32*
X115500000Y-76595000D02*
X115500000Y-76120000D01*
X114331660Y-81220000D02*
X114331660Y-81196433D01*
X119690002Y-91893012D02*
X118843012Y-91893012D01*
D33*
X113825000Y-76595000D02*
X113825000Y-77105000D01*
D32*
X119919000Y-100177548D02*
X119915002Y-100173550D01*
D33*
X115500000Y-110700000D02*
X115500000Y-109980000D01*
X103770000Y-111302700D02*
X105970000Y-111302700D01*
X122906990Y-94700000D02*
X122470002Y-94263012D01*
X116755227Y-85435000D02*
X117250000Y-85929773D01*
D34*
X119120002Y-89873012D02*
X119663014Y-89330000D01*
D32*
X128700000Y-76080000D02*
X128700000Y-76595000D01*
D35*
X120135003Y-103418200D02*
X119575560Y-103418200D01*
D32*
X124560000Y-93420000D02*
X124560000Y-94260000D01*
X122126100Y-96796100D02*
X122126100Y-97430672D01*
D33*
X116700000Y-110126690D02*
X116448516Y-109875206D01*
D32*
X125100000Y-76595000D02*
X125100000Y-76090000D01*
X118630000Y-95340000D02*
X119120003Y-95340000D01*
D34*
X116800000Y-94650000D02*
X116780000Y-94630000D01*
D33*
X103770000Y-107355700D02*
X103770000Y-111302700D01*
X133500000Y-107620000D02*
X133500000Y-108333089D01*
D34*
X120503012Y-89883012D02*
X119950000Y-89330000D01*
D32*
X119100000Y-76595000D02*
X119100000Y-77301000D01*
X121630000Y-96290000D02*
X121630000Y-96300000D01*
D34*
X119663014Y-89330000D02*
X119950000Y-89330000D01*
D33*
X115500000Y-73700000D02*
X115500000Y-74300000D01*
X127100000Y-110700000D02*
X127100000Y-109970000D01*
D32*
X113825000Y-110515000D02*
X113825000Y-110225000D01*
X118843012Y-91893012D02*
X118620000Y-91670000D01*
X134375000Y-110515000D02*
X134375000Y-111055000D01*
D33*
X114300000Y-107620000D02*
X114300000Y-108340000D01*
X133500000Y-73700000D02*
X133500000Y-74370000D01*
X119100000Y-73700000D02*
X119100000Y-74300000D01*
D32*
X117793012Y-93743012D02*
X117790000Y-93740000D01*
D33*
X120300000Y-107620000D02*
X120300000Y-108300778D01*
X122960000Y-94700000D02*
X122906990Y-94700000D01*
X127130000Y-108370000D02*
X127130000Y-108360000D01*
D32*
X121630000Y-96300000D02*
X122126100Y-96796100D01*
D35*
X118787016Y-93743012D02*
X118785291Y-93741287D01*
D33*
X118700000Y-111242200D02*
X118700000Y-110700000D01*
D36*
X100358614Y-84060000D02*
X101280000Y-84060000D01*
D35*
X131995000Y-94500000D02*
X132850000Y-95355000D01*
D33*
X107779900Y-107354200D02*
X107735700Y-107310000D01*
D32*
X119100000Y-77301000D02*
X118541000Y-77860000D01*
D33*
X125900000Y-107620000D02*
X125900000Y-108340000D01*
D32*
X116870000Y-92780000D02*
X116474900Y-92780000D01*
D33*
X131900000Y-110700000D02*
X131900000Y-110920000D01*
X116700000Y-110700000D02*
X116700000Y-110126690D01*
X128700000Y-107620000D02*
X128700000Y-108350000D01*
D32*
X115530000Y-92790000D02*
X115480000Y-92790000D01*
X117900000Y-76595000D02*
X117900000Y-76120000D01*
D33*
X122700000Y-86625000D02*
X122700000Y-86010000D01*
D32*
X114331660Y-81196433D02*
X114055227Y-80920000D01*
D33*
X127100000Y-108330000D02*
X127100000Y-107620000D01*
X133500000Y-74370000D02*
X133490000Y-74380000D01*
X132300000Y-110700000D02*
X132300000Y-110920000D01*
X128700000Y-108350000D02*
X128650000Y-108400000D01*
X117900000Y-73700000D02*
X117900000Y-74300000D01*
X124300000Y-107620000D02*
X124300000Y-108245846D01*
D32*
X115480000Y-92790000D02*
X114790000Y-93480000D01*
D36*
X115795227Y-84570000D02*
X115995227Y-84770000D01*
D33*
X131900000Y-110920000D02*
X132100000Y-111120000D01*
D32*
X123740000Y-98270000D02*
X123740000Y-97665343D01*
D35*
X119700002Y-93743012D02*
X118787016Y-93743012D01*
D33*
X120983531Y-86086469D02*
X121025683Y-86086469D01*
D32*
X122126100Y-97430672D02*
X121883491Y-97673281D01*
D34*
X115795227Y-80675000D02*
X115525227Y-80945000D01*
D32*
X117340000Y-100513012D02*
X117113796Y-100739216D01*
D33*
X117250000Y-85929773D02*
X117250000Y-85970000D01*
D32*
X116474900Y-92780000D02*
X116385100Y-92690200D01*
X120672679Y-95667321D02*
X120650000Y-95690000D01*
X127500000Y-77080000D02*
X127500000Y-76595000D01*
D33*
X124300000Y-108245846D02*
X124397111Y-108342957D01*
%TO.N,ETH_MDC*%
X106671868Y-99925724D02*
X106587522Y-99925724D01*
D32*
%TO.N,+3V3*%
X111929937Y-93825063D02*
X111929937Y-94139937D01*
X117179999Y-93740000D02*
X117240191Y-93679808D01*
D36*
X119550000Y-96300000D02*
X118630000Y-96300000D01*
D32*
X116870000Y-93740000D02*
X117179999Y-93740000D01*
D35*
X121520000Y-103510000D02*
X122010000Y-103510000D01*
D33*
X132970000Y-91800000D02*
X132980000Y-91810000D01*
D36*
X117850000Y-97150000D02*
X117830000Y-97170000D01*
D34*
X117890000Y-94780000D02*
X117740000Y-94630000D01*
D36*
X118753014Y-97170000D02*
X118760002Y-97163012D01*
D34*
X117890000Y-95400000D02*
X117890000Y-94780000D01*
D36*
X118630000Y-97033010D02*
X118760002Y-97163012D01*
D33*
X132320000Y-91800000D02*
X132970000Y-91800000D01*
X131100000Y-107380000D02*
X130800000Y-107080000D01*
D32*
X97620000Y-86600000D02*
X97160000Y-86600000D01*
D36*
X118630000Y-96300000D02*
X118630000Y-97033010D01*
D33*
X131100000Y-107620000D02*
X131100000Y-107380000D01*
X120741181Y-97160000D02*
X120698974Y-97117793D01*
D34*
X117740000Y-95550000D02*
X117890000Y-95400000D01*
D32*
X97160000Y-86600000D02*
X97140000Y-86620000D01*
D33*
X130700000Y-108350000D02*
X130710000Y-108360000D01*
D32*
X117240191Y-93679808D02*
X117240191Y-93333700D01*
D33*
X121510002Y-93343012D02*
X121510002Y-93560002D01*
D36*
X117830000Y-97170000D02*
X118753014Y-97170000D01*
D33*
X121510002Y-93560002D02*
X121680000Y-93730000D01*
D34*
X121650000Y-97160000D02*
X120780000Y-97160000D01*
D33*
X130700000Y-107620000D02*
X130700000Y-108350000D01*
D32*
X111929937Y-94139937D02*
X111940000Y-94150000D01*
D33*
X121510002Y-94263012D02*
X121186988Y-94263012D01*
D35*
%TO.N,/STM32H7 MCU/VDD_SDC*%
X116850000Y-102480000D02*
X116850000Y-101620000D01*
D33*
X115901498Y-95003861D02*
X115904900Y-95000459D01*
D32*
X116347202Y-101983012D02*
X116486988Y-101983012D01*
X116486988Y-101983012D02*
X116850000Y-101620000D01*
D33*
X115779153Y-95003861D02*
X115901498Y-95003861D01*
X116720000Y-96983010D02*
X116720000Y-96509002D01*
X116720000Y-96509002D02*
X116460280Y-96249282D01*
X116900002Y-97163012D02*
X116720000Y-96983010D01*
D32*
%TO.N,/STM32H7 MCU/VDDSMPS*%
X119830002Y-101313012D02*
X119336713Y-101313012D01*
X121451238Y-101176776D02*
X121256059Y-101176776D01*
X121256059Y-101176776D02*
X121250092Y-101170809D01*
X119336713Y-101313012D02*
X119281498Y-101368227D01*
X121470002Y-101158012D02*
X121451238Y-101176776D01*
%TO.N,~{RESET_OUT}*%
X120224280Y-102100000D02*
X120458415Y-101865865D01*
D33*
X123950000Y-82950000D02*
X122910000Y-83990000D01*
D32*
X119010000Y-103410000D02*
X119130000Y-103290000D01*
X106810000Y-75460000D02*
X106500000Y-75150000D01*
X105588800Y-101508800D02*
X103030000Y-98950000D01*
X106810000Y-83557881D02*
X106810000Y-75460000D01*
X102130000Y-98050000D02*
X102130000Y-92240000D01*
X106800000Y-83567881D02*
X112227881Y-83567881D01*
X120461765Y-100403780D02*
X120690000Y-100175545D01*
D33*
X138549999Y-82950000D02*
X123950000Y-82950000D01*
D32*
X103030000Y-98950000D02*
X102130000Y-98050000D01*
X119130000Y-103290000D02*
X119130000Y-102451518D01*
X120855884Y-99974116D02*
X120855884Y-99404116D01*
X102130000Y-92240000D02*
X101690000Y-92240000D01*
D33*
X105580000Y-102130000D02*
X105588800Y-102138800D01*
X138839999Y-83240000D02*
X138549999Y-82950000D01*
D32*
X120855884Y-99404116D02*
X121130056Y-99129944D01*
X113021345Y-103439001D02*
X115875820Y-106293476D01*
X115875820Y-106293476D02*
X116163476Y-106293476D01*
X102130000Y-87670000D02*
X102130000Y-92240000D01*
X112227881Y-83567881D02*
X112240000Y-83580000D01*
X105588800Y-102152467D02*
X106875334Y-103439001D01*
X106800000Y-83567881D02*
X106232119Y-83567881D01*
D33*
X132300000Y-107620000D02*
X132300000Y-107300000D01*
D32*
X120690000Y-100140000D02*
X120855884Y-99974116D01*
D33*
X132300000Y-107300000D02*
X132500000Y-107100000D01*
D32*
X121130056Y-99129944D02*
X121130056Y-99114635D01*
X119130000Y-102451518D02*
X119481518Y-102100000D01*
X106800000Y-83567881D02*
X106810000Y-83557881D01*
X119481518Y-102100000D02*
X120224280Y-102100000D01*
X116163476Y-106293476D02*
X116180000Y-106310000D01*
X106232119Y-83567881D02*
X102130000Y-87670000D01*
D33*
X105588800Y-102138800D02*
X105588800Y-102152467D01*
D32*
X101690000Y-92240000D02*
X101660000Y-92210000D01*
X120458415Y-101865865D02*
X120461765Y-101869215D01*
X105588800Y-102152467D02*
X105588800Y-101508800D01*
X106875334Y-103439001D02*
X113021345Y-103439001D01*
X120690000Y-100175545D02*
X120690000Y-100140000D01*
X120461765Y-101869215D02*
X120461765Y-100403780D01*
%TO.N,DVID_SEL2*%
X130670000Y-86573700D02*
X130670000Y-96100000D01*
X131920000Y-85323700D02*
X130670000Y-86573700D01*
%TO.N,~{DIB1_CSA}*%
X115698502Y-100768208D02*
X115461400Y-101005311D01*
D33*
X115698502Y-97221255D02*
X115616263Y-97139016D01*
X115698502Y-97335768D02*
X115698502Y-97221255D01*
D32*
X115461400Y-103528090D02*
X115616783Y-103683473D01*
D33*
X120300000Y-110040000D02*
X120300000Y-110515000D01*
D32*
X115698502Y-97335768D02*
X115698502Y-100768208D01*
X115461400Y-101005311D02*
X115461400Y-103528090D01*
D33*
X119810000Y-109550000D02*
X120300000Y-110040000D01*
X115616263Y-97139016D02*
X115614445Y-97139016D01*
X119810000Y-108446602D02*
X119810000Y-109550000D01*
%TO.N,+VAUX*%
X129100000Y-107620000D02*
X129100000Y-107039558D01*
X129100000Y-107039558D02*
X129002288Y-106941846D01*
X129002288Y-106941846D02*
X128893990Y-106941846D01*
D32*
%TO.N,~{DIB3_CSA}*%
X115690118Y-104933859D02*
X116628468Y-104933859D01*
X112673853Y-95126033D02*
X112729512Y-95181692D01*
X116628468Y-104933859D02*
X116952075Y-104610252D01*
X112729512Y-95181692D02*
X112729512Y-95729512D01*
X114775595Y-98720139D02*
X114775595Y-104019336D01*
D33*
X123900000Y-107620000D02*
X123900000Y-105830473D01*
X123900000Y-105830473D02*
X123315844Y-105246317D01*
D32*
X112729512Y-95729512D02*
X114221400Y-97221400D01*
X114221400Y-98165944D02*
X114775595Y-98720139D01*
X114775595Y-104019336D02*
X115690118Y-104933859D01*
X114221400Y-97221400D02*
X114221400Y-98165944D01*
X116952075Y-104610252D02*
X116952075Y-104352243D01*
%TO.N,TFT_DVID_TX1_P*%
X124300000Y-74593286D02*
X124211500Y-74681786D01*
X124300000Y-73700000D02*
X124300000Y-74593286D01*
D33*
%TO.N,~{SYSMCU_CS}*%
X118580000Y-103227522D02*
X118537378Y-103184900D01*
X118700000Y-106489991D02*
X118580000Y-106369991D01*
X118700000Y-107620000D02*
X118700000Y-106489991D01*
X118580000Y-106369991D02*
X118580000Y-103227522D01*
%TO.N,~{TFT_IRQ}*%
X122300000Y-110056741D02*
X122301872Y-110054869D01*
X122300000Y-110700000D02*
X122300000Y-110056741D01*
D32*
%TO.N,MCU_USB_UP_TX-*%
X127450394Y-75460000D02*
X113980000Y-75460000D01*
X114110000Y-82090394D02*
X114110000Y-93630786D01*
X127973000Y-75982606D02*
X127450394Y-75460000D01*
X114110000Y-93630786D02*
X114232340Y-93753126D01*
X113980000Y-75460000D02*
X113437000Y-76003000D01*
X127900000Y-76099999D02*
X127973000Y-76026999D01*
X113437000Y-81417394D02*
X114110000Y-82090394D01*
X127900000Y-76595000D02*
X127900000Y-76099999D01*
X113437000Y-76003000D02*
X113437000Y-81417394D01*
X127973000Y-76026999D02*
X127973000Y-75982606D01*
%TO.N,SDA*%
X130300000Y-106910000D02*
X128658000Y-105268000D01*
X128658000Y-105268000D02*
X128658000Y-101172000D01*
D33*
X135884035Y-83545868D02*
X136178167Y-83840000D01*
X136178167Y-83840000D02*
X136920000Y-83840000D01*
D32*
X111290000Y-94613290D02*
X111290000Y-86060000D01*
X125354689Y-85361400D02*
X124971400Y-85361400D01*
X112960000Y-97120000D02*
X112960000Y-96283290D01*
X124971400Y-85361400D02*
X124500000Y-84890000D01*
D33*
X125882830Y-83545868D02*
X135884035Y-83545868D01*
D32*
X129108600Y-89115310D02*
X125354689Y-85361400D01*
X112960000Y-96283290D02*
X111290000Y-94613290D01*
X130300000Y-107620000D02*
X130300000Y-106910000D01*
D33*
X125090186Y-84338512D02*
X125882830Y-83545868D01*
D32*
X129108600Y-100721400D02*
X129108600Y-89115310D01*
X111290000Y-86060000D02*
X111460000Y-85890000D01*
X128658000Y-101172000D02*
X129108600Y-100721400D01*
D33*
%TO.N,SCL*%
X136266566Y-83379966D02*
X136166600Y-83280000D01*
X110997800Y-93858449D02*
X110997800Y-85470000D01*
D32*
X128880000Y-100620000D02*
X128880000Y-89210000D01*
X129900000Y-106905132D02*
X128404000Y-105409132D01*
D33*
X136330474Y-83379966D02*
X136266566Y-83379966D01*
X136166600Y-83280000D02*
X125153124Y-83280000D01*
D32*
X128404000Y-101096000D02*
X128880000Y-100620000D01*
D33*
X110914900Y-93941349D02*
X110997800Y-93858449D01*
D32*
X128880000Y-89210000D02*
X125260000Y-85590000D01*
X129900000Y-107620000D02*
X129900000Y-106905132D01*
D33*
X125153124Y-83280000D02*
X124443324Y-83989800D01*
D32*
X125260000Y-85590000D02*
X124642957Y-85590000D01*
X124642957Y-85590000D02*
X123947964Y-84895007D01*
X128404000Y-105409132D02*
X128404000Y-101096000D01*
%TO.N,TFT_DVID_TX2_P*%
X123100000Y-74569109D02*
X123011500Y-74657609D01*
X123100000Y-73700000D02*
X123100000Y-74569109D01*
D33*
%TO.N,~{DIB4_IRQ}*%
X122805023Y-105283929D02*
X122805023Y-105140816D01*
X123100000Y-107620000D02*
X123100000Y-105578906D01*
X123100000Y-105578906D02*
X122805023Y-105283929D01*
%TO.N,DIB_OE_SYNC*%
X123570000Y-108440000D02*
X123570000Y-108298842D01*
X123570000Y-108298842D02*
X123500000Y-108228842D01*
X123500000Y-107620000D02*
X123499174Y-107620826D01*
X123500000Y-108228842D02*
X123500000Y-107620000D01*
D32*
%TO.N,RS485_TX_EN{slash}DOUT2*%
X128150000Y-101010000D02*
X128150000Y-103230000D01*
D33*
X119900000Y-110700000D02*
X119900000Y-111242200D01*
D32*
X127531420Y-91167500D02*
X127787500Y-91167500D01*
X128150000Y-103230000D02*
X127776029Y-103603971D01*
X128640000Y-100520000D02*
X128150000Y-101010000D01*
X127776029Y-103603971D02*
X127776029Y-103636507D01*
X127787500Y-91167500D02*
X128640000Y-92020000D01*
X128640000Y-92020000D02*
X128640000Y-100520000D01*
%TO.N,TFT_DVID_TX2_N*%
X123500000Y-74569109D02*
X123588500Y-74657609D01*
X123500000Y-73700000D02*
X123500000Y-74569109D01*
%TO.N,TFT_DVID_CLK_P*%
X126700000Y-74601228D02*
X126611500Y-74689728D01*
X126700000Y-73700000D02*
X126700000Y-74601228D01*
D33*
%TO.N,~{DIB3_IRQ}*%
X118849404Y-108487621D02*
X118808385Y-108446602D01*
X118849404Y-109888884D02*
X118849404Y-108487621D01*
X119100000Y-110700000D02*
X119100000Y-110139480D01*
X119100000Y-110139480D02*
X118849404Y-109888884D01*
%TO.N,~{DIB5_CSA}*%
X123900000Y-110700000D02*
X123900000Y-109330000D01*
X123900000Y-109330000D02*
X123570000Y-109000000D01*
D32*
%TO.N,TFT_DVID_CLK_N*%
X127100000Y-74601228D02*
X127188500Y-74689728D01*
X127100000Y-73700000D02*
X127100000Y-74601228D01*
%TO.N,DIB1_USB_D+*%
X114027000Y-95180000D02*
X114027000Y-94847394D01*
X117268200Y-72887000D02*
X117192000Y-72887000D01*
X120773000Y-73282606D02*
X120377394Y-72887000D01*
X120700000Y-73700000D02*
X120700000Y-73450000D01*
X116210000Y-72887000D02*
X113832606Y-72887000D01*
X113832606Y-72887000D02*
X112797000Y-73922606D01*
X116658600Y-73115600D02*
X116658600Y-73039400D01*
X114050000Y-95180000D02*
X114180000Y-95310000D01*
X118563600Y-73039400D02*
X118563600Y-73115600D01*
X117649200Y-73268000D02*
X117573000Y-73268000D01*
X120377394Y-72887000D02*
X120240000Y-72887000D01*
X119173200Y-73268000D02*
X119097000Y-73268000D01*
X114027000Y-95180000D02*
X114050000Y-95180000D01*
X119706600Y-73115600D02*
X119706600Y-73039400D01*
X116506200Y-72887000D02*
X116430000Y-72887000D01*
X118944600Y-73115600D02*
X118944600Y-73039400D01*
X118030200Y-72887000D02*
X117954000Y-72887000D01*
X119554200Y-72887000D02*
X119478000Y-72887000D01*
X118182600Y-73115600D02*
X118182600Y-73039400D01*
X112797000Y-81907394D02*
X112797000Y-73922606D01*
X120087600Y-73039400D02*
X120087600Y-73115600D01*
X117039600Y-73039400D02*
X117039600Y-73115600D01*
X120773000Y-73377000D02*
X120773000Y-73282606D01*
X116430000Y-72887000D02*
X116210000Y-72887000D01*
X117420600Y-73115600D02*
X117420600Y-73039400D01*
X119325600Y-73039400D02*
X119325600Y-73115600D01*
X119935200Y-73268000D02*
X119859000Y-73268000D01*
X113080000Y-93900394D02*
X113080000Y-82190394D01*
X113209502Y-94029896D02*
X113080000Y-93900394D01*
X117801600Y-73039400D02*
X117801600Y-73115600D01*
X113080000Y-82190394D02*
X112797000Y-81907394D01*
X114027000Y-94847394D02*
X113209502Y-94029896D01*
X120700000Y-73450000D02*
X120773000Y-73377000D01*
X118792200Y-72887000D02*
X118716000Y-72887000D01*
X118411200Y-73268000D02*
X118335000Y-73268000D01*
X116887200Y-73268000D02*
X116811000Y-73268000D01*
X119097000Y-73268000D02*
G75*
G02*
X118944600Y-73115600I0J152400D01*
G01*
X117573000Y-73268000D02*
G75*
G02*
X117420600Y-73115600I0J152400D01*
G01*
X116658600Y-73039400D02*
G75*
G03*
X116506200Y-72887000I-152400J0D01*
G01*
X119706600Y-73039400D02*
G75*
G03*
X119554200Y-72887000I-152400J0D01*
G01*
X117039600Y-73115600D02*
G75*
G02*
X116887200Y-73268000I-152400J0D01*
G01*
X119478000Y-72887000D02*
G75*
G03*
X119325600Y-73039400I0J-152400D01*
G01*
X118563600Y-73115600D02*
G75*
G02*
X118411200Y-73268000I-152400J0D01*
G01*
X117801600Y-73115600D02*
G75*
G02*
X117649200Y-73268000I-152400J0D01*
G01*
X118335000Y-73268000D02*
G75*
G02*
X118182600Y-73115600I0J152400D01*
G01*
X116811000Y-73268000D02*
G75*
G02*
X116658600Y-73115600I0J152400D01*
G01*
X118182600Y-73039400D02*
G75*
G03*
X118030200Y-72887000I-152400J0D01*
G01*
X119859000Y-73268000D02*
G75*
G02*
X119706600Y-73115600I0J152400D01*
G01*
X118944600Y-73039400D02*
G75*
G03*
X118792200Y-72887000I-152400J0D01*
G01*
X119325600Y-73115600D02*
G75*
G02*
X119173200Y-73268000I-152400J0D01*
G01*
X117954000Y-72887000D02*
G75*
G03*
X117801600Y-73039400I0J-152400D01*
G01*
X118716000Y-72887000D02*
G75*
G03*
X118563600Y-73039400I0J-152400D01*
G01*
X117192000Y-72887000D02*
G75*
G03*
X117039600Y-73039400I0J-152400D01*
G01*
X120087600Y-73115600D02*
G75*
G02*
X119935200Y-73268000I-152400J0D01*
G01*
X120240000Y-72887000D02*
G75*
G03*
X120087600Y-73039400I0J-152400D01*
G01*
X117420600Y-73039400D02*
G75*
G03*
X117268200Y-72887000I-152400J0D01*
G01*
%TO.N,TFT_DVID_TX0_P*%
X125500000Y-74602002D02*
X125411500Y-74690502D01*
X125500000Y-73700000D02*
X125500000Y-74602002D01*
D33*
%TO.N,~{DIB2_CSA}*%
X121733956Y-109871774D02*
X121733455Y-109871273D01*
D32*
X121900000Y-110515000D02*
X121900000Y-110040473D01*
X117327175Y-104507615D02*
X117327175Y-104078210D01*
X117270000Y-106002350D02*
X117270000Y-104564790D01*
D33*
X121733455Y-109871273D02*
X121731834Y-109871273D01*
D32*
X116601990Y-106670360D02*
X117270000Y-106002350D01*
X121900000Y-110040473D02*
X121731317Y-109871790D01*
X117270000Y-104564790D02*
X117327175Y-104507615D01*
D33*
X121733956Y-109947150D02*
X121733956Y-109871774D01*
X121731834Y-109871273D02*
X121731317Y-109871790D01*
D32*
X117327175Y-104078210D02*
X116419877Y-103170912D01*
D33*
%TO.N,~{DIB4_CSA}*%
X124667100Y-106731834D02*
X124667100Y-106363866D01*
X124700000Y-106764734D02*
X124667100Y-106731834D01*
X125818006Y-105212960D02*
X126575300Y-105212960D01*
X124667100Y-106363866D02*
X125818006Y-105212960D01*
X124700000Y-107620000D02*
X124700000Y-106764734D01*
D32*
%TO.N,MCU_USB_UP_TX+*%
X113183000Y-75897788D02*
X113183000Y-81522606D01*
X128227000Y-76026999D02*
X128300000Y-76099999D01*
X113855998Y-82195604D02*
X113855998Y-93628996D01*
X128218154Y-75653021D02*
X128182231Y-75688941D01*
X128218153Y-75868547D02*
X128227000Y-75877394D01*
X128002627Y-75509337D02*
X128038549Y-75473416D01*
X128300000Y-76099999D02*
X128300000Y-76141576D01*
X127555606Y-75206000D02*
X127858943Y-75509337D01*
X113183000Y-81522606D02*
X113855998Y-82195604D01*
X113874788Y-75206000D02*
X127555606Y-75206000D01*
X128227000Y-75877394D02*
X128227000Y-76026999D01*
X128182231Y-75832625D02*
X128218153Y-75868547D01*
X113183000Y-75897788D02*
X113874788Y-75206000D01*
X128182233Y-75473416D02*
X128218154Y-75509337D01*
X113855998Y-93628996D02*
X113639407Y-93845587D01*
X128300000Y-76141576D02*
X128300000Y-76595000D01*
X128038549Y-75473416D02*
G75*
G02*
X128182233Y-75473416I71842J-71842D01*
G01*
X128218154Y-75509337D02*
G75*
G02*
X128218175Y-75653042I-71854J-71863D01*
G01*
X127858943Y-75509337D02*
G75*
G03*
X128002627Y-75509337I71842J71842D01*
G01*
X128182231Y-75688941D02*
G75*
G03*
X128182214Y-75832642I71869J-71859D01*
G01*
%TO.N,TFT_DVID_TX0_N*%
X125900000Y-74602002D02*
X125988500Y-74690502D01*
X125900000Y-73700000D02*
X125900000Y-74602002D01*
%TO.N,DIB1_USB_D-*%
X112543000Y-73817394D02*
X112543000Y-82012606D01*
X121100000Y-73700000D02*
X121100000Y-73450000D01*
X113720394Y-72640000D02*
X112543000Y-73817394D01*
X113630000Y-95310000D02*
X113773000Y-95167000D01*
X112543000Y-82012606D02*
X112826000Y-82295606D01*
X120489606Y-72640000D02*
X113720394Y-72640000D01*
X121100000Y-73450000D02*
X121027000Y-73377000D01*
X113773000Y-94952606D02*
X113773000Y-95167000D01*
X112826000Y-94005606D02*
X113773000Y-94952606D01*
X112826000Y-82295606D02*
X112826000Y-94005606D01*
X121027000Y-73377000D02*
X121027000Y-73177394D01*
X113773000Y-95167000D02*
X113773000Y-95180000D01*
X121027000Y-73177394D02*
X120489606Y-72640000D01*
D33*
%TO.N,~{DIB5_IRQ}*%
X112307800Y-111677800D02*
X123024600Y-111677800D01*
X111252200Y-101842200D02*
X110791300Y-101381300D01*
X123024600Y-111677800D02*
X123500000Y-111202400D01*
X111559271Y-109239271D02*
X111559271Y-110929271D01*
X111430633Y-101842200D02*
X111252200Y-101842200D01*
X123500000Y-111202400D02*
X123500000Y-110700000D01*
X111290000Y-108970000D02*
X111559271Y-109239271D01*
X111718433Y-102130000D02*
X111430633Y-101842200D01*
X110791300Y-95380194D02*
X110485600Y-95074494D01*
X110791300Y-101381300D02*
X110791300Y-95380194D01*
X111290000Y-107983600D02*
X111290000Y-108970000D01*
X111559271Y-110929271D02*
X112307800Y-111677800D01*
X111820000Y-102130000D02*
X111718433Y-102130000D01*
%TO.N,~{DIB1_IRQ}*%
X119100000Y-106556049D02*
X119317241Y-106338808D01*
X119100000Y-107620000D02*
X119100000Y-106556049D01*
%TO.N,~{SYSMCU_IRQ}*%
X123100000Y-110700000D02*
X123100000Y-110102395D01*
X123023837Y-108447107D02*
X123022830Y-108446100D01*
X123100000Y-110102395D02*
X123023837Y-110026232D01*
X123023837Y-110026232D02*
X123023837Y-108447107D01*
%TO.N,~{DIB2_IRQ}*%
X119500000Y-110700000D02*
X119500000Y-108855282D01*
X119500000Y-108855282D02*
X119308352Y-108663634D01*
D32*
%TO.N,TFT_DVID_TX1_N*%
X124700000Y-74593286D02*
X124788500Y-74681786D01*
X124700000Y-73700000D02*
X124700000Y-74593286D01*
%TO.N,BOOT0*%
X111330000Y-97327172D02*
X111330000Y-99430000D01*
X113483800Y-100986200D02*
X113500000Y-100970000D01*
X111380000Y-96100000D02*
X111636700Y-96356700D01*
D33*
X132700000Y-110700000D02*
X132690000Y-110690000D01*
D32*
X111330000Y-99430000D02*
X112886200Y-100986200D01*
D33*
X132700000Y-109340000D02*
X132540000Y-109180000D01*
X132700000Y-110515000D02*
X132700000Y-109340000D01*
D32*
X112886200Y-100986200D02*
X113483800Y-100986200D01*
X111636700Y-96356700D02*
X111636700Y-97020472D01*
X111330000Y-96100000D02*
X111380000Y-96100000D01*
X111636700Y-97020472D02*
X111330000Y-97327172D01*
D33*
%TO.N,~{ETH_LINK_ACT}*%
X116171167Y-109487458D02*
X115957225Y-109701400D01*
X116608553Y-109487458D02*
X116171167Y-109487458D01*
X117100000Y-110700000D02*
X117100000Y-109978905D01*
X117100000Y-109978905D02*
X116608553Y-109487458D01*
D32*
%TO.N,ETH_TXRX_B-*%
X103882799Y-105153000D02*
X104500000Y-105153000D01*
X110486602Y-105661000D02*
X110613602Y-105661000D01*
X113139803Y-105330197D02*
X115027001Y-107217395D01*
X111756602Y-105661000D02*
X111883602Y-105661000D01*
X111629602Y-105026000D02*
X111629602Y-105153000D01*
X104500000Y-105153000D02*
X108708602Y-105153000D01*
X111121602Y-104645000D02*
X111248602Y-104645000D01*
X109216602Y-105661000D02*
X109343602Y-105661000D01*
X110740602Y-105534000D02*
X110740602Y-105407000D01*
X109851602Y-104645000D02*
X109978602Y-104645000D01*
X109470602Y-105534000D02*
X109470602Y-105407000D01*
X102720000Y-105006500D02*
X102720000Y-105063000D01*
X102720000Y-105006500D02*
X102373500Y-105006500D01*
X110359602Y-105407000D02*
X110359602Y-105534000D01*
X110359602Y-105153000D02*
X110359602Y-105407000D01*
X102720000Y-105063000D02*
X102810000Y-105153000D01*
X103755799Y-105153000D02*
X103882799Y-105153000D01*
X110740602Y-105153000D02*
X110740602Y-105026000D01*
X111629602Y-105153000D02*
X111629602Y-105407000D01*
X112518602Y-105153000D02*
X112962606Y-105153000D01*
X102373500Y-105006500D02*
X101890000Y-105490000D01*
X109470602Y-105407000D02*
X109470602Y-105153000D01*
X111629602Y-105407000D02*
X111629602Y-105534000D01*
X103374799Y-104899000D02*
X103501799Y-104899000D01*
X112391602Y-105153000D02*
X112518602Y-105153000D01*
X109470602Y-105153000D02*
X109470602Y-105026000D01*
X112962606Y-105153000D02*
X113139803Y-105330197D01*
X102810000Y-105153000D02*
X103120799Y-105153000D01*
X115027001Y-107547001D02*
X115100000Y-107620000D01*
X115027001Y-107217395D02*
X115027001Y-107547001D01*
X110740602Y-105407000D02*
X110740602Y-105153000D01*
X110359602Y-105026000D02*
X110359602Y-105153000D01*
X112010602Y-105534000D02*
G75*
G02*
X112391602Y-105153002I380998J0D01*
G01*
X103628799Y-105026000D02*
G75*
G03*
X103755799Y-105153001I127001J0D01*
G01*
X110359602Y-105534000D02*
G75*
G03*
X110486602Y-105660998I126998J0D01*
G01*
X111248602Y-104645000D02*
G75*
G02*
X111629600Y-105026000I-2J-381000D01*
G01*
X109470602Y-105026000D02*
G75*
G02*
X109851602Y-104645002I380998J0D01*
G01*
X103501799Y-104899000D02*
G75*
G02*
X103628800Y-105026000I1J-127000D01*
G01*
X109978602Y-104645000D02*
G75*
G02*
X110359600Y-105026000I-2J-381000D01*
G01*
X109343602Y-105661000D02*
G75*
G03*
X109470600Y-105534000I-2J127000D01*
G01*
X103247799Y-105026000D02*
G75*
G02*
X103374799Y-104898999I127001J0D01*
G01*
X110740602Y-105026000D02*
G75*
G02*
X111121602Y-104645002I380998J0D01*
G01*
X108708602Y-105153000D02*
G75*
G02*
X109089600Y-105534000I-2J-381000D01*
G01*
X103120799Y-105153000D02*
G75*
G03*
X103247800Y-105026000I1J127000D01*
G01*
X110613602Y-105661000D02*
G75*
G03*
X110740600Y-105534000I-2J127000D01*
G01*
X109089602Y-105534000D02*
G75*
G03*
X109216602Y-105660998I126998J0D01*
G01*
X111883602Y-105661000D02*
G75*
G03*
X112010600Y-105534000I-2J127000D01*
G01*
X111629602Y-105534000D02*
G75*
G03*
X111756602Y-105660998I126998J0D01*
G01*
%TO.N,ETH_TXRX_A-*%
X112443220Y-103927000D02*
X115522479Y-107006259D01*
X101890000Y-103610000D02*
X102159999Y-103610000D01*
X102720000Y-103957000D02*
X102750000Y-103927000D01*
X102761020Y-104108980D02*
X102720000Y-104150000D01*
X102820000Y-104108980D02*
X102761020Y-104108980D01*
X102820000Y-104108980D02*
X102820000Y-104107990D01*
X102750000Y-103927000D02*
X112443220Y-103927000D01*
X102159999Y-103610000D02*
X102180000Y-103589999D01*
X102180000Y-103589999D02*
X102180000Y-103470000D01*
X115522479Y-107006259D02*
X115769845Y-107006259D01*
X115900000Y-107136414D02*
X115900000Y-107620000D01*
X102720000Y-104150000D02*
X102720000Y-103957000D01*
X115769845Y-107006259D02*
X115900000Y-107136414D01*
%TO.N,~{ETH_LINK100}*%
X115500000Y-111160000D02*
X113510000Y-111160000D01*
X117500000Y-110515000D02*
X117500000Y-110972000D01*
X113240000Y-110890000D02*
X112880000Y-110890000D01*
X117312000Y-111160000D02*
X115500000Y-111160000D01*
X117500000Y-110972000D02*
X117312000Y-111160000D01*
X113510000Y-111160000D02*
X113240000Y-110890000D01*
%TO.N,ETH_TXRX_B+*%
X112857394Y-105407000D02*
X112960197Y-105509803D01*
X110994602Y-105153000D02*
X110994602Y-105026000D01*
X114772999Y-107322605D02*
X114772999Y-107547001D01*
X110105602Y-105153000D02*
X110105602Y-105407000D01*
X111375602Y-105026000D02*
X111375602Y-105153000D01*
X111375602Y-105407000D02*
X111375602Y-105534000D01*
X102810000Y-105407000D02*
X108708602Y-105407000D01*
X112391602Y-105407000D02*
X112518602Y-105407000D01*
X111121602Y-104899000D02*
X111248602Y-104899000D01*
X109216602Y-105915000D02*
X109343602Y-105915000D01*
X102720000Y-105600000D02*
X101890000Y-106430000D01*
X111756602Y-105915000D02*
X111883602Y-105915000D01*
X109724602Y-105534000D02*
X109724602Y-105407000D01*
X102720000Y-105553500D02*
X102720000Y-105497000D01*
X102720000Y-105497000D02*
X102810000Y-105407000D01*
X102720000Y-105553500D02*
X102720000Y-105600000D01*
X109724602Y-105153000D02*
X109724602Y-105026000D01*
X110105602Y-105407000D02*
X110105602Y-105534000D01*
X110994602Y-105534000D02*
X110994602Y-105407000D01*
X110486602Y-105915000D02*
X110613602Y-105915000D01*
X112518602Y-105407000D02*
X112857394Y-105407000D01*
X111375602Y-105153000D02*
X111375602Y-105407000D01*
X112960197Y-105509803D02*
X114772999Y-107322605D01*
X114772999Y-107547001D02*
X114700000Y-107620000D01*
X109724602Y-105407000D02*
X109724602Y-105153000D01*
X110994602Y-105407000D02*
X110994602Y-105153000D01*
X110105602Y-105026000D02*
X110105602Y-105153000D01*
X109851602Y-104899000D02*
X109978602Y-104899000D01*
X109343602Y-105915000D02*
G75*
G03*
X109724600Y-105534000I-2J381000D01*
G01*
X110105602Y-105534000D02*
G75*
G03*
X110486602Y-105914998I380998J0D01*
G01*
X112264602Y-105534000D02*
G75*
G02*
X112391602Y-105407002I126998J0D01*
G01*
X111375602Y-105534000D02*
G75*
G03*
X111756602Y-105914998I380998J0D01*
G01*
X110613602Y-105915000D02*
G75*
G03*
X110994600Y-105534000I-2J381000D01*
G01*
X108708602Y-105407000D02*
G75*
G02*
X108835600Y-105534000I-2J-127000D01*
G01*
X109978602Y-104899000D02*
G75*
G02*
X110105600Y-105026000I-2J-127000D01*
G01*
X111883602Y-105915000D02*
G75*
G03*
X112264600Y-105534000I-2J381000D01*
G01*
X108835602Y-105534000D02*
G75*
G03*
X109216602Y-105914998I380998J0D01*
G01*
X109724602Y-105026000D02*
G75*
G02*
X109851602Y-104899002I126998J0D01*
G01*
X111248602Y-104899000D02*
G75*
G02*
X111375600Y-105026000I-2J-127000D01*
G01*
X110994602Y-105026000D02*
G75*
G02*
X111121602Y-104899002I126998J0D01*
G01*
%TO.N,ETH_TXRX_A+*%
X101930000Y-104590000D02*
X101890000Y-104550000D01*
X103440000Y-103673000D02*
X103448301Y-103681301D01*
X103448301Y-103681301D02*
X112542957Y-103681301D01*
X102330000Y-104590000D02*
X102318500Y-104578500D01*
X102318500Y-103966982D02*
X102542155Y-103743327D01*
X115907259Y-106750259D02*
X115628517Y-106750259D01*
X112542957Y-103681301D02*
X112551258Y-103673000D01*
X102318500Y-104578500D02*
X102318500Y-103966982D01*
X116300000Y-107620000D02*
X116300000Y-107143000D01*
X102330000Y-104590000D02*
X101930000Y-104590000D01*
X102542155Y-103743327D02*
X102612482Y-103673000D01*
X115628517Y-106750259D02*
X112551258Y-103673000D01*
X116300000Y-107143000D02*
X115907259Y-106750259D01*
X102866482Y-103419000D02*
X102993482Y-103419000D01*
X103247482Y-103673000D02*
X103374482Y-103673000D01*
X103374482Y-103673000D02*
X103440000Y-103673000D01*
X102993482Y-103419000D02*
G75*
G02*
X103120500Y-103546000I18J-127000D01*
G01*
X102739482Y-103546000D02*
G75*
G02*
X102866482Y-103418982I127018J0D01*
G01*
X102612482Y-103673000D02*
G75*
G03*
X102739500Y-103546000I18J127000D01*
G01*
X103120482Y-103546000D02*
G75*
G03*
X103247482Y-103673018I127018J0D01*
G01*
%TO.N,XSPIM_P1_IO0*%
X130088982Y-96550347D02*
X130139782Y-96550347D01*
X130139782Y-96296347D02*
X130088982Y-96296347D01*
X132350000Y-97980000D02*
X132350000Y-98370000D01*
X130139782Y-96804347D02*
X130088982Y-96804347D01*
X130241382Y-97451382D02*
X130380000Y-97590000D01*
X130241382Y-97210747D02*
X130241382Y-97451382D01*
X130837200Y-97590000D02*
X130888000Y-97590000D01*
X130241382Y-95794988D02*
X130241382Y-96194747D01*
X130241382Y-96550347D02*
X130393782Y-96550347D01*
X129987382Y-96397947D02*
X129987382Y-96448747D01*
X130241382Y-97159947D02*
X130241382Y-97210747D01*
X130139782Y-96550347D02*
X130241382Y-96550347D01*
X130583200Y-97844000D02*
X130634000Y-97844000D01*
X129987382Y-96905947D02*
X129987382Y-96956747D01*
X131960000Y-97590000D02*
X132350000Y-97980000D01*
X130393782Y-96804347D02*
X130241382Y-96804347D01*
X130088982Y-97058347D02*
X130139782Y-97058347D01*
X130495382Y-96651947D02*
X130495382Y-96702747D01*
X130481600Y-97691600D02*
X130481600Y-97742400D01*
X131030000Y-97590000D02*
X131960000Y-97590000D01*
X130735600Y-97742400D02*
X130735600Y-97691600D01*
X130888000Y-97590000D02*
X131030000Y-97590000D01*
X130241382Y-96804347D02*
X130139782Y-96804347D01*
X130393782Y-96550347D02*
G75*
G02*
X130495353Y-96651947I18J-101553D01*
G01*
X130139782Y-97058347D02*
G75*
G02*
X130241353Y-97159947I18J-101553D01*
G01*
X130088982Y-96296347D02*
G75*
G03*
X129987447Y-96397947I18J-101553D01*
G01*
X130380000Y-97590000D02*
G75*
G02*
X130481600Y-97691600I0J-101600D01*
G01*
X130481600Y-97742400D02*
G75*
G03*
X130583200Y-97844000I101600J0D01*
G01*
X130735600Y-97691600D02*
G75*
G02*
X130837200Y-97590000I101600J0D01*
G01*
X129987382Y-96956747D02*
G75*
G03*
X130088982Y-97058318I101618J47D01*
G01*
X129987382Y-96448747D02*
G75*
G03*
X130088982Y-96550318I101618J47D01*
G01*
X130088982Y-96804347D02*
G75*
G03*
X129987447Y-96905947I18J-101553D01*
G01*
X130241382Y-96194747D02*
G75*
G02*
X130139782Y-96296282I-101582J47D01*
G01*
X130634000Y-97844000D02*
G75*
G03*
X130735600Y-97742400I0J101600D01*
G01*
X130495382Y-96702747D02*
G75*
G02*
X130393782Y-96804282I-101582J47D01*
G01*
%TO.N,DVID_SEL1*%
X129048136Y-101312336D02*
X129337200Y-101023272D01*
X129048136Y-101390000D02*
X129048136Y-101312336D01*
X129334000Y-86806000D02*
X130550000Y-85590000D01*
X130550000Y-85590000D02*
X130800000Y-85590000D01*
X129334000Y-89017420D02*
X129334000Y-86806000D01*
X129337200Y-89020621D02*
X129334000Y-89017420D01*
X129337200Y-101023272D02*
X129337200Y-89020621D01*
%TO.N,XSPIM_P2_CLK*%
X117930000Y-89950000D02*
X118299112Y-90319112D01*
X117930000Y-88410000D02*
X117930000Y-89950000D01*
X114570000Y-82090000D02*
X114570000Y-85050000D01*
X119520935Y-90319112D02*
X119805147Y-90034900D01*
X114570000Y-85050000D02*
X117930000Y-88410000D01*
X118299112Y-90319112D02*
X119520935Y-90319112D01*
%TO.N,XSPIM_P2_DQS0*%
X117317884Y-86992357D02*
X117281962Y-87028278D01*
X118036315Y-87710787D02*
X118000393Y-87746708D01*
X118215921Y-87746709D02*
X118179999Y-87710787D01*
X115089127Y-84979127D02*
X115089127Y-82200873D01*
X117748943Y-87638942D02*
X117748942Y-87638942D01*
X117461569Y-87207884D02*
X117497490Y-87171963D01*
X117389728Y-87279727D02*
X117389727Y-87279727D01*
X117497490Y-87028279D02*
X117461568Y-86992357D01*
X117138278Y-87028278D02*
X117102358Y-86992358D01*
X117765207Y-87872996D02*
X117694496Y-87802285D01*
X117856705Y-87387494D02*
X117820783Y-87351572D01*
X116960000Y-86850000D02*
X115089127Y-84979127D01*
X117677099Y-87351572D02*
X117569335Y-87459335D01*
X115089127Y-82200873D02*
X115100000Y-82190000D01*
X115100000Y-82190000D02*
X115100000Y-81758820D01*
X118000393Y-87746708D02*
X117928550Y-87818550D01*
X117928550Y-87818550D02*
X117874101Y-87872996D01*
X118305100Y-89628367D02*
X118305100Y-88195100D01*
X118305100Y-88195100D02*
X118180000Y-88070000D01*
X117102358Y-86992358D02*
X116960000Y-86850000D01*
X117748942Y-87638942D02*
X117856705Y-87531178D01*
X117405992Y-87513781D02*
X117335281Y-87443070D01*
X117694497Y-87693391D02*
X117748943Y-87638942D01*
X117335282Y-87334176D02*
X117389728Y-87279727D01*
X118180000Y-87926315D02*
X118215921Y-87890393D01*
X117389727Y-87279727D02*
X117461569Y-87207884D01*
X117569335Y-87459335D02*
X117514886Y-87513781D01*
X115100000Y-81758820D02*
X114906355Y-81565175D01*
X117497490Y-87171963D02*
G75*
G03*
X117497511Y-87028258I-71890J71863D01*
G01*
X117281962Y-87028278D02*
G75*
G02*
X117138278Y-87028278I-71842J71842D01*
G01*
X117335281Y-87443070D02*
G75*
G02*
X117335258Y-87334152I54419J54470D01*
G01*
X117874101Y-87872996D02*
G75*
G02*
X117765207Y-87872996I-54447J54446D01*
G01*
X117820783Y-87351572D02*
G75*
G03*
X117677099Y-87351572I-71842J-71842D01*
G01*
X117514886Y-87513781D02*
G75*
G02*
X117405992Y-87513781I-54447J54446D01*
G01*
X118179999Y-87710787D02*
G75*
G03*
X118036315Y-87710787I-71842J-71842D01*
G01*
X118180000Y-88070000D02*
G75*
G02*
X118180042Y-87926358I71800J71800D01*
G01*
X117856705Y-87531178D02*
G75*
G03*
X117856741Y-87387458I-71805J71878D01*
G01*
X118215921Y-87890393D02*
G75*
G03*
X118215872Y-87746758I-71821J71793D01*
G01*
X117694496Y-87802285D02*
G75*
G02*
X117694458Y-87693352I54404J54485D01*
G01*
X117461568Y-86992357D02*
G75*
G03*
X117317884Y-86992357I-71842J-71842D01*
G01*
%TO.N,SDMMC_D5*%
X108317200Y-92436000D02*
X108368000Y-92436000D01*
X108571200Y-92690000D02*
X108622000Y-92690000D01*
X106793200Y-92436000D02*
X106844000Y-92436000D01*
X107961600Y-92690000D02*
X107961600Y-92842400D01*
X106691600Y-92690000D02*
X106691600Y-92537600D01*
X105675600Y-92791600D02*
X105675600Y-92690000D01*
X105929600Y-92690000D02*
X105929600Y-92842400D01*
X107301200Y-92436000D02*
X107352000Y-92436000D01*
X112430000Y-97549999D02*
X113950000Y-99070000D01*
X106183600Y-92842400D02*
X106183600Y-92690000D01*
X105523200Y-92944000D02*
X105574000Y-92944000D01*
X106945600Y-92690000D02*
X106945600Y-92842400D01*
X106437600Y-92690000D02*
X106437600Y-92842400D01*
X112430000Y-96165132D02*
X112430000Y-97549999D01*
X107961600Y-92537600D02*
X107961600Y-92690000D01*
X106539200Y-92944000D02*
X106590000Y-92944000D01*
X107453600Y-92690000D02*
X107453600Y-92842400D01*
X105320000Y-92690000D02*
X104990000Y-92690000D01*
X107707600Y-92690000D02*
X107707600Y-92537600D01*
X104560000Y-90915100D02*
X104540000Y-90895100D01*
X106031200Y-92944000D02*
X106082000Y-92944000D01*
X107047200Y-92944000D02*
X107098000Y-92944000D01*
X107555200Y-92944000D02*
X107606000Y-92944000D01*
X105675600Y-92690000D02*
X105675600Y-92537600D01*
X107707600Y-92842400D02*
X107707600Y-92690000D01*
X105421600Y-92791600D02*
X105421600Y-92842400D01*
X107199600Y-92842400D02*
X107199600Y-92690000D01*
X108215600Y-92690000D02*
X108215600Y-92588400D01*
X106945600Y-92537600D02*
X106945600Y-92690000D01*
X106285200Y-92436000D02*
X106336000Y-92436000D01*
X107809200Y-92436000D02*
X107860000Y-92436000D01*
X105929600Y-92537600D02*
X105929600Y-92690000D01*
X104560000Y-92260000D02*
X104560000Y-90915100D01*
X108622000Y-92690000D02*
X108954868Y-92690000D01*
X104990000Y-92690000D02*
X104560000Y-92260000D01*
X108215600Y-92588400D02*
X108215600Y-92537600D01*
X108954868Y-92690000D02*
X109023868Y-92759000D01*
X106691600Y-92842400D02*
X106691600Y-92690000D01*
X109023868Y-92759000D02*
X112430000Y-96165132D01*
X108215600Y-92842400D02*
X108215600Y-92690000D01*
X108469600Y-92537600D02*
X108469600Y-92588400D01*
X106183600Y-92690000D02*
X106183600Y-92537600D01*
X107199600Y-92690000D02*
X107199600Y-92537600D01*
X107453600Y-92537600D02*
X107453600Y-92690000D01*
X108063200Y-92944000D02*
X108114000Y-92944000D01*
X105777200Y-92436000D02*
X105828000Y-92436000D01*
X106437600Y-92537600D02*
X106437600Y-92690000D01*
X105675600Y-92842400D02*
X105675600Y-92791600D01*
X106844000Y-92436000D02*
G75*
G02*
X106945600Y-92537600I0J-101600D01*
G01*
X105421600Y-92842400D02*
G75*
G03*
X105523200Y-92944000I101600J0D01*
G01*
X107453600Y-92842400D02*
G75*
G03*
X107555200Y-92944000I101600J0D01*
G01*
X105574000Y-92944000D02*
G75*
G03*
X105675600Y-92842400I0J101600D01*
G01*
X107606000Y-92944000D02*
G75*
G03*
X107707600Y-92842400I0J101600D01*
G01*
X106336000Y-92436000D02*
G75*
G02*
X106437600Y-92537600I0J-101600D01*
G01*
X108215600Y-92537600D02*
G75*
G02*
X108317200Y-92436000I101600J0D01*
G01*
X105828000Y-92436000D02*
G75*
G02*
X105929600Y-92537600I0J-101600D01*
G01*
X108114000Y-92944000D02*
G75*
G03*
X108215600Y-92842400I0J101600D01*
G01*
X108368000Y-92436000D02*
G75*
G02*
X108469600Y-92537600I0J-101600D01*
G01*
X105320000Y-92690000D02*
G75*
G02*
X105421600Y-92791600I0J-101600D01*
G01*
X106082000Y-92944000D02*
G75*
G03*
X106183600Y-92842400I0J101600D01*
G01*
X106183600Y-92537600D02*
G75*
G02*
X106285200Y-92436000I101600J0D01*
G01*
X106437600Y-92842400D02*
G75*
G03*
X106539200Y-92944000I101600J0D01*
G01*
X107098000Y-92944000D02*
G75*
G03*
X107199600Y-92842400I0J101600D01*
G01*
X107199600Y-92537600D02*
G75*
G02*
X107301200Y-92436000I101600J0D01*
G01*
X106945600Y-92842400D02*
G75*
G03*
X107047200Y-92944000I101600J0D01*
G01*
X107707600Y-92537600D02*
G75*
G02*
X107809200Y-92436000I101600J0D01*
G01*
X107860000Y-92436000D02*
G75*
G02*
X107961600Y-92537600I0J-101600D01*
G01*
X107961600Y-92842400D02*
G75*
G03*
X108063200Y-92944000I101600J0D01*
G01*
X106590000Y-92944000D02*
G75*
G03*
X106691600Y-92842400I0J101600D01*
G01*
X108469600Y-92588400D02*
G75*
G03*
X108571200Y-92690000I101600J0D01*
G01*
X107352000Y-92436000D02*
G75*
G02*
X107453600Y-92537600I0J-101600D01*
G01*
X106691600Y-92537600D02*
G75*
G02*
X106793200Y-92436000I101600J0D01*
G01*
X105675600Y-92537600D02*
G75*
G02*
X105777200Y-92436000I101600J0D01*
G01*
X105929600Y-92842400D02*
G75*
G03*
X106031200Y-92944000I101600J0D01*
G01*
%TO.N,SDMMC_D4*%
X108276400Y-93722400D02*
X108276400Y-93570000D01*
X113570000Y-99441391D02*
X113570000Y-99013289D01*
X110640972Y-94699394D02*
X110629394Y-94699394D01*
X104974400Y-93417600D02*
X104974400Y-93468400D01*
X107260400Y-93722400D02*
X107260400Y-93570000D01*
X114185421Y-100222900D02*
X114185421Y-100056812D01*
X107768400Y-93722400D02*
X107768400Y-93570000D01*
X106498400Y-93570000D02*
X106498400Y-93722400D01*
X107006400Y-93417600D02*
X107006400Y-93570000D01*
X113570000Y-99013289D02*
X112201400Y-97644689D01*
X105888800Y-93824000D02*
X105838000Y-93824000D01*
X109500000Y-93570000D02*
X109140000Y-93570000D01*
X108784400Y-93570000D02*
X108784400Y-93417600D01*
X106498400Y-93417600D02*
X106498400Y-93570000D01*
X114185421Y-100056812D02*
X113570000Y-99441391D01*
X108174800Y-93316000D02*
X108124000Y-93316000D01*
X106244400Y-93722400D02*
X106244400Y-93570000D01*
X106142800Y-93316000D02*
X106092000Y-93316000D01*
X105380800Y-93824000D02*
X105330000Y-93824000D01*
X108936800Y-93824000D02*
X108886000Y-93824000D01*
X105990400Y-93417600D02*
X105990400Y-93570000D01*
X104822000Y-93570000D02*
X104590000Y-93570000D01*
X110629394Y-94699394D02*
X109500000Y-93570000D01*
X106396800Y-93824000D02*
X106346000Y-93824000D01*
X105736400Y-93570000D02*
X105736400Y-93417600D01*
X105228400Y-93570000D02*
X105228400Y-93468400D01*
X112201400Y-96259822D02*
X110640972Y-94699394D01*
X105126800Y-93316000D02*
X105076000Y-93316000D01*
X105228400Y-93722400D02*
X105228400Y-93570000D01*
X108022400Y-93570000D02*
X108022400Y-93722400D01*
X104590000Y-93570000D02*
X104010000Y-93570000D01*
X105482400Y-93417600D02*
X105482400Y-93570000D01*
X105228400Y-93468400D02*
X105228400Y-93417600D01*
X105634800Y-93316000D02*
X105584000Y-93316000D01*
X108784400Y-93722400D02*
X108784400Y-93671600D01*
X107260400Y-93570000D02*
X107260400Y-93417600D01*
X107666800Y-93316000D02*
X107616000Y-93316000D01*
X107920800Y-93824000D02*
X107870000Y-93824000D01*
X106904800Y-93824000D02*
X106854000Y-93824000D01*
X106752400Y-93722400D02*
X106752400Y-93570000D01*
X108530400Y-93417600D02*
X108530400Y-93570000D01*
X107768400Y-93570000D02*
X107768400Y-93417600D01*
X108682800Y-93316000D02*
X108632000Y-93316000D01*
X108022400Y-93417600D02*
X108022400Y-93570000D01*
X107514400Y-93417600D02*
X107514400Y-93570000D01*
X106650800Y-93316000D02*
X106600000Y-93316000D01*
X107412800Y-93824000D02*
X107362000Y-93824000D01*
X104872800Y-93570000D02*
X104822000Y-93570000D01*
X106244400Y-93570000D02*
X106244400Y-93417600D01*
X108784400Y-93671600D02*
X108784400Y-93570000D01*
X112201400Y-97644689D02*
X112201400Y-96259822D01*
X105736400Y-93722400D02*
X105736400Y-93570000D01*
X107514400Y-93570000D02*
X107514400Y-93722400D01*
X108276400Y-93570000D02*
X108276400Y-93417600D01*
X105990400Y-93570000D02*
X105990400Y-93722400D01*
X107006400Y-93570000D02*
X107006400Y-93722400D01*
X109038400Y-93671600D02*
X109038400Y-93722400D01*
X106752400Y-93570000D02*
X106752400Y-93417600D01*
X108428800Y-93824000D02*
X108378000Y-93824000D01*
X108530400Y-93570000D02*
X108530400Y-93722400D01*
X107158800Y-93316000D02*
X107108000Y-93316000D01*
X105482400Y-93570000D02*
X105482400Y-93722400D01*
X105076000Y-93316000D02*
G75*
G03*
X104974400Y-93417600I0J-101600D01*
G01*
X107514400Y-93722400D02*
G75*
G02*
X107412800Y-93824000I-101600J0D01*
G01*
X106092000Y-93316000D02*
G75*
G03*
X105990400Y-93417600I0J-101600D01*
G01*
X107362000Y-93824000D02*
G75*
G02*
X107260400Y-93722400I0J101600D01*
G01*
X108022400Y-93722400D02*
G75*
G02*
X107920800Y-93824000I-101600J0D01*
G01*
X107260400Y-93417600D02*
G75*
G03*
X107158800Y-93316000I-101600J0D01*
G01*
X108378000Y-93824000D02*
G75*
G02*
X108276400Y-93722400I0J101600D01*
G01*
X107768400Y-93417600D02*
G75*
G03*
X107666800Y-93316000I-101600J0D01*
G01*
X106346000Y-93824000D02*
G75*
G02*
X106244400Y-93722400I0J101600D01*
G01*
X109038400Y-93722400D02*
G75*
G02*
X108936800Y-93824000I-101600J0D01*
G01*
X105482400Y-93722400D02*
G75*
G02*
X105380800Y-93824000I-101600J0D01*
G01*
X106600000Y-93316000D02*
G75*
G03*
X106498400Y-93417600I0J-101600D01*
G01*
X108276400Y-93417600D02*
G75*
G03*
X108174800Y-93316000I-101600J0D01*
G01*
X105838000Y-93824000D02*
G75*
G02*
X105736400Y-93722400I0J101600D01*
G01*
X107616000Y-93316000D02*
G75*
G03*
X107514400Y-93417600I0J-101600D01*
G01*
X105228400Y-93417600D02*
G75*
G03*
X105126800Y-93316000I-101600J0D01*
G01*
X107870000Y-93824000D02*
G75*
G02*
X107768400Y-93722400I0J101600D01*
G01*
X106498400Y-93722400D02*
G75*
G02*
X106396800Y-93824000I-101600J0D01*
G01*
X105584000Y-93316000D02*
G75*
G03*
X105482400Y-93417600I0J-101600D01*
G01*
X108784400Y-93417600D02*
G75*
G03*
X108682800Y-93316000I-101600J0D01*
G01*
X106854000Y-93824000D02*
G75*
G02*
X106752400Y-93722400I0J101600D01*
G01*
X107108000Y-93316000D02*
G75*
G03*
X107006400Y-93417600I0J-101600D01*
G01*
X105990400Y-93722400D02*
G75*
G02*
X105888800Y-93824000I-101600J0D01*
G01*
X108886000Y-93824000D02*
G75*
G02*
X108784400Y-93722400I0J101600D01*
G01*
X104974400Y-93468400D02*
G75*
G02*
X104872800Y-93570000I-101600J0D01*
G01*
X105330000Y-93824000D02*
G75*
G02*
X105228400Y-93722400I0J101600D01*
G01*
X106752400Y-93417600D02*
G75*
G03*
X106650800Y-93316000I-101600J0D01*
G01*
X108124000Y-93316000D02*
G75*
G03*
X108022400Y-93417600I0J-101600D01*
G01*
X107006400Y-93722400D02*
G75*
G02*
X106904800Y-93824000I-101600J0D01*
G01*
X108530400Y-93722400D02*
G75*
G02*
X108428800Y-93824000I-101600J0D01*
G01*
X108632000Y-93316000D02*
G75*
G03*
X108530400Y-93417600I0J-101600D01*
G01*
X109140000Y-93570000D02*
G75*
G03*
X109038400Y-93671600I0J-101600D01*
G01*
X105736400Y-93417600D02*
G75*
G03*
X105634800Y-93316000I-101600J0D01*
G01*
X106244400Y-93417600D02*
G75*
G03*
X106142800Y-93316000I-101600J0D01*
G01*
D33*
%TO.N,~{LED_ACT}*%
X112634900Y-111420000D02*
X112480000Y-111265100D01*
X118300000Y-110700000D02*
X118300000Y-111202400D01*
X118082400Y-111420000D02*
X112634900Y-111420000D01*
X118300000Y-111202400D02*
X118082400Y-111420000D01*
D32*
%TO.N,REAR_DVID_TX1_N*%
X129500000Y-74601277D02*
X129588500Y-74689777D01*
X129500000Y-73700000D02*
X129500000Y-74601277D01*
%TO.N,REAR_DVID_CLK_P*%
X131490000Y-73710000D02*
X131490000Y-74611500D01*
X131490000Y-74611500D02*
X131411500Y-74690000D01*
X131500000Y-73700000D02*
X131490000Y-73710000D01*
%TO.N,REAR_DVID_TX0_N*%
X130690000Y-73710000D02*
X130690000Y-74601500D01*
X130690000Y-74601500D02*
X130788500Y-74700000D01*
X130700000Y-73700000D02*
X130690000Y-73710000D01*
%TO.N,REAR_DVID_TX1_P*%
X129100000Y-74601277D02*
X129011500Y-74689777D01*
X129100000Y-73700000D02*
X129100000Y-74601277D01*
%TO.N,REAR_DVID_CLK_N*%
X131900000Y-73700000D02*
X131890000Y-73710000D01*
X131890000Y-73710000D02*
X131890000Y-74591500D01*
X131890000Y-74591500D02*
X131988500Y-74690000D01*
%TO.N,REAR_DVID_TX2_N*%
X128300000Y-73700000D02*
X128300000Y-74598084D01*
X128300000Y-74598084D02*
X128388500Y-74686584D01*
%TO.N,REAR_DVID_TX0_P*%
X130300000Y-74611500D02*
X130211500Y-74700000D01*
X130300000Y-73700000D02*
X130300000Y-74611500D01*
%TO.N,REAR_DVID_TX2_P*%
X127900000Y-73700000D02*
X127900000Y-74598084D01*
X127900000Y-74598084D02*
X127811500Y-74686584D01*
D33*
%TO.N,REAR_DVID_SDA*%
X133900000Y-75830000D02*
X133590000Y-75520000D01*
X133900000Y-76780000D02*
X133900000Y-75830000D01*
X133590000Y-75520000D02*
X133510000Y-75440000D01*
%TO.N,REAR_DVID_CEC*%
X124140000Y-75970000D02*
X124155072Y-75985072D01*
X124155072Y-76125072D02*
X124300000Y-76270000D01*
X124155072Y-75985072D02*
X124155072Y-76125072D01*
X124300000Y-76270000D02*
X124300000Y-76780000D01*
%TO.N,REAR_DVID_SCL*%
X133920000Y-74730000D02*
X133920000Y-73720000D01*
X133920000Y-73720000D02*
X133900000Y-73700000D01*
X133910000Y-74740000D02*
X133920000Y-74730000D01*
D34*
%TO.N,+1V8*%
X123600000Y-95180000D02*
X123600000Y-94260000D01*
D32*
X134420000Y-98720000D02*
X133180000Y-97480000D01*
D34*
X114825227Y-80260000D02*
X114331660Y-80260000D01*
D33*
X119003842Y-91234901D02*
X118928842Y-91234901D01*
X131450000Y-100090000D02*
X130970000Y-100090000D01*
D35*
X103090000Y-88951302D02*
X104010000Y-88951302D01*
D32*
X123145857Y-93150000D02*
X122696657Y-92700800D01*
D33*
X115565227Y-83590000D02*
X116065227Y-83090000D01*
D32*
X114331660Y-79573567D02*
X114335227Y-79570000D01*
D33*
X121540179Y-92453012D02*
X121801056Y-92713889D01*
X131900000Y-107620000D02*
X131900000Y-108100000D01*
X121275000Y-88175000D02*
X121510000Y-88410000D01*
D37*
X114331660Y-80260000D02*
X114331660Y-79573567D01*
D32*
X123330000Y-93150000D02*
X123145857Y-93150000D01*
D33*
X119748412Y-92637095D02*
X119724329Y-92613012D01*
X131900000Y-108100000D02*
X131690000Y-108310000D01*
X117742927Y-80030000D02*
X117738276Y-80025349D01*
X117738276Y-80025349D02*
X117738276Y-79836171D01*
X131500000Y-107620000D02*
X131500000Y-107220000D01*
X122700559Y-92696898D02*
X122696657Y-92700800D01*
X120761956Y-91264965D02*
X120875873Y-91264965D01*
D32*
X133180000Y-96814137D02*
X133051735Y-96685872D01*
D33*
X119700002Y-92783012D02*
X119748412Y-92734602D01*
X122700000Y-88175000D02*
X122875000Y-88175000D01*
X115565227Y-83610000D02*
X115565227Y-83590000D01*
D35*
X130970000Y-100090000D02*
X130055000Y-100090000D01*
D33*
X121540002Y-92453012D02*
X121540179Y-92453012D01*
X120620002Y-91123011D02*
X120761956Y-91264965D01*
X132850000Y-96594999D02*
X132940873Y-96685872D01*
D32*
X133180000Y-97480000D02*
X133180000Y-96814137D01*
D37*
X118085227Y-80960000D02*
X118085227Y-80030000D01*
D34*
X115525227Y-79560000D02*
X114825227Y-80260000D01*
D35*
X130055000Y-100090000D02*
X129780000Y-100365000D01*
D38*
X131925000Y-96315000D02*
X131660000Y-96050000D01*
D37*
X116480227Y-83610000D02*
X115565227Y-83610000D01*
D32*
X134420000Y-99070000D02*
X134420000Y-98720000D01*
D33*
X132850000Y-96315000D02*
X132850000Y-96594999D01*
X120800000Y-88175000D02*
X121275000Y-88175000D01*
X122700559Y-92693569D02*
X122700559Y-92696898D01*
X122875000Y-88175000D02*
X123250000Y-88550000D01*
X121801056Y-92713889D02*
X121801056Y-92729679D01*
X119748412Y-92734602D02*
X119748412Y-92637095D01*
X119120002Y-91118741D02*
X119003842Y-91234901D01*
X120620002Y-90843012D02*
X120620002Y-91123011D01*
X132940873Y-96685872D02*
X133051735Y-96685872D01*
X118085227Y-80030000D02*
X117742927Y-80030000D01*
D37*
X116755227Y-83885000D02*
X116480227Y-83610000D01*
X118355227Y-81230000D02*
X118085227Y-80960000D01*
D34*
X115525227Y-79395000D02*
X115525227Y-79560000D01*
D33*
X131500000Y-107220000D02*
X131710000Y-107010000D01*
X119120002Y-90833012D02*
X119120002Y-91118741D01*
D38*
X132850000Y-96315000D02*
X131925000Y-96315000D01*
D32*
%TO.N,GPIO_VREF*%
X125128622Y-103868622D02*
X125127678Y-103868622D01*
X126825100Y-104235100D02*
X125495100Y-104235100D01*
X129500000Y-107620000D02*
X129500000Y-106910000D01*
X125495100Y-104235100D02*
X125128622Y-103868622D01*
X129500000Y-106910000D02*
X126825100Y-104235100D01*
%TO.N,DIB4_SCLK*%
X121738000Y-111210000D02*
X122050000Y-111210000D01*
X121500000Y-110972000D02*
X121738000Y-111210000D01*
X121500000Y-110515000D02*
X121500000Y-110972000D01*
%TO.N,DIB4_MISO*%
X120960000Y-108400000D02*
X120700000Y-108140000D01*
X114761400Y-95998600D02*
X114200000Y-96560000D01*
X114761400Y-94431008D02*
X114761400Y-95998600D01*
X115004200Y-103924652D02*
X115638307Y-104558759D01*
X114450000Y-97100000D02*
X114450000Y-98071254D01*
X115004200Y-98625454D02*
X115004200Y-103924652D01*
X120960000Y-108500000D02*
X120960000Y-108400000D01*
X114810795Y-94381613D02*
X114761400Y-94431008D01*
X120700000Y-108140000D02*
X120700000Y-107805000D01*
X114450000Y-98071254D02*
X115004200Y-98625454D01*
X114200000Y-96560000D02*
X114200000Y-96850000D01*
X114200000Y-96850000D02*
X114450000Y-97100000D01*
X115638307Y-104558759D02*
X116473096Y-104558759D01*
D33*
%TO.N,DIB4_MOSI*%
X119995550Y-106743221D02*
X119995550Y-104311603D01*
D32*
X115528344Y-104125506D02*
X116182648Y-104125506D01*
X114990000Y-94898947D02*
X114990000Y-96544822D01*
D33*
X119900000Y-106838771D02*
X119995550Y-106743221D01*
D32*
X115419400Y-97474443D02*
X115419400Y-100724022D01*
X115232800Y-100910622D02*
X115232800Y-103829962D01*
X114999157Y-97054200D02*
X115419400Y-97474443D01*
X114990000Y-96544822D02*
X114999157Y-96553979D01*
D33*
X119900000Y-107620000D02*
X119900000Y-106838771D01*
D32*
X114999157Y-96553979D02*
X114999157Y-97054200D01*
X115520004Y-94368943D02*
X114990000Y-94898947D01*
X115419400Y-100724022D02*
X115232800Y-100910622D01*
D33*
X119995550Y-104311603D02*
X119909047Y-104225100D01*
D32*
X115232800Y-103829962D02*
X115528344Y-104125506D01*
%TO.N,LTDC_B7*%
X146005100Y-89414900D02*
X146005100Y-91214900D01*
X141815000Y-95405000D02*
X140595001Y-95405000D01*
X140595001Y-95405000D02*
X137517500Y-98482500D01*
X137517500Y-98482500D02*
X137517500Y-102290024D01*
X146030000Y-89390000D02*
X146005100Y-89414900D01*
X137517500Y-102290024D02*
X137046008Y-102761516D01*
X137046008Y-102761516D02*
X136753190Y-102761516D01*
X146005100Y-91214900D02*
X141815000Y-95405000D01*
%TO.N,LTDC_VSYNC*%
X125263700Y-85053700D02*
X124574900Y-84364900D01*
X119830000Y-86330000D02*
X119830000Y-87130000D01*
X142317824Y-84864900D02*
X130418862Y-84864900D01*
X118609098Y-88189098D02*
X118690000Y-88270000D01*
X121795100Y-84364900D02*
X119830000Y-86330000D01*
X130230062Y-85053700D02*
X125263700Y-85053700D01*
X130418862Y-84864900D02*
X130230062Y-85053700D01*
X124574900Y-84364900D02*
X121795100Y-84364900D01*
X119830000Y-87130000D02*
X118690000Y-88270000D01*
X142858262Y-84324462D02*
X142317824Y-84864900D01*
%TO.N,LTDC_CLK*%
X137263500Y-102013552D02*
X136983526Y-102293526D01*
X145540000Y-90589528D02*
X145254900Y-90874628D01*
X145254900Y-90874628D02*
X145254900Y-91305100D01*
X140536711Y-95140000D02*
X137263500Y-98413211D01*
X137263500Y-98413211D02*
X137263500Y-102013552D01*
X141420000Y-95140000D02*
X140536711Y-95140000D01*
X145540000Y-88120000D02*
X145540000Y-90589528D01*
X145254900Y-91305100D02*
X141420000Y-95140000D01*
%TO.N,LTDC_R3*%
X136730000Y-98620790D02*
X136730000Y-100710000D01*
X140675554Y-94675236D02*
X136730000Y-98620790D01*
X140855236Y-94675236D02*
X140675554Y-94675236D01*
%TO.N,LTDC_B0*%
X137570000Y-85840000D02*
X137570000Y-94694393D01*
X137570000Y-94694393D02*
X137257264Y-95007129D01*
X137257264Y-95007129D02*
X137250207Y-95007129D01*
%TO.N,LTDC_DE*%
X144370000Y-83850000D02*
X144370000Y-90630000D01*
X144370000Y-90630000D02*
X136350000Y-98650000D01*
X136350000Y-98650000D02*
X136350000Y-103082640D01*
X136350000Y-103082640D02*
X136345618Y-103087022D01*
%TO.N,LTDC_R7*%
X138814379Y-93079885D02*
X138810000Y-93075506D01*
%TO.N,LTDC_HSYNC*%
X115474887Y-94900000D02*
X116010000Y-94364887D01*
X127550446Y-84825100D02*
X127390246Y-84664900D01*
X115253900Y-96573900D02*
X115253900Y-95066100D01*
X115430000Y-96750000D02*
X115253900Y-96573900D01*
X130324172Y-84636300D02*
X130135372Y-84825100D01*
X115827315Y-87891226D02*
X115508044Y-87571956D01*
X142755132Y-83810000D02*
X141928832Y-84636300D01*
X116255662Y-96750000D02*
X115430000Y-96750000D01*
X130135372Y-84825100D02*
X127550446Y-84825100D01*
X116010000Y-91913290D02*
X115827315Y-91730604D01*
X115508044Y-87571956D02*
X115508044Y-86628044D01*
X115827315Y-91730604D02*
X115827315Y-87891226D01*
X115253900Y-95066100D02*
X115420000Y-94900000D01*
X116010000Y-94364887D02*
X116010000Y-91913290D01*
X143330000Y-83810000D02*
X142755132Y-83810000D01*
X141928832Y-84636300D02*
X130324172Y-84636300D01*
X115508044Y-86628044D02*
X115360000Y-86480000D01*
X116270520Y-96735142D02*
X116255662Y-96750000D01*
X115420000Y-94900000D02*
X115474887Y-94900000D01*
D33*
%TO.N,~{LED_PWR}*%
X133100000Y-110515000D02*
X133100000Y-109290000D01*
X133100000Y-109290000D02*
X133110000Y-109280000D01*
X110160000Y-100102535D02*
X109410000Y-99352535D01*
X109410000Y-95308433D02*
X109322200Y-95220633D01*
X109322200Y-94247800D02*
X109420000Y-94150000D01*
X109322200Y-95220633D02*
X109322200Y-94247800D01*
X109410000Y-99352535D02*
X109410000Y-95308433D01*
X110160000Y-100340000D02*
X110160000Y-100102535D01*
%TO.N,DIB1{slash}DIB3_MISO*%
X119716150Y-104763554D02*
X119431696Y-104479100D01*
X119716150Y-106627490D02*
X119716150Y-104763554D01*
X119500000Y-107620000D02*
X119500000Y-106843640D01*
X119500000Y-106843640D02*
X119716150Y-106627490D01*
%TO.N,DIB2{slash}DIB5_SCLK*%
X121500000Y-107620000D02*
X121500000Y-105286177D01*
X121500000Y-105286177D02*
X121748577Y-105037600D01*
%TO.N,DIB1{slash}DIB3_MOSI*%
X125100000Y-110700000D02*
X125100000Y-109148434D01*
X125100000Y-109148434D02*
X125104217Y-109144217D01*
%TO.N,DIB2{slash}DIB5_MISO*%
X113557527Y-103426751D02*
X113616751Y-103426751D01*
X108830000Y-100230000D02*
X108830000Y-100251600D01*
X108380400Y-99780400D02*
X108830000Y-100230000D01*
X121900000Y-107620000D02*
X121900000Y-106066600D01*
X108768200Y-97970000D02*
X108380400Y-98357800D01*
X108380400Y-98357800D02*
X108380400Y-99780400D01*
X121900000Y-106066600D02*
X121920000Y-106046600D01*
%TO.N,DIB2{slash}DIB5_MOSI*%
X107872400Y-98703959D02*
X107872400Y-100542400D01*
X107738600Y-98570159D02*
X107872400Y-98703959D01*
X107872400Y-100542400D02*
X109720569Y-102390569D01*
D32*
X122700000Y-107805000D02*
X122700000Y-108150000D01*
X122590000Y-108760000D02*
X121914900Y-109435100D01*
X122590000Y-108260000D02*
X122590000Y-108760000D01*
X122700000Y-108150000D02*
X122590000Y-108260000D01*
X121914900Y-109435100D02*
X120299427Y-109435100D01*
D33*
X110743909Y-102932656D02*
X111834900Y-102932656D01*
X110201822Y-102390569D02*
X110743909Y-102932656D01*
X109720569Y-102390569D02*
X110201822Y-102390569D01*
X122700000Y-107620000D02*
X122700000Y-107968004D01*
%TO.N,DIB1{slash}DIB3_SCLK*%
X110313465Y-101954779D02*
X110770690Y-102412004D01*
X124420000Y-109860000D02*
X124420000Y-110082421D01*
X111073071Y-109634328D02*
X110860000Y-109421257D01*
X109156000Y-96076000D02*
X109156000Y-99986000D01*
X110308700Y-101138700D02*
X110308700Y-101837371D01*
X110770690Y-102412004D02*
X110771690Y-102412004D01*
X110860000Y-109421257D02*
X110860000Y-107550000D01*
X115089801Y-89943095D02*
X115084283Y-89948613D01*
X110313465Y-101842136D02*
X110313465Y-101954779D01*
X110308700Y-101837371D02*
X110313465Y-101842136D01*
X124300000Y-110202421D02*
X124300000Y-110700000D01*
X115089801Y-89923213D02*
X115089801Y-89943095D01*
X109010000Y-95930000D02*
X109156000Y-96076000D01*
D32*
X110500000Y-93220000D02*
X110500000Y-90674900D01*
D33*
X109156000Y-99986000D02*
X110308700Y-101138700D01*
D32*
X110610000Y-93330000D02*
X110500000Y-93220000D01*
D33*
X124420000Y-110082421D02*
X124300000Y-110202421D01*
%TO.N,/Ethernet PHY\u002C PSRAM\u002C eMMC/+3V3_LAN*%
X100870000Y-106430000D02*
X100870000Y-105490000D01*
X101840000Y-102080000D02*
X101420000Y-101660000D01*
X100870000Y-104550000D02*
X100870000Y-103610000D01*
X101810000Y-102670000D02*
X100870000Y-103610000D01*
X101840000Y-102670000D02*
X101810000Y-102670000D01*
X101840000Y-102670000D02*
X101840000Y-102080000D01*
X100870000Y-105490000D02*
X100870000Y-104550000D01*
%TO.N,Net-(SoM1B-VBUS_EN_(3.3v))*%
X116980000Y-77860000D02*
X116300000Y-77180000D01*
X116300000Y-77180000D02*
X116300000Y-76595000D01*
%TO.N,Net-(IC6-XTAL2)*%
X104856118Y-107390418D02*
X104775700Y-107310000D01*
X104675700Y-108900000D02*
X105500000Y-108900000D01*
X105570000Y-107429369D02*
X105531049Y-107390418D01*
X105570000Y-108830000D02*
X105570000Y-107429369D01*
X105500000Y-108900000D02*
X105570000Y-108830000D01*
X105531049Y-107390418D02*
X104856118Y-107390418D01*
%TO.N,Net-(IC6-XTAL1{slash}CLKIN)*%
X106214673Y-107310000D02*
X106775700Y-107310000D01*
X105971500Y-109595800D02*
X105971500Y-107553173D01*
X105971500Y-107553173D02*
X106214673Y-107310000D01*
X106875700Y-110500000D02*
X105971500Y-109595800D01*
%TO.N,/DVID converter\u002C NOR Flash/DVDD*%
X136600000Y-93830000D02*
X137014900Y-93830000D01*
X137014900Y-93830000D02*
X137080000Y-93895100D01*
%TO.N,UART_RX{slash}DIN1*%
X125500000Y-106980000D02*
X127139764Y-105340236D01*
X125500000Y-107620000D02*
X125500000Y-106980000D01*
X127139764Y-105340236D02*
X127139764Y-105080236D01*
%TO.N,RS485_RX{slash}DIN3*%
X107940000Y-101070000D02*
X109514569Y-102644569D01*
X109514569Y-102644569D02*
X110095612Y-102644569D01*
X110095612Y-102644569D02*
X110317801Y-102866758D01*
X107738600Y-94850504D02*
X107738600Y-94851400D01*
X110317801Y-102866758D02*
X110317801Y-103054981D01*
X133900000Y-108604310D02*
X133924803Y-108629113D01*
X107080000Y-95510000D02*
X107080000Y-100740000D01*
X133900000Y-107620000D02*
X133900000Y-108604310D01*
X107738600Y-94851400D02*
X107080000Y-95510000D01*
X107410000Y-101070000D02*
X107940000Y-101070000D01*
X107080000Y-100740000D02*
X107410000Y-101070000D01*
D35*
%TO.N,Net-(IC3C-VREFM)*%
X121620000Y-98120000D02*
X120701988Y-98120000D01*
%TO.N,Net-(IC3C-VSSA)*%
X118760002Y-98123012D02*
X117836988Y-98123012D01*
D36*
X117480000Y-98120000D02*
X117820000Y-98120000D01*
D32*
X117820000Y-98120000D02*
X117830000Y-98130000D01*
%TO.N,DVID_CEC*%
X117297802Y-102432198D02*
X117297802Y-102921651D01*
X117630000Y-102100000D02*
X117297802Y-102432198D01*
X127020000Y-103510000D02*
X127270000Y-103510000D01*
X137951246Y-94781246D02*
X137951246Y-85521246D01*
X124355100Y-103064900D02*
X126574900Y-103064900D01*
X137230000Y-96540000D02*
X138020000Y-95750000D01*
X138020000Y-95750000D02*
X138020000Y-94850000D01*
X123410000Y-104010000D02*
X124355100Y-103064900D01*
X117936151Y-103560000D02*
X118080000Y-103560000D01*
X126574900Y-103064900D02*
X127020000Y-103510000D01*
X117297802Y-102921651D02*
X117936151Y-103560000D01*
X120490000Y-104010000D02*
X123410000Y-104010000D01*
X138020000Y-94850000D02*
X137951246Y-94781246D01*
X137951246Y-85521246D02*
X137710000Y-85280000D01*
D35*
%TO.N,/DVID converter\u002C NOR Flash/TVDD*%
X134020000Y-91800000D02*
X134020000Y-90315000D01*
X134020000Y-90315000D02*
X133865000Y-90160000D01*
D32*
%TO.N,DVID_HPD*%
X116385607Y-91936088D02*
X116356088Y-91936088D01*
X116060000Y-87501894D02*
X115883144Y-87325038D01*
X116060000Y-91640000D02*
X116060000Y-87501894D01*
X116356088Y-91936088D02*
X116060000Y-91640000D01*
D33*
%TO.N,REAR_DVID_HPD*%
X124700000Y-77282400D02*
X124700000Y-76780000D01*
X125037600Y-77620000D02*
X124700000Y-77282400D01*
X125180000Y-77620000D02*
X125037600Y-77620000D01*
D32*
%TO.N,RTC_CM5*%
X121440472Y-108450000D02*
X121610000Y-108450000D01*
X121100000Y-108109528D02*
X121440472Y-108450000D01*
X121100000Y-107805000D02*
X121100000Y-108109528D01*
X116228096Y-99768096D02*
X116228096Y-100561904D01*
X115690000Y-101100000D02*
X115690000Y-103030000D01*
X116228096Y-100561904D02*
X115690000Y-101100000D01*
X115690000Y-103030000D02*
X116102713Y-103442712D01*
%TO.N,DIN2*%
X121100000Y-110515000D02*
X121100000Y-110033762D01*
X110600000Y-101590000D02*
X111269818Y-102259818D01*
X109710000Y-95830000D02*
X110550000Y-96670000D01*
X109710000Y-95060000D02*
X109710000Y-95830000D01*
X121100000Y-110033762D02*
X121112774Y-110020988D01*
X110550000Y-101590000D02*
X110600000Y-101590000D01*
X110550000Y-96670000D02*
X110550000Y-101590000D01*
X111269818Y-102259818D02*
X111270598Y-102259818D01*
D33*
%TO.N,UART_TX{slash}DOUT1*%
X125100000Y-107620000D02*
X125100000Y-106569599D01*
X125100000Y-106569599D02*
X125054900Y-106524499D01*
%TO.N,RS485_TX{slash}DOUT3*%
X109758434Y-101835188D02*
X108126400Y-100203154D01*
X108126400Y-96708200D02*
X107978200Y-96560000D01*
X132980000Y-111550000D02*
X131720000Y-111550000D01*
D32*
X112530000Y-107730000D02*
X112530000Y-109467800D01*
D33*
X133500000Y-111030000D02*
X132980000Y-111550000D01*
D32*
X112530000Y-109467800D02*
X112970000Y-109907800D01*
D33*
X131720000Y-111550000D02*
X131500000Y-111330000D01*
X133500000Y-110515000D02*
X133500000Y-111030000D01*
D32*
X108970000Y-106820000D02*
X111620000Y-106820000D01*
X111620000Y-106820000D02*
X112530000Y-107730000D01*
D33*
X108126400Y-100203154D02*
X108126400Y-96708200D01*
D34*
%TO.N,Net-(IC5-VDDI)*%
X100370000Y-85020000D02*
X100640000Y-85290000D01*
X100358614Y-85020000D02*
X100370000Y-85020000D01*
X100358614Y-85020000D02*
X101280000Y-85020000D01*
%TD*%
%TA.AperFunction,Conductor*%
%TO.N,/STM32H7 MCU/VLXSMPS*%
G36*
X118700635Y-100219213D02*
G01*
X118737180Y-100269513D01*
X118742104Y-100300600D01*
X118742104Y-100342767D01*
X118767855Y-100438871D01*
X118767855Y-100438872D01*
X118795163Y-100486169D01*
X118808090Y-100546985D01*
X118782802Y-100603784D01*
X118779177Y-100607603D01*
X118759611Y-100627169D01*
X118711829Y-100709928D01*
X118711829Y-100709929D01*
X118687100Y-100802218D01*
X118687100Y-100897781D01*
X118711829Y-100990070D01*
X118711829Y-100990071D01*
X118711831Y-100990074D01*
X118759608Y-101072826D01*
X118827174Y-101140392D01*
X118881280Y-101171630D01*
X118922883Y-101217835D01*
X118929382Y-101279668D01*
X118928153Y-101284787D01*
X118918598Y-101320447D01*
X118918598Y-101416008D01*
X118943327Y-101508297D01*
X118943327Y-101508298D01*
X118943329Y-101508301D01*
X118991106Y-101591053D01*
X118991108Y-101591055D01*
X119058672Y-101658619D01*
X119060636Y-101660126D01*
X119061640Y-101661587D01*
X119063335Y-101663282D01*
X119063021Y-101663595D01*
X119095855Y-101711363D01*
X119100000Y-101739941D01*
X119100000Y-102133812D01*
X119080787Y-102192943D01*
X119070535Y-102204947D01*
X118946545Y-102328936D01*
X118946543Y-102328939D01*
X118913600Y-102408471D01*
X118913600Y-102799400D01*
X118908676Y-102814554D01*
X118908676Y-102830487D01*
X118899310Y-102843377D01*
X118894387Y-102858531D01*
X118881496Y-102867896D01*
X118872131Y-102880787D01*
X118856977Y-102885710D01*
X118844087Y-102895076D01*
X118813000Y-102900000D01*
X118796672Y-102900000D01*
X118746372Y-102886522D01*
X118677453Y-102846731D01*
X118677448Y-102846729D01*
X118585159Y-102822000D01*
X118585155Y-102822000D01*
X118489601Y-102822000D01*
X118489596Y-102822000D01*
X118397307Y-102846729D01*
X118397302Y-102846731D01*
X118328384Y-102886522D01*
X118278084Y-102900000D01*
X118163908Y-102900000D01*
X118144284Y-102898067D01*
X118117774Y-102892794D01*
X118063528Y-102862413D01*
X118037499Y-102805949D01*
X118036802Y-102794127D01*
X118036802Y-102718089D01*
X118036801Y-102718083D01*
X118012072Y-102625794D01*
X118012072Y-102625793D01*
X118012071Y-102625791D01*
X117964294Y-102543039D01*
X117929465Y-102508210D01*
X117925779Y-102500976D01*
X117919213Y-102496206D01*
X117911933Y-102473800D01*
X117901239Y-102452812D01*
X117900000Y-102437075D01*
X117900000Y-102383550D01*
X117917752Y-102328914D01*
X117917095Y-102328535D01*
X117918880Y-102325442D01*
X117919213Y-102324419D01*
X117920352Y-102322892D01*
X117920387Y-102322830D01*
X117920392Y-102322826D01*
X117968169Y-102240074D01*
X117992900Y-102147777D01*
X117992900Y-102052223D01*
X117982122Y-102012000D01*
X117968170Y-101959929D01*
X117968170Y-101959928D01*
X117943122Y-101916544D01*
X117920392Y-101877174D01*
X117920389Y-101877171D01*
X117917095Y-101871465D01*
X117918328Y-101870752D01*
X117900034Y-101819070D01*
X117900000Y-101816449D01*
X117900000Y-100463908D01*
X117901933Y-100444282D01*
X117915431Y-100376424D01*
X117930452Y-100340160D01*
X117956885Y-100300600D01*
X117963279Y-100291030D01*
X117991030Y-100263279D01*
X118040160Y-100230451D01*
X118076424Y-100215431D01*
X118144282Y-100201933D01*
X118163908Y-100200000D01*
X118641504Y-100200000D01*
X118700635Y-100219213D01*
G37*
%TD.AperFunction*%
%TD*%
%TA.AperFunction,Conductor*%
%TO.N,/CM5 socket/+5V_IN*%
G36*
X131266810Y-109801236D02*
G01*
X131361001Y-109816155D01*
X131390930Y-109825880D01*
X131468749Y-109865531D01*
X131494212Y-109884031D01*
X131555968Y-109945787D01*
X131574468Y-109971250D01*
X131614118Y-110049066D01*
X131623844Y-110079001D01*
X131632712Y-110134992D01*
X131632124Y-110164980D01*
X131632584Y-110165026D01*
X131632100Y-110169939D01*
X131632100Y-110769081D01*
X131630854Y-110784862D01*
X131623752Y-110829574D01*
X131613972Y-110859584D01*
X131587028Y-110912291D01*
X131543006Y-110956196D01*
X131497454Y-110967100D01*
X131452218Y-110967100D01*
X131359929Y-110991829D01*
X131359928Y-110991829D01*
X131277171Y-111039610D01*
X131238358Y-111078423D01*
X131182960Y-111106649D01*
X131166775Y-111107886D01*
X130341946Y-111104205D01*
X129787190Y-111101728D01*
X129771503Y-111100426D01*
X129677653Y-111085175D01*
X129647838Y-111075370D01*
X129570361Y-111035588D01*
X129545023Y-111017076D01*
X129483568Y-110955346D01*
X129465175Y-110929935D01*
X129425734Y-110852271D01*
X129416064Y-110822418D01*
X129401231Y-110728490D01*
X129400000Y-110712798D01*
X129400000Y-110188914D01*
X129401236Y-110173189D01*
X129416155Y-110078996D01*
X129425880Y-110049069D01*
X129425882Y-110049066D01*
X129465533Y-109971246D01*
X129484028Y-109945790D01*
X129545790Y-109884028D01*
X129571246Y-109865533D01*
X129649070Y-109825879D01*
X129678996Y-109816155D01*
X129773189Y-109801236D01*
X129788914Y-109800000D01*
X131251086Y-109800000D01*
X131266810Y-109801236D01*
G37*
%TD.AperFunction*%
%TD*%
M02*
