M48
; DRILL file {KiCad 9.0.6-9.0.6~ubuntu24.04.1} date 2025-11-03T18:30:38+0100
; FORMAT={-:-/ absolute / inch / decimal}
; #@! TF.CreationDate,2025-11-03T18:30:38+01:00
; #@! TF.GenerationSoftware,Kicad,Pcbnew,9.0.6-9.0.6~ubuntu24.04.1
; #@! TF.FileFunction,Plated,5,6,Blind
FMAT,2
INCH
; #@! TA.AperFunction,Plated,Buried,ViaDrill
T1C0.0079
; #@! TA.AperFunction,Plated,Buried,ViaDrill
T2C0.0118
%
G90
G05
T1
X4.4161Y-3.6453
X4.5869Y-4.3316
X4.5954Y-3.744
X4.6387Y-3.8511
X4.7456Y-4.273
X4.7528Y-3.7516
X4.8037Y-4.2678
X4.8307Y-2.9224
X4.8317Y-4.3224
X4.878Y-2.9232
X4.9039Y-3.7295
X4.9252Y-2.9232
X4.9724Y-2.9232
X5.0197Y-2.9232
X5.0669Y-2.9232
X5.0705Y-2.9957
X5.1142Y-2.9232
X5.161Y-2.9232
X5.2083Y-2.9232
T2
X3.8563Y-3.4327
X3.8563Y-3.5067
X3.9177Y-3.6047
X3.9177Y-3.6417
X4.0268Y-4.0421
X4.0854Y-4.2465
X4.1189Y-3.4122
X4.1914Y-3.4122
X4.2445Y-4.2484
X4.3531Y-3.2945
X4.3606Y-3.2354
X4.4728Y-4.0429
X4.5Y-4.2654
X4.5004Y-4.3295
X4.5445Y-3.637
X4.5472Y-2.9252
X4.5472Y-2.9992
X4.5472Y-4.2654
X4.5476Y-4.3295
X4.5594Y-3.3295
X4.5846Y-3.8634
X4.5945Y-2.9252
X4.5945Y-2.9992
X4.5945Y-4.2654
X4.6185Y-3.6909
X4.6205Y-3.9394
X4.6417Y-2.9252
X4.6417Y-2.9992
X4.6453Y-3.1232
X4.6516Y-3.3634
X4.6522Y-4.2655
X4.6608Y-4.3295
X4.6791Y-3.1634
X4.6803Y-3.7539
X4.689Y-2.9252
X4.689Y-2.9992
X4.6898Y-3.5205
X4.6945Y-3.6909
X4.7071Y-4.0744
X4.7104Y-3.6055
X4.7169Y-3.7535
X4.7282Y-3.9329
X4.7297Y-4.0744
X4.7299Y-3.6902
X4.7362Y-2.9252
X4.7362Y-2.9992
X4.7488Y-3.5213
X4.7579Y-3.3898
X4.7603Y-4.3287
X4.7697Y-3.848
X4.7791Y-3.7913
X4.7835Y-2.8783
X4.7835Y-2.9992
X4.8031Y-3.6024
X4.822Y-3.6925
X4.8307Y-3.3898
X4.8882Y-4.0176
X4.8886Y-3.8598
X4.8975Y-4.2655
X4.9093Y-4.3853
X4.9252Y-2.9992
X4.9567Y-4.2654
X4.9571Y-4.3295
X4.9724Y-2.9992
X5.0039Y-4.3295
X5.0043Y-4.2654
X5.0197Y-3.0469
X5.0512Y-4.3295
X5.0669Y-4.2654
X5.1142Y-2.9992
X5.1354Y-4.0122
X5.1563Y-3.9961
X5.1614Y-2.9992
X5.1835Y-3.6961
X5.2005Y-4.3304
X5.2087Y-2.9992
X5.2091Y-3.5236
X5.2303Y-3.7362
X5.2514Y-4.2681
X5.2559Y-2.8783
X5.2559Y-2.9992
X5.3232Y-3.6937
M30
