%TF.GenerationSoftware,KiCad,Pcbnew,9.0.6-9.0.6~ubuntu24.04.1*%
%TF.CreationDate,2025-11-24T10:57:28+01:00*%
%TF.ProjectId,BB3plus CM5 STM32H7 module,42423370-6c75-4732-9043-4d352053544d,r1B1*%
%TF.SameCoordinates,Original*%
%TF.FileFunction,Copper,L6,Bot*%
%TF.FilePolarity,Positive*%
%FSLAX46Y46*%
G04 Gerber Fmt 4.6, Leading zero omitted, Abs format (unit mm)*
G04 Created by KiCad (PCBNEW 9.0.6-9.0.6~ubuntu24.04.1) date 2025-11-24 10:57:28*
%MOMM*%
%LPD*%
G01*
G04 APERTURE LIST*
G04 Aperture macros list*
%AMRoundRect*
0 Rectangle with rounded corners*
0 $1 Rounding radius*
0 $2 $3 $4 $5 $6 $7 $8 $9 X,Y pos of 4 corners*
0 Add a 4 corners polygon primitive as box body*
4,1,4,$2,$3,$4,$5,$6,$7,$8,$9,$2,$3,0*
0 Add four circle primitives for the rounded corners*
1,1,$1+$1,$2,$3*
1,1,$1+$1,$4,$5*
1,1,$1+$1,$6,$7*
1,1,$1+$1,$8,$9*
0 Add four rect primitives between the rounded corners*
20,1,$1+$1,$2,$3,$4,$5,0*
20,1,$1+$1,$4,$5,$6,$7,0*
20,1,$1+$1,$6,$7,$8,$9,0*
20,1,$1+$1,$8,$9,$2,$3,0*%
G04 Aperture macros list end*
%TA.AperFunction,EtchedComponent*%
%ADD10C,0.000000*%
%TD*%
%TA.AperFunction,SMDPad,CuDef*%
%ADD11R,0.200000X0.700000*%
%TD*%
%TA.AperFunction,SMDPad,CuDef*%
%ADD12RoundRect,0.140000X-0.170000X0.140000X-0.170000X-0.140000X0.170000X-0.140000X0.170000X0.140000X0*%
%TD*%
%TA.AperFunction,SMDPad,CuDef*%
%ADD13R,1.400000X1.200000*%
%TD*%
%TA.AperFunction,SMDPad,CuDef*%
%ADD14RoundRect,0.140000X0.170000X-0.140000X0.170000X0.140000X-0.170000X0.140000X-0.170000X-0.140000X0*%
%TD*%
%TA.AperFunction,SMDPad,CuDef*%
%ADD15RoundRect,0.140000X0.140000X0.170000X-0.140000X0.170000X-0.140000X-0.170000X0.140000X-0.170000X0*%
%TD*%
%TA.AperFunction,SMDPad,CuDef*%
%ADD16RoundRect,0.225000X-0.225000X-0.250000X0.225000X-0.250000X0.225000X0.250000X-0.225000X0.250000X0*%
%TD*%
%TA.AperFunction,SMDPad,CuDef*%
%ADD17RoundRect,0.140000X-0.140000X-0.170000X0.140000X-0.170000X0.140000X0.170000X-0.140000X0.170000X0*%
%TD*%
%TA.AperFunction,SMDPad,CuDef*%
%ADD18RoundRect,0.225000X0.250000X-0.225000X0.250000X0.225000X-0.250000X0.225000X-0.250000X-0.225000X0*%
%TD*%
%TA.AperFunction,SMDPad,CuDef*%
%ADD19RoundRect,0.225000X0.225000X0.250000X-0.225000X0.250000X-0.225000X-0.250000X0.225000X-0.250000X0*%
%TD*%
%TA.AperFunction,SMDPad,CuDef*%
%ADD20C,0.200000*%
%TD*%
%TA.AperFunction,SMDPad,CuDef*%
%ADD21RoundRect,0.225000X-0.250000X0.225000X-0.250000X-0.225000X0.250000X-0.225000X0.250000X0.225000X0*%
%TD*%
%TA.AperFunction,SMDPad,CuDef*%
%ADD22RoundRect,0.135000X0.135000X0.185000X-0.135000X0.185000X-0.135000X-0.185000X0.135000X-0.185000X0*%
%TD*%
%TA.AperFunction,SMDPad,CuDef*%
%ADD23RoundRect,0.050800X0.449200X0.499200X-0.449200X0.499200X-0.449200X-0.499200X0.449200X-0.499200X0*%
%TD*%
%TA.AperFunction,SMDPad,CuDef*%
%ADD24RoundRect,0.042333X-0.402167X-0.833967X0.402167X-0.833967X0.402167X0.833967X-0.402167X0.833967X0*%
%TD*%
%TA.AperFunction,SMDPad,CuDef*%
%ADD25R,1.200000X1.400000*%
%TD*%
%TA.AperFunction,SMDPad,CuDef*%
%ADD26RoundRect,0.135000X-0.135000X-0.185000X0.135000X-0.185000X0.135000X0.185000X-0.135000X0.185000X0*%
%TD*%
%TA.AperFunction,SMDPad,CuDef*%
%ADD27RoundRect,0.050800X-0.499200X0.449200X-0.499200X-0.449200X0.499200X-0.449200X0.499200X0.449200X0*%
%TD*%
%TA.AperFunction,ViaPad*%
%ADD28C,0.420000*%
%TD*%
%TA.AperFunction,ViaPad*%
%ADD29C,0.450000*%
%TD*%
%TA.AperFunction,ViaPad*%
%ADD30C,0.500000*%
%TD*%
%TA.AperFunction,Conductor*%
%ADD31C,0.152400*%
%TD*%
%TA.AperFunction,Conductor*%
%ADD32C,0.127000*%
%TD*%
%TA.AperFunction,Conductor*%
%ADD33C,0.508000*%
%TD*%
%TA.AperFunction,Conductor*%
%ADD34C,0.203200*%
%TD*%
%TA.AperFunction,Conductor*%
%ADD35C,0.254000*%
%TD*%
%TA.AperFunction,Conductor*%
%ADD36C,0.406400*%
%TD*%
G04 APERTURE END LIST*
D10*
%TA.AperFunction,EtchedComponent*%
%TO.C,NT1*%
G36*
X117480000Y-98220000D02*
G01*
X117080000Y-98220000D01*
X117080000Y-98020000D01*
X117480000Y-98020000D01*
X117480000Y-98220000D01*
G37*
%TD.AperFunction*%
%TA.AperFunction,EtchedComponent*%
%TO.C,NT2*%
G36*
X121260000Y-98099999D02*
G01*
X121060000Y-98099999D01*
X121060000Y-97699999D01*
X121260000Y-97699999D01*
X121260000Y-98099999D01*
G37*
%TD.AperFunction*%
%TD*%
D11*
%TO.P,SoM1,1,GND*%
%TO.N,GND*%
X114300000Y-110700000D03*
%TO.P,SoM1,2,GND*%
X114300000Y-107620000D03*
%TO.P,SoM1,3,Ethernet_Pair3_P*%
%TO.N,unconnected-(SoM1A-Ethernet_Pair3_P-Pad3)*%
X114700000Y-110700000D03*
%TO.P,SoM1,4,Ethernet_Pair1_P*%
%TO.N,ETH_TXRX_B+*%
X114700000Y-107620000D03*
%TO.P,SoM1,5,Ethernet_Pair3_N*%
%TO.N,unconnected-(SoM1A-Ethernet_Pair3_N-Pad5)*%
X115100000Y-110700000D03*
%TO.P,SoM1,6,Ethernet_Pair1_N*%
%TO.N,ETH_TXRX_B-*%
X115100000Y-107620000D03*
%TO.P,SoM1,7,GND*%
%TO.N,GND*%
X115500000Y-110700000D03*
%TO.P,SoM1,8,GND*%
X115500000Y-107620000D03*
%TO.P,SoM1,9,Ethernet_Pair2_N*%
%TO.N,unconnected-(SoM1A-Ethernet_Pair2_N-Pad9)*%
X115900000Y-110700000D03*
%TO.P,SoM1,10,Ethernet_Pair0_N*%
%TO.N,ETH_TXRX_A-*%
X115900000Y-107620000D03*
%TO.P,SoM1,11,Ethernet_Pair2_P*%
%TO.N,unconnected-(SoM1A-Ethernet_Pair2_P-Pad11)*%
X116300000Y-110700000D03*
%TO.P,SoM1,12,Ethernet_Pair0_P*%
%TO.N,ETH_TXRX_A+*%
X116300000Y-107620000D03*
%TO.P,SoM1,13,GND*%
%TO.N,GND*%
X116700000Y-110700000D03*
%TO.P,SoM1,14,GND*%
X116700000Y-107620000D03*
%TO.P,SoM1,15,Ethernet_nLED3(3.3v)*%
%TO.N,~{ETH_LINK_ACT}*%
X117100000Y-110700000D03*
%TO.P,SoM1,16,Fan_Tacho*%
%TO.N,unconnected-(SoM1A-Fan_Tacho-Pad16)*%
X117100000Y-107620000D03*
%TO.P,SoM1,17,Ethernet_nLED2(3.3v)*%
%TO.N,~{ETH_LINK100}*%
X117500000Y-110700000D03*
%TO.P,SoM1,18,Ethernet_SYNC_OUT(1.8v)*%
%TO.N,unconnected-(SoM1A-Ethernet_SYNC_OUT(1.8v)-Pad18)*%
X117500000Y-107620000D03*
%TO.P,SoM1,19,Fan_PWM*%
%TO.N,unconnected-(SoM1A-Fan_PWM-Pad19)*%
X117900000Y-110700000D03*
%TO.P,SoM1,20,EEPROM_nWP*%
%TO.N,unconnected-(SoM1A-EEPROM_nWP-Pad20)*%
X117900000Y-107620000D03*
%TO.P,SoM1,21,LED_nACT*%
%TO.N,~{LED_ACT}*%
X118300000Y-110700000D03*
%TO.P,SoM1,22,GND*%
%TO.N,GND*%
X118300000Y-107620000D03*
%TO.P,SoM1,23,GND*%
X118700000Y-110700000D03*
%TO.P,SoM1,24,GPIO26*%
%TO.N,~{SYSMCU_CS}*%
X118700000Y-107620000D03*
%TO.P,SoM1,25,GPIO21*%
%TO.N,~{DIB3_IRQ}*%
X119100000Y-110700000D03*
%TO.P,SoM1,26,GPIO19*%
%TO.N,~{DIB1_IRQ}*%
X119100000Y-107620000D03*
%TO.P,SoM1,27,GPIO20*%
%TO.N,~{DIB2_IRQ}*%
X119500000Y-110700000D03*
%TO.P,SoM1,28,GPIO13*%
%TO.N,DIB1{slash}DIB3_MISO*%
X119500000Y-107620000D03*
%TO.P,SoM1,29,GPIO16*%
%TO.N,RS485_TX_EN{slash}DOUT2*%
X119900000Y-110700000D03*
%TO.P,SoM1,30,GPIO6*%
%TO.N,DIB4_MOSI*%
X119900000Y-107620000D03*
%TO.P,SoM1,31,GPIO12*%
%TO.N,~{DIB1_CSA}*%
X120300000Y-110700000D03*
%TO.P,SoM1,32,GND*%
%TO.N,GND*%
X120300000Y-107620000D03*
%TO.P,SoM1,33,GND*%
X120700000Y-110700000D03*
%TO.P,SoM1,34,GPIO5*%
%TO.N,DIB4_MISO*%
X120700000Y-107620000D03*
%TO.P,SoM1,35,ID_SC/GPIO1*%
%TO.N,DIN2*%
X121100000Y-110700000D03*
%TO.P,SoM1,36,ID_SD/GPIO0*%
%TO.N,unconnected-(SoM1A-ID_SD{slash}GPIO0-Pad36)*%
X121100000Y-107620000D03*
%TO.P,SoM1,37,GPIO7*%
%TO.N,DIB4_SCLK*%
X121500000Y-110700000D03*
%TO.P,SoM1,38,GPIO11*%
%TO.N,DIB2{slash}DIB5_SCLK*%
X121500000Y-107620000D03*
%TO.P,SoM1,39,GPIO8*%
%TO.N,~{DIB2_CSA}*%
X121900000Y-110700000D03*
%TO.P,SoM1,40,GPIO9*%
%TO.N,DIB2{slash}DIB5_MISO*%
X121900000Y-107620000D03*
%TO.P,SoM1,41,GPIO25*%
%TO.N,~{TFT_IRQ}*%
X122300000Y-110700000D03*
%TO.P,SoM1,42,GND*%
%TO.N,GND*%
X122300000Y-107620000D03*
%TO.P,SoM1,43,GND*%
X122700000Y-110700000D03*
%TO.P,SoM1,44,GPIO10*%
%TO.N,DIB2{slash}DIB5_MOSI*%
X122700000Y-107620000D03*
%TO.P,SoM1,45,GPIO24*%
%TO.N,~{SYSMCU_IRQ}*%
X123100000Y-110700000D03*
%TO.P,SoM1,46,GPIO22*%
%TO.N,~{DIB4_IRQ}*%
X123100000Y-107620000D03*
%TO.P,SoM1,47,GPIO23*%
%TO.N,~{DIB5_IRQ}*%
X123500000Y-110700000D03*
%TO.P,SoM1,48,GPIO27*%
%TO.N,WDG_IN*%
X123500000Y-107620000D03*
%TO.P,SoM1,49,GPIO18*%
%TO.N,~{DIB5_CSA}*%
X123900000Y-110700000D03*
%TO.P,SoM1,50,GPIO17*%
%TO.N,~{DIB3_CSA}*%
X123900000Y-107620000D03*
%TO.P,SoM1,51,GPIO15*%
%TO.N,DIB1{slash}DIB3_SCLK*%
X124300000Y-110700000D03*
%TO.P,SoM1,52,GND*%
%TO.N,GND*%
X124300000Y-107620000D03*
%TO.P,SoM1,53,GND*%
X124700000Y-110700000D03*
%TO.P,SoM1,54,GPIO4*%
%TO.N,~{DIB4_CSA}*%
X124700000Y-107620000D03*
%TO.P,SoM1,55,GPIO14*%
%TO.N,DIB1{slash}DIB3_MOSI*%
X125100000Y-110700000D03*
%TO.P,SoM1,56,GPIO3*%
%TO.N,UART_TX{slash}DOUT1*%
X125100000Y-107620000D03*
%TO.P,SoM1,57,SD_CLK*%
%TO.N,unconnected-(SoM1A-SD_CLK-Pad57)*%
X125500000Y-110700000D03*
%TO.P,SoM1,58,GPIO2*%
%TO.N,UART_RX{slash}DIN1*%
X125500000Y-107620000D03*
%TO.P,SoM1,59,GND*%
%TO.N,GND*%
X125900000Y-110700000D03*
%TO.P,SoM1,60,GND*%
X125900000Y-107620000D03*
%TO.P,SoM1,61,SD_DAT3*%
%TO.N,unconnected-(SoM1A-SD_DAT3-Pad61)*%
X126300000Y-110700000D03*
%TO.P,SoM1,62,SD_CMD*%
%TO.N,unconnected-(SoM1A-SD_CMD-Pad62)*%
X126300000Y-107620000D03*
%TO.P,SoM1,63,SD_DAT0*%
%TO.N,unconnected-(SoM1A-SD_DAT0-Pad63)*%
X126700000Y-110700000D03*
%TO.P,SoM1,64,SD_DAT5*%
%TO.N,unconnected-(SoM1A-SD_DAT5-Pad64)*%
X126700000Y-107620000D03*
%TO.P,SoM1,65,GND*%
%TO.N,GND*%
X127100000Y-110700000D03*
%TO.P,SoM1,66,GND*%
X127100000Y-107620000D03*
%TO.P,SoM1,67,SD_DAT1*%
%TO.N,unconnected-(SoM1A-SD_DAT1-Pad67)*%
X127500000Y-110700000D03*
%TO.P,SoM1,68,SD_DAT4*%
%TO.N,unconnected-(SoM1A-SD_DAT4-Pad68)*%
X127500000Y-107620000D03*
%TO.P,SoM1,69,SD_DAT2*%
%TO.N,unconnected-(SoM1A-SD_DAT2-Pad69)*%
X127900000Y-110700000D03*
%TO.P,SoM1,70,SD_DAT7*%
%TO.N,unconnected-(SoM1A-SD_DAT7-Pad70)*%
X127900000Y-107620000D03*
%TO.P,SoM1,71,GND*%
%TO.N,GND*%
X128300000Y-110700000D03*
%TO.P,SoM1,72,SD_DAT6*%
%TO.N,unconnected-(SoM1A-SD_DAT6-Pad72)*%
X128300000Y-107620000D03*
%TO.P,SoM1,73,SD_VDD_Override*%
%TO.N,unconnected-(SoM1A-SD_VDD_Override-Pad73)*%
X128700000Y-110700000D03*
%TO.P,SoM1,74,GND*%
%TO.N,GND*%
X128700000Y-107620000D03*
%TO.P,SoM1,75,SD_PWR_ON*%
%TO.N,unconnected-(SoM1A-SD_PWR_ON-Pad75)*%
X129100000Y-110700000D03*
%TO.P,SoM1,76,VBAT*%
%TO.N,+VAUX*%
X129100000Y-107620000D03*
%TO.P,SoM1,77,+5v(Input)*%
%TO.N,/CM5 socket/+5V_IN*%
X129500000Y-110700000D03*
%TO.P,SoM1,78,GPIO_VREF(1.8v/3.3v_Input)*%
%TO.N,GPIO_VREF*%
X129500000Y-107620000D03*
%TO.P,SoM1,79,+5v(Input)*%
%TO.N,/CM5 socket/+5V_IN*%
X129900000Y-110700000D03*
%TO.P,SoM1,80,SCL0*%
%TO.N,SCL*%
X129900000Y-107620000D03*
%TO.P,SoM1,81,+5v(Input)*%
%TO.N,/CM5 socket/+5V_IN*%
X130300000Y-110700000D03*
%TO.P,SoM1,82,SDA0*%
%TO.N,SDA*%
X130300000Y-107620000D03*
%TO.P,SoM1,83,+5v(Input)*%
%TO.N,/CM5 socket/+5V_IN*%
X130700000Y-110700000D03*
%TO.P,SoM1,84,CM5_3.3v*%
%TO.N,+3V3*%
X130700000Y-107620000D03*
%TO.P,SoM1,85,+5v(Input)*%
%TO.N,/CM5 socket/+5V_IN*%
X131100000Y-110700000D03*
%TO.P,SoM1,86,CM5_3.3v*%
%TO.N,+3V3*%
X131100000Y-107620000D03*
%TO.P,SoM1,87,+5v(Input)*%
%TO.N,/CM5 socket/+5V_IN*%
X131500000Y-110700000D03*
%TO.P,SoM1,88,CM5_1.8v*%
%TO.N,+1V8*%
X131500000Y-107620000D03*
%TO.P,SoM1,89,WiFi_nDisable*%
%TO.N,GND*%
X131900000Y-110700000D03*
%TO.P,SoM1,90,CM5_1.8v*%
%TO.N,+1V8*%
X131900000Y-107620000D03*
%TO.P,SoM1,91,BT_nDisable*%
%TO.N,GND*%
X132300000Y-110700000D03*
%TO.P,SoM1,92,PWR_Button*%
%TO.N,~{RESET_OUT}*%
X132300000Y-107620000D03*
%TO.P,SoM1,93,nRPIBOOT*%
%TO.N,BOOT0*%
X132700000Y-110700000D03*
%TO.P,SoM1,94,CC1*%
%TO.N,unconnected-(SoM1A-CC1-Pad94)*%
X132700000Y-107620000D03*
%TO.P,SoM1,95,LED_nPWR*%
%TO.N,~{LED_PWR}*%
X133100000Y-110700000D03*
%TO.P,SoM1,96,CC2*%
%TO.N,unconnected-(SoM1A-CC2-Pad96)*%
X133100000Y-107620000D03*
%TO.P,SoM1,97,CAM_GPIO0*%
%TO.N,RS485_TX{slash}DOUT3*%
X133500000Y-110700000D03*
%TO.P,SoM1,98,GND*%
%TO.N,GND*%
X133500000Y-107620000D03*
%TO.P,SoM1,99,PMIC_EN*%
%TO.N,unconnected-(SoM1A-PMIC_EN-Pad99)*%
X133900000Y-110700000D03*
%TO.P,SoM1,100,CAM_GPIO1*%
%TO.N,RS485_RX{slash}DIN3*%
X133900000Y-107620000D03*
%TO.P,SoM1,101,USB_OTG_ID*%
%TO.N,unconnected-(SoM1B-USB_OTG_ID-Pad101)*%
X114300000Y-76780000D03*
%TO.P,SoM1,102,PCIe_CLK_nREQ*%
%TO.N,unconnected-(SoM1B-PCIe_CLK_nREQ-Pad102)*%
X114300000Y-73700000D03*
%TO.P,SoM1,103,USB_N*%
%TO.N,unconnected-(SoM1B-USB_N-Pad103)*%
X114700000Y-76780000D03*
%TO.P,SoM1,104,PCIE_nWAKE*%
%TO.N,unconnected-(SoM1B-PCIE_nWAKE-Pad104)*%
X114700000Y-73700000D03*
%TO.P,SoM1,105,USB_P*%
%TO.N,unconnected-(SoM1B-USB_P-Pad105)*%
X115100000Y-76780000D03*
%TO.P,SoM1,106,PCIE_PWR_EN*%
%TO.N,unconnected-(SoM1B-PCIE_PWR_EN-Pad106)*%
X115100000Y-73700000D03*
%TO.P,SoM1,107,GND*%
%TO.N,GND*%
X115500000Y-76780000D03*
%TO.P,SoM1,108,GND*%
X115500000Y-73700000D03*
%TO.P,SoM1,109,PCIe_nRST*%
%TO.N,unconnected-(SoM1B-PCIe_nRST-Pad109)*%
X115900000Y-76780000D03*
%TO.P,SoM1,110,PCIe_CLK_P*%
%TO.N,unconnected-(SoM1B-PCIe_CLK_P-Pad110)*%
X115900000Y-73700000D03*
%TO.P,SoM1,111,VBUS_EN_(3.3v)*%
%TO.N,unconnected-(SoM1B-VBUS_EN_(3.3v)-Pad111)*%
X116300000Y-76780000D03*
%TO.P,SoM1,112,PCIe_CLK_N*%
%TO.N,unconnected-(SoM1B-PCIe_CLK_N-Pad112)*%
X116300000Y-73700000D03*
%TO.P,SoM1,113,GND*%
%TO.N,GND*%
X116700000Y-76780000D03*
%TO.P,SoM1,114,GND*%
X116700000Y-73700000D03*
%TO.P,SoM1,115,MIPI0_D0_N*%
%TO.N,unconnected-(SoM1B-MIPI0_D0_N-Pad115)*%
X117100000Y-76780000D03*
%TO.P,SoM1,116,PCIe_RX_P*%
%TO.N,unconnected-(SoM1B-PCIe_RX_P-Pad116)*%
X117100000Y-73700000D03*
%TO.P,SoM1,117,MIPI0_D0_P*%
%TO.N,unconnected-(SoM1B-MIPI0_D0_P-Pad117)*%
X117500000Y-76780000D03*
%TO.P,SoM1,118,PCIe_RX_N*%
%TO.N,unconnected-(SoM1B-PCIe_RX_N-Pad118)*%
X117500000Y-73700000D03*
%TO.P,SoM1,119,GND*%
%TO.N,GND*%
X117900000Y-76780000D03*
%TO.P,SoM1,120,GND*%
X117900000Y-73700000D03*
%TO.P,SoM1,121,MIPI0_D1_N*%
%TO.N,unconnected-(SoM1B-MIPI0_D1_N-Pad121)*%
X118300000Y-76780000D03*
%TO.P,SoM1,122,PCIe_TX_P*%
%TO.N,unconnected-(SoM1B-PCIe_TX_P-Pad122)*%
X118300000Y-73700000D03*
%TO.P,SoM1,123,MIPI0_D1_P*%
%TO.N,unconnected-(SoM1B-MIPI0_D1_P-Pad123)*%
X118700000Y-76780000D03*
%TO.P,SoM1,124,PCIe_TX_N*%
%TO.N,unconnected-(SoM1B-PCIe_TX_N-Pad124)*%
X118700000Y-73700000D03*
%TO.P,SoM1,125,GND*%
%TO.N,GND*%
X119100000Y-76780000D03*
%TO.P,SoM1,126,GND*%
X119100000Y-73700000D03*
%TO.P,SoM1,127,MIPI0_C_N*%
%TO.N,unconnected-(SoM1B-MIPI0_C_N-Pad127)*%
X119500000Y-76780000D03*
%TO.P,SoM1,128,USB3-0-RX_N*%
%TO.N,unconnected-(SoM1B-USB3-0-RX_N-Pad128)*%
X119500000Y-73700000D03*
%TO.P,SoM1,129,MIPI0_C_P*%
%TO.N,unconnected-(SoM1B-MIPI0_C_P-Pad129)*%
X119900000Y-76780000D03*
%TO.P,SoM1,130,USB3-0-RX_P*%
%TO.N,unconnected-(SoM1B-USB3-0-RX_P-Pad130)*%
X119900000Y-73700000D03*
%TO.P,SoM1,131,GND*%
%TO.N,GND*%
X120300000Y-76780000D03*
%TO.P,SoM1,132,GND*%
X120300000Y-73700000D03*
%TO.P,SoM1,133,MIPI0_D2_N*%
%TO.N,unconnected-(SoM1B-MIPI0_D2_N-Pad133)*%
X120700000Y-76780000D03*
%TO.P,SoM1,134,USB3-0-DP*%
%TO.N,DIB1_USB_D+*%
X120700000Y-73700000D03*
%TO.P,SoM1,135,MIPI0_D2_P*%
%TO.N,unconnected-(SoM1B-MIPI0_D2_P-Pad135)*%
X121100000Y-76780000D03*
%TO.P,SoM1,136,USB3-0-DM*%
%TO.N,DIB1_USB_D-*%
X121100000Y-73700000D03*
%TO.P,SoM1,137,GND*%
%TO.N,GND*%
X121500000Y-76780000D03*
%TO.P,SoM1,138,GND*%
X121500000Y-73700000D03*
%TO.P,SoM1,139,MIPI0_D3_N*%
%TO.N,unconnected-(SoM1B-MIPI0_D3_N-Pad139)*%
X121900000Y-76780000D03*
%TO.P,SoM1,140,USB3-0-TX_N*%
%TO.N,unconnected-(SoM1B-USB3-0-TX_N-Pad140)*%
X121900000Y-73700000D03*
%TO.P,SoM1,141,MIPI0_D3_P*%
%TO.N,unconnected-(SoM1B-MIPI0_D3_P-Pad141)*%
X122300000Y-76780000D03*
%TO.P,SoM1,142,USB3-0-TX_P*%
%TO.N,unconnected-(SoM1B-USB3-0-TX_P-Pad142)*%
X122300000Y-73700000D03*
%TO.P,SoM1,143,HDMI1_HOTPLUG*%
%TO.N,unconnected-(SoM1B-HDMI1_HOTPLUG-Pad143)*%
X122700000Y-76780000D03*
%TO.P,SoM1,144,GND*%
%TO.N,GND*%
X122700000Y-73700000D03*
%TO.P,SoM1,145,HDMI1_SDA*%
%TO.N,unconnected-(SoM1B-HDMI1_SDA-Pad145)*%
X123100000Y-76780000D03*
%TO.P,SoM1,146,HDMI1_TX2_P*%
%TO.N,TFT_DVID_TX2_P*%
X123100000Y-73700000D03*
%TO.P,SoM1,147,HDMI1_SCL*%
%TO.N,unconnected-(SoM1B-HDMI1_SCL-Pad147)*%
X123500000Y-76780000D03*
%TO.P,SoM1,148,HDMI1_TX2_N*%
%TO.N,TFT_DVID_TX2_N*%
X123500000Y-73700000D03*
%TO.P,SoM1,149,HDMI1_CEC*%
%TO.N,unconnected-(SoM1B-HDMI1_CEC-Pad149)*%
X123900000Y-76780000D03*
%TO.P,SoM1,150,GND*%
%TO.N,GND*%
X123900000Y-73700000D03*
%TO.P,SoM1,151,HDMI0_CEC*%
%TO.N,REAR_DVID_CEC*%
X124300000Y-76780000D03*
%TO.P,SoM1,152,HDMI1_TX1_P*%
%TO.N,TFT_DVID_TX1_P*%
X124300000Y-73700000D03*
%TO.P,SoM1,153,HDMI0_HOTPLUG*%
%TO.N,REAR_DVID_HPD*%
X124700000Y-76780000D03*
%TO.P,SoM1,154,HDMI1_TX1_N*%
%TO.N,TFT_DVID_TX1_N*%
X124700000Y-73700000D03*
%TO.P,SoM1,155,GND*%
%TO.N,GND*%
X125100000Y-76780000D03*
%TO.P,SoM1,156,GND*%
X125100000Y-73700000D03*
%TO.P,SoM1,157,USB3-1-RX_N*%
%TO.N,unconnected-(SoM1B-USB3-1-RX_N-Pad157)*%
X125500000Y-76780000D03*
%TO.P,SoM1,158,HDMI1_TX0_P*%
%TO.N,TFT_DVID_TX0_P*%
X125500000Y-73700000D03*
%TO.P,SoM1,159,USB3-1-RX_P*%
%TO.N,unconnected-(SoM1B-USB3-1-RX_P-Pad159)*%
X125900000Y-76780000D03*
%TO.P,SoM1,160,HDMI1_TX0_N*%
%TO.N,TFT_DVID_TX0_N*%
X125900000Y-73700000D03*
%TO.P,SoM1,161,GND*%
%TO.N,GND*%
X126300000Y-76780000D03*
%TO.P,SoM1,162,GND*%
X126300000Y-73700000D03*
%TO.P,SoM1,163,USB3-1-DP*%
%TO.N,unconnected-(SoM1B-USB3-1-DP-Pad163)*%
X126700000Y-76780000D03*
%TO.P,SoM1,164,HDMI1_CLK_P*%
%TO.N,TFT_DVID_CLK_P*%
X126700000Y-73700000D03*
%TO.P,SoM1,165,USB3-1-DM*%
%TO.N,unconnected-(SoM1B-USB3-1-DM-Pad165)*%
X127100000Y-76780000D03*
%TO.P,SoM1,166,HDMI1_CLK_N*%
%TO.N,TFT_DVID_CLK_N*%
X127100000Y-73700000D03*
%TO.P,SoM1,167,GND*%
%TO.N,GND*%
X127500000Y-76780000D03*
%TO.P,SoM1,168,GND*%
X127500000Y-73700000D03*
%TO.P,SoM1,169,USB3-1-TX_N*%
%TO.N,MCU_USB_UP_TX-*%
X127900000Y-76780000D03*
%TO.P,SoM1,170,HDMI0_TX2_P*%
%TO.N,REAR_DVID_TX2_P*%
X127900000Y-73700000D03*
%TO.P,SoM1,171,USB3-1-TX_P*%
%TO.N,MCU_USB_UP_TX+*%
X128300000Y-76780000D03*
%TO.P,SoM1,172,HDMI0_TX2_N*%
%TO.N,REAR_DVID_TX2_N*%
X128300000Y-73700000D03*
%TO.P,SoM1,173,GND*%
%TO.N,GND*%
X128700000Y-76780000D03*
%TO.P,SoM1,174,GND*%
X128700000Y-73700000D03*
%TO.P,SoM1,175,MIPI1_D0_N*%
%TO.N,unconnected-(SoM1B-MIPI1_D0_N-Pad175)*%
X129100000Y-76780000D03*
%TO.P,SoM1,176,HDMI0_TX1_P*%
%TO.N,REAR_DVID_TX1_P*%
X129100000Y-73700000D03*
%TO.P,SoM1,177,MIPI1_D0_P*%
%TO.N,unconnected-(SoM1B-MIPI1_D0_P-Pad177)*%
X129500000Y-76780000D03*
%TO.P,SoM1,178,HDMI0_TX1_N*%
%TO.N,REAR_DVID_TX1_N*%
X129500000Y-73700000D03*
%TO.P,SoM1,179,GND*%
%TO.N,GND*%
X129900000Y-76780000D03*
%TO.P,SoM1,180,GND*%
X129900000Y-73700000D03*
%TO.P,SoM1,181,MIPI1_D1_N*%
%TO.N,unconnected-(SoM1B-MIPI1_D1_N-Pad181)*%
X130300000Y-76780000D03*
%TO.P,SoM1,182,HDMI0_TX0_P*%
%TO.N,REAR_DVID_TX0_P*%
X130300000Y-73700000D03*
%TO.P,SoM1,183,MIPI1_D1_P*%
%TO.N,unconnected-(SoM1B-MIPI1_D1_P-Pad183)*%
X130700000Y-76780000D03*
%TO.P,SoM1,184,HDMI0_TX0_N*%
%TO.N,REAR_DVID_TX0_N*%
X130700000Y-73700000D03*
%TO.P,SoM1,185,GND*%
%TO.N,GND*%
X131100000Y-76780000D03*
%TO.P,SoM1,186,GND*%
X131100000Y-73700000D03*
%TO.P,SoM1,187,MIPI1_C_N*%
%TO.N,unconnected-(SoM1B-MIPI1_C_N-Pad187)*%
X131500000Y-76780000D03*
%TO.P,SoM1,188,HDMI0_CLK_P*%
%TO.N,REAR_DVID_CLK_P*%
X131500000Y-73700000D03*
%TO.P,SoM1,189,MIPI1_C_P*%
%TO.N,unconnected-(SoM1B-MIPI1_C_P-Pad189)*%
X131900000Y-76780000D03*
%TO.P,SoM1,190,HDMI0_CLK_N*%
%TO.N,REAR_DVID_CLK_N*%
X131900000Y-73700000D03*
%TO.P,SoM1,191,GND*%
%TO.N,GND*%
X132300000Y-76780000D03*
%TO.P,SoM1,192,GND*%
X132300000Y-73700000D03*
%TO.P,SoM1,193,MIPI1_D2_N*%
%TO.N,unconnected-(SoM1B-MIPI1_D2_N-Pad193)*%
X132700000Y-76780000D03*
%TO.P,SoM1,194,MIPI1_D3_N*%
%TO.N,unconnected-(SoM1B-MIPI1_D3_N-Pad194)*%
X132700000Y-73700000D03*
%TO.P,SoM1,195,MIPI1_D2_P*%
%TO.N,unconnected-(SoM1B-MIPI1_D2_P-Pad195)*%
X133100000Y-76780000D03*
%TO.P,SoM1,196,MIPI1_D3_P*%
%TO.N,unconnected-(SoM1B-MIPI1_D3_P-Pad196)*%
X133100000Y-73700000D03*
%TO.P,SoM1,197,GND*%
%TO.N,GND*%
X133500000Y-76780000D03*
%TO.P,SoM1,198,GND*%
X133500000Y-73700000D03*
%TO.P,SoM1,199,HDMI0_SDA*%
%TO.N,REAR_DVID_SDA*%
X133900000Y-76780000D03*
%TO.P,SoM1,200,HDMI0_SCL*%
%TO.N,REAR_DVID_SCL*%
X133900000Y-73700000D03*
%TD*%
D12*
%TO.P,C25,1,1*%
%TO.N,+3V3*%
X120620002Y-92783012D03*
%TO.P,C25,2,2*%
%TO.N,GND*%
X120620002Y-93743012D03*
%TD*%
D13*
%TO.P,Y2,1,1*%
%TO.N,Net-(IC6-XTAL2)*%
X104675700Y-108900000D03*
%TO.P,Y2,2,NC*%
%TO.N,unconnected-(Y2-NC-Pad2)*%
X106875700Y-108900000D03*
%TO.P,Y2,3,3*%
%TO.N,Net-(IC6-XTAL1{slash}CLKIN)*%
X106875700Y-110500000D03*
%TO.P,Y2,4,NC*%
%TO.N,unconnected-(Y2-NC-Pad4)*%
X104675700Y-110500000D03*
%TD*%
D14*
%TO.P,C49,1,1*%
%TO.N,Net-(IC5-VDDI)*%
X105108614Y-87360000D03*
%TO.P,C49,2,2*%
%TO.N,GND*%
X105108614Y-86400000D03*
%TD*%
D15*
%TO.P,C44,1,1*%
%TO.N,+3V3*%
X100909433Y-91580819D03*
%TO.P,C44,2,2*%
%TO.N,GND*%
X99949433Y-91580819D03*
%TD*%
%TO.P,C23,1,1*%
%TO.N,/STM32H7 MCU/VLXSMPS*%
X118300000Y-100513012D03*
%TO.P,C23,2,2*%
%TO.N,GND*%
X117340000Y-100513012D03*
%TD*%
D16*
%TO.P,C69,1,1*%
%TO.N,GND*%
X132315000Y-90160000D03*
%TO.P,C69,2,2*%
%TO.N,/DVID converter\u002C NOR Flash/TVDD*%
X133865000Y-90160000D03*
%TD*%
D17*
%TO.P,C74,1,1*%
%TO.N,+1V8*%
X117030000Y-79830000D03*
%TO.P,C74,2,2*%
%TO.N,GND*%
X117990000Y-79830000D03*
%TD*%
D15*
%TO.P,C47,1,1*%
%TO.N,+3V3*%
X100909433Y-92500819D03*
%TO.P,C47,2,2*%
%TO.N,GND*%
X99949433Y-92500819D03*
%TD*%
D17*
%TO.P,C13,1,1*%
%TO.N,+3V3*%
X121510002Y-93343012D03*
%TO.P,C13,2,2*%
%TO.N,GND*%
X122470002Y-93343012D03*
%TD*%
D15*
%TO.P,C43,1,1*%
%TO.N,GND*%
X107735700Y-107310000D03*
%TO.P,C43,2,2*%
%TO.N,Net-(IC6-XTAL1{slash}CLKIN)*%
X106775700Y-107310000D03*
%TD*%
D18*
%TO.P,C11,1,1*%
%TO.N,GND*%
X119810000Y-102860000D03*
%TO.P,C11,2,2*%
%TO.N,/STM32H7 MCU/VDDSMPS*%
X119810000Y-101310000D03*
%TD*%
D19*
%TO.P,C14,1,1*%
%TO.N,GND*%
X119920000Y-99250000D03*
%TO.P,C14,2,2*%
%TO.N,/STM32H7 MCU/VDD_SDC*%
X118370000Y-99250000D03*
%TD*%
D17*
%TO.P,C36,1,1*%
%TO.N,+1V8*%
X123600000Y-94260000D03*
%TO.P,C36,2,2*%
%TO.N,GND*%
X124560000Y-94260000D03*
%TD*%
D20*
%TO.P,NT1,1,1*%
%TO.N,GND*%
X117080000Y-98120000D03*
%TO.P,NT1,2,2*%
%TO.N,Net-(IC3C-VSSA)*%
X117480000Y-98120000D03*
%TD*%
D21*
%TO.P,C60,1,1*%
%TO.N,+1V8*%
X129980000Y-100365000D03*
%TO.P,C60,2,2*%
%TO.N,GND*%
X129980000Y-101915000D03*
%TD*%
D22*
%TO.P,R12,1,1*%
%TO.N,~{XSPI_M_P1_CS}*%
X135460000Y-99020000D03*
%TO.P,R12,2,2*%
%TO.N,+1V8*%
X134440000Y-99020000D03*
%TD*%
D12*
%TO.P,C59,1,1*%
%TO.N,+1V8*%
X131170000Y-100090000D03*
%TO.P,C59,2,2*%
%TO.N,GND*%
X131170000Y-101050000D03*
%TD*%
D17*
%TO.P,C42,1,1*%
%TO.N,GND*%
X103815700Y-107310000D03*
%TO.P,C42,2,2*%
%TO.N,Net-(IC6-XTAL2)*%
X104775700Y-107310000D03*
%TD*%
D18*
%TO.P,C8,1,1*%
%TO.N,+3V3*%
X111950000Y-93575000D03*
%TO.P,C8,2,2*%
%TO.N,GND*%
X111950000Y-92025000D03*
%TD*%
D14*
%TO.P,C35,1,1*%
%TO.N,+1V8*%
X121540002Y-92453012D03*
%TO.P,C35,2,2*%
%TO.N,GND*%
X121540002Y-91493012D03*
%TD*%
%TO.P,C34,1,1*%
%TO.N,+1V8*%
X119120002Y-90833012D03*
%TO.P,C34,2,2*%
%TO.N,GND*%
X119120002Y-89873012D03*
%TD*%
D12*
%TO.P,C15,1,1*%
%TO.N,/STM32H7 MCU/VDD_SDC*%
X121630000Y-95330000D03*
%TO.P,C15,2,2*%
%TO.N,GND*%
X121630000Y-96290000D03*
%TD*%
D14*
%TO.P,C17,1,1*%
%TO.N,+3V3*%
X120710000Y-96290000D03*
%TO.P,C17,2,2*%
%TO.N,GND*%
X120710000Y-95330000D03*
%TD*%
D12*
%TO.P,C29,1,1*%
%TO.N,+3V3*%
X120780000Y-97160000D03*
%TO.P,C29,2,2*%
%TO.N,Net-(IC3C-VREFM)*%
X120780000Y-98120000D03*
%TD*%
D14*
%TO.P,C24,1,1*%
%TO.N,+3V3*%
X119550000Y-96300000D03*
%TO.P,C24,2,2*%
%TO.N,GND*%
X119550000Y-95340000D03*
%TD*%
%TO.P,C46,1,1*%
%TO.N,Net-(IC5-VDDI)*%
X106030000Y-87360000D03*
%TO.P,C46,2,2*%
%TO.N,GND*%
X106030000Y-86400000D03*
%TD*%
%TO.P,C57,1,1*%
%TO.N,+1V8*%
X132850000Y-96315000D03*
%TO.P,C57,2,2*%
%TO.N,GND*%
X132850000Y-95355000D03*
%TD*%
D18*
%TO.P,C58,1,1*%
%TO.N,+1V8*%
X131660000Y-96050000D03*
%TO.P,C58,2,2*%
%TO.N,GND*%
X131660000Y-94500000D03*
%TD*%
D14*
%TO.P,C37,1,1*%
%TO.N,+1V8*%
X120620002Y-90843012D03*
%TO.P,C37,2,2*%
%TO.N,GND*%
X120620002Y-89883012D03*
%TD*%
D22*
%TO.P,R16,1,1*%
%TO.N,ETH_TXRX_B-*%
X101890000Y-105490000D03*
%TO.P,R16,2,2*%
%TO.N,/Ethernet PHY\u002C PSRAM\u002C eMMC/+3V3_LAN*%
X100870000Y-105490000D03*
%TD*%
D15*
%TO.P,C9,1,1*%
%TO.N,+3V3*%
X117740000Y-95630000D03*
%TO.P,C9,2,2*%
%TO.N,GND*%
X116780000Y-95630000D03*
%TD*%
D16*
%TO.P,C75,1,1*%
%TO.N,+1V8*%
X117300000Y-81030000D03*
%TO.P,C75,2,2*%
%TO.N,GND*%
X118850000Y-81030000D03*
%TD*%
D12*
%TO.P,C28,1,1*%
%TO.N,+3V3*%
X118760002Y-97163012D03*
%TO.P,C28,2,2*%
%TO.N,Net-(IC3C-VSSA)*%
X118760002Y-98123012D03*
%TD*%
D19*
%TO.P,C73,1,1*%
%TO.N,+1V8*%
X112125000Y-83030000D03*
%TO.P,C73,2,2*%
%TO.N,GND*%
X110575000Y-83030000D03*
%TD*%
D23*
%TO.P,FB5,1*%
%TO.N,/DVID converter\u002C NOR Flash/TVDD*%
X134020000Y-91800000D03*
%TO.P,FB5,2*%
%TO.N,+3V3*%
X132320000Y-91800000D03*
%TD*%
D12*
%TO.P,C39,1,1*%
%TO.N,+1V8*%
X119700002Y-92783012D03*
%TO.P,C39,2,2*%
%TO.N,GND*%
X119700002Y-93743012D03*
%TD*%
D24*
%TO.P,L1,1,1*%
%TO.N,/STM32H7 MCU/VDD_SDC*%
X116347202Y-101983012D03*
%TO.P,L1,2,2*%
%TO.N,/STM32H7 MCU/VLXSMPS*%
X118430002Y-101983012D03*
%TD*%
D15*
%TO.P,C18,1,1*%
%TO.N,/STM32H7 MCU/VDD_SDC*%
X120650002Y-91893012D03*
%TO.P,C18,2,2*%
%TO.N,GND*%
X119690002Y-91893012D03*
%TD*%
D14*
%TO.P,C22,1,1*%
%TO.N,+3V3*%
X115500000Y-93750000D03*
%TO.P,C22,2,2*%
%TO.N,GND*%
X115500000Y-92790000D03*
%TD*%
%TO.P,C16,1,1*%
%TO.N,+3V3*%
X116870000Y-93740000D03*
%TO.P,C16,2,2*%
%TO.N,GND*%
X116870000Y-92780000D03*
%TD*%
%TO.P,C27,1,1*%
%TO.N,GND*%
X115730000Y-96303012D03*
%TO.P,C27,2,2*%
%TO.N,/STM32H7 MCU/VDD_SDC*%
X115730000Y-95343012D03*
%TD*%
D25*
%TO.P,Y1,1,1*%
%TO.N,/STM32H7 MCU/RCC_OSC_IN*%
X125450000Y-101270000D03*
%TO.P,Y1,2,NC*%
%TO.N,unconnected-(Y1-NC-Pad2)*%
X125450000Y-99070000D03*
%TO.P,Y1,3,3*%
%TO.N,/STM32H7 MCU/RCC_OSC_OUT*%
X127050000Y-99070000D03*
%TO.P,Y1,4,NC*%
%TO.N,unconnected-(Y1-NC-Pad4)*%
X127050000Y-101270000D03*
%TD*%
D14*
%TO.P,C4,1,1*%
%TO.N,GND*%
X123660000Y-102180000D03*
%TO.P,C4,2,2*%
%TO.N,/STM32H7 MCU/RCC_OSC_IN*%
X123660000Y-101220000D03*
%TD*%
D15*
%TO.P,C72,1,1*%
%TO.N,+1V8*%
X111720000Y-81700000D03*
%TO.P,C72,2,2*%
%TO.N,GND*%
X110760000Y-81700000D03*
%TD*%
D17*
%TO.P,C20,1,1*%
%TO.N,+3V3*%
X121510002Y-94263012D03*
%TO.P,C20,2,2*%
%TO.N,GND*%
X122470002Y-94263012D03*
%TD*%
%TO.P,C33,1,1*%
%TO.N,+1V8*%
X123600000Y-95290000D03*
%TO.P,C33,2,2*%
%TO.N,GND*%
X124560000Y-95290000D03*
%TD*%
D12*
%TO.P,C21,1,1*%
%TO.N,/STM32H7 MCU/VDD_SDC*%
X117790000Y-92780000D03*
%TO.P,C21,2,2*%
%TO.N,GND*%
X117790000Y-93740000D03*
%TD*%
D15*
%TO.P,C45,1,1*%
%TO.N,+1V8*%
X98909433Y-87660819D03*
%TO.P,C45,2,2*%
%TO.N,GND*%
X97949433Y-87660819D03*
%TD*%
D12*
%TO.P,C76,1,1*%
%TO.N,+1V8*%
X116300000Y-83610000D03*
%TO.P,C76,2,2*%
%TO.N,GND*%
X116300000Y-84570000D03*
%TD*%
D26*
%TO.P,R15,1,1*%
%TO.N,/Ethernet PHY\u002C PSRAM\u002C eMMC/+3V3_LAN*%
X100870000Y-106430000D03*
%TO.P,R15,2,2*%
%TO.N,ETH_TXRX_B+*%
X101890000Y-106430000D03*
%TD*%
%TO.P,R14,1,1*%
%TO.N,/Ethernet PHY\u002C PSRAM\u002C eMMC/+3V3_LAN*%
X100870000Y-103610000D03*
%TO.P,R14,2,2*%
%TO.N,ETH_TXRX_A-*%
X101890000Y-103610000D03*
%TD*%
%TO.P,R13,1,1*%
%TO.N,/Ethernet PHY\u002C PSRAM\u002C eMMC/+3V3_LAN*%
X100870000Y-104550000D03*
%TO.P,R13,2,2*%
%TO.N,ETH_TXRX_A+*%
X101890000Y-104550000D03*
%TD*%
D15*
%TO.P,C48,1,1*%
%TO.N,+1V8*%
X98909433Y-88580819D03*
%TO.P,C48,2,2*%
%TO.N,GND*%
X97949433Y-88580819D03*
%TD*%
D12*
%TO.P,C26,1,1*%
%TO.N,/STM32H7 MCU/VDD_SDC*%
X116800000Y-97150000D03*
%TO.P,C26,2,2*%
%TO.N,GND*%
X116800000Y-98110000D03*
%TD*%
D27*
%TO.P,FB1,1*%
%TO.N,/STM32H7 MCU/VDDSMPS*%
X121700000Y-101160000D03*
%TO.P,FB1,2*%
%TO.N,+3V3*%
X121700000Y-102860000D03*
%TD*%
D15*
%TO.P,C12,1,1*%
%TO.N,+3V3*%
X117730000Y-94710000D03*
%TO.P,C12,2,2*%
%TO.N,GND*%
X116770000Y-94710000D03*
%TD*%
D18*
%TO.P,C41,1,1*%
%TO.N,+1V8*%
X120800000Y-88175000D03*
%TO.P,C41,2,2*%
%TO.N,GND*%
X120800000Y-86625000D03*
%TD*%
%TO.P,C40,1,1*%
%TO.N,+1V8*%
X122700000Y-88175000D03*
%TO.P,C40,2,2*%
%TO.N,GND*%
X122700000Y-86625000D03*
%TD*%
D12*
%TO.P,C32,1,1*%
%TO.N,+3V3*%
X121650000Y-97160000D03*
%TO.P,C32,2,2*%
%TO.N,Net-(IC3C-VREFM)*%
X121650000Y-98120000D03*
%TD*%
D15*
%TO.P,C66,1,1*%
%TO.N,/DVID converter\u002C NOR Flash/DVDD*%
X136600000Y-93830000D03*
%TO.P,C66,2,2*%
%TO.N,GND*%
X135640000Y-93830000D03*
%TD*%
D17*
%TO.P,C56,1,1*%
%TO.N,GND*%
X100880000Y-102670000D03*
%TO.P,C56,2,2*%
%TO.N,/Ethernet PHY\u002C PSRAM\u002C eMMC/+3V3_LAN*%
X101840000Y-102670000D03*
%TD*%
D12*
%TO.P,C5,1,1*%
%TO.N,GND*%
X123740000Y-98270000D03*
%TO.P,C5,2,2*%
%TO.N,/STM32H7 MCU/RCC_OSC_OUT*%
X123740000Y-99230000D03*
%TD*%
D14*
%TO.P,C19,1,1*%
%TO.N,+3V3*%
X118630000Y-96300000D03*
%TO.P,C19,2,2*%
%TO.N,GND*%
X118630000Y-95340000D03*
%TD*%
D12*
%TO.P,C30,1,1*%
%TO.N,+VAUX*%
X114050000Y-101730000D03*
%TO.P,C30,2,2*%
%TO.N,GND*%
X114050000Y-102690000D03*
%TD*%
D22*
%TO.P,R21,1,1*%
%TO.N,~{XSPIM_P2_CS1}*%
X111740000Y-80740000D03*
%TO.P,R21,2,2*%
%TO.N,+1V8*%
X110720000Y-80740000D03*
%TD*%
D17*
%TO.P,C38,1,1*%
%TO.N,+1V8*%
X123330000Y-93150000D03*
%TO.P,C38,2,2*%
%TO.N,GND*%
X124290000Y-93150000D03*
%TD*%
D12*
%TO.P,C10,1,1*%
%TO.N,+3V3*%
X118780002Y-92783012D03*
%TO.P,C10,2,2*%
%TO.N,GND*%
X118780002Y-93743012D03*
%TD*%
D20*
%TO.P,NT2,1,1*%
%TO.N,GND*%
X121160000Y-97700000D03*
%TO.P,NT2,2,2*%
%TO.N,Net-(IC3C-VREFM)*%
X121160000Y-98099998D03*
%TD*%
D12*
%TO.P,C31,1,1*%
%TO.N,+3V3*%
X117830000Y-97170000D03*
%TO.P,C31,2,2*%
%TO.N,Net-(IC3C-VSSA)*%
X117830000Y-98130000D03*
%TD*%
D21*
%TO.P,C77,1,1*%
%TO.N,+1V8*%
X117490000Y-83885000D03*
%TO.P,C77,2,2*%
%TO.N,GND*%
X117490000Y-85435000D03*
%TD*%
D28*
%TO.N,MCU_USB_UP_TX-*%
X114232340Y-93753126D03*
D29*
%TO.N,GND*%
X114790000Y-93480000D03*
D28*
%TO.N,DIN2*%
X109710000Y-95060000D03*
X112880000Y-94640000D03*
%TO.N,GND*%
X114027173Y-94286560D03*
%TO.N,~{DIB3_CSA}*%
X112673853Y-95126033D03*
%TO.N,GND*%
X112440000Y-92500000D03*
%TO.N,ETH_REF_CLK*%
X114003928Y-96220000D03*
%TO.N,/STM32H7 MCU/RCC_OSC_IN*%
X121028482Y-100368812D03*
%TO.N,/STM32H7 MCU/RCC_OSC_OUT*%
X121231515Y-99888347D03*
%TO.N,GND*%
X139517500Y-89665000D03*
D29*
X131994414Y-83948668D03*
D28*
X122150000Y-108330000D03*
X127100000Y-110010000D03*
D30*
X130560000Y-81380000D03*
X125056250Y-82180000D03*
D28*
X115500000Y-108290000D03*
X124450000Y-108330000D03*
D30*
X129773750Y-81380000D03*
D29*
X110760000Y-82180000D03*
D28*
X118700000Y-111242200D03*
X105095100Y-89008617D03*
X124700000Y-111242200D03*
D30*
X125056250Y-81390000D03*
X144467076Y-102370000D03*
X99143279Y-91569450D03*
D28*
X134173817Y-97029568D03*
X120035143Y-93346233D03*
X124720001Y-96330000D03*
X110372200Y-95830000D03*
X121630000Y-96290000D03*
X140303750Y-89665000D03*
D30*
X138367346Y-94602418D03*
D28*
X127500000Y-74250000D03*
D29*
X110570000Y-83680000D03*
D30*
X126628750Y-81390000D03*
X125842500Y-82180000D03*
D28*
X125900000Y-108340000D03*
X132997223Y-87952670D03*
D30*
X145140000Y-93830000D03*
X97950000Y-89070000D03*
D28*
X125900000Y-110030000D03*
D30*
X127130000Y-108370000D03*
D28*
X128300000Y-109990000D03*
X117720000Y-96320000D03*
D29*
X99800000Y-83820000D03*
D30*
X145210000Y-101700000D03*
D28*
X122580000Y-89030000D03*
X123900000Y-74250000D03*
X129836000Y-101414043D03*
X142642500Y-87384700D03*
D29*
X113400000Y-75110000D03*
D28*
X139517500Y-87384700D03*
X142642500Y-86634500D03*
X125100000Y-74250000D03*
X139517500Y-88134900D03*
D30*
X144467076Y-99020000D03*
D28*
X113610000Y-100110000D03*
D29*
X118430000Y-79850000D03*
D30*
X144467076Y-101030000D03*
X115500000Y-74300000D03*
X119100000Y-74300000D03*
X140046186Y-101394279D03*
X141207076Y-101800000D03*
D28*
X139517500Y-86634500D03*
D30*
X102000000Y-97690000D03*
X145210000Y-99020000D03*
D28*
X141090000Y-88134900D03*
D30*
X142990000Y-78180000D03*
D28*
X117830000Y-86000000D03*
X120795100Y-93893015D03*
D30*
X119100000Y-76180000D03*
X103330000Y-107300000D03*
X144467076Y-101700000D03*
X98930000Y-83820000D03*
X98930000Y-85370000D03*
D28*
X129899999Y-74250000D03*
D29*
X99800000Y-84595000D03*
D28*
X104715642Y-104392368D03*
X131100000Y-76170000D03*
X114310000Y-108280000D03*
D30*
X132850000Y-90410000D03*
X117900000Y-76180000D03*
X97950000Y-87190000D03*
X127415000Y-81390000D03*
X127415000Y-82180000D03*
X138060000Y-78600000D03*
X140350000Y-83240000D03*
D28*
X129870000Y-76170000D03*
X116385100Y-92690200D03*
D30*
X120300000Y-74300000D03*
D28*
X119110000Y-99720000D03*
X104380864Y-90708847D03*
X141861250Y-86634500D03*
X122700000Y-111242200D03*
D30*
X144467076Y-100360000D03*
D28*
X133500000Y-74250000D03*
D30*
X115500000Y-76180000D03*
D28*
X125060000Y-91070000D03*
D30*
X108220000Y-107290000D03*
D28*
X103100000Y-89348733D03*
D30*
X133386776Y-108409620D03*
X116700000Y-74300000D03*
D28*
X119919000Y-100392629D03*
D30*
X98930000Y-84595000D03*
X101180000Y-102340000D03*
D28*
X140298750Y-87384700D03*
X117510000Y-89280000D03*
X113480000Y-88920000D03*
X141876250Y-88917500D03*
X121891935Y-91811103D03*
X105931091Y-105850906D03*
X141090000Y-88917500D03*
X119120003Y-94900000D03*
D30*
X101340000Y-90970000D03*
D29*
X99800000Y-85370000D03*
D30*
X139240000Y-79680000D03*
D28*
X124568405Y-100304900D03*
X113630000Y-102840000D03*
X120700000Y-111242200D03*
D30*
X121500000Y-76180000D03*
D28*
X115560000Y-110087800D03*
X122700000Y-74230000D03*
D30*
X126628750Y-82180000D03*
D28*
X132120000Y-101150000D03*
D30*
X145210000Y-99690000D03*
X128987500Y-81380000D03*
D29*
X119575543Y-103418217D03*
D28*
X118620000Y-91670000D03*
D30*
X141207076Y-100260000D03*
D28*
X107170000Y-76810000D03*
X124720000Y-88860000D03*
D30*
X124270000Y-81390000D03*
X99340000Y-90050000D03*
D28*
X133310236Y-95589764D03*
D30*
X129773750Y-82170000D03*
D28*
X120860000Y-83050000D03*
X139517500Y-88917500D03*
X123500000Y-102540000D03*
D30*
X128201250Y-82180000D03*
X134570000Y-88960000D03*
D28*
X135210000Y-93810000D03*
X115300000Y-79510000D03*
X119120002Y-95380000D03*
D30*
X133090000Y-82220000D03*
X147500000Y-88410000D03*
D28*
X114540000Y-109670000D03*
D29*
X103330000Y-108830000D03*
D30*
X120300000Y-76180000D03*
D28*
X104715642Y-105859588D03*
D30*
X117900000Y-74300000D03*
D28*
X116807876Y-99011481D03*
X142662500Y-88917500D03*
X116680479Y-84234900D03*
X141861250Y-87384700D03*
X141080000Y-86634500D03*
X127500000Y-77450000D03*
X141876250Y-89665000D03*
D30*
X145210000Y-103040000D03*
D28*
X124950000Y-93950000D03*
X136080000Y-91950000D03*
X128640000Y-76160000D03*
D30*
X145210000Y-100360000D03*
X128987500Y-82170000D03*
D28*
X105810000Y-110710000D03*
D30*
X142090000Y-83220000D03*
D29*
X118850000Y-80350000D03*
D28*
X121025683Y-86027215D03*
X115960000Y-96020000D03*
D30*
X104640000Y-86390000D03*
D28*
X119950000Y-89330000D03*
D30*
X97200000Y-81400000D03*
D29*
X113910000Y-79310000D03*
D30*
X125842500Y-81390000D03*
X98894999Y-81390000D03*
D28*
X120538179Y-108533998D03*
X105939773Y-104401049D03*
D30*
X98894999Y-81919999D03*
X121500000Y-73110000D03*
X145210000Y-102370000D03*
D28*
X132290000Y-74250000D03*
X122960000Y-94700000D03*
X116966087Y-94866087D03*
X122480000Y-93790000D03*
X140298750Y-86634500D03*
D30*
X99840000Y-101610000D03*
D28*
X132290000Y-76160000D03*
D30*
X132990000Y-85380000D03*
D28*
X122330000Y-95520000D03*
X141090000Y-89665000D03*
X120399830Y-102590170D03*
D29*
X113040000Y-107610000D03*
D28*
X120860000Y-82140000D03*
X126300000Y-76160000D03*
D29*
X102723980Y-92331807D03*
D30*
X137060000Y-82490000D03*
D28*
X118000000Y-108300000D03*
X108250000Y-108350000D03*
D30*
X130560000Y-82170000D03*
D28*
X120650000Y-95690000D03*
X102100000Y-89348733D03*
X142662500Y-88134900D03*
X125190000Y-76150000D03*
D29*
X120135003Y-103418200D03*
D28*
X141080000Y-87384700D03*
D29*
X111900000Y-75110000D03*
D30*
X100109309Y-89569684D03*
D28*
X119970000Y-91182415D03*
X131090000Y-74250000D03*
D30*
X124270000Y-82180000D03*
X132100000Y-111520000D03*
D28*
X140303750Y-88917500D03*
X116700000Y-108280000D03*
D30*
X146010000Y-84420000D03*
D29*
X101178810Y-107149539D03*
D30*
X144850000Y-79930000D03*
D28*
X106285184Y-90144816D03*
X140303750Y-88134900D03*
X126300000Y-74250000D03*
X118785291Y-93741287D03*
X128700000Y-74250000D03*
D30*
X144467076Y-103040000D03*
D28*
X141876250Y-88134900D03*
X133490000Y-76150000D03*
X135410000Y-84130000D03*
X113890000Y-81190000D03*
D30*
X145210000Y-101030000D03*
X116700000Y-76180000D03*
X128700000Y-108340000D03*
X128201250Y-81390000D03*
D28*
X117364782Y-82774413D03*
X142662500Y-89665000D03*
D30*
X106480000Y-86390000D03*
D28*
X109430000Y-111107800D03*
D30*
X98894999Y-82450000D03*
D28*
X123598598Y-97523941D03*
D30*
X144467076Y-99690000D03*
X100110000Y-88070000D03*
D28*
X117074923Y-100739216D03*
X116455432Y-110043866D03*
D30*
X136160000Y-85920000D03*
D28*
X122690000Y-86000000D03*
D30*
X99144345Y-92538939D03*
D28*
%TO.N,ETH_MDIO*%
X122719891Y-98174839D03*
X108768200Y-98520000D03*
%TO.N,ETH_CRS_DV*%
X109798654Y-98237630D03*
X122680000Y-97440000D03*
%TO.N,ETH_TX_EN*%
X105150775Y-101780775D03*
X117021179Y-99907256D03*
%TO.N,ETH_TXD1*%
X116319802Y-99211311D03*
X104470000Y-99090000D03*
%TO.N,ETH_MDC*%
X106587522Y-99925724D03*
X117673902Y-102765865D03*
%TO.N,ETH_RXD0*%
X110064900Y-97742917D03*
X120201816Y-97492893D03*
%TO.N,ETH_RXD1*%
X123127828Y-98500138D03*
X111870000Y-99060000D03*
%TO.N,ETH_TXD0*%
X117126896Y-96583784D03*
X105040000Y-97620000D03*
D30*
%TO.N,+3V3*%
X143780000Y-79940000D03*
D28*
X115520000Y-93420000D03*
X122010000Y-103510000D03*
D30*
X133840000Y-78560000D03*
D28*
X108410000Y-104770000D03*
X107790000Y-101670000D03*
D30*
X130970000Y-106870000D03*
X141180409Y-104820000D03*
X140553743Y-104160000D03*
D29*
X97570000Y-83350000D03*
D30*
X141807076Y-104160000D03*
X135580000Y-79180000D03*
X100430000Y-97630000D03*
X141180409Y-104160000D03*
D28*
X121002312Y-93167319D03*
D29*
X101300000Y-92500000D03*
D28*
X118961414Y-93121003D03*
X117490000Y-94377086D03*
X119599402Y-96459698D03*
X121186988Y-94263012D03*
D29*
X97020000Y-83350000D03*
D28*
X117240000Y-93330000D03*
D30*
X141100000Y-79670000D03*
D28*
X121520000Y-103510000D03*
X110093082Y-96940396D03*
X120698974Y-97117793D03*
D30*
X139927076Y-104820000D03*
X141807076Y-104820000D03*
X111950000Y-108210000D03*
X132980000Y-91810000D03*
D28*
X120720004Y-96293014D03*
D30*
X140553743Y-104820000D03*
D28*
X109799529Y-102967194D03*
X121820000Y-82160000D03*
D29*
X97930000Y-80950000D03*
X101306334Y-91670417D03*
D28*
X119555473Y-96005473D03*
D29*
X107150000Y-79960000D03*
D28*
X111940000Y-94150000D03*
X118480200Y-96070039D03*
D30*
X130700000Y-108300000D03*
X142390000Y-80640000D03*
D28*
X121680000Y-93730000D03*
X103320000Y-101410000D03*
D30*
X139927076Y-104160000D03*
X140180000Y-79650000D03*
D28*
%TO.N,SDMMC_D1*%
X116567292Y-90057292D03*
X106835894Y-89356263D03*
%TO.N,/STM32H7 MCU/VDD_SDC*%
X119525319Y-94364700D03*
X121281302Y-95681167D03*
X116850000Y-101620000D03*
X120358941Y-91982218D03*
X115904900Y-95000459D03*
X116850000Y-102050000D03*
X118334900Y-99682478D03*
X116460280Y-96249282D03*
X118280000Y-94200000D03*
X116850000Y-102480000D03*
X117760000Y-92400000D03*
D29*
%TO.N,/STM32H7 MCU/VDDSMPS*%
X119120004Y-100293011D03*
D28*
X119281498Y-101368227D03*
X121250092Y-101170809D03*
%TO.N,~{RESET_OUT}*%
X105588800Y-102152467D03*
X101540000Y-89380000D03*
X120470000Y-106780000D03*
X121130056Y-99114635D03*
X138839999Y-83240000D03*
X116280000Y-79140000D03*
X106120000Y-78900000D03*
X116100000Y-106180000D03*
X123900000Y-84010000D03*
X132180000Y-106540000D03*
X119010000Y-103410000D03*
%TO.N,ETH_RX_ERR*%
X107290000Y-86690000D03*
X123780577Y-85778890D03*
X106880000Y-87820000D03*
X107484600Y-100540000D03*
X107982274Y-104428035D03*
%TO.N,DVID_SEL2*%
X131920000Y-85323700D03*
X124237690Y-98776026D03*
X130670000Y-96100000D03*
X128260000Y-99130000D03*
%TO.N,~{DIB1_CSA}*%
X119813800Y-108339679D03*
X115869817Y-103338549D03*
X115614445Y-97139016D03*
%TO.N,+VAUX*%
X128893990Y-106941846D03*
X117221877Y-106682348D03*
X114412800Y-101654283D03*
%TO.N,~{DIB3_CSA}*%
X116843616Y-104372988D03*
X123315844Y-105246317D03*
%TO.N,TFT_DVID_TX1_P*%
X124211500Y-74720000D03*
%TO.N,~{SYSMCU_CS}*%
X118537378Y-103184900D03*
%TO.N,~{TFT_IRQ}*%
X123914400Y-104244232D03*
X122330000Y-110090000D03*
%TO.N,SDA*%
X124500000Y-84890000D03*
X136920000Y-83840000D03*
X112960000Y-97120000D03*
X125090186Y-84338512D03*
X111420000Y-85440000D03*
%TO.N,SCL*%
X111020000Y-84860000D03*
X136330474Y-83379966D03*
X111261600Y-96865100D03*
X110914900Y-93941349D03*
X124458781Y-84086212D03*
X114604885Y-96690955D03*
X123932026Y-84767200D03*
%TO.N,TFT_DVID_TX2_P*%
X123003000Y-74720000D03*
%TO.N,~{DIB4_IRQ}*%
X122805023Y-105140816D03*
%TO.N,WDG_IN*%
X123597875Y-108326717D03*
%TO.N,RS485_TX_EN{slash}DOUT2*%
X127531420Y-91167500D03*
X119900000Y-111242200D03*
X127776029Y-103636507D03*
%TO.N,TFT_DVID_TX2_N*%
X123580000Y-74720000D03*
%TO.N,TFT_DVID_CLK_P*%
X126611500Y-74720000D03*
%TO.N,~{DIB3_IRQ}*%
X118885600Y-108275398D03*
%TO.N,~{DIB5_CSA}*%
X117152839Y-103307160D03*
X123570000Y-109000000D03*
%TO.N,TFT_DVID_CLK_N*%
X127188500Y-74720000D03*
%TO.N,DIB1_USB_D+*%
X114180000Y-95310000D03*
%TO.N,TFT_DVID_TX0_P*%
X125411500Y-74720000D03*
%TO.N,XSPIM_P1_IO10*%
X122448859Y-91787577D03*
X135109086Y-97558717D03*
D29*
%TO.N,/STM32H7 MCU/VLXSMPS*%
X118390000Y-100770000D03*
D28*
%TO.N,~{DIB2_CSA}*%
X117242586Y-109424900D03*
X116380000Y-103180000D03*
X116601990Y-106670360D03*
X121758811Y-109972005D03*
%TO.N,SDMMC_D0*%
X115468671Y-88750113D03*
X106557366Y-88344060D03*
%TO.N,~{DIB4_CSA}*%
X119371139Y-96928389D03*
X125812569Y-97392097D03*
X126575300Y-105212960D03*
%TO.N,MCU_USB_UP_TX+*%
X113639407Y-93845587D03*
%TO.N,TFT_DVID_TX0_N*%
X125988500Y-74720000D03*
%TO.N,DIB1_USB_D-*%
X113630000Y-95310000D03*
%TO.N,XSPIM_P1_IO5*%
X126537965Y-94146500D03*
X131110000Y-98190000D03*
%TO.N,~{DIB5_IRQ}*%
X110485600Y-95074494D03*
X111820000Y-102130000D03*
X111290000Y-107983600D03*
%TO.N,~{DIB1_IRQ}*%
X124660000Y-103600000D03*
X119229950Y-106426099D03*
X124430000Y-106021917D03*
%TO.N,~{SYSMCU_IRQ}*%
X123023837Y-108331758D03*
%TO.N,~{DIB2_IRQ}*%
X119269810Y-108687402D03*
%TO.N,SDMMC_CLK*%
X100840000Y-90070000D03*
X115478477Y-91904983D03*
%TO.N,TFT_DVID_TX1_N*%
X124788500Y-74720000D03*
%TO.N,BOOT0*%
X113500000Y-100970000D03*
X111330000Y-96100000D03*
X132619898Y-109713500D03*
%TO.N,~{ETH_LINK_ACT}*%
X103360000Y-110250000D03*
X116039320Y-109729487D03*
X108245210Y-109804790D03*
%TO.N,ETH_TXRX_B-*%
X102720000Y-105006500D03*
%TO.N,ETH_TXRX_A-*%
X102720000Y-104150000D03*
X102180000Y-103470000D03*
%TO.N,~{ETH_LINK100}*%
X117491913Y-110242385D03*
X108240000Y-110470000D03*
%TO.N,ETH_TXRX_B+*%
X102720000Y-105553500D03*
%TO.N,ETH_TXRX_A+*%
X102330000Y-104590000D03*
%TO.N,XSPIM_P1_IO2*%
X123030549Y-93776171D03*
X131270000Y-98820000D03*
%TO.N,XSPIM_P1_IO0*%
X123968729Y-92504340D03*
X130241382Y-95794988D03*
X132350000Y-98370000D03*
%TO.N,XSPIM_P1_IO12*%
X135700000Y-101240000D03*
X123350000Y-96324213D03*
%TO.N,XSPI_M_P1_CLK*%
X134510000Y-97970000D03*
X125687715Y-92840700D03*
%TO.N,XSPIM_P1_IO9*%
X134850000Y-96420000D03*
X126956390Y-91167500D03*
%TO.N,XSPIM_P1_IO13*%
X126940236Y-95509764D03*
X134550000Y-100250000D03*
%TO.N,XSPIM_P1_IO14*%
X134566750Y-101276750D03*
X122920000Y-95400000D03*
%TO.N,XSPIM_P1_IO15*%
X134150000Y-100790000D03*
X124100000Y-94780000D03*
%TO.N,DVID_SEL1*%
X130800000Y-85590000D03*
X124218391Y-99905100D03*
X130952182Y-83978412D03*
X129048136Y-101390000D03*
%TO.N,XSPIM_P1_IO4*%
X129740000Y-99190000D03*
X125456841Y-95150906D03*
%TO.N,~{XSPIM_P2_CS1}*%
X112110000Y-80750000D03*
%TO.N,XSPIM_P2_DQS0*%
X115240000Y-80580000D03*
X118289802Y-89630000D03*
%TO.N,XSPIM_P1_IO8*%
X133844787Y-95694047D03*
X124313434Y-91123500D03*
%TO.N,XSPIM_P1_IO11*%
X135769816Y-100419816D03*
X124168298Y-96225191D03*
%TO.N,XSPI_M_P1_DQS0*%
X133820000Y-98700000D03*
X123348876Y-92517921D03*
%TO.N,SDMMC_D6*%
X105611314Y-89613219D03*
X116707704Y-88942769D03*
%TO.N,SDMMC_D2*%
X106777613Y-89906645D03*
X114510000Y-89913700D03*
%TO.N,SDMMC_D3*%
X105660000Y-88020000D03*
X112450900Y-87280000D03*
%TO.N,SDMMC_CMD*%
X100950000Y-89520000D03*
X101320000Y-87160000D03*
%TO.N,SDMMC_D7*%
X105565211Y-90132780D03*
X117172017Y-90316948D03*
%TO.N,SDMMC_D5*%
X113950000Y-99070000D03*
X105609996Y-89091990D03*
%TO.N,SDMMC_D4*%
X114185421Y-100222900D03*
X105610694Y-88569434D03*
%TO.N,XSPIM_P1_IO7*%
X133490000Y-96300000D03*
X123770260Y-91364335D03*
%TO.N,XSPIM_P1_IO1*%
X123270000Y-91670000D03*
X132420167Y-96860995D03*
%TO.N,XSPI_M_P1_DQS1*%
X134890000Y-99540000D03*
X122161340Y-92286453D03*
%TO.N,XSPIM_P1_IO6*%
X125156447Y-92699280D03*
X131214239Y-95283592D03*
%TO.N,XSPIM_P1_IO3*%
X126610000Y-95080000D03*
X132539959Y-99979181D03*
%TO.N,~{LED_ACT}*%
X112740000Y-111067800D03*
%TO.N,~{XSPI_M_P1_CS}*%
X125650000Y-90900000D03*
X135780000Y-98800000D03*
%TO.N,REAR_DVID_TX1_N*%
X129588500Y-74720000D03*
%TO.N,REAR_DVID_CLK_P*%
X131411500Y-74720000D03*
%TO.N,REAR_DVID_TX0_N*%
X130788500Y-74720000D03*
%TO.N,REAR_DVID_TX1_P*%
X129011500Y-74720000D03*
%TO.N,REAR_DVID_CLK_N*%
X131988500Y-74720000D03*
%TO.N,REAR_DVID_TX2_N*%
X128388500Y-74720000D03*
%TO.N,REAR_DVID_TX0_P*%
X130211500Y-74720000D03*
%TO.N,REAR_DVID_TX2_P*%
X127811500Y-74720000D03*
%TO.N,REAR_DVID_SDA*%
X122920000Y-78750000D03*
X133390000Y-75420000D03*
%TO.N,REAR_DVID_CEC*%
X132376900Y-81484147D03*
X124144975Y-76125072D03*
%TO.N,REAR_DVID_SCL*%
X134120000Y-73720000D03*
D29*
%TO.N,+1V8*%
X101300000Y-81910000D03*
D28*
X112142500Y-81830000D03*
X121530000Y-88600000D03*
X119724329Y-92613012D03*
X117880000Y-81390000D03*
X116760000Y-79830000D03*
X121801056Y-92729679D03*
X117400236Y-83319764D03*
X123507006Y-94274747D03*
X122471949Y-94983012D03*
X120865507Y-91264965D03*
D29*
X98910000Y-87220000D03*
X131690000Y-108310000D03*
X100700000Y-83000000D03*
X131710000Y-107010000D03*
X99326423Y-88538095D03*
D28*
X131450000Y-100090000D03*
X116397000Y-83210000D03*
D29*
X101300000Y-82990000D03*
D28*
X118928842Y-91234901D03*
D29*
X101300000Y-82460000D03*
D28*
X133051735Y-96685872D03*
X123250000Y-88550000D03*
X122696657Y-92700800D03*
%TO.N,GPIO_VREF*%
X125127678Y-103868622D03*
%TO.N,DIB4_SCLK*%
X125760000Y-103440000D03*
X121500000Y-111242200D03*
%TO.N,DIB4_MISO*%
X121108311Y-108456110D03*
X114810795Y-94381613D03*
X116240000Y-104190000D03*
%TO.N,DIB4_MOSI*%
X116473377Y-103693176D03*
X115474900Y-94344326D03*
X119909047Y-104225100D03*
%TO.N,LTDC_G2*%
X136790000Y-96180000D03*
X122038918Y-99330367D03*
X145630000Y-91030000D03*
X128120000Y-99900000D03*
%TO.N,LTDC_B7*%
X146030000Y-89390000D03*
X124446600Y-101060149D03*
X136753190Y-102761516D03*
%TO.N,LTDC_G5*%
X127490799Y-89690430D03*
X122670993Y-91074469D03*
%TO.N,LTDC_VSYNC*%
X118690000Y-88270000D03*
X142858262Y-84324462D03*
X115441005Y-91063407D03*
%TO.N,LTDC_CLK*%
X145540000Y-88120000D03*
X123519767Y-100011360D03*
X136983526Y-102293526D03*
%TO.N,LTDC_R3*%
X140855236Y-94675236D03*
X136730000Y-100710000D03*
X122401002Y-98951772D03*
%TO.N,LTDC_B1*%
X143950000Y-87800000D03*
X113480000Y-91430000D03*
%TO.N,LTDC_B6*%
X117780000Y-91634900D03*
X144790000Y-88560000D03*
%TO.N,LTDC_R1*%
X120836375Y-100853749D03*
X130000000Y-103964900D03*
%TO.N,LTDC_B5*%
X116438241Y-89493171D03*
X145540000Y-87430000D03*
%TO.N,LTDC_R6*%
X116390632Y-93250492D03*
X143260554Y-91080002D03*
%TO.N,LTDC_G3*%
X122332042Y-100064831D03*
X145870000Y-92550000D03*
%TO.N,LTDC_B0*%
X122720249Y-96574645D03*
X137570000Y-85840000D03*
X126830000Y-97430000D03*
X137250207Y-95007129D03*
%TO.N,LTDC_DE*%
X124328038Y-101573990D03*
X144370000Y-83850000D03*
X136345618Y-103087022D03*
%TO.N,LTDC_R5*%
X118425798Y-92226388D03*
X143920000Y-90390000D03*
%TO.N,LTDC_R7*%
X127350000Y-88240000D03*
X114550000Y-92310000D03*
%TO.N,LTDC_B4*%
X144790000Y-87530000D03*
X116873098Y-90963500D03*
%TO.N,LTDC_G6*%
X125292346Y-89226927D03*
X123323777Y-89785100D03*
%TO.N,LTDC_G0*%
X127360000Y-97610000D03*
X124224022Y-97780160D03*
X137644900Y-95348136D03*
X145120000Y-89940000D03*
%TO.N,LTDC_B2*%
X137230000Y-95780000D03*
X146030000Y-85950000D03*
X124402155Y-98281030D03*
X128042002Y-98258773D03*
%TO.N,LTDC_G7*%
X125810000Y-89490000D03*
X122540749Y-89833835D03*
%TO.N,LTDC_G4*%
X123850000Y-88500000D03*
X126614491Y-88751778D03*
%TO.N,LTDC_G1*%
X117559113Y-99262285D03*
X129320000Y-104480000D03*
%TO.N,LTDC_B3*%
X144800000Y-86420001D03*
X114554036Y-88433564D03*
%TO.N,LTDC_R0*%
X130610000Y-104100000D03*
X120319840Y-100011139D03*
%TO.N,LTDC_HSYNC*%
X114990000Y-85710000D03*
X127390246Y-84664900D03*
X143330000Y-83810000D03*
X116270520Y-96735142D03*
%TO.N,LTDC_R4*%
X144250000Y-91660000D03*
X114836360Y-97896300D03*
%TO.N,LTDC_R2*%
X113846300Y-97528896D03*
X126190000Y-89970000D03*
%TO.N,~{LED_PWR}*%
X113590003Y-109907800D03*
X127720000Y-109530000D03*
X110115260Y-100057795D03*
X109420000Y-94150000D03*
%TO.N,DIB1{slash}DIB3_MISO*%
X119431696Y-104479100D03*
%TO.N,DIB2{slash}DIB5_SCLK*%
X121748577Y-105037600D03*
%TO.N,DIB1{slash}DIB3_MOSI*%
X126233397Y-104610200D03*
X121638118Y-98996558D03*
X122703431Y-101025726D03*
X125104217Y-109144217D03*
%TO.N,DIB2{slash}DIB5_MISO*%
X121920000Y-106010000D03*
X113557527Y-103426751D03*
X108768200Y-97970000D03*
X109049285Y-101649258D03*
%TO.N,DIB2{slash}DIB5_MOSI*%
X107738600Y-98570159D03*
X122466301Y-109282200D03*
X111835778Y-102932656D03*
%TO.N,DIB1{slash}DIB3_SCLK*%
X110500000Y-90970000D03*
X109010000Y-95930000D03*
X110771190Y-102412504D03*
X110610000Y-93330000D03*
X110861932Y-106721932D03*
X111073071Y-109634328D03*
X124458085Y-110044336D03*
X115084283Y-89948613D03*
%TO.N,/STM32H7 MCU/~{ACTIVE}*%
X126146270Y-103860000D03*
X125280000Y-108380000D03*
%TO.N,/Ethernet PHY\u002C PSRAM\u002C eMMC/+3V3_LAN*%
X101450000Y-101610000D03*
D29*
%TO.N,/CM5 socket/+5V_IN*%
X138797076Y-99070000D03*
X138230000Y-99070000D03*
X139997076Y-99070000D03*
X130250000Y-110080000D03*
X138230000Y-98470000D03*
X131350000Y-110080000D03*
X138797076Y-98470000D03*
X130800000Y-110080000D03*
X129680000Y-110090000D03*
X139997076Y-98470000D03*
D28*
%TO.N,Net-(IC6-XTAL2)*%
X105531049Y-107390418D03*
%TO.N,Net-(IC6-XTAL1{slash}CLKIN)*%
X106130480Y-107394193D03*
%TO.N,Net-(IC5-VDDI)*%
X105110568Y-88069305D03*
D29*
%TO.N,/DVID converter\u002C NOR Flash/DVDD*%
X139244703Y-81355299D03*
D30*
X137080000Y-93833800D03*
D29*
X138030000Y-81350000D03*
X145270000Y-81360000D03*
D28*
%TO.N,ETH_REF_CLK*%
X105960001Y-97180001D03*
%TO.N,DIN2*%
X121099410Y-110122200D03*
X113066055Y-109089696D03*
X111270000Y-102260000D03*
%TO.N,Net-(IC3C-VREFM)*%
X120484842Y-97931032D03*
%TO.N,Net-(IC3C-VSSA)*%
X118720003Y-98174996D03*
%TO.N,Net-(IC6-RXD1{slash}MODE1)*%
X108420000Y-106080000D03*
X109023929Y-102990000D03*
X111451339Y-101454953D03*
%TO.N,DVID_CEC*%
X118080000Y-103560000D03*
X130394890Y-84061675D03*
X120490000Y-104010000D03*
X137230000Y-96540000D03*
X137710000Y-85280000D03*
X127270000Y-103510000D03*
X117630000Y-102100000D03*
D29*
%TO.N,/DVID converter\u002C NOR Flash/TVDD*%
X133925843Y-87464157D03*
X133940000Y-90520000D03*
D28*
%TO.N,DVID_HPD*%
X116385607Y-91936088D03*
X116650000Y-87360000D03*
X129981339Y-84432072D03*
%TO.N,REAR_DVID_HPD*%
X125180000Y-77620000D03*
X132039750Y-80630248D03*
%TO.N,UART_RX{slash}DIN1*%
X127139764Y-105080236D03*
%TO.N,RS485_RX{slash}DIN3*%
X107676200Y-94850504D03*
X110314021Y-103052201D03*
X134540000Y-110640000D03*
X110453600Y-109660000D03*
X114758433Y-91828723D03*
%TO.N,UART_TX{slash}DOUT1*%
X125185385Y-105110916D03*
X119050000Y-100850000D03*
X125054900Y-106524499D03*
X122561600Y-102644900D03*
%TO.N,RS485_TX{slash}DOUT3*%
X112970000Y-109907800D03*
X109860840Y-101937594D03*
X107978200Y-96560000D03*
X129970000Y-109020000D03*
%TD*%
D31*
%TO.N,~{LED_PWR}*%
X110115260Y-100057795D02*
X109410000Y-99352535D01*
X109410000Y-99352535D02*
X109410000Y-95308433D01*
X109410000Y-95308433D02*
X109322200Y-95220633D01*
X109322200Y-95220633D02*
X109322200Y-94247800D01*
X109322200Y-94247800D02*
X109420000Y-94150000D01*
%TO.N,DIB1{slash}DIB3_SCLK*%
X109156000Y-96076000D02*
X109010000Y-95930000D01*
X109156000Y-100376000D02*
X109156000Y-96076000D01*
X110308700Y-101528700D02*
X109156000Y-100376000D01*
X110308700Y-101950014D02*
X110308700Y-101528700D01*
X110771190Y-102412504D02*
X110308700Y-101950014D01*
D32*
%TO.N,SDMMC_D4*%
X106415310Y-90768600D02*
X105185310Y-90768600D01*
X104720000Y-90303290D02*
X104720000Y-88800000D01*
%TO.N,DIN2*%
X110550000Y-96670000D02*
X109960000Y-96080000D01*
%TO.N,SDMMC_D4*%
X104990000Y-88530000D02*
X105571260Y-88530000D01*
%TO.N,SDMMC_D5*%
X110499421Y-94240580D02*
X110505448Y-94240580D01*
X112430000Y-96165132D02*
X112430000Y-97549999D01*
X112430000Y-97549999D02*
X113950000Y-99070000D01*
%TO.N,SDMMC_D4*%
X105571260Y-88530000D02*
X105610694Y-88569434D01*
D31*
%TO.N,RS485_RX{slash}DIN3*%
X110314021Y-102862978D02*
X110030437Y-102579394D01*
D32*
%TO.N,SDMMC_D4*%
X112201400Y-96259822D02*
X110640972Y-94699394D01*
D31*
%TO.N,RS485_RX{slash}DIN3*%
X107080000Y-101580000D02*
X107080000Y-95510000D01*
X107080000Y-95510000D02*
X107676200Y-94913800D01*
D32*
%TO.N,SDMMC_D4*%
X112201400Y-97644689D02*
X112201400Y-96259822D01*
X114185421Y-100056812D02*
X113570000Y-99441391D01*
D31*
%TO.N,RS485_RX{slash}DIN3*%
X108079394Y-102579394D02*
X107080000Y-101580000D01*
%TO.N,~{DIB5_IRQ}*%
X111718433Y-102130000D02*
X111430633Y-101842200D01*
D32*
%TO.N,SDMMC_D4*%
X105185310Y-90768600D02*
X104720000Y-90303290D01*
X106416710Y-90770000D02*
X106415310Y-90768600D01*
D31*
%TO.N,RS485_RX{slash}DIN3*%
X110314021Y-103052201D02*
X110314021Y-102862978D01*
X110030437Y-102579394D02*
X108079394Y-102579394D01*
X107676200Y-94913800D02*
X107676200Y-94850504D01*
%TO.N,~{DIB5_IRQ}*%
X111820000Y-102130000D02*
X111718433Y-102130000D01*
D32*
%TO.N,SDMMC_D5*%
X110505448Y-94240580D02*
X112430000Y-96165132D01*
%TO.N,SDMMC_D4*%
X106700000Y-90770000D02*
X106416710Y-90770000D01*
X114185421Y-100222900D02*
X114185421Y-100056812D01*
D31*
%TO.N,~{DIB5_IRQ}*%
X110791300Y-101381300D02*
X110791300Y-95380194D01*
D32*
%TO.N,SDMMC_D4*%
X110640972Y-94699394D02*
X110629394Y-94699394D01*
X113570000Y-99013289D02*
X112201400Y-97644689D01*
X113570000Y-99441391D02*
X113570000Y-99013289D01*
D31*
%TO.N,~{DIB5_IRQ}*%
X110791300Y-95380194D02*
X110485600Y-95074494D01*
X111252200Y-101842200D02*
X110791300Y-101381300D01*
X111430633Y-101842200D02*
X111252200Y-101842200D01*
D32*
%TO.N,SDMMC_D4*%
X104720000Y-88800000D02*
X104990000Y-88530000D01*
X110629394Y-94699394D02*
X106700000Y-90770000D01*
%TO.N,DIN2*%
X110550000Y-96830000D02*
X110550000Y-96670000D01*
X109960000Y-96080000D02*
X109710000Y-95830000D01*
X109710000Y-95830000D02*
X109710000Y-95060000D01*
%TO.N,MCU_USB_UP_TX+*%
X114607394Y-75143000D02*
X113183000Y-76567394D01*
X113183000Y-81522606D02*
X113855998Y-82195604D01*
X113183000Y-76567394D02*
X113183000Y-81522606D01*
X113855998Y-82195604D02*
X113855998Y-93628996D01*
X113855998Y-93628996D02*
X113639407Y-93845587D01*
%TO.N,~{DIB3_CSA}*%
X114858302Y-103668302D02*
X114858302Y-98802846D01*
X116638604Y-104578000D02*
X115768000Y-104578000D01*
X115768000Y-104578000D02*
X114858302Y-103668302D01*
X112729512Y-95181692D02*
X112673853Y-95126033D01*
X114858302Y-98802846D02*
X114221400Y-98165944D01*
X114221400Y-98165944D02*
X114221400Y-97221400D01*
X114221400Y-97221400D02*
X112729512Y-95729512D01*
X112729512Y-95729512D02*
X112729512Y-95181692D01*
X116843616Y-104372988D02*
X116638604Y-104578000D01*
%TO.N,DIB4_MISO*%
X114810795Y-94381613D02*
X114761400Y-94431008D01*
X114761400Y-94431008D02*
X114761400Y-95998600D01*
X115775132Y-104190000D02*
X116240000Y-104190000D01*
X114761400Y-95998600D02*
X114200000Y-96560000D01*
X114200000Y-96560000D02*
X114200000Y-96850000D01*
X114200000Y-96850000D02*
X114450000Y-97100000D01*
X114450000Y-97100000D02*
X114450000Y-98071254D01*
X115137702Y-98758956D02*
X115137702Y-103552570D01*
X115137702Y-103552570D02*
X115775132Y-104190000D01*
X114450000Y-98071254D02*
X115137702Y-98758956D01*
%TO.N,/STM32H7 MCU/RCC_OSC_IN*%
X121028908Y-100368243D02*
X121029048Y-100368383D01*
X123660000Y-101220000D02*
X123660000Y-100690000D01*
X121028908Y-100368243D02*
X121028908Y-100368467D01*
X121035925Y-100356024D02*
X121035530Y-100355629D01*
X123670000Y-100680000D02*
X123415000Y-100680000D01*
D31*
X121028908Y-100368243D02*
X121029048Y-100368383D01*
X121028919Y-100368375D02*
X121028482Y-100368812D01*
D32*
X123185000Y-100450000D02*
X121297459Y-100450000D01*
X121204271Y-100356812D02*
X121050612Y-100356812D01*
D31*
X121029207Y-100368511D02*
X121029248Y-100368511D01*
X121033106Y-100364653D02*
X121029248Y-100368511D01*
X121029465Y-100368062D02*
X121029048Y-100367645D01*
X121033106Y-100341260D02*
X121033106Y-100364653D01*
D32*
X121029000Y-100368375D02*
X121028919Y-100368375D01*
X121031924Y-100358366D02*
X121031924Y-100365835D01*
X125450000Y-101170000D02*
X124960000Y-100680000D01*
D31*
X121029000Y-100368375D02*
X121028908Y-100368467D01*
X121028908Y-100368243D02*
X121028908Y-100368467D01*
D32*
X121297459Y-100450000D02*
X121204271Y-100356812D01*
X121029207Y-100368511D02*
X121029656Y-100368062D01*
D31*
X121029048Y-100367645D02*
X121029048Y-100368383D01*
D32*
X121029465Y-100368062D02*
X121029656Y-100368062D01*
D31*
X121029207Y-100368511D02*
X121029656Y-100368062D01*
D32*
X121031924Y-100365835D02*
X121029248Y-100368511D01*
X121029207Y-100368511D02*
X121029248Y-100368511D01*
X121035530Y-100355629D02*
X121034661Y-100355629D01*
X124960000Y-100680000D02*
X123670000Y-100680000D01*
X121029465Y-100368062D02*
X121029048Y-100367645D01*
D31*
X121029465Y-100368062D02*
X121029656Y-100368062D01*
D32*
X123660000Y-100690000D02*
X123670000Y-100680000D01*
X123415000Y-100680000D02*
X123185000Y-100450000D01*
X121029000Y-100368375D02*
X121028908Y-100368467D01*
X125450000Y-101270000D02*
X125450000Y-101170000D01*
X121029048Y-100367645D02*
X121029048Y-100368383D01*
D31*
X121029000Y-100368375D02*
X121028919Y-100368375D01*
D32*
X121028919Y-100368375D02*
X121028482Y-100368812D01*
X121050612Y-100356812D02*
X121049824Y-100356024D01*
X121049824Y-100356024D02*
X121035925Y-100356024D01*
X121034661Y-100355629D02*
X121031924Y-100358366D01*
%TO.N,/STM32H7 MCU/RCC_OSC_OUT*%
X121233043Y-99887630D02*
X121232679Y-99887630D01*
X121231962Y-99888347D02*
X121231515Y-99888347D01*
X121232679Y-99887630D02*
X121231962Y-99888347D01*
X126183900Y-99936100D02*
X124686100Y-99936100D01*
X123740000Y-99230000D02*
X123740000Y-99530000D01*
X124390000Y-99530000D02*
X123740000Y-99530000D01*
X124610000Y-99750000D02*
X124390000Y-99530000D01*
X123740000Y-99530000D02*
X122400000Y-99530000D01*
X127050000Y-99070000D02*
X126183900Y-99936100D01*
X122224533Y-99705467D02*
X121415206Y-99705467D01*
X124610000Y-99860000D02*
X124610000Y-99750000D01*
X124686100Y-99936100D02*
X124610000Y-99860000D01*
X122400000Y-99530000D02*
X122224533Y-99705467D01*
X121415206Y-99705467D02*
X121233043Y-99887630D01*
D31*
%TO.N,GND*%
X115500000Y-76780000D02*
X115500000Y-76180000D01*
X120300000Y-73700000D02*
X120300000Y-74300000D01*
X105970000Y-111302700D02*
X105971500Y-111304200D01*
X122300000Y-107620000D02*
X122300000Y-108180000D01*
X126300000Y-76780000D02*
X126300000Y-76180000D01*
X133490000Y-76460000D02*
X133500000Y-76450000D01*
D32*
X119550000Y-95340000D02*
X119120003Y-95340000D01*
D31*
X128300000Y-110700000D02*
X128300000Y-109970000D01*
X115500000Y-109980000D02*
X115510000Y-109970000D01*
X122700000Y-86010000D02*
X122690000Y-86000000D01*
X103815700Y-107310000D02*
X103770000Y-107355700D01*
D32*
X119919000Y-100392629D02*
X119919000Y-100177548D01*
D31*
X133500000Y-76470000D02*
X133490000Y-76460000D01*
D33*
X130970000Y-101050000D02*
X130660001Y-101050000D01*
D31*
X120300000Y-108295819D02*
X120538179Y-108533998D01*
X118300000Y-108122400D02*
X118122400Y-108300000D01*
X116700000Y-110700000D02*
X116700000Y-110197600D01*
X124700000Y-111242200D02*
X124700000Y-110700000D01*
X133075472Y-95355000D02*
X133310236Y-95589764D01*
X114300000Y-110700000D02*
X114300000Y-109920000D01*
D32*
X116810000Y-98120000D02*
X116800000Y-98110000D01*
D31*
X125100000Y-76780000D02*
X125100000Y-76180000D01*
X115500000Y-108290000D02*
X115500000Y-107620000D01*
D32*
X123660000Y-102475000D02*
X123595000Y-102540000D01*
X116900002Y-98123012D02*
X116900002Y-98919355D01*
D31*
X132300000Y-76780000D02*
X132300000Y-76180000D01*
D33*
X119575560Y-103418200D02*
X119575543Y-103418217D01*
D32*
X121186719Y-97673281D02*
X121160000Y-97700000D01*
D31*
X105971500Y-111304200D02*
X107779900Y-111304200D01*
X116700000Y-76780000D02*
X116700000Y-76180000D01*
X118300000Y-107620000D02*
X118300000Y-108122400D01*
X117900000Y-76780000D02*
X117900000Y-76180000D01*
D32*
X124290000Y-93150000D02*
X124560000Y-93420000D01*
D31*
X128700000Y-107620000D02*
X128700000Y-108340000D01*
D32*
X119830002Y-102863012D02*
X120126988Y-102863012D01*
D31*
X133500000Y-108296396D02*
X133386776Y-108409620D01*
X121025683Y-86044317D02*
X121025683Y-86027215D01*
X114300000Y-109920000D02*
X114590000Y-109630000D01*
D32*
X123740000Y-97665343D02*
X123598598Y-97523941D01*
D31*
X132300000Y-111320000D02*
X132100000Y-111520000D01*
X133500000Y-76780000D02*
X133500000Y-76470000D01*
D34*
X117080000Y-98120000D02*
X116810000Y-98120000D01*
D32*
X121883491Y-97673281D02*
X121186719Y-97673281D01*
D31*
X122700000Y-111242200D02*
X122700000Y-110700000D01*
X131100000Y-76780000D02*
X131100000Y-76180000D01*
X129900000Y-73700000D02*
X129899999Y-74203522D01*
X107779900Y-111304200D02*
X107779900Y-107354200D01*
X125900000Y-109980000D02*
X125910000Y-109970000D01*
D32*
X119120003Y-95340000D02*
X119120003Y-94900000D01*
D31*
X120850000Y-86700000D02*
X120850000Y-86220000D01*
D33*
X130295958Y-101414043D02*
X129836000Y-101414043D01*
D31*
X133500000Y-76450000D02*
X133500000Y-76180000D01*
D33*
X131660000Y-94500000D02*
X131995000Y-94500000D01*
X119700002Y-93743012D02*
X120620002Y-93743012D01*
D31*
X133500000Y-107620000D02*
X133500000Y-108296396D01*
X121500000Y-73700000D02*
X121500000Y-73110000D01*
D32*
X119915002Y-100173550D02*
X119915002Y-99323012D01*
D31*
X122300000Y-108180000D02*
X122150000Y-108330000D01*
X120300000Y-76780000D02*
X120300000Y-76180000D01*
D32*
X116900002Y-98919355D02*
X116807876Y-99011481D01*
X117113796Y-100739216D02*
X117074923Y-100739216D01*
D31*
X116700000Y-73700000D02*
X116700000Y-74300000D01*
X116700000Y-107620000D02*
X116700000Y-108340000D01*
D33*
X130660001Y-101050000D02*
X130295958Y-101414043D01*
D32*
X120672679Y-95542679D02*
X120672679Y-95667321D01*
D31*
X128700000Y-76780000D02*
X128700000Y-76180000D01*
D35*
X119406988Y-89873012D02*
X119950000Y-89330000D01*
D31*
X99949433Y-92500819D02*
X99182465Y-92500819D01*
X99949433Y-91580819D02*
X99154648Y-91580819D01*
X135640000Y-93830000D02*
X135230000Y-93830000D01*
X118122400Y-108300000D02*
X118000000Y-108300000D01*
D35*
X118780002Y-93743012D02*
X117793012Y-93743012D01*
D31*
X127130000Y-108360000D02*
X127100000Y-108330000D01*
X127500000Y-76780000D02*
X127500000Y-77390000D01*
X131900000Y-110700000D02*
X131900000Y-111320000D01*
D35*
X120620002Y-89883012D02*
X120503012Y-89883012D01*
D31*
X124560000Y-95180000D02*
X124560000Y-94260000D01*
X120700000Y-111242200D02*
X120700000Y-110700000D01*
X132850000Y-95355000D02*
X133075472Y-95355000D01*
X129900000Y-76200000D02*
X129870000Y-76170000D01*
X131900000Y-111320000D02*
X132100000Y-111520000D01*
X125900000Y-110700000D02*
X125900000Y-109980000D01*
D32*
X119690002Y-91893012D02*
X118843012Y-91893012D01*
D35*
X116630000Y-95400000D02*
X116630000Y-94780000D01*
X119120002Y-89873012D02*
X119406988Y-89873012D01*
D32*
X119919000Y-100177548D02*
X119915002Y-100173550D01*
D31*
X115500000Y-110700000D02*
X115500000Y-109980000D01*
X103770000Y-111302700D02*
X105970000Y-111302700D01*
X122906990Y-94700000D02*
X122470002Y-94263012D01*
D33*
X120135003Y-103418200D02*
X119575560Y-103418200D01*
D31*
X117490000Y-85435000D02*
X117490000Y-85660000D01*
D32*
X124560000Y-93420000D02*
X124560000Y-94260000D01*
X122126100Y-96796100D02*
X122126100Y-97430672D01*
D31*
X119100000Y-76780000D02*
X119100000Y-76180000D01*
D32*
X118630000Y-95340000D02*
X119120003Y-95340000D01*
D35*
X116630000Y-94780000D02*
X116780000Y-94630000D01*
D31*
X132300000Y-110700000D02*
X132300000Y-111320000D01*
X133500000Y-73700000D02*
X133500000Y-74250000D01*
X103770000Y-107355700D02*
X103770000Y-111302700D01*
X120850000Y-86220000D02*
X121025683Y-86044317D01*
X135230000Y-93830000D02*
X135210000Y-93810000D01*
D35*
X120503012Y-89883012D02*
X119950000Y-89330000D01*
D32*
X121630000Y-96290000D02*
X121630000Y-96300000D01*
D31*
X115500000Y-73700000D02*
X115500000Y-74300000D01*
X127100000Y-110700000D02*
X127100000Y-109970000D01*
X129900000Y-76780000D02*
X129900000Y-76200000D01*
D32*
X118843012Y-91893012D02*
X118620000Y-91670000D01*
D31*
X117490000Y-85660000D02*
X117830000Y-86000000D01*
X114300000Y-107620000D02*
X114300000Y-108340000D01*
D32*
X120126988Y-102863012D02*
X120399830Y-102590170D01*
D31*
X119100000Y-73700000D02*
X119100000Y-74300000D01*
X116546266Y-110043866D02*
X116455432Y-110043866D01*
D32*
X117793012Y-93743012D02*
X117790000Y-93740000D01*
D35*
X116780000Y-95550000D02*
X116630000Y-95400000D01*
D31*
X122960000Y-94700000D02*
X122906990Y-94700000D01*
X127130000Y-108370000D02*
X127130000Y-108360000D01*
D32*
X121630000Y-96300000D02*
X122126100Y-96796100D01*
D33*
X118787016Y-93743012D02*
X118785291Y-93741287D01*
D31*
X118700000Y-111242200D02*
X118700000Y-110700000D01*
D33*
X131995000Y-94500000D02*
X132850000Y-95355000D01*
D31*
X107779900Y-107354200D02*
X107735700Y-107310000D01*
X125900000Y-107620000D02*
X125900000Y-108340000D01*
D32*
X116870000Y-92780000D02*
X116474900Y-92780000D01*
D31*
X120300000Y-107620000D02*
X120300000Y-108295819D01*
X99154648Y-91580819D02*
X99143279Y-91569450D01*
X122700000Y-86625000D02*
X122700000Y-86010000D01*
X127100000Y-108330000D02*
X127100000Y-107620000D01*
X117900000Y-73700000D02*
X117900000Y-74300000D01*
D32*
X123595000Y-102540000D02*
X123500000Y-102540000D01*
D31*
X124300000Y-107620000D02*
X124300000Y-108245846D01*
D32*
X123740000Y-98270000D02*
X123740000Y-97665343D01*
D33*
X119700002Y-93743012D02*
X118787016Y-93743012D01*
D32*
X122126100Y-97430672D02*
X121883491Y-97673281D01*
X117340000Y-100513012D02*
X117113796Y-100739216D01*
X116474900Y-92780000D02*
X116385100Y-92690200D01*
D31*
X121500000Y-76780000D02*
X121500000Y-76180000D01*
D32*
X120672679Y-95667321D02*
X120650000Y-95690000D01*
D31*
X99182465Y-92500819D02*
X99144345Y-92538939D01*
X116700000Y-110197600D02*
X116546266Y-110043866D01*
X124300000Y-108245846D02*
X124397111Y-108342957D01*
%TO.N,ETH_MDC*%
X106671868Y-99925724D02*
X106587522Y-99925724D01*
D32*
%TO.N,+3V3*%
X111929937Y-93825063D02*
X111929937Y-94139937D01*
D34*
X119550000Y-96300000D02*
X118630000Y-96300000D01*
D32*
X116870000Y-93700000D02*
X116870000Y-93740000D01*
D33*
X121520000Y-103510000D02*
X122010000Y-103510000D01*
D31*
X132970000Y-91800000D02*
X132980000Y-91810000D01*
D34*
X117850000Y-97150000D02*
X117830000Y-97170000D01*
D35*
X117890000Y-94780000D02*
X117740000Y-94630000D01*
D34*
X118753014Y-97170000D02*
X118760002Y-97163012D01*
D35*
X117890000Y-95400000D02*
X117890000Y-94780000D01*
D31*
X131100000Y-107000000D02*
X130970000Y-106870000D01*
D34*
X118630000Y-97033010D02*
X118760002Y-97163012D01*
D31*
X132320000Y-91800000D02*
X132970000Y-91800000D01*
D32*
X117240000Y-93330000D02*
X116870000Y-93700000D01*
D34*
X118630000Y-96300000D02*
X118630000Y-97033010D01*
D31*
X101299181Y-92500819D02*
X101300000Y-92500000D01*
X120741181Y-97160000D02*
X120698974Y-97117793D01*
X100909433Y-91580819D02*
X101216736Y-91580819D01*
D35*
X117740000Y-95550000D02*
X117890000Y-95400000D01*
D31*
X101216736Y-91580819D02*
X101306334Y-91670417D01*
X121510002Y-93343012D02*
X121510002Y-93560002D01*
X131100000Y-107620000D02*
X131100000Y-107000000D01*
D34*
X117830000Y-97170000D02*
X118753014Y-97170000D01*
D31*
X121510002Y-93560002D02*
X121680000Y-93730000D01*
D35*
X121650000Y-97160000D02*
X120780000Y-97160000D01*
D31*
X100909433Y-92500819D02*
X101299181Y-92500819D01*
X130700000Y-107620000D02*
X130700000Y-108300000D01*
D32*
X111929937Y-94139937D02*
X111940000Y-94150000D01*
D31*
X121510002Y-94263012D02*
X121186988Y-94263012D01*
D33*
%TO.N,/STM32H7 MCU/VDD_SDC*%
X116850000Y-102480000D02*
X116850000Y-101620000D01*
D31*
X115901498Y-95003861D02*
X115904900Y-95000459D01*
D32*
X116347202Y-101983012D02*
X116486988Y-101983012D01*
X116486988Y-101983012D02*
X116850000Y-101620000D01*
D31*
X115779153Y-95003861D02*
X115901498Y-95003861D01*
X116720000Y-96983010D02*
X116720000Y-96509002D01*
X116720000Y-96509002D02*
X116460280Y-96249282D01*
X116900002Y-97163012D02*
X116720000Y-96983010D01*
D32*
%TO.N,/STM32H7 MCU/VDDSMPS*%
X119830002Y-101313012D02*
X119336713Y-101313012D01*
X121451238Y-101176776D02*
X121256059Y-101176776D01*
X121256059Y-101176776D02*
X121250092Y-101170809D01*
X119336713Y-101313012D02*
X119281498Y-101368227D01*
X121470002Y-101158012D02*
X121451238Y-101176776D01*
%TO.N,~{RESET_OUT}*%
X120224280Y-102100000D02*
X120458415Y-101865865D01*
D31*
X138839999Y-83240000D02*
X138549999Y-82950000D01*
D32*
X119010000Y-103410000D02*
X119130000Y-103290000D01*
X101540000Y-90340000D02*
X101540000Y-89380000D01*
D31*
X105588800Y-102152467D02*
X106834210Y-103397877D01*
X124960000Y-82950000D02*
X123900000Y-84010000D01*
X110153388Y-103440001D02*
X110475288Y-103440001D01*
X116280000Y-79140000D02*
X116280000Y-81062294D01*
X101640000Y-89280000D02*
X101540000Y-89380000D01*
D32*
X120461765Y-100403780D02*
X120690000Y-100175545D01*
X101540000Y-88180000D02*
X101540000Y-89380000D01*
X103870000Y-95050000D02*
X101910000Y-93090000D01*
D31*
X116280000Y-81062294D02*
X119227706Y-84010000D01*
X119227706Y-84010000D02*
X123900000Y-84010000D01*
D32*
X119130000Y-103290000D02*
X119130000Y-102451518D01*
D31*
X132300000Y-106660000D02*
X132180000Y-106540000D01*
X116044648Y-106124648D02*
X116100000Y-106180000D01*
X106834210Y-103397877D02*
X110111264Y-103397877D01*
D32*
X120855884Y-99974116D02*
X120855884Y-99404116D01*
X101910000Y-90710000D02*
X101540000Y-90340000D01*
X105090000Y-84630000D02*
X101540000Y-88180000D01*
X105588800Y-102152467D02*
X105588800Y-101508800D01*
D31*
X105580000Y-102130000D02*
X105588800Y-102138800D01*
X138549999Y-82950000D02*
X124960000Y-82950000D01*
D32*
X120855884Y-99404116D02*
X121130056Y-99129944D01*
X101910000Y-93090000D02*
X101910000Y-90710000D01*
D31*
X110517412Y-103397877D02*
X112980221Y-103397877D01*
D32*
X105588800Y-101508800D02*
X103870000Y-99790000D01*
X120690000Y-100140000D02*
X120855884Y-99974116D01*
D31*
X110475288Y-103440001D02*
X110517412Y-103397877D01*
D32*
X121130056Y-99129944D02*
X121130056Y-99114635D01*
X119130000Y-102451518D02*
X119481518Y-102100000D01*
X103870000Y-99790000D02*
X103870000Y-95050000D01*
X119481518Y-102100000D02*
X120224280Y-102100000D01*
X105090000Y-79930000D02*
X105090000Y-84630000D01*
D31*
X112980221Y-103397877D02*
X115706992Y-106124648D01*
X110111264Y-103397877D02*
X110153388Y-103440001D01*
X105588800Y-102138800D02*
X105588800Y-102152467D01*
D32*
X120458415Y-101865865D02*
X120461765Y-101869215D01*
X120690000Y-100175545D02*
X120690000Y-100140000D01*
D31*
X132300000Y-107620000D02*
X132300000Y-106660000D01*
X115706992Y-106124648D02*
X116044648Y-106124648D01*
D32*
X106120000Y-78900000D02*
X105090000Y-79930000D01*
X120461765Y-101869215D02*
X120461765Y-100403780D01*
D31*
%TO.N,ETH_RX_ERR*%
X106880000Y-87110000D02*
X107290000Y-86700000D01*
X106880000Y-87820000D02*
X106880000Y-87110000D01*
X107290000Y-86700000D02*
X107290000Y-86690000D01*
D32*
%TO.N,DVID_SEL2*%
X130670000Y-86573700D02*
X130670000Y-96100000D01*
X131920000Y-85323700D02*
X130670000Y-86573700D01*
D31*
%TO.N,~{DIB1_CSA}*%
X115698502Y-97221255D02*
X115616263Y-97139016D01*
X115698502Y-97335768D02*
X115698502Y-97221255D01*
X119813800Y-108396302D02*
X119813800Y-108339679D01*
D32*
X115698502Y-97335768D02*
X115698502Y-103167234D01*
D31*
X120300000Y-110700000D02*
X120300000Y-108882502D01*
D32*
X115698502Y-103167234D02*
X115869817Y-103338549D01*
D31*
X115616263Y-97139016D02*
X115614445Y-97139016D01*
X120300000Y-108882502D02*
X119813800Y-108396302D01*
%TO.N,+VAUX*%
X129100000Y-107620000D02*
X129100000Y-107039558D01*
X129100000Y-107039558D02*
X129002288Y-106941846D01*
X129002288Y-106941846D02*
X128893990Y-106941846D01*
%TO.N,~{DIB3_CSA}*%
X123900000Y-107620000D02*
X123900000Y-105830473D01*
X123900000Y-105830473D02*
X123315844Y-105246317D01*
D32*
%TO.N,TFT_DVID_TX1_P*%
X124300000Y-74593286D02*
X124211500Y-74681786D01*
X124300000Y-73700000D02*
X124300000Y-74593286D01*
D31*
%TO.N,~{SYSMCU_CS}*%
X118580000Y-103227522D02*
X118537378Y-103184900D01*
X118700000Y-106489991D02*
X118580000Y-106369991D01*
X118700000Y-107620000D02*
X118700000Y-106489991D01*
X118580000Y-106369991D02*
X118580000Y-103227522D01*
%TO.N,~{TFT_IRQ}*%
X122300000Y-110700000D02*
X122300000Y-110120000D01*
X122300000Y-110120000D02*
X122330000Y-110090000D01*
D32*
%TO.N,MCU_USB_UP_TX-*%
X127415789Y-75665789D02*
X127147000Y-75397000D01*
X126335000Y-75397000D02*
X126080000Y-75397000D01*
X126639800Y-75651000D02*
X126589000Y-75651000D01*
X127415787Y-75881315D02*
X127451707Y-75845392D01*
X126385800Y-75397000D02*
X126335000Y-75397000D01*
X127147000Y-75397000D02*
X126843000Y-75397000D01*
X127973000Y-76457000D02*
X127973000Y-76223000D01*
X127631314Y-76024999D02*
X127595393Y-76060921D01*
X127973000Y-76223000D02*
X127775000Y-76025000D01*
X127900000Y-76780000D02*
X127900000Y-76530000D01*
X127451707Y-75701708D02*
X127415789Y-75665789D01*
X127900000Y-76530000D02*
X127973000Y-76457000D01*
X126487400Y-75549400D02*
X126487400Y-75498600D01*
X126741400Y-75498600D02*
X126741400Y-75549400D01*
X127451709Y-76060921D02*
X127415787Y-76024999D01*
X127775000Y-76025000D02*
G75*
G03*
X127631358Y-76025042I-71800J-71800D01*
G01*
X127451707Y-75845392D02*
G75*
G03*
X127451657Y-75701758I-71807J71792D01*
G01*
X126589000Y-75651000D02*
G75*
G02*
X126487400Y-75549400I0J101600D01*
G01*
X126843000Y-75397000D02*
G75*
G03*
X126741400Y-75498600I0J-101600D01*
G01*
X127415787Y-76024999D02*
G75*
G02*
X127415830Y-75881358I71813J71799D01*
G01*
X126487400Y-75498600D02*
G75*
G03*
X126385800Y-75397000I-101600J0D01*
G01*
X127595393Y-76060921D02*
G75*
G02*
X127451709Y-76060921I-71842J71842D01*
G01*
X126741400Y-75549400D02*
G75*
G02*
X126639800Y-75651000I-101600J0D01*
G01*
%TO.N,SDA*%
X112870000Y-96193290D02*
X112870000Y-97030000D01*
X130300000Y-106910000D02*
X128658000Y-105268000D01*
X112870000Y-97030000D02*
X112960000Y-97120000D01*
X128658000Y-105268000D02*
X128658000Y-101172000D01*
D31*
X135884035Y-83545868D02*
X136178167Y-83840000D01*
X136178167Y-83840000D02*
X136920000Y-83840000D01*
D32*
X125354689Y-85361400D02*
X124971400Y-85361400D01*
X124971400Y-85361400D02*
X124500000Y-84890000D01*
D31*
X125882830Y-83545868D02*
X135884035Y-83545868D01*
D32*
X129108600Y-89115310D02*
X125354689Y-85361400D01*
X111290000Y-85570000D02*
X111290000Y-94410000D01*
X111420000Y-85440000D02*
X111290000Y-85570000D01*
X130300000Y-107620000D02*
X130300000Y-106910000D01*
X112500912Y-95824201D02*
X112870000Y-96193290D01*
X111290000Y-94410000D02*
X112500912Y-95620912D01*
X112500912Y-95620912D02*
X112500912Y-95824201D01*
D31*
X125090186Y-84338512D02*
X125882830Y-83545868D01*
D32*
X129108600Y-100721400D02*
X129108600Y-89115310D01*
X128658000Y-101172000D02*
X129108600Y-100721400D01*
D31*
%TO.N,SCL*%
X136330474Y-83379966D02*
X136266566Y-83379966D01*
X111020000Y-84860000D02*
X110997800Y-84882200D01*
X125056771Y-83280000D02*
X124458781Y-83877990D01*
D32*
X128404000Y-101096000D02*
X128880000Y-100620000D01*
X123932026Y-85110000D02*
X123932026Y-84767200D01*
D31*
X136166600Y-83280000D02*
X125056771Y-83280000D01*
D32*
X128880000Y-89210000D02*
X125260000Y-85590000D01*
X129900000Y-106905132D02*
X128404000Y-105409132D01*
D31*
X124458781Y-83877990D02*
X124458781Y-84086212D01*
X110997800Y-93858449D02*
X110914900Y-93941349D01*
D32*
X129900000Y-107620000D02*
X129900000Y-106905132D01*
X128404000Y-105409132D02*
X128404000Y-101096000D01*
X128880000Y-100620000D02*
X128880000Y-89210000D01*
X125260000Y-85590000D02*
X124412026Y-85590000D01*
X124412026Y-85590000D02*
X123932026Y-85110000D01*
D31*
X136266566Y-83379966D02*
X136166600Y-83280000D01*
X110997800Y-84882200D02*
X110997800Y-93858449D01*
D32*
%TO.N,TFT_DVID_TX2_P*%
X123100000Y-74569109D02*
X123011500Y-74657609D01*
X123100000Y-73700000D02*
X123100000Y-74569109D01*
D31*
%TO.N,~{DIB4_IRQ}*%
X122805023Y-105283929D02*
X122805023Y-105140816D01*
X123100000Y-107620000D02*
X123100000Y-105578906D01*
X123100000Y-105578906D02*
X122805023Y-105283929D01*
%TO.N,WDG_IN*%
X123499174Y-107620826D02*
X123500000Y-107620000D01*
X123500000Y-107620000D02*
X123500000Y-108228842D01*
X123500000Y-108228842D02*
X123597875Y-108326717D01*
D32*
%TO.N,RS485_TX_EN{slash}DOUT2*%
X128150000Y-101010000D02*
X128150000Y-103230000D01*
D31*
X119900000Y-110700000D02*
X119900000Y-111242200D01*
D32*
X127531420Y-91167500D02*
X127787500Y-91167500D01*
X128150000Y-103230000D02*
X127776029Y-103603971D01*
X128640000Y-100520000D02*
X128150000Y-101010000D01*
X127776029Y-103603971D02*
X127776029Y-103636507D01*
X127787500Y-91167500D02*
X128640000Y-92020000D01*
X128640000Y-92020000D02*
X128640000Y-100520000D01*
%TO.N,TFT_DVID_TX2_N*%
X123500000Y-74569109D02*
X123588500Y-74657609D01*
X123500000Y-73700000D02*
X123500000Y-74569109D01*
%TO.N,TFT_DVID_CLK_P*%
X126700000Y-74601228D02*
X126611500Y-74689728D01*
X126700000Y-73700000D02*
X126700000Y-74601228D01*
D31*
%TO.N,~{DIB3_IRQ}*%
X118849404Y-108311594D02*
X118885600Y-108275398D01*
X118849404Y-109888884D02*
X118849404Y-108311594D01*
X119100000Y-110700000D02*
X119100000Y-110139480D01*
X119100000Y-110139480D02*
X118849404Y-109888884D01*
%TO.N,~{DIB5_CSA}*%
X123900000Y-110700000D02*
X123900000Y-109330000D01*
X123900000Y-109330000D02*
X123570000Y-109000000D01*
D32*
%TO.N,TFT_DVID_CLK_N*%
X127100000Y-74601228D02*
X127188500Y-74689728D01*
X127100000Y-73700000D02*
X127100000Y-74601228D01*
%TO.N,DIB1_USB_D+*%
X114027000Y-95180000D02*
X114027000Y-94847394D01*
X120700000Y-73450000D02*
X120700000Y-73700000D01*
X114050000Y-95180000D02*
X114180000Y-95310000D01*
X112797000Y-73922606D02*
X113832606Y-72887000D01*
X120773000Y-73282606D02*
X120773000Y-73377000D01*
X119437600Y-72988600D02*
X119437600Y-73039400D01*
X118421600Y-72988600D02*
X118421600Y-73039400D01*
X114027000Y-95180000D02*
X114050000Y-95180000D01*
X119183600Y-73039400D02*
X119183600Y-72988600D01*
X120377394Y-72887000D02*
X120773000Y-73282606D01*
X120270000Y-72887000D02*
X120377394Y-72887000D01*
X118675600Y-73039400D02*
X118675600Y-72988600D01*
X119844000Y-72887000D02*
X120270000Y-72887000D01*
X113832606Y-72887000D02*
X118320000Y-72887000D01*
X118523200Y-73141000D02*
X118574000Y-73141000D01*
X120773000Y-73377000D02*
X120700000Y-73450000D01*
X118929600Y-72988600D02*
X118929600Y-73039400D01*
X119285200Y-72887000D02*
X119336000Y-72887000D01*
X112797000Y-81907394D02*
X112797000Y-73922606D01*
X119031200Y-73141000D02*
X119082000Y-73141000D01*
X119793200Y-72887000D02*
X119844000Y-72887000D01*
X113080000Y-93900394D02*
X113080000Y-82190394D01*
X113209502Y-94029896D02*
X113080000Y-93900394D01*
X119691600Y-73039400D02*
X119691600Y-72988600D01*
X119539200Y-73141000D02*
X119590000Y-73141000D01*
X113080000Y-82190394D02*
X112797000Y-81907394D01*
X114027000Y-94847394D02*
X113209502Y-94029896D01*
X118777200Y-72887000D02*
X118828000Y-72887000D01*
X119437600Y-73039400D02*
G75*
G03*
X119539200Y-73141000I101600J0D01*
G01*
X118320000Y-72887000D02*
G75*
G02*
X118421600Y-72988600I0J-101600D01*
G01*
X119590000Y-73141000D02*
G75*
G03*
X119691600Y-73039400I0J101600D01*
G01*
X118828000Y-72887000D02*
G75*
G02*
X118929600Y-72988600I0J-101600D01*
G01*
X119082000Y-73141000D02*
G75*
G03*
X119183600Y-73039400I0J101600D01*
G01*
X119183600Y-72988600D02*
G75*
G02*
X119285200Y-72887000I101600J0D01*
G01*
X119336000Y-72887000D02*
G75*
G02*
X119437600Y-72988600I0J-101600D01*
G01*
X118929600Y-73039400D02*
G75*
G03*
X119031200Y-73141000I101600J0D01*
G01*
X118421600Y-73039400D02*
G75*
G03*
X118523200Y-73141000I101600J0D01*
G01*
X119691600Y-72988600D02*
G75*
G02*
X119793200Y-72887000I101600J0D01*
G01*
X118574000Y-73141000D02*
G75*
G03*
X118675600Y-73039400I0J101600D01*
G01*
X118675600Y-72988600D02*
G75*
G02*
X118777200Y-72887000I101600J0D01*
G01*
%TO.N,TFT_DVID_TX0_P*%
X125500000Y-74602002D02*
X125411500Y-74690502D01*
X125500000Y-73700000D02*
X125500000Y-74602002D01*
D31*
%TO.N,~{DIB2_CSA}*%
X121900000Y-110336199D02*
X121813801Y-110250000D01*
D32*
X117270000Y-103954793D02*
X116495207Y-103180000D01*
D31*
X121900000Y-110700000D02*
X121900000Y-110336199D01*
X121813801Y-110026995D02*
X121758811Y-109972005D01*
X121813801Y-110250000D02*
X121813801Y-110026995D01*
D32*
X117270000Y-106002350D02*
X117270000Y-103954793D01*
X116601990Y-106670360D02*
X117270000Y-106002350D01*
X116495207Y-103180000D02*
X116380000Y-103180000D01*
D31*
%TO.N,~{DIB4_CSA}*%
X124667100Y-106731834D02*
X124667100Y-106363866D01*
X124700000Y-106764734D02*
X124667100Y-106731834D01*
X125818006Y-105212960D02*
X126575300Y-105212960D01*
X124667100Y-106363866D02*
X125818006Y-105212960D01*
X124700000Y-107620000D02*
X124700000Y-106764734D01*
D32*
%TO.N,MCU_USB_UP_TX+*%
X127252606Y-75143000D02*
X128227000Y-76117394D01*
X128227000Y-76457000D02*
X128300000Y-76530000D01*
X128300000Y-76530000D02*
X128300000Y-76780000D01*
X128227000Y-76117394D02*
X128227000Y-76457000D01*
X114607394Y-75143000D02*
X127252606Y-75143000D01*
%TO.N,TFT_DVID_TX0_N*%
X125900000Y-74602002D02*
X125988500Y-74690502D01*
X125900000Y-73700000D02*
X125900000Y-74602002D01*
%TO.N,DIB1_USB_D-*%
X121100000Y-73700000D02*
X121100000Y-73450000D01*
X112543000Y-73817394D02*
X112543000Y-82012606D01*
X113720394Y-72640000D02*
X112543000Y-73817394D01*
X113630000Y-95310000D02*
X113773000Y-95167000D01*
X112543000Y-82012606D02*
X112826000Y-82295606D01*
X120489606Y-72640000D02*
X113720394Y-72640000D01*
X113773000Y-94952606D02*
X113773000Y-95167000D01*
X120572606Y-72723000D02*
X120489606Y-72640000D01*
X121100000Y-73450000D02*
X121027000Y-73377000D01*
X112826000Y-94005606D02*
X113773000Y-94952606D01*
X121027000Y-73377000D02*
X121027000Y-73177394D01*
X121027000Y-73177394D02*
X120572606Y-72723000D01*
X112826000Y-82295606D02*
X112826000Y-94005606D01*
X113773000Y-95167000D02*
X113773000Y-95180000D01*
D31*
%TO.N,~{DIB5_IRQ}*%
X111559271Y-110709271D02*
X112380000Y-111530000D01*
X123024600Y-111677800D02*
X123500000Y-111202400D01*
X123500000Y-111202400D02*
X123500000Y-110700000D01*
X118477800Y-111677800D02*
X123024600Y-111677800D01*
X111290000Y-108970000D02*
X111559271Y-109239271D01*
X111559271Y-109239271D02*
X111559271Y-110709271D01*
X111290000Y-107983600D02*
X111290000Y-108970000D01*
X112380000Y-111530000D02*
X118330000Y-111530000D01*
X118330000Y-111530000D02*
X118477800Y-111677800D01*
%TO.N,~{DIB1_IRQ}*%
X119100000Y-107620000D02*
X119100000Y-106556049D01*
X119100000Y-106556049D02*
X119229950Y-106426099D01*
%TO.N,~{SYSMCU_IRQ}*%
X123023837Y-110026232D02*
X123023837Y-108331758D01*
X123100000Y-110102395D02*
X123023837Y-110026232D01*
X123100000Y-110700000D02*
X123100000Y-110102395D01*
%TO.N,~{DIB2_IRQ}*%
X119500000Y-110700000D02*
X119500000Y-108917592D01*
X119500000Y-108917592D02*
X119269810Y-108687402D01*
D32*
%TO.N,TFT_DVID_TX1_N*%
X124700000Y-74593286D02*
X124788500Y-74681786D01*
X124700000Y-73700000D02*
X124700000Y-74593286D01*
%TO.N,BOOT0*%
X111330000Y-97327172D02*
X111330000Y-99430000D01*
X113483800Y-100986200D02*
X113500000Y-100970000D01*
X111380000Y-96100000D02*
X111636700Y-96356700D01*
X111330000Y-99430000D02*
X112886200Y-100986200D01*
D31*
X132700000Y-109793602D02*
X132619898Y-109713500D01*
D32*
X112886200Y-100986200D02*
X113483800Y-100986200D01*
D31*
X132700000Y-110700000D02*
X132700000Y-109793602D01*
D32*
X111636700Y-96356700D02*
X111636700Y-97020472D01*
X111330000Y-96100000D02*
X111380000Y-96100000D01*
X111636700Y-97020472D02*
X111330000Y-97327172D01*
D31*
%TO.N,~{ETH_LINK_ACT}*%
X116168895Y-109599912D02*
X116039320Y-109729487D01*
X116559912Y-109599912D02*
X116168895Y-109599912D01*
X117100000Y-110700000D02*
X117100000Y-110140000D01*
X117100000Y-110140000D02*
X116559912Y-109599912D01*
D32*
%TO.N,ETH_TXRX_B-*%
X103882799Y-105153000D02*
X104500000Y-105153000D01*
X110486602Y-105661000D02*
X110613602Y-105661000D01*
X113139803Y-105330197D02*
X115027001Y-107217395D01*
X111756602Y-105661000D02*
X111883602Y-105661000D01*
X111629602Y-105026000D02*
X111629602Y-105153000D01*
X104500000Y-105153000D02*
X108708602Y-105153000D01*
X111121602Y-104645000D02*
X111248602Y-104645000D01*
X109216602Y-105661000D02*
X109343602Y-105661000D01*
X110740602Y-105534000D02*
X110740602Y-105407000D01*
X109851602Y-104645000D02*
X109978602Y-104645000D01*
X109470602Y-105534000D02*
X109470602Y-105407000D01*
X102720000Y-105006500D02*
X102720000Y-105063000D01*
X102720000Y-105006500D02*
X102373500Y-105006500D01*
X110359602Y-105407000D02*
X110359602Y-105534000D01*
X110359602Y-105153000D02*
X110359602Y-105407000D01*
X102720000Y-105063000D02*
X102810000Y-105153000D01*
X103755799Y-105153000D02*
X103882799Y-105153000D01*
X110740602Y-105153000D02*
X110740602Y-105026000D01*
X111629602Y-105153000D02*
X111629602Y-105407000D01*
X112518602Y-105153000D02*
X112962606Y-105153000D01*
X102373500Y-105006500D02*
X101890000Y-105490000D01*
X109470602Y-105407000D02*
X109470602Y-105153000D01*
X111629602Y-105407000D02*
X111629602Y-105534000D01*
X103374799Y-104899000D02*
X103501799Y-104899000D01*
X112391602Y-105153000D02*
X112518602Y-105153000D01*
X109470602Y-105153000D02*
X109470602Y-105026000D01*
X112962606Y-105153000D02*
X113139803Y-105330197D01*
X102810000Y-105153000D02*
X103120799Y-105153000D01*
X115027001Y-107547001D02*
X115100000Y-107620000D01*
X115027001Y-107217395D02*
X115027001Y-107547001D01*
X110740602Y-105407000D02*
X110740602Y-105153000D01*
X110359602Y-105026000D02*
X110359602Y-105153000D01*
X112010602Y-105534000D02*
G75*
G02*
X112391602Y-105153002I380998J0D01*
G01*
X103628799Y-105026000D02*
G75*
G03*
X103755799Y-105153001I127001J0D01*
G01*
X110359602Y-105534000D02*
G75*
G03*
X110486602Y-105660998I126998J0D01*
G01*
X111248602Y-104645000D02*
G75*
G02*
X111629600Y-105026000I-2J-381000D01*
G01*
X109470602Y-105026000D02*
G75*
G02*
X109851602Y-104645002I380998J0D01*
G01*
X103501799Y-104899000D02*
G75*
G02*
X103628800Y-105026000I1J-127000D01*
G01*
X109978602Y-104645000D02*
G75*
G02*
X110359600Y-105026000I-2J-381000D01*
G01*
X109343602Y-105661000D02*
G75*
G03*
X109470600Y-105534000I-2J127000D01*
G01*
X103247799Y-105026000D02*
G75*
G02*
X103374799Y-104898999I127001J0D01*
G01*
X110740602Y-105026000D02*
G75*
G02*
X111121602Y-104645002I380998J0D01*
G01*
X108708602Y-105153000D02*
G75*
G02*
X109089600Y-105534000I-2J-381000D01*
G01*
X103120799Y-105153000D02*
G75*
G03*
X103247800Y-105026000I1J127000D01*
G01*
X110613602Y-105661000D02*
G75*
G03*
X110740600Y-105534000I-2J127000D01*
G01*
X109089602Y-105534000D02*
G75*
G03*
X109216602Y-105660998I126998J0D01*
G01*
X111883602Y-105661000D02*
G75*
G03*
X112010600Y-105534000I-2J127000D01*
G01*
X111629602Y-105534000D02*
G75*
G03*
X111756602Y-105660998I126998J0D01*
G01*
%TO.N,ETH_TXRX_A-*%
X112443220Y-103927000D02*
X115522479Y-107006259D01*
X101890000Y-103610000D02*
X102159999Y-103610000D01*
X102720000Y-103957000D02*
X102750000Y-103927000D01*
X102761020Y-104108980D02*
X102720000Y-104150000D01*
X102820000Y-104108980D02*
X102761020Y-104108980D01*
X102820000Y-104108980D02*
X102820000Y-104107990D01*
X102750000Y-103927000D02*
X112443220Y-103927000D01*
X102159999Y-103610000D02*
X102180000Y-103589999D01*
X102180000Y-103589999D02*
X102180000Y-103470000D01*
X115522479Y-107006259D02*
X115769845Y-107006259D01*
X115900000Y-107136414D02*
X115900000Y-107620000D01*
X102720000Y-104150000D02*
X102720000Y-103957000D01*
X115769845Y-107006259D02*
X115900000Y-107136414D01*
D31*
%TO.N,~{ETH_LINK100}*%
X117500000Y-110700000D02*
X117500000Y-110249718D01*
X117492667Y-110242385D02*
X117491913Y-110242385D01*
X117500000Y-110249718D02*
X117492667Y-110242385D01*
D32*
%TO.N,ETH_TXRX_B+*%
X112857394Y-105407000D02*
X112960197Y-105509803D01*
X110994602Y-105153000D02*
X110994602Y-105026000D01*
X114772999Y-107322605D02*
X114772999Y-107547001D01*
X110105602Y-105153000D02*
X110105602Y-105407000D01*
X111375602Y-105026000D02*
X111375602Y-105153000D01*
X111375602Y-105407000D02*
X111375602Y-105534000D01*
X102810000Y-105407000D02*
X108708602Y-105407000D01*
X112391602Y-105407000D02*
X112518602Y-105407000D01*
X111121602Y-104899000D02*
X111248602Y-104899000D01*
X109216602Y-105915000D02*
X109343602Y-105915000D01*
X102720000Y-105600000D02*
X101890000Y-106430000D01*
X111756602Y-105915000D02*
X111883602Y-105915000D01*
X109724602Y-105534000D02*
X109724602Y-105407000D01*
X102720000Y-105553500D02*
X102720000Y-105497000D01*
X102720000Y-105497000D02*
X102810000Y-105407000D01*
X102720000Y-105553500D02*
X102720000Y-105600000D01*
X109724602Y-105153000D02*
X109724602Y-105026000D01*
X110105602Y-105407000D02*
X110105602Y-105534000D01*
X110994602Y-105534000D02*
X110994602Y-105407000D01*
X110486602Y-105915000D02*
X110613602Y-105915000D01*
X112518602Y-105407000D02*
X112857394Y-105407000D01*
X111375602Y-105153000D02*
X111375602Y-105407000D01*
X112960197Y-105509803D02*
X114772999Y-107322605D01*
X114772999Y-107547001D02*
X114700000Y-107620000D01*
X109724602Y-105407000D02*
X109724602Y-105153000D01*
X110994602Y-105407000D02*
X110994602Y-105153000D01*
X110105602Y-105026000D02*
X110105602Y-105153000D01*
X109851602Y-104899000D02*
X109978602Y-104899000D01*
X109343602Y-105915000D02*
G75*
G03*
X109724600Y-105534000I-2J381000D01*
G01*
X110105602Y-105534000D02*
G75*
G03*
X110486602Y-105914998I380998J0D01*
G01*
X112264602Y-105534000D02*
G75*
G02*
X112391602Y-105407002I126998J0D01*
G01*
X111375602Y-105534000D02*
G75*
G03*
X111756602Y-105914998I380998J0D01*
G01*
X110613602Y-105915000D02*
G75*
G03*
X110994600Y-105534000I-2J381000D01*
G01*
X108708602Y-105407000D02*
G75*
G02*
X108835600Y-105534000I-2J-127000D01*
G01*
X109978602Y-104899000D02*
G75*
G02*
X110105600Y-105026000I-2J-127000D01*
G01*
X111883602Y-105915000D02*
G75*
G03*
X112264600Y-105534000I-2J381000D01*
G01*
X108835602Y-105534000D02*
G75*
G03*
X109216602Y-105914998I380998J0D01*
G01*
X109724602Y-105026000D02*
G75*
G02*
X109851602Y-104899002I126998J0D01*
G01*
X111248602Y-104899000D02*
G75*
G02*
X111375600Y-105026000I-2J-127000D01*
G01*
X110994602Y-105026000D02*
G75*
G02*
X111121602Y-104899002I126998J0D01*
G01*
%TO.N,ETH_TXRX_A+*%
X101930000Y-104590000D02*
X101890000Y-104550000D01*
X110583539Y-103673000D02*
X112551258Y-103673000D01*
X102330000Y-104590000D02*
X102318500Y-104578500D01*
X102318500Y-103966982D02*
X102542155Y-103743327D01*
X115907259Y-106750259D02*
X115628517Y-106750259D01*
X110053438Y-103681301D02*
X110575238Y-103681301D01*
X102318500Y-104578500D02*
X102318500Y-103966982D01*
X116300000Y-107620000D02*
X116300000Y-107143000D01*
X110045137Y-103673000D02*
X110053438Y-103681301D01*
X102330000Y-104590000D02*
X101930000Y-104590000D01*
X102542155Y-103743327D02*
X102612482Y-103673000D01*
X115628517Y-106750259D02*
X112551258Y-103673000D01*
X103440000Y-103673000D02*
X110045137Y-103673000D01*
X116300000Y-107143000D02*
X115907259Y-106750259D01*
X102866482Y-103419000D02*
X102993482Y-103419000D01*
X103247482Y-103673000D02*
X103374482Y-103673000D01*
X110575238Y-103681301D02*
X110583539Y-103673000D01*
X103374482Y-103673000D02*
X103440000Y-103673000D01*
X102993482Y-103419000D02*
G75*
G02*
X103120500Y-103546000I18J-127000D01*
G01*
X102739482Y-103546000D02*
G75*
G02*
X102866482Y-103418982I127018J0D01*
G01*
X102612482Y-103673000D02*
G75*
G03*
X102739500Y-103546000I18J127000D01*
G01*
X103120482Y-103546000D02*
G75*
G03*
X103247482Y-103673018I127018J0D01*
G01*
%TO.N,XSPIM_P1_IO0*%
X130088982Y-96550347D02*
X130139782Y-96550347D01*
X130139782Y-96296347D02*
X130088982Y-96296347D01*
X132350000Y-97980000D02*
X132350000Y-98370000D01*
X130139782Y-96804347D02*
X130088982Y-96804347D01*
X130241382Y-97451382D02*
X130380000Y-97590000D01*
X130241382Y-97210747D02*
X130241382Y-97451382D01*
X130837200Y-97590000D02*
X130888000Y-97590000D01*
X130241382Y-95794988D02*
X130241382Y-96194747D01*
X130241382Y-96550347D02*
X130393782Y-96550347D01*
X129987382Y-96397947D02*
X129987382Y-96448747D01*
X130241382Y-97159947D02*
X130241382Y-97210747D01*
X130139782Y-96550347D02*
X130241382Y-96550347D01*
X130583200Y-97844000D02*
X130634000Y-97844000D01*
X129987382Y-96905947D02*
X129987382Y-96956747D01*
X131960000Y-97590000D02*
X132350000Y-97980000D01*
X130393782Y-96804347D02*
X130241382Y-96804347D01*
X130088982Y-97058347D02*
X130139782Y-97058347D01*
X130495382Y-96651947D02*
X130495382Y-96702747D01*
X130481600Y-97691600D02*
X130481600Y-97742400D01*
X131030000Y-97590000D02*
X131960000Y-97590000D01*
X130735600Y-97742400D02*
X130735600Y-97691600D01*
X130888000Y-97590000D02*
X131030000Y-97590000D01*
X130241382Y-96804347D02*
X130139782Y-96804347D01*
X130393782Y-96550347D02*
G75*
G02*
X130495353Y-96651947I18J-101553D01*
G01*
X130139782Y-97058347D02*
G75*
G02*
X130241353Y-97159947I18J-101553D01*
G01*
X130088982Y-96296347D02*
G75*
G03*
X129987447Y-96397947I18J-101553D01*
G01*
X130380000Y-97590000D02*
G75*
G02*
X130481600Y-97691600I0J-101600D01*
G01*
X130481600Y-97742400D02*
G75*
G03*
X130583200Y-97844000I101600J0D01*
G01*
X130735600Y-97691600D02*
G75*
G02*
X130837200Y-97590000I101600J0D01*
G01*
X129987382Y-96956747D02*
G75*
G03*
X130088982Y-97058318I101618J47D01*
G01*
X129987382Y-96448747D02*
G75*
G03*
X130088982Y-96550318I101618J47D01*
G01*
X130088982Y-96804347D02*
G75*
G03*
X129987447Y-96905947I18J-101553D01*
G01*
X130241382Y-96194747D02*
G75*
G02*
X130139782Y-96296282I-101582J47D01*
G01*
X130634000Y-97844000D02*
G75*
G03*
X130735600Y-97742400I0J101600D01*
G01*
X130495382Y-96702747D02*
G75*
G02*
X130393782Y-96804282I-101582J47D01*
G01*
%TO.N,DVID_SEL1*%
X129048136Y-101312336D02*
X129337200Y-101023272D01*
X129048136Y-101390000D02*
X129048136Y-101312336D01*
X129334000Y-86806000D02*
X130550000Y-85590000D01*
X130550000Y-85590000D02*
X130800000Y-85590000D01*
X129334000Y-89017420D02*
X129334000Y-86806000D01*
X129337200Y-89020621D02*
X129334000Y-89017420D01*
X129337200Y-101023272D02*
X129337200Y-89020621D01*
%TO.N,~{XSPIM_P2_CS1}*%
X111750000Y-80750000D02*
X111740000Y-80740000D01*
X112110000Y-80750000D02*
X111750000Y-80750000D01*
%TO.N,XSPIM_P2_DQS0*%
X118289802Y-89630000D02*
X118289802Y-87839802D01*
X118289802Y-87839802D02*
X115470000Y-85020000D01*
X115470000Y-85020000D02*
X115470000Y-80810000D01*
X115470000Y-80810000D02*
X115240000Y-80580000D01*
%TO.N,SDMMC_D5*%
X105609996Y-89091990D02*
X105568010Y-89091990D01*
X105568010Y-89091990D02*
X104980000Y-89680000D01*
X109872052Y-93397684D02*
X109836129Y-93433604D01*
X109117711Y-92499659D02*
X109153632Y-92535580D01*
X104980000Y-90240000D02*
X105270000Y-90530000D01*
X109117709Y-92858868D02*
X109153631Y-92894790D01*
X104980000Y-89680000D02*
X104980000Y-90240000D01*
X109836131Y-93218079D02*
X109872052Y-93254000D01*
X109836129Y-93577288D02*
X109872051Y-93613210D01*
X110015735Y-93613210D02*
X110051657Y-93577289D01*
X105270000Y-90530000D02*
X106788841Y-90530000D01*
X109476919Y-93218078D02*
X109512841Y-93254000D01*
X110231261Y-93972420D02*
X110499421Y-94240580D01*
X109656525Y-93254000D02*
X109692447Y-93218079D01*
X110231262Y-93756894D02*
X110195339Y-93792814D01*
X109476921Y-92858869D02*
X109512842Y-92894790D01*
X109153632Y-92679264D02*
X109117709Y-92715184D01*
X106788841Y-90530000D02*
X108794421Y-92535580D01*
X105510000Y-89191986D02*
X105609996Y-89091990D01*
X108938105Y-92535580D02*
X108974027Y-92499659D01*
X110195341Y-93577289D02*
X110231262Y-93613210D01*
X109297315Y-92894790D02*
X109333237Y-92858869D01*
X109512842Y-93038474D02*
X109476919Y-93074394D01*
X110195339Y-93936498D02*
X110231261Y-93972420D01*
X110231262Y-93613210D02*
G75*
G02*
X110231310Y-93756942I-71862J-71890D01*
G01*
X109692447Y-93218079D02*
G75*
G02*
X109836131Y-93218079I71842J-71842D01*
G01*
X109512841Y-93254000D02*
G75*
G03*
X109656525Y-93254000I71842J71842D01*
G01*
X109872052Y-93254000D02*
G75*
G02*
X109872010Y-93397642I-71852J-71800D01*
G01*
X109512842Y-92894790D02*
G75*
G02*
X109512810Y-93038442I-71842J-71810D01*
G01*
X109476919Y-93074394D02*
G75*
G03*
X109476955Y-93218042I71881J-71806D01*
G01*
X109153632Y-92535580D02*
G75*
G02*
X109153610Y-92679242I-71832J-71820D01*
G01*
X108794421Y-92535580D02*
G75*
G03*
X108938105Y-92535580I71842J71842D01*
G01*
X109153631Y-92894790D02*
G75*
G03*
X109297315Y-92894790I71842J71842D01*
G01*
X109836129Y-93433604D02*
G75*
G03*
X109836175Y-93577242I71871J-71796D01*
G01*
X110051657Y-93577289D02*
G75*
G02*
X110195341Y-93577289I71842J-71842D01*
G01*
X109333237Y-92858869D02*
G75*
G02*
X109476921Y-92858869I71842J-71842D01*
G01*
X108974027Y-92499659D02*
G75*
G02*
X109117711Y-92499659I71842J-71842D01*
G01*
X110195339Y-93792814D02*
G75*
G03*
X110195295Y-93936542I71861J-71886D01*
G01*
X109872051Y-93613210D02*
G75*
G03*
X110015735Y-93613210I71842J71842D01*
G01*
X109117709Y-92715184D02*
G75*
G03*
X109117735Y-92858842I71891J-71816D01*
G01*
%TO.N,SDMMC_D4*%
X105510566Y-88569434D02*
X105610694Y-88569434D01*
D31*
%TO.N,~{LED_ACT}*%
X118248200Y-111254200D02*
X112926400Y-111254200D01*
X112926400Y-111254200D02*
X112740000Y-111067800D01*
X118300000Y-110700000D02*
X118300000Y-111202400D01*
X118300000Y-111202400D02*
X118248200Y-111254200D01*
D32*
%TO.N,REAR_DVID_TX1_N*%
X129500000Y-74601277D02*
X129588500Y-74689777D01*
X129500000Y-73700000D02*
X129500000Y-74601277D01*
%TO.N,REAR_DVID_CLK_P*%
X131490000Y-73710000D02*
X131490000Y-74611500D01*
X131490000Y-74611500D02*
X131411500Y-74690000D01*
X131500000Y-73700000D02*
X131490000Y-73710000D01*
%TO.N,REAR_DVID_TX0_N*%
X130690000Y-73710000D02*
X130690000Y-74601500D01*
X130690000Y-74601500D02*
X130788500Y-74700000D01*
X130700000Y-73700000D02*
X130690000Y-73710000D01*
%TO.N,REAR_DVID_TX1_P*%
X129100000Y-74601277D02*
X129011500Y-74689777D01*
X129100000Y-73700000D02*
X129100000Y-74601277D01*
%TO.N,REAR_DVID_CLK_N*%
X131900000Y-73700000D02*
X131890000Y-73710000D01*
X131890000Y-73710000D02*
X131890000Y-74591500D01*
X131890000Y-74591500D02*
X131988500Y-74690000D01*
%TO.N,REAR_DVID_TX2_N*%
X128300000Y-73700000D02*
X128300000Y-74598084D01*
X128300000Y-74598084D02*
X128388500Y-74686584D01*
%TO.N,REAR_DVID_TX0_P*%
X130300000Y-74611500D02*
X130211500Y-74700000D01*
X130300000Y-73700000D02*
X130300000Y-74611500D01*
%TO.N,REAR_DVID_TX2_P*%
X127900000Y-73700000D02*
X127900000Y-74598084D01*
X127900000Y-74598084D02*
X127811500Y-74686584D01*
D31*
%TO.N,REAR_DVID_SDA*%
X133900000Y-75830000D02*
X133590000Y-75520000D01*
X133900000Y-76780000D02*
X133900000Y-75830000D01*
X133590000Y-75520000D02*
X133510000Y-75440000D01*
%TO.N,REAR_DVID_CEC*%
X124144975Y-76125072D02*
X124155072Y-76125072D01*
X124155072Y-76125072D02*
X124300000Y-76270000D01*
X124300000Y-76270000D02*
X124300000Y-76780000D01*
%TO.N,REAR_DVID_SCL*%
X134120000Y-73720000D02*
X133920000Y-73720000D01*
X133920000Y-73720000D02*
X133900000Y-73700000D01*
D35*
%TO.N,+1V8*%
X123600000Y-95180000D02*
X123600000Y-94260000D01*
D32*
X134420000Y-98720000D02*
X133180000Y-97480000D01*
D31*
X119003842Y-91234901D02*
X118928842Y-91234901D01*
X131450000Y-100090000D02*
X130970000Y-100090000D01*
D32*
X123145857Y-93150000D02*
X122696657Y-92700800D01*
D31*
X117030000Y-79830000D02*
X116760000Y-79830000D01*
X117300000Y-81030000D02*
X117520000Y-81030000D01*
X121540179Y-92453012D02*
X121801056Y-92713889D01*
X131900000Y-107620000D02*
X131900000Y-108100000D01*
X116300000Y-83610000D02*
X116300000Y-83307000D01*
D32*
X123330000Y-93150000D02*
X123145857Y-93150000D01*
D31*
X119748412Y-92637095D02*
X119724329Y-92613012D01*
X131900000Y-108100000D02*
X131690000Y-108310000D01*
X131500000Y-107620000D02*
X131500000Y-107220000D01*
X120620002Y-90843012D02*
X120620002Y-91019460D01*
D34*
X99326423Y-88538095D02*
X99178242Y-88538095D01*
D31*
X122700559Y-92696898D02*
X122696657Y-92700800D01*
D32*
X133180000Y-96814137D02*
X133051735Y-96685872D01*
D31*
X116300000Y-83307000D02*
X116397000Y-83210000D01*
D34*
X99178242Y-88538095D02*
X99135518Y-88580819D01*
D31*
X119700002Y-92783012D02*
X119748412Y-92734602D01*
X122700000Y-88175000D02*
X122875000Y-88175000D01*
D33*
X130970000Y-100090000D02*
X130055000Y-100090000D01*
D31*
X121540002Y-92453012D02*
X121540179Y-92453012D01*
X112132500Y-81840000D02*
X111860000Y-81840000D01*
X132850000Y-96594999D02*
X132940873Y-96685872D01*
D32*
X133180000Y-97480000D02*
X133180000Y-96814137D01*
D31*
X112142500Y-81830000D02*
X112132500Y-81840000D01*
X117520000Y-81030000D02*
X117880000Y-81390000D01*
D33*
X130055000Y-100090000D02*
X129780000Y-100365000D01*
D36*
X131925000Y-96315000D02*
X131660000Y-96050000D01*
D31*
X117490000Y-83409528D02*
X117400236Y-83319764D01*
D33*
X112125000Y-82105000D02*
X111720000Y-81700000D01*
D31*
X121225000Y-88600000D02*
X120800000Y-88175000D01*
D35*
X98909433Y-87660819D02*
X98909433Y-88580819D01*
X110760000Y-80740000D02*
X111720000Y-81700000D01*
D32*
X110720000Y-80740000D02*
X110760000Y-80740000D01*
X134420000Y-99070000D02*
X134420000Y-98720000D01*
D31*
X132850000Y-96315000D02*
X132850000Y-96594999D01*
X122700559Y-92693569D02*
X122700559Y-92696898D01*
X122875000Y-88175000D02*
X123250000Y-88550000D01*
X117490000Y-83885000D02*
X117490000Y-83409528D01*
X121530000Y-88600000D02*
X121225000Y-88600000D01*
X111860000Y-81840000D02*
X111720000Y-81700000D01*
X121801056Y-92713889D02*
X121801056Y-92729679D01*
X119748412Y-92734602D02*
X119748412Y-92637095D01*
D34*
X99135518Y-88580819D02*
X98909433Y-88580819D01*
D31*
X119120002Y-91118741D02*
X119003842Y-91234901D01*
X132940873Y-96685872D02*
X133051735Y-96685872D01*
X120620002Y-91019460D02*
X120865507Y-91264965D01*
X131500000Y-107220000D02*
X131710000Y-107010000D01*
X119120002Y-90833012D02*
X119120002Y-91118741D01*
D36*
X132850000Y-96315000D02*
X131925000Y-96315000D01*
D33*
X112125000Y-83030000D02*
X112125000Y-82105000D01*
D32*
%TO.N,GPIO_VREF*%
X125128622Y-103868622D02*
X125127678Y-103868622D01*
X126825100Y-104235100D02*
X125495100Y-104235100D01*
X129500000Y-107620000D02*
X129500000Y-106910000D01*
X125495100Y-104235100D02*
X125128622Y-103868622D01*
X129500000Y-106910000D02*
X126825100Y-104235100D01*
D31*
%TO.N,DIB4_MISO*%
X121108311Y-108456110D02*
X120700000Y-108047798D01*
X120700000Y-108047798D02*
X120700000Y-107620000D01*
D32*
%TO.N,DIB4_MOSI*%
X115419400Y-103436565D02*
X115419400Y-97474443D01*
D31*
X119995550Y-106743221D02*
X119995550Y-104311603D01*
D32*
X115419400Y-97474443D02*
X114999157Y-97054200D01*
X114999157Y-97054200D02*
X114999157Y-96553979D01*
D31*
X119900000Y-106838771D02*
X119995550Y-106743221D01*
D32*
X116473377Y-103693176D02*
X116440036Y-103726517D01*
X114990000Y-94898947D02*
X115520004Y-94368943D01*
D31*
X119900000Y-107620000D02*
X119900000Y-106838771D01*
D32*
X115709352Y-103726517D02*
X115419400Y-103436565D01*
X114990000Y-96544822D02*
X114990000Y-94898947D01*
X116440036Y-103726517D02*
X115709352Y-103726517D01*
D31*
X119995550Y-104311603D02*
X119909047Y-104225100D01*
D32*
X114999157Y-96553979D02*
X114990000Y-96544822D01*
%TO.N,LTDC_B7*%
X146005100Y-89414900D02*
X146005100Y-91214900D01*
X141815000Y-95405000D02*
X140595001Y-95405000D01*
X140595001Y-95405000D02*
X137517500Y-98482500D01*
X137517500Y-98482500D02*
X137517500Y-102290024D01*
X146030000Y-89390000D02*
X146005100Y-89414900D01*
X137517500Y-102290024D02*
X137046008Y-102761516D01*
X137046008Y-102761516D02*
X136753190Y-102761516D01*
X146005100Y-91214900D02*
X141815000Y-95405000D01*
%TO.N,LTDC_VSYNC*%
X120537900Y-84392100D02*
X118609098Y-86320902D01*
X118609098Y-88189098D02*
X118690000Y-88270000D01*
X124713969Y-84503969D02*
X124251954Y-84503969D01*
X142115100Y-84864900D02*
X130418862Y-84864900D01*
X124140085Y-84392100D02*
X120537900Y-84392100D01*
X142858262Y-84324462D02*
X142655538Y-84324462D01*
X142655538Y-84324462D02*
X142115100Y-84864900D01*
X118609098Y-86320902D02*
X118609098Y-88189098D01*
X125263700Y-85053700D02*
X124713969Y-84503969D01*
X124251954Y-84503969D02*
X124140085Y-84392100D01*
X130230062Y-85053700D02*
X125263700Y-85053700D01*
X130418862Y-84864900D02*
X130230062Y-85053700D01*
%TO.N,LTDC_CLK*%
X137263500Y-102013552D02*
X136983526Y-102293526D01*
X145540000Y-90589528D02*
X145254900Y-90874628D01*
X145254900Y-90874628D02*
X145254900Y-91305100D01*
X140536711Y-95140000D02*
X137263500Y-98413211D01*
X137263500Y-98413211D02*
X137263500Y-102013552D01*
X141420000Y-95140000D02*
X140536711Y-95140000D01*
X145540000Y-88120000D02*
X145540000Y-90589528D01*
X145254900Y-91305100D02*
X141420000Y-95140000D01*
%TO.N,LTDC_R3*%
X136730000Y-98620790D02*
X136730000Y-100710000D01*
X140675554Y-94675236D02*
X136730000Y-98620790D01*
X140855236Y-94675236D02*
X140675554Y-94675236D01*
%TO.N,LTDC_B0*%
X137570000Y-85840000D02*
X137570000Y-94694393D01*
X137570000Y-94694393D02*
X137257264Y-95007129D01*
X137257264Y-95007129D02*
X137250207Y-95007129D01*
%TO.N,LTDC_DE*%
X144370000Y-83850000D02*
X144370000Y-90630000D01*
X144370000Y-90630000D02*
X136350000Y-98650000D01*
X136350000Y-98650000D02*
X136350000Y-103082640D01*
X136350000Y-103082640D02*
X136345618Y-103087022D01*
%TO.N,LTDC_HSYNC*%
X115827315Y-88902685D02*
X115960000Y-88770000D01*
X116270520Y-96735142D02*
X116255662Y-96750000D01*
X115430000Y-96750000D02*
X115253900Y-96573900D01*
X127550446Y-84825100D02*
X127390246Y-84664900D01*
X130324172Y-84636300D02*
X130135372Y-84825100D01*
X142755132Y-83810000D02*
X141928832Y-84636300D01*
X130135372Y-84825100D02*
X127550446Y-84825100D01*
X115827315Y-91730604D02*
X115827315Y-88902685D01*
X115253900Y-95066100D02*
X115420000Y-94900000D01*
X115420000Y-94900000D02*
X115474887Y-94900000D01*
X116010000Y-94000000D02*
X116010000Y-91913289D01*
X114990000Y-85720000D02*
X114990000Y-85710000D01*
X115474887Y-94900000D02*
X115850000Y-94524887D01*
X143330000Y-83810000D02*
X142755132Y-83810000D01*
X141928832Y-84636300D02*
X130324172Y-84636300D01*
X116255662Y-96750000D02*
X115430000Y-96750000D01*
X115960000Y-86690000D02*
X114990000Y-85720000D01*
X115850000Y-94160000D02*
X116010000Y-94000000D01*
X115960000Y-88770000D02*
X115960000Y-86690000D01*
X115850000Y-94524887D02*
X115850000Y-94160000D01*
X116010000Y-91913289D02*
X115827315Y-91730604D01*
X115253900Y-96573900D02*
X115253900Y-95066100D01*
%TO.N,~{LED_PWR}*%
X132929530Y-109286700D02*
X132293300Y-109286700D01*
X132050000Y-109530000D02*
X127720000Y-109530000D01*
X133100000Y-109457170D02*
X132929530Y-109286700D01*
X133100000Y-110700000D02*
X133100000Y-109457170D01*
X132293300Y-109286700D02*
X132050000Y-109530000D01*
D31*
%TO.N,DIB1{slash}DIB3_MISO*%
X119716150Y-104763554D02*
X119431696Y-104479100D01*
X119716150Y-106627490D02*
X119716150Y-104763554D01*
X119500000Y-107620000D02*
X119500000Y-106843640D01*
X119500000Y-106843640D02*
X119716150Y-106627490D01*
%TO.N,DIB2{slash}DIB5_SCLK*%
X121500000Y-107620000D02*
X121500000Y-105286177D01*
X121500000Y-105286177D02*
X121748577Y-105037600D01*
%TO.N,DIB1{slash}DIB3_MOSI*%
X125100000Y-110700000D02*
X125100000Y-109148434D01*
X125100000Y-109148434D02*
X125104217Y-109144217D01*
%TO.N,DIB2{slash}DIB5_MISO*%
X108380400Y-98357800D02*
X108768200Y-97970000D01*
X109040000Y-101639973D02*
X109040000Y-101490000D01*
X113557527Y-103426751D02*
X113616751Y-103426751D01*
X109040000Y-101490000D02*
X108380400Y-100830400D01*
X121900000Y-106030000D02*
X121900000Y-107620000D01*
X109049285Y-101649258D02*
X109040000Y-101639973D01*
X121920000Y-106010000D02*
X121900000Y-106030000D01*
X108380400Y-100830400D02*
X108380400Y-98357800D01*
%TO.N,DIB2{slash}DIB5_MOSI*%
X110742909Y-102932656D02*
X111835778Y-102932656D01*
X107872400Y-101172713D02*
X108398200Y-101698513D01*
X110135647Y-102325394D02*
X110742909Y-102932656D01*
X108735394Y-102325394D02*
X110135647Y-102325394D01*
X122560000Y-108108004D02*
X122560000Y-109188501D01*
X107872400Y-98703959D02*
X107872400Y-101172713D01*
X108398200Y-101698513D02*
X108398200Y-101988200D01*
X122560000Y-109188501D02*
X122466301Y-109282200D01*
X122700000Y-107968004D02*
X122560000Y-108108004D01*
X108398200Y-101988200D02*
X108735394Y-102325394D01*
X122700000Y-107620000D02*
X122700000Y-107968004D01*
X107738600Y-98570159D02*
X107872400Y-98703959D01*
D32*
%TO.N,DIB1{slash}DIB3_SCLK*%
X110500000Y-90970000D02*
X110500000Y-93220000D01*
D31*
X110860000Y-106723864D02*
X110861932Y-106721932D01*
X124300000Y-110202421D02*
X124458085Y-110044336D01*
D32*
X110500000Y-93220000D02*
X110610000Y-93330000D01*
D31*
X124300000Y-110700000D02*
X124300000Y-110202421D01*
X110860000Y-109421257D02*
X110860000Y-106723864D01*
X115089801Y-89943095D02*
X115084283Y-89948613D01*
X111073071Y-109634328D02*
X110860000Y-109421257D01*
X115089801Y-89923213D02*
X115089801Y-89943095D01*
%TO.N,/Ethernet PHY\u002C PSRAM\u002C eMMC/+3V3_LAN*%
X100870000Y-106430000D02*
X100870000Y-105490000D01*
X100870000Y-104550000D02*
X100870000Y-103610000D01*
X101450000Y-101610000D02*
X101850000Y-102010000D01*
X101850000Y-102660000D02*
X101840000Y-102670000D01*
X101810000Y-102670000D02*
X100870000Y-103610000D01*
X101840000Y-102670000D02*
X101810000Y-102670000D01*
X101850000Y-102010000D02*
X101850000Y-102660000D01*
X100870000Y-105490000D02*
X100870000Y-104550000D01*
%TO.N,Net-(IC6-XTAL2)*%
X104856118Y-107390418D02*
X104775700Y-107310000D01*
X104675700Y-108900000D02*
X105500000Y-108900000D01*
X105570000Y-107429369D02*
X105531049Y-107390418D01*
X105570000Y-108830000D02*
X105570000Y-107429369D01*
X105500000Y-108900000D02*
X105570000Y-108830000D01*
X105531049Y-107390418D02*
X104856118Y-107390418D01*
%TO.N,Net-(IC6-XTAL1{slash}CLKIN)*%
X106214673Y-107310000D02*
X106775700Y-107310000D01*
X105971500Y-109595800D02*
X105971500Y-107553173D01*
X105971500Y-107553173D02*
X106214673Y-107310000D01*
X106875700Y-110500000D02*
X105971500Y-109595800D01*
D35*
%TO.N,Net-(IC5-VDDI)*%
X105108614Y-88067351D02*
X105110568Y-88069305D01*
X105108614Y-87360000D02*
X106030000Y-87360000D01*
X105108614Y-87360000D02*
X105108614Y-88067351D01*
D31*
%TO.N,/DVID converter\u002C NOR Flash/DVDD*%
X136600000Y-93830000D02*
X137076200Y-93830000D01*
X137076200Y-93830000D02*
X137080000Y-93833800D01*
D32*
%TO.N,DIN2*%
X121100000Y-110700000D02*
X121100000Y-110122790D01*
X110550000Y-101590000D02*
X110600000Y-101590000D01*
X121100000Y-110122790D02*
X121099410Y-110122200D01*
X110550000Y-101590000D02*
X110550000Y-96830000D01*
X110600000Y-101590000D02*
X111270000Y-102260000D01*
D33*
%TO.N,Net-(IC3C-VREFM)*%
X121620000Y-98120000D02*
X120701988Y-98120000D01*
%TO.N,Net-(IC3C-VSSA)*%
X118760002Y-98123012D02*
X117836988Y-98123012D01*
D34*
X117480000Y-98120000D02*
X117820000Y-98120000D01*
D32*
X117820000Y-98120000D02*
X117830000Y-98130000D01*
%TO.N,DVID_CEC*%
X117297802Y-102432198D02*
X117297802Y-102921651D01*
X117630000Y-102100000D02*
X117297802Y-102432198D01*
X127020000Y-103510000D02*
X127270000Y-103510000D01*
X137951246Y-94781246D02*
X137951246Y-85521246D01*
X124355100Y-103064900D02*
X126574900Y-103064900D01*
X137230000Y-96540000D02*
X138020000Y-95750000D01*
X138020000Y-95750000D02*
X138020000Y-94850000D01*
X123410000Y-104010000D02*
X124355100Y-103064900D01*
X117936151Y-103560000D02*
X118080000Y-103560000D01*
X126574900Y-103064900D02*
X127020000Y-103510000D01*
X117297802Y-102921651D02*
X117936151Y-103560000D01*
X120490000Y-104010000D02*
X123410000Y-104010000D01*
X138020000Y-94850000D02*
X137951246Y-94781246D01*
X137951246Y-85521246D02*
X137710000Y-85280000D01*
D33*
%TO.N,/DVID converter\u002C NOR Flash/TVDD*%
X134020000Y-91800000D02*
X134020000Y-90315000D01*
X134020000Y-90315000D02*
X133865000Y-90160000D01*
D32*
%TO.N,DVID_HPD*%
X116385607Y-91936088D02*
X116356088Y-91936088D01*
X116060000Y-91640000D02*
X116060000Y-89060000D01*
X116460000Y-87550000D02*
X116650000Y-87360000D01*
X116460000Y-87550000D02*
X116460000Y-88660000D01*
X116460000Y-88660000D02*
X116060000Y-89060000D01*
X116356088Y-91936088D02*
X116060000Y-91640000D01*
D31*
%TO.N,REAR_DVID_HPD*%
X124700000Y-77282400D02*
X124700000Y-76780000D01*
X125037600Y-77620000D02*
X124700000Y-77282400D01*
X125180000Y-77620000D02*
X125037600Y-77620000D01*
%TO.N,UART_RX{slash}DIN1*%
X125500000Y-106980000D02*
X127139764Y-105340236D01*
X125500000Y-107620000D02*
X125500000Y-106980000D01*
X127139764Y-105340236D02*
X127139764Y-105080236D01*
%TO.N,RS485_RX{slash}DIN3*%
X133900000Y-108150000D02*
X134520000Y-108770000D01*
X133900000Y-107620000D02*
X133900000Y-108150000D01*
X134520000Y-108770000D02*
X134520000Y-110620000D01*
X134520000Y-110620000D02*
X134540000Y-110640000D01*
%TO.N,UART_TX{slash}DOUT1*%
X125100000Y-107620000D02*
X125100000Y-106569599D01*
X125100000Y-106569599D02*
X125054900Y-106524499D01*
%TO.N,RS485_TX{slash}DOUT3*%
X109860840Y-101937594D02*
X109758434Y-102040000D01*
X108652200Y-101557382D02*
X108126400Y-101031582D01*
X108871318Y-102040000D02*
X108652200Y-101820882D01*
X108126400Y-96708200D02*
X107978200Y-96560000D01*
X133040000Y-109020000D02*
X129970000Y-109020000D01*
X108126400Y-101031582D02*
X108126400Y-96708200D01*
X109758434Y-102040000D02*
X108871318Y-102040000D01*
X108652200Y-101820882D02*
X108652200Y-101557382D01*
X133500000Y-109480000D02*
X133040000Y-109020000D01*
X133500000Y-110700000D02*
X133500000Y-109480000D01*
D32*
%TO.N,GND*%
X112180000Y-92025000D02*
X112180000Y-92240000D01*
X112180000Y-92240000D02*
X112440000Y-92500000D01*
X115480000Y-92790000D02*
X114790000Y-93480000D01*
X115530000Y-92790000D02*
X115480000Y-92790000D01*
%TO.N,MCU_USB_UP_TX-*%
X113437000Y-81417394D02*
X114110000Y-82090394D01*
X114110000Y-82090394D02*
X114110000Y-93630786D01*
X114110000Y-93630786D02*
X114232340Y-93753126D01*
X126080000Y-75397000D02*
X114712606Y-75397000D01*
X114712606Y-75397000D02*
X113437000Y-76672606D01*
X113437000Y-76672606D02*
X113437000Y-81417394D01*
%TD*%
%TA.AperFunction,Conductor*%
%TO.N,/CM5 socket/+5V_IN*%
G36*
X131266810Y-109801236D02*
G01*
X131361001Y-109816155D01*
X131390930Y-109825880D01*
X131468749Y-109865531D01*
X131494212Y-109884031D01*
X131555968Y-109945787D01*
X131574468Y-109971250D01*
X131614119Y-110049069D01*
X131623845Y-110079003D01*
X131638761Y-110173176D01*
X131640000Y-110188914D01*
X131640000Y-110719357D01*
X131638754Y-110735140D01*
X131623753Y-110829573D01*
X131613973Y-110859581D01*
X131574108Y-110937564D01*
X131555510Y-110963066D01*
X131493446Y-111024854D01*
X131467860Y-111043339D01*
X131389699Y-111082856D01*
X131359647Y-111092502D01*
X131265148Y-111107080D01*
X131249361Y-111108255D01*
X130341946Y-111104205D01*
X129787190Y-111101728D01*
X129771503Y-111100426D01*
X129677653Y-111085175D01*
X129647838Y-111075370D01*
X129570361Y-111035588D01*
X129545023Y-111017076D01*
X129483568Y-110955346D01*
X129465175Y-110929935D01*
X129425734Y-110852271D01*
X129416064Y-110822418D01*
X129401231Y-110728490D01*
X129400000Y-110712798D01*
X129400000Y-110188914D01*
X129401236Y-110173189D01*
X129416155Y-110078996D01*
X129425880Y-110049069D01*
X129465533Y-109971246D01*
X129484028Y-109945790D01*
X129545790Y-109884028D01*
X129571246Y-109865533D01*
X129649070Y-109825879D01*
X129678996Y-109816155D01*
X129773189Y-109801236D01*
X129788914Y-109800000D01*
X131251086Y-109800000D01*
X131266810Y-109801236D01*
G37*
%TD.AperFunction*%
%TD*%
%TA.AperFunction,Conductor*%
%TO.N,/STM32H7 MCU/VLXSMPS*%
G36*
X118700635Y-100219213D02*
G01*
X118737180Y-100269513D01*
X118742104Y-100300600D01*
X118742104Y-100342767D01*
X118767855Y-100438871D01*
X118767855Y-100438872D01*
X118795163Y-100486169D01*
X118808090Y-100546985D01*
X118782802Y-100603784D01*
X118779177Y-100607603D01*
X118759611Y-100627169D01*
X118711829Y-100709928D01*
X118711829Y-100709929D01*
X118687100Y-100802218D01*
X118687100Y-100897781D01*
X118711829Y-100990070D01*
X118711829Y-100990071D01*
X118711831Y-100990074D01*
X118759608Y-101072826D01*
X118827174Y-101140392D01*
X118881280Y-101171630D01*
X118922883Y-101217835D01*
X118929382Y-101279668D01*
X118928153Y-101284787D01*
X118918598Y-101320447D01*
X118918598Y-101416008D01*
X118943327Y-101508297D01*
X118943327Y-101508298D01*
X118943329Y-101508301D01*
X118991106Y-101591053D01*
X118991108Y-101591055D01*
X119058672Y-101658619D01*
X119060636Y-101660126D01*
X119061640Y-101661587D01*
X119063335Y-101663282D01*
X119063021Y-101663595D01*
X119095855Y-101711363D01*
X119100000Y-101739941D01*
X119100000Y-102133812D01*
X119080787Y-102192943D01*
X119070535Y-102204947D01*
X118946545Y-102328936D01*
X118946543Y-102328939D01*
X118913600Y-102408471D01*
X118913600Y-102799400D01*
X118908676Y-102814554D01*
X118908676Y-102830487D01*
X118899310Y-102843377D01*
X118894387Y-102858531D01*
X118881496Y-102867896D01*
X118872131Y-102880787D01*
X118856977Y-102885710D01*
X118844087Y-102895076D01*
X118813000Y-102900000D01*
X118796672Y-102900000D01*
X118746372Y-102886522D01*
X118677453Y-102846731D01*
X118677448Y-102846729D01*
X118585159Y-102822000D01*
X118585155Y-102822000D01*
X118489601Y-102822000D01*
X118489596Y-102822000D01*
X118397307Y-102846729D01*
X118397302Y-102846731D01*
X118328384Y-102886522D01*
X118278084Y-102900000D01*
X118163908Y-102900000D01*
X118144284Y-102898067D01*
X118117774Y-102892794D01*
X118063528Y-102862413D01*
X118037499Y-102805949D01*
X118036802Y-102794127D01*
X118036802Y-102718089D01*
X118036801Y-102718083D01*
X118012072Y-102625794D01*
X118012072Y-102625793D01*
X118012071Y-102625791D01*
X117964294Y-102543039D01*
X117929465Y-102508210D01*
X117925779Y-102500976D01*
X117919213Y-102496206D01*
X117911933Y-102473800D01*
X117901239Y-102452812D01*
X117900000Y-102437075D01*
X117900000Y-102383550D01*
X117917752Y-102328914D01*
X117917095Y-102328535D01*
X117918880Y-102325442D01*
X117919213Y-102324419D01*
X117920352Y-102322892D01*
X117920387Y-102322830D01*
X117920392Y-102322826D01*
X117968169Y-102240074D01*
X117992900Y-102147777D01*
X117992900Y-102052223D01*
X117968169Y-101959926D01*
X117920392Y-101877174D01*
X117920389Y-101877171D01*
X117917095Y-101871465D01*
X117918328Y-101870752D01*
X117900034Y-101819070D01*
X117900000Y-101816449D01*
X117900000Y-100463908D01*
X117901933Y-100444282D01*
X117915431Y-100376424D01*
X117930452Y-100340160D01*
X117956885Y-100300600D01*
X117963279Y-100291030D01*
X117991030Y-100263279D01*
X118040160Y-100230451D01*
X118076424Y-100215431D01*
X118144282Y-100201933D01*
X118163908Y-100200000D01*
X118641504Y-100200000D01*
X118700635Y-100219213D01*
G37*
%TD.AperFunction*%
%TD*%
M02*
