%TF.GenerationSoftware,KiCad,Pcbnew,9.0.7-9.0.7~ubuntu24.04.1*%
%TF.CreationDate,2026-01-17T16:42:46+01:00*%
%TF.ProjectId,BB3plus CM5 STM32H7 module,42423370-6c75-4732-9043-4d352053544d,r1B3*%
%TF.SameCoordinates,Original*%
%TF.FileFunction,Soldermask,Bot*%
%TF.FilePolarity,Negative*%
%FSLAX46Y46*%
G04 Gerber Fmt 4.6, Leading zero omitted, Abs format (unit mm)*
G04 Created by KiCad (PCBNEW 9.0.7-9.0.7~ubuntu24.04.1) date 2026-01-17 16:42:46*
%MOMM*%
%LPD*%
G01*
G04 APERTURE LIST*
G04 Aperture macros list*
%AMRoundRect*
0 Rectangle with rounded corners*
0 $1 Rounding radius*
0 $2 $3 $4 $5 $6 $7 $8 $9 X,Y pos of 4 corners*
0 Add a 4 corners polygon primitive as box body*
4,1,4,$2,$3,$4,$5,$6,$7,$8,$9,$2,$3,0*
0 Add four circle primitives for the rounded corners*
1,1,$1+$1,$2,$3*
1,1,$1+$1,$4,$5*
1,1,$1+$1,$6,$7*
1,1,$1+$1,$8,$9*
0 Add four rect primitives between the rounded corners*
20,1,$1+$1,$2,$3,$4,$5,0*
20,1,$1+$1,$4,$5,$6,$7,0*
20,1,$1+$1,$6,$7,$8,$9,0*
20,1,$1+$1,$8,$9,$2,$3,0*%
G04 Aperture macros list end*
%ADD10C,2.387600*%
%ADD11C,0.990600*%
%ADD12RoundRect,0.135000X0.135000X0.185000X-0.135000X0.185000X-0.135000X-0.185000X0.135000X-0.185000X0*%
%ADD13C,6.100000*%
%ADD14R,0.230000X0.660000*%
%ADD15R,0.350000X0.660000*%
%ADD16RoundRect,0.140000X-0.170000X0.140000X-0.170000X-0.140000X0.170000X-0.140000X0.170000X0.140000X0*%
%ADD17RoundRect,0.102000X-0.700000X0.600000X-0.700000X-0.600000X0.700000X-0.600000X0.700000X0.600000X0*%
%ADD18RoundRect,0.140000X0.170000X-0.140000X0.170000X0.140000X-0.170000X0.140000X-0.170000X-0.140000X0*%
%ADD19RoundRect,0.140000X0.140000X0.170000X-0.140000X0.170000X-0.140000X-0.170000X0.140000X-0.170000X0*%
%ADD20RoundRect,0.225000X-0.225000X-0.250000X0.225000X-0.250000X0.225000X0.250000X-0.225000X0.250000X0*%
%ADD21RoundRect,0.140000X-0.140000X-0.170000X0.140000X-0.170000X0.140000X0.170000X-0.140000X0.170000X0*%
%ADD22RoundRect,0.225000X0.250000X-0.225000X0.250000X0.225000X-0.250000X0.225000X-0.250000X-0.225000X0*%
%ADD23RoundRect,0.225000X0.225000X0.250000X-0.225000X0.250000X-0.225000X-0.250000X0.225000X-0.250000X0*%
%ADD24RoundRect,0.225000X-0.250000X0.225000X-0.250000X-0.225000X0.250000X-0.225000X0.250000X0.225000X0*%
%ADD25RoundRect,0.135000X-0.135000X-0.185000X0.135000X-0.185000X0.135000X0.185000X-0.135000X0.185000X0*%
%ADD26RoundRect,0.057252X0.506248X0.556248X-0.506248X0.556248X-0.506248X-0.556248X0.506248X-0.556248X0*%
%ADD27RoundRect,0.048381X-0.459619X-0.891419X0.459619X-0.891419X0.459619X0.891419X-0.459619X0.891419X0*%
%ADD28RoundRect,0.102000X-0.600000X-0.700000X0.600000X-0.700000X0.600000X0.700000X-0.600000X0.700000X0*%
%ADD29RoundRect,0.057252X-0.556248X0.506248X-0.556248X-0.506248X0.556248X-0.506248X0.556248X0.506248X0*%
G04 APERTURE END LIST*
D10*
%TO.C,X1*%
X108370000Y-78876000D03*
D11*
X108370000Y-76336000D03*
D10*
X108370000Y-73796000D03*
X105195000Y-78876000D03*
X105195000Y-73796000D03*
D11*
X103290000Y-77352000D03*
X103290000Y-75320000D03*
%TD*%
D12*
%TO.C,R12*%
X105320000Y-102870000D03*
X104300000Y-102870000D03*
%TD*%
D13*
%TO.C,SoM1*%
X97600000Y-108700000D03*
X145600000Y-108700000D03*
X97600000Y-75700000D03*
X145600000Y-75700000D03*
D14*
X114300000Y-110515000D03*
X114300000Y-107805000D03*
X114700000Y-110515000D03*
X114700000Y-107805000D03*
X115100000Y-110515000D03*
X115100000Y-107805000D03*
X115500000Y-110515000D03*
X115500000Y-107805000D03*
X115900000Y-110515000D03*
X115900000Y-107805000D03*
X116300000Y-110515000D03*
X116300000Y-107805000D03*
X116700000Y-110515000D03*
X116700000Y-107805000D03*
X117100000Y-110515000D03*
X117100000Y-107805000D03*
X117500000Y-110515000D03*
X117500000Y-107805000D03*
X117900000Y-110515000D03*
X117900000Y-107805000D03*
X118300000Y-110515000D03*
X118300000Y-107805000D03*
X118700000Y-110515000D03*
X118700000Y-107805000D03*
X119100000Y-110515000D03*
X119100000Y-107805000D03*
X119500000Y-110515000D03*
X119500000Y-107805000D03*
X119900000Y-110515000D03*
X119900000Y-107805000D03*
X120300000Y-110515000D03*
X120300000Y-107805000D03*
X120700000Y-110515000D03*
X120700000Y-107805000D03*
X121100000Y-110515000D03*
X121100000Y-107805000D03*
X121500000Y-110515000D03*
X121500000Y-107805000D03*
X121900000Y-110515000D03*
X121900000Y-107805000D03*
X122300000Y-110515000D03*
X122300000Y-107805000D03*
X122700000Y-110515000D03*
X122700000Y-107805000D03*
X123100000Y-110515000D03*
X123100000Y-107805000D03*
X123500000Y-110515000D03*
X123500000Y-107805000D03*
X123900000Y-110515000D03*
X123900000Y-107805000D03*
X124300000Y-110515000D03*
X124300000Y-107805000D03*
X124700000Y-110515000D03*
X124700000Y-107805000D03*
X125100000Y-110515000D03*
X125100000Y-107805000D03*
X125500000Y-110515000D03*
X125500000Y-107805000D03*
X125900000Y-110515000D03*
X125900000Y-107805000D03*
X126300000Y-110515000D03*
X126300000Y-107805000D03*
X126700000Y-110515000D03*
X126700000Y-107805000D03*
X127100000Y-110515000D03*
X127100000Y-107805000D03*
X127500000Y-110515000D03*
X127500000Y-107805000D03*
X127900000Y-110515000D03*
X127900000Y-107805000D03*
X128300000Y-110515000D03*
X128300000Y-107805000D03*
X128700000Y-110515000D03*
X128700000Y-107805000D03*
X129100000Y-110515000D03*
X129100000Y-107805000D03*
X129500000Y-110515000D03*
X129500000Y-107805000D03*
X129900000Y-110515000D03*
X129900000Y-107805000D03*
X130300000Y-110515000D03*
X130300000Y-107805000D03*
X130700000Y-110515000D03*
X130700000Y-107805000D03*
X131100000Y-110515000D03*
X131100000Y-107805000D03*
X131500000Y-110515000D03*
X131500000Y-107805000D03*
X131900000Y-110515000D03*
X131900000Y-107805000D03*
X132300000Y-110515000D03*
X132300000Y-107805000D03*
X132700000Y-110515000D03*
X132700000Y-107805000D03*
X133100000Y-110515000D03*
X133100000Y-107805000D03*
X133500000Y-110515000D03*
X133500000Y-107805000D03*
X133900000Y-110515000D03*
X133900000Y-107805000D03*
X114300000Y-76595000D03*
X114300000Y-73885000D03*
X114700000Y-76595000D03*
X114700000Y-73885000D03*
X115100000Y-76595000D03*
X115100000Y-73885000D03*
X115500000Y-76595000D03*
X115500000Y-73885000D03*
X115900000Y-76595000D03*
X115900000Y-73885000D03*
X116300000Y-76595000D03*
X116300000Y-73885000D03*
X116700000Y-76595000D03*
X116700000Y-73885000D03*
X117100000Y-76595000D03*
X117100000Y-73885000D03*
X117500000Y-76595000D03*
X117500000Y-73885000D03*
X117900000Y-76595000D03*
X117900000Y-73885000D03*
X118300000Y-76595000D03*
X118300000Y-73885000D03*
X118700000Y-76595000D03*
X118700000Y-73885000D03*
X119100000Y-76595000D03*
X119100000Y-73885000D03*
X119500000Y-76595000D03*
X119500000Y-73885000D03*
X119900000Y-76595000D03*
X119900000Y-73885000D03*
X120300000Y-76595000D03*
X120300000Y-73885000D03*
X120700000Y-76595000D03*
X120700000Y-73885000D03*
X121100000Y-76595000D03*
X121100000Y-73885000D03*
X121500000Y-76595000D03*
X121500000Y-73885000D03*
X121900000Y-76595000D03*
X121900000Y-73885000D03*
X122300000Y-76595000D03*
X122300000Y-73885000D03*
X122700000Y-76595000D03*
X122700000Y-73885000D03*
X123100000Y-76595000D03*
X123100000Y-73885000D03*
X123500000Y-76595000D03*
X123500000Y-73885000D03*
X123900000Y-76595000D03*
X123900000Y-73885000D03*
X124300000Y-76595000D03*
X124300000Y-73885000D03*
X124700000Y-76595000D03*
X124700000Y-73885000D03*
X125100000Y-76595000D03*
X125100000Y-73885000D03*
X125500000Y-76595000D03*
X125500000Y-73885000D03*
X125900000Y-76595000D03*
X125900000Y-73885000D03*
X126300000Y-76595000D03*
X126300000Y-73885000D03*
X126700000Y-76595000D03*
X126700000Y-73885000D03*
X127100000Y-76595000D03*
X127100000Y-73885000D03*
X127500000Y-76595000D03*
X127500000Y-73885000D03*
X127900000Y-76595000D03*
X127900000Y-73885000D03*
X128300000Y-76595000D03*
X128300000Y-73885000D03*
X128700000Y-76595000D03*
X128700000Y-73885000D03*
X129100000Y-76595000D03*
X129100000Y-73885000D03*
X129500000Y-76595000D03*
X129500000Y-73885000D03*
X129900000Y-76595000D03*
X129900000Y-73885000D03*
X130300000Y-76595000D03*
X130300000Y-73885000D03*
X130700000Y-76595000D03*
X130700000Y-73885000D03*
X131100000Y-76595000D03*
X131100000Y-73885000D03*
X131500000Y-76595000D03*
X131500000Y-73885000D03*
X131900000Y-76595000D03*
X131900000Y-73885000D03*
X132300000Y-76595000D03*
X132300000Y-73885000D03*
X132700000Y-76595000D03*
X132700000Y-73885000D03*
X133100000Y-76595000D03*
X133100000Y-73885000D03*
X133500000Y-76595000D03*
X133500000Y-73885000D03*
X133900000Y-76595000D03*
X133900000Y-73885000D03*
D15*
X113825000Y-110515000D03*
X134375000Y-110515000D03*
X113825000Y-107805000D03*
X134375000Y-107805000D03*
X113825000Y-76595000D03*
X134375000Y-76595000D03*
X113825000Y-73885000D03*
X134375000Y-73885000D03*
%TD*%
D16*
%TO.C,C26*%
X120620002Y-92783012D03*
X120620002Y-93743012D03*
%TD*%
D17*
%TO.C,Y2*%
X104675700Y-108900000D03*
X106875700Y-108900000D03*
X106875700Y-110500000D03*
X104675700Y-110500000D03*
%TD*%
D18*
%TO.C,C50*%
X100358614Y-85020000D03*
X100358614Y-84060000D03*
%TD*%
D16*
%TO.C,C45*%
X96700000Y-86600000D03*
X96700000Y-87560000D03*
%TD*%
D19*
%TO.C,C24*%
X118300000Y-100513012D03*
X117340000Y-100513012D03*
%TD*%
D20*
%TO.C,C71*%
X132315000Y-90160000D03*
X133865000Y-90160000D03*
%TD*%
D21*
%TO.C,C78*%
X118085227Y-80030000D03*
X119045227Y-80030000D03*
%TD*%
D16*
%TO.C,C48*%
X97620000Y-86600000D03*
X97620000Y-87560000D03*
%TD*%
D21*
%TO.C,C14*%
X121510002Y-93343012D03*
X122470002Y-93343012D03*
%TD*%
D19*
%TO.C,C44*%
X107735700Y-107310000D03*
X106775700Y-107310000D03*
%TD*%
D22*
%TO.C,C12*%
X119810000Y-102860000D03*
X119810000Y-101310000D03*
%TD*%
D23*
%TO.C,C15*%
X119920000Y-99250000D03*
X118370000Y-99250000D03*
%TD*%
D21*
%TO.C,C37*%
X123600000Y-94260000D03*
X124560000Y-94260000D03*
%TD*%
D24*
%TO.C,C62*%
X129980000Y-100365000D03*
X129980000Y-101915000D03*
%TD*%
D12*
%TO.C,R13*%
X135460000Y-99020000D03*
X134440000Y-99020000D03*
%TD*%
D16*
%TO.C,C61*%
X131170000Y-100090000D03*
X131170000Y-101050000D03*
%TD*%
D25*
%TO.C,R19*%
X108630000Y-111060000D03*
X109650000Y-111060000D03*
%TD*%
D21*
%TO.C,C43*%
X103815700Y-107310000D03*
X104775700Y-107310000D03*
%TD*%
D22*
%TO.C,C9*%
X111950000Y-93575000D03*
X111950000Y-92025000D03*
%TD*%
D18*
%TO.C,C36*%
X121540002Y-92453012D03*
X121540002Y-91493012D03*
%TD*%
D25*
%TO.C,R14*%
X108630000Y-109810000D03*
X109650000Y-109810000D03*
%TD*%
D18*
%TO.C,C35*%
X119120002Y-90833012D03*
X119120002Y-89873012D03*
%TD*%
D16*
%TO.C,C16*%
X121630000Y-95330000D03*
X121630000Y-96290000D03*
%TD*%
D18*
%TO.C,C18*%
X120710000Y-96290000D03*
X120710000Y-95330000D03*
%TD*%
D16*
%TO.C,C30*%
X120780000Y-97160000D03*
X120780000Y-98120000D03*
%TD*%
D18*
%TO.C,C25*%
X119550000Y-96300000D03*
X119550000Y-95340000D03*
%TD*%
%TO.C,C47*%
X101280000Y-85020000D03*
X101280000Y-84060000D03*
%TD*%
%TO.C,C59*%
X132850000Y-96315000D03*
X132850000Y-95355000D03*
%TD*%
D22*
%TO.C,C60*%
X131660000Y-96050000D03*
X131660000Y-94500000D03*
%TD*%
D18*
%TO.C,C38*%
X120620002Y-90843012D03*
X120620002Y-89883012D03*
%TD*%
D12*
%TO.C,R18*%
X101890000Y-105490000D03*
X100870000Y-105490000D03*
%TD*%
D19*
%TO.C,C10*%
X117740000Y-95630000D03*
X116780000Y-95630000D03*
%TD*%
D20*
%TO.C,C79*%
X118355227Y-81230000D03*
X119905227Y-81230000D03*
%TD*%
D16*
%TO.C,C29*%
X118760002Y-97163012D03*
X118760002Y-98123012D03*
%TD*%
D24*
%TO.C,C77*%
X115525227Y-79395000D03*
X115525227Y-80945000D03*
%TD*%
D26*
%TO.C,FB5*%
X134020000Y-91800000D03*
X132320000Y-91800000D03*
%TD*%
D16*
%TO.C,C40*%
X119700002Y-92783012D03*
X119700002Y-93743012D03*
%TD*%
D27*
%TO.C,L1*%
X116347202Y-101983012D03*
X118430002Y-101983012D03*
%TD*%
D19*
%TO.C,C19*%
X120650002Y-91893012D03*
X119690002Y-91893012D03*
%TD*%
D18*
%TO.C,C23*%
X115500000Y-93750000D03*
X115500000Y-92790000D03*
%TD*%
%TO.C,C17*%
X116870000Y-93740000D03*
X116870000Y-92780000D03*
%TD*%
%TO.C,C28*%
X115730000Y-96303012D03*
X115730000Y-95343012D03*
%TD*%
D28*
%TO.C,Y1*%
X125450000Y-101270000D03*
X125450000Y-99070000D03*
X127050000Y-99070000D03*
X127050000Y-101270000D03*
%TD*%
D18*
%TO.C,C5*%
X123660000Y-102180000D03*
X123660000Y-101220000D03*
%TD*%
D16*
%TO.C,C76*%
X114331660Y-80260000D03*
X114331660Y-81220000D03*
%TD*%
D21*
%TO.C,C21*%
X121510002Y-94263012D03*
X122470002Y-94263012D03*
%TD*%
%TO.C,C34*%
X123600000Y-95290000D03*
X124560000Y-95290000D03*
%TD*%
D16*
%TO.C,C22*%
X117790000Y-92780000D03*
X117790000Y-93740000D03*
%TD*%
D18*
%TO.C,C46*%
X104010000Y-88951302D03*
X104010000Y-87991302D03*
%TD*%
D16*
%TO.C,C80*%
X115565227Y-83610000D03*
X115565227Y-84570000D03*
%TD*%
D25*
%TO.C,R17*%
X100870000Y-106430000D03*
X101890000Y-106430000D03*
%TD*%
%TO.C,R16*%
X100870000Y-103610000D03*
X101890000Y-103610000D03*
%TD*%
%TO.C,R15*%
X100870000Y-104550000D03*
X101890000Y-104550000D03*
%TD*%
D18*
%TO.C,C49*%
X103090000Y-88951302D03*
X103090000Y-87991302D03*
%TD*%
D16*
%TO.C,C27*%
X116800000Y-97150000D03*
X116800000Y-98110000D03*
%TD*%
D29*
%TO.C,FB1*%
X121700000Y-101160000D03*
X121700000Y-102860000D03*
%TD*%
D19*
%TO.C,C13*%
X117730000Y-94710000D03*
X116770000Y-94710000D03*
%TD*%
D22*
%TO.C,C42*%
X120800000Y-88175000D03*
X120800000Y-86625000D03*
%TD*%
%TO.C,C41*%
X122700000Y-88175000D03*
X122700000Y-86625000D03*
%TD*%
D16*
%TO.C,C33*%
X121650000Y-97160000D03*
X121650000Y-98120000D03*
%TD*%
D19*
%TO.C,C68*%
X136600000Y-93830000D03*
X135640000Y-93830000D03*
%TD*%
D21*
%TO.C,C58*%
X100880000Y-102670000D03*
X101840000Y-102670000D03*
%TD*%
D16*
%TO.C,C6*%
X123740000Y-98270000D03*
X123740000Y-99230000D03*
%TD*%
D18*
%TO.C,C20*%
X118630000Y-96300000D03*
X118630000Y-95340000D03*
%TD*%
D16*
%TO.C,C31*%
X114050000Y-101730000D03*
X114050000Y-102690000D03*
%TD*%
D21*
%TO.C,C39*%
X123330000Y-93150000D03*
X124290000Y-93150000D03*
%TD*%
D16*
%TO.C,C11*%
X118780002Y-92783012D03*
X118780002Y-93743012D03*
%TD*%
%TO.C,C32*%
X117830000Y-97170000D03*
X117830000Y-98130000D03*
%TD*%
D24*
%TO.C,C81*%
X116755227Y-83885000D03*
X116755227Y-85435000D03*
%TD*%
M02*
