M48
; DRILL file {KiCad 9.0.6-9.0.6~ubuntu24.04.1} date 2025-11-03T18:30:38+0100
; FORMAT={-:-/ absolute / inch / decimal}
; #@! TF.CreationDate,2025-11-03T18:30:38+01:00
; #@! TF.GenerationSoftware,Kicad,Pcbnew,9.0.6-9.0.6~ubuntu24.04.1
; #@! TF.FileFunction,Plated,3,6,Blind
FMAT,2
INCH
; #@! TA.AperFunction,Plated,Buried,ViaDrill
T1C0.0079
; #@! TA.AperFunction,Plated,Buried,ViaDrill
T2C0.0118
%
G90
G05
T1
X4.2144Y-4.0042
X4.224Y-3.413
X4.2496Y-3.7339
X4.2925Y-3.9861
X4.2979Y-3.7481
X4.3139Y-3.9504
X4.3166Y-4.0102
X4.3343Y-3.7481
X4.3531Y-4.048
X4.3683Y-4.0112
X4.3709Y-3.3409
X4.3766Y-4.1897
X4.3866Y-3.3638
X4.4437Y-4.0323
X4.4925Y-3.7098
X4.5084Y-3.6677
X4.5122Y-3.4461
X4.5142Y-3.3807
X4.5632Y-4.0634
X4.5748Y-4.3094
X4.5776Y-4.1009
X4.5827Y-3.4732
X4.5906Y-4.1996
X4.6265Y-4.337
X4.6696Y-3.5113
X4.7171Y-4.2653
X4.7205Y-4.3781
X4.7699Y-4.2754
X4.7835Y-4.3781
X4.815Y-4.3384
X4.8307Y-3.1
X4.8605Y-4.2866
X4.8787Y-3.3419
X4.8809Y-3.1148
X4.8957Y-3.0508
X4.8994Y-3.35
X4.9185Y-3.0496
X4.924Y-4.2957
X4.929Y-4.2087
X4.9756Y-3.1917
X4.985Y-3.3266
X5.0295Y-4.0799
X5.1276Y-3.7715
X5.1539Y-3.3555
X5.3698Y-4.057
X5.3849Y-3.9948
X5.3854Y-4.0417
X5.3888Y-4.0176
T2
X5.1055Y-4.3343
X5.128Y-4.3339
X5.1496Y-4.3339
X5.1713Y-4.3339
M30
