%TF.GenerationSoftware,KiCad,Pcbnew,9.0.6-9.0.6~ubuntu24.04.1*%
%TF.CreationDate,2025-12-24T17:25:12+01:00*%
%TF.ProjectId,BB3plus CM5 STM32H7 module,42423370-6c75-4732-9043-4d352053544d,r1B3*%
%TF.SameCoordinates,Original*%
%TF.FileFunction,Paste,Top*%
%TF.FilePolarity,Positive*%
%FSLAX46Y46*%
G04 Gerber Fmt 4.6, Leading zero omitted, Abs format (unit mm)*
G04 Created by KiCad (PCBNEW 9.0.6-9.0.6~ubuntu24.04.1) date 2025-12-24 17:25:12*
%MOMM*%
%LPD*%
G01*
G04 APERTURE LIST*
G04 Aperture macros list*
%AMRoundRect*
0 Rectangle with rounded corners*
0 $1 Rounding radius*
0 $2 $3 $4 $5 $6 $7 $8 $9 X,Y pos of 4 corners*
0 Add a 4 corners polygon primitive as box body*
4,1,4,$2,$3,$4,$5,$6,$7,$8,$9,$2,$3,0*
0 Add four circle primitives for the rounded corners*
1,1,$1+$1,$2,$3*
1,1,$1+$1,$4,$5*
1,1,$1+$1,$6,$7*
1,1,$1+$1,$8,$9*
0 Add four rect primitives between the rounded corners*
20,1,$1+$1,$2,$3,$4,$5,0*
20,1,$1+$1,$4,$5,$6,$7,0*
20,1,$1+$1,$6,$7,$8,$9,0*
20,1,$1+$1,$8,$9,$2,$3,0*%
G04 Aperture macros list end*
%ADD10C,0.000000*%
%ADD11RoundRect,0.135000X-0.185000X0.135000X-0.185000X-0.135000X0.185000X-0.135000X0.185000X0.135000X0*%
%ADD12RoundRect,0.135000X0.135000X0.185000X-0.135000X0.185000X-0.135000X-0.185000X0.135000X-0.185000X0*%
%ADD13RoundRect,0.135000X-0.135000X-0.185000X0.135000X-0.185000X0.135000X0.185000X-0.135000X0.185000X0*%
%ADD14RoundRect,0.135000X0.185000X-0.135000X0.185000X0.135000X-0.185000X0.135000X-0.185000X-0.135000X0*%
%ADD15RoundRect,0.225000X-0.250000X0.225000X-0.250000X-0.225000X0.250000X-0.225000X0.250000X0.225000X0*%
%ADD16RoundRect,0.050800X0.499200X-0.449200X0.499200X0.449200X-0.499200X0.449200X-0.499200X-0.449200X0*%
%ADD17RoundRect,0.140000X-0.140000X-0.170000X0.140000X-0.170000X0.140000X0.170000X-0.140000X0.170000X0*%
%ADD18RoundRect,0.140000X-0.170000X0.140000X-0.170000X-0.140000X0.170000X-0.140000X0.170000X0.140000X0*%
%ADD19RoundRect,0.140000X0.140000X0.170000X-0.140000X0.170000X-0.140000X-0.170000X0.140000X-0.170000X0*%
%ADD20C,0.355600*%
%ADD21RoundRect,0.225000X0.250000X-0.225000X0.250000X0.225000X-0.250000X0.225000X-0.250000X-0.225000X0*%
%ADD22R,0.228600X1.143000*%
%ADD23R,1.143000X0.228600*%
%ADD24R,5.000000X5.000000*%
%ADD25RoundRect,0.140000X0.170000X-0.140000X0.170000X0.140000X-0.170000X0.140000X-0.170000X-0.140000X0*%
%ADD26R,0.300000X0.850000*%
%ADD27R,0.850000X0.300000*%
%ADD28RoundRect,0.050800X-0.901700X-0.520700X0.901700X-0.520700X0.901700X0.520700X-0.901700X0.520700X0*%
%ADD29RoundRect,0.050800X-1.536700X-2.489200X1.536700X-2.489200X1.536700X2.489200X-1.536700X2.489200X0*%
%ADD30R,0.449999X0.299999*%
%ADD31R,1.000000X1.599999*%
%ADD32RoundRect,0.050800X0.199200X0.449200X-0.199200X0.449200X-0.199200X-0.449200X0.199200X-0.449200X0*%
%ADD33RoundRect,0.050800X-0.685800X-0.228600X0.685800X-0.228600X0.685800X0.228600X-0.685800X0.228600X0*%
%ADD34RoundRect,0.050800X-0.499200X0.449200X-0.499200X-0.449200X0.499200X-0.449200X0.499200X0.449200X0*%
%ADD35RoundRect,0.050800X-0.076200X-0.381000X0.076200X-0.381000X0.076200X0.381000X-0.076200X0.381000X0*%
%ADD36RoundRect,0.050800X-0.381000X0.076200X-0.381000X-0.076200X0.381000X-0.076200X0.381000X0.076200X0*%
%ADD37C,0.406400*%
G04 APERTURE END LIST*
D10*
%TO.C,IC9*%
G36*
X124160400Y-81144879D02*
G01*
X124018979Y-81286300D01*
X123709930Y-81286300D01*
X123709930Y-80829930D01*
X124160400Y-80829930D01*
X124160400Y-81144879D01*
G37*
G36*
X124160400Y-82415121D02*
G01*
X124160400Y-82730070D01*
X123709930Y-82730070D01*
X123709930Y-82273700D01*
X124018979Y-82273700D01*
X124160400Y-82415121D01*
G37*
G36*
X131110070Y-81286300D02*
G01*
X130801021Y-81286300D01*
X130659600Y-81144879D01*
X130659600Y-80829930D01*
X131110070Y-80829930D01*
X131110070Y-81286300D01*
G37*
G36*
X131110070Y-82730070D02*
G01*
X130659600Y-82730070D01*
X130659600Y-82415121D01*
X130801021Y-82273700D01*
X131110070Y-82273700D01*
X131110070Y-82730070D01*
G37*
G36*
X124160400Y-81627721D02*
G01*
X124160400Y-81932279D01*
X124018979Y-82073700D01*
X123709930Y-82073700D01*
X123709930Y-81486300D01*
X124018979Y-81486300D01*
X124160400Y-81627721D01*
G37*
G36*
X124947800Y-81144879D02*
G01*
X124806379Y-81286300D01*
X124501821Y-81286300D01*
X124360400Y-81144879D01*
X124360400Y-80829930D01*
X124947800Y-80829930D01*
X124947800Y-81144879D01*
G37*
G36*
X124947800Y-82415121D02*
G01*
X124947800Y-82730070D01*
X124360400Y-82730070D01*
X124360400Y-82415121D01*
X124501821Y-82273700D01*
X124806379Y-82273700D01*
X124947800Y-82415121D01*
G37*
G36*
X125735200Y-81144879D02*
G01*
X125593779Y-81286300D01*
X125289221Y-81286300D01*
X125147800Y-81144879D01*
X125147800Y-80829930D01*
X125735200Y-80829930D01*
X125735200Y-81144879D01*
G37*
G36*
X125735200Y-82415121D02*
G01*
X125735200Y-82730070D01*
X125147800Y-82730070D01*
X125147800Y-82415121D01*
X125289221Y-82273700D01*
X125593779Y-82273700D01*
X125735200Y-82415121D01*
G37*
G36*
X126522600Y-81144879D02*
G01*
X126381179Y-81286300D01*
X126076621Y-81286300D01*
X125935200Y-81144879D01*
X125935200Y-80829930D01*
X126522600Y-80829930D01*
X126522600Y-81144879D01*
G37*
G36*
X126522600Y-82415121D02*
G01*
X126522600Y-82730070D01*
X125935200Y-82730070D01*
X125935200Y-82415121D01*
X126076621Y-82273700D01*
X126381179Y-82273700D01*
X126522600Y-82415121D01*
G37*
G36*
X127310000Y-81144879D02*
G01*
X127168579Y-81286300D01*
X126864021Y-81286300D01*
X126722600Y-81144879D01*
X126722600Y-80829930D01*
X127310000Y-80829930D01*
X127310000Y-81144879D01*
G37*
G36*
X127310000Y-82415121D02*
G01*
X127310000Y-82730070D01*
X126722600Y-82730070D01*
X126722600Y-82415121D01*
X126864021Y-82273700D01*
X127168579Y-82273700D01*
X127310000Y-82415121D01*
G37*
G36*
X128097400Y-81144879D02*
G01*
X127955979Y-81286300D01*
X127651421Y-81286300D01*
X127510000Y-81144879D01*
X127510000Y-80829930D01*
X128097400Y-80829930D01*
X128097400Y-81144879D01*
G37*
G36*
X128097400Y-82415121D02*
G01*
X128097400Y-82730070D01*
X127510000Y-82730070D01*
X127510000Y-82415121D01*
X127651421Y-82273700D01*
X127955979Y-82273700D01*
X128097400Y-82415121D01*
G37*
G36*
X128884800Y-81144879D02*
G01*
X128743379Y-81286300D01*
X128438821Y-81286300D01*
X128297400Y-81144879D01*
X128297400Y-80829930D01*
X128884800Y-80829930D01*
X128884800Y-81144879D01*
G37*
G36*
X128884800Y-82415121D02*
G01*
X128884800Y-82730070D01*
X128297400Y-82730070D01*
X128297400Y-82415121D01*
X128438821Y-82273700D01*
X128743379Y-82273700D01*
X128884800Y-82415121D01*
G37*
G36*
X129672200Y-81144879D02*
G01*
X129530779Y-81286300D01*
X129226221Y-81286300D01*
X129084800Y-81144879D01*
X129084800Y-80829930D01*
X129672200Y-80829930D01*
X129672200Y-81144879D01*
G37*
G36*
X129672200Y-82415121D02*
G01*
X129672200Y-82730070D01*
X129084800Y-82730070D01*
X129084800Y-82415121D01*
X129226221Y-82273700D01*
X129530779Y-82273700D01*
X129672200Y-82415121D01*
G37*
G36*
X130459600Y-81144879D02*
G01*
X130318179Y-81286300D01*
X130013621Y-81286300D01*
X129872200Y-81144879D01*
X129872200Y-80829930D01*
X130459600Y-80829930D01*
X130459600Y-81144879D01*
G37*
G36*
X130459600Y-82415121D02*
G01*
X130459600Y-82730070D01*
X129872200Y-82730070D01*
X129872200Y-82415121D01*
X130013621Y-82273700D01*
X130318179Y-82273700D01*
X130459600Y-82415121D01*
G37*
G36*
X131110070Y-82073700D02*
G01*
X130801021Y-82073700D01*
X130659600Y-81932279D01*
X130659600Y-81627721D01*
X130801021Y-81486300D01*
X131110070Y-81486300D01*
X131110070Y-82073700D01*
G37*
G36*
X124947800Y-81627721D02*
G01*
X124947800Y-81932279D01*
X124806379Y-82073700D01*
X124501821Y-82073700D01*
X124360400Y-81932279D01*
X124360400Y-81627721D01*
X124501821Y-81486300D01*
X124806379Y-81486300D01*
X124947800Y-81627721D01*
G37*
G36*
X125735200Y-81627721D02*
G01*
X125735200Y-81932279D01*
X125593779Y-82073700D01*
X125289221Y-82073700D01*
X125147800Y-81932279D01*
X125147800Y-81627721D01*
X125289221Y-81486300D01*
X125593779Y-81486300D01*
X125735200Y-81627721D01*
G37*
G36*
X126522600Y-81627721D02*
G01*
X126522600Y-81932279D01*
X126381179Y-82073700D01*
X126076621Y-82073700D01*
X125935200Y-81932279D01*
X125935200Y-81627721D01*
X126076621Y-81486300D01*
X126381179Y-81486300D01*
X126522600Y-81627721D01*
G37*
G36*
X127310000Y-81627721D02*
G01*
X127310000Y-81932279D01*
X127168579Y-82073700D01*
X126864021Y-82073700D01*
X126722600Y-81932279D01*
X126722600Y-81627721D01*
X126864021Y-81486300D01*
X127168579Y-81486300D01*
X127310000Y-81627721D01*
G37*
G36*
X128097400Y-81627721D02*
G01*
X128097400Y-81932279D01*
X127955979Y-82073700D01*
X127651421Y-82073700D01*
X127510000Y-81932279D01*
X127510000Y-81627721D01*
X127651421Y-81486300D01*
X127955979Y-81486300D01*
X128097400Y-81627721D01*
G37*
G36*
X128884800Y-81627721D02*
G01*
X128884800Y-81932279D01*
X128743379Y-82073700D01*
X128438821Y-82073700D01*
X128297400Y-81932279D01*
X128297400Y-81627721D01*
X128438821Y-81486300D01*
X128743379Y-81486300D01*
X128884800Y-81627721D01*
G37*
G36*
X129672200Y-81627721D02*
G01*
X129672200Y-81932279D01*
X129530779Y-82073700D01*
X129226221Y-82073700D01*
X129084800Y-81932279D01*
X129084800Y-81627721D01*
X129226221Y-81486300D01*
X129530779Y-81486300D01*
X129672200Y-81627721D01*
G37*
G36*
X130459600Y-81627721D02*
G01*
X130459600Y-81932279D01*
X130318179Y-82073700D01*
X130013621Y-82073700D01*
X129872200Y-81932279D01*
X129872200Y-81627721D01*
X130013621Y-81486300D01*
X130318179Y-81486300D01*
X130459600Y-81627721D01*
G37*
%TO.C,IC4*%
G36*
X139245561Y-106940940D02*
G01*
X139254754Y-106943729D01*
X139263225Y-106948257D01*
X139270649Y-106954351D01*
X139276742Y-106961775D01*
X139281271Y-106970246D01*
X139284060Y-106979438D01*
X139285003Y-106988999D01*
X139285003Y-107590999D01*
X139284060Y-107600560D01*
X139281271Y-107609752D01*
X139276742Y-107618223D01*
X139270649Y-107625647D01*
X139263225Y-107631741D01*
X139254754Y-107636270D01*
X139245561Y-107639059D01*
X139236001Y-107639998D01*
X138334001Y-107639998D01*
X138324441Y-107639059D01*
X138315248Y-107636270D01*
X138306777Y-107631741D01*
X138299353Y-107625647D01*
X138293260Y-107618223D01*
X138288731Y-107609752D01*
X138285942Y-107600560D01*
X138284999Y-107590999D01*
X138284999Y-106988999D01*
X138285942Y-106979438D01*
X138288731Y-106970246D01*
X138293260Y-106961775D01*
X138299353Y-106954351D01*
X138306777Y-106948257D01*
X138315248Y-106943729D01*
X138324441Y-106940940D01*
X138334001Y-106939997D01*
X139236001Y-106939997D01*
X139245561Y-106940940D01*
G37*
G36*
X139245561Y-106040941D02*
G01*
X139254754Y-106043730D01*
X139263225Y-106048259D01*
X139270649Y-106054353D01*
X139276742Y-106061777D01*
X139281271Y-106070248D01*
X139284060Y-106079440D01*
X139285003Y-106089001D01*
X139285003Y-106691001D01*
X139284060Y-106700562D01*
X139281271Y-106709754D01*
X139276742Y-106718225D01*
X139270649Y-106725649D01*
X139263225Y-106731743D01*
X139254754Y-106736271D01*
X139245561Y-106739060D01*
X139236001Y-106740003D01*
X138334001Y-106740003D01*
X138324441Y-106739060D01*
X138315248Y-106736271D01*
X138306777Y-106731743D01*
X138299353Y-106725649D01*
X138293260Y-106718225D01*
X138288731Y-106709754D01*
X138285942Y-106700562D01*
X138284999Y-106691001D01*
X138284999Y-106089001D01*
X138285942Y-106079440D01*
X138288731Y-106070248D01*
X138293260Y-106061777D01*
X138299353Y-106054353D01*
X138306777Y-106048259D01*
X138315248Y-106043730D01*
X138324441Y-106040941D01*
X138334001Y-106040002D01*
X139236001Y-106040002D01*
X139245561Y-106040941D01*
G37*
%TO.C,IC6*%
G36*
X105242700Y-104752700D02*
G01*
X104121900Y-104752700D01*
X104121900Y-103631900D01*
X105242700Y-103631900D01*
X105242700Y-104752700D01*
G37*
G36*
X105242700Y-106048100D02*
G01*
X104121900Y-106048100D01*
X104121900Y-104927300D01*
X105242700Y-104927300D01*
X105242700Y-106048100D01*
G37*
G36*
X106538100Y-104752700D02*
G01*
X105417300Y-104752700D01*
X105417300Y-103631900D01*
X106538100Y-103631900D01*
X106538100Y-104752700D01*
G37*
G36*
X106538100Y-106048100D02*
G01*
X105417300Y-106048100D01*
X105417300Y-104927300D01*
X106538100Y-104927300D01*
X106538100Y-106048100D01*
G37*
%TD*%
D11*
%TO.C,R5*%
X108010000Y-101020000D03*
X108010000Y-100000000D03*
%TD*%
D12*
%TO.C,R6*%
X109120000Y-103700000D03*
X110140000Y-103700000D03*
%TD*%
D13*
%TO.C,R7*%
X110140000Y-104640000D03*
X109120000Y-104640000D03*
%TD*%
%TO.C,R8*%
X110140000Y-105580000D03*
X109120000Y-105580000D03*
%TD*%
D11*
%TO.C,R9*%
X103320700Y-101020000D03*
X103320700Y-100000000D03*
%TD*%
D12*
%TO.C,R10*%
X101140000Y-106440000D03*
X102160000Y-106440000D03*
%TD*%
%TO.C,R11*%
X105920000Y-110240000D03*
X106940000Y-110240000D03*
%TD*%
%TO.C,R12*%
X104060000Y-110240000D03*
X105080000Y-110240000D03*
%TD*%
D11*
%TO.C,R18*%
X140184700Y-81090000D03*
X140184700Y-80070000D03*
%TD*%
D14*
%TO.C,R19*%
X143770000Y-80370000D03*
X143770000Y-81390000D03*
%TD*%
D12*
%TO.C,R20*%
X132980000Y-85850000D03*
X134000000Y-85850000D03*
%TD*%
D14*
%TO.C,R21*%
X141120000Y-80070000D03*
X141120000Y-81090000D03*
%TD*%
D12*
%TO.C,R22*%
X114205227Y-84660000D03*
X115225227Y-84660000D03*
%TD*%
D14*
%TO.C,R23*%
X112020000Y-76100000D03*
X112020000Y-77120000D03*
%TD*%
D13*
%TO.C,R4*%
X122770000Y-102010000D03*
X121750000Y-102010000D03*
%TD*%
D12*
%TO.C,R2*%
X111700000Y-96890000D03*
X110680000Y-96890000D03*
%TD*%
D15*
%TO.C,C55*%
X98664508Y-99957559D03*
X98664508Y-101507559D03*
%TD*%
D16*
%TO.C,FB4*%
X133840000Y-80930000D03*
X133840000Y-79230000D03*
%TD*%
D17*
%TO.C,C7*%
X119940000Y-102020000D03*
X120900000Y-102020000D03*
%TD*%
D18*
%TO.C,C6*%
X137080000Y-106759999D03*
X137080000Y-107719999D03*
%TD*%
D19*
%TO.C,C63*%
X134265300Y-87416801D03*
X133305300Y-87416801D03*
%TD*%
D20*
%TO.C,IC7*%
X135849994Y-98095000D03*
X135849994Y-99095000D03*
X135849994Y-100095000D03*
X135849994Y-101095000D03*
X134849996Y-97095000D03*
X134849996Y-98095000D03*
X134849996Y-99095000D03*
X134849996Y-100095000D03*
X134849996Y-101095000D03*
X133849998Y-97095000D03*
X133849998Y-98095000D03*
X133849998Y-99095000D03*
X133849998Y-100095000D03*
X133849998Y-101095000D03*
X132850000Y-97095000D03*
X132850000Y-98095000D03*
X132850000Y-99095000D03*
X132850000Y-100095000D03*
X132850000Y-101095000D03*
X131850002Y-97095000D03*
X131850002Y-98095000D03*
X131850002Y-99095000D03*
X131850002Y-100095000D03*
X131850002Y-101095000D03*
%TD*%
D21*
%TO.C,C1*%
X139340000Y-100110000D03*
X139340000Y-98560000D03*
%TD*%
D22*
%TO.C,IC8*%
X144840000Y-82493100D03*
X144340001Y-82493100D03*
X143840000Y-82493100D03*
X143340001Y-82493100D03*
X142839999Y-82493100D03*
X142340000Y-82493100D03*
X141840001Y-82493100D03*
X141340000Y-82493100D03*
X140840000Y-82493100D03*
X140339999Y-82493100D03*
X139840000Y-82493100D03*
X139340001Y-82493100D03*
X138839999Y-82493100D03*
X138340000Y-82493100D03*
X137839999Y-82493100D03*
X137340000Y-82493100D03*
D23*
X135413100Y-84420000D03*
X135413100Y-84919999D03*
X135413100Y-85420000D03*
X135413100Y-85919999D03*
X135413100Y-86420001D03*
X135413100Y-86920000D03*
X135413100Y-87419999D03*
X135413100Y-87920000D03*
X135413100Y-88420000D03*
X135413100Y-88920001D03*
X135413100Y-89420000D03*
X135413100Y-89919999D03*
X135413100Y-90420001D03*
X135413100Y-90920000D03*
X135413100Y-91420001D03*
X135413100Y-91920000D03*
D22*
X137340000Y-93846900D03*
X137839999Y-93846900D03*
X138340000Y-93846900D03*
X138839999Y-93846900D03*
X139340001Y-93846900D03*
X139840000Y-93846900D03*
X140339999Y-93846900D03*
X140840000Y-93846900D03*
X141340000Y-93846900D03*
X141840001Y-93846900D03*
X142340000Y-93846900D03*
X142839999Y-93846900D03*
X143340001Y-93846900D03*
X143840000Y-93846900D03*
X144340001Y-93846900D03*
X144840000Y-93846900D03*
D23*
X146766900Y-91920000D03*
X146766900Y-91420001D03*
X146766900Y-90920000D03*
X146766900Y-90420001D03*
X146766900Y-89919999D03*
X146766900Y-89420000D03*
X146766900Y-88920001D03*
X146766900Y-88420000D03*
X146766900Y-87920000D03*
X146766900Y-87419999D03*
X146766900Y-86920000D03*
X146766900Y-86420001D03*
X146766900Y-85919999D03*
X146766900Y-85420000D03*
X146766900Y-84919999D03*
X146766900Y-84420000D03*
D24*
X141090000Y-88170000D03*
%TD*%
D25*
%TO.C,C61*%
X144845300Y-81346801D03*
X144845300Y-80386801D03*
%TD*%
D15*
%TO.C,C2*%
X139347076Y-101520000D03*
X139347076Y-103070000D03*
%TD*%
D16*
%TO.C,FB3*%
X136420000Y-80920000D03*
X136420000Y-79220000D03*
%TD*%
D20*
%TO.C,IC10*%
X113350000Y-81897881D03*
X113350000Y-80897881D03*
X113350000Y-79897881D03*
X113350000Y-78897881D03*
X114349998Y-82897881D03*
X114349998Y-81897881D03*
X114349998Y-80897881D03*
X114349998Y-79897881D03*
X114349998Y-78897881D03*
X115349996Y-82897881D03*
X115349996Y-81897881D03*
X115349996Y-80897881D03*
X115349996Y-79897881D03*
X115349996Y-78897881D03*
X116349994Y-82897881D03*
X116349994Y-81897881D03*
X116349994Y-80897881D03*
X116349994Y-79897881D03*
X116349994Y-78897881D03*
X117349992Y-82897881D03*
X117349992Y-81897881D03*
X117349992Y-80897881D03*
X117349992Y-79897881D03*
X117349992Y-78897881D03*
%TD*%
D26*
%TO.C,IC9*%
X123410000Y-83505000D03*
X123909999Y-83505000D03*
X124410001Y-83505000D03*
X124910000Y-83505000D03*
X125409999Y-83505000D03*
X125910000Y-83505000D03*
X126409999Y-83505000D03*
X126910001Y-83505000D03*
X127410000Y-83505000D03*
X127909999Y-83505000D03*
X128410001Y-83505000D03*
X128910000Y-83505000D03*
X129410001Y-83505000D03*
X129910000Y-83505000D03*
X130409999Y-83505000D03*
X130910001Y-83505000D03*
X131410000Y-83505000D03*
D27*
X131885000Y-82530189D03*
X131885000Y-82030063D03*
X131885000Y-81529937D03*
X131885000Y-81029811D03*
D26*
X131410000Y-80055000D03*
X130910001Y-80055000D03*
X130409999Y-80055000D03*
X129910000Y-80055000D03*
X129410001Y-80055000D03*
X128910000Y-80055000D03*
X128410001Y-80055000D03*
X127909999Y-80055000D03*
X127410000Y-80055000D03*
X126910001Y-80055000D03*
X126409999Y-80055000D03*
X125910000Y-80055000D03*
X125409999Y-80055000D03*
X124910000Y-80055000D03*
X124410001Y-80055000D03*
X123909999Y-80055000D03*
X123410000Y-80055000D03*
D27*
X122935000Y-81029811D03*
X122935000Y-81529937D03*
X122935000Y-82030063D03*
X122935000Y-82530189D03*
%TD*%
D19*
%TO.C,C71*%
X121820000Y-82580000D03*
X120860000Y-82580000D03*
%TD*%
%TO.C,C51*%
X107810700Y-108830000D03*
X106850700Y-108830000D03*
%TD*%
D21*
%TO.C,C54*%
X101970756Y-101612841D03*
X101970756Y-100062841D03*
%TD*%
D17*
%TO.C,C50*%
X106850700Y-107910000D03*
X107810700Y-107910000D03*
%TD*%
D28*
%TO.C,IC1*%
X141207076Y-98718600D03*
X141207076Y-101030000D03*
X141207076Y-103341400D03*
D29*
X146972876Y-101030000D03*
%TD*%
D18*
%TO.C,C52*%
X103840000Y-107870000D03*
X103840000Y-108830000D03*
%TD*%
D15*
%TO.C,C68*%
X133690000Y-82215000D03*
X133690000Y-83765000D03*
%TD*%
D19*
%TO.C,C62*%
X134000000Y-84926801D03*
X133040000Y-84926801D03*
%TD*%
%TO.C,C53*%
X102290000Y-102810000D03*
X101330000Y-102810000D03*
%TD*%
D30*
%TO.C,IC4*%
X137810002Y-106189999D03*
X137810002Y-106840000D03*
X137810002Y-107489999D03*
X139760000Y-107489999D03*
X139760000Y-106840000D03*
X139760000Y-106189999D03*
D31*
X138785001Y-106840000D03*
%TD*%
D32*
%TO.C,RN2*%
X111550000Y-99440000D03*
X110650000Y-99440000D03*
X109750000Y-99440000D03*
X108850000Y-99440000D03*
X108850000Y-101140000D03*
X109750000Y-101140000D03*
X110650000Y-101140000D03*
X111550000Y-101140000D03*
%TD*%
D19*
%TO.C,C70*%
X121820000Y-83500000D03*
X120860000Y-83500000D03*
%TD*%
D12*
%TO.C,R1*%
X111700000Y-97840000D03*
X110680000Y-97840000D03*
%TD*%
D18*
%TO.C,C3*%
X140490000Y-105949999D03*
X140490000Y-106909999D03*
%TD*%
D33*
%TO.C,IC2*%
X109380000Y-108600000D03*
X109380000Y-109550000D03*
X109380000Y-110500000D03*
X111767600Y-110500000D03*
X111767600Y-108600000D03*
%TD*%
D19*
%TO.C,C65*%
X134265300Y-90406801D03*
X133305300Y-90406801D03*
%TD*%
D34*
%TO.C,FB2*%
X100320000Y-99960000D03*
X100320000Y-101660000D03*
%TD*%
D35*
%TO.C,IC6*%
X104080000Y-106859300D03*
X104580000Y-106859300D03*
X105080000Y-106859300D03*
X105580000Y-106859300D03*
X106080000Y-106859300D03*
X106580000Y-106859300D03*
D36*
X107349300Y-106090000D03*
X107349300Y-105590000D03*
X107349300Y-105090000D03*
X107349300Y-104590000D03*
X107349300Y-104090000D03*
X107349300Y-103590000D03*
D35*
X106580000Y-102820700D03*
X106080000Y-102820700D03*
X105580000Y-102820700D03*
X105080000Y-102820700D03*
X104580000Y-102820700D03*
X104080000Y-102820700D03*
D36*
X103310700Y-103590000D03*
X103310700Y-104090000D03*
X103310700Y-104590000D03*
X103310700Y-105090000D03*
X103310700Y-105590000D03*
X103310700Y-106090000D03*
%TD*%
D21*
%TO.C,C67*%
X138070000Y-80765000D03*
X138070000Y-79215000D03*
%TD*%
D12*
%TO.C,R3*%
X111710000Y-95760000D03*
X110690000Y-95760000D03*
%TD*%
D32*
%TO.C,RN1*%
X106860000Y-99440000D03*
X105960000Y-99440000D03*
X105060000Y-99440000D03*
X104160000Y-99440000D03*
X104160000Y-101140000D03*
X105060000Y-101140000D03*
X105960000Y-101140000D03*
X106860000Y-101140000D03*
%TD*%
D25*
%TO.C,C64*%
X139260000Y-81040000D03*
X139260000Y-80080000D03*
%TD*%
D20*
%TO.C,IC3*%
X113520003Y-100293012D03*
X113520003Y-99493012D03*
X113520003Y-98693013D03*
X113520003Y-97893013D03*
X113520003Y-97093013D03*
X113520003Y-96293013D03*
X113520003Y-95493013D03*
X113520003Y-94693013D03*
X113520003Y-93893013D03*
X113520003Y-93093013D03*
X113520003Y-92293013D03*
X113520003Y-91493013D03*
X113520003Y-90693013D03*
X113520003Y-89893014D03*
X113520003Y-89093014D03*
X114320003Y-100293012D03*
X114320003Y-99493012D03*
X114320003Y-98693013D03*
X114320003Y-97893013D03*
X114320003Y-97093013D03*
X114320003Y-96293013D03*
X114320003Y-95493013D03*
X114320003Y-94693013D03*
X114320003Y-93893013D03*
X114320003Y-93093013D03*
X114320003Y-92293013D03*
X114320003Y-91493013D03*
X114320003Y-90693013D03*
X114320003Y-89893014D03*
X114320003Y-89093014D03*
X115120002Y-100293012D03*
X115120002Y-99493012D03*
X115120002Y-98693013D03*
X115120002Y-97893013D03*
X115120002Y-97093013D03*
X115120002Y-96293013D03*
X115120002Y-95493013D03*
X115120002Y-94693013D03*
X115120002Y-93893013D03*
X115120002Y-93093013D03*
X115120002Y-92293013D03*
X115120002Y-91493013D03*
X115120002Y-90693013D03*
X115120002Y-89893014D03*
X115120002Y-89093014D03*
X115920002Y-100293012D03*
X115920002Y-99493012D03*
X115920002Y-98693013D03*
X115920002Y-97893013D03*
X115920002Y-97093013D03*
X115920002Y-96293013D03*
X115920002Y-95493013D03*
X115920002Y-94693013D03*
X115920002Y-93893013D03*
X115920002Y-93093013D03*
X115920002Y-92293013D03*
X115920002Y-91493013D03*
X115920002Y-90693013D03*
X115920002Y-89893014D03*
X115920002Y-89093014D03*
X116720002Y-100293012D03*
X116720002Y-99493012D03*
X116720002Y-98693013D03*
X116720002Y-97893013D03*
X116720002Y-97093013D03*
X116720002Y-96293013D03*
X116720002Y-95493013D03*
X116720002Y-94693013D03*
X116720002Y-93893013D03*
X116720002Y-93093013D03*
X116720002Y-92293013D03*
X116720002Y-91493013D03*
X116720002Y-90693013D03*
X116720002Y-89893014D03*
X116720002Y-89093014D03*
X117520002Y-100293012D03*
X117520002Y-99493012D03*
X117520002Y-98693013D03*
X117520002Y-97893013D03*
X117520002Y-97093013D03*
X117520002Y-96293013D03*
X117520002Y-95493013D03*
X117520002Y-94693013D03*
X117520002Y-93893013D03*
X117520002Y-93093013D03*
X117520002Y-92293013D03*
X117520002Y-91493013D03*
X117520002Y-90693013D03*
X117520002Y-89893014D03*
X117520002Y-89093014D03*
X118320002Y-100293012D03*
X118320002Y-99493012D03*
X118320002Y-98693013D03*
X118320002Y-97893013D03*
X118320002Y-97093013D03*
X118320002Y-96293013D03*
X118320002Y-95493013D03*
X118320002Y-94693013D03*
X118320002Y-93893013D03*
X118320002Y-93093013D03*
X118320002Y-92293013D03*
X118320002Y-91493013D03*
X118320002Y-90693013D03*
X118320002Y-89893014D03*
X118320002Y-89093014D03*
X119120002Y-100293012D03*
X119120002Y-99493012D03*
X119120002Y-98693013D03*
X119120002Y-97893013D03*
X119120002Y-97093013D03*
X119120002Y-96293013D03*
X119120002Y-95493013D03*
X119120002Y-94693013D03*
X119120002Y-93893013D03*
X119120002Y-93093013D03*
X119120002Y-92293013D03*
X119120002Y-91493013D03*
X119120002Y-90693013D03*
X119120002Y-89893014D03*
X119120002Y-89093014D03*
X119920002Y-100293012D03*
X119920002Y-99493012D03*
X119920002Y-98693013D03*
X119920002Y-97893013D03*
X119920002Y-97093013D03*
X119920002Y-96293013D03*
X119920002Y-95493013D03*
X119920002Y-94693013D03*
X119920002Y-93893013D03*
X119920002Y-93093013D03*
X119920002Y-92293013D03*
X119920002Y-91493013D03*
X119920002Y-90693013D03*
X119920002Y-89893014D03*
X119920002Y-89093014D03*
X120720002Y-100293012D03*
X120720002Y-99493012D03*
X120720002Y-98693013D03*
X120720002Y-97893013D03*
X120720002Y-97093013D03*
X120720002Y-96293013D03*
X120720002Y-95493013D03*
X120720002Y-94693013D03*
X120720002Y-93893013D03*
X120720002Y-93093013D03*
X120720002Y-92293013D03*
X120720002Y-91493013D03*
X120720002Y-90693013D03*
X120720002Y-89893014D03*
X120720002Y-89093014D03*
X121520002Y-100293012D03*
X121520002Y-99493012D03*
X121520002Y-98693013D03*
X121520002Y-97893013D03*
X121520002Y-97093013D03*
X121520002Y-96293013D03*
X121520002Y-95493013D03*
X121520002Y-94693013D03*
X121520002Y-93893013D03*
X121520002Y-93093013D03*
X121520002Y-92293013D03*
X121520002Y-91493013D03*
X121520002Y-90693013D03*
X121520002Y-89893014D03*
X121520002Y-89093014D03*
X122320002Y-100293012D03*
X122320002Y-99493012D03*
X122320002Y-98693013D03*
X122320002Y-97893013D03*
X122320002Y-97093013D03*
X122320002Y-96293013D03*
X122320002Y-95493013D03*
X122320002Y-94693013D03*
X122320002Y-93893013D03*
X122320002Y-93093013D03*
X122320002Y-92293013D03*
X122320002Y-91493013D03*
X122320002Y-90693013D03*
X122320002Y-89893014D03*
X122320002Y-89093014D03*
X123120002Y-100293012D03*
X123120002Y-99493012D03*
X123120002Y-98693013D03*
X123120002Y-97893013D03*
X123120002Y-97093013D03*
X123120002Y-96293013D03*
X123120002Y-95493013D03*
X123120002Y-94693013D03*
X123120002Y-93893013D03*
X123120002Y-93093013D03*
X123120002Y-92293013D03*
X123120002Y-91493013D03*
X123120002Y-90693013D03*
X123120002Y-89893014D03*
X123120002Y-89093014D03*
X123920001Y-100293012D03*
X123920001Y-99493012D03*
X123920001Y-98693013D03*
X123920001Y-97893013D03*
X123920001Y-97093013D03*
X123920001Y-96293013D03*
X123920001Y-95493013D03*
X123920001Y-94693013D03*
X123920001Y-93893013D03*
X123920001Y-93093013D03*
X123920001Y-92293013D03*
X123920001Y-91493013D03*
X123920001Y-90693013D03*
X123920001Y-89893014D03*
X123920001Y-89093014D03*
X124720001Y-100293012D03*
X124720001Y-99493012D03*
X124720001Y-98693013D03*
X124720001Y-97893013D03*
X124720001Y-97093013D03*
X124720001Y-96293013D03*
X124720001Y-95493013D03*
X124720001Y-94693013D03*
X124720001Y-93893013D03*
X124720001Y-93093013D03*
X124720001Y-92293013D03*
X124720001Y-91493013D03*
X124720001Y-90693013D03*
X124720001Y-89893014D03*
X124720001Y-89093014D03*
%TD*%
D37*
%TO.C,IC5*%
X105370000Y-94530000D03*
X104370000Y-94530000D03*
X102370000Y-94530000D03*
X101370000Y-94530000D03*
X99370000Y-94530000D03*
X98370000Y-94530000D03*
X105370000Y-93530000D03*
X104370000Y-93530000D03*
X99370000Y-93530000D03*
X98370000Y-93530000D03*
X103370000Y-92530000D03*
X101370000Y-92530000D03*
X100370000Y-92530000D03*
X105370000Y-91530000D03*
X104370000Y-91530000D03*
X103370000Y-91530000D03*
X100370000Y-91530000D03*
X99370000Y-91530000D03*
X98370000Y-91530000D03*
X105370000Y-90530000D03*
X104370000Y-90530000D03*
X101370000Y-90530000D03*
X99370000Y-90530000D03*
X98370000Y-90530000D03*
X101370000Y-89530000D03*
X105370000Y-88530000D03*
X104370000Y-88530000D03*
X99370000Y-88530000D03*
X98370000Y-88530000D03*
X105370000Y-87530000D03*
X104370000Y-87530000D03*
X103370000Y-87530000D03*
X102370000Y-87530000D03*
X101370000Y-87530000D03*
X100370000Y-87530000D03*
X99370000Y-87530000D03*
X98370000Y-87530000D03*
X105370000Y-86530000D03*
X104370000Y-86530000D03*
X103370000Y-86530000D03*
X102370000Y-86530000D03*
X101370000Y-86530000D03*
X100370000Y-86530000D03*
X99370000Y-86530000D03*
X98370000Y-86530000D03*
X100370000Y-85530000D03*
X106370000Y-97530000D03*
X106370000Y-96530000D03*
X106370000Y-82530000D03*
X106370000Y-81530000D03*
X105370000Y-97530000D03*
X105370000Y-92530000D03*
X105370000Y-89530000D03*
X105370000Y-85530000D03*
X105370000Y-84530000D03*
X105370000Y-81530000D03*
X104370000Y-92530000D03*
X104370000Y-89530000D03*
X104370000Y-85530000D03*
X104370000Y-84530000D03*
X103370000Y-94530000D03*
X103370000Y-93530000D03*
X103370000Y-90530000D03*
X103370000Y-89530000D03*
X103370000Y-88530000D03*
X103370000Y-85530000D03*
X103370000Y-84530000D03*
X102370000Y-93530000D03*
X102370000Y-92530000D03*
X102370000Y-91530000D03*
X102370000Y-90530000D03*
X102370000Y-89530000D03*
X102370000Y-88530000D03*
X102370000Y-85530000D03*
X102370000Y-84530000D03*
X101370000Y-93530000D03*
X101370000Y-91530000D03*
X101370000Y-88530000D03*
X101370000Y-85530000D03*
X101370000Y-84530000D03*
X100370000Y-94530000D03*
X100370000Y-93530000D03*
X100370000Y-90530000D03*
X100370000Y-89530000D03*
X100370000Y-88530000D03*
X100370000Y-84530000D03*
X99370000Y-92530000D03*
X99370000Y-89530000D03*
X99370000Y-85530000D03*
X99370000Y-84530000D03*
X98370000Y-97530000D03*
X98370000Y-92530000D03*
X98370000Y-89530000D03*
X98370000Y-85530000D03*
X98370000Y-84530000D03*
X98370000Y-81530000D03*
X97370000Y-97530000D03*
X97370000Y-96530000D03*
X97370000Y-82530000D03*
X97370000Y-81530000D03*
%TD*%
D21*
%TO.C,JP2*%
X142410000Y-79670000D03*
X142410000Y-78120000D03*
X142410000Y-81220000D03*
%TD*%
M02*
