%TF.GenerationSoftware,KiCad,Pcbnew,9.0.6-9.0.6~ubuntu24.04.1*%
%TF.CreationDate,2026-01-02T11:57:29+01:00*%
%TF.ProjectId,BB3plus CM5 STM32H7 module,42423370-6c75-4732-9043-4d352053544d,r1B3*%
%TF.SameCoordinates,Original*%
%TF.FileFunction,Copper,L3,Inr*%
%TF.FilePolarity,Positive*%
%FSLAX46Y46*%
G04 Gerber Fmt 4.6, Leading zero omitted, Abs format (unit mm)*
G04 Created by KiCad (PCBNEW 9.0.6-9.0.6~ubuntu24.04.1) date 2026-01-02 11:57:29*
%MOMM*%
%LPD*%
G01*
G04 APERTURE LIST*
%TA.AperFunction,ViaPad*%
%ADD10C,0.420000*%
%TD*%
%TA.AperFunction,ViaPad*%
%ADD11C,0.450000*%
%TD*%
%TA.AperFunction,ViaPad*%
%ADD12C,0.500000*%
%TD*%
%TA.AperFunction,Conductor*%
%ADD13C,0.127000*%
%TD*%
%TA.AperFunction,Conductor*%
%ADD14C,0.152400*%
%TD*%
G04 APERTURE END LIST*
D10*
%TO.N,/STM32H7 MCU/RCC_OSC_IN*%
X121028482Y-100368812D03*
%TO.N,/STM32H7 MCU/RCC_OSC_OUT*%
X121231515Y-99888347D03*
%TO.N,GND*%
X139517500Y-89665000D03*
D11*
X131994414Y-83948668D03*
D10*
X122140000Y-108440000D03*
X100820000Y-87530000D03*
X127100000Y-110010000D03*
D12*
X130560000Y-81380000D03*
X125056250Y-82180000D03*
D10*
X115500000Y-108400000D03*
D12*
X129773750Y-81380000D03*
D10*
X107750000Y-106870000D03*
X118700000Y-111242200D03*
X124700000Y-111242200D03*
D12*
X125056250Y-81390000D03*
D10*
X108391994Y-110432661D03*
D12*
X144467076Y-102370000D03*
D10*
X119481203Y-80032132D03*
X134173817Y-97029568D03*
X120035143Y-93346233D03*
X124720001Y-96330000D03*
X110372200Y-95830000D03*
X121630000Y-96290000D03*
X140303750Y-89665000D03*
D12*
X138367346Y-94602418D03*
D10*
X127500000Y-74380000D03*
D12*
X126628750Y-81390000D03*
X125842500Y-82180000D03*
D10*
X125900000Y-108360000D03*
X132997223Y-87952670D03*
X113825000Y-77100000D03*
D12*
X145140000Y-93830000D03*
D10*
X125900000Y-110030000D03*
X124420000Y-108420000D03*
X128300000Y-109990000D03*
X116710495Y-74396599D03*
X99370000Y-91870000D03*
X117720000Y-96320000D03*
X104090000Y-76070000D03*
D11*
X139175267Y-108118400D03*
D12*
X145210000Y-101700000D03*
X134360000Y-111070000D03*
D10*
X123900000Y-74380000D03*
X103550000Y-87870000D03*
X129836000Y-101414043D03*
X142642500Y-87384700D03*
X134370000Y-76050000D03*
D11*
X113480000Y-73970000D03*
D10*
X139517500Y-87384700D03*
X142642500Y-86634500D03*
X125100000Y-74380000D03*
X96240000Y-87530000D03*
X139517500Y-88134900D03*
D12*
X144467076Y-99020000D03*
D10*
X113610000Y-100110000D03*
D12*
X144467076Y-101030000D03*
D10*
X117644745Y-78917800D03*
D12*
X119100000Y-74450000D03*
X140046186Y-101394279D03*
X141207076Y-101800000D03*
D10*
X139517500Y-86634500D03*
D12*
X145210000Y-99020000D03*
D10*
X101970000Y-99470000D03*
X141090000Y-88134900D03*
D12*
X142990000Y-78180000D03*
D10*
X117250000Y-85970000D03*
X120795100Y-93893015D03*
X115795227Y-80370000D03*
D12*
X119100000Y-76040000D03*
X103330000Y-107300000D03*
X134400000Y-107200000D03*
X144467076Y-101700000D03*
X138305267Y-108118400D03*
D10*
X98650000Y-102060000D03*
D12*
X138305267Y-109668400D03*
D10*
X129899999Y-74380000D03*
D11*
X139175267Y-108893400D03*
D10*
X104715642Y-104392368D03*
X105700000Y-87530000D03*
X131100000Y-76060000D03*
X114420000Y-108400000D03*
D12*
X132850000Y-90410000D03*
D10*
X115565227Y-82680000D03*
D12*
X117900000Y-76040000D03*
X127415000Y-81390000D03*
X127415000Y-82180000D03*
X138060000Y-78600000D03*
D10*
X129900000Y-76060000D03*
X116385100Y-92690200D03*
D12*
X120300000Y-74450000D03*
D10*
X119110000Y-99720000D03*
X141861250Y-86634500D03*
X122700000Y-111242200D03*
X137513900Y-76550000D03*
X98010000Y-94540000D03*
D12*
X144467076Y-100360000D03*
D10*
X115504277Y-73370030D03*
X133496237Y-73370000D03*
X120480000Y-81100000D03*
X125060000Y-91070000D03*
D12*
X133397654Y-108435435D03*
D10*
X119919000Y-100392629D03*
D12*
X138305267Y-108893400D03*
D10*
X140298750Y-87384700D03*
X117514195Y-89403646D03*
X113390000Y-88920000D03*
X141876250Y-88917500D03*
X113195230Y-94990791D03*
X101211632Y-102405245D03*
X121891935Y-91811103D03*
X105931091Y-105850906D03*
X141090000Y-88917500D03*
X119120003Y-94900000D03*
X114720004Y-93374996D03*
D11*
X139175267Y-109668400D03*
D10*
X125190563Y-77173736D03*
D12*
X139240000Y-79680000D03*
D10*
X112200000Y-92530000D03*
X124568405Y-100304900D03*
X113590000Y-102750000D03*
X120700000Y-111242200D03*
D12*
X121500000Y-76040000D03*
D10*
X115500000Y-109980000D03*
X122718513Y-74375636D03*
D12*
X126628750Y-82180000D03*
D10*
X132120000Y-101150000D03*
D12*
X145210000Y-99690000D03*
X128987500Y-81380000D03*
D11*
X119575543Y-103418217D03*
D10*
X118620000Y-91670000D03*
D12*
X141207076Y-100260000D03*
D10*
X125000000Y-89040000D03*
D12*
X124270000Y-81390000D03*
D10*
X128700000Y-108360000D03*
X133310236Y-95589764D03*
D12*
X129773750Y-82170000D03*
D10*
X120860000Y-83050000D03*
X127110000Y-108360000D03*
X104020000Y-91540000D03*
X101370000Y-89150000D03*
X139517500Y-88917500D03*
X123593900Y-102630000D03*
D12*
X128201250Y-82180000D03*
X134570000Y-88960000D03*
D10*
X135210000Y-93855100D03*
X119120002Y-95380000D03*
D12*
X133090000Y-82220000D03*
D10*
X122384900Y-88936146D03*
D12*
X147500000Y-88410000D03*
D10*
X114540000Y-109670000D03*
D11*
X103330000Y-108830000D03*
D12*
X120300000Y-76040000D03*
D10*
X104715642Y-105859588D03*
X98830000Y-87530000D03*
D12*
X117900000Y-74450000D03*
D10*
X138947100Y-73190000D03*
X116807876Y-99011481D03*
X140339999Y-83220000D03*
X142662500Y-88917500D03*
X115995227Y-84770000D03*
X141861250Y-87384700D03*
X141080000Y-86634500D03*
X127500000Y-77130000D03*
X114690000Y-75910000D03*
X100830000Y-84060000D03*
X141876250Y-89665000D03*
D12*
X145210000Y-103040000D03*
D10*
X124950000Y-93950000D03*
X136080000Y-91854900D03*
D12*
X145210000Y-100360000D03*
X128987500Y-82170000D03*
D10*
X105810000Y-110710000D03*
D12*
X142090000Y-83220000D03*
D10*
X121025683Y-86086469D03*
X115960000Y-96020000D03*
X105370000Y-88885100D03*
X119950000Y-89330000D03*
D12*
X140480000Y-107359999D03*
X125842500Y-81390000D03*
X138785001Y-107369999D03*
D10*
X114055227Y-80920000D03*
X120420000Y-108420000D03*
X105939773Y-104401049D03*
D12*
X138785001Y-106840000D03*
X121500000Y-73250000D03*
X145210000Y-102370000D03*
D10*
X132290000Y-74380000D03*
X97150000Y-87530000D03*
X120790000Y-102374900D03*
X122960000Y-94700000D03*
X116966087Y-94866087D03*
X122480000Y-93790000D03*
X140298750Y-86634500D03*
X132290000Y-76060000D03*
D12*
X132990000Y-85380000D03*
D10*
X122330000Y-95520000D03*
X98020000Y-88530000D03*
X141090000Y-89665000D03*
D11*
X113470000Y-107800000D03*
D10*
X120860000Y-82140000D03*
X126314809Y-77080216D03*
D12*
X137060000Y-82490000D03*
D10*
X118013978Y-108452137D03*
X108250000Y-108350000D03*
X110174509Y-105868400D03*
X116690000Y-77100000D03*
D12*
X130560000Y-82170000D03*
D10*
X120650000Y-95690000D03*
X142662500Y-88134900D03*
X136097100Y-73190000D03*
D11*
X120135003Y-103418200D03*
D10*
X141080000Y-87384700D03*
X120135032Y-91337179D03*
X131090000Y-74380000D03*
D12*
X124270000Y-82180000D03*
X132100000Y-111120000D03*
D10*
X140303750Y-88917500D03*
X116700000Y-108340000D03*
D12*
X146010000Y-84420000D03*
D11*
X101178810Y-107149539D03*
D10*
X134716373Y-73883654D03*
D12*
X144850000Y-79930000D03*
D10*
X140303750Y-88134900D03*
X126300000Y-74380000D03*
X118785291Y-93741287D03*
X128700000Y-74380000D03*
D12*
X144467076Y-103040000D03*
D10*
X141876250Y-88134900D03*
X105370000Y-94860000D03*
X133485195Y-76053468D03*
X135410000Y-84130000D03*
D12*
X145210000Y-101030000D03*
X128201250Y-81390000D03*
D10*
X142662500Y-89665000D03*
X128690000Y-77130000D03*
D12*
X138785001Y-106309999D03*
D10*
X123598598Y-97523941D03*
X100370000Y-92853783D03*
D12*
X144467076Y-99690000D03*
D10*
X117074923Y-100739216D03*
X116448516Y-109875206D03*
D12*
X136160000Y-85920000D03*
D10*
X122690000Y-86000000D03*
%TO.N,ETH_MDIO*%
X122719891Y-98174839D03*
X108768200Y-98520000D03*
%TO.N,ETH_CRS_DV*%
X109798654Y-98237630D03*
X122680000Y-97440000D03*
%TO.N,ETH_TX_EN*%
X105027023Y-101957167D03*
X117094344Y-99903835D03*
%TO.N,ETH_TXD1*%
X116319802Y-99211311D03*
X104470000Y-99090000D03*
%TO.N,ETH_MDC*%
X106587522Y-99925724D03*
X117673902Y-102765865D03*
%TO.N,ETH_RXD0*%
X110064900Y-97742917D03*
X120201816Y-97492893D03*
%TO.N,ETH_RXD1*%
X123127828Y-98500138D03*
X111870000Y-99060000D03*
%TO.N,ETH_TXD0*%
X117126896Y-96583784D03*
X105060000Y-98140000D03*
D12*
%TO.N,+3V3*%
X143780000Y-79940000D03*
D10*
X132920000Y-75940000D03*
X115521722Y-93419767D03*
X122010000Y-103510000D03*
D12*
X133840000Y-78560000D03*
D10*
X135313900Y-74050000D03*
X107870000Y-101590000D03*
D12*
X130800000Y-107080000D03*
X141180409Y-104820000D03*
X140553743Y-104160000D03*
D10*
X97140000Y-86530000D03*
D12*
X141807076Y-104160000D03*
X135580000Y-79180000D03*
D10*
X98070000Y-99960000D03*
X114650000Y-73160000D03*
D12*
X141180409Y-104160000D03*
D10*
X121002312Y-93167319D03*
X118961414Y-93121003D03*
X117490000Y-94377086D03*
X119599402Y-96459698D03*
X121186988Y-94263012D03*
X96255049Y-86530000D03*
X117240191Y-93333700D03*
D12*
X141100000Y-79670000D03*
D10*
X121520000Y-103510000D03*
X110093082Y-96940396D03*
X120698974Y-97117793D03*
D12*
X139927076Y-104820000D03*
X141807076Y-104820000D03*
X111950000Y-108210000D03*
X132980000Y-91810000D03*
D10*
X120720004Y-96293014D03*
D12*
X140553743Y-104820000D03*
D10*
X109797082Y-103032369D03*
X121820000Y-82160000D03*
D11*
X139750000Y-107809999D03*
D10*
X119555473Y-96005473D03*
X111940000Y-94150000D03*
X109970000Y-106940000D03*
X118480200Y-96070039D03*
D12*
X130710000Y-108360000D03*
X142390000Y-80640000D03*
D10*
X121680000Y-93730000D03*
X108450000Y-105800000D03*
X103320000Y-101410000D03*
D12*
X139927076Y-104160000D03*
X140180000Y-79650000D03*
D10*
%TO.N,SDMMC_D1*%
X116567292Y-90057292D03*
X99630000Y-93030000D03*
%TO.N,/STM32H7 MCU/VDD_SDC*%
X119525319Y-94364700D03*
X121281302Y-95681167D03*
X116850000Y-101620000D03*
X120392029Y-92088289D03*
X115904900Y-95000459D03*
X116850000Y-102050000D03*
X118334900Y-99682478D03*
X116460280Y-96249282D03*
X118280000Y-94200000D03*
X116850000Y-102480000D03*
X117775316Y-92344900D03*
D11*
%TO.N,/STM32H7 MCU/VDDSMPS*%
X119120004Y-100293011D03*
D10*
X119281498Y-101368227D03*
X121250092Y-101170809D03*
%TO.N,~{RESET_OUT}*%
X105588800Y-102152467D03*
X101660000Y-92210000D03*
X112240000Y-82990000D03*
X120470000Y-106780000D03*
X106500000Y-75150000D03*
X121130056Y-99114635D03*
X138839999Y-83240000D03*
X116180000Y-106310000D03*
X122910000Y-83990000D03*
X132500000Y-107100000D03*
X119010000Y-103410000D03*
%TO.N,ETH_RX_ERR*%
X107484600Y-100540000D03*
X108000000Y-87750000D03*
X122130000Y-85880000D03*
X107982274Y-104428035D03*
%TO.N,DVID_SEL2*%
X131920000Y-85323700D03*
X124237690Y-98776026D03*
X130670000Y-96100000D03*
X128260000Y-99130000D03*
%TO.N,~{DIB1_CSA}*%
X119810000Y-108446602D03*
X115616783Y-103683473D03*
X115614445Y-97139016D03*
%TO.N,+VAUX*%
X128893990Y-106941846D03*
X117221877Y-106682348D03*
X114400500Y-101654283D03*
%TO.N,~{DIB3_CSA}*%
X116952075Y-104352243D03*
X112673853Y-95126033D03*
X123315844Y-105246317D03*
%TO.N,TFT_DVID_TX1_P*%
X124211500Y-74800000D03*
%TO.N,~{SYSMCU_CS}*%
X118537378Y-103184900D03*
%TO.N,~{TFT_IRQ}*%
X123990000Y-104140000D03*
X122301872Y-110054869D03*
%TO.N,MCU_USB_UP_TX-*%
X114321332Y-93825387D03*
X113773394Y-75773394D03*
%TO.N,SDA*%
X124500000Y-84890000D03*
X136920000Y-83840000D03*
X112960000Y-97120000D03*
X125090186Y-84338512D03*
X112280000Y-86390000D03*
%TO.N,SCL*%
X111720000Y-86320000D03*
X136330474Y-83379966D03*
X111261600Y-96865100D03*
X110895378Y-94073447D03*
X124443324Y-83989800D03*
X114604885Y-96690955D03*
X123947964Y-84879069D03*
%TO.N,TFT_DVID_TX2_P*%
X123013835Y-74805583D03*
%TO.N,~{DIB4_IRQ}*%
X122805023Y-105140816D03*
%TO.N,DIB_OE_SYNC*%
X123570000Y-108440000D03*
%TO.N,RS485_TX_EN{slash}DOUT2*%
X127531420Y-91167500D03*
X119900000Y-111242200D03*
X127776029Y-103636507D03*
%TO.N,TFT_DVID_TX2_N*%
X123580000Y-74800000D03*
%TO.N,TFT_DVID_CLK_P*%
X126611500Y-74800000D03*
%TO.N,~{DIB3_IRQ}*%
X118808385Y-108446602D03*
%TO.N,~{DIB5_CSA}*%
X117152839Y-103307160D03*
X123570000Y-109000000D03*
%TO.N,TFT_DVID_CLK_N*%
X127188500Y-74800000D03*
%TO.N,DIB1_USB_D+*%
X114180000Y-95310000D03*
%TO.N,TFT_DVID_TX0_P*%
X125411500Y-74800000D03*
%TO.N,XSPIM_P1_IO10*%
X122448859Y-91787577D03*
X135109086Y-97558717D03*
D11*
%TO.N,/STM32H7 MCU/VLXSMPS*%
X118390000Y-100770000D03*
D10*
%TO.N,~{DIB2_CSA}*%
X117109021Y-109439493D03*
X116419877Y-103170912D03*
X116601990Y-106670360D03*
X121731317Y-109871790D03*
%TO.N,SDMMC_D0*%
X115379863Y-88678301D03*
X99224100Y-90023467D03*
%TO.N,~{DIB4_CSA}*%
X119371139Y-96928389D03*
X125812569Y-97392097D03*
X126575300Y-105212960D03*
%TO.N,MCU_USB_UP_TX+*%
X113639407Y-93845587D03*
X113386606Y-75386606D03*
%TO.N,TFT_DVID_TX0_N*%
X125988500Y-74800000D03*
%TO.N,DIB1_USB_D-*%
X113630000Y-95310000D03*
%TO.N,XSPIM_P1_IO5*%
X126537965Y-94146500D03*
X131110000Y-98190000D03*
%TO.N,~{DIB5_IRQ}*%
X110485600Y-95074494D03*
X111820000Y-102130000D03*
X111327800Y-107983600D03*
%TO.N,~{DIB1_IRQ}*%
X124660000Y-103600000D03*
X119317241Y-106338808D03*
X124430000Y-106046600D03*
%TO.N,~{SYSMCU_IRQ}*%
X123022830Y-108446100D03*
%TO.N,~{DIB2_IRQ}*%
X119308352Y-108663634D03*
%TO.N,SDMMC_CLK*%
X106637550Y-91817550D03*
X115478477Y-91904983D03*
%TO.N,TFT_DVID_TX1_N*%
X124788500Y-74800000D03*
%TO.N,BOOT0*%
X113500000Y-100970000D03*
X111330000Y-96100000D03*
X132540000Y-109180000D03*
%TO.N,~{ETH_LINK_ACT}*%
X115957225Y-109701400D03*
X110333795Y-110026057D03*
%TO.N,ETH_TXRX_B-*%
X102720000Y-105006500D03*
%TO.N,ETH_TXRX_A-*%
X102720000Y-104150000D03*
X102180000Y-103470000D03*
%TO.N,~{ETH_LINK100}*%
X110020000Y-111300000D03*
X112880000Y-110890000D03*
%TO.N,ETH_TXRX_B+*%
X102720000Y-105553500D03*
%TO.N,ETH_TXRX_A+*%
X102330000Y-104590000D03*
%TO.N,XSPIM_P1_IO2*%
X123030549Y-93776171D03*
X131270000Y-98820000D03*
%TO.N,XSPIM_P1_IO0*%
X123968729Y-92504340D03*
X130241382Y-95794988D03*
X132350000Y-98370000D03*
%TO.N,XSPIM_P1_IO12*%
X135700000Y-101240000D03*
X123350000Y-96324213D03*
%TO.N,XSPI_M_P1_CLK*%
X134510000Y-97970000D03*
X125687715Y-92840700D03*
%TO.N,XSPIM_P1_IO9*%
X134850000Y-96420000D03*
X126956390Y-91167500D03*
%TO.N,XSPIM_P1_IO13*%
X126940236Y-95509764D03*
X134550000Y-100250000D03*
%TO.N,XSPIM_P1_IO14*%
X134566750Y-101276750D03*
X122920000Y-95400000D03*
%TO.N,XSPIM_P1_IO15*%
X134150000Y-100790000D03*
X124100000Y-94780000D03*
%TO.N,DVID_SEL1*%
X130800000Y-85590000D03*
X124218391Y-99905100D03*
X130952182Y-83978412D03*
X129048136Y-101390000D03*
%TO.N,XSPIM_P2_CLK*%
X114570000Y-82090000D03*
X119805147Y-90034900D03*
%TO.N,XSPIM_P1_IO4*%
X129740000Y-99190000D03*
X125456841Y-95150906D03*
%TO.N,XSPIM_P2_DQS0*%
X114906355Y-81565175D03*
X118305100Y-89628367D03*
%TO.N,XSPIM_P1_IO8*%
X133844787Y-95694047D03*
X124313434Y-91123500D03*
%TO.N,XSPIM_P1_IO11*%
X135769816Y-100419816D03*
X124168298Y-96225191D03*
%TO.N,XSPI_M_P1_DQS0*%
X133820000Y-98700000D03*
X123348876Y-92517921D03*
%TO.N,SDMMC_D6*%
X106150000Y-89120000D03*
X116670000Y-88800000D03*
%TO.N,SDMMC_D2*%
X100765236Y-90075236D03*
X114578369Y-89924055D03*
%TO.N,SDMMC_D3*%
X112140000Y-88120000D03*
X99100000Y-93500000D03*
%TO.N,SDMMC_CMD*%
X108030000Y-90560000D03*
X101700000Y-94270000D03*
%TO.N,SDMMC_D7*%
X105370000Y-90950000D03*
X117172017Y-90316948D03*
%TO.N,SDMMC_D5*%
X113950000Y-99070000D03*
X104540000Y-90895100D03*
%TO.N,SDMMC_D4*%
X114185421Y-100222900D03*
X104010000Y-93570000D03*
%TO.N,XSPIM_P1_IO7*%
X133490000Y-96300000D03*
X123770260Y-91364335D03*
%TO.N,XSPIM_P1_IO1*%
X123270000Y-91670000D03*
X132420167Y-96860995D03*
%TO.N,XSPI_M_P1_DQS1*%
X134890000Y-99540000D03*
X122161340Y-92286453D03*
%TO.N,XSPIM_P1_IO6*%
X125156447Y-92699280D03*
X131214239Y-95283592D03*
%TO.N,XSPIM_P1_IO3*%
X126610000Y-95080000D03*
X132539959Y-99979181D03*
%TO.N,~{LED_ACT}*%
X112480000Y-111265100D03*
%TO.N,~{XSPI_M_P1_CS}*%
X125650000Y-90900000D03*
X135780000Y-98800000D03*
%TO.N,REAR_DVID_TX1_N*%
X129588500Y-74800000D03*
%TO.N,REAR_DVID_CLK_P*%
X131411500Y-74820000D03*
%TO.N,REAR_DVID_TX0_N*%
X130788500Y-74830000D03*
%TO.N,REAR_DVID_TX1_P*%
X129011500Y-74800000D03*
%TO.N,REAR_DVID_CLK_N*%
X131988500Y-74820000D03*
%TO.N,REAR_DVID_TX2_N*%
X128388500Y-74800000D03*
%TO.N,REAR_DVID_TX0_P*%
X130211500Y-74830000D03*
%TO.N,REAR_DVID_TX2_P*%
X127811500Y-74800000D03*
%TO.N,REAR_DVID_SDA*%
X139303096Y-76504932D03*
%TO.N,REAR_DVID_CEC*%
X137253900Y-77860000D03*
%TO.N,REAR_DVID_SCL*%
X138813900Y-74800000D03*
%TO.N,+1V8*%
X114335227Y-79570000D03*
D11*
X136098658Y-104530000D03*
D10*
X121510000Y-88410000D03*
X99370000Y-94140000D03*
X119724329Y-92613012D03*
X117738276Y-79836171D03*
X103370000Y-91880000D03*
X104030000Y-94540000D03*
X98370000Y-91190000D03*
X121801056Y-92729679D03*
X116065227Y-83090000D03*
X123507006Y-94274747D03*
X122471949Y-94983012D03*
X120875873Y-91264965D03*
D11*
X136670000Y-105089835D03*
D10*
X114680000Y-85950000D03*
X103370000Y-92860000D03*
D11*
X131690000Y-108310000D03*
D10*
X104380000Y-88890000D03*
X114983160Y-79333480D03*
D11*
X131710000Y-107010000D03*
X137200000Y-105089835D03*
D10*
X131450000Y-100090000D03*
D11*
X136669329Y-104530000D03*
D10*
X118928842Y-91234901D03*
D11*
X137199329Y-104530000D03*
D10*
X133051735Y-96685872D03*
X105370000Y-91870000D03*
X99030000Y-88540000D03*
D11*
X136099329Y-105089835D03*
D10*
X123250000Y-88550000D03*
X116265227Y-84300000D03*
X122696657Y-92700800D03*
X100380000Y-91190000D03*
X118539682Y-81814927D03*
%TO.N,GPIO_VREF*%
X125127678Y-103868622D03*
%TO.N,DIB4_SCLK*%
X125760000Y-103440000D03*
X122050000Y-111210000D03*
%TO.N,DIB4_MISO*%
X120960000Y-108500000D03*
X114953467Y-94460398D03*
X116473096Y-104558759D03*
%TO.N,DIB4_MOSI*%
X116182648Y-104125506D03*
X115474900Y-94344326D03*
X119909047Y-104225100D03*
%TO.N,LTDC_G2*%
X136790000Y-96180000D03*
X122038918Y-99330367D03*
X145630000Y-91030000D03*
X128120000Y-99900000D03*
%TO.N,LTDC_B7*%
X146030000Y-89390000D03*
X124446600Y-101060149D03*
X136753190Y-102761516D03*
%TO.N,LTDC_G5*%
X128106817Y-89596344D03*
X122670993Y-91074469D03*
%TO.N,LTDC_VSYNC*%
X118690000Y-88270000D03*
X142858262Y-84324462D03*
X115441005Y-91063407D03*
%TO.N,LTDC_CLK*%
X145540000Y-88120000D03*
X123519767Y-100011360D03*
X136983526Y-102293526D03*
%TO.N,LTDC_R3*%
X140855236Y-94675236D03*
X136730000Y-100710000D03*
X122401002Y-98951772D03*
%TO.N,LTDC_B1*%
X143950000Y-87800000D03*
X113369718Y-91436760D03*
%TO.N,LTDC_B6*%
X117780000Y-91634900D03*
X144790000Y-88560000D03*
%TO.N,LTDC_R1*%
X120836375Y-100853749D03*
X130000000Y-103964900D03*
%TO.N,LTDC_B5*%
X116438241Y-89493171D03*
X145540000Y-87430000D03*
%TO.N,LTDC_R6*%
X139335872Y-93090593D03*
X117120003Y-92011031D03*
%TO.N,LTDC_G3*%
X122332042Y-100064831D03*
X145870000Y-92550000D03*
%TO.N,LTDC_B0*%
X122720249Y-96574645D03*
X137570000Y-85840000D03*
X126830000Y-97430000D03*
X137250207Y-95007129D03*
%TO.N,LTDC_DE*%
X124328038Y-101573990D03*
X144370000Y-83850000D03*
X136345618Y-103087022D03*
%TO.N,LTDC_R5*%
X139857256Y-93075481D03*
X118186953Y-92024550D03*
%TO.N,LTDC_R7*%
X138814379Y-93079885D03*
X114629486Y-92325888D03*
%TO.N,LTDC_B4*%
X144790000Y-87530000D03*
X116873098Y-90963500D03*
%TO.N,LTDC_G0*%
X127360000Y-97610000D03*
X124224022Y-97780160D03*
X137644900Y-95348136D03*
X145120000Y-89940000D03*
%TO.N,LTDC_B2*%
X137230000Y-95780000D03*
X146030000Y-85950000D03*
X124402155Y-98281030D03*
X128042002Y-98258773D03*
%TO.N,LTDC_G7*%
X125822871Y-89518239D03*
X122010000Y-90250000D03*
%TO.N,LTDC_G1*%
X117559113Y-99262285D03*
X129320000Y-104480000D03*
%TO.N,LTDC_B3*%
X144800000Y-86420001D03*
X114870000Y-88390000D03*
%TO.N,LTDC_R0*%
X130610000Y-104100000D03*
X120319840Y-100011139D03*
%TO.N,LTDC_HSYNC*%
X115360000Y-86480000D03*
X127390246Y-84664900D03*
X143330000Y-83810000D03*
X116270520Y-96735142D03*
%TO.N,LTDC_R4*%
X140392136Y-93071074D03*
X114836360Y-97896300D03*
%TO.N,LTDC_R2*%
X113846300Y-97528896D03*
X126190000Y-89970000D03*
%TO.N,~{LED_PWR}*%
X133110000Y-109280000D03*
X113610000Y-109860000D03*
X110160000Y-100340000D03*
X109680000Y-94520000D03*
%TO.N,DIB1{slash}DIB3_MISO*%
X119431696Y-104479100D03*
%TO.N,DIB2{slash}DIB5_SCLK*%
X121748577Y-105037600D03*
%TO.N,DIB1{slash}DIB3_MOSI*%
X126233397Y-104610200D03*
X121638118Y-98996558D03*
X122703431Y-101025726D03*
X125104217Y-109144217D03*
%TO.N,DIB2{slash}DIB5_MISO*%
X121920000Y-106046600D03*
X113600000Y-103330000D03*
X108768200Y-97970000D03*
X108830000Y-100251600D03*
%TO.N,DIB2{slash}DIB5_MOSI*%
X107738600Y-98570159D03*
X120299427Y-109435100D03*
X111834900Y-102932656D03*
%TO.N,DIB1{slash}DIB3_SCLK*%
X109840000Y-90540000D03*
X109010000Y-95930000D03*
X110771690Y-102412004D03*
X109840000Y-92980000D03*
X111122871Y-109637543D03*
X124420000Y-109860000D03*
X115159190Y-89942486D03*
%TO.N,/STM32H7 MCU/~{ACTIVE}*%
X126146270Y-103860000D03*
X125322081Y-108483889D03*
%TO.N,/Ethernet PHY\u002C PSRAM\u002C eMMC/+3V3_LAN*%
X101420000Y-101660000D03*
D11*
%TO.N,+5V*%
X138797076Y-99070000D03*
X138230000Y-99070000D03*
D10*
X139930000Y-74160000D03*
D11*
X139997076Y-99070000D03*
X130250000Y-110080000D03*
X138230000Y-98470000D03*
X131350000Y-110080000D03*
X138797076Y-98470000D03*
X130800000Y-110080000D03*
X129680000Y-110090000D03*
X139997076Y-98470000D03*
D10*
%TO.N,MCU_USB_VBUS*%
X111240000Y-85380000D03*
X110365100Y-92710000D03*
X114862269Y-93906618D03*
X116100000Y-77390000D03*
%TO.N,MCU_USB_ID*%
X110595039Y-93178185D03*
X114280000Y-78250000D03*
X114451668Y-94602760D03*
X111860000Y-85400000D03*
D11*
%TO.N,/DVID converter\u002C NOR Flash/DVDD*%
X139244703Y-81355299D03*
D12*
X137080000Y-93895100D03*
D11*
X138030000Y-81350000D03*
X145270000Y-81360000D03*
D10*
%TO.N,ETH_REF_CLK*%
X105950000Y-97040000D03*
X114003928Y-96220000D03*
%TO.N,UART_RX{slash}DIN1*%
X127139764Y-105080236D03*
%TO.N,RS485_RX{slash}DIN3*%
X106940000Y-95130000D03*
X110317801Y-103054981D03*
X133924803Y-108629113D03*
X110604471Y-109579833D03*
X114755669Y-91819779D03*
%TO.N,DVID_CEC*%
X118080000Y-103560000D03*
X130394890Y-84061675D03*
X120490000Y-104010000D03*
X137230000Y-96540000D03*
X137710000Y-85280000D03*
X127270000Y-103510000D03*
X117630000Y-102100000D03*
D11*
%TO.N,/DVID converter\u002C NOR Flash/TVDD*%
X133925843Y-87464157D03*
X133952858Y-90469900D03*
D10*
%TO.N,DVID_HPD*%
X116385607Y-91936088D03*
X115883144Y-87325038D03*
X129981339Y-84432072D03*
%TO.N,REAR_DVID_HPD*%
X138413900Y-77250000D03*
%TO.N,RTC_CM5*%
X116228096Y-99768096D03*
X121610000Y-108450000D03*
X116132646Y-103606305D03*
%TO.N,DIN2*%
X121112774Y-110020988D03*
X113066055Y-109089696D03*
X109710000Y-95060000D03*
X112828554Y-94552129D03*
X111270598Y-102259818D03*
%TO.N,UART_TX{slash}DOUT1*%
X125185385Y-105110916D03*
X119050000Y-100850000D03*
X125054900Y-106524499D03*
X122623263Y-102740061D03*
%TO.N,RS485_TX{slash}DOUT3*%
X131500000Y-111330000D03*
X112970000Y-109907800D03*
X109925665Y-102002769D03*
X108900000Y-107860000D03*
X107978200Y-96560000D03*
%TO.N,USB_FS_SEL*%
X121358730Y-83991270D03*
X114700000Y-74580000D03*
%TO.N,/CM5 socket/USB3_1-*%
X116776950Y-75518499D03*
%TO.N,/CM5 socket/USB2-*%
X115046500Y-77900000D03*
%TO.N,/CM5 socket/USB2+*%
X115593500Y-77900000D03*
%TO.N,/CM5 socket/USB3_1+*%
X116753413Y-74942721D03*
%TO.N,Net-(IC4C-VSSA)*%
X118720003Y-98174996D03*
%TO.N,Net-(IC4C-VREFM)*%
X120484842Y-97931032D03*
%TO.N,Net-(IC7-XTAL2)*%
X105531049Y-107390418D03*
%TO.N,Net-(IC7-XTAL1{slash}CLKIN)*%
X106130480Y-107394193D03*
%TO.N,Net-(IC6-VDDI)*%
X100640000Y-85290000D03*
%TO.N,Net-(IC7-RXD1{slash}MODE1)*%
X109240000Y-107180000D03*
X109021482Y-102990000D03*
X111451339Y-101454953D03*
%TO.N,Net-(IC7-LED2{slash}NINT{slash}NPME{slash}NINTSEL)*%
X108260000Y-111050000D03*
%TO.N,Net-(IC7-LED1{slash}NINT{slash}NPME{slash}REGOFF)*%
X103360000Y-110250000D03*
X108245210Y-109804790D03*
%TD*%
D13*
%TO.N,ETH_MDIO*%
X120596711Y-98780000D02*
X121087237Y-98289474D01*
X122605256Y-98289474D02*
X122719891Y-98174839D01*
X114243800Y-98653800D02*
X114361400Y-98771400D01*
X117258533Y-98607611D02*
X117975567Y-98607611D01*
X116269299Y-98408053D02*
X117058975Y-98408053D01*
X108768200Y-98520000D02*
X108902000Y-98653800D01*
X115905951Y-98771400D02*
X116269299Y-98408053D01*
X121087237Y-98289474D02*
X122605256Y-98289474D01*
X117975567Y-98607611D02*
X118147956Y-98780000D01*
X108902000Y-98653800D02*
X114243800Y-98653800D01*
X118147956Y-98780000D02*
X120596711Y-98780000D01*
X117058975Y-98408053D02*
X117258533Y-98607611D01*
X114361400Y-98771400D02*
X115905951Y-98771400D01*
%TO.N,ETH_CRS_DV*%
X122680000Y-97440000D02*
X122080000Y-98040000D01*
X122080000Y-98040000D02*
X121013421Y-98040000D01*
X121013421Y-98040000D02*
X120502325Y-98551096D01*
X109935424Y-98374400D02*
X109798654Y-98237630D01*
X114353610Y-98374400D02*
X109935424Y-98374400D01*
X120502325Y-98551096D02*
X118242342Y-98551096D01*
X115854062Y-98500000D02*
X114479210Y-98500000D01*
X114479210Y-98500000D02*
X114353610Y-98374400D01*
X117353223Y-98379011D02*
X117153665Y-98179453D01*
X116174610Y-98179453D02*
X115854062Y-98500000D01*
X117153665Y-98179453D02*
X116174610Y-98179453D01*
X118070257Y-98379011D02*
X117353223Y-98379011D01*
X118242342Y-98551096D02*
X118070257Y-98379011D01*
D14*
%TO.N,ETH_TX_EN*%
X113787533Y-100709100D02*
X115949100Y-100709100D01*
X112772689Y-100582200D02*
X113660633Y-100582200D01*
X115949100Y-100709100D02*
X116754365Y-99903835D01*
X106244268Y-99415732D02*
X110496522Y-99415732D01*
X110846460Y-99765670D02*
X111956159Y-99765670D01*
X113660633Y-100582200D02*
X113787533Y-100709100D01*
X116754365Y-99903835D02*
X117094344Y-99903835D01*
X105150775Y-100509225D02*
X106244268Y-99415732D01*
X111956159Y-99765670D02*
X112772689Y-100582200D01*
X105027023Y-101957167D02*
X105150775Y-101833415D01*
X110496522Y-99415732D02*
X110846460Y-99765670D01*
X105150775Y-101833415D02*
X105150775Y-100509225D01*
%TO.N,ETH_TXD1*%
X112372200Y-99722200D02*
X115637800Y-99722200D01*
X112136270Y-99486270D02*
X112372200Y-99722200D01*
X116148689Y-99211311D02*
X116319802Y-99211311D01*
X115637800Y-99722200D02*
X116148689Y-99211311D01*
X110530000Y-99090000D02*
X110926270Y-99486270D01*
X104470000Y-99090000D02*
X110530000Y-99090000D01*
X110926270Y-99486270D02*
X112136270Y-99486270D01*
D13*
%TO.N,ETH_MDC*%
X117583667Y-102856100D02*
X117673902Y-102765865D01*
X109922583Y-99720000D02*
X109959888Y-99682695D01*
X113945333Y-101200000D02*
X115000000Y-101200000D01*
X116656100Y-102856100D02*
X117583667Y-102856100D01*
X106587522Y-99925724D02*
X106793246Y-99720000D01*
X110766650Y-100045070D02*
X111840426Y-100045070D01*
X115000000Y-101200000D02*
X116656100Y-102856100D01*
X110404275Y-99682695D02*
X110766650Y-100045070D01*
X109959888Y-99682695D02*
X110404275Y-99682695D01*
X106793246Y-99720000D02*
X109922583Y-99720000D01*
X111840426Y-100045070D02*
X113165356Y-101370000D01*
X113775333Y-101370000D02*
X113945333Y-101200000D01*
X113165356Y-101370000D02*
X113775333Y-101370000D01*
%TO.N,ETH_RXD0*%
X115759372Y-98271400D02*
X116079919Y-97950853D01*
X118467107Y-97492893D02*
X120201816Y-97492893D01*
X110098400Y-97742917D02*
X110450483Y-98095000D01*
X110064900Y-97742917D02*
X110098400Y-97742917D01*
X118009147Y-97950853D02*
X118467107Y-97492893D01*
X114433420Y-98095000D02*
X114609820Y-98271400D01*
X114609820Y-98271400D02*
X115759372Y-98271400D01*
X116079919Y-97950853D02*
X118009147Y-97950853D01*
X110450483Y-98095000D02*
X114433420Y-98095000D01*
%TO.N,ETH_RXD1*%
X121123328Y-98576672D02*
X123051294Y-98576672D01*
X117163844Y-98836211D02*
X117880877Y-98836211D01*
X116000640Y-99000000D02*
X116363988Y-98636653D01*
X116363988Y-98636653D02*
X116964285Y-98636653D01*
X118054666Y-99010000D02*
X120690000Y-99010000D01*
X123051294Y-98576672D02*
X123127828Y-98500138D01*
X117880877Y-98836211D02*
X118054666Y-99010000D01*
X112180000Y-99060000D02*
X112591500Y-99471500D01*
X114208500Y-99471500D02*
X114680000Y-99000000D01*
X112591500Y-99471500D02*
X114208500Y-99471500D01*
X116964285Y-98636653D02*
X117163844Y-98836211D01*
X120690000Y-99010000D02*
X121123328Y-98576672D01*
X111870000Y-99060000D02*
X112180000Y-99060000D01*
X114680000Y-99000000D02*
X116000640Y-99000000D01*
%TO.N,ETH_TXD0*%
X115059236Y-97153796D02*
X115469579Y-96743453D01*
X106044868Y-98130000D02*
X106859372Y-97315496D01*
X116649758Y-97110242D02*
X117126896Y-96633104D01*
X110536461Y-97315496D02*
X110780965Y-97560000D01*
X110780965Y-97560000D02*
X113284724Y-97560000D01*
X115469579Y-96743453D02*
X115779002Y-96743453D01*
X116115148Y-97110242D02*
X116649758Y-97110242D01*
X106859372Y-97315496D02*
X110536461Y-97315496D01*
X113690928Y-97153796D02*
X115059236Y-97153796D01*
X105060000Y-98140000D02*
X105070000Y-98130000D01*
X105070000Y-98130000D02*
X106044868Y-98130000D01*
X115895420Y-96890514D02*
X116115148Y-97110242D01*
X115895420Y-96859871D02*
X115895420Y-96890514D01*
X115779002Y-96743453D02*
X115895420Y-96859871D01*
X113284724Y-97560000D02*
X113690928Y-97153796D01*
X117126896Y-96633104D02*
X117126896Y-96583784D01*
%TO.N,SDMMC_D1*%
X115340786Y-89538600D02*
X115859478Y-90057292D01*
X100771400Y-89538600D02*
X115340786Y-89538600D01*
X99932400Y-91939327D02*
X99881600Y-91939327D01*
X100034000Y-92091727D02*
X100034000Y-92040927D01*
X99526000Y-92345727D02*
X99526000Y-92294927D01*
X99627600Y-92193327D02*
X99678400Y-92193327D01*
X99881600Y-92193327D02*
X99932400Y-92193327D01*
X99630000Y-93030000D02*
X99780000Y-92880000D01*
X99678400Y-92447327D02*
X99627600Y-92447327D01*
X115859478Y-90057292D02*
X116567292Y-90057292D01*
X99780000Y-91837727D02*
X99780000Y-91786927D01*
X99780000Y-90530000D02*
X100771400Y-89538600D01*
X99780000Y-91322149D02*
X99780000Y-90530000D01*
X99780000Y-91786927D02*
X99780000Y-91322149D01*
X99678400Y-92193327D02*
X99881600Y-92193327D01*
X99780000Y-92880000D02*
X99780000Y-92548927D01*
X99881600Y-91939327D02*
G75*
G02*
X99779973Y-91837727I0J101627D01*
G01*
X99932400Y-92193327D02*
G75*
G03*
X100034027Y-92091727I0J101627D01*
G01*
X99780000Y-92548927D02*
G75*
G03*
X99678400Y-92447300I-101600J27D01*
G01*
X99627600Y-92447327D02*
G75*
G02*
X99525973Y-92345727I0J101627D01*
G01*
X99526000Y-92294927D02*
G75*
G02*
X99627600Y-92193300I101600J27D01*
G01*
X100034000Y-92040927D02*
G75*
G03*
X99932400Y-91939300I-101600J27D01*
G01*
D14*
%TO.N,~{RESET_OUT}*%
X122470000Y-84430000D02*
X122910000Y-83990000D01*
D13*
X119010000Y-105320000D02*
X119010000Y-103410000D01*
D14*
X112830000Y-83580000D02*
X119880000Y-83580000D01*
X120730000Y-84430000D02*
X122470000Y-84430000D01*
D13*
X120470000Y-106780000D02*
X119010000Y-105320000D01*
D14*
X112240000Y-82990000D02*
X112830000Y-83580000D01*
X119880000Y-83580000D02*
X120730000Y-84430000D01*
D13*
%TO.N,ETH_RX_ERR*%
X108000000Y-87750000D02*
X108850000Y-86900000D01*
X108850000Y-86900000D02*
X117970000Y-86900000D01*
X121961369Y-85711369D02*
X122130000Y-85880000D01*
X117970000Y-86900000D02*
X118204900Y-86665100D01*
X119697100Y-86665100D02*
X120650831Y-85711369D01*
D14*
X107982274Y-104428035D02*
X107390000Y-103835761D01*
X107390000Y-103835761D02*
X107390000Y-100634600D01*
D13*
X120650831Y-85711369D02*
X121961369Y-85711369D01*
X118204900Y-86665100D02*
X119697100Y-86665100D01*
D14*
X107390000Y-100634600D02*
X107484600Y-100540000D01*
D13*
%TO.N,DVID_SEL2*%
X124565118Y-98648539D02*
X124437631Y-98776026D01*
X128260000Y-99130000D02*
X127778539Y-98648539D01*
X124437631Y-98776026D02*
X124237690Y-98776026D01*
X127778539Y-98648539D02*
X124565118Y-98648539D01*
D14*
%TO.N,~{DIB1_CSA}*%
X115616783Y-103683473D02*
X115616783Y-104297243D01*
X115616783Y-104297243D02*
X119766142Y-108446602D01*
%TO.N,+VAUX*%
X117221877Y-106682348D02*
X117221877Y-106261547D01*
X117221877Y-106261547D02*
X115228983Y-104268653D01*
X115230000Y-102483783D02*
X114400500Y-101654283D01*
X115230000Y-103521823D02*
X115230000Y-102483783D01*
X115228983Y-104268653D02*
X115228983Y-103522840D01*
X115228983Y-103522840D02*
X115230000Y-103521823D01*
%TO.N,~{TFT_IRQ}*%
X123048433Y-110090000D02*
X122337003Y-110090000D01*
X123990000Y-109148433D02*
X123048433Y-110090000D01*
X122337003Y-110090000D02*
X122301872Y-110054869D01*
X123990000Y-104140000D02*
X123990000Y-109148433D01*
D13*
%TO.N,SDA*%
X113110000Y-85560000D02*
X112280000Y-86390000D01*
X120042300Y-85560000D02*
X113110000Y-85560000D01*
X120348131Y-85254169D02*
X120042300Y-85560000D01*
D14*
X125125037Y-84384963D02*
X125125037Y-84373363D01*
X125125037Y-84373363D02*
X125090186Y-84338512D01*
D13*
X124500000Y-84890000D02*
X124538698Y-84890000D01*
X124500000Y-84890000D02*
X124135831Y-85254169D01*
X124135831Y-85254169D02*
X120348131Y-85254169D01*
%TO.N,SCL*%
X120280931Y-84879069D02*
X119926100Y-85233900D01*
X111638190Y-96865100D02*
X111261600Y-96865100D01*
D14*
X124458781Y-84086210D02*
X124458781Y-84005257D01*
X124458781Y-84005257D02*
X124443324Y-83989800D01*
D13*
X119926100Y-85233900D02*
X112806100Y-85233900D01*
X114598396Y-96700000D02*
X111803290Y-96700000D01*
X112806100Y-85233900D02*
X111720000Y-86320000D01*
X111803290Y-96700000D02*
X111638190Y-96865100D01*
X123947964Y-84879069D02*
X120280931Y-84879069D01*
D14*
%TO.N,RS485_TX_EN{slash}DOUT2*%
X127750000Y-108660000D02*
X126851864Y-109558136D01*
X127750000Y-103662536D02*
X127750000Y-108660000D01*
X126851864Y-109558136D02*
X125511864Y-109558136D01*
X125511864Y-109558136D02*
X123380278Y-111689722D01*
X120347522Y-111689722D02*
X119900000Y-111242200D01*
X123380278Y-111689722D02*
X120347522Y-111689722D01*
X127776029Y-103636507D02*
X127750000Y-103662536D01*
%TO.N,~{DIB5_CSA}*%
X117152839Y-103307160D02*
X117568475Y-103722796D01*
X122590000Y-108689563D02*
X122780000Y-108879563D01*
X123449563Y-108879563D02*
X123570000Y-109000000D01*
X122780000Y-108879563D02*
X123449563Y-108879563D01*
X119660000Y-107230000D02*
X121810000Y-107230000D01*
X117568475Y-105138475D02*
X119660000Y-107230000D01*
X121810000Y-107230000D02*
X122590000Y-108010000D01*
X122590000Y-108010000D02*
X122590000Y-108689563D01*
X117568475Y-103722796D02*
X117568475Y-105138475D01*
D13*
%TO.N,XSPIM_P1_IO10*%
X124221568Y-92211568D02*
X124101835Y-92091835D01*
X135050369Y-97500000D02*
X132502821Y-97500000D01*
X122753117Y-92091835D02*
X122448859Y-91787577D01*
X127708116Y-92550289D02*
X127560827Y-92403000D01*
X132502821Y-97500000D02*
X131960000Y-96957179D01*
X132206450Y-95505978D02*
X131885372Y-95184900D01*
X127560827Y-92403000D02*
X126297340Y-92403000D01*
X124101835Y-92091835D02*
X122753117Y-92091835D01*
X131674900Y-95184900D02*
X129040289Y-92550289D01*
X126297340Y-92403000D02*
X126105908Y-92211568D01*
X126105908Y-92211568D02*
X124221568Y-92211568D01*
X132206450Y-95948223D02*
X132206450Y-95505978D01*
X135109086Y-97558717D02*
X135050369Y-97500000D01*
X129040289Y-92550289D02*
X127708116Y-92550289D01*
X131960000Y-96194673D02*
X132206450Y-95948223D01*
X131885372Y-95184900D02*
X131674900Y-95184900D01*
X131960000Y-96957179D02*
X131960000Y-96194673D01*
D14*
%TO.N,~{DIB2_CSA}*%
X117099961Y-109430433D02*
X117109021Y-109439493D01*
X117099961Y-107168331D02*
X117099961Y-109430433D01*
X116601990Y-106670360D02*
X117099961Y-107168331D01*
D13*
%TO.N,SDMMC_D0*%
X99692756Y-89551715D02*
X99728677Y-89587636D01*
X100411182Y-88833289D02*
X100518945Y-88941052D01*
X100985921Y-88833292D02*
X100950001Y-88869213D01*
X100949999Y-88653686D02*
X100985921Y-88689608D01*
X100339339Y-89120661D02*
X100231575Y-89012897D01*
X100698552Y-88761448D02*
X100590788Y-88653684D01*
X99728678Y-89372110D02*
X99692756Y-89408031D01*
X100051969Y-89192502D02*
X100159732Y-89300265D01*
X100339341Y-89120662D02*
X100339339Y-89120661D01*
X100087891Y-89587638D02*
X99980128Y-89479875D01*
X100267497Y-89551715D02*
X100231575Y-89587638D01*
X114040000Y-88900000D02*
X113650000Y-88510000D01*
X100626710Y-89192502D02*
X100590788Y-89228425D01*
X99436533Y-90023467D02*
X99224100Y-90023467D01*
X99520000Y-89940000D02*
X99436533Y-90023467D01*
X100447104Y-88653684D02*
X100411182Y-88689605D01*
X99980128Y-89479875D02*
X99908283Y-89408031D01*
X100770396Y-88833292D02*
X100698552Y-88761448D01*
X115158164Y-88900000D02*
X114040000Y-88900000D01*
X113650000Y-88510000D02*
X101060000Y-88510000D01*
X99692757Y-89767242D02*
X99520000Y-89940000D01*
X100447104Y-89228425D02*
X100339341Y-89120662D01*
X100159732Y-89300265D02*
X100159733Y-89300267D01*
X99728677Y-89731320D02*
X99692757Y-89767242D01*
X100518946Y-88941054D02*
X100626710Y-89048818D01*
X99908283Y-89408031D02*
X99872362Y-89372110D01*
X100806317Y-88869213D02*
X100770396Y-88833292D01*
X115379863Y-88678301D02*
X115158164Y-88900000D01*
X100518945Y-88941052D02*
X100518946Y-88941054D01*
X100159733Y-89300267D02*
X100267497Y-89408031D01*
X101060000Y-88510000D02*
X100950000Y-88510000D01*
X100087891Y-89012897D02*
X100051969Y-89048818D01*
X100267497Y-89408031D02*
G75*
G02*
X100267524Y-89551742I-71797J-71869D01*
G01*
X99692756Y-89408031D02*
G75*
G03*
X99692729Y-89551742I71844J-71869D01*
G01*
X100411182Y-88689605D02*
G75*
G03*
X100411229Y-88833242I71818J-71795D01*
G01*
X100950001Y-88869213D02*
G75*
G02*
X100806317Y-88869213I-71842J71842D01*
G01*
X100985921Y-88689608D02*
G75*
G02*
X100985971Y-88833342I-71821J-71892D01*
G01*
X100231575Y-89012897D02*
G75*
G03*
X100087891Y-89012897I-71842J-71842D01*
G01*
X99872362Y-89372110D02*
G75*
G03*
X99728678Y-89372110I-71842J-71842D01*
G01*
X100626710Y-89048818D02*
G75*
G02*
X100626750Y-89192542I-71810J-71882D01*
G01*
X100950000Y-88510000D02*
G75*
G03*
X100950042Y-88653642I71800J-71800D01*
G01*
X99728677Y-89587636D02*
G75*
G02*
X99728699Y-89731342I-71877J-71864D01*
G01*
X100590788Y-89228425D02*
G75*
G02*
X100447104Y-89228425I-71842J71842D01*
G01*
X100051969Y-89048818D02*
G75*
G03*
X100051929Y-89192542I71831J-71882D01*
G01*
X100231575Y-89587638D02*
G75*
G02*
X100087891Y-89587638I-71842J71842D01*
G01*
X100590788Y-88653684D02*
G75*
G03*
X100447104Y-88653684I-71842J-71842D01*
G01*
%TO.N,~{DIB4_CSA}*%
X125799606Y-97405060D02*
X125812569Y-97392097D01*
X122218114Y-96668114D02*
X122604900Y-97054900D01*
X120241886Y-96668114D02*
X122218114Y-96668114D01*
X119371139Y-96928389D02*
X119981611Y-96928389D01*
X122604900Y-97054900D02*
X123934900Y-97054900D01*
X123934900Y-97054900D02*
X124285060Y-97405060D01*
X119981611Y-96928389D02*
X120241886Y-96668114D01*
X124285060Y-97405060D02*
X125799606Y-97405060D01*
%TO.N,XSPIM_P1_IO5*%
X126906500Y-94146500D02*
X127744000Y-94984000D01*
X131110000Y-97952038D02*
X131110000Y-98190000D01*
X128141962Y-94984000D02*
X131110000Y-97952038D01*
X126537965Y-94146500D02*
X126906500Y-94146500D01*
X127744000Y-94984000D02*
X128141962Y-94984000D01*
%TO.N,~{DIB1_IRQ}*%
X124410000Y-106026600D02*
X124430000Y-106046600D01*
X124410000Y-103850000D02*
X124410000Y-106026600D01*
X124660000Y-103600000D02*
X124410000Y-103850000D01*
%TO.N,SDMMC_CLK*%
X115371345Y-91904983D02*
X114911041Y-91444679D01*
X115478477Y-91904983D02*
X115371345Y-91904983D01*
X114025321Y-91444679D02*
X113650000Y-91820000D01*
X114911041Y-91444679D02*
X114025321Y-91444679D01*
X113650000Y-91820000D02*
X113647550Y-91817550D01*
X113647550Y-91817550D02*
X106637550Y-91817550D01*
D14*
%TO.N,~{ETH_LINK_ACT}*%
X115340000Y-109550000D02*
X115859833Y-109550000D01*
X114480000Y-110410000D02*
X110717738Y-110410000D01*
X115859833Y-109550000D02*
X115957225Y-109647392D01*
X110717738Y-110410000D02*
X110333795Y-110026057D01*
X114480000Y-110410000D02*
X115340000Y-109550000D01*
X115957225Y-109647392D02*
X115957225Y-109701400D01*
D13*
%TO.N,~{ETH_LINK100}*%
X112880000Y-110890000D02*
X112850000Y-110860000D01*
X110430000Y-110890000D02*
X110020000Y-111300000D01*
X112880000Y-110890000D02*
X110430000Y-110890000D01*
%TO.N,XSPIM_P1_IO2*%
X131190000Y-98900000D02*
X131180000Y-98900000D01*
X123891226Y-93796200D02*
X123050578Y-93796200D01*
X126020369Y-94540000D02*
X124635026Y-94540000D01*
X127012319Y-94670000D02*
X126150369Y-94670000D01*
X130556306Y-97757554D02*
X128036752Y-95238000D01*
X126150369Y-94670000D02*
X126020369Y-94540000D01*
X128036752Y-95238000D02*
X127580319Y-95238000D01*
X131180000Y-98900000D02*
X130556306Y-98276306D01*
X130556306Y-98276306D02*
X130556306Y-97757554D01*
X123050578Y-93796200D02*
X123030549Y-93776171D01*
X124635026Y-94540000D02*
X123891226Y-93796200D01*
X131270000Y-98820000D02*
X131190000Y-98900000D01*
X127580319Y-95238000D02*
X127012319Y-94670000D01*
%TO.N,XSPIM_P1_IO0*%
X123968729Y-92507236D02*
X124579193Y-93117700D01*
X125452851Y-93215800D02*
X127155800Y-93215800D01*
X125354752Y-93117700D02*
X125452851Y-93215800D01*
X128538781Y-93860000D02*
X130241382Y-95562601D01*
X127800000Y-93860000D02*
X128538781Y-93860000D01*
X123968729Y-92504340D02*
X123968729Y-92507236D01*
X124579193Y-93117700D02*
X125354752Y-93117700D01*
X127155800Y-93215800D02*
X127800000Y-93860000D01*
X130241382Y-95562601D02*
X130241382Y-95794988D01*
%TO.N,XSPIM_P1_IO12*%
X123350000Y-96394213D02*
X123350000Y-96324213D01*
X135218170Y-101937354D02*
X135182248Y-101901432D01*
X130478835Y-101512553D02*
X130442917Y-101476634D01*
X123645921Y-96394213D02*
X123350000Y-96394213D01*
X130658442Y-101835844D02*
X130622521Y-101871766D01*
X135541460Y-101757750D02*
X135577381Y-101721828D01*
X123849409Y-96597701D02*
X123645921Y-96394213D01*
X135182248Y-101757748D02*
X135218170Y-101721828D01*
X135577381Y-101362618D02*
X135700000Y-101240000D01*
X126062630Y-96788397D02*
X125562507Y-96788397D01*
X134480000Y-102296000D02*
X134644000Y-102296000D01*
X135182249Y-102116960D02*
X135218170Y-102081038D01*
X135361855Y-101721829D02*
X135397776Y-101757750D01*
X130442917Y-101476634D02*
X130243141Y-101276858D01*
X130106253Y-101141384D02*
X128723700Y-99758831D01*
X131017653Y-102195055D02*
X130981732Y-102230977D01*
X130838048Y-102230977D02*
X130802126Y-102195055D01*
X134644000Y-102296000D02*
X134858960Y-102081039D01*
X130442915Y-101692160D02*
X130478835Y-101656237D01*
X128723700Y-99758831D02*
X128723700Y-98410000D01*
X135577381Y-101578144D02*
X135541459Y-101542222D01*
X125562507Y-96788397D02*
X125403044Y-96947860D01*
X134480000Y-102296000D02*
X131262283Y-102296000D01*
X130107667Y-101141384D02*
X130106253Y-101141384D01*
X130243141Y-101276858D02*
X130107667Y-101141384D01*
X135002644Y-102081039D02*
X135038565Y-102116960D01*
X135218170Y-101721828D02*
X135218171Y-101721829D01*
X125403044Y-96947860D02*
X124474439Y-96947860D01*
X124124278Y-96597700D02*
X123849409Y-96597701D01*
X126292233Y-97018000D02*
X126062630Y-96788397D01*
X130802126Y-102051371D02*
X130838046Y-102015448D01*
X131262283Y-102296000D02*
X131161339Y-102195056D01*
X127331701Y-97018000D02*
X126292233Y-97018000D01*
X130478837Y-101871766D02*
X130442915Y-101835844D01*
X124474439Y-96947860D02*
X124124278Y-96597700D01*
X135541459Y-101398538D02*
X135577381Y-101362618D01*
X130838046Y-101871764D02*
X130802128Y-101835845D01*
X128723700Y-98410000D02*
X127331701Y-97018000D01*
X130981732Y-102230977D02*
G75*
G02*
X130838048Y-102230977I-71842J71842D01*
G01*
X135541459Y-101542222D02*
G75*
G02*
X135541479Y-101398558I71841J71822D01*
G01*
X130478835Y-101656237D02*
G75*
G03*
X130478830Y-101512558I-71835J71837D01*
G01*
X130442915Y-101835844D02*
G75*
G02*
X130442913Y-101692158I71885J71844D01*
G01*
X135218171Y-101721829D02*
G75*
G02*
X135361855Y-101721829I71842J-71842D01*
G01*
X130838046Y-102015448D02*
G75*
G03*
X130838052Y-101871758I-71846J71848D01*
G01*
X130802128Y-101835845D02*
G75*
G03*
X130658457Y-101835859I-71828J-71855D01*
G01*
X135038565Y-102116960D02*
G75*
G03*
X135182249Y-102116960I71842J71842D01*
G01*
X135218170Y-102081038D02*
G75*
G03*
X135218166Y-101937358I-71870J71838D01*
G01*
X135577381Y-101721828D02*
G75*
G03*
X135577367Y-101578158I-71881J71828D01*
G01*
X130622521Y-101871766D02*
G75*
G02*
X130478837Y-101871766I-71842J71842D01*
G01*
X134858960Y-102081039D02*
G75*
G02*
X135002644Y-102081039I71842J-71842D01*
G01*
X135397776Y-101757750D02*
G75*
G03*
X135541460Y-101757750I71842J71842D01*
G01*
X131161339Y-102195056D02*
G75*
G03*
X131017658Y-102195059I-71839J-71844D01*
G01*
X130802126Y-102195055D02*
G75*
G02*
X130802113Y-102051358I71874J71855D01*
G01*
X135182248Y-101901432D02*
G75*
G02*
X135182258Y-101757758I71852J71832D01*
G01*
%TO.N,XSPI_M_P1_CLK*%
X133953200Y-98224000D02*
X134004000Y-98224000D01*
X132192830Y-97732830D02*
X132430000Y-97970000D01*
X131361050Y-96021600D02*
X131361850Y-96021600D01*
X134258000Y-97970000D02*
X134510000Y-97970000D01*
X131005450Y-96377200D02*
X131005450Y-96428000D01*
X133089600Y-98071600D02*
X133089600Y-97970000D01*
X129020233Y-93951023D02*
X129020234Y-93969798D01*
X129020234Y-93969798D02*
X130463980Y-95413544D01*
X133597600Y-98122400D02*
X133597600Y-97970000D01*
X133089600Y-98072400D02*
X133089600Y-98071600D01*
X128336467Y-93580000D02*
X128649210Y-93580000D01*
X133445200Y-98224000D02*
X133496000Y-98224000D01*
X131361850Y-96275600D02*
X131361050Y-96275600D01*
X133851600Y-98071600D02*
X133851600Y-98122400D01*
X131259450Y-96631200D02*
X131259450Y-96682000D01*
X131361050Y-96275600D02*
X131157850Y-96275600D01*
X133597600Y-97970000D02*
X133597600Y-97867600D01*
X127984243Y-93580000D02*
X128336467Y-93580000D01*
X133089600Y-97970000D02*
X133089600Y-97867600D01*
X133343600Y-97970000D02*
X133343600Y-98122400D01*
X133699200Y-97766000D02*
X133750000Y-97766000D01*
X134207200Y-97970000D02*
X134258000Y-97970000D01*
X133343600Y-97867600D02*
X133343600Y-97970000D01*
X134510000Y-97970000D02*
X134535000Y-97945000D01*
X131157850Y-96275600D02*
X131107050Y-96275600D01*
X132122119Y-97662118D02*
X132192830Y-97732830D01*
X131107050Y-96529600D02*
X131157850Y-96529600D01*
X132835600Y-98071600D02*
X132835600Y-98072400D01*
X127984243Y-93580000D02*
X127315243Y-92911000D01*
X133851600Y-97867600D02*
X133851600Y-97970000D01*
X133191200Y-97766000D02*
X133242000Y-97766000D01*
X131259450Y-96682000D02*
X131259450Y-96799450D01*
X133851600Y-97970000D02*
X133851600Y-98071600D01*
X131259450Y-96799450D02*
X131474410Y-97014410D01*
X131474410Y-97232198D02*
X131545120Y-97302908D01*
X134510000Y-97970000D02*
X134535000Y-97945000D01*
X128649210Y-93580000D02*
X129020233Y-93951023D01*
X132937200Y-98174000D02*
X132988000Y-98174000D01*
X131833620Y-97591408D02*
X131904330Y-97662118D01*
X127315243Y-92911000D02*
X125758015Y-92911000D01*
X130752994Y-95413544D02*
X131259450Y-95920000D01*
X130463980Y-95413544D02*
X130752994Y-95413544D01*
X132430000Y-97970000D02*
X132734000Y-97970000D01*
X131762909Y-97302908D02*
X131833620Y-97373620D01*
X125758015Y-92911000D02*
X125687715Y-92840700D01*
X134105600Y-98122400D02*
X134105600Y-98071600D01*
X131463450Y-96123200D02*
X131463450Y-96174000D01*
X132835600Y-98072400D02*
G75*
G03*
X132937200Y-98174000I101600J0D01*
G01*
X134004000Y-98224000D02*
G75*
G03*
X134105600Y-98122400I0J101600D01*
G01*
X133496000Y-98224000D02*
G75*
G03*
X133597600Y-98122400I0J101600D01*
G01*
X131545120Y-97302908D02*
G75*
G03*
X131654015Y-97302909I54448J54451D01*
G01*
X131654015Y-97302908D02*
G75*
G02*
X131762909Y-97302908I54447J-54446D01*
G01*
X131157850Y-96529600D02*
G75*
G02*
X131259400Y-96631200I-50J-101600D01*
G01*
X132988000Y-98174000D02*
G75*
G03*
X133089600Y-98072400I0J101600D01*
G01*
X132734000Y-97970000D02*
G75*
G02*
X132835600Y-98071600I0J-101600D01*
G01*
X133597600Y-97867600D02*
G75*
G02*
X133699200Y-97766000I101600J0D01*
G01*
X131474410Y-97014410D02*
G75*
G02*
X131474453Y-97123347I-54410J-54490D01*
G01*
X134105600Y-98071600D02*
G75*
G02*
X134207200Y-97970000I101600J0D01*
G01*
X132013225Y-97662118D02*
G75*
G02*
X132122119Y-97662118I54447J-54446D01*
G01*
X131474410Y-97123304D02*
G75*
G03*
X131474361Y-97232247I54490J-54496D01*
G01*
X131107050Y-96275600D02*
G75*
G03*
X131005500Y-96377200I50J-101600D01*
G01*
X131833620Y-97482514D02*
G75*
G03*
X131833581Y-97591447I54480J-54486D01*
G01*
X133343600Y-98122400D02*
G75*
G03*
X133445200Y-98224000I101600J0D01*
G01*
X131259450Y-95920000D02*
G75*
G03*
X131361050Y-96021650I101650J0D01*
G01*
X133750000Y-97766000D02*
G75*
G02*
X133851600Y-97867600I0J-101600D01*
G01*
X133851600Y-98122400D02*
G75*
G03*
X133953200Y-98224000I101600J0D01*
G01*
X133242000Y-97766000D02*
G75*
G02*
X133343600Y-97867600I0J-101600D01*
G01*
X131904330Y-97662118D02*
G75*
G03*
X132013225Y-97662119I54448J54451D01*
G01*
X131005450Y-96428000D02*
G75*
G03*
X131107050Y-96529650I101650J0D01*
G01*
X131463450Y-96174000D02*
G75*
G02*
X131361850Y-96275650I-101650J0D01*
G01*
X133089600Y-97867600D02*
G75*
G02*
X133191200Y-97766000I101600J0D01*
G01*
X131361850Y-96021600D02*
G75*
G02*
X131463400Y-96123200I-50J-101600D01*
G01*
X131833620Y-97373620D02*
G75*
G02*
X131833653Y-97482547I-54420J-54480D01*
G01*
%TO.N,XSPIM_P1_IO9*%
X130163684Y-90980000D02*
X130199606Y-90944079D01*
X131169466Y-92129466D02*
X131277228Y-92021701D01*
X131277227Y-92380912D02*
X131276662Y-92381477D01*
X130630654Y-91590654D02*
X130558246Y-91663061D01*
X130917454Y-92165953D02*
X130953375Y-92201874D01*
X130343290Y-90944079D02*
X130379211Y-90980000D01*
X130738419Y-91482892D02*
X130630654Y-91590654D01*
X130020000Y-90980000D02*
X129884000Y-90844000D01*
X130702498Y-91303287D02*
X130738419Y-91339208D01*
X130989862Y-91949862D02*
X130917454Y-92022269D01*
X134850000Y-95810000D02*
X134850000Y-96420000D01*
X131061706Y-91662495D02*
X131097627Y-91698416D01*
X131456835Y-92201308D02*
X131349070Y-92309070D01*
X130199038Y-91447537D02*
X130234959Y-91483458D01*
X131349070Y-92309070D02*
X131277227Y-92380912D01*
X131420914Y-92021703D02*
X131456835Y-92057624D01*
X130379211Y-91123684D02*
X130343288Y-91159604D01*
X130378643Y-91483458D02*
X130451050Y-91411050D01*
X131600516Y-92560516D02*
X131636438Y-92596438D01*
X131097059Y-92201874D02*
X131169466Y-92129466D01*
X130271446Y-91231446D02*
X130199038Y-91303853D01*
X130810258Y-91770258D02*
X130918020Y-91662493D01*
X127429890Y-90694000D02*
X126956390Y-91167500D01*
X131636438Y-92596438D02*
X131729403Y-92689403D01*
X130343288Y-91159604D02*
X130271446Y-91231446D01*
X131097627Y-91842100D02*
X130989862Y-91949862D01*
X129884000Y-90844000D02*
X127877551Y-90844000D01*
X131456267Y-92561082D02*
X131456832Y-92560516D01*
X130451050Y-91411050D02*
X130558812Y-91303285D01*
X131276662Y-92525161D02*
X131312583Y-92561082D01*
X127727551Y-90694000D02*
X127429890Y-90694000D01*
X130737851Y-91842666D02*
X130810258Y-91770258D01*
X127877551Y-90844000D02*
X127727551Y-90694000D01*
X131729403Y-92689403D02*
X134850000Y-95810000D01*
X130558246Y-91806745D02*
X130594167Y-91842666D01*
X130594167Y-91842666D02*
G75*
G03*
X130737851Y-91842666I71842J71842D01*
G01*
X130379211Y-90980000D02*
G75*
G02*
X130379169Y-91123642I-71811J-71800D01*
G01*
X130558812Y-91303285D02*
G75*
G02*
X130702544Y-91303241I71888J-71815D01*
G01*
X130738419Y-91339208D02*
G75*
G02*
X130738469Y-91482942I-71819J-71892D01*
G01*
X130953375Y-92201874D02*
G75*
G03*
X131097059Y-92201874I71842J71842D01*
G01*
X130918020Y-91662493D02*
G75*
G02*
X131061744Y-91662457I71880J-71807D01*
G01*
X131277228Y-92021701D02*
G75*
G02*
X131420944Y-92021673I71872J-71799D01*
G01*
X130234959Y-91483458D02*
G75*
G03*
X130378643Y-91483458I71842J71842D01*
G01*
X130917454Y-92022269D02*
G75*
G03*
X130917465Y-92165942I71846J-71831D01*
G01*
X131276662Y-92381477D02*
G75*
G03*
X131276681Y-92525142I71838J-71823D01*
G01*
X130020000Y-90980000D02*
G75*
G03*
X130163684Y-90980000I71842J71842D01*
G01*
X130199606Y-90944079D02*
G75*
G02*
X130343290Y-90944079I71842J-71842D01*
G01*
X130199038Y-91303853D02*
G75*
G03*
X130199033Y-91447542I71862J-71847D01*
G01*
X130558246Y-91663061D02*
G75*
G03*
X130558249Y-91806742I71854J-71839D01*
G01*
X131312583Y-92561082D02*
G75*
G03*
X131456267Y-92561082I71842J71842D01*
G01*
X131456835Y-92057624D02*
G75*
G02*
X131456869Y-92201342I-71835J-71876D01*
G01*
X131456832Y-92560516D02*
G75*
G02*
X131600516Y-92560516I71842J-71842D01*
G01*
X131097627Y-91698416D02*
G75*
G02*
X131097669Y-91842142I-71827J-71884D01*
G01*
%TO.N,XSPIM_P1_IO13*%
X130048306Y-97997853D02*
X127796453Y-95746000D01*
X130048306Y-98565211D02*
X130048306Y-97997853D01*
X127176472Y-95746000D02*
X126940236Y-95509764D01*
X134410000Y-100390000D02*
X132333426Y-100390000D01*
X127796453Y-95746000D02*
X127176472Y-95746000D01*
X132333426Y-100390000D02*
X131547226Y-99603800D01*
X134550000Y-100250000D02*
X134410000Y-100390000D01*
X131547226Y-99603800D02*
X131086895Y-99603800D01*
X131086895Y-99603800D02*
X130048306Y-98565211D01*
%TO.N,XSPIM_P1_IO14*%
X129597330Y-99688778D02*
X129633252Y-99652857D01*
X126437979Y-96510000D02*
X127468389Y-96510000D01*
X131629600Y-101656400D02*
X131629600Y-101605600D01*
X130674960Y-100766408D02*
X130710882Y-100730487D01*
X131249696Y-101484828D02*
X131444868Y-101680000D01*
D14*
X123030000Y-95510000D02*
X122920000Y-95400000D01*
D13*
X130136144Y-100371276D02*
X130172066Y-100407198D01*
X134473500Y-101370000D02*
X134566750Y-101276750D01*
X133170000Y-101370000D02*
X134473500Y-101370000D01*
X132239200Y-101554000D02*
X132290000Y-101554000D01*
X131213776Y-101089697D02*
X131249697Y-101125618D01*
X130315750Y-100407198D02*
X130351672Y-100371277D01*
X130495356Y-100371277D02*
X130531277Y-100407198D01*
X129956540Y-100047988D02*
X129992462Y-100012067D01*
X129776936Y-99652857D02*
X129812857Y-99688778D01*
X129812857Y-99832462D02*
X129776934Y-99868382D01*
X129286306Y-99521438D02*
X129453646Y-99688778D01*
X127495680Y-96535400D02*
X129284306Y-98324027D01*
X127468389Y-96510000D02*
X127493789Y-96535400D01*
X132137600Y-101656400D02*
X132137600Y-101655600D01*
X129284306Y-98324027D02*
X129284306Y-98916344D01*
X131444868Y-101680000D02*
X131450000Y-101680000D01*
X133115158Y-101370000D02*
X133170000Y-101370000D01*
X131249697Y-101269302D02*
X131213774Y-101305222D01*
X129284306Y-98916344D02*
X129286306Y-98918344D01*
X131985200Y-101758000D02*
X132036000Y-101758000D01*
X131034170Y-101125618D02*
X131070092Y-101089697D01*
X130495354Y-100730486D02*
X130531276Y-100766408D01*
X132727158Y-101758000D02*
X132942118Y-101543039D01*
X130172067Y-100191672D02*
X130136144Y-100227592D01*
X123290000Y-95510000D02*
X123630091Y-95850091D01*
X132942118Y-101543039D02*
X133115158Y-101370000D01*
X131450000Y-101680000D02*
X131528000Y-101758000D01*
X130854564Y-101089696D02*
X130890486Y-101125618D01*
X130890487Y-100910092D02*
X130854564Y-100946012D01*
X131213774Y-101448906D02*
X131249696Y-101484828D01*
X130136146Y-100012067D02*
X130172067Y-100047988D01*
X129286306Y-98918344D02*
X129286306Y-99521438D01*
X130531277Y-100550882D02*
X130495354Y-100586802D01*
X132493200Y-101758000D02*
X132544000Y-101758000D01*
X127493789Y-96535400D02*
X127495680Y-96535400D01*
X129776934Y-100012066D02*
X129812856Y-100047988D01*
X123630091Y-95850091D02*
X125778070Y-95850091D01*
X131731200Y-101504000D02*
X131782000Y-101504000D01*
X131883600Y-101605600D02*
X131883600Y-101656400D01*
X130854566Y-100730487D02*
X130890487Y-100766408D01*
X132391600Y-101655600D02*
X132391600Y-101656400D01*
X132544000Y-101758000D02*
X132727158Y-101758000D01*
X125778070Y-95850091D02*
X126437979Y-96510000D01*
D14*
X123290000Y-95510000D02*
X123030000Y-95510000D01*
D13*
X132036000Y-101758000D02*
G75*
G03*
X132137600Y-101656400I0J101600D01*
G01*
X130495354Y-100586802D02*
G75*
G03*
X130495398Y-100730442I71846J-71798D01*
G01*
X131070092Y-101089697D02*
G75*
G02*
X131213776Y-101089697I71842J-71842D01*
G01*
X129453646Y-99688778D02*
G75*
G03*
X129597330Y-99688778I71842J71842D01*
G01*
X131528000Y-101758000D02*
G75*
G03*
X131629600Y-101656400I0J101600D01*
G01*
X131213774Y-101305222D02*
G75*
G03*
X131213738Y-101448942I71826J-71878D01*
G01*
X130172066Y-100407198D02*
G75*
G03*
X130315750Y-100407198I71842J71842D01*
G01*
X130136144Y-100227592D02*
G75*
G03*
X130136178Y-100371242I71856J-71808D01*
G01*
X132290000Y-101554000D02*
G75*
G02*
X132391600Y-101655600I0J-101600D01*
G01*
X131249697Y-101125618D02*
G75*
G02*
X131249737Y-101269342I-71797J-71882D01*
G01*
X131782000Y-101504000D02*
G75*
G02*
X131883600Y-101605600I0J-101600D01*
G01*
X130854564Y-100946012D02*
G75*
G03*
X130854518Y-101089742I71836J-71888D01*
G01*
X132137600Y-101655600D02*
G75*
G02*
X132239200Y-101554000I101600J0D01*
G01*
X130710882Y-100730487D02*
G75*
G02*
X130854566Y-100730487I71842J-71842D01*
G01*
X132391600Y-101656400D02*
G75*
G03*
X132493200Y-101758000I101600J0D01*
G01*
X129776934Y-99868382D02*
G75*
G03*
X129776958Y-100012042I71866J-71818D01*
G01*
X130890487Y-100766408D02*
G75*
G02*
X130890537Y-100910142I-71887J-71892D01*
G01*
X130890486Y-101125618D02*
G75*
G03*
X131034170Y-101125618I71842J71842D01*
G01*
X131629600Y-101605600D02*
G75*
G02*
X131731200Y-101504000I101600J0D01*
G01*
X129812857Y-99688778D02*
G75*
G02*
X129812837Y-99832442I-71857J-71822D01*
G01*
X130531277Y-100407198D02*
G75*
G02*
X130531237Y-100550842I-71877J-71802D01*
G01*
X130351672Y-100371277D02*
G75*
G02*
X130495356Y-100371277I71842J-71842D01*
G01*
X130531276Y-100766408D02*
G75*
G03*
X130674960Y-100766408I71842J71842D01*
G01*
X130172067Y-100047988D02*
G75*
G02*
X130172037Y-100191642I-71867J-71812D01*
G01*
X129992462Y-100012067D02*
G75*
G02*
X130136146Y-100012067I71842J-71842D01*
G01*
X129633252Y-99652857D02*
G75*
G02*
X129776936Y-99652857I71842J-71842D01*
G01*
X129812856Y-100047988D02*
G75*
G03*
X129956540Y-100047988I71842J71842D01*
G01*
X131883600Y-101656400D02*
G75*
G03*
X131985200Y-101758000I101600J0D01*
G01*
%TO.N,XSPIM_P1_IO15*%
X130643768Y-99554558D02*
X130679690Y-99590480D01*
X133254241Y-100851800D02*
X133254241Y-100750200D01*
X126900000Y-96000000D02*
X127691243Y-96000000D01*
X132847841Y-100647800D02*
X132898641Y-100647800D01*
X133101841Y-101105800D02*
X133152641Y-101105800D01*
X132593841Y-101055800D02*
X132644641Y-101055800D01*
X131382500Y-100612500D02*
X132151341Y-100612500D01*
X133778880Y-100851800D02*
X134088200Y-100851800D01*
X130935110Y-100453609D02*
X130971031Y-100489530D01*
X130935676Y-100309360D02*
X130935110Y-100309925D01*
X134088200Y-100851800D02*
X134150000Y-100790000D01*
X133000241Y-100851800D02*
X133000241Y-101004200D01*
X130464163Y-99590480D02*
X130500084Y-99554558D01*
X130320480Y-99374954D02*
X130284558Y-99410875D01*
X132746241Y-100851800D02*
X132746241Y-100749400D01*
X125670000Y-94770000D02*
X126900000Y-96000000D01*
X124146329Y-94770000D02*
X125670000Y-94770000D01*
X133355841Y-100647800D02*
X133406641Y-100647800D01*
X124100000Y-94780000D02*
X124136329Y-94780000D01*
X130679690Y-99590480D02*
X130935676Y-99846466D01*
X133609841Y-100851800D02*
X133660641Y-100851800D01*
X133000241Y-100749400D02*
X133000241Y-100851800D01*
X132492241Y-100953400D02*
X132492241Y-100954200D01*
X133254241Y-100750200D02*
X133254241Y-100749400D01*
X129794306Y-98103063D02*
X129794306Y-98705096D01*
X132304421Y-100765580D02*
X132379266Y-100840425D01*
X130935676Y-100150466D02*
X130935676Y-100165676D01*
X132746241Y-100953400D02*
X132746241Y-100851800D01*
X131294886Y-100524886D02*
X131382500Y-100612500D01*
X131258964Y-100488964D02*
X131294886Y-100524886D01*
X127691243Y-96000000D02*
X129794306Y-98103063D01*
X130284558Y-99554559D02*
X130320479Y-99590480D01*
X133508241Y-100749400D02*
X133508241Y-100750200D01*
X132151341Y-100612500D02*
X132304421Y-100765580D01*
X132746241Y-100954200D02*
X132746241Y-100953400D01*
X129794306Y-98705096D02*
X130320480Y-99231270D01*
X130935676Y-99846466D02*
X130935676Y-100150466D01*
X133254241Y-101004200D02*
X133254241Y-100851800D01*
X132379266Y-100840425D02*
X132390641Y-100851800D01*
X133660641Y-100851800D02*
X133778880Y-100851800D01*
X124136329Y-94780000D02*
X124146329Y-94770000D01*
X131114715Y-100489530D02*
X131115280Y-100488964D01*
X131115280Y-100488964D02*
G75*
G02*
X131258964Y-100488964I71842J-71842D01*
G01*
X133152641Y-101105800D02*
G75*
G03*
X133254200Y-101004200I-41J101600D01*
G01*
X130971031Y-100489530D02*
G75*
G03*
X131114715Y-100489530I71842J71842D01*
G01*
X132492241Y-100954200D02*
G75*
G03*
X132593841Y-101055759I101559J0D01*
G01*
X130935676Y-100165676D02*
G75*
G02*
X130935658Y-100309342I-71876J-71824D01*
G01*
X132898641Y-100647800D02*
G75*
G02*
X133000200Y-100749400I-41J-101600D01*
G01*
X130500084Y-99554558D02*
G75*
G02*
X130643768Y-99554558I71842J-71842D01*
G01*
X130320480Y-99231270D02*
G75*
G02*
X130320468Y-99374942I-71880J-71830D01*
G01*
X130320479Y-99590480D02*
G75*
G03*
X130464163Y-99590480I71842J71842D01*
G01*
X130935110Y-100309925D02*
G75*
G03*
X130935077Y-100453642I71890J-71875D01*
G01*
X133254241Y-100749400D02*
G75*
G02*
X133355841Y-100647841I101559J0D01*
G01*
X132390641Y-100851800D02*
G75*
G02*
X132492200Y-100953400I-41J-101600D01*
G01*
X130284558Y-99410875D02*
G75*
G03*
X130284575Y-99554542I71842J-71825D01*
G01*
X132644641Y-101055800D02*
G75*
G03*
X132746200Y-100954200I-41J101600D01*
G01*
X132746241Y-100749400D02*
G75*
G02*
X132847841Y-100647841I101559J0D01*
G01*
X133508241Y-100750200D02*
G75*
G03*
X133609841Y-100851759I101559J0D01*
G01*
X133406641Y-100647800D02*
G75*
G02*
X133508200Y-100749400I-41J-101600D01*
G01*
X133000241Y-101004200D02*
G75*
G03*
X133101841Y-101105759I101559J0D01*
G01*
%TO.N,DVID_SEL1*%
X130800000Y-85590000D02*
X130970000Y-85420000D01*
X124810000Y-99880000D02*
X124254443Y-99880000D01*
X129048136Y-101390000D02*
X128970472Y-101312336D01*
X125260000Y-100330000D02*
X124810000Y-99880000D01*
X127970000Y-100330000D02*
X125260000Y-100330000D01*
D14*
X130970000Y-83996230D02*
X130952182Y-83978412D01*
D13*
X130970000Y-85420000D02*
X130970000Y-83996230D01*
X128952336Y-101312336D02*
X127970000Y-100330000D01*
X124254443Y-99880000D02*
X124229343Y-99905100D01*
X128970472Y-101312336D02*
X128952336Y-101312336D01*
X124229343Y-99905100D02*
X124218391Y-99905100D01*
%TO.N,XSPIM_P1_IO4*%
X127583433Y-96256000D02*
X129538306Y-98210873D01*
X125456841Y-95150906D02*
X125456841Y-95156841D01*
X129538306Y-98988306D02*
X129740000Y-99190000D01*
X126556000Y-96256000D02*
X127583433Y-96256000D01*
X129538306Y-98210873D02*
X129538306Y-98988306D01*
X125456841Y-95156841D02*
X126556000Y-96256000D01*
%TO.N,XSPIM_P1_IO8*%
X133844787Y-95564315D02*
X133844787Y-95694047D01*
D14*
X124313434Y-91004861D02*
X124313434Y-91123500D01*
D13*
X133465372Y-95184900D02*
X133844787Y-95564315D01*
X131962310Y-93622310D02*
X131998232Y-93658232D01*
X132645376Y-94016877D02*
X132681297Y-94052798D01*
X126421538Y-91449568D02*
X124639502Y-91449568D01*
X128248289Y-91210000D02*
X127817289Y-91641000D01*
X126612970Y-91641000D02*
X126421538Y-91449568D01*
X132321520Y-93981520D02*
X132357442Y-94017442D01*
X127817289Y-91641000D02*
X126612970Y-91641000D01*
X132501126Y-94017442D02*
X132501692Y-94016877D01*
X133075862Y-94735862D02*
X133147611Y-94807611D01*
X131423496Y-92939812D02*
X131424062Y-92939247D01*
X133147611Y-94807611D02*
X133147611Y-94897139D01*
X131962877Y-93478062D02*
X131962310Y-93478626D01*
X132322087Y-93837272D02*
X132321520Y-93837836D01*
X133004586Y-94376087D02*
X133040507Y-94412008D01*
X132681297Y-94196482D02*
X132680730Y-94197046D01*
X131926956Y-93298457D02*
X131962877Y-93334378D01*
X132860336Y-94376652D02*
X132860902Y-94376087D01*
X129550000Y-91210000D02*
X128248289Y-91210000D01*
X132680730Y-94340730D02*
X132716652Y-94376652D01*
X131782706Y-93299022D02*
X131783272Y-93298457D01*
X132141916Y-93658232D02*
X132142482Y-93657667D01*
X133039940Y-94699940D02*
X133075862Y-94735862D01*
X132286166Y-93657667D02*
X132322087Y-93693588D01*
X133040507Y-94555692D02*
X133039940Y-94556256D01*
X131603100Y-93263100D02*
X131639022Y-93299022D01*
X124639502Y-91449568D02*
X124313434Y-91123500D01*
X133147611Y-94897139D02*
X133435372Y-95184900D01*
D14*
X124329227Y-90989068D02*
X124313434Y-91004861D01*
D13*
X131603667Y-93118852D02*
X131603100Y-93119416D01*
X131567746Y-92939247D02*
X131603667Y-92975168D01*
X131279812Y-92939812D02*
X129550000Y-91210000D01*
X133435372Y-95184900D02*
X133465372Y-95184900D01*
X133039940Y-94556256D02*
G75*
G03*
X133039938Y-94699942I71860J-71844D01*
G01*
X131639022Y-93299022D02*
G75*
G03*
X131782706Y-93299022I71842J71842D01*
G01*
X131783272Y-93298457D02*
G75*
G02*
X131926956Y-93298457I71842J-71842D01*
G01*
X131998232Y-93658232D02*
G75*
G03*
X132141916Y-93658232I71842J71842D01*
G01*
X132501692Y-94016877D02*
G75*
G02*
X132645376Y-94016877I71842J-71842D01*
G01*
X131279812Y-92939812D02*
G75*
G03*
X131423496Y-92939812I71842J71842D01*
G01*
X132681297Y-94052798D02*
G75*
G02*
X132681257Y-94196442I-71797J-71802D01*
G01*
X131962877Y-93334378D02*
G75*
G02*
X131962857Y-93478042I-71877J-71822D01*
G01*
X131603667Y-92975168D02*
G75*
G02*
X131603657Y-93118842I-71867J-71832D01*
G01*
X132716652Y-94376652D02*
G75*
G03*
X132860336Y-94376652I71842J71842D01*
G01*
X132321520Y-93837836D02*
G75*
G03*
X132321498Y-93981542I71880J-71864D01*
G01*
X131603100Y-93119416D02*
G75*
G03*
X131603058Y-93263142I71800J-71884D01*
G01*
X132357442Y-94017442D02*
G75*
G03*
X132501126Y-94017442I71842J71842D01*
G01*
X131424062Y-92939247D02*
G75*
G02*
X131567746Y-92939247I71842J-71842D01*
G01*
X132322087Y-93693588D02*
G75*
G02*
X132322057Y-93837242I-71887J-71812D01*
G01*
X133040507Y-94412008D02*
G75*
G02*
X133040557Y-94555742I-71807J-71892D01*
G01*
X132142482Y-93657667D02*
G75*
G02*
X132286166Y-93657667I71842J-71842D01*
G01*
X131962310Y-93478626D02*
G75*
G03*
X131962278Y-93622342I71890J-71874D01*
G01*
X132680730Y-94197046D02*
G75*
G03*
X132680718Y-94340742I71870J-71854D01*
G01*
X132860902Y-94376087D02*
G75*
G02*
X133004586Y-94376087I71842J-71842D01*
G01*
%TO.N,XSPIM_P1_IO11*%
X134075489Y-101770000D02*
X134126289Y-101770000D01*
X129811800Y-100448971D02*
X128952300Y-99589471D01*
X135213500Y-101299631D02*
X135213500Y-101124091D01*
X134481889Y-101922400D02*
X134481889Y-101871600D01*
X134583489Y-101770000D02*
X134634289Y-101770000D01*
X132868289Y-102012000D02*
X133110289Y-101770000D01*
X133211889Y-101871600D02*
X133211889Y-101922400D01*
X128952300Y-98315310D02*
X127400990Y-96764000D01*
X124559868Y-96710000D02*
X124168298Y-96318430D01*
X133973889Y-101922400D02*
X133973889Y-101871600D01*
X125467817Y-96559797D02*
X125317615Y-96710000D01*
X134821566Y-101691565D02*
X135213500Y-101299631D01*
X125317615Y-96710000D02*
X124559868Y-96710000D01*
X133465889Y-101922400D02*
X133465889Y-101871600D01*
X124168298Y-96318430D02*
X124168298Y-96225191D01*
X126361523Y-96764000D02*
X126157319Y-96559797D01*
X134743131Y-101770000D02*
X134821566Y-101691565D01*
X134634289Y-101770000D02*
X134743131Y-101770000D01*
X129811800Y-100457194D02*
X131366606Y-102012000D01*
X133821489Y-102024000D02*
X133872289Y-102024000D01*
X133567489Y-101770000D02*
X133618289Y-101770000D01*
X135213500Y-101124091D02*
X135769816Y-100567775D01*
X133719889Y-101871600D02*
X133719889Y-101922400D01*
X131366606Y-102012000D02*
X132868289Y-102012000D01*
X127400990Y-96764000D02*
X126361523Y-96764000D01*
X135769816Y-100567775D02*
X135769816Y-100419816D01*
X128952300Y-99589471D02*
X128952300Y-98315310D01*
X134329489Y-102024000D02*
X134380289Y-102024000D01*
X134227889Y-101871600D02*
X134227889Y-101922400D01*
X133313489Y-102024000D02*
X133364289Y-102024000D01*
X126157319Y-96559797D02*
X125467817Y-96559797D01*
X134227889Y-101922400D02*
G75*
G03*
X134329489Y-102024011I101611J0D01*
G01*
X133211889Y-101922400D02*
G75*
G03*
X133313489Y-102024011I101611J0D01*
G01*
X133618289Y-101770000D02*
G75*
G02*
X133719900Y-101871600I11J-101600D01*
G01*
X134126289Y-101770000D02*
G75*
G02*
X134227900Y-101871600I11J-101600D01*
G01*
X133110289Y-101770000D02*
G75*
G02*
X133211900Y-101871600I11J-101600D01*
G01*
X133973889Y-101871600D02*
G75*
G02*
X134075489Y-101769989I101611J0D01*
G01*
X134380289Y-102024000D02*
G75*
G03*
X134481900Y-101922400I11J101600D01*
G01*
X134481889Y-101871600D02*
G75*
G02*
X134583489Y-101769989I101611J0D01*
G01*
X133465889Y-101871600D02*
G75*
G02*
X133567489Y-101769989I101611J0D01*
G01*
X133364289Y-102024000D02*
G75*
G03*
X133465900Y-101922400I11J101600D01*
G01*
X133719889Y-101922400D02*
G75*
G03*
X133821489Y-102024011I101611J0D01*
G01*
X133872289Y-102024000D02*
G75*
G03*
X133973900Y-101922400I11J101600D01*
G01*
%TO.N,XSPI_M_P1_DQS0*%
X128050000Y-94470000D02*
X128350000Y-94470000D01*
X124058331Y-93083462D02*
X124321169Y-93346300D01*
D14*
X123334932Y-92561030D02*
X123348876Y-92547086D01*
D13*
X133342918Y-98852400D02*
X133342918Y-98801600D01*
X128493684Y-94470000D02*
X128529606Y-94434079D01*
X125260062Y-93346300D02*
X125358162Y-93444400D01*
X129786840Y-95906840D02*
X130280000Y-96400000D01*
X133088918Y-98547600D02*
X133088918Y-98598400D01*
X133444518Y-98700000D02*
X133495318Y-98700000D01*
X129391710Y-95152499D02*
X129427631Y-95188420D01*
X128852894Y-94829210D02*
X128888816Y-94793289D01*
X133495318Y-98700000D02*
X133820000Y-98700000D01*
X127024400Y-93444400D02*
X127555000Y-93975000D01*
X133088918Y-98598400D02*
X133088918Y-98801600D01*
X123857364Y-93083462D02*
X124058331Y-93083462D01*
X125358162Y-93444400D02*
X127024400Y-93444400D01*
X127555000Y-93975000D02*
X128050000Y-94470000D01*
X129750920Y-95511709D02*
X129786841Y-95547630D01*
X129032498Y-95152498D02*
X129068420Y-95188420D01*
X130280000Y-96400000D02*
X131749500Y-97869500D01*
X133088918Y-98801600D02*
X133088918Y-98852400D01*
X128673290Y-94434079D02*
X128709211Y-94470000D01*
X128673288Y-94793288D02*
X128709210Y-94829210D01*
X132936518Y-98446000D02*
X132987318Y-98446000D01*
X132602923Y-98830395D02*
X132733318Y-98700000D01*
X132213489Y-98830395D02*
X132602923Y-98830395D01*
X124321169Y-93346300D02*
X125260062Y-93346300D01*
X131749500Y-97869500D02*
X131749500Y-98366406D01*
X129068421Y-94972894D02*
X129032498Y-95008814D01*
X129750918Y-95870918D02*
X129786840Y-95906840D01*
X129032500Y-94793289D02*
X129068421Y-94829210D01*
X129427631Y-95332104D02*
X129391708Y-95368024D01*
X128709211Y-94613684D02*
X128673288Y-94649604D01*
X132834918Y-98598400D02*
X132834918Y-98547600D01*
D14*
X123348876Y-92547086D02*
X123348876Y-92517921D01*
D13*
X129786841Y-95691314D02*
X129750918Y-95727234D01*
X129391708Y-95511708D02*
X129427630Y-95547630D01*
X129571314Y-95547630D02*
X129607236Y-95511709D01*
X123334932Y-92561030D02*
X123857364Y-93083462D01*
X133190518Y-98954000D02*
X133241318Y-98954000D01*
X131749500Y-98366406D02*
X132213489Y-98830395D01*
X129212104Y-95188420D02*
X129248026Y-95152499D01*
X133342918Y-98801600D02*
G75*
G02*
X133444518Y-98700018I101582J0D01*
G01*
X132733318Y-98700000D02*
G75*
G03*
X132834900Y-98598400I-18J101600D01*
G01*
X133088918Y-98852400D02*
G75*
G03*
X133190518Y-98953982I101582J0D01*
G01*
X129248026Y-95152499D02*
G75*
G02*
X129391710Y-95152499I71842J-71842D01*
G01*
X129068421Y-94829210D02*
G75*
G02*
X129068469Y-94972942I-71821J-71890D01*
G01*
X128888816Y-94793289D02*
G75*
G02*
X129032500Y-94793289I71842J-71842D01*
G01*
X129427631Y-95188420D02*
G75*
G02*
X129427669Y-95332142I-71831J-71880D01*
G01*
X129427630Y-95547630D02*
G75*
G03*
X129571314Y-95547630I71842J71842D01*
G01*
X132987318Y-98446000D02*
G75*
G02*
X133088900Y-98547600I-18J-101600D01*
G01*
X129607236Y-95511709D02*
G75*
G02*
X129750920Y-95511709I71842J-71842D01*
G01*
X128709211Y-94470000D02*
G75*
G02*
X128709169Y-94613642I-71811J-71800D01*
G01*
X129032498Y-95008814D02*
G75*
G03*
X129032454Y-95152542I71802J-71886D01*
G01*
X128673288Y-94649604D02*
G75*
G03*
X128673334Y-94793242I71812J-71796D01*
G01*
X133241318Y-98954000D02*
G75*
G03*
X133342900Y-98852400I-18J101600D01*
G01*
X132834918Y-98547600D02*
G75*
G02*
X132936518Y-98446018I101582J0D01*
G01*
X129750918Y-95727234D02*
G75*
G03*
X129750894Y-95870942I71882J-71866D01*
G01*
X128529606Y-94434079D02*
G75*
G02*
X128673290Y-94434079I71842J-71842D01*
G01*
X128350000Y-94470000D02*
G75*
G03*
X128493684Y-94470000I71842J71842D01*
G01*
X129068420Y-95188420D02*
G75*
G03*
X129212104Y-95188420I71842J71842D01*
G01*
X129391708Y-95368024D02*
G75*
G03*
X129391674Y-95511742I71792J-71876D01*
G01*
X128709210Y-94829210D02*
G75*
G03*
X128852894Y-94829210I71842J71842D01*
G01*
X129786841Y-95547630D02*
G75*
G02*
X129786869Y-95691342I-71841J-71870D01*
G01*
%TO.N,SDMMC_D6*%
X116090916Y-89310000D02*
X116600916Y-88800000D01*
X110400000Y-89030000D02*
X112585305Y-89030000D01*
X108591200Y-88776000D02*
X108642000Y-88776000D01*
X110115200Y-89030000D02*
X110166000Y-89030000D01*
X107473600Y-89182400D02*
X107473600Y-89030000D01*
X106965600Y-89182400D02*
X106965600Y-89131600D01*
X109759600Y-89030000D02*
X109759600Y-89131600D01*
X109759600Y-88877600D02*
X109759600Y-89030000D01*
X106813200Y-89284000D02*
X106864000Y-89284000D01*
X109099200Y-88776000D02*
X109150000Y-88776000D01*
X106711600Y-89131600D02*
X106711600Y-89182400D01*
X107727600Y-89030000D02*
X107727600Y-89182400D01*
X107219600Y-89030000D02*
X107219600Y-89182400D01*
X109251600Y-88877600D02*
X109251600Y-89030000D01*
X112865305Y-89310000D02*
X116090916Y-89310000D01*
X106150000Y-89120000D02*
X106240000Y-89030000D01*
X108337200Y-89284000D02*
X108388000Y-89284000D01*
X109251600Y-89030000D02*
X109251600Y-89182400D01*
X116600916Y-88800000D02*
X116670000Y-88800000D01*
X107067200Y-88776000D02*
X107118000Y-88776000D01*
X108997600Y-89030000D02*
X108997600Y-88877600D01*
X106965600Y-89131600D02*
X106965600Y-89030000D01*
X109505600Y-89182400D02*
X109505600Y-89030000D01*
X107981600Y-89182400D02*
X107981600Y-89030000D01*
X107981600Y-89030000D02*
X107981600Y-88877600D01*
X108743600Y-88877600D02*
X108743600Y-89030000D01*
X107473600Y-89030000D02*
X107473600Y-88877600D01*
X108997600Y-89182400D02*
X108997600Y-89030000D01*
X107727600Y-88877600D02*
X107727600Y-89030000D01*
X107575200Y-88776000D02*
X107626000Y-88776000D01*
X107829200Y-89284000D02*
X107880000Y-89284000D01*
X108489600Y-89030000D02*
X108489600Y-88877600D01*
X110166000Y-89030000D02*
X110400000Y-89030000D01*
X108235600Y-88877600D02*
X108235600Y-89030000D01*
X107321200Y-89284000D02*
X107372000Y-89284000D01*
X108083200Y-88776000D02*
X108134000Y-88776000D01*
X112585305Y-89030000D02*
X112865305Y-89310000D01*
X108235600Y-89030000D02*
X108235600Y-89182400D01*
X106240000Y-89030000D02*
X106610000Y-89030000D01*
X110013600Y-89182400D02*
X110013600Y-89131600D01*
X109759600Y-89131600D02*
X109759600Y-89182400D01*
X109607200Y-88776000D02*
X109658000Y-88776000D01*
X108489600Y-89182400D02*
X108489600Y-89030000D01*
X109861200Y-89284000D02*
X109912000Y-89284000D01*
X107219600Y-88877600D02*
X107219600Y-89030000D01*
X106965600Y-89030000D02*
X106965600Y-88877600D01*
X109353200Y-89284000D02*
X109404000Y-89284000D01*
X109505600Y-89030000D02*
X109505600Y-88877600D01*
X108845200Y-89284000D02*
X108896000Y-89284000D01*
X108743600Y-89030000D02*
X108743600Y-89182400D01*
X108896000Y-89284000D02*
G75*
G03*
X108997600Y-89182400I0J101600D01*
G01*
X107118000Y-88776000D02*
G75*
G02*
X107219600Y-88877600I0J-101600D01*
G01*
X107626000Y-88776000D02*
G75*
G02*
X107727600Y-88877600I0J-101600D01*
G01*
X108642000Y-88776000D02*
G75*
G02*
X108743600Y-88877600I0J-101600D01*
G01*
X109150000Y-88776000D02*
G75*
G02*
X109251600Y-88877600I0J-101600D01*
G01*
X109658000Y-88776000D02*
G75*
G02*
X109759600Y-88877600I0J-101600D01*
G01*
X108743600Y-89182400D02*
G75*
G03*
X108845200Y-89284000I101600J0D01*
G01*
X109251600Y-89182400D02*
G75*
G03*
X109353200Y-89284000I101600J0D01*
G01*
X107981600Y-88877600D02*
G75*
G02*
X108083200Y-88776000I101600J0D01*
G01*
X106610000Y-89030000D02*
G75*
G02*
X106711600Y-89131600I0J-101600D01*
G01*
X107880000Y-89284000D02*
G75*
G03*
X107981600Y-89182400I0J101600D01*
G01*
X106864000Y-89284000D02*
G75*
G03*
X106965600Y-89182400I0J101600D01*
G01*
X106965600Y-88877600D02*
G75*
G02*
X107067200Y-88776000I101600J0D01*
G01*
X107219600Y-89182400D02*
G75*
G03*
X107321200Y-89284000I101600J0D01*
G01*
X109759600Y-89182400D02*
G75*
G03*
X109861200Y-89284000I101600J0D01*
G01*
X109505600Y-88877600D02*
G75*
G02*
X109607200Y-88776000I101600J0D01*
G01*
X109912000Y-89284000D02*
G75*
G03*
X110013600Y-89182400I0J101600D01*
G01*
X109404000Y-89284000D02*
G75*
G03*
X109505600Y-89182400I0J101600D01*
G01*
X107372000Y-89284000D02*
G75*
G03*
X107473600Y-89182400I0J101600D01*
G01*
X106711600Y-89182400D02*
G75*
G03*
X106813200Y-89284000I101600J0D01*
G01*
X107727600Y-89182400D02*
G75*
G03*
X107829200Y-89284000I101600J0D01*
G01*
X110013600Y-89131600D02*
G75*
G02*
X110115200Y-89030000I101600J0D01*
G01*
X107473600Y-88877600D02*
G75*
G02*
X107575200Y-88776000I101600J0D01*
G01*
X108489600Y-88877600D02*
G75*
G02*
X108591200Y-88776000I101600J0D01*
G01*
X108235600Y-89182400D02*
G75*
G03*
X108337200Y-89284000I101600J0D01*
G01*
X108997600Y-88877600D02*
G75*
G02*
X109099200Y-88776000I101600J0D01*
G01*
X108388000Y-89284000D02*
G75*
G03*
X108489600Y-89182400I0J101600D01*
G01*
X108134000Y-88776000D02*
G75*
G02*
X108235600Y-88877600I0J-101600D01*
G01*
%TO.N,SDMMC_D2*%
X104833336Y-90040000D02*
X104833336Y-90142400D01*
X105087336Y-90142400D02*
X105087336Y-90040000D01*
X102140936Y-89786000D02*
X102191736Y-89786000D01*
X106458936Y-90244000D02*
X106509736Y-90244000D01*
X103055336Y-90192400D02*
X103055336Y-90040000D01*
X104325336Y-90040000D02*
X104325336Y-90142400D01*
X103664936Y-89786000D02*
X103715736Y-89786000D01*
X103156936Y-89786000D02*
X103207736Y-89786000D01*
X103410936Y-90294000D02*
X103461736Y-90294000D01*
X102039336Y-90192400D02*
X102039336Y-90141600D01*
X106763736Y-90040000D02*
X106880000Y-90040000D01*
X104071336Y-90142400D02*
X104071336Y-90040000D01*
X106103336Y-90142400D02*
X106103336Y-90040000D01*
X103309336Y-90040000D02*
X103309336Y-90192400D01*
X104934936Y-90244000D02*
X104985736Y-90244000D01*
X102293336Y-90040000D02*
X102293336Y-90192400D01*
X104833336Y-89887600D02*
X104833336Y-90040000D01*
X103918936Y-90244000D02*
X103969736Y-90244000D01*
X106357336Y-90141600D02*
X106357336Y-90142400D01*
X105696936Y-89786000D02*
X105747736Y-89786000D01*
X105595336Y-90040000D02*
X105595336Y-89887600D01*
X106880000Y-90040000D02*
X108544888Y-90040000D01*
X105442936Y-90244000D02*
X105493736Y-90244000D01*
X102039336Y-90141600D02*
X102039336Y-90040000D01*
X103563336Y-90040000D02*
X103563336Y-89887600D01*
X105849336Y-89887600D02*
X105849336Y-90040000D01*
X103055336Y-90040000D02*
X103055336Y-89887600D01*
X106357336Y-89887600D02*
X106357336Y-90040000D01*
X102293336Y-89887600D02*
X102293336Y-90040000D01*
X102547336Y-90040000D02*
X102547336Y-89887600D01*
X106204936Y-89786000D02*
X106255736Y-89786000D01*
X102547336Y-90192400D02*
X102547336Y-90040000D01*
X105341336Y-89887600D02*
X105341336Y-90040000D01*
X100800472Y-90040000D02*
X101683736Y-90040000D01*
X102394936Y-90294000D02*
X102445736Y-90294000D01*
X102648936Y-89786000D02*
X102699736Y-89786000D01*
X102801336Y-90040000D02*
X102801336Y-90192400D01*
X103309336Y-89887600D02*
X103309336Y-90040000D01*
X105087336Y-90040000D02*
X105087336Y-89887600D01*
X104579336Y-90040000D02*
X104579336Y-89887600D01*
X108671188Y-89913700D02*
X114568014Y-89913700D01*
X105188936Y-89786000D02*
X105239736Y-89786000D01*
X102902936Y-90294000D02*
X102953736Y-90294000D01*
X104579336Y-90142400D02*
X104579336Y-90040000D01*
X104172936Y-89786000D02*
X104223736Y-89786000D01*
X105341336Y-90040000D02*
X105341336Y-90142400D01*
X101785336Y-90141600D02*
X101785336Y-90192400D01*
X102039336Y-90040000D02*
X102039336Y-89887600D01*
X104426936Y-90244000D02*
X104477736Y-90244000D01*
X106611336Y-90142400D02*
X106611336Y-90141600D01*
X105950936Y-90244000D02*
X106001736Y-90244000D01*
X106712936Y-90040000D02*
X106763736Y-90040000D01*
X105595336Y-90142400D02*
X105595336Y-90040000D01*
X104071336Y-90040000D02*
X104071336Y-89887600D01*
X114568014Y-89913700D02*
X114578369Y-89924055D01*
X104680936Y-89786000D02*
X104731736Y-89786000D01*
X100765236Y-90075236D02*
X100800472Y-90040000D01*
X108544888Y-90040000D02*
X108671188Y-89913700D01*
X106357336Y-90040000D02*
X106357336Y-90141600D01*
X104325336Y-89887600D02*
X104325336Y-90040000D01*
X102801336Y-89887600D02*
X102801336Y-90040000D01*
X103563336Y-90192400D02*
X103563336Y-90040000D01*
X106103336Y-90040000D02*
X106103336Y-89887600D01*
X103817336Y-90040000D02*
X103817336Y-90142400D01*
X101886936Y-90294000D02*
X101937736Y-90294000D01*
X103817336Y-89887600D02*
X103817336Y-90040000D01*
X105849336Y-90040000D02*
X105849336Y-90142400D01*
X104223736Y-89786000D02*
G75*
G02*
X104325300Y-89887600I-36J-101600D01*
G01*
X104071336Y-89887600D02*
G75*
G02*
X104172936Y-89786036I101564J0D01*
G01*
X102547336Y-89887600D02*
G75*
G02*
X102648936Y-89786036I101564J0D01*
G01*
X103563336Y-89887600D02*
G75*
G02*
X103664936Y-89786036I101564J0D01*
G01*
X106255736Y-89786000D02*
G75*
G02*
X106357300Y-89887600I-36J-101600D01*
G01*
X105595336Y-89887600D02*
G75*
G02*
X105696936Y-89786036I101564J0D01*
G01*
X102801336Y-90192400D02*
G75*
G03*
X102902936Y-90293964I101564J0D01*
G01*
X104731736Y-89786000D02*
G75*
G02*
X104833300Y-89887600I-36J-101600D01*
G01*
X104477736Y-90244000D02*
G75*
G03*
X104579300Y-90142400I-36J101600D01*
G01*
X101785336Y-90192400D02*
G75*
G03*
X101886936Y-90293964I101564J0D01*
G01*
X102445736Y-90294000D02*
G75*
G03*
X102547300Y-90192400I-36J101600D01*
G01*
X101683736Y-90040000D02*
G75*
G02*
X101785300Y-90141600I-36J-101600D01*
G01*
X106103336Y-89887600D02*
G75*
G02*
X106204936Y-89786036I101564J0D01*
G01*
X103207736Y-89786000D02*
G75*
G02*
X103309300Y-89887600I-36J-101600D01*
G01*
X105747736Y-89786000D02*
G75*
G02*
X105849300Y-89887600I-36J-101600D01*
G01*
X102293336Y-90192400D02*
G75*
G03*
X102394936Y-90293964I101564J0D01*
G01*
X102699736Y-89786000D02*
G75*
G02*
X102801300Y-89887600I-36J-101600D01*
G01*
X105493736Y-90244000D02*
G75*
G03*
X105595300Y-90142400I-36J101600D01*
G01*
X106509736Y-90244000D02*
G75*
G03*
X106611300Y-90142400I-36J101600D01*
G01*
X104325336Y-90142400D02*
G75*
G03*
X104426936Y-90243964I101564J0D01*
G01*
X105239736Y-89786000D02*
G75*
G02*
X105341300Y-89887600I-36J-101600D01*
G01*
X106357336Y-90142400D02*
G75*
G03*
X106458936Y-90243964I101564J0D01*
G01*
X106611336Y-90141600D02*
G75*
G02*
X106712936Y-90040036I101564J0D01*
G01*
X105849336Y-90142400D02*
G75*
G03*
X105950936Y-90243964I101564J0D01*
G01*
X102953736Y-90294000D02*
G75*
G03*
X103055300Y-90192400I-36J101600D01*
G01*
X103055336Y-89887600D02*
G75*
G02*
X103156936Y-89786036I101564J0D01*
G01*
X103817336Y-90142400D02*
G75*
G03*
X103918936Y-90243964I101564J0D01*
G01*
X103969736Y-90244000D02*
G75*
G03*
X104071300Y-90142400I-36J101600D01*
G01*
X105087336Y-89887600D02*
G75*
G02*
X105188936Y-89786036I101564J0D01*
G01*
X101937736Y-90294000D02*
G75*
G03*
X102039300Y-90192400I-36J101600D01*
G01*
X102039336Y-89887600D02*
G75*
G02*
X102140936Y-89786036I101564J0D01*
G01*
X103461736Y-90294000D02*
G75*
G03*
X103563300Y-90192400I-36J101600D01*
G01*
X104833336Y-90142400D02*
G75*
G03*
X104934936Y-90243964I101564J0D01*
G01*
X106001736Y-90244000D02*
G75*
G03*
X106103300Y-90142400I-36J101600D01*
G01*
X103715736Y-89786000D02*
G75*
G02*
X103817300Y-89887600I-36J-101600D01*
G01*
X104579336Y-89887600D02*
G75*
G02*
X104680936Y-89786036I101564J0D01*
G01*
X104985736Y-90244000D02*
G75*
G03*
X105087300Y-90142400I-36J101600D01*
G01*
X102191736Y-89786000D02*
G75*
G02*
X102293300Y-89887600I-36J-101600D01*
G01*
X105341336Y-90142400D02*
G75*
G03*
X105442936Y-90243964I101564J0D01*
G01*
X103309336Y-90192400D02*
G75*
G03*
X103410936Y-90293964I101564J0D01*
G01*
%TO.N,SDMMC_D3*%
X98747400Y-91976400D02*
X98696600Y-91976400D01*
X111980000Y-88280000D02*
X112140000Y-88120000D01*
X98950600Y-92484400D02*
X98849000Y-92484400D01*
X98849000Y-91570000D02*
X98849000Y-91450000D01*
X98950600Y-92738400D02*
X99001400Y-92738400D01*
X100300000Y-88280000D02*
X111980000Y-88280000D01*
X98849000Y-92230400D02*
X98926000Y-92230400D01*
X98926000Y-91976400D02*
X98849000Y-91976400D01*
X99003000Y-92153400D02*
X99003000Y-92053400D01*
X98595000Y-92382800D02*
X98595000Y-92332000D01*
X99103000Y-92636800D02*
X99103000Y-92586000D01*
X98696600Y-91722400D02*
X98747400Y-91722400D01*
X98696600Y-92230400D02*
X98849000Y-92230400D01*
X98849000Y-93249000D02*
X98849000Y-92840000D01*
X98849000Y-92484400D02*
X98696600Y-92484400D01*
X98849000Y-91620800D02*
X98849000Y-91570000D01*
X98849000Y-91450000D02*
X98849000Y-89731000D01*
X98595000Y-91874800D02*
X98595000Y-91824000D01*
X98849000Y-91976400D02*
X98747400Y-91976400D01*
X99001400Y-92484400D02*
X98950600Y-92484400D01*
X99100000Y-93500000D02*
X98849000Y-93249000D01*
X98849000Y-89731000D02*
X100300000Y-88280000D01*
X99103000Y-92586000D02*
G75*
G03*
X99001400Y-92484400I-101600J0D01*
G01*
X98849000Y-92840000D02*
G75*
G02*
X98950600Y-92738400I101600J0D01*
G01*
X98696600Y-92484400D02*
G75*
G02*
X98595000Y-92382800I0J101600D01*
G01*
X98595000Y-91824000D02*
G75*
G02*
X98696600Y-91722400I101600J0D01*
G01*
X99001400Y-92738400D02*
G75*
G03*
X99103000Y-92636800I0J101600D01*
G01*
X98595000Y-92332000D02*
G75*
G02*
X98696600Y-92230400I101600J0D01*
G01*
X98926000Y-92230400D02*
G75*
G03*
X99003000Y-92153400I0J77000D01*
G01*
X98696600Y-91976400D02*
G75*
G02*
X98595000Y-91874800I0J101600D01*
G01*
X99003000Y-92053400D02*
G75*
G03*
X98926000Y-91976400I-77000J0D01*
G01*
X98747400Y-91722400D02*
G75*
G03*
X98849000Y-91620800I0J101600D01*
G01*
%TO.N,SDMMC_CMD*%
X107990000Y-90520000D02*
X108030000Y-90560000D01*
X101700000Y-92780000D02*
X103960000Y-90520000D01*
X101700000Y-94270000D02*
X101700000Y-92780000D01*
X103960000Y-90520000D02*
X107990000Y-90520000D01*
%TO.N,SDMMC_D7*%
X113703753Y-91050000D02*
X114127016Y-90626737D01*
X114127016Y-90626737D02*
X116433574Y-90626737D01*
X109814690Y-91050000D02*
X105470000Y-91050000D01*
X116995427Y-90493538D02*
X117172017Y-90316948D01*
X105470000Y-91050000D02*
X105370000Y-90950000D01*
X109814690Y-91050000D02*
X113703753Y-91050000D01*
X116566773Y-90493538D02*
X116995427Y-90493538D01*
X116433574Y-90626737D02*
X116566773Y-90493538D01*
%TO.N,XSPIM_P1_IO7*%
X131738942Y-94118942D02*
X131774864Y-94154864D01*
X131559338Y-93795654D02*
X131595260Y-93759733D01*
X132098154Y-94118943D02*
X132134075Y-94154864D01*
X130481708Y-92718024D02*
X130517630Y-92682103D01*
X128190000Y-91680000D02*
X128557959Y-91680000D01*
X131918546Y-94657757D02*
X131954467Y-94693678D01*
X130122498Y-92358814D02*
X130158420Y-92322893D01*
X131738944Y-93759733D02*
X131774865Y-93795654D01*
X123953725Y-91547800D02*
X123770260Y-91364335D01*
X131200128Y-93436444D02*
X131236050Y-93400523D01*
X131918548Y-94154864D02*
X131954470Y-94118943D01*
X130840918Y-93077234D02*
X130876840Y-93041313D01*
X129440000Y-91963684D02*
X129439434Y-91964249D01*
X132565122Y-94945122D02*
X132636963Y-94873278D01*
X132852490Y-95232490D02*
X132933950Y-95313950D01*
X132565122Y-94945121D02*
X132565122Y-94945122D01*
X131056445Y-93220918D02*
X131020522Y-93256838D01*
X132098152Y-94334468D02*
X132026310Y-94406310D01*
X132385518Y-94765518D02*
X132331070Y-94819965D01*
X128110000Y-91760000D02*
X128190000Y-91680000D01*
X132493283Y-94657756D02*
X132385518Y-94765518D01*
X132933950Y-95665670D02*
X132933950Y-95743950D01*
X132933950Y-95313950D02*
X132933950Y-95665670D01*
X128110000Y-91760000D02*
X127975000Y-91895000D01*
X130661312Y-93041312D02*
X130697234Y-93077234D01*
X131379732Y-93759732D02*
X131415654Y-93795654D01*
X132852491Y-95016964D02*
X132816568Y-95052884D01*
X127975000Y-91895000D02*
X126507760Y-91895000D01*
X129942892Y-92322892D02*
X129978814Y-92358814D01*
X131774865Y-93939338D02*
X131738942Y-93975258D01*
X132816570Y-94837359D02*
X132852491Y-94873280D01*
X132205914Y-94585914D02*
X132313676Y-94478149D01*
X129439434Y-92107933D02*
X129475355Y-92143854D01*
X132026310Y-94406310D02*
X131918546Y-94514073D01*
X129619039Y-92143854D02*
X129619604Y-92143288D01*
X129942894Y-91963683D02*
X129978815Y-91999604D01*
X129619604Y-92143288D02*
X129691446Y-92071446D01*
X130697235Y-92861708D02*
X130661312Y-92897628D01*
X132331070Y-94928859D02*
X132401780Y-94999569D01*
X124373568Y-91703568D02*
X124217800Y-91547800D01*
X131020522Y-93400522D02*
X131056444Y-93436444D01*
X129691446Y-92071446D02*
X129763287Y-91999602D01*
X131379734Y-93400523D02*
X131415655Y-93436444D01*
X131020524Y-93041313D02*
X131056445Y-93077234D01*
X124217800Y-91547800D02*
X123953725Y-91547800D01*
X130338025Y-92502498D02*
X130302102Y-92538418D01*
X130661314Y-92682103D02*
X130697235Y-92718024D01*
X128557959Y-91680000D02*
X129300000Y-91680000D01*
X130302104Y-92322893D02*
X130338025Y-92358814D01*
X132636963Y-94873278D02*
X132672884Y-94837357D01*
X132457362Y-94478151D02*
X132493283Y-94514072D01*
X129300000Y-91680000D02*
X129440000Y-91820000D01*
X132134075Y-94298548D02*
X132098152Y-94334468D01*
X126507760Y-91895000D02*
X126316328Y-91703568D01*
X126316328Y-91703568D02*
X124373568Y-91703568D01*
X129978815Y-92143288D02*
X129942892Y-92179208D01*
X132816568Y-95196568D02*
X132852490Y-95232490D01*
X130302102Y-92682102D02*
X130338024Y-92718024D01*
X132510675Y-94999569D02*
X132565122Y-94945121D01*
X132098151Y-94693678D02*
X132205914Y-94585914D01*
X131415655Y-93580128D02*
X131379732Y-93616048D01*
X129763287Y-91999602D02*
X129799208Y-91963681D01*
X132933950Y-95743950D02*
X133490000Y-96300000D01*
X131379732Y-93616048D02*
G75*
G03*
X131379722Y-93759742I71868J-71852D01*
G01*
X131415655Y-93436444D02*
G75*
G02*
X131415669Y-93580142I-71855J-71856D01*
G01*
X131954470Y-94118943D02*
G75*
G02*
X132098154Y-94118943I71842J-71842D01*
G01*
X129475355Y-92143854D02*
G75*
G03*
X129619039Y-92143854I71842J71842D01*
G01*
X129978815Y-91999604D02*
G75*
G02*
X129978769Y-92143242I-71815J-71796D01*
G01*
X131236050Y-93400523D02*
G75*
G02*
X131379734Y-93400523I71842J-71842D01*
G01*
X132852491Y-94873280D02*
G75*
G02*
X132852469Y-95016942I-71891J-71820D01*
G01*
X130517630Y-92682103D02*
G75*
G02*
X130661314Y-92682103I71842J-71842D01*
G01*
X130661312Y-92897628D02*
G75*
G03*
X130661282Y-93041342I71888J-71872D01*
G01*
X131738942Y-93975258D02*
G75*
G03*
X131738942Y-94118942I71858J-71842D01*
G01*
X131020522Y-93256838D02*
G75*
G03*
X131020502Y-93400542I71878J-71862D01*
G01*
X132331070Y-94819965D02*
G75*
G03*
X132331082Y-94928847I54430J-54435D01*
G01*
X131918546Y-94514073D02*
G75*
G03*
X131918561Y-94657742I71854J-71827D01*
G01*
X131595260Y-93759733D02*
G75*
G02*
X131738944Y-93759733I71842J-71842D01*
G01*
X129942892Y-92179208D02*
G75*
G03*
X129942842Y-92322942I71808J-71892D01*
G01*
X129440000Y-91820000D02*
G75*
G02*
X129439958Y-91963642I-71800J-71800D01*
G01*
X131954467Y-94693678D02*
G75*
G03*
X132098151Y-94693678I71842J71842D01*
G01*
X132672884Y-94837357D02*
G75*
G02*
X132816544Y-94837385I71816J-71843D01*
G01*
X131056445Y-93077234D02*
G75*
G02*
X131056469Y-93220942I-71845J-71866D01*
G01*
X129799208Y-91963681D02*
G75*
G02*
X129942844Y-91963733I71792J-71819D01*
G01*
X130338025Y-92358814D02*
G75*
G02*
X130338069Y-92502542I-71825J-71886D01*
G01*
X130158420Y-92322893D02*
G75*
G02*
X130302104Y-92322893I71842J-71842D01*
G01*
X130876840Y-93041313D02*
G75*
G02*
X131020524Y-93041313I71842J-71842D01*
G01*
X132401780Y-94999569D02*
G75*
G03*
X132510675Y-94999569I54447J54451D01*
G01*
X130697235Y-92718024D02*
G75*
G02*
X130697269Y-92861742I-71835J-71876D01*
G01*
X132493283Y-94514072D02*
G75*
G02*
X132493269Y-94657742I-71883J-71828D01*
G01*
X130697234Y-93077234D02*
G75*
G03*
X130840918Y-93077234I71842J71842D01*
G01*
X130338024Y-92718024D02*
G75*
G03*
X130481708Y-92718024I71842J71842D01*
G01*
X132313676Y-94478149D02*
G75*
G02*
X132457344Y-94478169I71824J-71851D01*
G01*
X131415654Y-93795654D02*
G75*
G03*
X131559338Y-93795654I71842J71842D01*
G01*
X132816568Y-95052884D02*
G75*
G03*
X132816594Y-95196542I71832J-71816D01*
G01*
X130302102Y-92538418D02*
G75*
G03*
X130302062Y-92682142I71798J-71882D01*
G01*
X131774865Y-93795654D02*
G75*
G02*
X131774869Y-93939342I-71865J-71846D01*
G01*
X131774864Y-94154864D02*
G75*
G03*
X131918548Y-94154864I71842J71842D01*
G01*
X129439434Y-91964249D02*
G75*
G03*
X129439425Y-92107942I71866J-71851D01*
G01*
X129978814Y-92358814D02*
G75*
G03*
X130122498Y-92358814I71842J71842D01*
G01*
X132134075Y-94154864D02*
G75*
G02*
X132134069Y-94298542I-71875J-71836D01*
G01*
X131056444Y-93436444D02*
G75*
G03*
X131200128Y-93436444I71842J71842D01*
G01*
%TO.N,XSPIM_P1_IO1*%
X132460450Y-96820712D02*
X132420167Y-96860995D01*
X128620792Y-92194689D02*
X128620792Y-92143889D01*
X130797300Y-93732563D02*
X130761377Y-93768483D01*
X130761377Y-93912167D02*
X130797299Y-93948089D01*
X131980062Y-94956300D02*
X132460450Y-95436688D01*
X128722392Y-92042289D02*
X128773192Y-92042289D01*
X129027192Y-92296289D02*
X129145499Y-92296289D01*
X130078880Y-93014143D02*
X130042957Y-93050063D01*
X129145499Y-92296289D02*
X129360459Y-92511249D01*
X127830000Y-92149000D02*
X128371903Y-92149000D01*
X128371903Y-92149000D02*
X128519192Y-92296289D01*
X130402169Y-93193748D02*
X130438090Y-93229669D01*
X131479797Y-94630587D02*
X131515719Y-94666509D01*
X131805510Y-94956300D02*
X131980062Y-94956300D01*
X128976392Y-92296289D02*
X129027192Y-92296289D01*
X130940983Y-93948089D02*
X130976905Y-93912168D01*
X131300193Y-94307299D02*
X131336115Y-94271378D01*
X123429200Y-91829200D02*
X123270000Y-91670000D01*
X131515719Y-94666509D02*
X131713193Y-94863983D01*
X124297568Y-91957568D02*
X124169200Y-91829200D01*
X130402167Y-93552957D02*
X130438089Y-93588879D01*
X129683747Y-92834537D02*
X129719669Y-92870459D01*
X131120589Y-93912168D02*
X131156510Y-93948089D01*
X131479799Y-94271378D02*
X131515720Y-94307299D01*
X127830000Y-92149000D02*
X126402550Y-92149000D01*
X126211118Y-91957568D02*
X124297568Y-91957568D01*
X124169200Y-91829200D02*
X123429200Y-91829200D01*
X129683749Y-92475328D02*
X129719670Y-92511249D01*
X130042957Y-93193747D02*
X130078879Y-93229669D01*
X129719670Y-92654933D02*
X129683747Y-92690853D01*
X130581773Y-93588879D02*
X130617695Y-93552958D01*
X131713193Y-94863983D02*
X131805510Y-94956300D01*
X131120587Y-94271377D02*
X131156509Y-94307299D01*
X131515720Y-94450983D02*
X131479797Y-94486903D01*
X129504143Y-92511249D02*
X129540065Y-92475328D01*
X128874792Y-92143889D02*
X128874792Y-92194689D01*
X130438090Y-93373353D02*
X130402167Y-93409273D01*
X126402550Y-92149000D02*
X126211118Y-91957568D01*
X129863353Y-92870459D02*
X129899275Y-92834538D01*
X132460450Y-95436688D02*
X132460450Y-96820712D01*
X130761379Y-93552958D02*
X130797300Y-93588879D01*
X130222563Y-93229669D02*
X130258485Y-93193748D01*
X131156510Y-94091773D02*
X131120587Y-94127693D01*
X130042959Y-92834538D02*
X130078880Y-92870459D01*
X129899275Y-92834538D02*
G75*
G02*
X130042959Y-92834538I71842J-71842D01*
G01*
X131120587Y-94127693D02*
G75*
G03*
X131120622Y-94271342I71813J-71807D01*
G01*
X130976905Y-93912168D02*
G75*
G02*
X131120589Y-93912168I71842J-71842D01*
G01*
X131479797Y-94486903D02*
G75*
G03*
X131479842Y-94630542I71803J-71797D01*
G01*
X129540065Y-92475328D02*
G75*
G02*
X129683749Y-92475328I71842J-71842D01*
G01*
X129719669Y-92870459D02*
G75*
G03*
X129863353Y-92870459I71842J71842D01*
G01*
X130258485Y-93193748D02*
G75*
G02*
X130402169Y-93193748I71842J-71842D01*
G01*
X130797300Y-93588879D02*
G75*
G02*
X130797279Y-93732542I-71800J-71821D01*
G01*
X128874792Y-92194689D02*
G75*
G03*
X128976392Y-92296308I101608J-11D01*
G01*
X130797299Y-93948089D02*
G75*
G03*
X130940983Y-93948089I71842J71842D01*
G01*
X130438090Y-93229669D02*
G75*
G02*
X130438079Y-93373342I-71890J-71831D01*
G01*
X129360459Y-92511249D02*
G75*
G03*
X129504143Y-92511249I71842J71842D01*
G01*
X130078879Y-93229669D02*
G75*
G03*
X130222563Y-93229669I71842J71842D01*
G01*
X129683747Y-92690853D02*
G75*
G03*
X129683742Y-92834542I71853J-71847D01*
G01*
X130042957Y-93050063D02*
G75*
G03*
X130042962Y-93193742I71843J-71837D01*
G01*
X131156509Y-94307299D02*
G75*
G03*
X131300193Y-94307299I71842J71842D01*
G01*
X131515720Y-94307299D02*
G75*
G02*
X131515679Y-94450942I-71820J-71801D01*
G01*
X128519192Y-92296289D02*
G75*
G03*
X128620789Y-92194689I8J101589D01*
G01*
X130438089Y-93588879D02*
G75*
G03*
X130581773Y-93588879I71842J71842D01*
G01*
X130761377Y-93768483D02*
G75*
G03*
X130761402Y-93912142I71823J-71817D01*
G01*
X131336115Y-94271378D02*
G75*
G02*
X131479799Y-94271378I71842J-71842D01*
G01*
X129719670Y-92511249D02*
G75*
G02*
X129719679Y-92654942I-71870J-71851D01*
G01*
X131156510Y-93948089D02*
G75*
G02*
X131156479Y-94091742I-71810J-71811D01*
G01*
X128620792Y-92143889D02*
G75*
G02*
X128722392Y-92042292I101608J-11D01*
G01*
X130078880Y-92870459D02*
G75*
G02*
X130078879Y-93014142I-71880J-71841D01*
G01*
X130402167Y-93409273D02*
G75*
G03*
X130402182Y-93552942I71833J-71827D01*
G01*
X128773192Y-92042289D02*
G75*
G02*
X128874811Y-92143889I8J-101611D01*
G01*
X130617695Y-93552958D02*
G75*
G02*
X130761379Y-93552958I71842J-71842D01*
G01*
%TO.N,XSPI_M_P1_DQS1*%
X126892376Y-93673000D02*
X125263472Y-93673000D01*
X133453550Y-99321600D02*
X133453550Y-99372400D01*
X122266418Y-92900462D02*
X122266418Y-92391531D01*
X128247376Y-94728000D02*
X127947376Y-94728000D01*
X127947376Y-94728000D02*
X126892376Y-93673000D01*
X129934955Y-96415579D02*
X128247376Y-94728000D01*
X134317150Y-99220000D02*
X134367950Y-99220000D01*
X133809150Y-99220000D02*
X133859950Y-99220000D01*
X133555150Y-99474000D02*
X133605950Y-99474000D01*
X125263472Y-93673000D02*
X125165372Y-93574900D01*
X122609143Y-93243187D02*
X122266418Y-92900462D01*
X134063150Y-99474000D02*
X134113950Y-99474000D01*
X132241056Y-99220000D02*
X131493500Y-98472445D01*
X133961550Y-99321600D02*
X133961550Y-99372400D01*
X122266418Y-92391531D02*
X122161340Y-92286453D01*
X125165372Y-93574900D02*
X124065057Y-93574900D01*
X124065057Y-93574900D02*
X123853019Y-93362862D01*
X131493500Y-98472445D02*
X131493500Y-97976328D01*
X134550000Y-99220000D02*
X134870000Y-99540000D01*
X133351950Y-99220000D02*
X132241056Y-99220000D01*
X131493500Y-97976328D02*
X129934955Y-96417783D01*
X123712862Y-93362862D02*
X123593187Y-93243187D01*
X129934955Y-96417783D02*
X129934955Y-96415579D01*
X133707550Y-99372400D02*
X133707550Y-99321600D01*
X123853019Y-93362862D02*
X123712862Y-93362862D01*
X134870000Y-99540000D02*
X134890000Y-99540000D01*
X134215550Y-99372400D02*
X134215550Y-99321600D01*
X123593187Y-93243187D02*
X122609143Y-93243187D01*
X134367950Y-99220000D02*
X134550000Y-99220000D01*
X134215550Y-99321600D02*
G75*
G02*
X134317150Y-99219950I101650J0D01*
G01*
X133453550Y-99372400D02*
G75*
G03*
X133555150Y-99474050I101650J0D01*
G01*
X133961550Y-99372400D02*
G75*
G03*
X134063150Y-99474050I101650J0D01*
G01*
X133859950Y-99220000D02*
G75*
G02*
X133961500Y-99321600I-50J-101600D01*
G01*
X133605950Y-99474000D02*
G75*
G03*
X133707500Y-99372400I-50J101600D01*
G01*
X134113950Y-99474000D02*
G75*
G03*
X134215500Y-99372400I-50J101600D01*
G01*
X133707550Y-99321600D02*
G75*
G02*
X133809150Y-99219950I101650J0D01*
G01*
X133351950Y-99220000D02*
G75*
G02*
X133453500Y-99321600I-50J-101600D01*
G01*
%TO.N,XSPIM_P1_IO6*%
X127491537Y-92657000D02*
X126075278Y-92657000D01*
X129164852Y-93394852D02*
X129128932Y-93358932D01*
X125883846Y-92465568D02*
X125390159Y-92465568D01*
X129883278Y-93754067D02*
X129847356Y-93718145D01*
X128985000Y-93215000D02*
X128960000Y-93190000D01*
X130745393Y-94831708D02*
X130673550Y-94903550D01*
X127984537Y-93150000D02*
X127491537Y-92657000D01*
X128920000Y-93150000D02*
X128960000Y-93190000D01*
X131200000Y-95219142D02*
X131135858Y-95155000D01*
X126075278Y-92657000D02*
X125883846Y-92465568D01*
X130781315Y-94795787D02*
X130745393Y-94831708D01*
X130493943Y-94723943D02*
X130601706Y-94616179D01*
X130314336Y-94544336D02*
X130206571Y-94652098D01*
X130422100Y-94436573D02*
X130314336Y-94544336D01*
X129416301Y-93646301D02*
X129488143Y-93574458D01*
X128771137Y-93150000D02*
X128920000Y-93150000D01*
X128671137Y-93150000D02*
X128771137Y-93150000D01*
X131214239Y-95283592D02*
X131200000Y-95269353D01*
X128340137Y-93150000D02*
X128340137Y-93227000D01*
X130960921Y-94831709D02*
X130924999Y-94795787D01*
X129344458Y-93358931D02*
X129308536Y-93394852D01*
X128340137Y-92997600D02*
X128340137Y-93048400D01*
X128187737Y-92896000D02*
X128238537Y-92896000D01*
X128086137Y-93048400D02*
X128086137Y-92997600D01*
X125390159Y-92465568D02*
X125156447Y-92699280D01*
X130386179Y-94831706D02*
X130493943Y-94723943D01*
X131200000Y-95269353D02*
X131200000Y-95219142D01*
X128340137Y-93048400D02*
X128340137Y-93150000D01*
X130134729Y-94364729D02*
X130242492Y-94256965D01*
X129308537Y-93754064D02*
X129416301Y-93646301D01*
X129344459Y-93933670D02*
X129308537Y-93897748D01*
X130422101Y-95011312D02*
X130386179Y-94975390D01*
X129955122Y-94185122D02*
X129847357Y-94292884D01*
X129488143Y-93574458D02*
X129524064Y-93538537D01*
X130062886Y-94077359D02*
X129955122Y-94185122D01*
X129667751Y-94113278D02*
X129775515Y-94005515D01*
X130673550Y-94903550D02*
X130565785Y-95011312D01*
X129775515Y-94005515D02*
X129883278Y-93897751D01*
X129524064Y-93394853D02*
X129488142Y-93358931D01*
X130062887Y-94652098D02*
X130026965Y-94616176D01*
X129703673Y-94292884D02*
X129667751Y-94256962D01*
X129595908Y-93825908D02*
X129488143Y-93933670D01*
X130925000Y-95011315D02*
X130960921Y-94975393D01*
X128417137Y-93304000D02*
X128517137Y-93304000D01*
X130601706Y-94472495D02*
X130565784Y-94436573D01*
X130242492Y-94113281D02*
X130206570Y-94077359D01*
X129128932Y-93358932D02*
X128985000Y-93215000D01*
X129703672Y-93718145D02*
X129595908Y-93825908D01*
X131135858Y-95155000D02*
X130925000Y-95155000D01*
X130026965Y-94472492D02*
X130134729Y-94364729D01*
X128517137Y-93304000D02*
G75*
G03*
X128594100Y-93227000I-37J77000D01*
G01*
X128340137Y-93227000D02*
G75*
G03*
X128417137Y-93303963I76963J0D01*
G01*
X130242492Y-94256965D02*
G75*
G03*
X130242515Y-94113258I-71792J71865D01*
G01*
X129847356Y-93718145D02*
G75*
G03*
X129703672Y-93718145I-71842J-71842D01*
G01*
X130206570Y-94077359D02*
G75*
G03*
X130062886Y-94077359I-71842J-71842D01*
G01*
X129308537Y-93897748D02*
G75*
G02*
X129308531Y-93754058I71863J71848D01*
G01*
X129667751Y-94256962D02*
G75*
G02*
X129667731Y-94113258I71849J71862D01*
G01*
X128594137Y-93227000D02*
G75*
G02*
X128671137Y-93150037I76963J0D01*
G01*
X130924999Y-94795787D02*
G75*
G03*
X130781315Y-94795787I-71842J-71842D01*
G01*
X130960921Y-94975393D02*
G75*
G03*
X130960872Y-94831758I-71821J71793D01*
G01*
X127984537Y-93150000D02*
G75*
G03*
X128086100Y-93048400I-37J101600D01*
G01*
X130601706Y-94616179D02*
G75*
G03*
X130601743Y-94472458I-71806J71879D01*
G01*
X129524064Y-93538537D02*
G75*
G03*
X129524059Y-93394858I-71864J71837D01*
G01*
X129488143Y-93933670D02*
G75*
G02*
X129344459Y-93933670I-71842J71842D01*
G01*
X130026965Y-94616176D02*
G75*
G02*
X130026931Y-94472458I71835J71876D01*
G01*
X130206571Y-94652098D02*
G75*
G02*
X130062887Y-94652098I-71842J71842D01*
G01*
X129488142Y-93358931D02*
G75*
G03*
X129344458Y-93358931I-71842J-71842D01*
G01*
X129847357Y-94292884D02*
G75*
G02*
X129703673Y-94292884I-71842J71842D01*
G01*
X130925000Y-95155000D02*
G75*
G02*
X130925042Y-95011358I71800J71800D01*
G01*
X129883278Y-93897751D02*
G75*
G03*
X129883287Y-93754058I-71878J71851D01*
G01*
X128238537Y-92896000D02*
G75*
G02*
X128340100Y-92997600I-37J-101600D01*
G01*
X129308536Y-93394852D02*
G75*
G02*
X129164852Y-93394852I-71842J71842D01*
G01*
X130386179Y-94975390D02*
G75*
G02*
X130386131Y-94831658I71821J71890D01*
G01*
X130565785Y-95011312D02*
G75*
G02*
X130422101Y-95011312I-71842J71842D01*
G01*
X128086137Y-92997600D02*
G75*
G02*
X128187737Y-92896037I101563J0D01*
G01*
X130565784Y-94436573D02*
G75*
G03*
X130422100Y-94436573I-71842J-71842D01*
G01*
%TO.N,XSPIM_P1_IO3*%
X127063109Y-95080000D02*
X126610000Y-95080000D01*
X131627036Y-99324400D02*
X131174400Y-99324400D01*
X127925950Y-95492000D02*
X127475109Y-95492000D01*
D14*
X132460000Y-100017278D02*
X132501862Y-100017278D01*
D13*
X130302306Y-98452306D02*
X130302306Y-97868356D01*
X132319914Y-100017278D02*
X131627036Y-99324400D01*
D14*
X132501862Y-100017278D02*
X132539959Y-99979181D01*
D13*
X131174400Y-99324400D02*
X130302306Y-98452306D01*
X130302306Y-97868356D02*
X127925950Y-95492000D01*
X127475109Y-95492000D02*
X127063109Y-95080000D01*
X132460000Y-100017278D02*
X132319914Y-100017278D01*
%TO.N,~{XSPI_M_P1_CS}*%
X127114679Y-90440000D02*
X126564399Y-90990280D01*
X135250000Y-95780000D02*
X131850000Y-92380000D01*
X135250000Y-97030000D02*
X135250000Y-95780000D01*
X130440000Y-90590000D02*
X127982761Y-90590000D01*
X126564399Y-90990280D02*
X125740280Y-90990280D01*
X127982761Y-90590000D02*
X127832761Y-90440000D01*
X125740280Y-90990280D02*
X125650000Y-90900000D01*
X135780000Y-97560000D02*
X135250000Y-97030000D01*
X131850000Y-92380000D02*
X131850000Y-92000000D01*
X127832761Y-90440000D02*
X127114679Y-90440000D01*
X131850000Y-92000000D02*
X130440000Y-90590000D01*
X135780000Y-98800000D02*
X135780000Y-97560000D01*
%TO.N,DIB4_SCLK*%
X124860000Y-108637643D02*
X122877643Y-110620000D01*
X125560000Y-107020000D02*
X124860000Y-107720000D01*
X125760000Y-103440000D02*
X125560000Y-103640000D01*
X122877643Y-110620000D02*
X122640000Y-110620000D01*
X125560000Y-103640000D02*
X125560000Y-107020000D01*
X122640000Y-110620000D02*
X122050000Y-111210000D01*
X124860000Y-107720000D02*
X124860000Y-108637643D01*
D14*
%TO.N,DIB4_MISO*%
X120960000Y-108307799D02*
X120573501Y-107921300D01*
X119601300Y-107921300D02*
X116473096Y-104793096D01*
X116473096Y-104793096D02*
X116473096Y-104558759D01*
X120573501Y-107921300D02*
X119601300Y-107921300D01*
X120960000Y-108500000D02*
X120960000Y-108307799D01*
D13*
%TO.N,LTDC_G2*%
X137755100Y-96164900D02*
X136805100Y-96164900D01*
X122456308Y-99330367D02*
X122038918Y-99330367D01*
X127617455Y-99397455D02*
X122523395Y-99397455D01*
X141790000Y-95720000D02*
X138200000Y-95720000D01*
X128120000Y-99900000D02*
X127617455Y-99397455D01*
X122523395Y-99397455D02*
X122456308Y-99330367D01*
X138200000Y-95720000D02*
X137755100Y-96164900D01*
X136805100Y-96164900D02*
X136790000Y-96180000D01*
X145630000Y-91030000D02*
X145630000Y-91880000D01*
X145630000Y-91880000D02*
X141790000Y-95720000D01*
%TO.N,LTDC_B7*%
X124484388Y-101022361D02*
X124446600Y-101060149D01*
X136111527Y-102660000D02*
X135711527Y-103060000D01*
X135711527Y-103060000D02*
X129727962Y-103060000D01*
X127690323Y-101022361D02*
X124484388Y-101022361D01*
X136651674Y-102660000D02*
X136111527Y-102660000D01*
X129727962Y-103060000D02*
X127690323Y-101022361D01*
X136753190Y-102761516D02*
X136651674Y-102660000D01*
%TO.N,LTDC_G5*%
X122670993Y-91074469D02*
X122795731Y-90949731D01*
X122795731Y-90949731D02*
X123837515Y-90949731D01*
X126531229Y-90650000D02*
X127584885Y-89596344D01*
X127584885Y-89596344D02*
X128106817Y-89596344D01*
X125930472Y-90650000D02*
X126531229Y-90650000D01*
X125797252Y-90516780D02*
X125930472Y-90650000D01*
X124270466Y-90516780D02*
X125797252Y-90516780D01*
X123837515Y-90949731D02*
X124270466Y-90516780D01*
%TO.N,LTDC_VSYNC*%
X118691302Y-89823385D02*
X118691302Y-89212258D01*
X115479412Y-91025298D02*
X115479412Y-91025187D01*
X115520000Y-91017082D02*
X115702918Y-91200000D01*
X117107356Y-91407331D02*
X118691302Y-89823385D01*
X115441385Y-91063407D02*
X115477190Y-91027602D01*
X115482049Y-91022311D02*
X115487278Y-91017082D01*
X115487278Y-91017082D02*
X115520000Y-91017082D01*
X115477190Y-91027602D02*
X115477190Y-91027575D01*
X116777331Y-91407331D02*
X117107356Y-91407331D01*
X115479412Y-91025187D02*
X115482049Y-91022550D01*
X115702918Y-91200000D02*
X116570000Y-91200000D01*
X116570000Y-91200000D02*
X116777331Y-91407331D01*
X115441005Y-91063407D02*
X115441385Y-91063407D01*
X115477968Y-91026797D02*
X115477968Y-91026742D01*
X115477190Y-91027575D02*
X115477968Y-91026797D01*
X115477968Y-91026742D02*
X115479412Y-91025298D01*
X115482049Y-91022550D02*
X115482049Y-91022311D01*
X118690000Y-89210956D02*
X118690000Y-88270000D01*
X118691302Y-89212258D02*
X118690000Y-89210956D01*
%TO.N,LTDC_CLK*%
X123637732Y-100011360D02*
X124311421Y-100685049D01*
X135606317Y-102806000D02*
X136118791Y-102293526D01*
X123519767Y-100011360D02*
X123637732Y-100011360D01*
X124311421Y-100685049D02*
X127715049Y-100685049D01*
X127715049Y-100685049D02*
X129836000Y-102806000D01*
X136118791Y-102293526D02*
X136983526Y-102293526D01*
X129836000Y-102806000D02*
X135606317Y-102806000D01*
%TO.N,LTDC_R3*%
X135503107Y-102550000D02*
X130020000Y-102550000D01*
X136730000Y-101323107D02*
X135503107Y-102550000D01*
X128495100Y-99744628D02*
X128255572Y-99505100D01*
X128255572Y-99505100D02*
X128104628Y-99505100D01*
X128495100Y-100228828D02*
X128495100Y-99744628D01*
X129423236Y-101953236D02*
X129423236Y-101156964D01*
X136730000Y-100710000D02*
X136730000Y-101323107D01*
X122618085Y-99168855D02*
X122401002Y-98951772D01*
X129423236Y-101156964D02*
X128495100Y-100228828D01*
X127768383Y-99168855D02*
X122618085Y-99168855D01*
X128104628Y-99505100D02*
X127768383Y-99168855D01*
X130020000Y-102550000D02*
X129423236Y-101953236D01*
%TO.N,LTDC_B1*%
X137090000Y-88240000D02*
X133815025Y-88240000D01*
X137570200Y-87759800D02*
X137090000Y-88240000D01*
X121638780Y-87297001D02*
X120598832Y-88336948D01*
X113640283Y-91436760D02*
X113369718Y-91436760D01*
X117237966Y-91635931D02*
X116621167Y-91635931D01*
X120598832Y-88336948D02*
X119733052Y-88336948D01*
X115049366Y-91216079D02*
X113860964Y-91216079D01*
X116621167Y-91635931D02*
X116475818Y-91490582D01*
X143950000Y-87800000D02*
X143909800Y-87759800D01*
X118977700Y-89092300D02*
X118977700Y-89896196D01*
X133815025Y-88240000D02*
X132872026Y-87297001D01*
X118977700Y-89896196D02*
X117237966Y-91635931D01*
X113860964Y-91216079D02*
X113640283Y-91436760D01*
X116475818Y-91490582D02*
X115323869Y-91490582D01*
X119733052Y-88336948D02*
X118977700Y-89092300D01*
X143909800Y-87759800D02*
X137570200Y-87759800D01*
X132872026Y-87297001D02*
X121638780Y-87297001D01*
X115323869Y-91490582D02*
X115049366Y-91216079D01*
%TO.N,LTDC_B6*%
X119804152Y-88592559D02*
X119206300Y-89190411D01*
X117780000Y-91453108D02*
X117780000Y-91634900D01*
X144750000Y-88520000D02*
X132730000Y-88520000D01*
X121733473Y-87525600D02*
X120666514Y-88592559D01*
X119206300Y-89190411D02*
X119206300Y-90026808D01*
X144790000Y-88560000D02*
X144750000Y-88520000D01*
X119206300Y-90026808D02*
X117780000Y-91453108D01*
X131735601Y-87525601D02*
X121733473Y-87525600D01*
X120666514Y-88592559D02*
X119804152Y-88592559D01*
X132730000Y-88520000D02*
X131735601Y-87525601D01*
%TO.N,LTDC_R1*%
X130000000Y-103964900D02*
X129857100Y-103822000D01*
X123840061Y-102026300D02*
X123573761Y-101760000D01*
X123995352Y-102177690D02*
X123843961Y-102026300D01*
X127759538Y-102177690D02*
X123995352Y-102177690D01*
X129857100Y-103822000D02*
X129403848Y-103822000D01*
X123573761Y-101760000D02*
X121070000Y-101760000D01*
X121070000Y-101760000D02*
X120836375Y-101526375D01*
X120836375Y-101526375D02*
X120836375Y-100853749D01*
X129403848Y-103822000D02*
X127759538Y-102177690D01*
X123843961Y-102026300D02*
X123840061Y-102026300D01*
%TO.N,LTDC_B5*%
X118654839Y-87451400D02*
X116613068Y-89493171D01*
X145540000Y-87430000D02*
X145140000Y-87030000D01*
X116613068Y-89493171D02*
X116438241Y-89493171D01*
X121449402Y-86839801D02*
X120837802Y-87451400D01*
X138290600Y-86259400D02*
X137710199Y-86839801D01*
X120837802Y-87451400D02*
X118654839Y-87451400D01*
X145140000Y-87030000D02*
X144500000Y-87030000D01*
X144500000Y-87030000D02*
X143729400Y-86259400D01*
X137710199Y-86839801D02*
X121449402Y-86839801D01*
X143729400Y-86259400D02*
X138290600Y-86259400D01*
%TO.N,LTDC_R6*%
X124533290Y-88430000D02*
X129610000Y-88430000D01*
X119394459Y-91495541D02*
X119394459Y-90945541D01*
X123324690Y-89638600D02*
X124530462Y-88432828D01*
X132320000Y-91140000D02*
X133350000Y-91140000D01*
X124533290Y-88432828D02*
X124533290Y-88430000D01*
X118170000Y-92720000D02*
X119394459Y-91495541D01*
X119698600Y-90641400D02*
X120248600Y-90641400D01*
X139010000Y-92700000D02*
X139335872Y-93025872D01*
X133350000Y-91140000D02*
X134910000Y-92700000D01*
X129610000Y-88430000D02*
X132320000Y-91140000D01*
X119394459Y-90945541D02*
X119698600Y-90641400D01*
X117120003Y-92011031D02*
X117120003Y-92440003D01*
X117400000Y-92720000D02*
X118170000Y-92720000D01*
X120248600Y-90641400D02*
X121251400Y-89638600D01*
X117120003Y-92440003D02*
X117400000Y-92720000D01*
X124530462Y-88432828D02*
X124533290Y-88432828D01*
X121251400Y-89638600D02*
X123324690Y-89638600D01*
X134910000Y-92700000D02*
X139010000Y-92700000D01*
X139335872Y-93025872D02*
X139335872Y-93090593D01*
%TO.N,LTDC_G3*%
X138130000Y-96210000D02*
X137358626Y-96981374D01*
X124157267Y-101949090D02*
X122332042Y-100123865D01*
X141680000Y-96210000D02*
X138130000Y-96210000D01*
X127892976Y-101949090D02*
X124157267Y-101949090D01*
X137358626Y-96981374D02*
X137358626Y-102742164D01*
X145870000Y-92550000D02*
X145860000Y-92560000D01*
X145330000Y-92560000D02*
X141680000Y-96210000D01*
X137358626Y-102742164D02*
X136532790Y-103568000D01*
X136532790Y-103568000D02*
X129511886Y-103568000D01*
X122332042Y-100123865D02*
X122332042Y-100064831D01*
X145860000Y-92560000D02*
X145330000Y-92560000D01*
X129511886Y-103568000D02*
X127892976Y-101949090D01*
%TO.N,LTDC_B0*%
X124379750Y-97176460D02*
X124029589Y-96826300D01*
X125657197Y-97016997D02*
X125497734Y-97176460D01*
X126830000Y-97430000D02*
X126380944Y-97430000D01*
X126380944Y-97430000D02*
X125967941Y-97016997D01*
X122971904Y-96826300D02*
X122720249Y-96574645D01*
X124029589Y-96826300D02*
X122971904Y-96826300D01*
X125497734Y-97176460D02*
X124379750Y-97176460D01*
X125967941Y-97016997D02*
X125657197Y-97016997D01*
%TO.N,LTDC_DE*%
X127805924Y-101500000D02*
X124402028Y-101500000D01*
X124402028Y-101500000D02*
X124328038Y-101573990D01*
X136118640Y-103314000D02*
X129619924Y-103314000D01*
X136345618Y-103087022D02*
X136118640Y-103314000D01*
X129619924Y-103314000D02*
X127805924Y-101500000D01*
%TO.N,LTDC_R5*%
X139857256Y-92947256D02*
X139857256Y-93075481D01*
X129700000Y-88190000D02*
X132420000Y-90910000D01*
X120955000Y-89605000D02*
X121090000Y-89470000D01*
X123230000Y-89410000D02*
X124450000Y-88190000D01*
X124450000Y-88190000D02*
X129700000Y-88190000D01*
X120955000Y-89605000D02*
X121150000Y-89410000D01*
X119160000Y-90410000D02*
X120150000Y-90410000D01*
X132420000Y-90910000D02*
X133450000Y-90910000D01*
X135010000Y-92470000D02*
X139380000Y-92470000D01*
X133450000Y-90910000D02*
X135010000Y-92470000D01*
X139380000Y-92470000D02*
X139857256Y-92947256D01*
X118186953Y-92024550D02*
X118186953Y-91383047D01*
X118186953Y-91383047D02*
X119160000Y-90410000D01*
X121150000Y-89410000D02*
X123230000Y-89410000D01*
X120150000Y-90410000D02*
X120955000Y-89605000D01*
%TO.N,LTDC_R7*%
X132220000Y-91370000D02*
X129510000Y-88660000D01*
X116665100Y-92315100D02*
X114640274Y-92315100D01*
X119620231Y-91593059D02*
X118264690Y-92948600D01*
X120350000Y-90870000D02*
X119800000Y-90870000D01*
X133250000Y-91370000D02*
X132220000Y-91370000D01*
X123422800Y-89867200D02*
X121352800Y-89867200D01*
X114640274Y-92315100D02*
X114629486Y-92325888D01*
X124630000Y-88660000D02*
X123422800Y-89867200D01*
X117298600Y-92948600D02*
X116665100Y-92315100D01*
X119800000Y-90870000D02*
X119623059Y-91046941D01*
X129510000Y-88660000D02*
X124630000Y-88660000D01*
X119623059Y-91046941D02*
X119623059Y-91593059D01*
X118264690Y-92948600D02*
X117298600Y-92948600D01*
X134959885Y-93079885D02*
X133250000Y-91370000D01*
X119623059Y-91593059D02*
X119620231Y-91593059D01*
X121352800Y-89867200D02*
X120350000Y-90870000D01*
X138814379Y-93079885D02*
X134959885Y-93079885D01*
%TO.N,LTDC_B4*%
X120932491Y-87680000D02*
X118749529Y-87680000D01*
X118314900Y-88914970D02*
X117910000Y-89319870D01*
X117191977Y-90963500D02*
X116873098Y-90963500D01*
X132981690Y-87068401D02*
X121544091Y-87068401D01*
X133478600Y-87568600D02*
X133478600Y-87565311D01*
X118749529Y-87680000D02*
X118314900Y-88114628D01*
X133478600Y-87565311D02*
X132981690Y-87068401D01*
X144460000Y-87530000D02*
X143939600Y-87009600D01*
X144790000Y-87530000D02*
X144460000Y-87530000D01*
X117910000Y-89319870D02*
X117910000Y-90245477D01*
X118314900Y-88114628D02*
X118314900Y-88914970D01*
X117910000Y-90245477D02*
X117191977Y-90963500D01*
X121544091Y-87068401D02*
X120932491Y-87680000D01*
X137870400Y-87009600D02*
X136910000Y-87970000D01*
X136910000Y-87970000D02*
X133880000Y-87970000D01*
X133880000Y-87970000D02*
X133478600Y-87568600D01*
X143939600Y-87009600D02*
X137870400Y-87009600D01*
%TO.N,LTDC_G0*%
X141622021Y-95241400D02*
X137751636Y-95241400D01*
X124431757Y-97780160D02*
X124224022Y-97780160D01*
X137751636Y-95241400D02*
X137644900Y-95348136D01*
X145026300Y-91837121D02*
X141622021Y-95241400D01*
X145026300Y-90033700D02*
X145026300Y-91837121D01*
X124617898Y-97966301D02*
X124431757Y-97780160D01*
X127360000Y-97610000D02*
X127003699Y-97966301D01*
X127003699Y-97966301D02*
X124617898Y-97966301D01*
X145120000Y-89940000D02*
X145026300Y-90033700D01*
%TO.N,LTDC_B2*%
X145254900Y-90874628D02*
X145556500Y-90573028D01*
X137816710Y-95780000D02*
X138106710Y-95490000D01*
X138106710Y-95490000D02*
X141696712Y-95490000D01*
X128013229Y-98230000D02*
X124453185Y-98230000D01*
X124453185Y-98230000D02*
X124402155Y-98281030D01*
X145254900Y-91931811D02*
X145254900Y-90874628D01*
X146030000Y-88550000D02*
X146030000Y-85950000D01*
X141696712Y-95490000D02*
X145254900Y-91931811D01*
X145556500Y-90573028D02*
X145556500Y-89023500D01*
X137230000Y-95780000D02*
X137816710Y-95780000D01*
X128042002Y-98258773D02*
X128013229Y-98230000D01*
X145556500Y-89023500D02*
X146030000Y-88550000D01*
%TO.N,LTDC_G7*%
X122010000Y-90250000D02*
X122150000Y-90110000D01*
X125794632Y-89490000D02*
X125822871Y-89518239D01*
X124130000Y-89490000D02*
X125794632Y-89490000D01*
X122150000Y-90110000D02*
X123510000Y-90110000D01*
X123510000Y-90110000D02*
X124130000Y-89490000D01*
%TO.N,LTDC_G1*%
X122873796Y-103020000D02*
X122778635Y-103115161D01*
X122778635Y-103115161D02*
X122467891Y-103115161D01*
X127860000Y-103020000D02*
X122873796Y-103020000D01*
X122372730Y-103020000D02*
X120040000Y-103020000D01*
X117890000Y-100870000D02*
X117890000Y-99593172D01*
X120040000Y-103020000D02*
X117890000Y-100870000D01*
X117890000Y-99593172D02*
X117559113Y-99262285D01*
X129320000Y-104480000D02*
X127860000Y-103020000D01*
X122467891Y-103115161D02*
X122372730Y-103020000D01*
%TO.N,LTDC_B3*%
X114980000Y-88280000D02*
X114870000Y-88390000D01*
X137594800Y-86611200D02*
X121354713Y-86611201D01*
X144410799Y-86030800D02*
X138175200Y-86030800D01*
X121354713Y-86611201D02*
X120743113Y-87222800D01*
X138175200Y-86030800D02*
X137594800Y-86611200D01*
X144800000Y-86420001D02*
X144410799Y-86030800D01*
X118560149Y-87222800D02*
X117502949Y-88280000D01*
X117502949Y-88280000D02*
X114980000Y-88280000D01*
X120743113Y-87222800D02*
X118560149Y-87222800D01*
%TO.N,LTDC_R0*%
X124281872Y-102791400D02*
X123969000Y-102478528D01*
X129297810Y-104078000D02*
X128011210Y-102791400D01*
X129577528Y-104078000D02*
X129297810Y-104078000D01*
X123749272Y-102254900D02*
X123745372Y-102254900D01*
X130370000Y-104340000D02*
X129839528Y-104340000D01*
X123745372Y-102254900D02*
X123479072Y-101988600D01*
X128011210Y-102791400D02*
X124281872Y-102791400D01*
X120320668Y-101410668D02*
X120320668Y-100011967D01*
X130610000Y-104100000D02*
X130370000Y-104340000D01*
X120320668Y-100011967D02*
X120319840Y-100011139D01*
X120898600Y-101988600D02*
X120320668Y-101410668D01*
X123479072Y-101988600D02*
X120898600Y-101988600D01*
X123969000Y-102478528D02*
X123969000Y-102474628D01*
X123969000Y-102474628D02*
X123749272Y-102254900D01*
X129839528Y-104340000D02*
X129577528Y-104078000D01*
%TO.N,LTDC_HSYNC*%
X126572377Y-85482769D02*
X120517231Y-85482769D01*
X127390246Y-84664900D02*
X126572377Y-85482769D01*
X119630000Y-86370000D02*
X115470000Y-86370000D01*
X120517231Y-85482769D02*
X119630000Y-86370000D01*
X115470000Y-86370000D02*
X115360000Y-86480000D01*
%TO.N,LTDC_R4*%
X117497747Y-97722253D02*
X118890000Y-96330000D01*
X118890000Y-96330000D02*
X118890000Y-96140474D01*
X129731244Y-89221244D02*
X133990000Y-93480000D01*
X115881594Y-97722253D02*
X117497747Y-97722253D01*
X118890000Y-96140474D02*
X120420000Y-94610474D01*
X133990000Y-93480000D02*
X139983210Y-93480000D01*
X115707547Y-97896300D02*
X115881594Y-97722253D01*
X122464269Y-90695731D02*
X123732305Y-90695731D01*
X124165256Y-90262780D02*
X125866541Y-90262780D01*
X114836360Y-97896300D02*
X115707547Y-97896300D01*
X126438500Y-90371500D02*
X127588756Y-89221244D01*
X120420000Y-92740000D02*
X122464269Y-90695731D01*
X123732305Y-90695731D02*
X124165256Y-90262780D01*
X125975261Y-90371500D02*
X126438500Y-90371500D01*
X120420000Y-94610474D02*
X120420000Y-92740000D01*
X127588756Y-89221244D02*
X129731244Y-89221244D01*
X139983210Y-93480000D02*
X140392136Y-93071074D01*
X125866541Y-90262780D02*
X125975261Y-90371500D01*
%TO.N,LTDC_R2*%
X124098826Y-89970000D02*
X126190000Y-89970000D01*
X119060208Y-92479200D02*
X119826219Y-91713189D01*
X118105100Y-96764900D02*
X118105100Y-96130000D01*
X117376347Y-97493653D02*
X118105100Y-96764900D01*
X121116811Y-91713189D02*
X122388269Y-90441731D01*
X115769817Y-97514116D02*
X115790280Y-97493653D01*
X123627095Y-90441731D02*
X124098826Y-89970000D01*
X117890000Y-95914900D02*
X117890000Y-93640000D01*
X119826219Y-91713189D02*
X121116811Y-91713189D01*
X117890000Y-93640000D02*
X118352800Y-93177200D01*
X115790280Y-97493653D02*
X117376347Y-97493653D01*
X122388269Y-90441731D02*
X123627095Y-90441731D01*
X113861080Y-97514116D02*
X115769817Y-97514116D01*
X118352800Y-93177200D02*
X118359380Y-93177200D01*
X118105100Y-96130000D02*
X117890000Y-95914900D01*
X113846300Y-97528896D02*
X113861080Y-97514116D01*
X119057379Y-92479200D02*
X119060208Y-92479200D01*
X118359380Y-93177200D02*
X119057379Y-92479200D01*
D14*
%TO.N,~{LED_PWR}*%
X114017800Y-109480004D02*
X113637804Y-109860000D01*
X111739964Y-100339740D02*
X114017800Y-102617576D01*
X110396945Y-100340000D02*
X110397205Y-100339740D01*
X110397205Y-100339740D02*
X111739964Y-100339740D01*
X110160000Y-100340000D02*
X110396945Y-100340000D01*
X114017800Y-102617576D02*
X114017800Y-109480004D01*
X113637804Y-109860000D02*
X113610000Y-109860000D01*
D13*
%TO.N,DIB1{slash}DIB3_MOSI*%
X122703431Y-100990624D02*
X122703431Y-101025726D01*
D14*
X126161801Y-104681796D02*
X126233397Y-104610200D01*
X126470000Y-108680000D02*
X126470000Y-105689540D01*
X126470000Y-105689540D02*
X126161801Y-105381341D01*
D13*
X121654602Y-99013042D02*
X121654602Y-99941795D01*
X121638118Y-98996558D02*
X121654602Y-99013042D01*
D14*
X126161801Y-105381341D02*
X126161801Y-104681796D01*
D13*
X121654602Y-99941795D02*
X122703431Y-100990624D01*
D14*
X125104217Y-109144217D02*
X126005783Y-109144217D01*
X126005783Y-109144217D02*
X126470000Y-108680000D01*
%TO.N,DIB2{slash}DIB5_MISO*%
X112870000Y-101864908D02*
X112870000Y-102600000D01*
X111753046Y-100747954D02*
X112870000Y-101864908D01*
X109326354Y-100747954D02*
X111753046Y-100747954D01*
X108830000Y-100251600D02*
X109326354Y-100747954D01*
X112870000Y-102600000D02*
X113600000Y-103330000D01*
%TO.N,DIB1{slash}DIB3_SCLK*%
X110940000Y-109366929D02*
X111122871Y-109549800D01*
D13*
X109840000Y-90540000D02*
X109990000Y-90390000D01*
D14*
X110771690Y-102412004D02*
X110940000Y-102580314D01*
X110940000Y-102580314D02*
X110940000Y-109366929D01*
D13*
X109990000Y-90390000D02*
X114642896Y-90390000D01*
X115090410Y-89942486D02*
X115159190Y-89942486D01*
D14*
X115115959Y-89985717D02*
X115159190Y-89942486D01*
D13*
X114642896Y-90390000D02*
X115090410Y-89942486D01*
D14*
X115084283Y-89985717D02*
X115115959Y-89985717D01*
X111122871Y-109549800D02*
X111122871Y-109637543D01*
%TO.N,/STM32H7 MCU/~{ACTIVE}*%
X125840527Y-107819473D02*
X125840527Y-104039221D01*
X125840527Y-104039221D02*
X126019748Y-103860000D01*
X125322081Y-108337919D02*
X125840527Y-107819473D01*
X126019748Y-103860000D02*
X126146270Y-103860000D01*
X125322081Y-108483889D02*
X125322081Y-108337919D01*
D13*
%TO.N,MCU_USB_VBUS*%
X110475100Y-92600000D02*
X110365100Y-92710000D01*
X114800000Y-92910000D02*
X111180000Y-92910000D01*
X114510000Y-77450000D02*
X116040000Y-77450000D01*
X111180000Y-92910000D02*
X110870000Y-92600000D01*
X110870000Y-92600000D02*
X110475100Y-92600000D01*
X115120000Y-93230000D02*
X114800000Y-92910000D01*
X111240000Y-85380000D02*
X111240000Y-80720000D01*
X115120000Y-93720000D02*
X115120000Y-93230000D01*
X114862269Y-93906618D02*
X114933382Y-93906618D01*
X116040000Y-77450000D02*
X116100000Y-77390000D01*
X114933382Y-93906618D02*
X115120000Y-93720000D01*
X111240000Y-80720000D02*
X114510000Y-77450000D01*
%TO.N,MCU_USB_ID*%
X114314428Y-94740000D02*
X113710000Y-94740000D01*
X111860000Y-85400000D02*
X111860000Y-80440000D01*
X113710000Y-94740000D02*
X112650000Y-93680000D01*
X111410000Y-93680000D02*
X110908185Y-93178185D01*
X111860000Y-80440000D02*
X114050000Y-78250000D01*
X110908185Y-93178185D02*
X110595039Y-93178185D01*
X112650000Y-93680000D02*
X111410000Y-93680000D01*
X114451668Y-94602760D02*
X114314428Y-94740000D01*
X114050000Y-78250000D02*
X114280000Y-78250000D01*
%TO.N,ETH_REF_CLK*%
X107540406Y-95449594D02*
X105950000Y-97040000D01*
X114003928Y-96220000D02*
X112137591Y-96220000D01*
X112137591Y-96220000D02*
X111367185Y-95449594D01*
X111367185Y-95449594D02*
X107540406Y-95449594D01*
D14*
%TO.N,RS485_RX{slash}DIN3*%
X106940000Y-95130000D02*
X109960000Y-92110000D01*
X110317801Y-103054981D02*
X110580000Y-103317180D01*
X110580000Y-103317180D02*
X110580000Y-109555362D01*
X110580000Y-109555362D02*
X110604471Y-109579833D01*
X114746725Y-91828723D02*
X114755669Y-91819779D01*
X114028448Y-91828723D02*
X114746725Y-91828723D01*
X113747171Y-92110000D02*
X114028448Y-91828723D01*
X109960000Y-92110000D02*
X113747171Y-92110000D01*
D13*
%TO.N,DVID_CEC*%
X130394890Y-83915110D02*
X130394890Y-84061675D01*
X137710000Y-85280000D02*
X136150000Y-83720000D01*
X130840000Y-83470000D02*
X130394890Y-83915110D01*
X132540000Y-83720000D02*
X132290000Y-83470000D01*
X136150000Y-83720000D02*
X132540000Y-83720000D01*
X132290000Y-83470000D02*
X130840000Y-83470000D01*
%TO.N,DVID_HPD*%
X129981339Y-84432072D02*
X128030811Y-86382600D01*
X120648424Y-86994200D02*
X118465458Y-86994200D01*
X118465458Y-86994200D02*
X118209658Y-87250000D01*
X118209658Y-87250000D02*
X115958182Y-87250000D01*
X115958182Y-87250000D02*
X115883144Y-87325038D01*
X121260023Y-86382601D02*
X120648424Y-86994200D01*
X128030811Y-86382600D02*
X121260023Y-86382601D01*
%TO.N,RTC_CM5*%
X117327175Y-104037175D02*
X117327175Y-105257175D01*
X117327175Y-105257175D02*
X119750000Y-107680000D01*
X116132646Y-103606305D02*
X116896305Y-103606305D01*
X119750000Y-107680000D02*
X120840000Y-107680000D01*
X120840000Y-107680000D02*
X121610000Y-108450000D01*
X116896305Y-103606305D02*
X117327175Y-104037175D01*
%TO.N,DIN2*%
X111280000Y-102269220D02*
X111270598Y-102259818D01*
X110130000Y-94640000D02*
X109710000Y-95060000D01*
X113066055Y-106406055D02*
X111280000Y-104620000D01*
X113066055Y-109089696D02*
X113066055Y-106406055D01*
X112740683Y-94640000D02*
X110130000Y-94640000D01*
X111280000Y-104620000D02*
X111280000Y-102269220D01*
X112828554Y-94552129D02*
X112740683Y-94640000D01*
%TO.N,UART_TX{slash}DOUT1*%
X125060000Y-106519399D02*
X125054900Y-106524499D01*
X119348273Y-100888273D02*
X119775000Y-101315000D01*
X125060000Y-105236301D02*
X125060000Y-106519399D01*
X122583324Y-102780000D02*
X122623263Y-102740061D01*
X119050000Y-100850000D02*
X119088273Y-100888273D01*
X119088273Y-100888273D02*
X119348273Y-100888273D01*
X119775000Y-102225000D02*
X120330000Y-102780000D01*
X125185385Y-105110916D02*
X125060000Y-105236301D01*
X119775000Y-101315000D02*
X119775000Y-102225000D01*
X120330000Y-102780000D02*
X122583324Y-102780000D01*
%TO.N,RS485_TX{slash}DOUT3*%
X109925665Y-102002769D02*
X109417231Y-102002769D01*
X108850000Y-107810000D02*
X108900000Y-107860000D01*
X108640000Y-104180000D02*
X108850000Y-104390000D01*
X109417231Y-102002769D02*
X108640000Y-102780000D01*
X108640000Y-102780000D02*
X108640000Y-104180000D01*
X108850000Y-104390000D02*
X108850000Y-107810000D01*
%TO.N,USB_FS_SEL*%
X114940000Y-74580000D02*
X114700000Y-74580000D01*
X121370000Y-83980000D02*
X121370000Y-81820000D01*
X121370000Y-81010000D02*
X116340000Y-75980000D01*
X121358730Y-83991270D02*
X121370000Y-83980000D01*
X121370000Y-81820000D02*
X121370000Y-81010000D01*
X116340000Y-75980000D02*
X114940000Y-74580000D01*
D14*
%TO.N,Net-(IC7-RXD1{slash}MODE1)*%
X111021914Y-101454953D02*
X110086298Y-102390569D01*
X111451339Y-101454953D02*
X111021914Y-101454953D01*
X109240000Y-107180000D02*
X109240000Y-103208518D01*
X109240000Y-103208518D02*
X109021482Y-102990000D01*
X110086298Y-102390569D02*
X109620913Y-102390569D01*
X109620913Y-102390569D02*
X109021482Y-102990000D01*
%TO.N,Net-(IC7-LED1{slash}NINT{slash}NPME{slash}REGOFF)*%
X108230000Y-109820000D02*
X103790000Y-109820000D01*
X108245210Y-109804790D02*
X108230000Y-109820000D01*
X103790000Y-109820000D02*
X103360000Y-110250000D01*
%TD*%
%TA.AperFunction,Conductor*%
%TO.N,+5V*%
G36*
X139926810Y-98101236D02*
G01*
X140021001Y-98116155D01*
X140050930Y-98125880D01*
X140128749Y-98165531D01*
X140154212Y-98184031D01*
X140215968Y-98245787D01*
X140234468Y-98271250D01*
X140274119Y-98349069D01*
X140283845Y-98379003D01*
X140298761Y-98473176D01*
X140300000Y-98488914D01*
X140300000Y-99011085D01*
X140298761Y-99026823D01*
X140283845Y-99120996D01*
X140274119Y-99150930D01*
X140234468Y-99228749D01*
X140215968Y-99254212D01*
X140154212Y-99315968D01*
X140128749Y-99334468D01*
X140050930Y-99374119D01*
X140020996Y-99383845D01*
X139944346Y-99395985D01*
X139926821Y-99398761D01*
X139911086Y-99400000D01*
X139100000Y-99400000D01*
X139100000Y-105852390D01*
X139080787Y-105911521D01*
X139030487Y-105948066D01*
X138968313Y-105948066D01*
X138949104Y-105939514D01*
X138940519Y-105934558D01*
X138940508Y-105934553D01*
X138838048Y-105907099D01*
X138838044Y-105907099D01*
X138731958Y-105907099D01*
X138731953Y-105907099D01*
X138629493Y-105934553D01*
X138629488Y-105934555D01*
X138537614Y-105987597D01*
X138462599Y-106062612D01*
X138409557Y-106154486D01*
X138409555Y-106154491D01*
X138382101Y-106256951D01*
X138382101Y-106363046D01*
X138409555Y-106465506D01*
X138409557Y-106465511D01*
X138443729Y-106524700D01*
X138456655Y-106585516D01*
X138443729Y-106625297D01*
X138409559Y-106684483D01*
X138409555Y-106684492D01*
X138382101Y-106786952D01*
X138382101Y-106893047D01*
X138409555Y-106995507D01*
X138409557Y-106995512D01*
X138409558Y-106995514D01*
X138443729Y-107054701D01*
X138456655Y-107115515D01*
X138443729Y-107155298D01*
X138409557Y-107214486D01*
X138409555Y-107214491D01*
X138382101Y-107316951D01*
X138382101Y-107376229D01*
X138362888Y-107435360D01*
X138352636Y-107447364D01*
X135118597Y-110681402D01*
X135103352Y-110693913D01*
X135004624Y-110759880D01*
X134968361Y-110774901D01*
X134876999Y-110793074D01*
X134851901Y-110798067D01*
X134832277Y-110800000D01*
X134701458Y-110800000D01*
X134642327Y-110780787D01*
X134630323Y-110770535D01*
X134607386Y-110747598D01*
X134515512Y-110694556D01*
X134515507Y-110694554D01*
X134413047Y-110667100D01*
X134413043Y-110667100D01*
X134306957Y-110667100D01*
X134306952Y-110667100D01*
X134204492Y-110694554D01*
X134204487Y-110694556D01*
X134112613Y-110747598D01*
X134089677Y-110770535D01*
X134034279Y-110798761D01*
X134018542Y-110800000D01*
X132378501Y-110800000D01*
X132328202Y-110786523D01*
X132306717Y-110774119D01*
X132255514Y-110744557D01*
X132255513Y-110744556D01*
X132255512Y-110744556D01*
X132255507Y-110744554D01*
X132153047Y-110717100D01*
X132153043Y-110717100D01*
X132046957Y-110717100D01*
X132046952Y-110717100D01*
X131944492Y-110744554D01*
X131944487Y-110744556D01*
X131871798Y-110786523D01*
X131821499Y-110800000D01*
X129688914Y-110800000D01*
X129673178Y-110798761D01*
X129652075Y-110795418D01*
X129579003Y-110783845D01*
X129549069Y-110774119D01*
X129471250Y-110734468D01*
X129445787Y-110715968D01*
X129384031Y-110654212D01*
X129365531Y-110628749D01*
X129325880Y-110550930D01*
X129316155Y-110521001D01*
X129301237Y-110426811D01*
X129300000Y-110411085D01*
X129300000Y-109988914D01*
X129301236Y-109973189D01*
X129316155Y-109878996D01*
X129325880Y-109849069D01*
X129365533Y-109771246D01*
X129384028Y-109745790D01*
X129445790Y-109684028D01*
X129471246Y-109665533D01*
X129549070Y-109625879D01*
X129578996Y-109616155D01*
X129673189Y-109601236D01*
X129688914Y-109600000D01*
X132911501Y-109600000D01*
X132961798Y-109613476D01*
X132969926Y-109618169D01*
X132969929Y-109618169D01*
X132969932Y-109618171D01*
X133062218Y-109642899D01*
X133062220Y-109642899D01*
X133062223Y-109642900D01*
X133062225Y-109642900D01*
X133157775Y-109642900D01*
X133157777Y-109642900D01*
X133250070Y-109618170D01*
X133250071Y-109618170D01*
X133250071Y-109618169D01*
X133250074Y-109618169D01*
X133332826Y-109570392D01*
X133400392Y-109502826D01*
X133448169Y-109420074D01*
X133448170Y-109420071D01*
X133448171Y-109420069D01*
X133466171Y-109352890D01*
X133492206Y-109307793D01*
X133781508Y-109018491D01*
X133836904Y-108990267D01*
X133870372Y-108992020D01*
X133870487Y-108991152D01*
X133877024Y-108992012D01*
X133877026Y-108992013D01*
X133877028Y-108992013D01*
X133972578Y-108992013D01*
X133972580Y-108992013D01*
X133975794Y-108991152D01*
X134064873Y-108967283D01*
X134064874Y-108967283D01*
X134064874Y-108967282D01*
X134064877Y-108967282D01*
X134147629Y-108919505D01*
X134215195Y-108851939D01*
X134262972Y-108769187D01*
X134287703Y-108676890D01*
X134287703Y-108581336D01*
X134287702Y-108581335D01*
X134286842Y-108574797D01*
X134288586Y-108574567D01*
X134291401Y-108520895D01*
X134314179Y-108485820D01*
X137365263Y-105434736D01*
X137386086Y-105418759D01*
X137432034Y-105392231D01*
X137432035Y-105392231D01*
X137502396Y-105321870D01*
X137502396Y-105321869D01*
X137528926Y-105275918D01*
X137544904Y-105255095D01*
X137600000Y-105200000D01*
X137600000Y-98488914D01*
X137601236Y-98473189D01*
X137616155Y-98378996D01*
X137625880Y-98349069D01*
X137665533Y-98271246D01*
X137684028Y-98245790D01*
X137745790Y-98184028D01*
X137771246Y-98165533D01*
X137849070Y-98125879D01*
X137878996Y-98116155D01*
X137973189Y-98101236D01*
X137988914Y-98100000D01*
X139911086Y-98100000D01*
X139926810Y-98101236D01*
G37*
%TD.AperFunction*%
%TD*%
M02*
